<svg width="75" height="75" viewBox="0 0 75 75" fill="none" xmlns="http://www.w3.org/2000/svg">
<g clip-path="url(#clip0_2135_2828)">
<path d="M68.2477 45.675L66.0727 21.075L40.4977 0V13.425L52.3477 20.325C52.7977 20.625 52.7977 21.225 52.3477 21.45L38.2477 29.55C37.7977 29.85 37.3477 29.7 36.9727 29.55L22.9477 21.375C22.4977 21.225 22.4977 20.475 22.9477 20.25L34.7977 13.35V0L4.34766 17.475V52.5L15.8977 45.75V32.025C15.8977 31.575 16.4977 31.275 16.7977 31.425L30.8977 39.525C31.3477 39.825 31.4977 40.125 31.4977 40.65V56.925C31.4977 57.375 30.8977 57.675 30.5977 57.525L18.7477 50.625L7.19766 57.375L37.4977 75L67.7977 57.525L56.2477 50.775L44.3977 57.675C43.9477 57.975 43.4977 57.675 43.4977 57.075V40.8C43.4977 40.35 43.7977 39.9 44.0977 39.675L58.1977 31.575C58.6477 31.275 59.0977 31.575 59.0977 32.175V45.9L68.2477 45.675Z" fill="white"/>
<path d="M37.4984 75.0749L6.97344 57.3749L7.12344 57.2999L18.7484 50.5499L30.6734 57.4499C30.8234 57.5249 30.9734 57.4499 31.1984 57.3749C31.3484 57.2249 31.4984 57.0749 31.4984 56.9249V40.6499C31.4984 40.1999 31.3484 39.8999 30.8984 39.5999L16.7984 31.4999C16.6484 31.4249 16.4984 31.4999 16.2734 31.5749C16.1234 31.7249 15.9734 31.8749 15.9734 32.0249V45.8249H15.8984L4.27344 52.6499V17.3999H4.34844L34.9484 -0.150098V13.4999L23.0234 20.3999C22.7984 20.4749 22.7234 20.6999 22.7234 20.8499C22.7234 20.9999 22.7984 21.2249 23.0234 21.2999L37.1234 29.3999C37.5734 29.6249 37.9484 29.6249 38.2484 29.3999L52.3484 21.2999C52.4984 21.2249 52.6484 21.1499 52.6484 20.9249C52.6484 20.6999 52.5734 20.4749 52.3484 20.3249L40.3484 13.4999V-0.225098L66.1484 20.9999V21.0749L68.3234 45.7499H68.2484L58.9484 45.9749V32.1749C58.9484 31.8749 58.8734 31.6499 58.6484 31.5749C58.4984 31.4999 58.3484 31.4999 58.1984 31.6499L44.0984 39.7499C43.7984 39.8999 43.4984 40.3499 43.4984 40.7249V56.9999C43.4984 57.2999 43.5734 57.5249 43.7984 57.5999C43.9484 57.6749 44.0984 57.6749 44.3234 57.5249L56.2484 50.6999H56.3234L68.0234 57.5249L67.8734 57.5999L37.4984 75.0749ZM7.34844 57.3749L37.4984 74.9249L67.6484 57.5249L56.2484 50.9249L44.3984 57.7499C44.1734 57.8999 43.9484 57.8999 43.7234 57.8249C43.4984 57.6749 43.3484 57.3749 43.3484 57.0749V40.7999C43.3484 40.2749 43.7234 39.7499 44.0234 39.5999L58.0484 31.4999C58.2734 31.3499 58.4984 31.3499 58.7234 31.4249C58.9484 31.5749 59.0984 31.8749 59.0984 32.1749V45.8249L68.0984 45.5999L65.9984 21.1499L40.5734 0.224902V13.4249L52.4234 20.2499C52.7234 20.3999 52.8734 20.7749 52.7984 20.9999C52.7984 21.2249 52.6484 21.3749 52.4234 21.5249L38.3234 29.6249C37.9484 29.8499 37.4984 29.8499 36.9734 29.6249L22.9484 21.4499C22.7234 21.3749 22.5734 21.1499 22.5734 20.8499C22.5734 20.5499 22.7234 20.3249 23.0234 20.2499L34.7984 13.4249V0.149902L4.49844 17.5499V52.3499L15.8234 45.7499V32.0249C15.8234 31.7999 15.9734 31.5749 16.1984 31.4249C16.4234 31.2749 16.7234 31.2749 16.8734 31.3499L30.9734 39.4499C31.4234 39.7499 31.6484 40.1249 31.6484 40.6499V56.9249C31.6484 57.1499 31.4984 57.3749 31.2734 57.5249C31.0484 57.6749 30.7484 57.6749 30.5984 57.5999L18.7484 50.6999L7.34844 57.3749Z" fill="white"/>
<path d="M37.5 75.0001L67.8 57.5251L56.25 50.7751L44.4 57.6751C43.95 57.9751 43.5 57.6751 43.5 57.0751V40.8001C43.5 40.3501 43.8 39.9001 44.1 39.6751L58.2 31.5751C58.65 31.2751 59.1 31.5751 59.1 32.1751V45.9001L70.65 52.6501V17.4751L51.15 23.7751L37.5 36.7501V75.0001Z" fill="white"/>
<path d="M37.4258 75.1499V36.6749L51.1508 23.6999L70.8008 17.3999V52.8749L70.6508 52.7999L59.0258 46.0499V32.1749C59.0258 31.8749 58.9508 31.6499 58.7258 31.5749C58.5008 31.4999 58.3508 31.4999 58.2008 31.6499L44.1008 39.7499C43.8008 39.8999 43.5008 40.3499 43.5008 40.7249V56.9999C43.5008 57.2999 43.5758 57.5249 43.8008 57.5999C43.9508 57.6749 44.1008 57.6749 44.3258 57.5249L56.2508 50.6999H56.3258L68.0258 57.5249L67.8758 57.5999L37.4258 75.1499ZM37.5758 36.7499V74.8499L67.5758 57.5249L56.2508 50.9249L44.4008 57.7499C44.1758 57.8999 43.9508 57.8999 43.7258 57.8249C43.5008 57.6749 43.3508 57.3749 43.3508 57.0749V40.7999C43.3508 40.2749 43.7258 39.7499 44.0258 39.5999L58.0508 31.4999C58.2758 31.3499 58.5008 31.3499 58.7258 31.4249C58.9508 31.5749 59.1008 31.8749 59.1008 32.1749V45.8999L70.5008 52.4999V17.6249L51.1508 23.8499L37.5758 36.7499Z" fill="white"/>
<path d="M40.4977 0V13.425L52.3477 20.325C52.7977 20.625 52.7977 21.225 52.3477 21.45L38.2477 29.55C37.7977 29.85 37.3477 29.7 36.9727 29.55L22.9477 21.375C22.4977 21.225 22.4977 20.475 22.9477 20.25L34.7977 13.35V0L4.34766 17.475L37.4977 36.75L70.6477 17.55L40.4977 0Z" fill="white"/>
<path d="M37.4992 36.8251L4.19922 17.4751L34.9492 -0.149902V13.5001L23.0242 20.4001C22.7992 20.4751 22.7242 20.7001 22.7242 20.8501C22.7242 21.0001 22.7992 21.2251 23.0242 21.3001L37.1242 29.4001C37.5742 29.6251 37.9492 29.6251 38.2492 29.4001L52.3492 21.3001C52.4992 21.2251 52.6492 21.1501 52.6492 20.9251C52.6492 20.7001 52.5742 20.4751 52.3492 20.3251L40.3492 13.5001V-0.149902L40.4992 -0.0749023L70.7992 17.4751L70.6492 17.5501L37.4992 36.8251ZM4.57422 17.4751L37.4992 36.6001L70.4242 17.4751L40.5742 0.150098V13.3501L52.4242 20.2501C52.7242 20.4001 52.8742 20.7751 52.7992 21.0001C52.7992 21.2251 52.6492 21.3751 52.4242 21.5251L38.3242 29.6251C37.9492 29.8501 37.4992 29.8501 36.9742 29.6251L22.9492 21.4501C22.7242 21.3751 22.5742 21.1501 22.5742 20.8501C22.5742 20.5501 22.7242 20.3251 23.0242 20.2501L34.7992 13.4251V0.150098L4.57422 17.4751Z" fill="white"/>
</g>
<defs>
<clipPath id="clip0_2135_2828">
<rect width="75" height="75" fill="white"/>
</clipPath>
</defs>
</svg>
