<svg width="75" height="75" viewBox="0 0 75 75" fill="none" xmlns="http://www.w3.org/2000/svg">
<g clip-path="url(#clip0_2135_2858)">
<path d="M47.85 5.1752H44.25C42.825 5.1752 41.7 4.0502 41.7 2.6252C41.7 2.2502 41.775 1.8002 42 1.5002L42.75 0.0751953H36C33.675 0.0751953 31.425 0.975195 29.775 2.6252C28.125 4.2752 25.875 5.1752 23.55 5.1752H22.05C17.7 5.1752 14.25 8.62519 14.25 12.9752C14.25 13.8002 14.4 14.6252 14.625 15.4502L18.075 25.8752H51.75L55.2 15.4502C55.5 14.6252 55.575 13.8002 55.575 12.9752C55.575 8.70019 52.125 5.1752 47.85 5.1752Z" fill="#FFA31D"/>
<path d="M25.8758 54.3003H43.9508C55.3508 54.3003 64.6508 63.6003 64.6508 75.0003H5.17578C5.17578 63.6003 14.4008 54.3003 25.8758 54.3003Z" fill="#706ECF"/>
<path d="M34.9488 56.9251C26.9238 56.9251 20.3238 50.7001 19.7988 42.7501L18.5238 23.7001C18.2988 20.8501 20.4738 18.3751 23.3238 18.2251C23.4738 18.2251 23.5488 18.2251 23.6988 18.2251H30.2988C30.8238 18.2251 31.2738 18.3751 31.7238 18.6751L33.5238 19.8751C34.4238 20.4751 35.5488 20.4751 36.3738 19.8751L38.1738 18.6751C38.6238 18.3751 39.0738 18.2251 39.5988 18.2251H46.1988C49.0488 18.2251 51.3738 20.5501 51.3738 23.4001C51.3738 23.5501 51.3738 23.6251 51.3738 23.7751L50.0988 42.8251C49.5738 50.7001 42.8988 56.9251 34.9488 56.9251Z" fill="#FFD3B6"/>
<path d="M50.4 41.4H41.175C40.5 41.4 39.825 41.1 39.375 40.65L38.25 39.525C37.8 39.075 37.125 38.775 36.45 38.775H33.45C32.775 38.775 32.1 39.075 31.65 39.525L30.6 40.575C30.15 41.025 29.475 41.325 28.8 41.325H19.425C16.575 41.325 14.25 39 14.25 36.15V28.425C14.25 25.575 16.575 23.25 19.425 23.25H50.475C53.325 23.25 55.65 25.575 55.65 28.425V36.15C55.575 39.075 53.325 41.4 50.4 41.4Z" fill="#47CBF4"/>
<path d="M65.6234 75.0003C67.9484 75.0003 69.8234 73.1253 69.8234 70.8003C69.8234 68.4753 69.4484 66.0753 68.7734 63.8253L67.0484 57.9753C66.3734 55.8003 64.3484 54.3003 62.0984 54.3003H49.1234C46.8734 54.3003 44.8484 55.8003 44.1734 57.9753L42.4484 63.8253C41.7734 66.0753 41.3984 68.4003 41.3984 70.8003C41.3984 73.1253 43.2734 75.0003 45.5984 75.0003C47.6234 75.0003 49.4234 73.5003 49.7234 71.4753L50.0984 69.3753C50.3234 68.1003 51.3734 67.2003 52.6484 67.2003H58.6484C59.9234 67.2003 60.9734 68.1003 61.1984 69.3753L61.5734 71.4753C61.7984 73.5003 63.5984 75.0003 65.6234 75.0003Z" fill="#47CBF4"/>
<path d="M6.45078 7.7251L10.3508 11.6251L6.45078 15.5251L2.55078 11.6251L6.45078 7.7251Z" fill="#00C383"/>
<path d="M63.3766 41.4004L67.2766 45.3004L63.3766 49.2004L59.4766 45.3004L63.3766 41.4004Z" fill="#00C383"/>
<path d="M9.07578 45.2251L12.9758 49.1251L9.07578 53.0251L5.17578 49.1251L9.07578 45.2251Z" fill="#00C383"/>
<path d="M59.4766 9.07529L63.3766 5.17529L67.2766 9.07529L63.3766 12.9753L59.4766 9.07529Z" fill="#00C383"/>
<path d="M72.4484 29.7001C73.8568 29.7001 74.9984 28.5584 74.9984 27.1501C74.9984 25.7418 73.8568 24.6001 72.4484 24.6001C71.0401 24.6001 69.8984 25.7418 69.8984 27.1501C69.8984 28.5584 71.0401 29.7001 72.4484 29.7001Z" fill="#FFA31D"/>
<path d="M2.55 33.6C3.95833 33.6 5.1 32.4583 5.1 31.05C5.1 29.6417 3.95833 28.5 2.55 28.5C1.14167 28.5 0 29.6417 0 31.05C0 32.4583 1.14167 33.6 2.55 33.6Z" fill="#FFA31D"/>
<path d="M39.0735 48.3C37.1985 50.625 33.8985 51 31.5735 49.125C31.2735 48.9 30.9735 48.6 30.7485 48.3C30.2985 47.775 29.4735 47.625 28.9485 48.075C28.4235 48.525 28.2735 49.35 28.7235 49.875C31.4235 53.325 36.4485 53.85 39.8235 51.15C40.2735 50.775 40.7235 50.4 41.0985 49.875C41.5485 49.35 41.4735 48.525 40.8735 48.075C40.3485 47.7 39.5235 47.775 39.0735 48.3Z" fill="#FFA31D"/>
<path d="M20.6984 37.5002V36.2252C20.6984 35.4752 20.0984 34.9502 19.4234 34.9502C18.6734 34.9502 18.1484 35.5502 18.1484 36.2252V37.5002C18.1484 38.2502 18.7484 38.7752 19.4234 38.7752C20.0984 38.7752 20.6984 38.2502 20.6984 37.5002Z" fill="#1DB4D8"/>
<path d="M51.75 59.4753H50.475V58.2003C50.475 57.4503 49.875 56.9253 49.2 56.9253C48.45 56.9253 47.925 57.5253 47.925 58.2003V59.4753H46.65C45.9 59.4753 45.375 60.0753 45.375 60.7503C45.375 61.5003 45.975 62.0253 46.65 62.0253H47.925V63.3003C47.925 64.0503 48.525 64.5753 49.2 64.5753C49.95 64.5753 50.475 63.9753 50.475 63.3003V62.0253H51.75C52.5 62.0253 53.025 61.4253 53.025 60.7503C53.025 60.0753 52.425 59.4753 51.75 59.4753Z" fill="#FFA31D"/>
<path d="M62.0992 59.4753C62.8034 59.4753 63.3742 58.9045 63.3742 58.2003C63.3742 57.4961 62.8034 56.9253 62.0992 56.9253C61.3951 56.9253 60.8242 57.4961 60.8242 58.2003C60.8242 58.9045 61.3951 59.4753 62.0992 59.4753Z" fill="#FFA31D"/>
<path d="M59.4742 62.0251C60.1784 62.0251 60.7492 61.4543 60.7492 60.7501C60.7492 60.0459 60.1784 59.4751 59.4742 59.4751C58.7701 59.4751 58.1992 60.0459 58.1992 60.7501C58.1992 61.4543 58.7701 62.0251 59.4742 62.0251Z" fill="#FFA31D"/>
<path d="M64.65 62.0251C65.3542 62.0251 65.925 61.4543 65.925 60.7501C65.925 60.0459 65.3542 59.4751 64.65 59.4751C63.9458 59.4751 63.375 60.0459 63.375 60.7501C63.375 61.4543 63.9458 62.0251 64.65 62.0251Z" fill="#FFA31D"/>
<path d="M62.0992 64.6501C62.8034 64.6501 63.3742 64.0793 63.3742 63.3751C63.3742 62.6709 62.8034 62.1001 62.0992 62.1001C61.3951 62.1001 60.8242 62.6709 60.8242 63.3751C60.8242 64.0793 61.3951 64.6501 62.0992 64.6501Z" fill="#FFA31D"/>
<path d="M19.4259 33.6C20.1759 33.6 20.7009 33 20.7009 32.325V27.15C20.7009 26.4 20.1009 25.875 19.4259 25.875C18.6759 25.875 18.1509 26.475 18.1509 27.15V32.325C18.0759 33.075 18.6759 33.6 19.4259 33.6Z" fill="#1DB4D8"/>
</g>
<defs>
<clipPath id="clip0_2135_2858">
<rect width="75" height="75" fill="white"/>
</clipPath>
</defs>
</svg>
