<svg width="75" height="75" viewBox="0 0 75 75" fill="none" xmlns="http://www.w3.org/2000/svg">
<g clip-path="url(#clip0_2135_2884)">
<path d="M74.6933 37.455C74.6033 46.6125 71.7308 54.765 65.8208 61.785C60.7283 67.83 54.3158 71.85 46.6658 73.845C42.6383 74.895 38.5433 75.2175 34.3958 74.8575C26.9783 74.22 20.3333 71.595 14.5133 66.96C8.04083 61.8075 3.73583 55.1925 1.57583 47.1975C0.540829 43.3725 0.135829 39.4725 0.368329 35.52C0.953329 25.8075 4.67333 17.49 11.5808 10.6275C15.5708 6.66749 20.2658 3.80999 25.5758 1.97999C27.9458 1.16249 30.3758 0.607493 32.8583 0.299993C35.4608 -0.0300069 38.0783 -0.0900069 40.6883 0.142493C46.9958 0.689993 52.8008 2.69999 58.0583 6.23249C64.5908 10.6275 69.2783 16.5075 72.1583 23.835C73.1858 26.4525 73.8833 29.1675 74.2958 31.95C74.5658 33.765 74.7008 35.6025 74.6933 37.455ZM1.98083 35.82C1.97333 41.175 2.48333 44.7375 3.57083 48.2175C6.00083 55.9575 10.5383 62.1975 17.1158 66.915C22.6958 70.92 28.9583 73.0275 35.8058 73.38C39.3608 73.56 42.8708 73.2225 46.3133 72.3225C53.8733 70.3425 60.1583 66.3225 65.0633 60.24C71.0933 52.7625 73.6808 44.1825 72.9908 34.605C72.7658 31.47 72.1058 28.4175 71.0483 25.455C68.8958 19.3725 65.3258 14.25 60.4133 10.065C55.0658 5.50499 48.8858 2.81249 41.9183 1.92749C39.2258 1.58249 36.5258 1.57499 33.8258 1.85249C31.2608 2.11499 28.7558 2.64749 26.3108 3.46499C20.5583 5.39999 15.6233 8.61749 11.5283 13.0875C5.21333 20.01 2.07833 28.185 1.98083 35.82Z" fill="white"/>
<path d="M61.8596 43.56C61.1921 44.985 60.4046 46.335 59.5496 47.655C57.5546 50.715 55.2296 53.49 52.4321 55.8525C51.3146 56.7975 50.1446 57.645 48.8996 58.41C48.7496 58.5 48.6596 58.5075 48.5171 58.3875C46.9796 57.075 45.4346 55.785 43.8971 54.4725C43.7021 54.3075 43.6121 54.3 43.4246 54.495C41.7671 56.2875 40.0946 58.0575 38.4296 59.8425C38.3171 59.9625 38.2121 60 38.0471 59.9775C34.3046 59.4975 30.7196 58.5225 27.3446 56.8125C24.9971 55.62 22.9121 54.09 21.2996 51.9675C21.2246 51.87 21.1571 51.7725 21.0821 51.6675C21.0746 51.6525 21.0671 51.6375 21.0521 51.585C21.4271 51.675 21.7796 51.7875 22.1471 51.825C22.6121 51.87 23.0771 51.9 23.5271 51.765C24.3071 51.5325 24.7346 50.94 24.7871 50.025C24.7946 49.875 24.7946 49.725 24.7946 49.575C24.7946 43.965 24.7646 38.355 24.8171 32.745C24.8321 31.1025 23.6471 30.1725 22.0271 30.6525C21.0671 30.93 20.2346 31.4475 19.4546 32.0475C17.6921 33.4125 16.2446 35.085 14.8721 36.825C13.1921 38.9625 11.7296 41.235 10.5896 43.71C10.5821 43.7325 10.5671 43.755 10.5296 43.8075C10.4621 43.4925 10.4396 43.2075 10.4321 42.9225C10.3421 40.515 10.8521 38.22 11.7146 35.9925C12.7721 33.2775 14.3171 30.855 16.1921 28.635C18.4721 25.95 20.9171 23.4225 23.6396 21.165C27.1196 18.285 30.9896 16.1325 35.3696 14.955C35.4221 14.94 35.4671 14.9325 35.5421 14.9625C35.4671 15.015 35.3996 15.06 35.3246 15.1125C33.7646 16.215 32.4071 17.505 31.5521 19.2525C30.7721 20.8425 30.7421 22.5 31.2296 24.1725C31.4171 24.81 31.7846 25.3275 32.4971 25.485C32.8871 25.575 33.2396 25.455 33.5846 25.29C33.6671 25.2525 33.7496 25.2 33.8321 25.155C33.8921 25.2675 33.8621 25.3725 33.8621 25.4775C33.8621 32.7975 33.8696 40.125 33.8546 47.445C33.8546 48 34.0421 48.435 34.3646 48.84C35.3171 50.04 36.6971 50.4525 38.2346 50.0025C39.5471 49.6125 40.6646 48.855 41.7821 48.09C42.3671 47.6925 42.5696 47.2425 42.5696 46.5225C42.5321 40.8525 42.5321 35.1825 42.5621 29.505C42.5771 27.195 41.6396 25.41 39.8321 24.015C40.4096 23.9775 40.9871 24.0075 41.5646 24.075C42.4796 24.195 43.3796 24.375 44.1596 24.9225C44.2571 24.99 44.2946 24.945 44.3546 24.8775C46.2671 22.7925 48.5171 21.15 50.9996 19.8075C53.2871 18.57 55.7096 17.6925 58.2521 17.16C58.3046 17.1525 58.3571 17.1525 58.4096 17.145C58.4096 17.2575 58.3271 17.3025 58.2746 17.37C56.3846 19.68 54.5171 22.005 52.8521 24.4875C52.5521 24.93 52.2596 25.38 52.0196 25.86C51.8096 26.2725 51.8471 26.73 51.8246 27.1725C51.7346 29.085 51.7196 30.9975 51.7196 32.91C51.7196 37.4175 51.7796 41.9175 51.8846 46.4175C51.8921 46.815 51.9221 47.205 51.9296 47.6025C51.9371 47.7825 51.9971 47.9175 52.1321 48.0375C52.7396 48.5775 53.4671 48.7125 54.2396 48.6225C55.4621 48.48 56.5196 47.9175 57.5321 47.25C59.0396 46.2525 60.3521 45.015 61.6046 43.725C61.6721 43.6575 61.7471 43.59 61.8146 43.53C61.8296 43.53 61.8446 43.545 61.8596 43.56Z" fill="white"/>
<path d="M61.8836 43.4848C61.8461 43.4548 61.8836 43.4398 61.8911 43.4248C61.8911 43.4248 61.9136 43.4248 61.9136 43.4323C61.9211 43.4623 61.9136 43.4773 61.8836 43.4848Z" fill="white"/>
<path d="M61.8164 43.5148C61.8314 43.4848 61.8389 43.4473 61.8839 43.4773L61.8764 43.4698C61.8689 43.4998 61.8689 43.5223 61.8614 43.5523C61.8464 43.5448 61.8314 43.5298 61.8164 43.5148Z" fill="white"/>
</g>
<defs>
<clipPath id="clip0_2135_2884">
<rect width="75" height="75" fill="white"/>
</clipPath>
</defs>
</svg>
