<svg width="75" height="75" viewBox="0 0 75 75" fill="none" xmlns="http://www.w3.org/2000/svg">
<g clip-path="url(#clip0_2135_2894)">
<path fill-rule="evenodd" clip-rule="evenodd" d="M54.8246 45.2246L49.1246 51.7496H2.54963C1.04964 51.6746 -0.075365 50.3996 -0.000365034 48.8996V45.2246H54.8246Z" fill="#3B97D3"/>
<path fill-rule="evenodd" clip-rule="evenodd" d="M67.2 2.55V30.975L54.75 45.225H0V2.55C0 1.125 1.125 0 2.55 0H64.65C66.075 0 67.2 1.125 67.2 2.55Z" fill="#90BAE1"/>
<path fill-rule="evenodd" clip-rule="evenodd" d="M42.0766 51.75L45.2266 59.475H33.6016H21.9766L25.1266 51.75H42.0766Z" fill="#2980BA"/>
<path fill-rule="evenodd" clip-rule="evenodd" d="M49.1234 59.4746H18.0734C16.6484 59.4746 15.5234 60.5996 15.5234 62.0246C15.5234 63.4496 16.6484 64.5746 18.0734 64.5746H49.1234V59.4746Z" fill="#3B97D3"/>
<path fill-rule="evenodd" clip-rule="evenodd" d="M60.7484 25.5004V31.0504L49.1234 38.7754H9.07344C7.64844 38.7754 6.52344 37.6504 6.52344 36.2254V28.4254H18.1484L29.4734 17.1004C29.9234 16.6504 30.5984 16.6504 31.0484 17.1004L37.0484 23.1004L38.8484 21.3004L46.8734 13.2754C47.0984 13.0504 47.3984 12.9004 47.6984 12.9004C47.9984 12.9004 48.2984 13.0504 48.5234 13.2754L60.7484 25.5004Z" fill="#4FBA6F"/>
<path fill-rule="evenodd" clip-rule="evenodd" d="M60.7492 10.3498V25.4998L48.5992 13.2748C48.3742 13.0498 48.0742 12.8998 47.7742 12.8998C47.4742 12.8998 47.1742 13.0498 46.9492 13.2748L36.9742 23.1748L30.9742 17.1748C30.5242 16.7248 29.8492 16.7248 29.3992 17.1748L18.0742 28.4248H6.44922V10.3498C6.44922 8.92481 7.57422 7.7998 8.99922 7.7998H58.1242C59.6242 7.7998 60.7492 8.92481 60.7492 10.3498Z" fill="#ECF0F1"/>
<path fill-rule="evenodd" clip-rule="evenodd" d="M43.3508 27.675C43.1258 27.9 42.7508 28.05 42.4508 28.05C42.0758 28.05 41.7758 27.9 41.5508 27.675L37.0508 23.175L38.8508 21.375L43.3508 25.875C43.5758 26.1 43.7258 26.475 43.7258 26.775C43.7258 27.15 43.6508 27.45 43.3508 27.675Z" fill="#24AE5F"/>
<path fill-rule="evenodd" clip-rule="evenodd" d="M32.3242 27.15C32.3242 27.9 31.7242 28.425 31.0492 28.425H18.0742L20.6242 25.875H30.9742C31.7242 25.875 32.3242 26.475 32.3242 27.15Z" fill="#24AE5F"/>
<path d="M14.85 20.7C16.6311 20.7 18.075 19.2561 18.075 17.475C18.075 15.6939 16.6311 14.25 14.85 14.25C13.0689 14.25 11.625 15.6939 11.625 17.475C11.625 19.2561 13.0689 20.7 14.85 20.7Z" fill="#F0C419"/>
<path fill-rule="evenodd" clip-rule="evenodd" d="M75 65.9248V71.0998C75 73.2748 73.275 74.9998 71.1 74.9998H53.025C50.85 74.9998 49.125 73.2748 49.125 71.0998V65.9248C49.125 68.0998 50.85 69.8248 53.025 69.8248H71.1C73.275 69.8248 75 68.0998 75 65.9248Z" fill="#3B97D3"/>
<path fill-rule="evenodd" clip-rule="evenodd" d="M53.025 31.0498H71.1C73.275 31.0498 75 32.7748 75 34.9498V65.9998C75 68.1748 73.275 69.8998 71.1 69.8998H53.025C50.85 69.8998 49.125 68.1748 49.125 65.9998V34.9498C49.125 32.7748 50.85 31.0498 53.025 31.0498Z" fill="#B0D3F0"/>
<path fill-rule="evenodd" clip-rule="evenodd" d="M54.3008 31.0498L56.1758 34.7998C56.6258 35.6998 57.5258 36.2248 58.5008 36.2248H65.6258C66.6008 36.2248 67.5008 35.6998 67.9508 34.7998L69.8258 31.0498H54.3008Z" fill="#3B97D3"/>
<path fill-rule="evenodd" clip-rule="evenodd" d="M75 52.4996V63.3746H49.125V56.9246H56.85L59.4 54.3746L62.325 51.4496C62.85 50.9246 63.675 50.9246 64.125 51.4496L66.15 53.4746L67.95 51.6746L69.975 49.6496C70.5 49.1246 71.325 49.1246 71.775 49.6496L75 52.4996Z" fill="#4FBA6F"/>
<path fill-rule="evenodd" clip-rule="evenodd" d="M75 41.4004V52.5004L72 49.5004C71.475 48.9754 70.65 48.9754 70.2 49.5004L66.3 53.4004L64.275 51.3754C63.75 50.8504 62.925 50.8504 62.475 51.3754L56.925 56.9254H49.125V41.4004H75Z" fill="#ECF0F1"/>
<path fill-rule="evenodd" clip-rule="evenodd" d="M62.1008 55.5748C62.1008 56.3248 61.5008 56.8498 60.8258 56.8498H56.9258L59.4758 54.2998H60.7508C61.5008 54.2998 62.1008 54.8998 62.1008 55.5748Z" fill="#24AE5F"/>
<path fill-rule="evenodd" clip-rule="evenodd" d="M71.1758 56.4004C70.9508 56.6254 70.5758 56.7754 70.2758 56.7754C69.9008 56.7754 69.6008 56.6254 69.3758 56.4004L66.3008 53.3254L68.1008 51.5254L71.1758 54.6004C71.7008 55.1254 71.7008 55.9504 71.1758 56.4004Z" fill="#24AE5F"/>
<path d="M55.5758 49.1252C56.2799 49.1252 56.8508 48.5544 56.8508 47.8502C56.8508 47.146 56.2799 46.5752 55.5758 46.5752C54.8716 46.5752 54.3008 47.146 54.3008 47.8502C54.3008 48.5544 54.8716 49.1252 55.5758 49.1252Z" fill="#F0C419"/>
</g>
<defs>
<clipPath id="clip0_2135_2894">
<rect width="75" height="75" fill="white"/>
</clipPath>
</defs>
</svg>
