<svg width="75" height="75" viewBox="0 0 75 75" fill="none" xmlns="http://www.w3.org/2000/svg">
<g clip-path="url(#clip0_2135_2918)">
<path d="M23.0779 40.6199C22.8304 40.8224 22.6129 40.9949 22.4029 41.1674C17.7829 44.9624 13.1554 48.7499 8.5279 52.5449C7.5454 53.3474 6.4429 53.8949 5.1754 54.0824C4.0654 54.2549 3.0004 54.1349 2.0029 53.5874C0.525402 52.7774 -0.157098 51.2324 0.0304016 49.6499C0.232902 47.9099 1.1104 46.5374 2.4604 45.4799C4.3504 44.0024 6.2629 42.5624 8.1679 41.0999C15.2104 35.7149 22.2529 30.3224 29.2954 24.9374C29.3704 24.8849 29.4379 24.8249 29.5204 24.7574C29.4154 24.6674 29.2954 24.7049 29.1979 24.7049C26.2804 24.7049 23.3629 24.7124 20.4379 24.7199C18.4204 24.7199 16.3954 24.7274 14.3779 24.7124C13.5679 24.7049 12.8029 24.5024 12.1204 24.0524C11.3179 23.5274 10.8229 22.7924 10.7479 21.8174C10.7029 21.2699 10.8229 20.7449 11.0479 20.2424C11.3704 19.5299 11.8654 18.9524 12.4879 18.4874C13.5829 17.6624 14.8204 17.2574 16.1929 17.2574C21.3754 17.2574 26.5654 17.2499 31.7479 17.2499C36.3304 17.2424 40.9129 17.2424 45.4954 17.2349C45.5854 17.2349 45.6754 17.2349 45.7879 17.2349C45.7279 17.0924 45.6229 17.0399 45.5404 16.9724C43.0879 14.9774 40.6354 12.9824 38.1754 10.9799C37.4404 10.3799 36.7054 9.77991 35.9779 9.17241C35.5729 8.82741 35.2879 8.39241 35.1529 7.87491C34.9804 7.20741 35.0929 6.57741 35.4304 5.99241C35.7754 5.39991 36.2629 4.95741 36.8554 4.64241C38.2054 3.91491 39.6229 3.79491 41.0929 4.25241C41.5429 4.39491 41.9554 4.61991 42.3304 4.91241C48.5404 9.68991 54.7579 14.4599 60.9754 19.2374C62.4979 20.4074 64.0129 21.5774 65.5354 22.7474C68.3554 24.9074 70.6429 27.5174 72.3079 30.6674C73.5004 32.9249 74.2879 35.3174 74.6554 37.8374C74.8504 39.1949 74.9329 40.5599 74.8729 41.9249C74.7154 45.3524 73.8154 48.5774 72.1579 51.5849C69.9079 55.6799 66.7054 58.8299 62.6704 61.1624C59.8879 62.7674 56.9104 63.8399 53.7454 64.3949C51.4954 64.7924 49.2304 64.9199 46.9429 64.7624C43.6879 64.5449 40.5529 63.8174 37.5604 62.5049C33.2104 60.5924 29.6104 57.7574 26.8579 53.8649C25.1854 51.5024 23.9854 48.9149 23.3554 46.0799C23.1529 45.1949 23.0404 44.2949 22.9504 43.3874C22.8754 42.6149 22.9879 41.8649 23.0479 41.1074C23.0704 40.9649 23.1004 40.8224 23.0779 40.6199ZM49.0579 24.6824C47.3929 24.6899 45.8779 24.8699 44.3929 25.2824C40.9504 26.2424 38.0329 28.0349 35.8654 30.9074C33.1054 34.5674 32.3179 38.6399 33.6304 43.0499C34.4254 45.7274 36.0079 47.9099 38.1379 49.6949C41.1454 52.2074 44.6479 53.3924 48.5329 53.4899C50.1229 53.5349 51.6904 53.3549 53.2279 52.9424C56.7754 52.0049 59.7529 50.1599 61.9654 47.2124C64.6879 43.5899 65.4379 39.5549 64.1704 35.2049C63.3154 32.2799 61.5604 29.9399 59.1604 28.0949C56.1454 25.7849 52.7029 24.7274 49.0579 24.6824Z" fill="#EA7600"/>
<path d="M49.0584 24.6826C52.7034 24.7276 56.1459 25.7851 59.1609 28.1026C61.5609 29.9476 63.3234 32.2876 64.1709 35.2126C65.4384 39.5701 64.6884 43.6051 61.9659 47.2201C59.7534 50.1676 56.7759 52.0126 53.2284 52.9501C51.6909 53.3551 50.1234 53.5351 48.5334 53.4976C44.6484 53.3926 41.1459 52.2076 38.1384 49.7026C36.0084 47.9251 34.4259 45.7351 33.6309 43.0576C32.3184 38.6476 33.1059 34.5751 35.8659 30.9151C38.0334 28.0426 40.9434 26.2501 44.3934 25.2901C45.8784 24.8701 47.3934 24.6901 49.0584 24.6826ZM48.9309 47.6101C49.5459 47.5876 50.1834 47.5576 50.8059 47.4451C53.1759 47.0251 55.2234 45.9901 56.8059 44.1676C58.9434 41.7001 59.6034 38.8651 58.5984 35.7301C57.8859 33.5176 56.4234 31.8751 54.4359 30.7051C51.9909 29.2651 49.3509 28.8901 46.5909 29.4751C44.2284 29.9776 42.2334 31.1401 40.7259 33.0451C39.0459 35.1601 38.4684 37.5526 39.0159 40.2001C39.4059 42.0676 40.3659 43.6201 41.7684 44.8951C43.7859 46.7326 46.2084 47.5576 48.9309 47.6101Z" fill="#FFFEFE"/>
<path d="M48.9313 47.61C46.2088 47.5575 43.7863 46.7325 41.7613 44.895C40.3588 43.62 39.3988 42.0675 39.0088 40.2C38.4613 37.5525 39.0388 35.1525 40.7188 33.045C42.2263 31.14 44.2213 29.9775 46.5838 29.475C49.3438 28.89 51.9838 29.2725 54.4288 30.705C56.4163 31.875 57.8788 33.5175 58.5913 35.73C59.5963 38.865 58.9438 41.7 56.7988 44.1675C55.2163 45.99 53.1688 47.025 50.7988 47.445C50.1763 47.5575 49.5463 47.5875 48.9313 47.61Z" fill="#265787"/>
</g>
<defs>
<clipPath id="clip0_2135_2918">
<rect width="75" height="75" fill="white"/>
</clipPath>
</defs>
</svg>
