<svg width="75" height="75" viewBox="0 0 75 75" fill="none" xmlns="http://www.w3.org/2000/svg">
<path d="M11.4758 69.4497C11.1758 68.8497 11.4008 68.1747 11.4758 67.5747C11.9258 65.3997 12.9008 63.5247 15.0758 62.6247C16.6508 62.0247 18.2258 61.6497 20.0258 61.7997C21.4508 61.9497 22.8758 62.1747 24.3008 62.0997C24.3008 62.3997 24.0008 62.3997 23.9258 62.6247C23.4008 62.6247 22.9508 62.6997 22.4258 62.6247C20.7008 62.3247 18.9758 62.2497 17.2508 62.4747C15.6008 62.7747 14.1008 63.4497 13.1258 64.8747C12.0008 66.5247 11.7008 68.3247 12.0758 70.1997C12.2258 71.0247 12.5258 71.7747 13.2758 72.2997C14.1758 72.9747 15.2258 73.1247 16.2758 73.1247C18.0758 73.1247 19.8758 73.1247 21.6758 73.0497C24.1508 72.8997 26.6258 72.8997 29.1008 72.7497C30.3008 72.6747 31.4258 72.6747 32.6258 72.4497C33.6758 72.2247 34.5758 71.6997 34.9508 70.5747C35.1758 69.8247 35.2508 69.1497 35.1758 68.3997C34.9508 66.4497 34.0508 64.8747 32.3258 63.9747C31.0508 63.2997 30.3008 62.3247 30.4508 60.8247C30.5258 60.2247 30.6008 59.6247 30.7508 59.0247C31.2758 56.5497 32.0258 54.2247 34.2008 52.6497C36.0758 51.2997 37.8758 50.0247 40.0508 49.1997C41.0258 48.8247 41.6258 49.0497 41.9258 50.0997C42.2258 50.9997 42.4508 51.8997 42.7508 52.7997C43.6508 55.2747 44.7008 57.5997 46.2008 59.7747C46.0508 59.8497 46.0508 60.0747 45.8258 59.9997C45.6758 59.8497 45.5258 59.6997 45.4508 59.4747C45.3758 59.3997 45.3758 59.3997 45.3008 59.3247C45.3008 59.2497 45.2258 59.2497 45.1508 59.1747C43.6508 56.9247 42.6758 54.4497 41.9258 51.8997C41.7758 51.3747 41.6258 50.7747 41.4008 50.2497C41.1758 49.5747 40.8008 49.4247 40.2008 49.6497C39.0758 50.0997 38.1008 50.7747 37.1258 51.3747C36.0008 52.0497 35.0258 52.7247 34.0508 53.5497C33.0758 54.3747 32.4008 55.4997 32.0258 56.6997C31.5758 57.9747 31.3508 59.3247 31.1258 60.6747C30.9758 61.9497 31.5758 62.7747 32.6258 63.3747C34.9508 64.7247 35.9258 66.7497 35.8508 69.2997C35.7758 71.2497 34.7258 72.7497 32.2508 73.0497C31.2008 73.1997 30.2258 73.2747 29.1758 73.2747C27.2258 73.2747 25.2758 73.4997 23.3258 73.4247C23.1758 73.4247 23.0258 73.4247 22.9508 73.5747C20.4008 73.5747 17.9258 73.5747 15.4508 73.5747C14.9258 73.2747 14.2508 73.2747 13.7258 73.0497C12.7508 72.5247 12.1508 71.7747 11.8508 70.7247C12.0758 70.7247 12.0758 70.5747 12.0008 70.4247C11.7758 70.2747 11.7008 69.8247 11.4758 69.4497Z" fill="white"/>
<path d="M41.9242 27.9001C42.0742 28.125 42.1492 28.35 42.2992 28.575C42.5242 28.95 42.8242 29.1 43.2742 29.1751C45.3742 29.5501 47.4742 28.875 49.5742 29.0251C52.5742 29.25 55.2742 30.225 57.5242 32.25C58.8742 33.4501 59.8492 34.9501 60.9742 36.3C61.0492 36.375 61.1242 36.4501 61.1992 36.5251C61.2742 36.5251 61.2742 36.6001 61.3492 36.675C61.4242 36.75 61.4992 36.8251 61.5742 36.9001C61.9492 37.5751 62.5492 37.275 63.1492 37.35C65.6992 37.5 67.1992 39.0751 68.0242 41.25C68.9992 43.6501 69.5992 46.2001 69.2992 48.75C68.8492 52.125 67.4992 54.45 64.0492 55.275C62.6242 55.575 61.1242 55.8 59.6242 55.8C58.8742 55.8 58.1242 55.5751 57.2992 55.5C56.0242 55.2751 54.8992 53.175 55.1992 52.05C55.3492 51.6001 55.2742 51.225 54.8242 50.775C53.7742 49.875 53.9992 48.6001 54.2242 47.4001C54.5992 45.5251 55.4242 43.8 55.7992 41.925C55.9492 40.9501 56.0992 39.9751 56.6992 39.1501C56.8492 39 56.6992 38.8501 56.6242 38.7751C55.5742 37.2001 54.4492 35.7751 52.9492 34.6501C51.7492 33.675 50.3242 33.6 48.8992 33.6C48.5992 33.6 48.5992 33.75 48.7492 33.975C49.2742 35.175 49.6492 36.375 49.9492 37.6501C50.3242 39.375 50.1742 41.175 49.8742 42.9001C49.5742 44.55 49.1992 46.125 48.1492 47.55C47.6992 48.1501 47.2492 48.7501 46.5742 48.9751C46.1992 49.1251 46.1992 49.35 46.3492 49.65C46.4992 50.025 46.5742 50.4751 46.7242 50.925C46.7242 50.925 46.6492 50.925 46.5742 50.925C46.5742 50.925 46.4992 50.9251 46.4992 50.8501C46.4992 50.8501 46.4992 50.925 46.5742 50.925C46.6492 51.4501 46.5742 52.125 47.0992 52.5V52.5751C47.0992 52.725 47.0242 52.875 47.2492 53.025C48.4492 56.775 51.2992 59.1 54.4492 61.125C55.5742 61.8 56.7742 62.4751 58.1242 62.55C58.4242 62.55 58.6492 62.7751 58.9492 62.925C58.8742 62.925 58.8742 63 58.7992 63C58.9492 63 59.0992 63 59.1742 63.0751C59.2492 63.0751 59.2492 63.0751 59.3242 63.0751C59.3242 63.375 59.5492 63.3 59.6992 63.3C59.7742 63.3 59.7742 63.3 59.8492 63.3C59.9242 63.375 59.9242 63.375 59.9992 63.4501C59.9992 63.75 60.2242 63.75 60.4492 63.75C60.5242 63.75 60.5242 63.75 60.5242 63.75C60.5992 63.8251 60.5992 63.825 60.6742 63.9C60.7492 63.975 60.7492 63.9751 60.8242 64.05C63.1492 65.8501 63.8242 69.2251 62.6242 71.7001C62.1742 72.675 61.2742 73.3501 60.0742 73.3501C60.1492 73.2001 60.1492 73.05 60.2242 72.9C60.2992 72.9 60.3742 72.9 60.4492 72.9C60.5242 72.9 60.5242 72.8251 60.5992 72.8251C61.0492 72.675 61.4992 72.4501 61.7992 71.925C62.6242 70.7251 62.8492 69.375 62.5492 67.9501C62.0992 65.8501 60.8992 64.35 58.8742 63.525C57.6742 63.075 56.4742 62.925 55.2742 62.3251C53.6992 61.5751 52.4242 60.525 51.0742 59.4C49.7242 58.275 48.5242 57 47.6992 55.425C46.7992 53.7001 46.4242 51.75 45.8992 49.875C45.7492 49.35 45.8242 49.125 46.2742 48.8251C46.7992 48.525 47.3242 48.1501 47.6992 47.625C49.0492 45.8251 49.4242 43.65 49.6492 41.475C49.8742 39 49.3492 36.6001 48.3742 34.2751C48.0742 33.6001 48.2242 33.375 48.9742 33.3C49.4242 33.3 49.9492 33.2251 50.3992 33.3C51.4492 33.375 52.4992 33.675 53.3992 34.35C54.8242 35.3251 55.8742 36.675 56.9242 38.0251C57.2242 38.4751 57.8242 38.925 57.5242 39.6C57.0742 40.5 56.8492 41.4001 56.6992 42.375C56.2492 44.55 55.1992 46.5 55.0492 48.675C54.9742 49.425 55.1992 50.4 55.8742 50.775C56.3242 51.075 56.3992 51.375 56.2492 51.8251C56.0992 52.35 56.0992 52.8 56.2492 53.25C56.6242 54.675 57.4492 55.2751 59.0992 55.3501C60.7492 55.4251 62.4742 55.4251 64.1242 54.9751C65.4742 54.6001 66.8242 54.225 67.6492 52.875C68.7742 51 69.4492 49.125 69.0742 46.9501C68.8492 45.6 68.6992 44.175 68.2492 42.9001C67.4242 40.3501 66.1492 38.4001 63.1492 38.175C62.2492 38.1001 61.3492 37.725 60.7492 36.975C59.7742 35.7001 58.7992 34.35 57.6742 33.225C55.4242 31.05 52.7242 30.0751 49.6492 29.9251C47.8492 29.7751 46.0492 30.3001 44.2492 30.1501C43.1242 30.0751 42.2992 29.625 41.8492 28.575C41.6242 28.05 41.6992 27.75 42.1492 27.45C43.2742 26.7 44.3992 25.9501 45.3742 25.0501C46.5742 23.9251 47.5492 22.5 48.4492 21.075C50.0992 18.375 50.5492 15.525 50.0242 12.45C49.6492 10.575 49.0492 8.77505 48.0742 7.12505C47.4742 6.07505 46.7992 5.10005 45.8992 4.27505C44.9992 3.45005 43.9492 2.77505 42.7492 2.32505C41.7742 1.95005 40.7992 1.72505 39.7492 1.57505C38.6242 1.50005 37.4242 1.42505 36.2242 1.50005C34.2742 1.65005 32.3992 2.17505 30.5242 2.85005C28.8742 3.45005 27.3742 4.27505 26.0242 5.32505C24.9742 6.15005 23.9242 6.97505 23.0242 8.02505C22.4242 8.70005 22.0492 9.52505 21.3742 10.2C21.2242 10.125 21.0742 9.97505 21.0742 9.82505C22.1992 6.97505 24.2992 5.25005 26.6992 3.75005C29.0992 2.25005 31.7242 1.27505 34.5742 0.825049C36.1492 0.600049 37.7242 0.600049 39.2992 0.750049C41.0242 0.900049 42.6742 1.42505 44.1742 2.25005C45.6742 3.15005 46.8742 4.42505 47.8492 5.92505C49.1992 8.02505 50.0242 10.275 50.3242 12.675C50.6242 14.925 50.4742 17.175 49.4992 19.275C48.5242 21.525 47.0992 23.475 45.3742 25.125C44.6242 25.8 43.8742 26.475 42.9742 27C42.8992 27 42.8992 27.0751 42.8242 27.1501C42.7492 27.225 42.6742 27.225 42.5992 27.3001C42.5242 27.3001 42.5242 27.375 42.4492 27.45C42.4492 27.45 42.3742 27.45 42.2992 27.45C42.0742 27.45 41.9242 27.4501 41.9242 27.6751C41.8492 27.7501 41.7742 27.8251 41.9242 27.9001Z" fill="white"/>
<path d="M20.7742 9.45C20.7742 9.6 20.8492 9.75 21.0742 9.825C20.8492 10.275 20.4742 10.275 20.0242 10.125C17.7742 9.525 15.5992 8.775 13.2742 8.475C10.7242 8.1 8.62422 9.675 8.39922 12.225C8.24922 14.325 9.07422 16.05 10.8742 17.175C12.3742 18.075 13.9492 18.45 15.6742 18.45C16.7992 18.45 17.9242 18.375 19.0492 18.3C20.2492 18.225 20.2492 18.225 20.6242 19.425C20.7742 19.875 20.9242 19.95 21.2242 19.65C22.3492 18.675 23.5492 17.85 24.7492 17.1C26.3992 16.05 28.0492 15.75 29.9242 16.275C32.3992 17.025 33.8242 18.9 33.5242 21.45C33.3742 22.95 32.4742 24 31.1242 24.675C29.9992 25.2 28.7992 25.275 27.5992 25.5C27.0742 25.575 26.5492 25.425 25.9492 25.8C26.7742 26.325 27.5242 26.85 28.2742 27.3C29.6242 28.125 30.9742 28.875 32.5492 28.95C34.1992 29.025 35.7742 29.175 37.4242 28.575C37.9492 28.425 38.3992 28.725 38.3242 29.175C38.2492 29.7 38.0992 30.3 37.5742 30.6C36.2992 31.425 35.3242 32.475 35.0242 33.975C34.6492 35.7 34.0492 37.275 33.1492 38.775C32.3992 39.975 31.4242 40.875 30.1492 41.475C28.5742 42.225 26.9242 42.6 25.1992 42.975C24.5992 43.05 23.9992 43.05 23.4742 42.45C22.3492 41.025 20.8492 40.2 18.8992 40.275C18.1492 40.35 17.3242 40.275 16.4992 40.425C14.7742 40.575 13.0492 40.95 11.4742 41.55C10.4242 41.925 9.52422 42.6 9.37422 43.8C9.22422 44.7 9.14922 45.6 9.37422 46.425C9.89922 48.6 10.4242 50.7 11.5492 52.65C12.3742 54.075 13.4992 54.45 15.1492 54.075C16.8742 53.7 18.5242 53.025 20.0242 52.05C21.8242 50.925 23.5492 49.65 24.5992 47.7C24.9742 46.95 25.5742 46.575 26.3242 46.35C26.6992 46.2 27.1492 46.2 27.5242 46.05C28.9492 45.675 30.3742 45.225 31.7242 44.475C32.5492 44.025 33.2242 43.425 33.9742 42.9C34.4992 42.525 34.7242 42.6 34.8742 43.2C35.1742 44.1 35.4742 45.075 35.7742 45.975C36.0742 46.65 35.8492 47.1 35.2492 47.55C33.3742 48.9 31.6492 50.325 30.1492 52.125C28.7242 53.85 27.7492 55.8 27.1492 57.975C26.7742 59.175 26.5492 60.375 26.2492 61.575C25.7992 61.35 26.0242 60.975 25.9492 60.675C26.0992 58.95 26.6992 57.375 27.2992 55.8C28.0492 53.775 29.3242 52.05 30.8242 50.475C32.0242 49.275 33.2992 48.15 34.7242 47.175C35.5492 46.65 35.5492 46.65 35.1742 45.75C34.8742 45 34.5742 44.175 34.4242 43.35C33.6742 43.8 32.9992 44.4 32.2492 44.85C30.5242 45.75 28.7242 46.35 26.8492 46.8C26.0242 47.025 25.4242 47.4 24.9742 48.075C22.8742 51.3 19.7242 53.175 16.1242 54.3C15.3742 54.525 14.5492 54.75 13.7242 54.675C11.9992 54.525 11.2492 53.25 10.6492 51.9C10.1242 50.7 9.67422 49.5 9.29922 48.3C8.84922 46.95 8.62422 45.525 8.77422 44.025C8.92422 42.15 10.1242 41.25 11.7742 40.725C12.0742 40.65 12.2992 40.575 12.5992 40.5C13.3492 40.725 13.9492 40.425 14.5492 40.125C15.2992 39.825 16.1242 39.825 16.8742 39.75C17.9242 39.675 19.0492 39.45 20.1742 39.675C21.3742 39.9 22.4242 40.35 23.3242 41.25C24.5992 42.525 24.5992 42.6 26.3992 42.15C27.9742 41.775 29.6242 41.325 31.0492 40.425C31.9492 39.825 32.6242 39 33.1492 38.025C33.8242 36.825 34.2742 35.625 34.5742 34.2C34.8742 32.625 35.7742 31.425 37.0492 30.45C37.1242 30.375 37.1992 30.3 37.2742 30.225C37.5742 29.925 38.0242 29.625 37.7992 29.25C37.6492 28.95 37.1242 29.25 36.8242 29.325C35.6242 29.55 34.4242 29.475 33.2242 29.475C30.3742 29.4 28.1992 27.825 26.0242 26.25C25.7242 26.025 25.4242 25.8 25.4992 25.35C25.6492 24.975 26.0242 25.05 26.3992 24.975C27.6742 24.825 29.0242 24.75 30.2992 24.375C32.6992 23.7 33.8992 21.225 32.6992 18.825C31.8742 17.325 30.5242 16.725 28.8742 16.5C27.0742 16.275 25.6492 17.1 24.2242 18.075C23.2492 18.75 22.3492 19.425 21.3742 20.1C20.9242 20.475 20.6242 20.325 20.3242 19.8C20.2492 19.65 20.1742 19.5 20.1742 19.425C19.8742 18.675 19.6492 18.6 18.8242 18.675C16.1992 18.975 13.5742 19.05 11.0992 17.7C9.14922 16.575 7.94922 15 7.94922 12.6C7.94922 10.95 8.47422 9.6 9.74922 8.475C10.3492 8.025 10.9492 7.725 11.6992 7.65C13.1992 7.5 14.6242 7.65 16.0492 8.1C15.9742 8.25 15.9742 8.325 16.1992 8.325C16.6492 8.4 17.0992 8.475 17.5492 8.4C18.4492 8.7 19.4242 8.925 20.3242 9.225C20.3992 9.675 20.5492 9.6 20.7742 9.45Z" fill="white"/>
<path d="M52.0501 73.4254C49.0501 73.4254 46.0501 73.5004 43.0501 73.4254C41.4001 73.3504 40.2001 72.6004 39.1501 71.1004C37.0501 67.8004 39.3751 62.5504 43.0501 61.7254C43.8001 61.5754 44.4751 61.4254 45.1501 61.2754C45.3001 61.7254 45.5251 61.5004 45.7501 61.4254C45.9751 61.3504 46.2751 61.2754 46.2001 61.7254C45.7501 61.7254 45.3001 61.8754 44.8501 61.8754C43.7251 61.9504 42.6001 62.2504 41.7001 62.9254C39.8251 64.2754 38.9251 66.0754 39.0001 68.4004C39.1501 71.4004 40.6501 72.8254 43.5001 72.9004C46.8751 73.0504 50.3251 72.9754 53.7751 72.9754C53.5501 73.4254 53.1751 73.1254 52.8001 73.2004C52.5751 73.2754 52.2001 73.0504 52.0501 73.4254Z" fill="white"/>
<path d="M52.0508 73.425C52.2008 72.975 52.5758 73.275 52.8008 73.2C53.1008 73.125 53.5508 73.425 53.7758 72.975C55.8758 72.975 57.9008 72.9 60.0008 72.75C59.9258 72.9 59.9258 73.05 59.8508 73.2C59.2508 73.425 58.5758 73.425 57.9758 73.425C56.0258 73.5 54.0008 73.425 52.0508 73.425Z" fill="white"/>
<path d="M46.1984 61.7246C46.3484 61.2746 46.0484 61.3496 45.7484 61.4246C45.5234 61.4996 45.2234 61.7246 45.1484 61.2746C45.2234 61.2746 45.2984 61.2746 45.3734 61.2746C45.6734 61.1996 46.1234 61.4246 46.3484 61.1246C46.5734 60.7496 45.9734 60.7496 45.8984 60.4496C45.8984 60.2996 45.8234 60.2246 45.8234 60.0746C46.0484 60.0746 46.0484 59.9246 46.1984 59.8496C46.3484 60.0746 46.5734 60.2996 46.7234 60.5996C47.0984 61.2746 47.0234 61.4996 46.1984 61.7246Z" fill="white"/>
<path d="M23.9258 62.6998C24.0008 62.5498 24.3758 62.4748 24.3008 62.1748C24.4508 62.1748 24.6758 62.1748 24.8258 62.1748C25.0508 62.3998 25.5758 62.0998 25.5758 62.6248C25.0508 62.9248 24.4508 62.9248 23.9258 62.6998Z" fill="white"/>
<path d="M25.5742 62.7004C25.5742 62.1754 24.9742 62.4754 24.8242 62.2504C25.4992 62.4004 25.7242 61.9504 25.7992 61.4254C25.8742 61.2754 25.7242 61.0504 25.9492 60.9004C26.0242 61.2004 25.7992 61.5754 26.2492 61.8004C26.1742 62.1754 26.0992 62.6254 25.5742 62.7004Z" fill="white"/>
<path d="M14.3992 40.2755C13.7992 40.5755 13.1992 40.9505 12.4492 40.6505C13.1242 40.5755 13.7242 40.2005 14.3992 40.2755Z" fill="white"/>
<path d="M11.4726 69.4502C11.6976 69.8252 11.7726 70.2752 11.9226 70.6502C11.9976 70.8002 11.9226 70.9502 11.7726 70.9502C11.5476 70.5002 11.3976 69.9752 11.4726 69.4502Z" fill="white"/>
<path d="M46.5 50.8496C46.5 50.8496 46.575 50.8496 46.65 50.8496C46.8 51.3746 46.95 51.8996 47.025 52.4246C46.425 52.0496 46.575 51.4496 46.5 50.8496Z" fill="white"/>
<path d="M17.3242 8.84981C16.8742 8.84981 16.4242 8.8498 15.9742 8.7748C15.8242 8.6998 15.8242 8.6248 15.8242 8.5498C16.3492 8.5498 16.8742 8.54981 17.3242 8.84981Z" fill="white"/>
<path d="M63.075 37.3504C62.55 37.2754 61.875 37.5754 61.5 36.9004C62.025 37.1254 62.55 37.2754 63.075 37.3504Z" fill="white"/>
<path d="M41.9258 27.6749C41.9258 27.3749 42.1508 27.3749 42.3008 27.4499C42.2258 27.5249 42.1508 27.6749 41.9258 27.6749Z" fill="white"/>
<path d="M59.625 63.2254C59.475 63.2254 59.25 63.2254 59.25 63.0004C59.4 62.9254 59.55 63.0754 59.625 63.2254Z" fill="white"/>
<path d="M60.2977 63.5998C60.0727 63.5998 59.9227 63.5998 59.8477 63.2998C60.0727 63.2998 60.1477 63.4498 60.2977 63.5998Z" fill="white"/>
<path d="M59.0977 62.9254C58.9477 62.9254 58.7977 62.9254 58.7227 62.8504C58.7977 62.8504 58.7977 62.7754 58.8727 62.7754C58.9477 62.8504 59.0227 62.9254 59.0977 62.9254Z" fill="white"/>
<path d="M47.0992 52.95C46.9492 52.8 46.9492 52.65 46.9492 52.5C47.1742 52.65 47.1742 52.8 47.0992 52.95Z" fill="white"/>
<path d="M41.9225 27.8998C41.7725 27.8248 41.8475 27.7498 41.9225 27.6748C41.9225 27.7498 41.9225 27.8248 41.9225 27.8998Z" fill="white"/>
<path d="M42.8984 27.15C42.9734 27.15 42.9734 27.075 43.0484 27C42.9734 27 42.8984 27.075 42.8984 27.15Z" fill="white"/>
<path d="M42.4492 27.3746C42.5242 27.3746 42.5242 27.2996 42.5992 27.2246C42.5992 27.2996 42.5242 27.3746 42.4492 27.3746Z" fill="white"/>
<path d="M61.3492 36.7496C61.2742 36.7496 61.2742 36.6746 61.1992 36.5996C61.1992 36.6746 61.2742 36.6746 61.3492 36.7496Z" fill="white"/>
<path d="M45.1484 59.3252C45.1484 59.4002 45.2234 59.4002 45.2984 59.4752C45.2984 59.4002 45.2234 59.4002 45.1484 59.3252Z" fill="white"/>
<path d="M45.3008 59.4746C45.3758 59.5496 45.3758 59.5496 45.4508 59.6246C45.3758 59.5496 45.3758 59.4746 45.3008 59.4746Z" fill="white"/>
<path d="M59.8492 63.3746C59.7742 63.2996 59.7742 63.2996 59.6992 63.2246C59.7742 63.2246 59.8492 63.2996 59.8492 63.3746Z" fill="white"/>
<path d="M60.5992 63.9C60.5242 63.825 60.5242 63.825 60.4492 63.75C60.5242 63.75 60.5992 63.825 60.5992 63.9Z" fill="white"/>
<path d="M25.5744 62.6996C26.0994 62.6246 26.1744 62.1746 26.2494 61.7996C26.5494 60.5996 26.7744 59.3996 27.1494 58.1996C27.7494 56.0996 28.7244 54.0746 30.1494 52.3496C31.6494 50.5496 33.3744 49.1246 35.2494 47.7746C35.8494 47.3246 36.0744 46.8746 35.7744 46.1996C35.3994 45.2996 35.0994 44.3246 34.8744 43.4246C34.7244 42.8996 34.4244 42.8246 33.9744 43.1246C33.2244 43.6496 32.5494 44.2496 31.7244 44.6996C30.3744 45.4496 28.9494 45.8996 27.5244 46.2746C27.1494 46.3496 26.6994 46.4246 26.3244 46.5746C25.5744 46.7996 24.9744 47.2496 24.5994 47.9246C23.5494 49.8746 21.8244 51.1496 20.0244 52.2746C18.5244 53.1746 16.8744 53.8496 15.1494 54.2996C13.4994 54.6746 12.3744 54.2246 11.5494 52.8746C10.4244 50.9246 9.89944 48.8246 9.37444 46.6496C9.14944 45.7496 9.22444 44.8496 9.37444 44.0246C9.59944 42.8246 10.4244 42.1496 11.4744 41.7746C13.1244 41.1746 14.7744 40.7996 16.4994 40.6496C17.3244 40.5746 18.0744 40.5746 18.8994 40.4996C20.8494 40.3496 22.3494 41.2496 23.4744 42.6746C23.9994 43.2746 24.5994 43.3496 25.1994 43.1996C26.9244 42.8996 28.5744 42.4496 30.1494 41.6996C31.4244 41.0996 32.3994 40.1996 33.1494 38.9996C34.0494 37.4996 34.6494 35.9246 35.0244 34.1996C35.3244 32.7746 36.3744 31.6496 37.5744 30.8246C38.0994 30.4496 38.2494 29.9246 38.3244 29.3996C38.3994 28.9496 37.9494 28.6496 37.4244 28.7996C35.8494 29.3996 34.1994 29.1746 32.5494 29.1746C30.9744 29.0996 29.5494 28.3496 28.2744 27.5246C27.5244 26.9996 26.7744 26.5496 25.9494 26.0246C26.5494 25.7246 27.0744 25.7996 27.5994 25.7246C28.7994 25.5746 29.9994 25.4996 31.1244 24.8996C32.4744 24.2246 33.3744 23.1746 33.5244 21.6746C33.8244 19.1246 32.3994 17.2496 29.9244 16.4996C28.0494 15.9746 26.3994 16.2746 24.7494 17.3246C23.5494 18.0746 22.3494 18.8996 21.2244 19.8746C20.8494 20.1746 20.6994 20.0996 20.6244 19.6496C20.2494 18.4496 20.2494 18.4496 19.0494 18.5246C17.9244 18.5246 16.7994 18.6746 15.6744 18.6746C13.9494 18.6746 12.2994 18.2996 10.8744 17.3996C8.99944 16.2746 8.17444 14.5496 8.39944 12.4496C8.62444 9.82462 10.7994 8.32462 13.2744 8.69962C15.5994 8.99962 17.7744 9.74962 20.0244 10.3496C20.4744 10.4996 20.8494 10.4996 21.0744 10.0496C21.7494 9.44962 22.1244 8.54962 22.7244 7.94962C23.6244 6.97462 24.5994 6.07462 25.7244 5.24962C27.1494 4.27462 28.6494 3.37462 30.2244 2.77462C32.0244 2.09962 33.8994 1.57462 35.9244 1.42462C37.1244 1.34962 38.2494 1.42462 39.4494 1.49962C40.4244 1.57462 41.4744 1.87462 42.4494 2.24962C43.6494 2.69962 44.6994 3.37462 45.5994 4.19962C46.4994 5.02462 47.1744 5.99962 47.7744 7.04962C48.7494 8.69962 49.4244 10.4996 49.7244 12.3746C50.3244 15.3746 49.7994 18.2996 48.1494 20.9996C47.2494 22.4246 46.2744 23.7746 45.0744 24.9746C44.0994 25.8746 42.9744 26.6246 41.8494 27.3746C41.3994 27.6746 41.3244 28.0496 41.5494 28.4996C41.9994 29.5496 42.8994 29.9996 43.9494 30.0746C45.7494 30.2246 47.5494 29.6996 49.3494 29.8496C52.3494 30.0746 55.1244 30.9746 57.3744 33.1496C58.5744 34.2746 59.4744 35.6246 60.4494 36.8996C61.0494 37.6496 61.9494 38.0246 62.8494 38.0996C65.8494 38.3246 67.1244 40.3496 67.9494 42.8246C68.3994 44.1746 68.5494 45.5246 68.7744 46.8746C69.1494 49.0496 68.4744 50.9996 67.3494 52.7996C66.5244 54.1496 65.1744 54.5246 63.8244 54.8996C62.1744 55.4246 60.5244 55.3496 58.7994 55.2746C57.1494 55.1996 56.3244 54.5996 55.9494 53.1746C55.7994 52.7246 55.7994 52.1996 55.9494 51.7496C56.0244 51.2996 56.0244 50.9996 55.5744 50.6996C54.8994 50.3246 54.6744 49.3496 54.7494 48.5996C54.9744 46.3496 56.0244 44.3996 56.3994 42.2996C56.5494 41.3246 56.7744 40.4246 57.2244 39.5246C57.5244 38.8496 56.9994 38.3996 56.6244 37.9496C55.6494 36.5996 54.5244 35.2496 53.0994 34.2746C52.1994 33.5996 51.1494 33.3746 50.0994 33.2246C49.6494 33.1496 49.1244 33.2246 48.6744 33.2246C47.9994 33.2996 47.7744 33.5246 48.0744 34.1996C49.0494 36.5246 49.6494 38.8496 49.3494 41.3996C49.1244 43.5746 48.7494 45.6746 47.3994 47.5496C47.0244 48.0746 46.4994 48.4496 45.9744 48.7496C45.5244 48.9746 45.4494 49.2746 45.5994 49.7996C46.1244 51.6746 46.4994 53.6246 47.3994 55.3496C48.2244 56.9246 49.4244 58.1996 50.7744 59.3246C52.1244 60.4496 53.4744 61.4996 54.9744 62.2496C56.0994 62.8496 57.3744 62.9996 58.5744 63.4496C60.6744 64.2746 61.7994 65.7746 62.2494 67.8746C62.5494 69.2996 62.3244 70.6496 61.4994 71.8496C61.1994 72.2996 60.7494 72.5246 60.2994 72.7496C60.2244 72.7496 60.1494 72.7496 60.1494 72.8246C60.0744 72.8246 59.9994 72.8246 59.9244 72.8246C57.8244 72.9746 55.7994 73.0496 53.6994 73.0496C50.2494 73.0496 46.8744 73.1246 43.4244 72.9746C40.4994 72.8996 39.0744 71.3996 38.9244 68.4746C38.7744 66.2246 39.7494 64.3496 41.6244 62.9996C42.5244 62.3246 43.6494 62.0246 44.7744 61.9496C45.2244 61.8746 45.6744 61.7996 46.1244 61.7996C46.9494 61.5746 47.0244 61.2746 46.6494 60.5996C46.4994 60.3746 46.2744 60.1496 46.1244 59.8496C44.6244 57.7496 43.4994 55.3496 42.6744 52.8746C42.3744 51.9746 42.1494 51.0746 41.8494 50.1746C41.5494 49.1996 40.9494 48.8996 39.9744 49.2746C37.8744 50.1746 35.9994 51.3746 34.1244 52.7246C31.9494 54.2996 31.1244 56.6246 30.6744 59.0996C30.5244 59.6996 30.4494 60.2996 30.3744 60.8996C30.2244 62.3996 30.9744 63.3746 32.2494 64.0496C33.9744 65.0246 34.8744 66.5996 35.0994 68.4746C35.1744 69.2246 35.0994 69.9746 34.8744 70.6496C34.4994 71.7746 33.5994 72.2996 32.5494 72.5246C31.4244 72.7496 30.2244 72.7496 29.0244 72.8246C26.5494 72.9746 24.0744 72.9746 21.5994 73.1246C19.7994 73.1996 17.9994 73.1996 16.1994 73.1996C15.1494 73.1996 14.0994 73.0496 13.1994 72.3746C12.4494 71.8496 12.1494 71.0246 11.9994 70.2746C11.5494 68.3996 11.9244 66.5996 13.0494 64.9496C14.0244 63.4496 15.4494 62.7746 17.1744 62.5496C18.8994 62.2496 20.6244 62.3996 22.3494 62.6996C22.7994 62.7746 23.3244 62.6996 23.8494 62.6996C24.4494 62.9246 25.0494 62.9246 25.5744 62.6996Z" fill="white"/>
<path d="M46.4977 50.9254C46.4227 50.8504 46.4227 50.8504 46.4977 50.9254C46.4227 50.8504 46.4977 50.8504 46.4977 50.9254Z" fill="white"/>
<path d="M60.2227 72.6754C60.2227 72.6004 60.2977 72.5254 60.3727 72.6004C60.2977 72.6004 60.2977 72.6754 60.2227 72.6754Z" fill="white"/>
</svg>
