<svg width="75" height="75" viewBox="0 0 75 75" fill="none" xmlns="http://www.w3.org/2000/svg">
<g clip-path="url(#clip0_2135_2969)">
<path d="M4.57687 55.6497C-5.32313 37.4247 1.42687 14.6247 19.6519 4.64967C37.4269 -5.02533 59.7019 1.19967 69.9769 18.6747L70.0519 18.8247C80.1769 36.8997 73.7269 59.8497 55.6519 69.9747C37.6519 80.0997 14.8519 73.7247 4.65187 55.7997L4.57687 55.6497Z" fill="url(#paint0_linear_2135_2969)"/>
<g opacity="0.5">
<path opacity="0.35" d="M75.001 37.4246C74.926 58.1996 58.051 74.9996 37.276 74.9246C23.776 74.8496 11.326 67.6496 4.72599 55.8746L4.65099 55.7246C-5.09901 37.3496 1.87599 14.5496 20.251 4.87462C37.876 -4.42538 59.701 1.64962 69.976 18.6746L70.051 18.8246C73.351 24.5246 75.001 30.8996 75.001 37.4246Z" fill="#F16522"/>
</g>
<g opacity="0.15">
<path opacity="0.42" d="M30.1516 48.2996C30.1516 51.7496 27.4516 54.0746 25.5766 56.5496C25.2016 57.0746 25.2766 57.8246 24.9016 58.3496C24.4516 59.0246 20.4016 62.1746 20.4016 65.0996C20.4016 66.3746 20.8516 67.7996 21.0766 69.0746C14.3266 65.9246 17.7016 56.9996 14.9266 53.0246C13.1266 50.4746 10.5766 47.8496 10.5766 44.9246C10.5766 43.0496 11.9266 41.3246 11.9266 41.3246C11.9266 41.1746 11.8516 40.9496 11.7016 40.8746C9.75156 40.5746 8.10156 39.5996 6.37656 38.5496C5.17656 37.8746 0.301563 37.5746 0.226562 30.2996C1.42656 23.6996 4.35156 17.5496 8.77656 12.5246C9.15156 12.2996 9.52656 12.1496 9.97656 12.0746C10.8766 12.0746 11.2516 12.8246 12.6016 12.8246C14.7766 12.8246 16.8766 10.3496 17.9266 10.3496C18.8266 10.3496 19.5016 11.6246 19.5016 12.5996C19.5016 14.7746 15.0766 15.2246 15.0766 16.7996C15.0766 17.3246 15.4516 17.6996 15.9016 17.7746C16.6516 17.7746 17.1766 15.3746 18.9016 15.3746C18.9016 15.3746 19.9516 15.5246 20.7766 15.5246C22.5766 15.5246 24.3016 15.2246 26.0266 14.6996C25.8016 15.5996 24.1516 16.2746 24.1516 17.0996C24.1516 18.0746 26.4016 18.4496 26.4016 20.2496C26.4016 20.9996 25.8766 21.9746 25.3516 21.9746C25.0516 21.9746 23.7766 21.0746 22.8766 21.0746C22.4266 21.0746 22.0516 21.2996 21.9016 22.0496C21.9016 22.1996 22.5016 22.5746 22.5016 23.0246C22.5016 23.2496 22.2016 23.9246 21.6766 23.9246C21.0016 23.9246 20.1766 22.7246 19.6516 22.7246C18.5266 22.7246 16.5016 24.8996 15.6766 25.5746C10.5766 29.9996 12.9766 32.6246 10.5016 32.6246C9.07656 32.6246 8.62656 31.1996 7.50156 31.1996C6.37656 31.1996 5.02656 32.5496 5.02656 34.1246C5.02656 34.9496 5.47656 35.0246 6.15156 35.0246C6.67656 35.0246 7.27656 34.9496 7.87656 34.9496C10.2016 34.9496 9.37656 38.7746 13.7266 38.7746C14.7016 38.6996 15.6766 38.5496 16.5766 38.2496C16.8016 38.2496 16.9516 38.3246 17.1016 38.4746C18.3766 40.4996 20.4016 40.4996 22.3516 41.2496C24.7516 42.0746 23.9266 44.3996 25.3516 44.6246C27.7516 45.0746 30.1516 45.6746 30.1516 48.2996Z" fill="white"/>
<path opacity="0.42" d="M21.6016 7.49961V7.42461C21.6766 8.39961 22.5016 9.14961 23.4766 9.07461C23.9266 9.07461 24.3766 9.07461 24.8266 9.07461C26.4766 9.07461 27.5266 9.59961 27.5266 11.4746C27.5266 12.1496 27.3766 12.8996 27.3766 13.5746C27.3766 14.8496 27.9016 16.0496 29.1766 16.0496C30.7516 16.0496 30.9766 13.9496 32.1766 13.7996C34.4266 13.4996 35.9266 11.3996 37.6516 11.3996C37.8766 11.3996 38.1766 11.3996 38.4016 11.3996C39.9766 11.3996 38.4766 9.59961 42.4516 8.02461C42.8266 7.79961 43.0516 7.42461 43.0516 6.97461C43.0516 5.77461 42.2266 5.69961 41.2516 5.69961C39.7516 5.69961 38.2516 6.14961 36.7516 6.14961C36.0766 6.07461 36.0016 5.99961 35.4766 5.99961C34.2016 5.99961 32.4766 6.67461 31.7266 6.67461C30.6766 6.67461 30.3016 5.09961 29.1016 5.09961C29.1016 5.09961 24.9016 5.69961 23.7766 5.84961C23.1016 5.92461 21.6766 6.29961 21.6766 7.34961C21.6016 7.34961 21.6016 7.42461 21.6016 7.49961Z" fill="white"/>
<path opacity="0.42" d="M65.25 47.8492C63.6 49.4992 62.25 51.3742 62.25 53.6992C62.25 54.4492 62.475 55.0492 63.15 55.0492C64.725 55.0492 66.6 53.0242 66.6 50.3242C66.6 49.1992 66.075 47.7742 65.55 47.7742C65.475 47.6992 65.4 47.7742 65.25 47.8492Z" fill="white"/>
<path opacity="0.42" d="M65.325 38.8498C64.95 41.6248 63.3 43.4998 61.275 45.3748C60.975 45.5998 60.825 45.8998 60.75 46.2748C60.975 47.1748 61.125 47.9998 61.2 48.8998C61.2 51.4498 59.4 51.3748 58.8 52.7248C57.9 54.6748 56.85 59.7748 52.95 59.7748C48.825 59.7748 48 51.2248 47.625 47.1748C46.95 40.1998 35.625 46.1248 35.625 36.7498C35.625 30.3748 38.925 26.1748 45.9 26.1748C49.5 26.1748 49.125 28.1998 50.4 28.1998C51.15 28.0498 51.975 27.9748 52.725 27.9748C54.9 27.9748 56.925 28.7248 58.275 30.6748C60.525 33.6748 61.2 38.0998 65.325 38.8498Z" fill="white"/>
<path opacity="0.42" d="M64.65 28.725C64.65 31.125 70.35 29.775 70.35 32.25C70.35 33.45 68.475 35.25 66.075 35.25C58.95 35.25 63.6 23.4 47.1 23.4C43.575 23.4 42.3 24.75 41.175 24.75C40.575 24.75 40.125 24.6 40.125 23.925C40.125 22.65 41.925 21.975 41.925 20.775C41.925 19.575 40.35 19.575 40.35 17.925C40.35 16.425 41.85 15.075 43.2 15.075C44.175 15.075 45.375 16.125 46.425 16.125C47.475 16.125 47.625 15.225 48.075 15.225C48.525 15.225 48.9 16.05 50.175 16.05C51.45 16.05 53.1 14.85 53.1 13.725C53.1 13.125 52.725 12.75 52.425 12.75C52.425 12.75 50.4 14.625 48.675 14.625C47.55 14.625 46.8 13.725 46.8 13.05C46.8 11.1 52.8 9 54.9 9C57.525 9 56.025 10.725 57.75 10.725C59.475 10.725 60.9 9.6 62.4 9.6C62.55 9.6 62.7 9.6 62.85 9.675C69.525 15.75 73.725 24.075 74.775 33C74.7 32.925 74.625 32.925 74.55 32.85C70.725 30 64.65 27.975 64.65 28.725Z" fill="white"/>
</g>
<path d="M23.1031 22.2746H47.7031C47.7031 15.6746 42.3031 10.3496 35.7031 10.3496C32.5531 10.3496 29.5531 11.6246 27.3031 13.7996L8.32812 32.7746L23.1031 47.4746V22.2746Z" fill="white"/>
<path d="M52.5758 51.7498H27.3008L42.0758 66.4498L61.0508 47.5498C65.7008 42.8998 65.7008 35.3998 61.0508 30.7498C58.8008 28.4998 55.8008 27.2998 52.6508 27.2998V51.7498H52.5758Z" fill="white"/>
</g>
<defs>
<linearGradient id="paint0_linear_2135_2969" x1="37.4555" y1="88.6483" x2="37.4555" y2="29.13" gradientUnits="userSpaceOnUse">
<stop stop-color="#FAAE31"/>
<stop offset="1" stop-color="#F16522"/>
</linearGradient>
<clipPath id="clip0_2135_2969">
<rect width="75" height="75" fill="white"/>
</clipPath>
</defs>
</svg>
