<svg width="80" height="80" viewBox="0 0 80 80" fill="none" xmlns="http://www.w3.org/2000/svg">
<path fill-rule="evenodd" clip-rule="evenodd" d="M48.2653 6C47.9986 5.33333 47.4652 4.93333 46.7986 4.93333L42.9319 4.8L41.4652 1.06667C41.1986 0.4 40.6652 0 39.9986 0C39.3319 0 38.7986 0.4 38.5319 1.06667L37.1986 4.8L33.3319 4.93333C32.6652 4.93333 32.1319 5.33333 31.8652 6C31.5986 6.66667 31.8652 7.33333 32.3986 7.73333L35.4652 10.1333L34.3986 13.8667C34.2652 14.5333 34.3986 15.2 35.0652 15.6C35.3319 15.8667 35.7319 15.8667 35.9986 15.8667C36.2652 15.8667 36.6652 15.7333 36.9319 15.6L40.2653 13.4667L43.5986 15.6C44.1319 16 44.9319 16 45.3319 15.6C45.8652 15.2 46.1319 14.5333 45.9986 13.8667L44.9319 10.1333L47.9986 7.73333C48.2652 7.33333 48.3986 6.66667 48.2653 6ZM42.6652 8.53333C42.1319 8.93333 41.9986 9.6 42.1319 10.1333L42.6652 12.2667L40.9319 11.0667C40.6652 10.9333 40.3986 10.8 39.9986 10.8C39.7319 10.8 39.3319 10.9333 39.1986 11.0667L37.3319 12.2667L37.8652 10.2667C37.9986 9.6 37.8652 9.06667 37.3319 8.66667L35.7319 7.33333L37.8652 7.2C38.5319 7.2 39.0652 6.8 39.1986 6.13333L39.9986 4.13333L40.7986 6.13333C41.0653 6.66667 41.5986 7.06667 42.2653 7.2L44.3986 7.33333L42.6652 8.53333ZM65.8652 9.33333C65.5986 8.66667 65.0652 8.26667 64.3986 8.26667L60.5319 8L59.1986 4.26667C58.9319 3.6 58.3986 3.2 57.7319 3.2C57.0652 3.2 56.5319 3.6 56.2653 4.26667L54.6652 8L50.7986 8.13333C50.1319 8.13333 49.5986 8.53333 49.3319 9.2C49.0653 9.86667 49.3319 10.5333 49.8652 10.9333L52.9319 13.3333L51.9986 17.3333C51.8652 18 51.9986 18.6667 52.6652 19.0667C52.9319 19.3333 53.1986 19.3333 53.5986 19.3333C53.8652 19.3333 54.2653 19.2 54.5319 19.0667L57.8652 16.9333L61.1986 19.0667C61.7319 19.4667 62.3986 19.4667 63.0652 19.0667C63.5986 18.6667 63.8652 18 63.5986 17.3333L62.5319 13.6L65.3319 11.0667C65.8652 10.6667 65.9986 10 65.8652 9.33333ZM60.2653 12C59.7319 12.4 59.5986 13.0667 59.7319 13.6L60.2653 15.6L58.5319 14.4C58.2653 14.2667 57.9986 14.1333 57.7319 14.1333C57.4652 14.1333 57.0652 14.2667 56.7986 14.4L55.0652 15.6L55.5986 13.6C55.7319 12.9333 55.5986 12.4 55.0652 12L53.3319 10.6667L55.4652 10.5333C56.1319 10.5333 56.6652 10.1333 56.9319 9.46667L57.7319 7.46667L58.5319 9.46667C58.7986 10 59.3319 10.4 59.8652 10.5333L61.8652 10.6667L60.2653 12ZM30.5319 9.33333C30.2652 8.66667 29.7319 8.26667 29.0652 8.26667L25.1986 8L23.8652 4.26667C23.5986 3.6 23.0652 3.2 22.3986 3.2C21.7319 3.2 21.1986 3.6 20.9319 4.26667L19.5986 8L15.7319 8.13333C15.0652 8.13333 14.5319 8.53333 14.2652 9.2C13.9986 9.86667 14.2652 10.5333 14.7986 10.9333L17.8652 13.3333L16.6652 17.3333C16.5319 18 16.6652 18.6667 17.1986 19.0667C17.4652 19.3333 17.8652 19.3333 18.1319 19.3333C18.3986 19.3333 18.7986 19.2 19.0653 19.0667L22.3986 16.9333L25.7319 19.0667C26.2652 19.4667 26.9319 19.4667 27.5986 19.0667C27.9986 18.6667 28.2652 18 27.9986 17.3333L26.9319 13.6L29.9986 11.2C30.5319 10.6667 30.7986 10 30.5319 9.33333ZM24.9319 12C24.3986 12.4 24.2652 13.0667 24.3986 13.6L24.9319 15.6L23.1986 14.4C22.9319 14.2667 22.6652 14.1333 22.3986 14.1333C22.1319 14.1333 21.7319 14.2667 21.4653 14.4L19.7319 15.6L20.2652 13.6C20.3986 12.9333 20.2652 12.4 19.7319 12L18.1319 10.6667L20.2652 10.5333C20.9319 10.5333 21.4652 10.1333 21.7319 9.46667L22.5319 7.46667L23.3319 9.46667C23.5986 10 24.1319 10.4 24.6652 10.5333L26.6652 10.6667L24.9319 12ZM65.7319 36.2667C64.9319 33.6 62.9319 31.4667 60.5319 30.4C61.4653 29.4667 61.9986 28.1333 61.9986 26.6667C61.9986 23.7333 59.5986 21.2 56.5319 21.2C53.5986 21.2 51.0652 23.6 51.0652 26.6667C51.0652 28.1333 51.5986 29.4667 52.5319 30.4C51.3319 30.9333 50.2652 31.7333 49.4652 32.6667C48.1319 30.9333 46.2653 29.6 44.2653 28.8C45.7319 27.6 46.6652 25.7333 46.6652 23.6C46.6652 19.8667 43.5986 16.8 39.8652 16.8C36.1319 16.8 33.0652 19.8667 33.0652 23.6C33.0652 25.6 33.9986 27.4667 35.4652 28.8C33.4652 29.6 31.5986 30.9333 30.2652 32.6667C29.3319 31.7333 28.2652 30.9333 27.1986 30.4C28.1319 29.4667 28.6652 28.1333 28.6652 26.6667C28.6652 23.7333 26.2652 21.2 23.1986 21.2C20.2652 21.2 17.7319 23.6 17.7319 26.6667C17.7319 28.1333 18.2652 29.4667 19.1986 30.4C16.7986 31.4667 14.7986 33.6 13.9986 36.2667C13.7319 37.2 13.8652 38.2667 14.5319 39.0667C15.0652 39.8667 15.9986 40.4 17.0652 40.4H27.5986V41.3333C27.5986 43.6 29.4652 45.6 31.7319 45.6H47.7319C49.9986 45.6 51.8652 43.7333 51.8652 41.3333V40.4H62.3986C63.4652 40.4 64.3986 39.8667 64.9319 39.0667C65.8652 38.2667 65.9986 37.2 65.7319 36.2667ZM23.3319 23.7333C24.9319 23.7333 26.2652 25.0667 26.2652 26.6667C26.2652 28.2667 24.9319 29.6 23.3319 29.6C21.7319 29.6 20.3986 28.2667 20.3986 26.6667C20.3986 25.0667 21.7319 23.7333 23.3319 23.7333ZM27.9986 37.8667H17.3319C17.0652 37.8667 16.9319 37.7333 16.7986 37.6C16.6652 37.4667 16.6652 37.3333 16.6652 37.0667C17.5986 34.1333 20.2652 32.1333 23.3319 32.1333C25.5986 32.1333 27.5986 33.2 28.9319 34.9333C28.5319 35.8667 28.1319 36.8 27.9986 37.8667ZM39.9986 19.3333C42.3986 19.3333 44.2653 21.3333 44.2653 23.6C44.2653 26 42.2652 27.8667 39.9986 27.8667C37.5986 27.8667 35.7319 25.8667 35.7319 23.6C35.5986 21.3333 37.5986 19.3333 39.9986 19.3333ZM49.7319 41.3333C49.7319 42.2667 48.9319 43.0667 47.9986 43.0667H31.9986C31.0652 43.0667 30.2652 42.2667 30.2652 41.3333V39.2C30.7986 34.2667 34.9319 30.5333 39.9986 30.5333C45.0653 30.5333 49.1986 34.2667 49.7319 39.2V41.3333ZM56.6652 23.7333C58.2653 23.7333 59.5986 25.0667 59.5986 26.6667C59.5986 28.2667 58.2653 29.6 56.6652 29.6C55.0653 29.6 53.7319 28.2667 53.7319 26.6667C53.7319 25.0667 55.0653 23.7333 56.6652 23.7333ZM63.3319 37.6C63.1986 37.7333 63.0652 37.8667 62.7986 37.8667H52.1319C51.8652 36.8 51.5986 35.8667 51.1986 34.9333C52.5319 33.2 54.5319 32.1333 56.7986 32.1333C59.8652 32.1333 62.5319 34.1333 63.4652 37.0667C63.4652 37.3333 63.3319 37.4667 63.3319 37.6ZM8.93192 57.0667C8.13192 57.2 7.73192 57.8667 7.73192 58.6667C7.86525 59.4667 8.53192 59.8667 9.33192 59.8667C10.1319 59.7333 10.6652 59.0667 10.5319 58.2667C10.2652 57.4667 9.59858 56.9333 8.93192 57.0667ZM8.93192 57.0667C8.13192 57.2 7.73192 57.8667 7.73192 58.6667C7.86525 59.4667 8.53192 59.8667 9.33192 59.8667C10.1319 59.7333 10.6652 59.0667 10.5319 58.2667C10.2652 57.4667 9.59858 56.9333 8.93192 57.0667ZM8.93192 57.0667C8.13192 57.2 7.73192 57.8667 7.73192 58.6667C7.86525 59.4667 8.53192 59.8667 9.33192 59.8667C10.1319 59.7333 10.6652 59.0667 10.5319 58.2667C10.2652 57.4667 9.59858 56.9333 8.93192 57.0667ZM8.93192 57.0667C8.13192 57.2 7.73192 57.8667 7.73192 58.6667C7.86525 59.4667 8.53192 59.8667 9.33192 59.8667C10.1319 59.7333 10.6652 59.0667 10.5319 58.2667C10.2652 57.4667 9.59858 56.9333 8.93192 57.0667ZM8.93192 57.0667C8.13192 57.2 7.73192 57.8667 7.73192 58.6667C7.86525 59.4667 8.53192 59.8667 9.33192 59.8667C10.1319 59.7333 10.6652 59.0667 10.5319 58.2667C10.2652 57.4667 9.59858 56.9333 8.93192 57.0667ZM8.93192 57.0667C8.13192 57.2 7.73192 57.8667 7.73192 58.6667C7.86525 59.4667 8.53192 59.8667 9.33192 59.8667C10.1319 59.7333 10.6652 59.0667 10.5319 58.2667C10.2652 57.4667 9.59858 56.9333 8.93192 57.0667ZM76.6653 50.9333C75.9986 49.7333 73.0652 46.1333 65.3319 50.6667L51.7319 58.5333C51.0652 58.9333 50.3986 59.2 49.7319 59.3333C49.9986 58.9333 50.1319 58.4 50.2653 58C50.9319 55.3333 49.4652 52.6667 46.7986 51.7333H46.6652C42.7986 51.0667 38.9319 49.6 35.8652 48.5333C34.7986 48.1333 33.7319 47.7333 32.9319 47.4667C29.4653 46.4 26.2653 47.7333 23.5986 49.2L13.4653 55.0667L12.3986 53.2C11.9986 52.4 11.3319 51.8667 10.3986 51.7333C9.59858 51.4667 8.66525 51.6 7.99858 52L4.13192 54.1333C2.53192 55.0667 1.99858 56.9333 2.93192 58.5333L14.1319 78.4C14.6652 79.4667 15.8652 80 16.9319 80C17.4652 80 17.9986 79.8667 18.5319 79.6L22.3986 77.4667C23.1986 77.0667 23.7319 76.4 23.8652 75.4667C24.1319 74.6667 23.9986 73.7333 23.5986 73.0667L22.6652 71.2L24.9319 69.8667L42.2653 74.5333C43.1986 74.8 44.2653 74.9333 45.1986 74.9333C47.0653 74.9333 48.9319 74.4 50.5319 73.3333L75.1986 58.1333C77.4653 56.9333 78.1319 53.3333 76.6653 50.9333ZM21.4653 74.8C21.4653 74.9333 21.3319 75.2 21.0653 75.2L17.3319 77.4667C17.1986 77.6 16.9319 77.6 16.7986 77.4667C16.6652 77.4667 16.3986 77.3333 16.3986 77.0667L5.06525 57.3333C4.93192 57.2 4.93192 56.9333 5.06525 56.8C5.06525 56.6667 5.19858 56.4 5.46525 56.4L9.33192 54.2667C9.46525 54.2667 9.59858 54.1333 9.73192 54.1333C9.86525 54.1333 9.86525 54.1333 9.99858 54.1333C10.1319 54.1333 10.3986 54.2667 10.3986 54.5333L19.9986 71.4667L21.5986 74.2667C21.4653 74.4 21.5986 74.6667 21.4653 74.8ZM73.8652 56.1333L49.1986 71.3333C47.1986 72.5333 45.0652 72.8 42.7986 72.2667L24.9319 67.4667C24.6652 67.3333 24.2652 67.4667 23.9986 67.6L21.3319 69.2L14.6652 57.3333L24.7986 51.4667C27.0652 50.1333 29.4652 49.0667 31.9986 49.8667C32.7986 50.1333 33.7319 50.5333 34.9319 50.9333C38.1319 52.1333 41.9986 53.4667 46.1319 54.2667C47.4652 54.8 48.2652 56.1333 47.9986 57.4667C47.5986 59.2 45.9986 59.4667 44.9319 59.3333C42.9319 58.9333 41.0652 58.4 39.0652 57.7333C38.1319 57.4667 37.0653 57.2 36.1319 56.9333C35.4652 56.8 34.7986 57.2 34.5319 57.8667C34.3986 58.5333 34.7986 59.2 35.4652 59.3333C36.3986 59.6 37.4652 59.8667 38.3986 60.1333C40.3986 60.8 42.3986 61.3333 44.5319 61.7333L46.2653 62C48.7986 62.4 51.0653 62 53.1986 60.8L66.7986 52.9333C70.6652 50.6667 73.7319 50.4 74.7986 52.2667C75.3319 53.4667 74.9319 55.4667 73.8652 56.1333ZM8.93192 57.0667C8.13192 57.2 7.73192 57.8667 7.73192 58.6667C7.86525 59.4667 8.53192 59.8667 9.33192 59.8667C10.1319 59.7333 10.6652 59.0667 10.5319 58.2667C10.2652 57.4667 9.59858 56.9333 8.93192 57.0667ZM8.93192 57.0667C8.13192 57.2 7.73192 57.8667 7.73192 58.6667C7.86525 59.4667 8.53192 59.8667 9.33192 59.8667C10.1319 59.7333 10.6652 59.0667 10.5319 58.2667C10.2652 57.4667 9.59858 56.9333 8.93192 57.0667ZM8.93192 57.0667C8.13192 57.2 7.73192 57.8667 7.73192 58.6667C7.86525 59.4667 8.53192 59.8667 9.33192 59.8667C10.1319 59.7333 10.6652 59.0667 10.5319 58.2667C10.2652 57.4667 9.59858 56.9333 8.93192 57.0667ZM8.93192 57.0667C8.13192 57.2 7.73192 57.8667 7.73192 58.6667C7.86525 59.4667 8.53192 59.8667 9.33192 59.8667C10.1319 59.7333 10.6652 59.0667 10.5319 58.2667C10.2652 57.4667 9.59858 56.9333 8.93192 57.0667ZM8.93192 57.0667C8.13192 57.2 7.73192 57.8667 7.73192 58.6667C7.86525 59.4667 8.53192 59.8667 9.33192 59.8667C10.1319 59.7333 10.6652 59.0667 10.5319 58.2667C10.2652 57.4667 9.59858 56.9333 8.93192 57.0667ZM8.93192 57.0667C8.13192 57.2 7.73192 57.8667 7.73192 58.6667C7.86525 59.4667 8.53192 59.8667 9.33192 59.8667C10.1319 59.7333 10.6652 59.0667 10.5319 58.2667C10.2652 57.4667 9.59858 56.9333 8.93192 57.0667ZM8.93192 57.0667C8.13192 57.2 7.73192 57.8667 7.73192 58.6667C7.86525 59.4667 8.53192 59.8667 9.33192 59.8667C10.1319 59.7333 10.6652 59.0667 10.5319 58.2667C10.2652 57.4667 9.59858 56.9333 8.93192 57.0667Z" fill="white"/>
<path fill-rule="evenodd" clip-rule="evenodd" d="M63.3326 37.6005C63.1992 37.7338 63.0659 37.8671 62.7992 37.8671H52.1325C51.8659 36.8005 51.5992 35.8671 51.1992 34.9338C52.5326 33.2005 54.5325 32.1338 56.7992 32.1338C59.8659 32.1338 62.5325 34.1338 63.4659 37.0671C63.4659 37.3338 63.3326 37.4671 63.3326 37.6005Z" fill="#FC6C2D"/>
<path fill-rule="evenodd" clip-rule="evenodd" d="M59.601 26.6667C59.601 28.2667 58.2677 29.6001 56.6677 29.6001C55.0677 29.6001 53.7344 28.2667 53.7344 26.6667C53.7344 25.0667 55.0677 23.7334 56.6677 23.7334C58.2677 23.7334 59.601 25.0667 59.601 26.6667Z" fill="#FC6C2D"/>
<path fill-rule="evenodd" clip-rule="evenodd" d="M44.2677 23.7329C44.2677 26.1329 42.2677 27.9996 40.001 27.9996C37.601 27.9996 35.7344 25.9996 35.7344 23.7329C35.7344 21.3329 37.7344 19.4663 40.001 19.4663C42.401 19.3329 44.2677 21.3329 44.2677 23.7329Z" fill="#FC6C2D"/>
<path fill-rule="evenodd" clip-rule="evenodd" d="M49.7323 39.1999V41.3332C49.7323 42.2665 48.9323 43.0665 47.999 43.0665H31.999C31.0656 43.0665 30.2656 42.2665 30.2656 41.3332V39.1999C30.799 34.2665 34.9323 30.5332 39.999 30.5332C44.9323 30.5332 49.199 34.2665 49.7323 39.1999Z" fill="#FC6C2D"/>
<path fill-rule="evenodd" clip-rule="evenodd" d="M28.9346 34.9338C28.5346 35.8671 28.1346 36.8005 28.0013 37.8671H17.3346C17.068 37.8671 16.9346 37.7338 16.8013 37.6005C16.668 37.4671 16.668 37.3338 16.668 37.0671C17.6013 34.1338 20.268 32.1338 23.3346 32.1338C25.6013 32.1338 27.6013 33.0671 28.9346 34.9338Z" fill="#FC6C2D"/>
<path fill-rule="evenodd" clip-rule="evenodd" d="M26.2651 26.6667C26.2651 28.2667 24.9318 29.6001 23.3318 29.6001C21.7318 29.6001 20.3984 28.2667 20.3984 26.6667C20.3984 25.0667 21.7318 23.7334 23.3318 23.7334C24.9318 23.7334 26.2651 25.0667 26.2651 26.6667Z" fill="#FC6C2D"/>
</svg>
