<svg width="80" height="80" viewBox="0 0 80 80" fill="none" xmlns="http://www.w3.org/2000/svg">
<g clip-path="url(#clip0_1956_710)">
<path d="M67.3318 5.59961H2.39844V14.6663H67.3318V5.59961Z" fill="#FC6C2D"/>
<path d="M5.33333 66.9336H8V64.2669H5.33333C3.86667 64.2669 2.66667 63.0669 2.66667 61.6003V8.26693C2.66667 6.80026 3.86667 5.60026 5.33333 5.60026H64C65.4667 5.60026 66.6667 6.80026 66.6667 8.26693V10.9336H69.3333V8.26693C69.3333 5.33359 66.9333 2.93359 64 2.93359H5.33333C2.4 2.93359 0 5.33359 0 8.26693V61.6003C0 64.6669 2.4 66.9336 5.33333 66.9336Z" fill="white"/>
<path d="M5.33203 8.2666H7.9987V10.9333H5.33203V8.2666Z" fill="white"/>
<path d="M10.668 8.2666H13.3346V10.9333H10.668V8.2666Z" fill="white"/>
<path d="M16 8.2666H18.6667V10.9333H16V8.2666Z" fill="white"/>
<path d="M74.668 13.5996H16.0013C13.068 13.5996 10.668 15.9996 10.668 18.9329V72.2663C10.668 75.1996 13.068 77.5996 16.0013 77.5996H74.668C77.6013 77.5996 80.0013 75.1996 80.0013 72.2663V18.9329C80.0013 15.9996 77.6013 13.5996 74.668 13.5996ZM77.3346 72.2663C77.3346 73.7329 76.1346 74.9329 74.668 74.9329H16.0013C14.5346 74.9329 13.3346 73.7329 13.3346 72.2663V18.9329C13.3346 17.4663 14.5346 16.2663 16.0013 16.2663H74.668C76.1346 16.2663 77.3346 17.4663 77.3346 18.9329V72.2663Z" fill="white"/>
<path d="M16 18.9336H18.6667V21.6003H16V18.9336Z" fill="white"/>
<path d="M21.332 18.9336H23.9987V21.6003H21.332V18.9336Z" fill="white"/>
<path d="M26.668 18.9336H29.3346V21.6003H26.668V18.9336Z" fill="white"/>
<path d="M16 24.2666H74.6667V26.9333H16V24.2666Z" fill="white"/>
<path d="M16 30.9336H26.6667V33.6003H16V30.9336Z" fill="white"/>
<path d="M16 36.2666H24V38.9333H16V36.2666Z" fill="white"/>
<path d="M45.3333 41.5996C40.1333 41.5996 36 45.7329 36 50.9329C36 56.1329 40.1333 60.2663 45.3333 60.2663C50.5333 60.2663 54.6667 56.1329 54.6667 50.9329C54.6667 45.8663 50.5333 41.5996 45.3333 41.5996ZM45.3333 57.5996C41.6 57.5996 38.6667 54.6663 38.6667 50.9329C38.6667 47.1996 41.6 44.2663 45.3333 44.2663C49.0667 44.2663 52 47.1996 52 50.9329C52 54.6663 49.0667 57.5996 45.3333 57.5996Z" fill="white"/>
<path d="M65.3333 45.6001H61.8667C61.6 44.6667 61.2 43.8667 60.8 43.0667L63.3333 40.5334C63.8667 40.0001 63.8667 39.2001 63.3333 38.6667L57.7333 33.0667C57.2 32.5334 56.4 32.5334 55.8667 33.0667L53.3333 35.6001C52.5333 35.2001 51.7333 34.8001 50.8 34.5334V31.0667C50.8 30.4001 50.1333 29.7334 49.4667 29.7334H41.4667C40.8 29.7334 40.1333 30.4001 40.1333 31.0667V34.5334C39.2 34.8001 38.4 35.2001 37.6 35.6001L35.0667 33.0667C34.5333 32.5334 33.7333 32.5334 33.2 33.0667L27.6 38.6667C27.0667 39.2001 27.0667 40.0001 27.6 40.5334L30.1333 43.0667C30 43.3334 29.8667 43.4667 29.8667 43.7334C29.6 44.4001 29.3333 44.9334 29.2 45.6001H25.3333C24.6667 45.6001 24 46.2667 24 46.9334V54.9334C24 55.6001 24.6667 56.2667 25.3333 56.2667H28.8C29.0667 57.2001 29.4667 58.0001 29.8667 58.8001L27.4667 61.3334C26.9333 61.8667 26.9333 62.6667 27.4667 63.2001L33.0667 68.8001C33.6 69.3334 34.4 69.3334 34.9333 68.8001L37.4667 66.2667C38.2667 66.6667 39.0667 67.0667 40 67.3334V70.8001C40 71.4667 40.6667 72.1334 41.3333 72.1334H49.3333C50 72.1334 50.6667 71.4667 50.6667 70.8001V67.3334C51.6 67.0667 52.4 66.6667 53.2 66.2667L55.7333 68.8001C56.2667 69.3334 57.0667 69.3334 57.6 68.8001L63.2 63.2001C63.7333 62.6667 63.7333 61.8667 63.2 61.3334L60.6667 58.8001C61.0667 58.0001 61.4667 57.2001 61.7333 56.2667H65.3333C66 56.2667 66.6667 55.6001 66.6667 54.9334V46.9334C66.6667 46.2667 66 45.6001 65.3333 45.6001ZM64 53.6001H60.8C60.1333 53.6001 59.6 54.0001 59.4667 54.6667C59.0667 56.0001 58.5333 57.2001 57.8667 58.4001C57.6 58.9334 57.6 59.6001 58.1333 60.0001L60.4 62.2667L56.6667 66.0001L54.4 63.7334C54 63.3334 53.3333 63.2001 52.8 63.4667C51.6 64.1334 50.4 64.6667 49.0667 65.0667C48.5333 65.2001 48 65.7334 48 66.4001V69.6001H42.6667V66.4001C42.6667 65.7334 42.2667 65.2001 41.6 65.0667C40.2667 64.6667 39.0667 64.1334 37.8667 63.4667C37.3333 63.2001 36.6667 63.2001 36.2667 63.7334L34 66.0001L30.2667 62.2667L32.5333 60.0001C32.9333 59.6001 33.0667 58.9334 32.8 58.4001C32 57.2001 31.4667 56.0001 31.2 54.6667C31.0667 54.1334 30.5333 53.6001 29.8667 53.6001H26.6667V48.2667H29.8667C30.5333 48.2667 31.0667 47.8667 31.2 47.2001C31.4667 46.4001 31.7333 45.6001 32.1333 44.8001C32.4 44.4001 32.5333 43.8667 32.8 43.4667C33.0667 42.9334 33.0667 42.2667 32.5333 41.8667L30.2667 39.6001L34 35.8667L36.2667 38.1334C36.6667 38.5334 37.3333 38.6667 37.8667 38.4001C39.0667 37.7334 40.2667 37.2001 41.6 36.8001C42.1333 36.6667 42.6667 36.1334 42.6667 35.4667V32.2667H48V35.4667C48 36.1334 48.4 36.6667 49.0667 36.8001C50.4 37.2001 51.6 37.7334 52.8 38.4001C53.3333 38.6667 54 38.6667 54.4 38.1334L56.6667 35.8667L60.4 39.6001L58.1333 41.8667C57.7333 42.2667 57.6 42.9334 57.8667 43.4667C58.5333 44.6667 59.0667 45.8667 59.4667 47.2001C59.6 47.7334 60.1333 48.2667 60.8 48.2667H64V53.6001Z" fill="white"/>
<path d="M60.8013 48.2666C60.1346 48.2666 59.6013 47.8666 59.468 47.1999C59.068 45.8666 58.5346 44.5333 57.868 43.4666C57.6013 42.9333 57.6013 42.2666 58.1346 41.8666L60.4013 39.5999L56.668 35.8666L54.4013 38.1333C54.0013 38.6666 53.3346 38.6666 52.8013 38.3999C51.6013 37.7333 50.4013 37.1999 49.068 36.7999C48.5346 36.6666 48.0013 36.1333 48.0013 35.4666V32.2666H42.668V35.4666C42.668 36.1333 42.268 36.5333 41.6013 36.7999C40.268 37.0666 39.068 37.7333 37.868 38.3999C37.3346 38.6666 36.668 38.6666 36.268 38.1333L34.0013 35.8666L30.268 39.5999L32.5346 41.8666C32.9346 42.2666 33.068 42.9333 32.8013 43.4666C32.5346 43.8666 32.268 44.3999 32.1346 44.7999C31.7346 45.5999 31.468 46.3999 31.2013 47.1999C31.068 47.7333 30.5346 48.2666 29.868 48.2666H26.668V53.5999H29.868C30.5346 53.5999 31.068 53.9999 31.2013 54.6666C31.6013 55.9999 32.1346 57.1999 32.8013 58.3999C33.068 58.9333 33.068 59.5999 32.5346 59.9999L30.268 62.2666L34.0013 65.9999L36.268 63.7333C36.668 63.3333 37.3346 63.1999 37.868 63.4666C39.068 64.1333 40.268 64.6666 41.6013 65.0666C42.1346 65.1999 42.668 65.7333 42.668 66.3999V69.5999H48.0013V66.3999C48.0013 65.7333 48.4013 65.1999 49.068 65.0666C50.4013 64.6666 51.6013 64.1333 52.8013 63.4666C53.3346 63.1999 54.0013 63.1999 54.4013 63.7333L56.668 65.9999L60.4013 62.2666L58.1346 59.9999C57.7346 59.5999 57.6013 58.9333 57.868 58.3999C58.5346 57.1999 59.068 55.9999 59.468 54.6666C59.6013 54.1333 60.1346 53.5999 60.8013 53.5999H64.0013V48.2666H60.8013ZM45.3346 60.2666C40.1346 60.2666 36.0013 56.1333 36.0013 50.9333C36.0013 45.7333 40.1346 41.5999 45.3346 41.5999C50.5346 41.5999 54.668 45.7333 54.668 50.9333C54.668 56.1333 50.5346 60.2666 45.3346 60.2666Z" fill="#FC6C2D"/>
<path d="M66.668 69.5996H74.668V72.2663H66.668V69.5996Z" fill="white"/>
</g>
<defs>
<clipPath id="clip0_1956_710">
<rect width="80" height="80" fill="white"/>
</clipPath>
</defs>
</svg>
