<svg width="80" height="80" viewBox="0 0 80 80" fill="none" xmlns="http://www.w3.org/2000/svg">
<g clip-path="url(#clip0_1956_731)">
<path d="M24.5323 36.1337C24.5323 33.7337 22.9323 31.7337 20.6656 31.2004V28.4004H18.1323V30.9337H14.2656V48.9337H18.1323V51.4671H20.6656V48.6671C22.9323 48.1337 24.5323 46.1337 24.5323 43.7337C24.5323 42.1337 23.8656 40.8004 22.799 39.8671C23.8656 39.0671 24.5323 37.6004 24.5323 36.1337ZM19.3323 46.4004H16.799V41.3337H19.3323C20.799 41.3337 21.8656 42.5337 21.8656 43.8671C21.999 45.3337 20.799 46.4004 19.3323 46.4004ZM19.3323 38.6671H16.799V33.4671H19.3323C20.799 33.4671 21.8656 34.6671 21.8656 36.0004C21.999 37.6004 20.799 38.6671 19.3323 38.6671Z" fill="white"/>
<path d="M76.1331 36.1338C74.3997 36.1338 73.0664 37.2005 72.5331 38.6671H49.0664V41.3338H72.5331C73.0664 42.8005 74.5331 43.8671 76.1331 43.8671C78.2664 43.8671 79.9997 42.1338 79.9997 40.0005C79.9997 37.8671 78.2664 36.1338 76.1331 36.1338ZM76.1331 41.3338C75.4664 41.3338 74.7997 40.8005 74.7997 40.0005C74.7997 39.2005 75.3331 38.6671 76.1331 38.6671C76.7997 38.6671 77.4664 39.2005 77.4664 40.0005C77.4664 40.6671 76.7997 41.3338 76.1331 41.3338Z" fill="white"/>
<path d="M67.0667 46.4C65.3333 46.4 64 47.4667 63.4667 48.9333H57.3333L52.1333 43.7333H41.3333V46.2667H51.0667L56.2667 51.4667H63.4667C63.8667 52.5333 64.6667 53.4667 65.8667 53.8667V76C65.8667 76.6667 65.3333 77.3333 64.5333 77.3333H12.9333C12.2667 77.3333 11.6 76.8 11.6 76V55.6H11.7333C12.1333 55.3333 12.5333 55.3333 12.9333 55.6C13.3333 55.7333 13.6 56.1333 13.7333 56.5333C14.1333 58.2667 15.7333 59.4667 17.4667 59.4667H21.2C22.9333 59.4667 24.5333 58.2667 24.9333 56.5333C25.0667 56.1333 25.3333 55.8667 25.7333 55.6C26.1333 55.4667 26.5333 55.4667 26.9333 55.7333C28.5333 56.6667 30.4 56.4 31.7333 55.0667L34.4 52.4C35.7333 51.2 35.8667 49.2 34.9333 47.6C34.6667 47.2 34.6667 46.8 34.9333 46.4C35.0667 46 35.4667 45.7333 35.8667 45.6C37.6 45.2 38.8 43.6 38.8 41.8667V41.3333H41.3333V38.6667H38.6667V38.1333C38.6667 36.4 37.4667 34.8 35.7333 34.4C35.3333 34.2667 35.0667 34 34.8 33.6C34.6667 33.2 34.6667 32.8 34.9333 32.4C35.8667 30.8 35.6 28.9333 34.4 27.6L31.7333 24.9333C30.5333 23.6 28.5333 23.4667 26.9333 24.4C26.5333 24.6667 26.1333 24.6667 25.7333 24.4C25.3333 24.2667 25.0667 23.8667 24.9333 23.4667C24.5333 21.7333 22.9333 20.5333 21.2 20.5333H17.4667C15.7333 20.5333 14.1333 21.7333 13.6 23.4667C13.4667 23.8667 13.2 24.1333 12.8 24.4C12.4 24.5333 12 24.5333 11.6 24.2667C11.6 24.2667 11.6 24.2667 11.4667 24.2667V3.86667C11.4667 3.2 12 2.53333 12.8 2.53333H52.8V11.6C52.8 13.7333 54.5333 15.4667 56.6667 15.4667H65.7333V26C64.6667 26.4 63.7333 27.2 63.3333 28.4H56.1333L50.9333 33.6H41.3333V36.1333H52.1333L57.3333 30.9333H63.4667C64 32.4 65.4667 33.4667 67.0667 33.4667C69.2 33.4667 70.9333 31.7333 70.9333 29.6C70.9333 27.8667 69.8667 26.5333 68.4 26V15.2C68.4 14.1333 68 13.2 67.3333 12.4L56 1.06667C55.0667 0.4 54.1333 0 53.0667 0H12.9333C10.8 0 9.06667 1.73333 9.06667 3.86667V24C8.26667 24.1333 7.6 24.5333 7.06667 25.0667L4.4 27.7333C3.2 28.9333 2.93333 30.9333 3.86667 32.5333C4.13333 32.9333 4.13333 33.3333 3.86667 33.7333C3.73333 34.1333 3.33333 34.4 2.93333 34.5333C1.2 34.8 0 36.4 0 38.1333V41.8667C0 43.6 1.2 45.2 2.93333 45.6C3.33333 45.7333 3.6 46 3.86667 46.4C4 46.8 4 47.2 3.73333 47.6C2.8 49.2 3.06667 51.0667 4.26667 52.4L6.93333 55.0667C7.46667 55.6 8.26667 56 8.93333 56.1333V76.2667C8.93333 78.4 10.6667 80.1333 12.8 80.1333H64.4C66.5333 80.1333 68.2667 78.4 68.2667 76.2667V54C69.7333 53.4667 70.8 52 70.8 50.4C70.9333 48.1333 69.2 46.4 67.0667 46.4ZM67.0667 28.4C67.7333 28.4 68.4 28.9333 68.4 29.7333C68.4 30.4 67.8667 31.0667 67.0667 31.0667C66.4 31.0667 65.7333 30.5333 65.7333 29.7333C65.7333 28.9333 66.4 28.4 67.0667 28.4ZM55.4667 4.4L64 12.9333H56.8C56.1333 12.9333 55.4667 12.4 55.4667 11.6V4.4ZM8.8 53.2L6.13333 50.5333C5.73333 50.1333 5.6 49.4667 6 48.9333C6.66667 47.8667 6.66667 46.5333 6.26667 45.3333C5.73333 44.2667 4.8 43.3333 3.6 43.0667C3.06667 42.9333 2.66667 42.4 2.66667 41.7333V38C2.66667 37.3333 3.06667 36.9333 3.73333 36.6667C4.93333 36.4 5.86667 35.4667 6.4 34.4C6.66667 33.4667 6.66667 32.1333 6 31.0667C5.73333 30.5333 5.73333 29.8667 6.26667 29.4667L8.93333 26.8C9.33333 26.4 10 26.2667 10.5333 26.6667C11.6 27.3333 12.9333 27.3333 14 26.9333C15.0667 26.5333 16 25.4667 16.2667 24.2667C16.4 23.7333 16.9333 23.3333 17.6 23.3333H21.3333C21.8667 23.3333 22.4 23.7333 22.6667 24.4C22.9333 25.6 23.8667 26.5333 24.9333 27.0667C26 27.6 27.3333 27.4667 28.4 26.8C28.9333 26.5333 29.6 26.5333 30 27.0667L32.6667 29.7333C33.0667 30.1333 33.2 30.8 32.8 31.3333C32.1333 32.4 32.1333 33.7333 32.5333 34.8C33.0667 35.8667 34 36.8 35.2 37.0667C35.7333 37.2 36.2667 37.7333 36.2667 38.4V42.1333C36.2667 42.8 35.8667 43.2 35.2 43.4667C34 43.7333 33.0667 44.6667 32.5333 45.7333C32 46.8 32.1333 48.1333 32.8 49.2C33.0667 49.7333 33.0667 50.4 32.6667 50.8L30 53.4667C29.6 53.8667 28.9333 54 28.4 53.6C27.3333 52.9333 26 52.9333 24.9333 53.3333C23.8667 53.7333 22.9333 54.8 22.6667 56C22.5333 56.5333 22 56.9333 21.3333 56.9333H17.6C16.9333 56.9333 16.4 56.5333 16.2667 55.8667C16 54.6667 15.0667 53.7333 14 53.2C13.4667 52.9333 12.9333 52.9333 12.5333 52.9333C11.8667 52.9333 11.2 53.0667 10.5333 53.4667C9.86667 53.6 9.2 53.6 8.8 53.2ZM67.0667 51.6C66.4 51.6 65.7333 51.0667 65.7333 50.2667C65.7333 49.6 66.2667 48.9333 67.0667 48.9333C67.7333 48.9333 68.4 49.4667 68.4 50.2667C68.4 51.0667 67.8667 51.6 67.0667 51.6Z" fill="white"/>
<path d="M63.9982 12.9337H56.7982C56.1315 12.9337 55.4648 12.4004 55.4648 11.6004V4.40039L63.9982 12.9337Z" fill="#FC6C2D"/>
<path d="M35.0685 36.9335C33.8685 36.6669 32.9352 35.7335 32.4018 34.6669C31.8685 33.4669 32.0018 32.1335 32.6685 31.2002C32.9352 30.6669 32.9352 30.0002 32.5352 29.6002L29.8685 26.9335C29.4685 26.5335 28.8018 26.4002 28.2685 26.6669C27.2018 27.3335 25.8685 27.4669 24.8018 26.9335C23.6018 26.4002 22.8018 25.4669 22.5352 24.2669C22.4018 23.6002 21.8685 23.2002 21.2018 23.2002H17.4685C16.8018 23.2002 16.2685 23.6002 16.1352 24.1335C15.8685 25.3335 14.9352 26.4002 13.8685 26.8002C12.6685 27.3335 11.3352 27.2002 10.4018 26.5335C9.86849 26.2669 9.20182 26.2669 8.80182 26.6669L6.13516 29.3335C5.73516 29.7335 5.60182 30.4002 5.86849 30.9335C6.66849 32.1335 6.66849 33.4669 6.26849 34.5335C5.73516 35.7335 4.80182 36.5335 3.60182 36.8002C2.93516 36.9335 2.53516 37.4669 2.53516 38.1335V41.8669C2.53516 42.5335 2.93516 42.9335 3.46849 43.2002C4.66849 43.4669 5.60182 44.4002 6.13516 45.4669C6.66849 46.5335 6.66849 47.8669 6.00182 48.9335C5.73516 49.4669 5.73516 50.1335 6.13516 50.5335L8.80182 53.2002C9.20182 53.6002 9.86849 53.7335 10.4018 53.4669C11.0685 53.0669 11.7352 52.9335 12.4018 52.9335C12.9352 52.9335 13.4685 53.0669 13.8685 53.2002C15.0685 53.7335 15.8685 54.6669 16.1352 55.8669C16.2685 56.5335 16.8018 56.9335 17.4685 56.9335H21.2018C21.7352 56.9335 22.2685 56.5335 22.5352 56.0002C22.8018 54.8002 23.7352 53.7335 24.8018 53.3335C26.0018 52.8002 27.2018 52.9335 28.2685 53.6002C28.8018 53.8669 29.4685 53.8669 29.8685 53.4669L32.5352 50.8002C32.9352 50.4002 33.0685 49.7335 32.6685 49.2002C32.0018 48.1335 32.0018 46.8002 32.4018 45.7335C32.9352 44.5335 33.8685 43.7335 35.0685 43.4669C35.7352 43.3335 36.1352 42.8002 36.1352 42.1335V38.4002C36.1352 37.6002 35.7352 37.0669 35.0685 36.9335ZM24.5352 43.8669C24.5352 46.2669 22.9352 48.2669 20.6685 48.8002V51.6002H18.1352V49.0669H14.2685V30.9335H18.1352V28.4002H20.6685V31.2002C22.9352 31.7335 24.5352 33.7335 24.5352 36.1335C24.5352 37.7335 23.8685 39.0669 22.8018 40.0002C23.8685 40.9335 24.5352 42.4002 24.5352 43.8669Z" fill="#FC6C2D"/>
<path d="M43.8672 38.667H46.4005V41.3337H43.8672V38.667Z" fill="white"/>
<path d="M14.2656 5.2002V18.1335H32.2656V5.2002H14.2656ZM29.7323 15.4669H16.799V7.73353H29.7323V15.4669Z" fill="white"/>
<path d="M29.7341 7.7334H16.8008V15.4667H29.7341V7.7334Z" fill="#FC6C2D"/>
<path d="M34.8008 5.2002H37.3341V7.73353H34.8008V5.2002Z" fill="white"/>
<path d="M40 5.2002H50.2667V7.73353H40V5.2002Z" fill="white"/>
<path d="M34.8008 10.2666H50.2674V12.7999H34.8008V10.2666Z" fill="white"/>
<path d="M34.8008 15.4668H50.2674V18.0001H34.8008V15.4668Z" fill="white"/>
<path d="M38.6674 28.4003C40.8008 28.4003 42.5341 26.667 42.5341 24.5337C42.5341 22.4003 40.8008 20.667 38.6674 20.667C36.5341 20.667 34.8008 22.4003 34.8008 24.5337C34.8008 26.667 36.5341 28.4003 38.6674 28.4003ZM38.6674 23.2003C39.3341 23.2003 40.0008 23.7337 40.0008 24.5337C40.0008 25.3337 39.4674 25.867 38.6674 25.867C37.8674 25.867 37.3341 25.3337 37.3341 24.5337C37.3341 23.7337 38.0008 23.2003 38.6674 23.2003Z" fill="white"/>
<path d="M45.1992 24.5337C45.1992 26.667 46.9325 28.4003 49.0659 28.4003C51.1992 28.4003 52.9326 26.667 52.9326 24.5337C52.9326 22.4003 51.1992 20.667 49.0659 20.667C46.9325 20.667 45.1992 22.4003 45.1992 24.5337ZM50.2659 24.5337C50.2659 25.2003 49.7326 25.867 48.9326 25.867C48.2659 25.867 47.5992 25.3337 47.5992 24.5337C47.5992 23.7337 48.1326 23.2003 48.9326 23.2003C49.7326 23.2003 50.2659 23.867 50.2659 24.5337Z" fill="white"/>
<path d="M32.6685 58.4004L19.3352 71.7337L16.4018 68.8004L14.5352 70.6671L19.3352 75.4671L34.4018 60.4004L32.6685 58.4004Z" fill="white"/>
<path d="M33.6008 71.7332L30.6674 68.7999L28.8008 70.6665L33.6008 75.4665L48.6674 60.3999L46.8008 58.5332L33.6008 71.7332Z" fill="white"/>
<path d="M42.9336 70.5337L47.7336 75.3337L62.8003 60.2671L60.9336 58.4004L47.6003 71.7337L44.6669 68.8004L42.9336 70.5337Z" fill="white"/>
</g>
<defs>
<clipPath id="clip0_1956_731">
<rect width="80" height="80" fill="white"/>
</clipPath>
</defs>
</svg>
