<svg width="80" height="80" viewBox="0 0 80 80" fill="none" xmlns="http://www.w3.org/2000/svg">
<g clip-path="url(#clip0_1956_753)">
<path d="M41.4683 7.86621C29.4683 7.99954 20.535 16.2662 18.935 26.9329C18.0017 33.1995 19.735 39.8662 24.4017 45.0662C28.135 49.3329 30.2683 54.3995 30.2683 59.7329H29.335C28.535 59.7329 28.135 60.2662 28.135 60.9329V71.8662C28.135 72.6662 28.6683 73.0662 29.335 73.0662H32.8017C33.4683 76.9329 36.8017 79.9995 40.8017 79.9995C44.8017 79.9995 48.135 77.0662 48.8017 73.0662H52.2683C53.0683 73.0662 53.4683 72.5329 53.4683 71.8662V60.9329C53.4683 60.1329 52.935 59.7329 52.2683 59.7329H51.4683C51.6017 57.8662 51.8683 56.1329 52.4017 54.3995C52.535 53.7329 52.135 53.0662 51.4683 52.9329C50.8017 52.7995 50.135 53.1995 50.0017 53.8662C49.4683 55.8662 49.0683 57.8662 48.935 59.8662H45.6017V52.6662C45.6017 51.8662 45.0683 51.4662 44.4017 51.4662C43.6017 51.4662 43.2017 51.9995 43.2017 52.6662V59.8662H38.6683V52.6662C38.6683 51.8662 38.135 51.4662 37.4683 51.4662C36.6683 51.4662 36.2683 51.9995 36.2683 52.6662V59.8662H32.935C32.935 53.9995 30.535 48.2662 26.4017 43.5995C22.2683 39.0662 20.535 32.9329 21.6017 26.7995C23.0683 17.8662 30.935 10.3995 41.0683 10.3995C52.0017 10.3995 60.935 19.1995 60.935 30.1329C60.935 35.0662 59.2017 39.7329 55.8683 43.3329C54.6683 44.6662 53.4683 46.2662 52.6683 47.9995C52.2683 48.6662 52.535 49.3329 53.2017 49.7329C53.8683 50.1329 54.535 49.8662 54.935 49.1995C55.8683 47.7329 56.8017 46.2662 57.8683 44.9329C61.4683 40.7995 63.6017 35.5995 63.6017 29.9995C63.735 17.5995 53.6017 7.86621 41.4683 7.86621ZM41.0683 77.4662C38.4017 77.4662 36.135 75.5995 35.6017 73.0662H46.535C46.0017 75.5995 43.735 77.4662 41.0683 77.4662ZM30.8017 62.2662H51.335V65.1995H30.8017V62.2662ZM30.8017 67.7329H51.335V70.6662H30.8017V67.7329Z" fill="white"/>
<path d="M46.5344 73.0664C46.001 75.5997 43.7344 77.4664 41.201 77.4664C38.5344 77.4664 36.2677 75.5997 35.7344 73.0664H46.5344Z" fill="#FC6C2D"/>
<path d="M51.3341 67.7334H30.8008V70.6667H51.3341V67.7334Z" fill="#FC6C2D"/>
<path d="M51.3341 62.2666H30.8008V65.1999H51.3341V62.2666Z" fill="#FC6C2D"/>
<path d="M41.0648 22.7998C36.7982 22.7998 33.4648 26.1331 33.4648 30.3998C33.4648 34.6665 36.7982 37.9998 41.0648 37.9998C45.3315 37.9998 48.6648 34.5331 48.6648 30.3998C48.6648 26.1331 45.1982 22.7998 41.0648 22.7998ZM41.0648 35.4665C38.1315 35.4665 35.9982 33.0665 35.9982 30.3998C35.9982 27.4665 38.2648 25.3331 41.0648 25.3331C43.8648 25.3331 46.1315 27.5998 46.1315 30.3998C46.2648 33.1998 43.9982 35.4665 41.0648 35.4665Z" fill="white"/>
<path d="M56.0006 33.3331C55.734 33.1997 53.6006 31.9997 53.734 32.1331L53.6006 31.9997C53.734 30.9331 53.734 29.4664 53.6006 28.6664C53.6006 28.5331 54.0006 28.3997 55.8673 27.3331C57.0673 26.5331 57.6006 24.9331 56.934 23.7331L54.8006 19.9997C54.0006 18.7997 52.4006 18.3997 51.2006 18.9331L48.934 20.1331H48.8006C46.934 18.6664 45.8673 18.6664 45.8673 18.3997V15.7331C45.8673 14.2664 44.8006 13.0664 43.2006 13.0664H38.934C37.4673 13.0664 36.2673 14.1331 36.2673 15.7331C36.2673 18.5331 36.4006 18.3997 36.134 18.5331C34.0006 19.4664 33.334 20.2664 33.2006 20.1331C31.4673 19.1997 30.534 18.1331 28.934 18.6664C28.2673 18.7997 27.734 19.3331 27.334 19.8664L25.0673 23.5997C24.2673 24.7997 24.8006 26.5331 26.134 27.1997L28.4006 28.3997C28.534 28.5331 28.534 28.6664 28.4006 28.5331C28.2673 29.9997 28.2673 30.7997 28.4006 31.9997L26.134 33.1997C24.934 33.9997 24.5339 35.5997 25.0673 36.7997L27.2006 40.3997C28.0006 41.5997 29.6006 42.1331 30.8006 41.4664C33.0673 40.2664 33.0673 40.1331 33.2006 40.2664C35.0673 41.5997 36.134 41.7331 36.134 41.9997V44.6664C36.2673 45.8664 37.334 47.1997 38.934 47.1997H43.2006C44.6673 47.1997 45.8673 46.1331 45.8673 44.5331C46.0006 41.8664 45.734 41.8664 46.0006 41.7331C48.4006 40.6664 48.8006 39.9997 48.934 40.1331L51.2006 41.3331C52.4006 42.1331 54.1339 41.5997 54.8006 40.2664L56.934 36.6664C57.734 35.7331 57.2006 34.1331 56.0006 33.3331ZM54.6673 35.8664C52.534 39.4664 52.6673 39.5997 52.4006 39.4664L50.1339 38.2664C49.2006 37.7331 48.0006 37.7331 47.2006 38.5331C46.534 39.0664 45.8673 39.4664 44.934 39.7331C43.8673 40.1331 43.2006 41.0664 43.2006 42.2664C43.2006 44.6664 43.334 45.0664 43.0673 45.0664C38.934 45.0664 38.6673 45.1997 38.6673 44.9331V42.2664C38.6673 41.1997 38.0006 40.2664 37.0673 39.7331C34.934 38.6664 34.8006 37.8664 33.334 37.8664C32.2673 37.8664 31.734 38.5331 29.8673 39.4664C29.8673 39.4664 29.734 39.4664 29.6006 39.4664C27.6006 35.9997 27.334 35.8664 27.6006 35.5997L29.8673 34.3997C30.8006 33.8664 31.2006 32.9331 31.0673 31.7331C30.9339 30.7997 30.9339 29.9997 31.0673 28.9331C31.2006 27.8664 30.6673 26.7997 29.8673 26.2664L27.6006 25.0664C27.334 24.9331 27.734 24.6664 29.734 21.3331C29.8673 21.0664 30.2673 21.4664 32.134 22.5331C33.0673 23.0664 34.134 23.0664 35.0673 22.2664C35.8673 21.7331 36.534 21.1997 37.334 21.0664C38.4006 20.6664 38.934 19.7331 38.934 18.5331C38.934 16.1331 38.8006 15.7331 39.0673 15.7331C43.2006 15.8664 43.4673 15.5997 43.4673 15.8664V18.5331C43.4673 19.5997 44.134 20.5331 45.0673 21.0664C45.8673 21.4664 46.534 21.8664 47.334 22.2664C48.2673 22.9331 49.334 23.0664 50.2673 22.5331L52.534 21.3331C52.8006 21.1997 52.6673 21.4664 54.8006 24.9331V25.0664L52.534 26.2664C51.6006 26.7997 51.0673 27.8664 51.334 28.9331C51.4673 29.7331 51.4673 30.6664 51.334 31.7331C51.2006 32.7997 51.734 33.7331 52.534 34.3997C54.534 35.5997 54.8006 35.5997 54.6673 35.8664Z" fill="white"/>
<path d="M52.3987 34.3995C51.4653 33.7329 51.0653 32.7995 51.1987 31.7329C51.332 30.6662 51.332 29.7329 51.1987 28.9329C50.932 27.8662 51.5987 26.7995 52.3987 26.2662L54.6653 25.0662V24.9329C52.532 21.4662 52.6653 21.1995 52.3987 21.3329L50.132 22.6662C49.1987 23.1995 48.132 23.0662 47.1987 22.3995C46.3987 21.8662 45.732 21.4662 44.932 21.1995C43.8653 20.6662 43.332 19.7329 43.332 18.6662V15.9995C43.332 15.7329 43.0653 15.9995 38.932 15.8662C38.6653 15.8662 38.7987 16.2662 38.7987 18.6662C38.7987 19.7329 38.132 20.7995 37.1987 21.1995C36.3987 21.4662 35.732 21.9995 34.932 22.3995C33.8653 23.1995 32.7987 23.1995 31.9987 22.6662C30.132 21.5995 29.732 21.1995 29.5987 21.4662C27.5987 24.7995 27.1987 25.0662 27.4653 25.1995L29.732 26.3995C30.6653 26.9329 31.0653 27.9995 30.932 29.0662C30.7987 30.1329 30.7987 30.9329 30.932 31.8662C31.0653 32.9329 30.532 33.9995 29.732 34.5329L27.4653 35.7329C27.1987 35.9995 27.4653 36.1329 29.4653 39.5995C29.5987 39.5995 29.732 39.5995 29.732 39.5995C31.5987 38.5329 32.132 37.9995 33.1987 37.9995C34.6653 37.9995 34.7987 38.9329 36.932 39.8662C37.9987 40.3995 38.532 41.1995 38.532 42.3995V45.0662C38.532 45.3329 38.7987 45.1995 42.932 45.1995C43.1987 45.1995 43.0653 44.7995 43.0653 42.3995C43.0653 41.3329 43.8653 40.2662 44.7987 39.8662C45.732 39.4662 46.3987 39.0662 47.0653 38.6662C47.9987 37.8662 49.1987 37.8662 49.9987 38.3995L52.2653 39.5995C52.532 39.7329 52.3987 39.5995 54.532 35.9995C54.7987 35.5995 54.532 35.5995 52.3987 34.3995ZM41.0653 37.9995C36.7987 37.9995 33.4653 34.6662 33.4653 30.3995C33.4653 26.1329 36.7987 22.7995 41.0653 22.7995C45.332 22.7995 48.6653 26.1329 48.6653 30.3995C48.6653 34.5329 45.1987 37.9995 41.0653 37.9995Z" fill="#FC6C2D"/>
<path d="M38.9336 1.2V4.93333C38.9336 5.73333 39.4669 6.13333 40.1336 6.13333C40.9336 6.13333 41.3336 5.6 41.3336 4.93333V1.2C41.3336 0.4 40.8003 0 40.1336 0C39.4669 0 38.9336 0.533333 38.9336 1.2Z" fill="white"/>
<path d="M25.0683 4.53364C24.4017 4.93364 24.2683 5.60031 24.535 6.26697L26.4017 9.46698C26.8017 10.1336 27.4684 10.267 28.135 10.0003C28.8017 9.46698 29.0683 8.80031 28.6684 8.13364L26.8017 5.06697C26.535 4.40031 25.735 4.13364 25.0683 4.53364Z" fill="white"/>
<path d="M17.9994 19.4668C18.6661 19.8668 19.3327 19.6001 19.7327 18.9334C20.1327 18.2668 19.8661 17.6001 19.1994 17.2001L15.9994 15.3334C15.3327 14.9334 14.6661 15.2001 14.2661 15.8668C13.8661 16.5334 14.1327 17.2001 14.7994 17.6001L17.9994 19.4668Z" fill="white"/>
<path d="M65.2019 14.0004L62.0019 15.8671C61.3353 16.2671 61.2019 16.9338 61.4686 17.6004C61.8686 18.2671 62.5353 18.4004 63.2019 18.1338L66.4019 16.2671C67.0686 15.8671 67.2019 15.2004 66.9353 14.5338C66.6686 13.8671 65.8686 13.6004 65.2019 14.0004Z" fill="white"/>
<path d="M55.4676 3.60005C54.801 3.20005 54.1343 3.46671 53.7343 4.13338L51.8676 7.33338C51.4676 8.00005 51.7343 8.66672 52.401 9.06672C53.0676 9.46672 53.7343 9.20005 54.1343 8.53338L56.001 5.33338C56.401 4.80005 56.1343 4.00005 55.4676 3.60005Z" fill="white"/>
<path d="M67.0659 67.8669C67.5992 68.4002 68.2659 68.4002 68.7992 67.8669C69.3325 67.3335 69.3325 66.6669 68.7992 66.1335L64.1325 61.4669C63.5992 60.9335 62.9325 60.9335 62.3992 61.4669L57.7325 66.1335C57.1992 66.6669 57.1992 67.3335 57.7325 67.8669C58.2659 68.4002 58.9325 68.4002 59.4659 67.8669L61.9992 65.3335V77.4669H52.3992C51.5992 77.4669 51.1992 78.0002 51.1992 78.6669C51.1992 79.4669 51.7325 79.8669 52.3992 79.8669H78.6659C79.4659 79.8669 79.8659 79.3335 79.8659 78.6669C79.8659 77.8669 79.3325 77.4669 78.6659 77.4669H75.0659V57.4669L77.8659 60.2669C78.3992 60.8002 79.0659 60.8002 79.5992 60.2669C80.1325 59.7335 80.1325 59.0669 79.5992 58.5335L74.6659 53.6002C74.1325 53.0669 73.4659 53.0669 72.9326 53.6002L67.9992 58.5335C67.4659 59.0669 67.4659 59.7335 67.9992 60.2669C68.5325 60.8002 69.1992 60.8002 69.7325 60.2669L72.5326 57.4669V77.4669H64.6659V65.4669L67.0659 67.8669Z" fill="white"/>
<path d="M1.20052 77.4669C0.400521 77.4669 0.00052084 78.0002 0.00052084 78.6669C0.00052084 79.4669 0.533854 80.0002 1.20052 80.0002H29.4672C30.2672 80.0002 30.6672 79.4669 30.6672 78.8002C30.6672 78.0002 30.1339 77.6002 29.4672 77.6002H17.7339V65.6002L20.2672 68.1335C20.8005 68.6669 21.4672 68.6669 22.0005 68.1335C22.5339 67.6002 22.5339 66.9335 22.0005 66.4002L17.4672 61.7335C16.9339 61.2002 16.2672 61.2002 15.7339 61.7335L11.0672 66.4002C10.6672 66.8002 10.6672 67.4669 11.0672 68.0002C11.6005 68.5335 12.2672 68.5335 12.8005 68.0002L15.3339 65.4669V77.4669H7.33385V57.4669L10.1339 60.2669C10.6672 60.8002 11.3339 60.8002 11.8672 60.2669C12.4005 59.7335 12.4005 59.0669 11.8672 58.5335L6.93385 53.6002C6.40052 53.0669 5.73385 53.0669 5.20052 53.6002L0.267188 58.5335C-0.266146 59.0669 -0.266146 59.7335 0.267188 60.2669C0.800521 60.8002 1.46719 60.8002 2.00052 60.2669L4.80052 57.4669V77.4669H1.20052Z" fill="white"/>
</g>
<defs>
<clipPath id="clip0_1956_753">
<rect width="80" height="80" fill="white"/>
</clipPath>
</defs>
</svg>
