<svg width="67" height="54" viewBox="0 0 67 54" fill="none" xmlns="http://www.w3.org/2000/svg">
<path d="M50.6492 9.93454C42.0387 9.93454 35.0647 7.71375 35.0647 4.94751V31.4022C35.0647 34.0905 41.9219 36.3113 50.4544 36.3502H50.6492C59.2596 36.3502 66.2336 34.1294 66.2336 31.4022V4.94751C66.2336 7.71375 59.2596 9.93454 50.6492 9.93454Z" fill="url(#paint0_linear_1073_259)"/>
<path d="M66.2336 4.94807C66.2336 7.71431 59.2596 9.9351 50.6492 9.9351C42.0387 9.9351 35.0647 7.71431 35.0647 4.94807C35.0647 2.18183 42.0387 0 50.6492 0C59.2596 0 66.2336 2.22079 66.2336 4.94807Z" fill="#E8E8E8"/>
<path d="M62.6106 4.55771C62.6106 6.31096 57.234 7.71357 50.6496 7.71357C44.0651 7.71357 38.6885 6.31096 38.6885 4.55771C38.6885 2.80446 44.0651 1.40186 50.6496 1.40186C57.234 1.40186 62.6106 2.80446 62.6106 4.55771Z" fill="#50E6FF"/>
<path d="M50.6495 5.29941C47.4541 5.23814 44.2664 5.6317 41.1819 6.46824C44.2523 7.38016 47.4476 7.80094 50.6495 7.715C53.8513 7.80094 57.0466 7.38016 60.117 6.46824C57.0325 5.6317 53.8448 5.23814 50.6495 5.29941Z" fill="#32BEDD"/>
<path d="M15.5845 9.93454C6.97405 9.93454 0 7.71375 0 4.94751V31.4022C0 34.0905 6.85717 36.3113 15.5845 36.3502C24.1949 36.3502 31.1689 34.1294 31.1689 31.4022V4.94751C31.1689 7.71375 24.1949 9.93454 15.5845 9.93454Z" fill="url(#paint1_linear_1073_259)"/>
<path d="M31.1689 4.94807C31.1689 7.71431 24.1949 9.9351 15.5845 9.9351C6.97405 9.9351 0 7.71431 0 4.94807C0 2.18183 6.97405 0 15.5845 0C24.1949 0 31.1689 2.22079 31.1689 4.94807Z" fill="#E8E8E8"/>
<path d="M27.5459 4.55771C27.5459 6.31096 22.1693 7.71357 15.5849 7.71357C9.00042 7.71357 3.62378 6.31096 3.62378 4.55771C3.62378 2.80446 9.00042 1.40186 15.5849 1.40186C22.1693 1.40186 27.5459 2.80446 27.5459 4.55771Z" fill="#50E6FF"/>
<path d="M15.5848 5.29941C12.3894 5.23814 9.20166 5.6317 6.11719 6.46824C9.18762 7.38016 12.3829 7.80094 15.5848 7.715C18.7866 7.80094 21.9819 7.38016 25.0523 6.46824C21.9678 5.6317 18.7801 5.23814 15.5848 5.29941Z" fill="#32BEDD"/>
<path d="M33.1172 27.5845C24.5068 27.5845 17.5327 25.3637 17.5327 22.5975V49.0521C17.5327 51.7794 24.3899 53.9612 32.9224 54.0002H33.1172C41.7276 54.0002 48.7017 51.7794 48.7017 49.0521V22.5975C48.7017 25.3637 41.7276 27.5845 33.1172 27.5845Z" fill="url(#paint2_linear_1073_259)"/>
<path d="M48.7017 22.598C48.7017 25.3643 41.7276 27.5851 33.1172 27.5851C24.5068 27.5851 17.5327 25.3643 17.5327 22.598C17.5327 19.8318 24.5068 17.65 33.1172 17.65C41.7276 17.65 48.7017 19.8708 48.7017 22.598Z" fill="#E8E8E8"/>
<path d="M45.0779 22.2086C45.0779 23.9618 39.7013 25.3644 33.1168 25.3644C26.5324 25.3644 21.1558 23.9618 21.1558 22.2086C21.1558 20.4553 26.5324 19.2086 33.1168 19.2086C39.7013 19.2086 45.0779 20.6112 45.0779 22.3644" fill="#50E6FF"/>
<path d="M33.1167 23.1032C29.9214 23.0419 26.7336 23.4354 23.6492 24.272C26.728 25.1313 29.9231 25.4994 33.1167 25.3629C36.3186 25.4488 39.5139 25.0281 42.5843 24.1161C39.4923 23.3321 36.3046 22.9911 33.1167 23.1032Z" fill="#32BEDD"/>
<defs>
<linearGradient id="paint0_linear_1073_259" x1="35.0647" y1="20.6489" x2="66.2336" y2="20.6489" gradientUnits="userSpaceOnUse">
<stop stop-color="#005BA1"/>
<stop offset="0.07" stop-color="#0060A9"/>
<stop offset="0.36" stop-color="#0071C8"/>
<stop offset="0.52" stop-color="#0078D4"/>
<stop offset="1" stop-color="#005BA1"/>
</linearGradient>
<linearGradient id="paint1_linear_1073_259" x1="0" y1="20.6489" x2="31.1689" y2="20.6489" gradientUnits="userSpaceOnUse">
<stop stop-color="#005BA1"/>
<stop offset="0.07" stop-color="#0060A9"/>
<stop offset="0.36" stop-color="#0071C8"/>
<stop offset="0.52" stop-color="#0078D4"/>
<stop offset="1" stop-color="#005BA1"/>
</linearGradient>
<linearGradient id="paint2_linear_1073_259" x1="17.5327" y1="38.2988" x2="48.7017" y2="38.2988" gradientUnits="userSpaceOnUse">
<stop stop-color="#005BA1"/>
<stop offset="0.07" stop-color="#0060A9"/>
<stop offset="0.36" stop-color="#0071C8"/>
<stop offset="0.52" stop-color="#0078D4"/>
<stop offset="1" stop-color="#005BA1"/>
</linearGradient>
</defs>
</svg>
