<svg width="68" height="68" viewBox="0 0 68 68" fill="none" xmlns="http://www.w3.org/2000/svg">
<path d="M24.4026 16.1012L22.9885 18.7301L39.5747 27.6514L40.9888 25.0226L24.4026 16.1012Z" fill="#003067"/>
<path d="M27.9302 19.3976V11.1735H7.3667V19.3976C7.3667 21.5785 11.9692 23.3574 17.6499 23.3574C23.3307 23.3574 27.9331 21.5907 27.9331 19.3976H27.9302Z" fill="url(#paint0_linear_1073_304)"/>
<path d="M17.6536 15.2618C23.3328 15.2618 27.9369 13.4944 27.9369 11.3142C27.9369 9.13403 23.3328 7.36664 17.6536 7.36664C11.9743 7.36664 7.37036 9.13403 7.37036 11.3142C7.37036 13.4944 11.9743 15.2618 17.6536 15.2618Z" fill="#83B9F9"/>
<path d="M55.4478 32.8493V24.6252H34.8875V32.8493C34.8875 35.0302 39.49 36.8091 45.1706 36.8091C50.8514 36.8091 55.4541 35.0424 55.4541 32.8493H55.4478Z" fill="url(#paint1_linear_1073_304)"/>
<path d="M45.1706 28.7063C50.8501 28.7063 55.4541 26.9389 55.4541 24.7587C55.4541 22.5785 50.8501 20.8112 45.1706 20.8112C39.4915 20.8112 34.8875 22.5785 34.8875 24.7587C34.8875 26.9389 39.4915 28.7063 45.1706 28.7063Z" fill="#83B9F9"/>
<path d="M19.1542 19.3012H16.1692V43.5532H19.1542V19.3012Z" fill="#003067"/>
<path d="M17.7837 20.2941C19.7301 20.2941 21.308 18.7162 21.308 16.7698C21.308 14.8235 19.7301 13.2456 17.7837 13.2456C15.8374 13.2456 14.2595 14.8235 14.2595 16.7698C14.2595 18.7162 15.8374 20.2941 17.7837 20.2941Z" fill="#C3F1FF"/>
<path d="M27.9302 45.6674V37.4432H7.3667V45.6674C7.3667 47.8484 11.9692 49.627 17.6499 49.627C23.3307 49.627 27.9331 47.8605 27.9331 45.6674H27.9302Z" fill="url(#paint2_linear_1073_304)"/>
<path d="M17.6536 41.521C23.3328 41.521 27.9369 39.7536 27.9369 37.5734C27.9369 35.3931 23.3328 33.6257 17.6536 33.6257C11.9743 33.6257 7.37036 35.3931 7.37036 37.5734C7.37036 39.7536 11.9743 41.521 17.6536 41.521Z" fill="#83B9F9"/>
<path d="M45.1522 28.1353L18.5161 41.2074L19.8313 43.8869L46.4672 30.8151L45.1522 28.1353Z" fill="#003067"/>
<path d="M17.6355 46.496C19.5819 46.496 21.1597 44.9181 21.1597 42.9717C21.1597 41.0253 19.5819 39.4476 17.6355 39.4476C15.6892 39.4476 14.1113 41.0253 14.1113 42.9717C14.1113 44.9181 15.6892 46.496 17.6355 46.496Z" fill="#C3F1FF"/>
<path d="M45.1762 33.1209C47.1223 33.1209 48.7002 31.5431 48.7002 29.5967C48.7002 27.6503 47.1223 26.0725 45.1762 26.0725C43.2299 26.0725 41.6519 27.6503 41.6519 29.5967C41.6519 31.5431 43.2299 33.1209 45.1762 33.1209Z" fill="#C3F1FF"/>
<path d="M58.6489 53.8176C58.6412 53.7076 58.6101 53.6001 58.5575 53.5029C58.5048 53.4061 58.4324 53.321 58.3443 53.254C56.898 51.8303 55.3694 50.4929 53.7662 49.2486C52.6343 48.3795 51.3418 47.742 49.9627 47.3732C48.584 47.004 47.146 46.9108 45.7311 47.0984C41.6836 47.8773 38.0638 50.1167 35.5605 53.3911C35.4538 53.5084 35.3913 53.6594 35.3838 53.8176C35.3921 53.9281 35.4235 54.0359 35.476 54.1334C35.5285 54.2311 35.6008 54.3162 35.6884 54.3842C37.1401 55.8068 38.6728 57.1443 40.2788 58.3895C42.5652 60.1429 45.4544 60.9164 48.3109 60.5403C52.3583 59.7606 55.9776 57.5211 58.4814 54.2471C58.5889 54.1287 58.6522 53.9774 58.6613 53.8176H58.6489Z" fill="#003067"/>
<path d="M47.1193 59.444C50.2248 59.444 52.7424 56.9263 52.7424 53.8209C52.7424 50.7155 50.2248 48.1982 47.1193 48.1982C44.0139 48.1982 41.4966 50.7155 41.4966 53.8209C41.4966 56.9263 44.0139 59.444 47.1193 59.444Z" fill="#C3F1FF"/>
<path d="M47.1434 50.7041C46.995 50.7213 46.8485 50.7509 46.7048 50.7926C46.8912 51.0529 46.9972 51.3621 47.0096 51.6819C47.0085 52.133 46.829 52.5653 46.5095 52.8841C46.1905 53.2025 45.7577 53.3816 45.3067 53.3816C44.8911 53.3789 44.4915 53.2214 44.186 52.94C44.0757 53.2327 44.012 53.5409 43.9971 53.8538C43.9963 54.4791 44.1812 55.0907 44.5284 55.6112C44.8753 56.1313 45.3688 56.537 45.9467 56.7769C46.5242 57.0166 47.1602 57.0798 47.7736 56.9581C48.3873 56.8364 48.9509 56.5356 49.3931 56.0934C49.8358 55.6514 50.1373 55.0882 50.2594 54.4748C50.3815 53.8611 50.3194 53.2254 50.08 52.6476C49.8409 52.0697 49.4355 51.5756 48.9154 51.2279C48.3956 50.8806 47.7842 50.695 47.1588 50.695L47.1434 50.7041Z" fill="#003067"/>
<path d="M59.7541 47.64C58.0296 46.0566 56.0408 44.7875 53.8785 43.8901L55.2096 41.5266C55.3866 41.2118 55.4348 40.8406 55.3434 40.4911C55.2736 40.2361 55.1299 40.0074 54.9307 39.8337C54.7315 39.66 54.4852 39.5488 54.2231 39.5144C53.961 39.4799 53.6946 39.5236 53.4573 39.6399C53.2197 39.7561 53.022 39.9399 52.8886 40.1681L51.2587 43.0679C50.3442 42.8483 49.4129 42.7027 48.475 42.6323V39.6625C48.4585 39.3169 48.3093 38.9909 48.059 38.7522C47.8086 38.5134 47.476 38.3802 47.1302 38.3802C46.7841 38.3802 46.4515 38.5134 46.2011 38.7522C45.9507 38.9909 45.8015 39.3169 45.7851 39.6625V42.6293C44.8268 42.6989 43.8753 42.8456 42.9403 43.0679L41.3077 40.1681C41.1273 39.864 40.8345 39.643 40.4925 39.5529C40.1505 39.4629 39.7868 39.511 39.4802 39.6869C39.1802 39.871 38.9626 40.1636 38.8724 40.5038C38.7822 40.844 38.8264 41.2059 38.9957 41.5145C39.4405 42.3004 39.8842 43.0883 40.3269 43.8781C38.1622 44.7747 36.1715 46.0438 34.445 47.6276C33.1597 48.7914 35.0543 50.6738 36.3457 49.5282C39.2682 46.8051 43.1143 45.2909 47.1086 45.2909C51.1034 45.2909 54.9494 46.8051 57.8717 49.5282C59.1356 50.6979 61.0396 48.8035 59.7541 47.64Z" fill="#003067"/>
<defs>
<linearGradient id="paint0_linear_1073_304" x1="17.653" y1="22.209" x2="17.653" y2="12.8823" gradientUnits="userSpaceOnUse">
<stop stop-color="#0078D4"/>
<stop offset="1" stop-color="#5EA0EF"/>
</linearGradient>
<linearGradient id="paint1_linear_1073_304" x1="296.924" y1="153.263" x2="296.924" y2="87.5063" gradientUnits="userSpaceOnUse">
<stop stop-color="#0078D4"/>
<stop offset="1" stop-color="#5EA0EF"/>
</linearGradient>
<linearGradient id="paint2_linear_1073_304" x1="83.6067" y1="204.643" x2="83.6067" y2="163.888" gradientUnits="userSpaceOnUse">
<stop stop-color="#0078D4"/>
<stop offset="1" stop-color="#5EA0EF"/>
</linearGradient>
</defs>
</svg>
