<?xml version="1.0" encoding="utf-8"?>
<!-- Generator: Adobe Illustrator 26.5.0, SVG Export Plug-In . SVG Version: 6.00 Build 0)  -->
<svg version="1.1" id="Layer_1" xmlns="http://www.w3.org/2000/svg" xmlns:xlink="http://www.w3.org/1999/xlink" x="0px" y="0px"
	 width="30px" height="30px" viewBox="0 0 30 30" style="enable-background:new 0 0 30 30;" xml:space="preserve">
<style type="text/css">
	.st0{fill:#03A9F4;}
	.st1{fill:#455A64;}
	.st2{fill:#37474F;}
	.st3{fill:#FFA000;}
	.st4{fill:#0288D1;}
	.st5{fill:#FFFFFF;}
</style>
<g id="Flat">
	<g id="Color">
		<path class="st0" d="M2.16,0h25.68C29.03,0,30,0.97,30,2.16V21.6c0,1.19-0.97,2.16-2.16,2.16H2.16C0.97,23.76,0,22.79,0,21.6V2.16
			C0,0.97,0.97,0,2.16,0z"/>
		<path class="st1" d="M30,19.68v1.92c0,1.19-0.97,2.16-2.16,2.16l0,0H2.16C0.97,23.76,0,22.79,0,21.6l0,0v-1.92H30z"/>
		<path class="st1" d="M7.68,27.36h14.64c0.8,0,1.44,0.64,1.44,1.44v0.48c0,0.4-0.32,0.72-0.72,0.72l0,0H6.96
			c-0.4,0-0.72-0.32-0.72-0.72l0,0V28.8C6.24,28,6.88,27.36,7.68,27.36z"/>
		<path class="st2" d="M19.11,23.76h-8.23c-0.23,1.41-0.96,2.69-2.06,3.6h12.34C20.08,26.45,19.35,25.17,19.11,23.76L19.11,23.76z"
			/>
		<circle class="st2" cx="15" cy="21.72" r="0.48"/>
		<g>
			<path class="st3" d="M19.9,7.17h1.78c0.2,0,0.36-0.16,0.36-0.36c0-0.2-0.16-0.36-0.36-0.36H19.9c-0.2,0-0.36,0.16-0.36,0.36
				C19.54,7,19.7,7.17,19.9,7.17z"/>
			<path class="st3" d="M19.9,10.25h1.78c0.2,0,0.36-0.16,0.36-0.36c0-0.2-0.16-0.36-0.36-0.36H19.9c-0.2,0-0.36,0.16-0.36,0.36
				C19.54,10.09,19.7,10.25,19.9,10.25z"/>
			<path class="st3" d="M19.9,13.33h1.78c0.2,0,0.36-0.16,0.36-0.36c0-0.2-0.16-0.36-0.36-0.36H19.9c-0.2,0-0.36,0.16-0.36,0.36
				C19.54,13.17,19.7,13.33,19.9,13.33z"/>
			<path class="st3" d="M11.56,5.51c0,0.2,0.16,0.36,0.36,0.36c0.2,0,0.36-0.16,0.36-0.36V3.72c0-0.2-0.16-0.36-0.36-0.36
				c-0.2,0-0.36,0.16-0.36,0.36V5.51z"/>
			<path class="st3" d="M15,5.87c0.2,0,0.36-0.16,0.36-0.36V3.72c0-0.2-0.16-0.36-0.36-0.36c-0.2,0-0.36,0.16-0.36,0.36v1.78
				C14.64,5.7,14.8,5.87,15,5.87z"/>
			<path class="st3" d="M18.08,3.36c-0.2,0-0.36,0.16-0.36,0.36v1.78c0,0.2,0.16,0.36,0.36,0.36c0.2,0,0.36-0.16,0.36-0.36V3.72
				C18.44,3.53,18.28,3.36,18.08,3.36z"/>
			<path class="st3" d="M11.56,14.27v1.78c0,0.2,0.16,0.36,0.36,0.36c0.2,0,0.36-0.16,0.36-0.36v-1.78c0-0.2-0.16-0.36-0.36-0.36
				C11.72,13.91,11.56,14.07,11.56,14.27z"/>
			<path class="st3" d="M14.64,16.05c0,0.2,0.16,0.36,0.36,0.36c0.2,0,0.36-0.16,0.36-0.36v-1.78c0-0.2-0.16-0.36-0.36-0.36
				c-0.2,0-0.36,0.16-0.36,0.36V16.05z"/>
			<path class="st3" d="M18.08,13.91c-0.2,0-0.36,0.16-0.36,0.36v1.78c0,0.2,0.16,0.36,0.36,0.36c0.2,0,0.36-0.16,0.36-0.36v-1.78
				C18.44,14.07,18.28,13.91,18.08,13.91z"/>
			<path class="st3" d="M8.32,7.17h1.78c0.2,0,0.36-0.16,0.36-0.36c0-0.2-0.16-0.36-0.36-0.36H8.32c-0.2,0-0.36,0.16-0.36,0.36
				C7.96,7,8.12,7.17,8.32,7.17L8.32,7.17z"/>
			<path class="st3" d="M8.32,10.25h1.78c0.2,0,0.36-0.16,0.36-0.36c0-0.2-0.16-0.36-0.36-0.36H8.32c-0.2,0-0.36,0.16-0.36,0.36
				C7.96,10.09,8.12,10.25,8.32,10.25L8.32,10.25z"/>
			<path class="st3" d="M8.32,13.33h1.78c0.2,0,0.36-0.16,0.36-0.36c0-0.2-0.16-0.36-0.36-0.36H8.32c-0.2,0-0.36,0.16-0.36,0.36
				C7.96,13.17,8.12,13.33,8.32,13.33L8.32,13.33z"/>
		</g>
		<path class="st4" d="M23.76,7.08h2.58c0.3,0,0.58-0.12,0.79-0.34L28.1,5.7c0.14-0.15,0.13-0.37-0.02-0.51
			c-0.15-0.14-0.37-0.13-0.51,0.02L26.6,6.25c-0.07,0.07-0.16,0.11-0.26,0.11h-2.58c-0.2,0-0.36,0.16-0.36,0.36
			C23.4,6.92,23.56,7.08,23.76,7.08L23.76,7.08z"/>
		<path class="st4" d="M23.76,13.32h2.58c0.1,0,0.19,0.04,0.26,0.11l0.98,1.04c0.14,0.15,0.36,0.15,0.51,0.02
			c0.15-0.14,0.15-0.36,0.02-0.51l-0.98-1.04c-0.2-0.22-0.49-0.34-0.79-0.34h-2.58c-0.2,0-0.36,0.16-0.36,0.36
			S23.56,13.32,23.76,13.32L23.76,13.32z"/>
		<path class="st4" d="M23.76,10.2h4.08c0.2,0,0.36-0.16,0.36-0.36s-0.16-0.36-0.36-0.36h-4.08c-0.2,0-0.36,0.16-0.36,0.36
			S23.56,10.2,23.76,10.2z"/>
		<path class="st4" d="M3.4,6.25L2.42,5.21C2.29,5.06,2.06,5.05,1.91,5.19C1.77,5.32,1.76,5.55,1.9,5.7l0.98,1.04
			c0.2,0.22,0.49,0.34,0.79,0.34h2.58c0.2,0,0.36-0.16,0.36-0.36c0-0.2-0.16-0.36-0.36-0.36l0,0H3.66C3.56,6.36,3.47,6.32,3.4,6.25z
			"/>
		<path class="st4" d="M6.24,12.6H3.66c-0.3,0-0.58,0.12-0.79,0.34L1.9,13.98c-0.14,0.14-0.13,0.37,0.01,0.51
			c0.14,0.14,0.37,0.13,0.51-0.01c0,0,0-0.01,0.01-0.01l0.98-1.04c0.07-0.07,0.16-0.11,0.26-0.11h2.58c0.2,0,0.36-0.16,0.36-0.36
			S6.44,12.6,6.24,12.6L6.24,12.6L6.24,12.6z"/>
		<path class="st4" d="M6.24,9.48H2.16c-0.2,0-0.36,0.16-0.36,0.36s0.16,0.36,0.36,0.36h4.08c0.2,0,0.36-0.16,0.36-0.36
			S6.44,9.48,6.24,9.48L6.24,9.48z"/>
		<path class="st2" d="M11.3,5.27h7.39c0.8,0,1.44,0.64,1.44,1.44v6.36c0,0.8-0.64,1.44-1.44,1.44H11.3c-0.8,0-1.44-0.64-1.44-1.44
			V6.71C9.86,5.91,10.51,5.27,11.3,5.27z"/>
		<path class="st5" d="M11.66,12.3c0.2,0,0.36-0.16,0.36-0.36v-1.18h1.85v1.18c0,0.2,0.16,0.36,0.36,0.36c0.2,0,0.36-0.16,0.36-0.36
			V8.97c0.02-0.51-0.25-1-0.7-1.25c-0.59-0.32-1.3-0.32-1.88,0c-0.45,0.25-0.72,0.73-0.7,1.24v2.98
			C11.3,12.14,11.46,12.3,11.66,12.3L11.66,12.3z M12.02,8.96c-0.01-0.25,0.12-0.49,0.35-0.61c0.36-0.19,0.8-0.19,1.16,0
			c0.23,0.12,0.36,0.36,0.35,0.62v1.08h-1.85L12.02,8.96z"/>
		<path class="st5" d="M16.28,11.58c-0.2,0-0.36,0.16-0.36,0.36c0,0.2,0.16,0.36,0.36,0.36h2.05c0.2,0,0.36-0.16,0.36-0.36
			c0-0.2-0.16-0.36-0.36-0.36h-0.67V8.19h0.67c0.2,0,0.36-0.16,0.36-0.36c0-0.2-0.16-0.36-0.36-0.36h-2.05
			c-0.2,0-0.36,0.16-0.36,0.36c0,0.2,0.16,0.36,0.36,0.36h0.67v3.39H16.28z"/>
	</g>
</g>
</svg>
