<?xml version="1.0" encoding="utf-8"?>
<!-- Generator: Adobe Illustrator 26.5.0, SVG Export Plug-In . SVG Version: 6.00 Build 0)  -->
<svg version="1.1" id="Capa_1" xmlns="http://www.w3.org/2000/svg" xmlns:xlink="http://www.w3.org/1999/xlink" x="0px" y="0px"
	 width="30px" height="30px" viewBox="0 0 30 30" style="enable-background:new 0 0 30 30;" xml:space="preserve">
<style type="text/css">
	.st0{fill:#0EA531;}
	.st1{fill:#FFFFFF;}
	.st2{fill:#E6E6E6;}
</style>
<circle class="st0" cx="15" cy="15" r="15"/>
<path class="st1" d="M6.92,11.17L6.92,11.17c-0.76,0-1.38,0.62-1.38,1.38v5.84c0,0.76,0.62,1.38,1.38,1.38l0,0
	c0.76,0,1.38-0.62,1.38-1.38v-5.84C8.3,11.79,7.68,11.17,6.92,11.17z"/>
<path class="st2" d="M23.08,11.17L23.08,11.17c-0.76,0-1.38,0.62-1.38,1.38v5.84c0,0.76,0.62,1.38,1.38,1.38l0,0
	c0.76,0,1.38-0.62,1.38-1.38v-5.84C24.46,11.79,23.84,11.17,23.08,11.17z"/>
<path class="st1" d="M18.4,6.18l1.03-1.71l-0.87-0.52L17.51,5.7c-0.76-0.33-1.59-0.51-2.47-0.51l0,0c-0.88,0-1.72,0.18-2.47,0.51
	L11.5,3.95l-0.87,0.52l1.03,1.71c-1.66,1.07-2.77,2.9-2.85,5h12.44C21.17,9.08,20.06,7.24,18.4,6.18z M12.22,8.81
	c-0.35,0-0.63-0.28-0.63-0.63s0.28-0.63,0.63-0.63s0.63,0.28,0.63,0.63C12.85,8.53,12.57,8.81,12.22,8.81z M17.78,8.81
	c-0.35,0-0.63-0.28-0.63-0.63s0.28-0.63,0.63-0.63s0.63,0.28,0.63,0.63C18.42,8.53,18.13,8.81,17.78,8.81z"/>
<path class="st2" d="M18.4,6.18l1.03-1.71l-0.87-0.52L17.51,5.7c-0.76-0.33-1.59-0.51-2.47-0.51l0,0h-0.01v5.99h6.23
	C21.17,9.08,20.06,7.24,18.4,6.18z M17.78,8.81c-0.35,0-0.63-0.28-0.63-0.63c0-0.35,0.28-0.63,0.63-0.63s0.63,0.28,0.63,0.63
	C18.42,8.53,18.13,8.81,17.78,8.81z"/>
<path class="st1" d="M8.78,21.82h2.46v3.09c0,0.76,0.62,1.38,1.38,1.38l0,0c0.76,0,1.38-0.62,1.38-1.38v-3.09h1.92v3.09
	c0,0.76,0.62,1.38,1.38,1.38l0,0c0.76,0,1.38-0.62,1.38-1.38v-3.09h2.53V12.1H8.78V21.82z"/>
<path class="st2" d="M15.02,12.1v9.72h0.91v3.09c0,0.76,0.62,1.38,1.38,1.38l0,0c0.76,0,1.38-0.62,1.38-1.38v-3.09h2.53V12.1H15.02z
	"/>
</svg>
