<?xml version="1.0" encoding="utf-8"?>
<!-- Generator: Adobe Illustrator 26.5.0, SVG Export Plug-In . SVG Version: 6.00 Build 0)  -->
<svg version="1.1" id="Capa_1" xmlns="http://www.w3.org/2000/svg" xmlns:xlink="http://www.w3.org/1999/xlink" x="0px" y="0px"
	 width="30px" height="30px" viewBox="0 0 30 30" style="enable-background:new 0 0 30 30;" xml:space="preserve">
<style type="text/css">
	.st0{fill:#FE6A16;}
	.st1{fill:#E53F05;}
	.st2{fill:#23272B;}
	.st3{fill:#414952;}
	.st4{fill:#B5EFFF;}
	.st5{fill:#80DBFF;}
	.st6{fill:#636978;}
	.st7{fill:#FFCE00;}
	.st8{fill:#7584F2;}
	.st9{fill:#4AB8F7;}
</style>
<g>
	<g>
		<g>
			<g>
				<g>
					<g>
						<g>
							<circle class="st0" cx="15" cy="15" r="15"/>
						</g>
					</g>
				</g>
			</g>
		</g>
	</g>
	<path class="st1" d="M30,15c0-0.46-0.02-0.91-0.06-1.35l-2.99-2.99l-8.77-2.81l-1.9,0.73l7.53,7.53l-0.32,0.56L13.72,6.9
		l-8.66,5.79l-2.19,3.98l3.13,3.13l-1.7,0.96l9.16,9.16C13.96,29.97,14.48,30,15,30C23.28,30,30,23.28,30,15z"/>
	<g>
		<path class="st2" d="M26.95,10.66L18.77,6.9h-2.48v1.68h1.99l3.35,3.21L26.95,10.66z"/>
	</g>
	<g>
		<path class="st3" d="M3.05,10.66l8.19-3.76h2.48v1.68h-1.99l-3.35,3.21L3.05,10.66z"/>
	</g>
	<g>
		<path class="st4" d="M3.07,13.23l0.54,6.04c0.11,1.27,1.17,2.24,2.44,2.24h5.14c1.27,0,2.33-0.97,2.44-2.24l0.15-2.29
			c0.06-0.63,0.59-1.12,1.22-1.12c0.64,0,1.17,0.49,1.22,1.12l0.15,2.29c0.11,1.27,1.17,2.24,2.44,2.24h5.14
			c1.27,0,2.33-0.97,2.44-2.24l0.54-6.04l-9.71-0.37L3.07,13.23z"/>
	</g>
	<g>
		<path class="st5" d="M17.24,12.86l-2.26,0.06v2.94c0.01,0,0.02,0,0.03,0c0.64,0,1.17,0.49,1.22,1.12l0.15,2.29
			c0.11,1.27,1.17,2.24,2.44,2.24h5.14c1.27,0,2.33-0.97,2.44-2.24l0.54-6.04L17.24,12.86z"/>
	</g>
	<g>
		<path class="st6" d="M3.07,10.66h23.89v2.57H3.07L3.07,10.66z"/>
	</g>
	<g>
		<path class="st3" d="M14.98,10.66h11.97v2.57H14.98V10.66z"/>
	</g>
	<g>
		<path class="st7" d="M5.66,14.08h2.8v2.59h-2.8L5.66,14.08z"/>
	</g>
	<g>
		<path class="st8" d="M2.86,14.08h3.58v2.59H2.86V14.08z"/>
	</g>
	<g>
		<path class="st9" d="M21.24,19.12l2.54-2.54l1.24,1.24l-2.54,2.54L21.24,19.12z"/>
	</g>
	<g>
		<path class="st9" d="M18.65,17.77l3.78-3.78l1.24,1.24l-3.78,3.78L18.65,17.77z"/>
	</g>
</g>
</svg>
