<?xml version="1.0" encoding="utf-8"?>
<!-- Generator: Adobe Illustrator 26.5.0, SVG Export Plug-In . SVG Version: 6.00 Build 0)  -->
<svg version="1.1" id="Layer_1" xmlns="http://www.w3.org/2000/svg" xmlns:xlink="http://www.w3.org/1999/xlink" x="0px" y="0px"
	 width="30px" height="30px" viewBox="0 0 30 30" style="enable-background:new 0 0 30 30;" xml:space="preserve">
<style type="text/css">
	.st0{fill-rule:evenodd;clip-rule:evenodd;fill:#464F5D;}
	.st1{fill-rule:evenodd;clip-rule:evenodd;fill:#BDC3C7;}
	.st2{fill-rule:evenodd;clip-rule:evenodd;fill:#65DDB9;}
	.st3{fill-rule:evenodd;clip-rule:evenodd;fill:#3B97D3;}
	.st4{fill-rule:evenodd;clip-rule:evenodd;fill:#FF5364;}
	.st5{fill-rule:evenodd;clip-rule:evenodd;fill:#DF4D60;}
	.st6{fill-rule:evenodd;clip-rule:evenodd;fill:#F0C419;}
</style>
<g id="Page-1">
	<g id="_x30_05---Coding-Thinking">
		<path id="Path" class="st0" d="M1.55,2.07H15v25.86H1.55C0.69,27.93,0,27.24,0,26.38V3.62C0,2.76,0.69,2.07,1.55,2.07z"/>
		<path id="Rectangle" class="st1" d="M16.03,1.03v27.93c0,0.57-0.46,1.03-1.03,1.03l0,0c-0.57,0-1.03-0.46-1.03-1.03V1.03
			C13.97,0.46,14.43,0,15,0l0,0C15.57,0,16.03,0.46,16.03,1.03z"/>
		<g>
			<path id="Path_00000151538996295972360150000000405371342409471671_" class="st2" d="M2.07,7.76c-0.22,0-0.42-0.14-0.49-0.35
				c-0.07-0.21,0-0.44,0.18-0.58l1.52-1.14L1.76,4.55c-0.23-0.17-0.27-0.5-0.1-0.72c0.17-0.23,0.5-0.27,0.72-0.1l2.07,1.55
				c0.13,0.1,0.21,0.25,0.21,0.41S4.58,6.01,4.45,6.1L2.38,7.66C2.29,7.72,2.18,7.76,2.07,7.76z"/>
			<path id="Path_00000022549331511800836260000018405793943280199578_" class="st2" d="M8.28,7.76H6.21
				c-0.29,0-0.52-0.23-0.52-0.52s0.23-0.52,0.52-0.52h2.07c0.29,0,0.52,0.23,0.52,0.52S8.56,7.76,8.28,7.76z"/>
			<path id="Path_00000071553401000956845450000014325266833792740499_" class="st2" d="M3.62,10.86H2.07
				c-0.29,0-0.52-0.23-0.52-0.52s0.23-0.52,0.52-0.52h1.55c0.29,0,0.52,0.23,0.52,0.52S3.91,10.86,3.62,10.86z"/>
			<path id="Path_00000036961424107973116870000005776569546324994213_" class="st2" d="M3.62,12.93H2.07
				c-0.29,0-0.52-0.23-0.52-0.52c0-0.29,0.23-0.52,0.52-0.52h1.55c0.29,0,0.52,0.23,0.52,0.52C4.14,12.7,3.91,12.93,3.62,12.93z"/>
			<path id="Path_00000020369545124454160940000018344889258484194707_" class="st2" d="M3.62,15H2.07c-0.29,0-0.52-0.23-0.52-0.52
				s0.23-0.52,0.52-0.52h1.55c0.29,0,0.52,0.23,0.52,0.52S3.91,15,3.62,15z"/>
			<path id="Path_00000173134121205734431730000017857427429982271423_" class="st2" d="M3.62,17.07H2.07
				c-0.29,0-0.52-0.23-0.52-0.52s0.23-0.52,0.52-0.52h1.55c0.29,0,0.52,0.23,0.52,0.52S3.91,17.07,3.62,17.07z"/>
			<path id="Path_00000111152685640813115980000001677889259427519654_" class="st2" d="M3.62,19.14H2.07
				c-0.29,0-0.52-0.23-0.52-0.52c0-0.29,0.23-0.52,0.52-0.52h1.55c0.29,0,0.52,0.23,0.52,0.52C4.14,18.91,3.91,19.14,3.62,19.14z"/>
			<path id="Path_00000128443658225585007830000011950780076207687313_" class="st2" d="M3.62,21.21H2.07
				c-0.29,0-0.52-0.23-0.52-0.52c0-0.29,0.23-0.52,0.52-0.52h1.55c0.29,0,0.52,0.23,0.52,0.52C4.14,20.98,3.91,21.21,3.62,21.21z"/>
			<path id="Path_00000170254215051621012400000015980536602787216813_" class="st2" d="M3.62,23.28H2.07
				c-0.29,0-0.52-0.23-0.52-0.52c0-0.29,0.23-0.52,0.52-0.52h1.55c0.29,0,0.52,0.23,0.52,0.52C4.14,23.04,3.91,23.28,3.62,23.28z"/>
			<path id="Path_00000178189608599356496110000003445297460157330572_" class="st2" d="M3.62,25.34H2.07
				c-0.29,0-0.52-0.23-0.52-0.52s0.23-0.52,0.52-0.52h1.55c0.29,0,0.52,0.23,0.52,0.52S3.91,25.34,3.62,25.34z"/>
			<path id="Path_00000086674300945688241040000017417477014275088274_" class="st2" d="M11.9,10.86H5.69
				c-0.29,0-0.52-0.23-0.52-0.52S5.4,9.83,5.69,9.83h6.21c0.29,0,0.52,0.23,0.52,0.52S12.18,10.86,11.9,10.86z"/>
			<path id="Path_00000144323469452966855900000004796258354364797368_" class="st2" d="M10.86,12.93H6.72
				c-0.29,0-0.52-0.23-0.52-0.52c0-0.29,0.23-0.52,0.52-0.52h4.14c0.29,0,0.52,0.23,0.52,0.52C11.38,12.7,11.15,12.93,10.86,12.93z"
				/>
			<path id="Path_00000111882449002258950040000017659902855460906903_" class="st2" d="M11.9,15H5.69c-0.29,0-0.52-0.23-0.52-0.52
				s0.23-0.52,0.52-0.52h6.21c0.29,0,0.52,0.23,0.52,0.52S12.18,15,11.9,15z"/>
			<path id="Path_00000071538154163729555190000005436341901106365373_" class="st2" d="M10.86,17.07H6.72
				c-0.29,0-0.52-0.23-0.52-0.52s0.23-0.52,0.52-0.52h4.14c0.29,0,0.52,0.23,0.52,0.52S11.15,17.07,10.86,17.07z"/>
			<path id="Path_00000114055215769613161240000017076857231340406699_" class="st2" d="M11.9,19.14H5.69
				c-0.29,0-0.52-0.23-0.52-0.52c0-0.29,0.23-0.52,0.52-0.52h6.21c0.29,0,0.52,0.23,0.52,0.52C12.41,18.91,12.18,19.14,11.9,19.14z"
				/>
			<path id="Path_00000106132899040048254450000006384494758063619761_" class="st2" d="M10.86,21.21H6.72
				c-0.29,0-0.52-0.23-0.52-0.52c0-0.29,0.23-0.52,0.52-0.52h4.14c0.29,0,0.52,0.23,0.52,0.52C11.38,20.98,11.15,21.21,10.86,21.21z
				"/>
			<path id="Path_00000029763613024561885400000000411574280987233454_" class="st2" d="M11.9,23.28H5.69
				c-0.29,0-0.52-0.23-0.52-0.52c0-0.29,0.23-0.52,0.52-0.52h6.21c0.29,0,0.52,0.23,0.52,0.52C12.41,23.04,12.18,23.28,11.9,23.28z"
				/>
			<path id="Path_00000115490959986171895630000010177580600175055546_" class="st2" d="M10.86,25.34H6.72
				c-0.29,0-0.52-0.23-0.52-0.52s0.23-0.52,0.52-0.52h4.14c0.29,0,0.52,0.23,0.52,0.52S11.15,25.34,10.86,25.34z"/>
		</g>
		<path id="Path_00000141439245995649425220000009111238686175272072_" class="st3" d="M25.34,4.66h-4.4
			c-0.29,0-0.52-0.23-0.52-0.52c0-0.29,0.23-0.52,0.52-0.52h4.4c0.29,0,0.52-0.23,0.52-0.52V1.03c0-0.29,0.23-0.52,0.52-0.52
			c0.29,0,0.52,0.23,0.52,0.52V3.1C26.9,3.96,26.2,4.66,25.34,4.66z"/>
		<path id="Path_00000049905969178616959380000015764646647456195000_" class="st3" d="M26.38,29.74c-0.29,0-0.52-0.23-0.52-0.52
			V26.9c0-0.29-0.23-0.52-0.52-0.52h-3.1c-0.29,0-0.52-0.23-0.52-0.52s0.23-0.52,0.52-0.52h3.1c0.86,0,1.55,0.69,1.55,1.55v2.33
			c0,0.14-0.05,0.27-0.15,0.37S26.52,29.74,26.38,29.74z"/>
		<path id="Path_00000119093740476861734160000005960994197098583433_" class="st3" d="M28.97,26.9c-0.29,0-0.52-0.23-0.52-0.52
			v-1.55c0-0.29-0.23-0.52-0.52-0.52h-3.62c-0.29,0-0.52-0.23-0.52-0.52s0.23-0.52,0.52-0.52h3.62c0.86,0,1.55,0.69,1.55,1.55v1.55
			C29.48,26.66,29.25,26.9,28.97,26.9z"/>
		<path id="Path_00000036250984215124004370000008008451421447884700_" class="st3" d="M27.93,6.72H22.6
			c-0.29,0-0.52-0.23-0.52-0.52c0-0.29,0.23-0.52,0.52-0.52h5.33c0.29,0,0.52-0.23,0.52-0.52V3.34c0-0.29,0.23-0.52,0.52-0.52
			c0.29,0,0.52,0.23,0.52,0.52v1.84C29.48,6.03,28.79,6.72,27.93,6.72z"/>
		<path id="Path_00000181773008556204800760000014611371133055705017_" class="st4" d="M27.58,17.94c0.23,0.4,0.35,0.85,0.35,1.31
			c0,1.41-1.09,2.58-2.5,2.69c0.22,0.42,0.34,0.89,0.34,1.37c0,0.79-0.31,1.55-0.87,2.1c-0.56,0.56-1.31,0.87-2.1,0.87
			c-0.65,1.54-2.29,2.42-3.93,2.09c-1.64-0.33-2.82-1.77-2.83-3.44V4.11c0,0,0-3.94,5.14-0.78c0.42,0.26,0.87,0.56,1.37,0.93
			l0.01,0.01c0.02,0.01,0.04,0.02,0.06,0.03c0.93,0.36,1.54,1.26,1.54,2.26c0,0.09-0.01,0.19-0.02,0.28
			c-0.04,0.38-0.18,0.74-0.38,1.06c-0.01,0.01-0.01,0.01-0.01,0.02c1.74,0.07,3.11,1.5,3.11,3.24c0,0.29-0.04,0.59-0.12,0.87
			c0.73,0.64,1.16,1.55,1.2,2.52s-0.34,1.91-1.02,2.6l0.01,0.01C27.19,17.37,27.42,17.64,27.58,17.94L27.58,17.94z"/>
		<path id="Path_00000182506499129083964440000012715326202166759602_" class="st5" d="M24.13,6.83c-0.04,0.38-0.18,0.74-0.38,1.06
			c-1.64,0.21-2.87,1.61-2.87,3.26c0,0.29-0.23,0.52-0.52,0.52c-0.29,0-0.52-0.23-0.52-0.52C19.84,8.77,21.76,6.85,24.13,6.83z"/>
		<path id="Path_00000152948021050472296800000003571661618674187913_" class="st5" d="M27.58,17.94c-0.9,0.71-2.02,1.09-3.17,1.09
			c-0.29,0-0.52-0.23-0.52-0.52c0-0.29,0.23-0.52,0.52-0.52c0.9,0,1.79-0.29,2.5-0.84C27.19,17.37,27.42,17.64,27.58,17.94
			L27.58,17.94z"/>
		<path id="Path_00000169545807165349573740000008104153257800775822_" class="st5" d="M22.6,4.29c-0.16-0.04-0.33-0.06-0.5-0.06
			c-1.28,0-2.31,1.04-2.31,2.31c0,0.29-0.23,0.52-0.52,0.52c-0.29,0-0.52-0.23-0.52-0.52c0-1.49,0.98-2.8,2.41-3.21
			c0.42,0.26,0.87,0.56,1.37,0.93l0.01,0.01C22.56,4.27,22.58,4.28,22.6,4.29L22.6,4.29z"/>
		<path id="Path_00000098182891833006040040000013535158294811889024_" class="st5" d="M23.55,17.05c0.02,0,0.04,0,0.06,0
			c0.27,0,0.5-0.22,0.52-0.49c0.01-0.27-0.19-0.51-0.46-0.54c-0.71-0.08-1.32-0.56-1.58-1.23c1.82-0.43,3.11-2.05,3.12-3.92
			c0-0.29-0.23-0.52-0.52-0.52s-0.52,0.23-0.52,0.52c0,1.21-0.73,2.3-1.85,2.77c-1.12,0.46-2.41,0.21-3.27-0.65
			c-0.2-0.2-0.53-0.19-0.73,0.01c-0.2,0.2-0.2,0.52-0.01,0.73c0.72,0.72,1.69,1.14,2.71,1.17C21.35,16.06,22.35,16.91,23.55,17.05
			L23.55,17.05z"/>
		<path id="Path_00000036960896542010907010000014711246970466383244_" class="st5" d="M23.6,21.98c-0.19,0-0.38,0.02-0.57,0.05
			c0-0.02,0-0.05,0-0.07c0-2.08-1.68-3.76-3.76-3.76c-0.29,0-0.52,0.23-0.52,0.52c0,0.29,0.23,0.52,0.52,0.52
			c1.51,0,2.73,1.22,2.73,2.73c0,0.13-0.01,0.27-0.03,0.4c-1.3,0.63-2.13,1.94-2.13,3.38c0,0.29,0.23,0.52,0.52,0.52
			c0.29,0,0.52-0.23,0.52-0.52c0-1.51,1.22-2.73,2.73-2.73c0.29,0,0.52-0.23,0.52-0.52C24.12,22.21,23.89,21.98,23.6,21.98z"/>
		<path id="Path_00000059277240040896780390000015043889037102261127_" class="st5" d="M17.66,10.6c0,0.29-0.23,0.52-0.52,0.52
			c-0.61,0-1.11,0.5-1.11,1.11V10.4c0.33-0.21,0.72-0.32,1.11-0.32C17.43,10.09,17.66,10.32,17.66,10.6L17.66,10.6z"/>
		<path id="Path_00000061470845036150644430000002495630974006317462_" class="st5" d="M19.55,21.42c0,0.29-0.23,0.52-0.52,0.52
			c-1.65,0-3,1.34-3,2.99v-2.68c0.76-0.86,1.85-1.35,3-1.34C19.32,20.9,19.55,21.13,19.55,21.42L19.55,21.42z"/>
		<circle id="Oval" class="st6" cx="26.38" cy="1.03" r="1.03"/>
		<circle id="Oval_00000122701445388662901090000000078199801718023059_" class="st6" cx="28.97" cy="3.62" r="1.03"/>
		<circle id="Oval_00000014614167363791666680000016531306813343662526_" class="st6" cx="26.38" cy="28.97" r="1.03"/>
		<circle id="Oval_00000096053873974579642030000005093132784937884568_" class="st6" cx="28.97" cy="26.38" r="1.03"/>
	</g>
</g>
</svg>
