<?xml version="1.0" encoding="utf-8"?>
<!-- Generator: Adobe Illustrator 26.5.0, SVG Export Plug-In . SVG Version: 6.00 Build 0)  -->
<svg version="1.1" id="Layer_1" xmlns="http://www.w3.org/2000/svg" xmlns:xlink="http://www.w3.org/1999/xlink" x="0px" y="0px"
	 width="30px" height="30px" viewBox="0 0 30 30" style="enable-background:new 0 0 30 30;" xml:space="preserve">
<style type="text/css">
	.st0{fill:#27498C;}
	.st1{fill:#1F3F66;}
	.st2{fill:#5DC691;}
	.st3{fill:#E59135;}
	.st4{fill:#F29D35;}
	.st5{fill:#D88635;}
</style>
<g id="FLAT">
	<path class="st0" d="M22.76,6.2l-0.59,0c-0.57-3.96-4.24-6.71-8.2-6.14c-3.19,0.46-5.7,2.97-6.14,6.17
		c-2.84-0.32-5.4,1.71-5.73,4.55s1.71,5.4,4.55,5.73c0.19,0.02,0.39,0.03,0.59,0.03h15.52c2.86,0,5.17-2.32,5.17-5.17
		S25.62,6.2,22.76,6.2z"/>
	<path class="st1" d="M22.22,6.75c-0.02-0.34-0.07-0.69-0.14-1.03c-2.86,0.35-5.01,2.77-5.01,5.65h1.03
		C18.11,9.01,19.88,7.02,22.22,6.75z"/>
	<path class="st1" d="M7.31,6.2C7.26,6.54,7.24,6.89,7.24,7.23c0,1.59,0.48,3.13,1.39,4.43l0.85-0.59c-0.79-1.13-1.21-2.47-1.2-3.84
		c0-0.31,0.02-0.61,0.06-0.92C8,6.25,7.66,6.21,7.31,6.2z"/>
	<g>
		<path class="st2" d="M14.48,13.44h1.03v7.76h-1.03V13.44z"/>
		<path class="st2" d="M23.43,23.63l-6.36-6.36v-3.83h1.03v3.41l6.06,6.06L23.43,23.63z"/>
		<path class="st2" d="M7.09,23.12l-0.73-0.73l5.54-5.54v-3.41h1.03v3.83L7.09,23.12z"/>
	</g>
	<path class="st3" d="M22.76,22.23v6.21c0,0.86,1.62,1.55,3.62,1.55S30,29.3,30,28.44v-6.21H22.76z"/>
	<ellipse class="st4" cx="26.38" cy="22.23" rx="3.62" ry="1.55"/>
	<path class="st5" d="M26.38,26.89c-2,0-3.62-0.69-3.62-1.55v3.1c0,0.86,1.62,1.55,3.62,1.55S30,29.3,30,28.44v-3.1
		C30,26.2,28.38,26.89,26.38,26.89z"/>
	<path class="st3" d="M11.38,22.23v6.21c0,0.86,1.62,1.55,3.62,1.55s3.62-0.69,3.62-1.55v-6.21H11.38z"/>
	<ellipse class="st4" cx="15" cy="22.23" rx="3.62" ry="1.55"/>
	<path class="st5" d="M15,26.89c-2,0-3.62-0.69-3.62-1.55v3.1c0,0.86,1.62,1.55,3.62,1.55s3.62-0.69,3.62-1.55v-3.1
		C18.62,26.2,17,26.89,15,26.89z"/>
	<path class="st3" d="M0,22.23v6.21c0,0.86,1.62,1.55,3.62,1.55s3.62-0.69,3.62-1.55v-6.21H0z"/>
	<ellipse class="st4" cx="3.62" cy="22.23" rx="3.62" ry="1.55"/>
	<path class="st5" d="M3.62,26.89c-2,0-3.62-0.69-3.62-1.55v3.1c0,0.86,1.62,1.55,3.62,1.55s3.62-0.69,3.62-1.55v-3.1
		C7.24,26.2,5.62,26.89,3.62,26.89z"/>
</g>
</svg>
