<?xml version="1.0" encoding="utf-8"?>
<!-- Generator: Adobe Illustrator 26.5.0, SVG Export Plug-In . SVG Version: 6.00 Build 0)  -->
<svg version="1.1" id="Layer_1" xmlns="http://www.w3.org/2000/svg" xmlns:xlink="http://www.w3.org/1999/xlink" x="0px" y="0px"
	 width="30px" height="30px" viewBox="0 0 30 30" style="enable-background:new 0 0 30 30;" xml:space="preserve">
<style type="text/css">
	.st0{fill:#A8EBFA;}
	.st1{fill:#76E2F8;}
	.st2{fill:#5A69E6;}
	.st3{fill:#7984EB;}
	.st4{fill:#979FEF;}
	.st5{fill:#B5BAF3;}
</style>
<path class="st0" d="M8.5,18.84c-0.14,0-0.29-0.04-0.43-0.11c-0.42-0.24-0.58-0.77-0.34-1.19l3.44-6.25
	c0.24-0.42,0.77-0.58,1.19-0.34c0.42,0.24,0.58,0.77,0.34,1.19l-3.44,6.25C9.11,18.68,8.81,18.84,8.5,18.84z"/>
<path class="st1" d="M21.5,18.84c-0.31,0-0.61-0.16-0.77-0.45l-3.44-6.25c-0.24-0.42-0.08-0.96,0.34-1.19
	c0.42-0.24,0.96-0.08,1.19,0.34l3.44,6.25c0.24,0.42,0.08,0.96-0.34,1.19C21.79,18.81,21.64,18.84,21.5,18.84z"/>
<path class="st0" d="M19.39,22.09c0,0.49-0.39,0.88-0.88,0.88h-7.03c-0.49,0-0.88-0.39-0.88-0.88c0-0.49,0.39-0.88,0.88-0.88h7.03
	C19.01,21.21,19.39,21.6,19.39,22.09z"/>
<path class="st1" d="M19.39,22.09c0,0.49-0.39,0.88-0.88,0.88H15v-1.76h3.52C19.01,21.21,19.39,21.6,19.39,22.09z"/>
<path class="st2" d="M29.88,19.52l-3.01-0.07l-3.08,3.52l-1.76,3.43l1.76,3.6c0.16,0,0.3-0.04,0.44-0.12l5.35-3.13
	c0.04-0.02,0.07-0.05,0.11-0.07C29.88,26.5,30,26.24,30,25.99v-6.03C30,19.8,29.96,19.65,29.88,19.52z"/>
<path class="st3" d="M20.71,19.45l-2.95,0.07c-0.09,0.14-0.12,0.28-0.12,0.44v6.03c0,0.25,0.12,0.51,0.32,0.69
	c0.04,0.02,5.4,3.2,5.4,3.2c0.14,0.09,0.28,0.12,0.44,0.12v-7.03L20.71,19.45z"/>
<path class="st4" d="M29.88,19.52l-6.09,3.45l-6.03-3.45c0.02-0.02,0.04-0.05,0.05-0.07c0.07-0.11,0.16-0.18,0.26-0.25l5.27-3.15
	c0.14-0.09,0.3-0.12,0.44-0.12s0.3,0.04,0.44,0.12l5.33,3.15c0.11,0.07,0.19,0.16,0.26,0.25C29.84,19.47,29.86,19.51,29.88,19.52z"
	/>
<path class="st2" d="M12.24,19.52l-2.95-0.07l-3.08,3.52L4.45,26.4L6.21,30c0.16,0,0.3-0.04,0.44-0.12l5.29-3.13
	c0.04-0.02,0.07-0.05,0.11-0.07c0.19-0.18,0.32-0.44,0.32-0.69v-6.03C12.36,19.8,12.33,19.65,12.24,19.52z"/>
<path class="st3" d="M3.13,19.45l-3.01,0.07C0.04,19.66,0,19.8,0,19.96v6.03c0,0.25,0.12,0.51,0.32,0.69
	c0.04,0.02,5.46,3.2,5.46,3.2C5.91,29.96,6.05,30,6.21,30v-7.03L3.13,19.45z"/>
<path class="st5" d="M12.24,19.52l-6.03,3.45l-6.09-3.45c0.02-0.02,0.04-0.05,0.05-0.07c0.07-0.11,0.16-0.18,0.26-0.25l5.33-3.15
	c0.14-0.09,0.3-0.12,0.44-0.12s0.3,0.04,0.44,0.12l5.27,3.15c0.11,0.07,0.19,0.16,0.26,0.25C12.21,19.47,12.22,19.51,12.24,19.52z"
	/>
<path class="st2" d="M21.03,3.64l-2.95-0.07L15,7.09l-1.76,3.43l1.76,3.6c0.16,0,0.3-0.04,0.44-0.12l5.29-3.13
	c0.04-0.02,0.07-0.05,0.11-0.07c0.19-0.18,0.32-0.44,0.32-0.69V4.08C21.15,3.93,21.12,3.77,21.03,3.64z"/>
<path class="st3" d="M11.92,3.57L8.97,3.64C8.88,3.79,8.85,3.93,8.85,4.08v6.03c0,0.25,0.12,0.51,0.32,0.69
	c0.04,0.02,5.4,3.2,5.4,3.2c0.14,0.09,0.28,0.12,0.44,0.12V7.09L11.92,3.57z"/>
<path class="st5" d="M21.03,3.64L15,7.09L8.97,3.64c0.02-0.02,0.04-0.05,0.05-0.07C9.09,3.47,9.18,3.4,9.29,3.33l5.27-3.21
	C14.7,0.04,14.86,0,15,0s0.3,0.04,0.44,0.12l5.27,3.21c0.11,0.07,0.19,0.16,0.26,0.25C20.99,3.59,21.01,3.63,21.03,3.64z"/>
<path class="st4" d="M21.03,3.64L15,7.09V0c0.14,0,0.3,0.04,0.44,0.12l5.27,3.21c0.11,0.07,0.19,0.16,0.26,0.25
	C20.99,3.59,21.01,3.63,21.03,3.64z"/>
</svg>
