<?xml version="1.0" encoding="utf-8"?>
<!-- Generator: Adobe Illustrator 26.5.0, SVG Export Plug-In . SVG Version: 6.00 Build 0)  -->
<svg version="1.1" id="Layer_1" xmlns="http://www.w3.org/2000/svg" xmlns:xlink="http://www.w3.org/1999/xlink" x="0px" y="0px"
	 width="30px" height="30px" viewBox="0 0 30 30" style="enable-background:new 0 0 30 30;" xml:space="preserve">
<style type="text/css">
	.st0{fill:#0F9BE8;}
	.st1{fill:#65B2FF;}
	.st2{fill:#FFFFFF;}
	.st3{fill:#20273A;}
	.st4{fill:#FF3445;}
	.st5{opacity:0.11;}
	.st6{fill:#313B5A;}
</style>
<g>
	<g>
		<circle class="st0" cx="15" cy="15" r="15"/>
	</g>
</g>
<g>
	<g>
		<path class="st1" d="M27.72,7.05C25.07,11.28,20.36,14.1,15,14.1S4.93,11.28,2.28,7.05C4.92,2.82,9.64,0,15,0
			S25.07,2.82,27.72,7.05z"/>
	</g>
</g>
<g>
	<g>
		<g>
			<g>
				<path class="st2" d="M22.72,13.37v9.64c0,0.6-0.49,1.09-1.09,1.09H7.55c-0.6,0-1.09-0.49-1.09-1.09v-9.64
					c0-0.6,0.49-1.09,1.09-1.09h14.08C22.23,12.28,22.72,12.77,22.72,13.37z"/>
			</g>
		</g>
		<g>
			<g>
				<g>
					<g>
						<path class="st3" d="M13.02,16.88c0,0.87-0.71,1.57-1.57,1.57c-0.86,0-1.57-0.71-1.57-1.57c0-0.87,0.71-1.57,1.57-1.57
							C12.31,15.31,13.02,16.01,13.02,16.88z"/>
					</g>
				</g>
				<g>
					<g>
						<path class="st3" d="M19.3,16.88c0,0.87-0.71,1.57-1.57,1.57c-0.86,0-1.57-0.71-1.57-1.57c0-0.87,0.71-1.57,1.57-1.57
							C18.6,15.31,19.3,16.01,19.3,16.88z"/>
					</g>
				</g>
				<g>
					<g>
						<path class="st2" d="M18.37,16.88c0,0.35-0.29,0.64-0.64,0.64c-0.35,0-0.64-0.29-0.64-0.64c0-0.35,0.29-0.64,0.64-0.64
							C18.09,16.24,18.37,16.53,18.37,16.88z"/>
					</g>
				</g>
				<g>
					<g>
						<path class="st2" d="M12.09,16.88c0,0.35-0.29,0.64-0.64,0.64c-0.35,0-0.64-0.29-0.64-0.64c0-0.35,0.29-0.64,0.64-0.64
							C11.8,16.24,12.09,16.53,12.09,16.88z"/>
					</g>
				</g>
			</g>
		</g>
		<g>
			<g>
				<path class="st3" d="M24.37,16.12v4.14c0,0.91-0.74,1.65-1.65,1.65v-7.45c0.46,0,0.87,0.19,1.17,0.49
					C24.19,15.25,24.37,15.66,24.37,16.12z"/>
			</g>
		</g>
		<g>
			<g>
				<path class="st3" d="M4.81,16.12v4.14c0,0.91,0.74,1.65,1.65,1.65v-7.45c-0.46,0-0.87,0.19-1.17,0.49
					C4.99,15.25,4.81,15.66,4.81,16.12z"/>
			</g>
		</g>
		<g>
			<g>
				<path class="st3" d="M14.23,7.22h0.73v5.06h-0.73V7.22z"/>
			</g>
		</g>
		<g>
			<g>
				<path class="st4" d="M16.04,7.46c0,0.8-0.65,1.46-1.45,1.46c-0.81,0-1.46-0.65-1.46-1.46c0-0.8,0.65-1.45,1.46-1.45
					C15.39,6.01,16.04,6.66,16.04,7.46z"/>
			</g>
		</g>
	</g>
	<g>
		<g>
			<g>
				<g>
					<g>
						<path class="st4" d="M18.99,6.72c0-1.96-1.59-3.55-3.55-3.55V2.32c2.43,0,4.4,1.97,4.4,4.4L18.99,6.72z"/>
					</g>
				</g>
			</g>
			<g>
				<g>
					<g>
						<path class="st4" d="M17.06,7.09c0-0.53-0.21-1.03-0.58-1.41C16.1,5.31,15.6,5.1,15.07,5.1l0-0.75c0.73,0,1.42,0.28,1.93,0.8
							s0.8,1.2,0.8,1.93L17.06,7.09z"/>
					</g>
				</g>
			</g>
		</g>
	</g>
</g>
<g class="st5">
	<g>
		<ellipse cx="15.14" cy="25.85" rx="9" ry="0.61"/>
	</g>
</g>
<g>
	<g>
		<path class="st3" d="M18.47,21.09L18.47,21.09c0,0.47-0.38,0.84-0.84,0.84h-6.09c-0.47,0-0.84-0.37-0.84-0.83v0
			c0-0.46,0.37-0.84,0.84-0.84h6.09C18.1,20.25,18.47,20.63,18.47,21.09z"/>
	</g>
</g>
<g>
	<g>
		<g>
			<path class="st6" d="M11.87,20.25h0.33v1.67h-0.33V20.25z"/>
		</g>
	</g>
	<g>
		<g>
			<path class="st6" d="M12.89,20.25h0.33v1.67h-0.33V20.25z"/>
		</g>
	</g>
	<g>
		<g>
			<path class="st6" d="M13.91,20.25h0.33v1.67h-0.33V20.25z"/>
		</g>
	</g>
	<g>
		<g>
			<path class="st6" d="M14.94,20.25h0.33v1.67h-0.33V20.25z"/>
		</g>
	</g>
	<g>
		<g>
			<path class="st6" d="M15.96,20.25h0.33v1.67h-0.33V20.25z"/>
		</g>
	</g>
	<g>
		<g>
			<path class="st6" d="M16.99,20.25h0.33v1.67h-0.33V20.25z"/>
		</g>
	</g>
</g>
</svg>
