<?xml version="1.0" encoding="utf-8"?>
<!-- Generator: Adobe Illustrator 26.5.0, SVG Export Plug-In . SVG Version: 6.00 Build 0)  -->
<svg version="1.1" id="Layer_1" xmlns="http://www.w3.org/2000/svg" xmlns:xlink="http://www.w3.org/1999/xlink" x="0px" y="0px"
	 width="30px" height="30px" viewBox="0 0 30 30" style="enable-background:new 0 0 30 30;" xml:space="preserve">
<style type="text/css">
	.st0{fill:#FA6450;}
	.st1{fill:#DC4632;}
	.st2{fill:#F0C8A0;}
	.st3{fill:#D2AA82;}
	.st4{fill:#FAB400;}
	.st5{fill:#DC9600;}
</style>
<path class="st0" d="M30,17.14v-4.29h-2.32c-0.32-1.91-1.07-3.73-2.2-5.3l1.64-1.64l-3.03-3.03l-1.65,1.64
	c-1.58-1.12-3.39-1.88-5.3-2.2V0h-4.29v2.32c-1.91,0.32-3.73,1.07-5.3,2.2L5.91,2.88L2.88,5.91l1.64,1.64
	c-1.12,1.58-1.88,3.39-2.2,5.3H0v4.29h2.32c0.32,1.91,1.07,3.73,2.2,5.3l-1.64,1.65l3.03,3.03l1.64-1.64
	c1.58,1.12,3.39,1.88,5.3,2.2V30h4.29v-2.32c1.91-0.32,3.73-1.07,5.3-2.2l1.64,1.64l3.03-3.03l-1.64-1.65
	c1.12-1.58,1.88-3.39,2.2-5.3H30z M23.57,15c0,4.73-3.84,8.57-8.57,8.57S6.43,19.73,6.43,15S10.27,6.43,15,6.43
	C19.73,6.43,23.57,10.27,23.57,15z"/>
<path class="st1" d="M17.14,6.43c-0.36,0-0.72,0.03-1.07,0.07c4.69,0.59,8.02,4.87,7.43,9.56c-0.49,3.89-3.55,6.95-7.43,7.43
	c4.69,0.6,8.98-2.73,9.58-7.42s-2.73-8.98-7.42-9.58C17.87,6.45,17.51,6.43,17.14,6.43z"/>
<path class="st1" d="M4.47,12.86c0.32-1.91,1.07-3.73,2.2-5.3L5.02,5.91l1.96-1.96L5.91,2.88L2.88,5.91l1.64,1.64
	c-1.12,1.58-1.88,3.39-2.2,5.3L4.47,12.86z"/>
<path class="st1" d="M5.02,24.09l1.64-1.64c-1.12-1.58-1.88-3.39-2.2-5.3H2.33c0.32,1.91,1.07,3.73,2.2,5.3l-1.64,1.64l3.03,3.03
	l1.07-1.07L5.02,24.09z"/>
<path class="st1" d="M0,12.86h2.14v4.29H0V12.86z"/>
<path class="st2" d="M7.57,14l8.34,8.34c0.21,0.21,0.55,0.21,0.76,0l0.31-0.31c0.21-0.21,0.21-0.55,0-0.76
	c0.21,0.21,0.55,0.21,0.76,0l0.31-0.31c0.21-0.21,0.21-0.55,0-0.76c0.21,0.21,0.55,0.21,0.76,0l0.31-0.31
	c0.21-0.21,0.21-0.55,0-0.76c0.21,0.21,0.55,0.21,0.76,0l0.31-0.31c0.21-0.21,0.21-0.55,0-0.76l-9.32-9.32
	C9.07,9.93,7.86,11.85,7.57,14z"/>
<path class="st3" d="M15.91,22.34c0.21,0.21,0.55,0.21,0.76,0l0.16-0.16l-9.08-9.08C7.67,13.4,7.61,13.7,7.57,14L15.91,22.34z"/>
<path class="st4" d="M19.12,8.74l-3.05,3.05h-1.26c-0.57,0-1.11,0.23-1.52,0.63l-1.67,1.67c-0.21,0.21-0.21,0.55,0,0.76
	c0.1,0.1,0.24,0.16,0.38,0.16h0.63c0.14,0,0.28-0.06,0.38-0.16l0.47-0.47c0.84-0.84,2.19-0.84,3.03,0l2.77,2.77L22.43,14
	C22.14,11.85,20.93,9.93,19.12,8.74L19.12,8.74z"/>
<path class="st4" d="M15.47,20.2l-0.31-0.31c-0.21-0.21-0.55-0.21-0.76,0c0.21-0.21,0.21-0.55,0-0.76l-0.31-0.31
	c-0.21-0.21-0.55-0.21-0.76,0c0.21-0.21,0.21-0.55,0-0.76l-0.31-0.31c-0.21-0.21-0.55-0.21-0.76,0c0.21-0.21,0.21-0.55,0-0.76
	l-0.31-0.31c-0.21-0.21-0.55-0.21-0.76,0L9.8,18.06c-0.21,0.21-0.21,0.55,0,0.76l0.31,0.31c0.21,0.21,0.55,0.21,0.76,0
	c-0.21,0.21-0.21,0.55,0,0.76l0.31,0.31c0.21,0.21,0.55,0.21,0.76,0c-0.21,0.21-0.21,0.55,0,0.76l0.31,0.31
	c0.21,0.21,0.55,0.21,0.76,0c-0.21,0.21-0.21,0.55,0,0.76l0.31,0.31c0.21,0.21,0.55,0.21,0.76,0l1.39-1.39
	C15.68,20.75,15.68,20.41,15.47,20.2z"/>
<path class="st4" d="M15.47,20.2l-0.31-0.31c-0.21-0.21-0.55-0.21-0.76,0c0.21-0.21,0.21-0.55,0-0.76l-0.31-0.31
	c-0.21-0.21-0.55-0.21-0.76,0c0.21-0.21,0.21-0.55,0-0.76l-0.31-0.31c-0.21-0.21-0.55-0.21-0.76,0c0.21-0.21,0.21-0.55,0-0.76
	l-0.31-0.31c-0.21-0.21-0.55-0.21-0.76,0L9.8,18.06c-0.21,0.21-0.21,0.55,0,0.76l0.31,0.31c0.21,0.21,0.55,0.21,0.76,0
	c-0.21,0.21-0.21,0.55,0,0.76l0.31,0.31c0.21,0.21,0.55,0.21,0.76,0c-0.21,0.21-0.21,0.55,0,0.76l0.31,0.31
	c0.21,0.21,0.55,0.21,0.76,0c-0.21,0.21-0.21,0.55,0,0.76l0.31,0.31c0.21,0.21,0.55,0.21,0.76,0l1.39-1.39
	C15.68,20.75,15.68,20.41,15.47,20.2z"/>
<g>
	<path class="st5" d="M10.34,18.59l1.39-1.39c0.17-0.16,0.42-0.2,0.62-0.09c-0.02-0.05-0.05-0.09-0.09-0.13l-0.31-0.31
		c-0.21-0.21-0.55-0.21-0.76,0L9.8,18.06c-0.21,0.21-0.21,0.55,0,0.76l0.31,0.31c0.04,0.04,0.08,0.07,0.13,0.09
		C10.14,19.01,10.17,18.76,10.34,18.59z"/>
	<path class="st5" d="M13.55,21.81l1.39-1.39c0.17-0.16,0.42-0.2,0.62-0.09c-0.02-0.05-0.05-0.09-0.09-0.13l-0.31-0.31
		c-0.21-0.21-0.55-0.21-0.76,0l-1.39,1.39c-0.21,0.21-0.21,0.55,0,0.76l0.31,0.31c0.04,0.04,0.08,0.07,0.13,0.09
		C13.35,22.23,13.39,21.97,13.55,21.81L13.55,21.81z"/>
	<path class="st5" d="M12.48,20.74l1.39-1.39c0.17-0.16,0.42-0.2,0.62-0.09c-0.02-0.05-0.05-0.09-0.09-0.13l-0.31-0.31
		c-0.21-0.21-0.55-0.21-0.76,0l-1.39,1.39c-0.21,0.21-0.21,0.55,0,0.76l0.31,0.31c0.04,0.04,0.08,0.07,0.13,0.09
		C12.28,21.16,12.31,20.9,12.48,20.74z"/>
	<path class="st5" d="M11.41,19.66l1.39-1.39c0.17-0.16,0.42-0.2,0.62-0.09c-0.02-0.05-0.05-0.09-0.09-0.13l-0.31-0.31
		c-0.21-0.21-0.55-0.21-0.76,0l-1.39,1.39c-0.21,0.21-0.21,0.55,0,0.76l0.31,0.31c0.04,0.04,0.08,0.07,0.13,0.09
		C11.21,20.08,11.24,19.83,11.41,19.66z"/>
	<path class="st5" d="M12.7,14.09l1.67-1.67c0.4-0.4,0.95-0.63,1.52-0.63h-1.07c-0.57,0-1.11,0.23-1.52,0.63l-1.67,1.67
		c-0.21,0.21-0.21,0.55,0,0.76c0.1,0.1,0.24,0.16,0.38,0.16h0.63c0.08,0,0.15-0.02,0.22-0.05c-0.27-0.12-0.38-0.44-0.26-0.71
		C12.62,14.18,12.66,14.13,12.7,14.09L12.7,14.09z"/>
	<path class="st5" d="M16.07,11.79h1.07l2.59-2.59c-0.2-0.16-0.4-0.31-0.62-0.45L16.07,11.79z"/>
</g>
<path class="st3" d="M16.99,21.27c0.21,0.21,0.55,0.21,0.76,0l0.16-0.16l-2.9-2.9l-0.54,0.54L16.99,21.27z"/>
<path class="st3" d="M18.06,20.2c0.21,0.21,0.55,0.21,0.76,0l0.16-0.16l-2.9-2.9l-0.54,0.54L18.06,20.2z"/>
<path class="st3" d="M17.14,16.07l-0.54,0.54l2.52,2.52c0.21,0.21,0.55,0.21,0.76,0l0.16-0.16L17.14,16.07z"/>
</svg>
