<?xml version="1.0" encoding="utf-8"?>
<!-- Generator: Adobe Illustrator 26.5.0, SVG Export Plug-In . SVG Version: 6.00 Build 0)  -->
<svg version="1.1" id="Capa_1" xmlns="http://www.w3.org/2000/svg" xmlns:xlink="http://www.w3.org/1999/xlink" x="0px" y="0px"
	 width="30px" height="30px" viewBox="0 0 30 30" style="enable-background:new 0 0 30 30;" xml:space="preserve">
<style type="text/css">
	.st0{fill:#333333;}
	.st1{fill:#1A1A1A;}
	.st2{fill:#FFFFFF;}
	.st3{fill:#CCCCCC;}
</style>
<circle class="st0" cx="15" cy="15" r="15"/>
<path class="st1" d="M14.59,8.19l3.93,3.91L9.46,23.61l6.7,6.35C23.9,29.37,30,22.9,30,15c0-0.19,0-0.39-0.01-0.58L18.84,3.27
	L14.59,8.19z"/>
<path class="st2" d="M11.2,24.58c-0.6-0.02-1.5-0.68-1.89-1.12c-1-1.13-1.81-2.38-2.38-3.78c-0.65-1.59-1.04-3.23-1.02-4.96
	c0.01-1.24,0.26-2.44,0.88-3.52c0.77-1.34,1.91-2.22,3.42-2.58c0.6-0.14,1.22-0.2,1.82-0.02c0.6,0.18,1.2,0.39,1.79,0.6
	c0.51,0.19,1.02,0.32,1.56,0.09c0.35-0.15,0.72-0.27,1.08-0.41c0.59-0.22,1.19-0.42,1.83-0.44c1.24-0.04,2.38,0.27,3.38,1.01
	c0.41,0.31,0.76,0.68,1.05,1.11c-0.04,0.03-0.07,0.05-0.1,0.08c-0.43,0.3-0.82,0.65-1.15,1.06c-0.88,1.08-1.19,2.32-0.98,3.69
	c0.15,0.96,0.56,1.78,1.23,2.48c0.41,0.43,1.1,0.87,1.63,1.13c-0.09,0.22-0.27,0.57-0.36,0.8c-0.38,0.95-0.88,1.82-1.48,2.64
	c-0.42,0.59-0.85,1.17-1.43,1.62c-0.53,0.41-1.12,0.62-1.79,0.57c-0.51-0.04-0.99-0.2-1.45-0.41c-1.01-0.47-2.04-0.56-3.1-0.23
	c-0.27,0.08-0.52,0.21-0.78,0.3C12.55,24.42,11.64,24.6,11.2,24.58z"/>
<g>
	<path class="st3" d="M21.74,17.87c-0.67-0.7-1.08-1.52-1.23-2.48c-0.21-1.37,0.1-2.61,0.98-3.69c0.33-0.41,0.72-0.76,1.15-1.06
		c0.03-0.02,0.06-0.05,0.1-0.08c-0.29-0.43-0.64-0.81-1.05-1.11c-1.01-0.74-2.15-1.04-3.38-1.01c-0.64,0.02-1.24,0.22-1.83,0.44
		c-0.36,0.13-0.73,0.25-1.08,0.41c-0.26,0.11-0.52,0.14-0.77,0.12v14.4c0.76-0.08,1.51,0.06,2.24,0.4c0.46,0.21,0.94,0.37,1.45,0.41
		c0.68,0.05,1.26-0.16,1.79-0.57c0.58-0.45,1.01-1.03,1.43-1.62c0.6-0.82,1.1-1.7,1.48-2.64c0.09-0.22,0.27-0.58,0.36-0.8
		C22.84,18.74,22.15,18.29,21.74,17.87z"/>
	<path class="st3" d="M18.84,3.27c0,0.34,0.04,0.68-0.02,1.02c-0.19,1.23-0.77,2.25-1.74,3.03c-0.72,0.58-1.53,0.92-2.5,0.86
		c-0.05-0.37-0.04-0.74,0.04-1.1c0.29-1.29,0.97-2.32,2.07-3.05c0.57-0.38,1.19-0.64,1.87-0.74C18.61,3.3,18.78,3.27,18.84,3.27z"/>
</g>
</svg>
