<?xml version="1.0" encoding="utf-8"?>
<!-- Generator: Adobe Illustrator 26.5.0, SVG Export Plug-In . SVG Version: 6.00 Build 0)  -->
<svg version="1.1" id="Layer_1" xmlns="http://www.w3.org/2000/svg" xmlns:xlink="http://www.w3.org/1999/xlink" x="0px" y="0px"
	 width="30px" height="30px" viewBox="0 0 30 30" style="enable-background:new 0 0 30 30;" xml:space="preserve">
<style type="text/css">
	.st0{fill-rule:evenodd;clip-rule:evenodd;fill:#0291F7;}
</style>
<path class="st0" d="M3.31,22.96c0.15,0.21,0.39,0.34,0.65,0.34h22.07c0.26,0,0.5-0.13,0.65-0.34c0.12-0.18,0.15-0.4,0.07-0.6
	l-0.96-2.42c-0.15-0.38-0.4-0.57-0.72-0.57H4.93c-0.33,0-0.57,0.19-0.72,0.57l-0.96,2.42C3.16,22.55,3.19,22.78,3.31,22.96z
	 M5.11,20.36h19.77l0.77,1.94H4.34L5.11,20.36z M29.59,27.5H0.41c-0.18,0-0.38-0.14-0.41-0.21l0.32-0.8h29.36l0.32,0.8
	C29.97,27.36,29.77,27.5,29.59,27.5L29.59,27.5z M3.96,2.89c0-0.21,0.17-0.38,0.38-0.38h21.31c0.21,0,0.38,0.17,0.38,0.38v14.19
	c0,0.21-0.17,0.38-0.38,0.38H4.34c-0.21,0-0.38-0.17-0.38-0.38L3.96,2.89z M3.29,19.03c0.19-0.48,0.3-0.57,0.42-0.57h0.46
	c0.02,0,0.04,0,0.06,0c0.04,0,0.07,0,0.11,0h21.31c0.03,0,0.06,0,0.08,0c0.02,0,0.03,0,0.05,0h0.5c0.12,0,0.23,0.09,0.42,0.57
	l2.57,6.45H0.72L3.29,19.03L3.29,19.03z M8.92,8.09c0.19,0.2,0.51,0.2,0.71,0c0,0,0,0,0,0c2.96-2.94,7.78-2.94,10.74,0.01
	c0.2,0.19,0.52,0.19,0.71-0.01c0.19-0.19,0.19-0.5,0-0.69c-1.61-1.61-3.8-2.51-6.07-2.51H15c-2.28-0.01-4.46,0.89-6.07,2.5
	C8.73,7.57,8.73,7.89,8.92,8.09L8.92,8.09z M19.42,9.04C18.25,7.87,16.66,7.22,15,7.22H15c-1.65,0-3.24,0.65-4.41,1.82
	c-0.2,0.19-0.21,0.51-0.02,0.71c0.19,0.2,0.51,0.21,0.71,0.02c0,0,0.01-0.01,0.01-0.01c2.06-2.03,5.37-2.03,7.43,0.01
	c0.2,0.19,0.51,0.19,0.71,0C19.62,9.55,19.61,9.24,19.42,9.04L19.42,9.04L19.42,9.04z M17.76,10.7c-1.53-1.5-3.99-1.51-5.52-0.01
	c-0.2,0.19-0.2,0.51,0,0.71c0.19,0.2,0.51,0.2,0.71,0.01c1.15-1.12,2.98-1.12,4.12,0.01c0.2,0.19,0.52,0.18,0.71-0.02
	C17.95,11.2,17.95,10.89,17.76,10.7L17.76,10.7z M13.87,12.37c-0.62,0.62-0.62,1.63,0,2.25c0.62,0.62,1.63,0.62,2.25,0
	c0.62-0.62,0.62-1.63,0-2.25C15.5,11.75,14.49,11.75,13.87,12.37z M15.42,13.91c0.23-0.23,0.23-0.61,0-0.84
	c-0.23-0.23-0.61-0.23-0.84,0c-0.23,0.23-0.23,0.61,0,0.84C14.81,14.14,15.18,14.14,15.42,13.91z"/>
</svg>
