<?xml version="1.0" encoding="utf-8"?>
<!-- Generator: Adobe Illustrator 26.5.0, SVG Export Plug-In . SVG Version: 6.00 Build 0)  -->
<svg version="1.1" id="Layer_1" xmlns="http://www.w3.org/2000/svg" xmlns:xlink="http://www.w3.org/1999/xlink" x="0px" y="0px"
	 width="30px" height="30px" viewBox="0 0 30 30" style="enable-background:new 0 0 30 30;" xml:space="preserve">
<style type="text/css">
	.st0{fill-rule:evenodd;clip-rule:evenodd;fill:#6C27B3;}
</style>
<path class="st0" d="M2.81,14.72c-0.01-0.04-0.04-0.08-0.07-0.11l-0.76-0.87c-0.07-0.08-0.1-0.2-0.06-0.3
	c0.46-1.5,0.83-2.56,1.07-3.15c1.46-3.35,4.62-5.51,8.48-5.82l0.93,1.19c-0.29,0.53-0.52,1.08-0.68,1.66l-1.55,0.19
	C9.79,7.57,9.5,7.9,9.5,8.29v3.04c0,0.39,0.29,0.72,0.68,0.77l1.55,0.19c0.17,0.58,0.4,1.13,0.68,1.66l-0.96,1.23
	c-0.24,0.31-0.21,0.75,0.06,1.03l2.15,2.15c0.28,0.28,0.72,0.3,1.02,0.06l1.23-0.96c0.53,0.29,1.09,0.52,1.66,0.69l0.19,1.54
	c0.05,0.39,0.38,0.68,0.77,0.68h1.74c-1.45,3.36-1.15,6.74,0.85,9.64H10.35c-0.54-1.32-1.32-2.53-2.3-3.57
	c-0.11-0.11-0.27-0.15-0.41-0.08l-2.85,1.22c-0.48,0.21-0.88,0.21-1.17,0c-0.44-0.31-0.71-1.12-0.66-2.01
	c0.02-0.36-0.14-0.7-0.43-0.91c-0.14-0.1-0.32-0.23-0.55-0.4l0.21-0.25c0.23-0.26,0.2-0.66-0.07-0.89
	c-0.03-0.03-0.06-0.05-0.09-0.07l-0.66-0.39l0.61-1.21c0.09-0.17,0.03-0.37-0.12-0.47l-1.56-1.03l2.1-2.72
	C3.01,16.44,3.15,15.6,2.81,14.72L2.81,14.72z M12.04,3.95c-0.01,0.01-0.01,0.04,0,0.05l1.11,1.42c0.09,0.12,0.1,0.28,0.02,0.41
	c-0.35,0.61-0.62,1.26-0.8,1.94c-0.04,0.15-0.16,0.25-0.31,0.27l-1.79,0.22c-0.02,0-0.04,0.02-0.04,0.04v3.04
	c0,0.02,0.02,0.04,0.04,0.04l1.79,0.22c0.15,0.02,0.27,0.13,0.31,0.27c0.18,0.68,0.45,1.33,0.8,1.94c0.08,0.13,0.07,0.29-0.02,0.41
	l-1.11,1.42c-0.01,0.02-0.01,0.04,0,0.05l2.15,2.15c0.01,0.01,0.03,0.02,0.05,0l1.42-1.11c0.06-0.05,0.14-0.08,0.23-0.08
	c0.07,0,0.13,0.02,0.19,0.05c0.61,0.35,1.26,0.62,1.94,0.8c0.14,0.04,0.25,0.16,0.27,0.31l0.22,1.79c0,0.02,0.02,0.04,0.04,0.03
	h3.04c0.02,0,0.03-0.01,0.04-0.03l0.22-1.79c0.02-0.15,0.13-0.28,0.27-0.31c0.68-0.18,1.33-0.45,1.94-0.8
	c0.13-0.08,0.29-0.06,0.41,0.03l1.42,1.11c0.02,0.01,0.04,0.01,0.05,0l2.14-2.15c0.02-0.01,0.02-0.03,0.01-0.05c0,0,0,0,0,0
	l-1.11-1.42c-0.09-0.12-0.1-0.28-0.03-0.41c0.35-0.61,0.62-1.26,0.8-1.94c0.04-0.14,0.16-0.25,0.31-0.27l1.79-0.22
	c0.02,0,0.03-0.02,0.03-0.04V8.29c0-0.02-0.01-0.04-0.03-0.04l-1.79-0.22c-0.15-0.02-0.27-0.13-0.31-0.27
	c-0.18-0.68-0.45-1.33-0.8-1.94c-0.07-0.13-0.06-0.29,0.03-0.41L28.06,4c0.01-0.01,0.01-0.04,0-0.05c0,0,0,0,0,0L25.92,1.8
	c-0.01-0.01-0.04-0.02-0.05,0l-1.42,1.11c-0.12,0.09-0.28,0.1-0.41,0.03c-0.61-0.35-1.26-0.62-1.94-0.8
	c-0.15-0.04-0.26-0.16-0.27-0.31L21.6,0.03C21.6,0.01,21.59,0,21.57,0h-3.04c-0.02,0-0.04,0.01-0.04,0.03l-0.22,1.79
	C18.25,1.97,18.15,2.09,18,2.13c-0.68,0.18-1.33,0.45-1.94,0.8C15.94,3.01,15.77,3,15.65,2.91L14.23,1.8
	c-0.01-0.01-0.03-0.01-0.05,0c0,0,0,0,0,0L12.04,3.95z M16.82,9.6c-0.03,0.06-0.05,0.12-0.07,0.19c-0.19,0.57-0.07,1.19,0.31,1.65
	c0.12,0.16,0.35,0.19,0.51,0.07c0,0,0,0,0,0c0.16-0.13,0.19-0.36,0.06-0.52c-0.2-0.25-0.28-0.59-0.2-0.9
	c0.21,0.09,0.43,0.14,0.66,0.13c0.36,0,0.71-0.11,0.99-0.33c0.16-0.12,0.2-0.35,0.07-0.52s-0.35-0.2-0.52-0.07
	c0,0-0.01,0.01-0.01,0.01c-0.3,0.22-0.71,0.24-1.02,0.03c-0.28-0.18-0.36-0.49-0.21-0.75c0.1-0.17,0.05-0.4-0.13-0.5c0,0,0,0,0,0
	c-0.18-0.1-0.4-0.05-0.51,0.13C16.5,8.65,16.52,9.2,16.82,9.6L16.82,9.6z M17.5,6.98c0.07,0.11,0.19,0.18,0.32,0.18
	c0.07,0,0.13-0.02,0.19-0.05c0.17-0.1,0.23-0.33,0.13-0.5c0,0,0,0,0,0c-0.15-0.26-0.07-0.56,0.21-0.75c0.32-0.2,0.72-0.19,1.02,0.03
	c0.16,0.13,0.39,0.1,0.52-0.06c0.13-0.16,0.1-0.39-0.06-0.52l0,0c-0.55-0.42-1.31-0.44-1.89-0.06C17.34,5.65,17.16,6.39,17.5,6.98
	L17.5,6.98z M19.16,12.65c0.12-0.16,0.09-0.39-0.07-0.52c-0.55-0.42-1.31-0.44-1.89-0.06c-0.6,0.4-0.78,1.14-0.43,1.73
	c0.07,0.11,0.19,0.18,0.32,0.18c0.07,0,0.13-0.02,0.19-0.05c0.18-0.1,0.23-0.33,0.13-0.51c-0.15-0.26-0.07-0.56,0.2-0.75
	c0.32-0.2,0.72-0.19,1.03,0.03C18.8,12.84,19.03,12.81,19.16,12.65L19.16,12.65z M14.99,11.67c-0.06-0.05-0.13-0.11-0.19-0.17
	c-0.04,0.16-0.04,0.32,0,0.48c0.12,0.41,0.48,0.71,0.91,0.75c0.2,0.02,0.35,0.21,0.32,0.41c-0.02,0.19-0.18,0.33-0.37,0.33
	c-0.01,0-0.02,0-0.04,0c-0.12-0.01-0.24-0.04-0.36-0.08c-0.18,0.32-0.13,0.71,0.12,0.97c0.35,0.36,0.92,0.39,1.31,0.06
	c0.16-0.13,0.39-0.11,0.52,0.05c0.06,0.07,0.09,0.15,0.09,0.24c0.01,0.54,0.31,1.04,0.79,1.29c0.5,0.27,1.1,0.27,1.6,0
	c0.19-0.11,0.36-0.25,0.49-0.42v-0.6c-0.02,0.06-0.06,0.12-0.12,0.16c-0.55,0.42-1.31,0.44-1.89,0.06c-0.6-0.4-0.78-1.14-0.43-1.73
	c0.1-0.17,0.33-0.23,0.5-0.13c0.17,0.1,0.23,0.33,0.13,0.5l0,0c-0.15,0.26-0.07,0.56,0.21,0.75c0.32,0.2,0.72,0.19,1.02-0.03
	c0.16-0.13,0.39-0.1,0.52,0.06c0,0,0,0,0,0c0.03,0.03,0.04,0.06,0.06,0.1V4.05c-0.13-0.17-0.3-0.32-0.49-0.42
	c-0.5-0.27-1.1-0.27-1.6,0c-0.06,0.03-0.12,0.07-0.17,0.11c0.27,0.01,0.53,0.08,0.77,0.19c0.18,0.09,0.26,0.31,0.17,0.49
	c-0.09,0.18-0.31,0.26-0.49,0.17c-0.48-0.23-1.06-0.15-1.45,0.21c-0.2,0.18-0.33,0.42-0.37,0.69c0.14,0.03,0.28,0.07,0.42,0.13
	c0.18,0.09,0.26,0.31,0.16,0.5c-0.09,0.17-0.29,0.25-0.47,0.17c-0.17-0.08-0.36-0.11-0.55-0.09c-0.4,0.03-0.75,0.3-0.88,0.68
	c-0.11,0.37,0.03,0.77,0.34,1c0.1,0.07,0.15,0.18,0.15,0.3c0,0.12-0.06,0.23-0.16,0.3c-0.53,0.36-0.81,0.97-0.71,1.58
	c0.06,0.4,0.28,0.77,0.6,1.02c0.16,0.13,0.19,0.36,0.06,0.52c-0.07,0.09-0.18,0.14-0.29,0.14C15.14,11.75,15.06,11.72,14.99,11.67
	L14.99,11.67z M23.47,4.36c0.26,0,0.48,0.21,0.48,0.48c0,0.26-0.21,0.48-0.48,0.48c-0.26,0-0.48-0.21-0.48-0.48
	C22.99,4.57,23.21,4.36,23.47,4.36C23.47,4.36,23.47,4.36,23.47,4.36z M24.85,9.34c0.26,0,0.48,0.21,0.48,0.48
	c0,0.26-0.21,0.48-0.48,0.48c-0.26,0-0.48-0.21-0.48-0.48C24.38,9.55,24.59,9.34,24.85,9.34z M23.95,14.79
	c0,0.26-0.21,0.47-0.48,0.47c-0.26,0-0.47-0.21-0.47-0.48c0-0.26,0.21-0.47,0.48-0.47c0,0,0,0,0,0
	C23.73,14.31,23.95,14.52,23.95,14.79C23.95,14.79,23.95,14.79,23.95,14.79z M14.09,12.17c0.09,0.33,0.28,0.63,0.54,0.86
	c-0.34,0.6-0.25,1.35,0.23,1.84c0.46,0.48,1.16,0.64,1.79,0.42c0.17,0.58,0.56,1.07,1.09,1.36c0.72,0.39,1.59,0.39,2.31,0
	c0.33-0.18,0.61-0.44,0.82-0.75c0.04-0.06,0.06-0.13,0.06-0.2v-3.27h1.3l0.5,1.4c-0.53,0.41-0.63,1.17-0.22,1.7
	c0.41,0.53,1.17,0.63,1.7,0.22c0.53-0.41,0.63-1.17,0.22-1.7c-0.23-0.3-0.58-0.47-0.96-0.47c-0.01,0-0.03,0-0.04,0l-0.52-1.44
	c-0.14-0.39-0.4-0.45-0.55-0.45h-1.43v-1.51h2.77c0.2,0.64,0.89,0.99,1.53,0.79c0.64-0.2,0.99-0.89,0.79-1.53
	c-0.2-0.64-0.89-0.99-1.53-0.79c-0.37,0.12-0.67,0.41-0.79,0.79h-2.77V7.94h1.43c0.15,0,0.41-0.06,0.55-0.45l0.52-1.44
	c0.02,0,0.03,0,0.04,0c0.67,0,1.22-0.54,1.23-1.21c0-0.67-0.54-1.22-1.21-1.23c-0.67,0-1.22,0.54-1.23,1.21
	c0,0.38,0.18,0.74,0.48,0.98l-0.5,1.4h-1.3V3.93c0-0.07-0.02-0.14-0.06-0.2c-0.21-0.31-0.49-0.57-0.82-0.75
	c-0.72-0.39-1.59-0.39-2.31,0C17.32,3.21,16.98,3.57,16.77,4c-0.13,0.07-0.25,0.16-0.36,0.26c-0.35,0.32-0.57,0.77-0.61,1.24
	c-0.6,0.13-1.09,0.58-1.28,1.17c-0.16,0.51-0.05,1.07,0.28,1.49c-0.54,0.52-0.8,1.28-0.68,2.02c0.03,0.22,0.1,0.43,0.19,0.63
	C14.05,11.21,13.97,11.71,14.09,12.17L14.09,12.17z"/>
</svg>
