<?xml version="1.0" encoding="utf-8"?>
<!-- Generator: Adobe Illustrator 26.5.0, SVG Export Plug-In . SVG Version: 6.00 Build 0)  -->
<svg version="1.1" id="Capa_1" xmlns="http://www.w3.org/2000/svg" xmlns:xlink="http://www.w3.org/1999/xlink" x="0px" y="0px"
	 width="30px" height="30px" viewBox="0 0 30 30" style="enable-background:new 0 0 30 30;" xml:space="preserve">
<style type="text/css">
	.st0{fill:#292966;}
	.st1{fill:#7979B2;}
	.st2{fill:#E6F7FF;}
	.st3{fill:#99FFFF;}
	.st4{fill:#66E6FF;}
	.st5{fill:#CCE6FF;}
</style>
<circle class="st0" cx="15" cy="15" r="15"/>
<g>
	<path class="st1" d="M22.41,24.08c0,1.07-0.87,1.95-1.95,1.95H10.1c-1.07,0-1.95-0.87-1.95-1.95V5.85c0-1.08,0.87-1.95,1.95-1.95
		h10.37c1.07,0,1.95,0.87,1.95,1.95V24.08z"/>
</g>
<g id="Mobile_Development_1_">
	<g>
		<path class="st2" d="M16.48,22.75h-2.39c-0.33,0-0.6-0.26-0.6-0.6c0-0.33,0.26-0.6,0.6-0.6h2.39c0.33,0,0.6,0.26,0.6,0.6
			C17.07,22.48,16.8,22.75,16.48,22.75z"/>
	</g>
	<g>
		<circle class="st2" cx="15.28" cy="7.77" r="0.6"/>
	</g>
</g>
<g>
	<path class="st3" d="M13.32,12.75c-0.23-0.23-0.61-0.23-0.84,0l-1.19,1.19c-0.23,0.23-0.23,0.61,0,0.84l1.19,1.19
		c0.23,0.23,0.61,0.23,0.84,0c0.23-0.23,0.23-0.61,0-0.84l-0.77-0.77l0.77-0.77C13.55,13.36,13.55,12.99,13.32,12.75L13.32,12.75z"
		/>
	<path class="st4" d="M19.28,13.94l-1.19-1.19c-0.23-0.23-0.61-0.23-0.84,0c-0.23,0.23-0.23,0.61,0,0.84l0.77,0.77l-0.77,0.77
		c-0.23,0.23-0.23,0.61,0,0.84c0.23,0.23,0.61,0.23,0.84,0l1.19-1.19C19.52,14.55,19.52,14.17,19.28,13.94L19.28,13.94z"/>
	<path class="st3" d="M16.02,11.4c-0.33-0.08-0.64,0.12-0.73,0.43L14.1,16.6c-0.08,0.32,0.12,0.64,0.43,0.73
		c0.32,0.08,0.64-0.12,0.73-0.43l1.19-4.77C16.54,11.81,16.34,11.48,16.02,11.4L16.02,11.4z"/>
</g>
<path class="st4" d="M16.02,11.4c-0.33-0.08-0.64,0.12-0.73,0.43l-0.01,0.07v4.92l1.17-4.7C16.54,11.81,16.34,11.48,16.02,11.4z"/>
<g>
	<path class="st5" d="M15.88,7.77c0-0.33-0.26-0.6-0.6-0.6v1.19C15.62,8.36,15.88,8.1,15.88,7.77z"/>
	<path class="st5" d="M16.48,21.56h-1.19v1.19h1.19c0.33,0,0.6-0.26,0.6-0.6S16.8,21.56,16.48,21.56z"/>
</g>
</svg>
