<?xml version="1.0" encoding="utf-8"?>
<!-- Generator: Adobe Illustrator 26.5.0, SVG Export Plug-In . SVG Version: 6.00 Build 0)  -->
<svg version="1.1" id="Layer_1" xmlns="http://www.w3.org/2000/svg" xmlns:xlink="http://www.w3.org/1999/xlink" x="0px" y="0px"
	 width="30px" height="30px" viewBox="0 0 30 30" style="enable-background:new 0 0 30 30;" xml:space="preserve">
<style type="text/css">
	.st0{fill:#0C3066;}
	.st1{fill:#FFDA44;}
	.st2{fill:#FFCD00;}
	.st3{fill:#4895FF;}
	.st4{fill:#2682FF;}
</style>
<circle class="st0" cx="15" cy="15" r="15"/>
<path class="st1" d="M26.83,14.74v2.63c0,1.39-1.13,2.53-2.53,2.53h-7.87c-0.43,0-0.78,0.36-0.76,0.8c0.02,0.41,0.38,0.72,0.78,0.72
	h1.86c0.42,0,0.76,0.34,0.76,0.76v1.9c0,1.4-1.14,2.54-2.54,2.54h-2.21c-1.4,0-2.54-1.14-2.54-2.54v-6.69H6.44
	c-1.39,0-2.53-1.13-2.53-2.53v-2.24c0-1.39,1.13-2.53,2.53-2.53h5.35l0,0h2.3c0.43,0,0.78-0.36,0.76-0.8
	c-0.02-0.41-0.37-0.72-0.78-0.72h-1.53c-0.42,0-0.76-0.34-0.76-0.76v-1.9c0-1.4,1.14-2.54,2.54-2.54h2.21c1.4,0,2.53,1.13,2.54,2.53
	v6.31h5.23C25.7,12.22,26.83,13.35,26.83,14.74z"/>
<path class="st2" d="M26.83,14.74v2.63c0,1.39-1.13,2.53-2.53,2.53h-7.87c-0.43,0-0.78,0.36-0.76,0.8c0.02,0.41,0.38,0.72,0.78,0.72
	h1.86c0.42,0,0.76,0.34,0.76,0.76v1.9c0,1.4-1.14,2.54-2.54,2.54h-1.11V3.38h1.11c1.4,0,2.53,1.13,2.54,2.53v6.31h5.23
	C25.7,12.22,26.83,13.35,26.83,14.74z"/>
<path class="st3" d="M19.24,25.62c0,0.54-0.44,0.98-0.98,0.98s-0.98-0.44-0.98-0.98s0.44-0.98,0.98-0.98S19.24,25.07,19.24,25.62z"
	/>
<path class="st4" d="M19.24,25.62c0,0.54-0.44,0.98-0.98,0.98v-1.96C18.8,24.63,19.24,25.07,19.24,25.62z"/>
<path class="st3" d="M19.08,5.91v6.31v1.04c0,0.84-0.68,1.52-1.52,1.52h-5c-0.42,0-0.76,0.34-0.76,0.76v1.84H6.45
	c-1.39,0-2.53-1.13-2.53-2.53v-2.24c0-1.39,1.13-2.53,2.53-2.53h5.35l0,0h2.3c0.43,0,0.78-0.36,0.76-0.8
	c-0.02-0.41-0.37-0.72-0.78-0.72h-1.53c-0.42,0-0.76-0.34-0.76-0.76V5.92c0-1.4,1.14-2.54,2.54-2.54h2.21
	C17.94,3.38,19.07,4.51,19.08,5.91z"/>
<path class="st4" d="M19.08,5.91v6.31v1.04c0,0.84-0.68,1.52-1.52,1.52h-2.12V3.38h1.11C17.94,3.38,19.07,4.51,19.08,5.91z"/>
<path class="st1" d="M13.86,4.61c0,0.54-0.44,0.98-0.98,0.98c-0.54,0-0.98-0.44-0.98-0.98s0.44-0.98,0.98-0.98
	C13.42,3.63,13.86,4.07,13.86,4.61z"/>
<path class="st2" d="M13.86,4.61c0,0.54-0.44,0.98-0.98,0.98V3.63C13.42,3.63,13.86,4.07,13.86,4.61z"/>
</svg>
