<?xml version="1.0" encoding="utf-8"?>
<!-- Generator: Adobe Illustrator 26.5.0, SVG Export Plug-In . SVG Version: 6.00 Build 0)  -->
<svg version="1.1"
	 id="Layer_1" image-rendering="optimizeQuality" text-rendering="geometricPrecision" shape-rendering="geometricPrecision"
	 xmlns="http://www.w3.org/2000/svg" xmlns:xlink="http://www.w3.org/1999/xlink" x="0px" y="0px" width="30px" height="30px"
	 viewBox="0 0 30 30" style="enable-background:new 0 0 30 30;" xml:space="preserve">
<style type="text/css">
	.st0{fill-rule:evenodd;clip-rule:evenodd;fill:#1D81CE;}
	.st1{fill-rule:evenodd;clip-rule:evenodd;fill:#FFFFFF;}
</style>
<g id="Layer_x0020_1">
	<circle class="st0" cx="14.96" cy="14.96" r="15"/>
	<path class="st1" d="M13.44,22.6c-0.57-0.56-1.07-1.43-1.44-2.51c-0.56,0.11-1.1,0.17-1.6,0.17c-0.48,0-0.91-0.06-1.29-0.17
		c-0.09,0.1-0.2,0.18-0.32,0.25c-0.24,0.14-0.51,0.21-0.79,0.21c-0.55,0-1.08-0.3-1.36-0.79c-0.43-0.75-0.17-1.71,0.57-2.15
		c0.12-0.06,0.25-0.11,0.37-0.15c0.2-0.79,0.71-1.64,1.45-2.51c-0.74-0.86-1.25-1.71-1.45-2.5c-0.12-0.03-0.25-0.09-0.37-0.16
		c-0.36-0.2-0.62-0.54-0.72-0.95c-0.11-0.41-0.06-0.83,0.15-1.19c0.28-0.48,0.81-0.79,1.36-0.79c0.28,0,0.55,0.07,0.79,0.21
		c0.11,0.07,0.23,0.15,0.32,0.24c0.38-0.1,0.81-0.16,1.29-0.16c0.5,0,1.04,0.06,1.6,0.17c0.37-1.08,0.87-1.95,1.44-2.51
		c-0.02-0.12-0.05-0.26-0.05-0.39c0-0.87,0.7-1.58,1.56-1.58s1.58,0.71,1.58,1.58c0,0.14-0.02,0.27-0.06,0.39
		c0.59,0.56,1.08,1.43,1.45,2.51c0.56-0.11,1.1-0.17,1.6-0.17c0.48,0,0.91,0.06,1.28,0.16c0.1-0.09,0.2-0.17,0.33-0.24
		c0.24-0.15,0.51-0.21,0.78-0.21c0.56,0,1.08,0.3,1.36,0.79c0.21,0.36,0.27,0.79,0.16,1.19c-0.11,0.41-0.37,0.74-0.73,0.95
		c-0.11,0.07-0.24,0.12-0.37,0.16c-0.19,0.79-0.7,1.64-1.44,2.5c0.74,0.87,1.25,1.72,1.44,2.51c0.14,0.03,0.26,0.08,0.37,0.15
		c0.36,0.21,0.63,0.55,0.73,0.96c0.11,0.41,0.06,0.83-0.16,1.19c-0.28,0.48-0.8,0.79-1.36,0.79c-0.27,0-0.54-0.08-0.78-0.21
		c-0.12-0.07-0.23-0.15-0.33-0.25c-0.37,0.11-0.8,0.17-1.28,0.17c-0.5,0-1.04-0.06-1.6-0.17c-0.37,1.08-0.87,1.95-1.45,2.51
		c0.03,0.12,0.06,0.26,0.06,0.39c0,0.87-0.71,1.58-1.58,1.58S13.4,23.86,13.4,23C13.4,22.86,13.42,22.73,13.44,22.6z M9.56,11.21
		c-0.03,0.18-0.09,0.36-0.19,0.53c-0.25,0.43-0.68,0.71-1.16,0.78c0.2,0.63,0.63,1.32,1.23,2.03c0.54-0.56,1.19-1.13,1.91-1.65
		c0.1-0.89,0.26-1.73,0.47-2.48c-0.51-0.1-0.98-0.15-1.42-0.15c-0.35,0-0.66,0.02-0.95,0.09c0.1,0.25,0.15,0.52,0.11,0.79
		l-0.01,0.02v0.01v0.01v0.01V11.21z M8.21,17.43c0.48,0.07,0.91,0.35,1.16,0.78c0.09,0.16,0.16,0.33,0.19,0.51v0.01v0.01v0.01v0.01
		c0.05,0.28,0.01,0.57-0.1,0.83c0.28,0.06,0.6,0.09,0.95,0.09c0.44,0,0.91-0.05,1.42-0.15c-0.21-0.75-0.37-1.59-0.47-2.48
		c-0.72-0.53-1.36-1.09-1.91-1.65C8.84,16.1,8.41,16.8,8.21,17.43z M14.95,21.43h0.01h0.02H15h0.01h0.03h0.01h0.01h0.02h0.01h0.02
		h0.01c0.01,0.01,0.02,0.01,0.03,0.01c0.42,0.06,0.8,0.27,1.05,0.6c0.45-0.48,0.83-1.2,1.15-2.07c-0.77-0.19-1.58-0.47-2.4-0.82
		c-0.81,0.35-1.62,0.63-2.39,0.82c0.3,0.87,0.7,1.59,1.15,2.07c0.25-0.33,0.62-0.54,1.04-0.6h0.01c0.01,0,0.02,0,0.03-0.01h0.01
		h0.02h0.01h0.02h0.02h0.02h0.02H14.95z M20.37,18.78c0.03-0.2,0.09-0.39,0.2-0.57c0.05-0.09,0.09-0.16,0.16-0.23
		c0.05-0.06,0.09-0.1,0.14-0.15c0.02-0.02,0.03-0.03,0.06-0.05l0.01-0.02c0.02-0.01,0.03-0.02,0.06-0.03
		c0.02-0.01,0.03-0.03,0.06-0.05l0.01-0.01l0.02-0.01c0.02-0.01,0.03-0.02,0.06-0.03c0.18-0.1,0.38-0.18,0.6-0.2
		c-0.2-0.63-0.63-1.33-1.24-2.03c-0.54,0.56-1.18,1.13-1.9,1.65c-0.1,0.89-0.26,1.72-0.48,2.48c0.51,0.1,0.99,0.15,1.43,0.15
		c0.35,0,0.66-0.03,0.95-0.09c-0.1-0.25-0.15-0.51-0.11-0.78V18.8V18.78z M21.73,12.51c-0.48-0.07-0.91-0.35-1.16-0.78l-0.01-0.02
		c-0.01-0.01-0.02-0.02-0.02-0.03l-0.01-0.02l-0.01-0.02l-0.01-0.01v-0.01l-0.01-0.02l-0.01-0.02v-0.01l-0.01-0.03h-0.01
		c-0.15-0.38-0.14-0.8,0.02-1.17c-0.28-0.07-0.6-0.09-0.95-0.09c-0.44,0-0.92,0.05-1.43,0.15c0.23,0.74,0.38,1.59,0.48,2.48
		c0.72,0.53,1.36,1.09,1.9,1.65C21.1,13.83,21.52,13.14,21.73,12.51z M14.96,16.54c-0.87,0-1.56-0.71-1.56-1.58s0.7-1.56,1.56-1.56
		s1.58,0.7,1.58,1.56S15.83,16.54,14.96,16.54z M14.24,18.81c-0.38-0.19-0.77-0.39-1.15-0.61c-0.38-0.23-0.74-0.45-1.1-0.7
		c0.1,0.69,0.24,1.32,0.41,1.9C12.99,19.26,13.61,19.06,14.24,18.81z M12.58,9.97c0.77,0.19,1.58,0.46,2.39,0.82
		c0.82-0.36,1.63-0.63,2.4-0.82c-0.32-0.88-0.7-1.59-1.15-2.08c-0.29,0.38-0.74,0.62-1.25,0.62c-0.5,0-0.96-0.24-1.24-0.62
		C13.28,8.38,12.88,9.09,12.58,9.97z M15.68,11.13c0.38,0.18,0.77,0.38,1.15,0.61c0.38,0.23,0.75,0.45,1.1,0.69
		c-0.09-0.68-0.23-1.32-0.41-1.89C16.94,10.67,16.31,10.87,15.68,11.13z M9.83,14.96c0.43,0.44,0.91,0.88,1.44,1.31
		c-0.02-0.43-0.03-0.86-0.03-1.31c0-0.44,0.01-0.88,0.03-1.29C10.74,14.09,10.26,14.53,9.83,14.96z M11.9,16.74
		c0.46,0.33,0.97,0.65,1.49,0.96c0.53,0.3,1.06,0.57,1.58,0.81c0.53-0.24,1.06-0.51,1.58-0.81c0.53-0.3,1.02-0.63,1.5-0.96
		c0.06-0.57,0.08-1.17,0.08-1.78c0-0.6-0.02-1.19-0.08-1.77c-0.47-0.34-0.97-0.65-1.5-0.96c-0.52-0.3-1.05-0.57-1.58-0.81
		c-0.52,0.24-1.05,0.51-1.58,0.81c-0.52,0.3-1.02,0.62-1.49,0.96c-0.06,0.57-0.09,1.17-0.09,1.77
		C11.81,15.57,11.85,16.17,11.9,16.74z M15.68,18.81c0.63,0.25,1.26,0.45,1.85,0.6c0.18-0.59,0.32-1.22,0.41-1.9
		c-0.35,0.25-0.72,0.47-1.1,0.7C16.45,18.42,16.07,18.62,15.68,18.81z M20.1,14.96c-0.42-0.44-0.9-0.88-1.44-1.29
		c0.03,0.42,0.05,0.86,0.05,1.29c0,0.45-0.01,0.88-0.05,1.31C19.2,15.84,19.68,15.4,20.1,14.96z M14.24,11.13
		c-0.63-0.26-1.25-0.46-1.85-0.6c-0.17,0.57-0.3,1.22-0.41,1.89c0.36-0.24,0.72-0.46,1.1-0.69C13.48,11.51,13.86,11.31,14.24,11.13z
		"/>
</g>
</svg>
