<?xml version="1.0" encoding="utf-8"?>
<!-- Generator: Adobe Illustrator 26.5.0, SVG Export Plug-In . SVG Version: 6.00 Build 0)  -->
<svg version="1.1" id="Layer_1" xmlns="http://www.w3.org/2000/svg" xmlns:xlink="http://www.w3.org/1999/xlink" x="0px" y="0px"
	 width="30px" height="30px" viewBox="0 0 30 30" style="enable-background:new 0 0 30 30;" xml:space="preserve">
<style type="text/css">
	.st0{fill:#ADE7FF;}
	.st1{fill:#82D2F5;}
	.st2{fill:#685C79;}
	.st3{fill:#594F69;}
	.st4{fill:#FF2C5C;}
	.st5{fill:#4FB1F5;}
	.st6{fill:#FFD659;}
	.st7{fill:#E62753;}
	.st8{fill:#FFBD54;}
</style>
<g id="surface1">
	<path class="st0" d="M20.72,28.49H9.28c0,0,1.95-1.49,1.95-4.41h7.53C18.77,27,20.72,28.49,20.72,28.49z"/>
	<path class="st1" d="M18.77,24.08h-1.71c0,2.92,1.95,4.41,1.95,4.41h1.71C20.72,28.49,18.77,27,18.77,24.08z"/>
	<path class="st2" d="M29.06,24.39H0.94C0.42,24.39,0,23.97,0,23.45V6.01c0-0.52,0.42-0.94,0.94-0.94h28.12
		c0.52,0,0.94,0.42,0.94,0.94v17.43C30,23.97,29.58,24.39,29.06,24.39z"/>
	<path class="st3" d="M29.06,5.07h-1.81c0.52,0,0.94,0.42,0.94,0.94v17.43c0,0.52-0.42,0.94-0.94,0.94h1.81
		c0.52,0,0.94-0.42,0.94-0.94V6.01C30,5.49,29.58,5.07,29.06,5.07z"/>
	<path class="st0" d="M1.81,22.34V7.12c0-0.13,0.1-0.23,0.23-0.23h25.91c0.13,0,0.23,0.1,0.23,0.23v15.23c0,0.13-0.1,0.23-0.23,0.23
		H2.05C1.92,22.58,1.81,22.47,1.81,22.34z"/>
	<path class="st2" d="M22.79,30H7.21c-0.5,0-0.91-0.41-0.91-0.91s0.41-0.91,0.91-0.91h15.57c0.5,0,0.91,0.41,0.91,0.91
		S23.29,30,22.79,30z"/>
	<path class="st3" d="M22.79,28.19h-1.82c0.5,0,0.91,0.41,0.91,0.91c0,0.5-0.41,0.91-0.91,0.91h1.82c0.5,0,0.91-0.41,0.91-0.91
		S23.29,28.19,22.79,28.19z"/>
	<path class="st4" d="M24.08,1.34c0,0.5-0.41,0.91-0.91,0.91s-0.91-0.41-0.91-0.91s0.41-0.91,0.91-0.91S24.08,0.84,24.08,1.34z"/>
	<path class="st4" d="M15.91,1.34c0,0.5-0.41,0.91-0.91,0.91S14.1,1.85,14.1,1.34S14.5,0.44,15,0.44S15.91,0.84,15.91,1.34z"/>
	<path class="st4" d="M7.73,1.34c0,0.5-0.41,0.91-0.91,0.91S5.92,1.85,5.92,1.34s0.41-0.91,0.91-0.91S7.73,0.84,7.73,1.34z"/>
	<path class="st3" d="M24.52,1.34c0-0.74-0.6-1.34-1.34-1.34s-1.34,0.6-1.34,1.34c0,0.59,0.38,1.09,0.91,1.27v0.64h-4.07
		c-0.24,0-0.44,0.2-0.44,0.44v6.76c0,0.24,0.2,0.44,0.44,0.44c0.24,0,0.44-0.2,0.44-0.44V4.14h4.07c0.24,0,0.44-0.2,0.44-0.44V2.62
		C24.14,2.43,24.52,1.93,24.52,1.34z M23.17,1.81c-0.26,0-0.47-0.21-0.47-0.47s0.21-0.47,0.47-0.47s0.47,0.21,0.47,0.47
		S23.43,1.81,23.17,1.81z"/>
	<path class="st3" d="M15,0c-0.74,0-1.34,0.6-1.34,1.34c0,0.59,0.38,1.09,0.91,1.27v6.12c0,0.24,0.2,0.44,0.44,0.44
		c0.24,0,0.44-0.2,0.44-0.44V2.62c0.53-0.18,0.91-0.68,0.91-1.27C16.35,0.6,15.74,0,15,0z M15,1.81c-0.26,0-0.47-0.21-0.47-0.47
		S14.74,0.88,15,0.88s0.47,0.21,0.47,0.47S15.26,1.81,15,1.81z"/>
	<path class="st3" d="M11.34,3.26H7.27V2.62c0.53-0.18,0.91-0.68,0.91-1.27C8.17,0.6,7.57,0,6.83,0S5.48,0.6,5.48,1.34
		c0,0.59,0.38,1.09,0.91,1.27V3.7c0,0.24,0.2,0.44,0.44,0.44h4.07v6.32c0,0.24,0.2,0.44,0.44,0.44c0.24,0,0.44-0.2,0.44-0.44V3.7
		C11.78,3.46,11.58,3.26,11.34,3.26z M6.83,0.88c0.26,0,0.47,0.21,0.47,0.47S7.09,1.81,6.83,1.81c-0.26,0-0.47-0.21-0.47-0.47
		S6.57,0.88,6.83,0.88z"/>
	<path class="st4" d="M20.86,11.32v6.94c0,0.14-0.08,0.26-0.2,0.32l-1.58,0.76l-3.92,1.87c-0.05,0.02-0.1,0.03-0.15,0.03
		s-0.1-0.01-0.15-0.03l-5.5-2.63c-0.12-0.06-0.2-0.18-0.2-0.32v-6.94c0-0.07,0.02-0.14,0.06-0.19c0.03-0.05,0.08-0.1,0.14-0.12
		l3.97-1.9l1.53-0.73c0.1-0.05,0.21-0.05,0.3,0l5.5,2.63c0.06,0.03,0.11,0.07,0.14,0.12C20.83,11.18,20.86,11.25,20.86,11.32z"/>
	<path class="st5" d="M15,13.89v7.34c-0.05,0-0.1-0.01-0.15-0.03l-5.5-2.63c-0.12-0.06-0.2-0.18-0.2-0.32v-6.94
		c0-0.07,0.02-0.14,0.06-0.19L15,13.89z"/>
	<path class="st6" d="M20.86,11.32v6.94c0,0.14-0.08,0.26-0.2,0.32l-1.58,0.76l-3.92,1.87c-0.05,0.02-0.1,0.03-0.15,0.03v-7.34
		l4.04-1.93l1.75-0.84C20.83,11.18,20.86,11.25,20.86,11.32z"/>
	<path class="st7" d="M20.8,11.13l-1.75,0.84L13.32,9.1l1.53-0.73c0.1-0.05,0.21-0.05,0.3,0l5.5,2.63
		C20.71,11.03,20.76,11.07,20.8,11.13z"/>
	<path class="st8" d="M20.86,11.32v6.94c0,0.14-0.08,0.26-0.2,0.32l-1.58,0.76l-0.03-7.37l1.75-0.84
		C20.83,11.18,20.86,11.25,20.86,11.32z"/>
</g>
</svg>
