<?xml version="1.0" encoding="utf-8"?>
<!-- Generator: Adobe Illustrator 26.5.0, SVG Export Plug-In . SVG Version: 6.00 Build 0)  -->
<svg version="1.1" id="Capa_1" xmlns="http://www.w3.org/2000/svg" xmlns:xlink="http://www.w3.org/1999/xlink" x="0px" y="0px"
	 width="30px" height="30px" viewBox="0 0 30 30" style="enable-background:new 0 0 30 30;" xml:space="preserve">
<style type="text/css">
	.st0{fill:#2CB3CD;}
	.st1{fill:#44BFD7;}
	.st2{fill:#3D4EC6;}
	.st3{fill:#5766CE;}
	.st4{fill:#FCF2B6;}
	.st5{fill:#FF9F22;}
	.st6{fill:#FFBEAA;}
	.st7{fill:#FAA68E;}
	.st8{fill:#E09380;}
	.st9{fill:#4C2C21;}
	.st10{fill:#FFF5F5;}
	.st11{fill:#FFB52D;}
	.st12{fill:#2B3894;}
	.st13{fill:#232E7A;}
	.st14{fill:#D47F6C;}
	.st15{fill:#B2705B;}
	.st16{fill:#FFC14F;}
	.st17{fill:#FFDE91;}
	.st18{fill:#FFCD71;}
	.st19{fill:#D3D3D8;}
	.st20{fill:#ECECF1;}
	.st21{fill:#3342AE;}
	.st22{fill:#7C3F2C;}
	.st23{fill:#954C35;}
</style>
<g>
	<path class="st0" d="M0.2,17.45c-0.12-0.75-0.19-1.53-0.2-2.31C-0.07,6.86,6.73,0,15,0c8.28,0,15,6.72,15,15
		c0,0.96-0.09,1.91-0.26,2.82c-0.29,1.54-1.65,2.64-3.22,2.64H3.77C2.01,20.46,0.48,19.19,0.2,17.45L0.2,17.45z"/>
	<path class="st1" d="M3.04,16.06c-0.1-0.61-0.15-1.23-0.16-1.87C2.82,7.51,8.31,1.96,15,1.96c6.7,0,12.12,5.43,12.12,12.12
		c0,0.78-0.07,1.54-0.21,2.28c-0.24,1.24-1.34,2.14-2.6,2.14H5.93C4.5,18.5,3.27,17.47,3.04,16.06L3.04,16.06z"/>
	<path class="st2" d="M4.76,16.37c-0.96,1.22-2.11,2.28-3.4,3.15c-0.27,0.18-0.65,0.05-0.74-0.27c-0.19-0.65-0.34-1.32-0.44-2
		c0.58-0.55,1.37-0.89,2.23-0.89H4.76z"/>
	<path class="st3" d="M14.02,19.62v4.21c0,3.22-3.24,5.46-6.23,4.29c-0.13-0.05-0.23-0.1-0.32-0.15c-3.31-1.92-5.81-5.08-6.89-8.83
		c0.23-1.57,1.58-2.77,3.22-2.77h6.97C12.57,16.37,14.02,17.83,14.02,19.62L14.02,19.62z"/>
	<path class="st4" d="M10.02,16.06l-2.07,3.55c-0.05,0.08-0.16,0.08-0.2,0L6.69,17.8c-0.05-0.08-0.16-0.08-0.2,0l-1.05,1.81
		c-0.05,0.08-0.16,0.08-0.2,0l-2.07-3.55c-0.05-0.08,0.01-0.18,0.1-0.18h6.66C10,15.88,10.06,15.98,10.02,16.06z"/>
	<path class="st5" d="M12.44,6.67v4.59H0.73V6.32c0-0.1,0.07-0.19,0.17-0.21l8.32-1.98C10.86,3.73,12.44,4.98,12.44,6.67L12.44,6.67
		z"/>
	<path class="st6" d="M2.64,10.56v0.46c0,0.64-0.52,1.16-1.16,1.16s-1.16-0.52-1.16-1.16v-0.46c0-0.64,0.52-1.16,1.16-1.16
		S2.64,9.92,2.64,10.56z"/>
	<path class="st7" d="M1.01,10.33v0.93c0,0.38,0.18,0.72,0.46,0.93c-0.64,0-1.16-0.52-1.16-1.16v-0.46c0-0.64,0.52-1.16,1.16-1.16
		C1.19,9.61,1.01,9.95,1.01,10.33L1.01,10.33z M6.59,3.36c-2.82,0-5.11,2.29-5.11,5.11v1.86c0,2.34,1.57,4.31,3.72,4.92v1.59
		c0,0.77,0.62,1.39,1.39,1.39c0.77,0,1.39-0.62,1.39-1.39v-1.59c2.15-0.61,3.72-2.58,3.72-4.92V8.47C11.7,5.65,9.41,3.36,6.59,3.36z
		"/>
	<path class="st6" d="M11.7,8.47v1.86c0,2.36-1.6,4.35-3.77,4.94c-0.42,0.11-0.86,0.11-1.28,0c-2.17-0.59-3.77-2.57-3.77-4.94V8.47
		c0-2.59,1.92-4.72,4.42-5.06C9.78,3.74,11.7,5.88,11.7,8.47L11.7,8.47z"/>
	<path class="st8" d="M5.91,10.64c-0.14-0.14-0.14-0.36,0-0.49c0.14-0.14,0.36-0.14,0.49,0c0.05,0.05,0.11,0.08,0.18,0.08
		s0.13-0.03,0.18-0.08c0.14-0.14,0.36-0.14,0.49,0c0.14,0.14,0.14,0.36,0,0.49c-0.18,0.18-0.42,0.28-0.67,0.28
		C6.33,10.92,6.09,10.82,5.91,10.64z M7.99,11.92c-0.14-0.14-0.36-0.14-0.49,0c-0.5,0.5-1.33,0.5-1.83,0
		c-0.14-0.14-0.36-0.14-0.49,0c-0.14,0.14-0.14,0.36,0,0.49C5.57,12.8,6.08,13,6.59,13s1.02-0.19,1.41-0.58
		C8.13,12.28,8.13,12.06,7.99,11.92L7.99,11.92z"/>
	<path class="st9" d="M5.08,8.82c0,0.39-0.31,0.7-0.7,0.7c-0.39,0-0.7-0.31-0.7-0.7c0-0.39,0.31-0.7,0.7-0.7S5.08,8.43,5.08,8.82z
		 M8.79,8.12c-0.39,0-0.7,0.31-0.7,0.7c0,0.39,0.31,0.7,0.7,0.7c0.39,0,0.7-0.31,0.7-0.7C9.49,8.43,9.18,8.12,8.79,8.12z"/>
	<path class="st10" d="M5.19,8.47c0,0.19-0.16,0.35-0.35,0.35c-0.19,0-0.35-0.16-0.35-0.35s0.16-0.35,0.35-0.35
		C5.04,8.12,5.19,8.28,5.19,8.47z M9.26,8.12c-0.19,0-0.35,0.16-0.35,0.35s0.16,0.35,0.35,0.35c0.19,0,0.35-0.16,0.35-0.35
		S9.45,8.12,9.26,8.12z"/>
	<path class="st5" d="M8.17,4.52c0,1.41-1.14,2.56-2.56,2.56H1.43c-0.39,0-0.7-0.31-0.7-0.7c0-2.44,1.98-4.42,4.42-4.42h0.46
		C7.02,1.96,8.17,3.11,8.17,4.52L8.17,4.52z"/>
	<path class="st11" d="M3.05,4.52c0-1.41,1.14-2.56,2.56-2.56h6.6c0.13,0,0.23,0.1,0.23,0.23c0,2.7-2.18,4.88-4.88,4.88H5.61
		C4.2,7.07,3.05,5.93,3.05,4.52z"/>
	<path class="st12" d="M29.21,6.75v8.14h-5.47V6.52h5.24C29.11,6.52,29.21,6.62,29.21,6.75z"/>
	<path class="st13" d="M20.29,6.52v8.37h-2.8V6.67c0-0.08,0.07-0.15,0.15-0.15H20.29z"/>
	<path class="st14" d="M21.96,16.74v-1.12c-2.15-0.61-3.72-2.58-3.72-4.92V8.84c0-2.82,2.29-5.11,5.11-5.11s5.11,2.29,5.11,5.11
		v0.93c0.64,0,1.16,0.52,1.16,1.16v0.44c0,0.64-0.5,1.18-1.14,1.19c-0.12,0-0.24-0.01-0.35-0.05c-0.57,1.5-1.83,2.67-3.39,3.11v1.12
		h2.79c0.12,0,0.24,0.01,0.36,0.02c0.49,0.05,0.77,0.58,0.54,1.02c-2.17,4.21-6.27,7.26-11.12,7.98v-5.76c0-1.8,1.46-3.25,3.25-3.25
		H21.96z"/>
	<path class="st8" d="M28.47,8.84v1.86c0,2.36-1.6,4.35-3.77,4.94c-0.42,0.11-0.86,0.11-1.28,0c-2.17-0.59-3.77-2.57-3.77-4.94V8.84
		c0-2.59,1.92-4.72,4.42-5.06C26.55,4.12,28.47,6.25,28.47,8.84L28.47,8.84z"/>
	<path class="st15" d="M22.68,11.01c-0.14-0.14-0.14-0.36,0-0.49c0.14-0.14,0.36-0.14,0.49,0c0.05,0.05,0.11,0.08,0.18,0.08
		s0.13-0.03,0.18-0.08c0.14-0.14,0.36-0.14,0.49,0c0.14,0.14,0.14,0.36,0,0.49c-0.18,0.18-0.42,0.28-0.67,0.28
		C23.1,11.29,22.86,11.19,22.68,11.01z M24.76,12.29c-0.14-0.14-0.36-0.14-0.49,0c-0.5,0.5-1.33,0.5-1.83,0
		c-0.14-0.14-0.36-0.14-0.49,0c-0.14,0.14-0.14,0.36,0,0.49c0.39,0.39,0.9,0.58,1.41,0.58c0.51,0,1.02-0.19,1.41-0.58
		C24.9,12.65,24.9,12.43,24.76,12.29L24.76,12.29z"/>
	<path class="st13" d="M21.84,9.19c0,0.39-0.31,0.7-0.7,0.7c-0.39,0-0.7-0.31-0.7-0.7c0-0.39,0.31-0.7,0.7-0.7
		C21.53,8.49,21.84,8.8,21.84,9.19z M25.56,8.49c-0.39,0-0.7,0.31-0.7,0.7c0,0.39,0.31,0.7,0.7,0.7c0.39,0,0.7-0.31,0.7-0.7
		S25.95,8.49,25.56,8.49z"/>
	<path class="st10" d="M21.96,8.84c0,0.19-0.16,0.35-0.35,0.35c-0.19,0-0.35-0.16-0.35-0.35c0-0.19,0.16-0.35,0.35-0.35
		C21.8,8.49,21.96,8.65,21.96,8.84z M26.03,8.49c-0.19,0-0.35,0.16-0.35,0.35c0,0.19,0.16,0.35,0.35,0.35s0.35-0.16,0.35-0.35
		C26.38,8.65,26.22,8.49,26.03,8.49z"/>
	<path class="st13" d="M24.47,3.73c0,2.05-1.66,3.72-3.72,3.72H18.2c-0.39,0-0.7-0.31-0.7-0.7c0-2.44,1.98-4.42,4.42-4.42h1.16
		C23.85,2.33,24.47,2.96,24.47,3.73L24.47,3.73z"/>
	<path class="st12" d="M29.21,6.13v1.32h-2.63c-1.68,0-3.04-1.36-3.04-3.04v-0.2c0-1.04,0.84-1.88,1.88-1.88
		C27.51,2.33,29.21,4.03,29.21,6.13z"/>
	<path class="st16" d="M24.53,26.58c0,0-0.01,0.01-0.01,0.01c-0.68,0.56-1.4,1.06-2.17,1.49c-0.07,0.04-0.16,0.07-0.26,0.08
		c-0.68,0.09-1.28-0.46-1.28-1.15v-6.09h5.11v2.71C25.91,24.77,25.41,25.86,24.53,26.58L24.53,26.58z"/>
	<path class="st17" d="M29.77,17.63c-0.63,3.59-2.55,6.74-5.25,8.97v-8.03c1.15-0.26,2.23-0.89,3.16-1.82
		C28.49,16.78,29.22,17.11,29.77,17.63z M15.92,19.99v6.4c1.45,1.16,6.27-0.25,6.27-0.25v-7.58c-1.15-0.26-2.23-0.89-3.16-1.82
		C17.3,16.82,15.92,18.24,15.92,19.99z"/>
	<path class="st18" d="M19.3,17c-1.17,0.49-1.98,1.65-1.98,3v7.36c-0.49-0.29-0.95-0.61-1.39-0.96v-6.4c0-1.75,1.38-3.18,3.11-3.25
		C19.12,16.83,19.21,16.92,19.3,17L19.3,17z"/>
	<path class="st19" d="M8.87,28.69c-0.48-0.21-0.94-0.45-1.39-0.72v-1.78c0-1.8,1.46-3.25,3.25-3.25h2.08
		c-1.8,0-3.25,1.46-3.25,3.25v2.29C9.55,28.48,9.09,28.79,8.87,28.69z"/>
	<path class="st20" d="M22.34,26.19v1.89C20.17,29.3,17.67,30,15,30c-2.19,0-4.26-0.47-6.13-1.31v-2.5c0-1.8,1.46-3.25,3.25-3.25
		h6.97C20.89,22.94,22.34,24.4,22.34,26.19z"/>
	<path class="st13" d="M15.68,26.89v3.1C15.45,29.99,15.23,30,15,30c-0.33,0-0.65-0.01-0.97-0.03v-3.08c0-0.18,0.15-0.33,0.33-0.33
		h0.99C15.53,26.56,15.68,26.71,15.68,26.89L15.68,26.89z"/>
	<path class="st21" d="M15.35,26.67h-0.99c-0.18,0-0.33-0.15-0.33-0.33v-1.92c0-0.18,0.15-0.33,0.33-0.33h0.99
		c0.18,0,0.33,0.15,0.33,0.33v1.92C15.68,26.53,15.53,26.67,15.35,26.67z"/>
	<path class="st19" d="M18.23,22.83l-1.87,3.2c-0.09,0.15-0.31,0.15-0.4,0l-1.05-1.81l-1.05,1.81c-0.09,0.15-0.31,0.15-0.4,0
		l-1.87-3.2c-0.09-0.16,0.02-0.35,0.2-0.35h6.25C18.21,22.48,18.32,22.67,18.23,22.83L18.23,22.83z"/>
	<path class="st22" d="M16.02,13.02v4.81H9.05V12.9c0-0.1,0.05-0.18,0.11-0.18h6.68C15.94,12.72,16.02,12.85,16.02,13.02
		L16.02,13.02z"/>
	<path class="st23" d="M20.76,13.16v4.67h-8.81v-5.11h8.36C20.56,12.72,20.76,12.91,20.76,13.16L20.76,13.16z"/>
	<path class="st6" d="M9.79,18.76c-0.64,0-1.16-0.52-1.16-1.16v-0.46c0-0.64,0.52-1.16,1.16-1.16c0.64,0,1.16,0.52,1.16,1.16v0.46
		C10.96,18.24,10.44,18.76,9.79,18.76z"/>
	<path class="st7" d="M9.33,16.9v0.93c0,0.38,0.18,0.72,0.46,0.93c-0.64,0-1.16-0.52-1.16-1.16v-0.46c0-0.64,0.52-1.16,1.16-1.16
		C9.51,16.18,9.33,16.52,9.33,16.9z M20.02,15.97v-0.93c0-2.82-2.29-5.11-5.11-5.11s-5.11,2.29-5.11,5.11v1.86
		c0,2.34,1.57,4.31,3.72,4.92v1.59c0,0.77,0.62,1.39,1.39,1.39c0.77,0,1.39-0.62,1.39-1.39v-1.59c1.56-0.44,2.82-1.61,3.39-3.11
		c0.1,0.03,0.22,0.05,0.33,0.05c0.64,0,1.16-0.52,1.16-1.16v-0.46C21.18,16.49,20.66,15.97,20.02,15.97L20.02,15.97z"/>
	<path class="st6" d="M20.02,15.04v1.86c0,2.36-1.6,4.35-3.77,4.94c-0.42,0.11-0.86,0.11-1.28,0c-2.17-0.59-3.77-2.57-3.77-4.94
		v-1.86c0-2.59,1.92-4.72,4.42-5.06C18.1,10.31,20.02,12.45,20.02,15.04L20.02,15.04z"/>
	<path class="st8" d="M14.23,17.21c-0.14-0.14-0.14-0.36,0-0.49c0.14-0.14,0.36-0.14,0.49,0c0.05,0.05,0.11,0.08,0.18,0.08
		s0.13-0.03,0.18-0.08c0.14-0.14,0.36-0.14,0.49,0c0.14,0.14,0.14,0.36,0,0.49c-0.18,0.18-0.42,0.28-0.67,0.28
		C14.65,17.49,14.41,17.39,14.23,17.21L14.23,17.21z M16.32,18.49c-0.14-0.14-0.36-0.14-0.49,0c-0.5,0.5-1.33,0.5-1.83,0
		c-0.14-0.14-0.36-0.14-0.49,0c-0.14,0.14-0.14,0.36,0,0.49c0.39,0.39,0.9,0.58,1.41,0.58s1.02-0.19,1.41-0.58
		C16.45,18.85,16.45,18.63,16.32,18.49L16.32,18.49z"/>
	<path class="st13" d="M13.4,15.39c0,0.39-0.31,0.7-0.7,0.7c-0.39,0-0.7-0.31-0.7-0.7c0-0.39,0.31-0.7,0.7-0.7S13.4,15,13.4,15.39z
		 M17.11,14.69c-0.39,0-0.7,0.31-0.7,0.7c0,0.39,0.31,0.7,0.7,0.7c0.39,0,0.7-0.31,0.7-0.7C17.81,15,17.5,14.69,17.11,14.69z"/>
	<path class="st10" d="M13.51,15.04c0,0.19-0.16,0.35-0.35,0.35c-0.19,0-0.35-0.16-0.35-0.35c0-0.19,0.16-0.35,0.35-0.35
		C13.36,14.69,13.51,14.85,13.51,15.04z M17.58,14.69c-0.19,0-0.35,0.16-0.35,0.35c0,0.19,0.16,0.35,0.35,0.35
		c0.19,0,0.35-0.16,0.35-0.35C17.93,14.85,17.77,14.69,17.58,14.69z"/>
	<path class="st22" d="M16.02,9.93c0,2.05-1.66,3.72-3.72,3.72H9.75c-0.39,0-0.7-0.31-0.7-0.7c0-2.44,1.98-4.42,4.42-4.42h1.16
		C15.4,8.53,16.02,9.16,16.02,9.93L16.02,9.93z"/>
	<path class="st23" d="M20.76,12.33v1.32h-2.63c-1.68,0-3.04-1.36-3.04-3.04v-0.2c0-1.04,0.84-1.88,1.88-1.88
		C19.06,8.53,20.76,10.23,20.76,12.33z"/>
	<path class="st5" d="M9.59,21.31H8.9c-0.16,0-0.29-0.13-0.29-0.29v-0.29c0-0.16,0.13-0.29,0.29-0.29h0.69
		c0.16,0,0.29,0.13,0.29,0.29v0.29C9.88,21.18,9.75,21.31,9.59,21.31L9.59,21.31z M18.52,27h-0.69c-0.16,0-0.29-0.13-0.29-0.29
		v-0.29c0-0.16,0.13-0.29,0.29-0.29h0.69c0.16,0,0.29,0.13,0.29,0.29v0.29C18.81,26.87,18.68,27,18.52,27z M27.1,20.44h-0.69
		c-0.16,0-0.29-0.13-0.29-0.29v-0.29c0-0.16,0.13-0.29,0.29-0.29h0.69c0.16,0,0.29,0.13,0.29,0.29v0.29
		C27.4,20.3,27.26,20.44,27.1,20.44z"/>
	<path class="st16" d="M10.15,21.31H9.49c-0.24,0-0.44-0.2-0.44-0.44s0.2-0.44,0.44-0.44h0.66c0.12,0,0.22,0.1,0.22,0.22v0.44
		C10.37,21.22,10.27,21.31,10.15,21.31z M19.08,27h-0.66c-0.24,0-0.44-0.2-0.44-0.44c0-0.24,0.2-0.44,0.44-0.44h0.66
		c0.12,0,0.22,0.1,0.22,0.22v0.44C19.3,26.9,19.2,27,19.08,27z M27.66,20.44H27c-0.24,0-0.44-0.2-0.44-0.44s0.2-0.44,0.44-0.44h0.66
		c0.12,0,0.22,0.1,0.22,0.22v0.44C27.88,20.34,27.78,20.44,27.66,20.44z"/>
</g>
</svg>
