<svg width="786" height="253" viewBox="0 0 786 253" fill="none" xmlns="http://www.w3.org/2000/svg">
<path d="M386.5 107.333C385.027 107.333 383.833 108.527 383.833 110C383.833 111.473 385.027 112.667 386.5 112.667C387.973 112.667 389.167 111.473 389.167 110C389.167 108.527 387.973 107.333 386.5 107.333ZM386 -2.18557e-08L386 110L387 110L387 2.18557e-08L386 -2.18557e-08Z" fill="white"/>
<path d="M386 234.333C384.527 234.333 383.333 235.527 383.333 237C383.333 238.473 384.527 239.667 386 239.667C387.473 239.667 388.667 238.473 388.667 237C388.667 235.527 387.473 234.333 386 234.333ZM385.5 127L385.5 237L386.5 237L386.5 127L385.5 127Z" fill="white"/>
<path d="M0.333333 250C0.333333 251.473 1.52724 252.667 3 252.667C4.47276 252.667 5.66667 251.473 5.66667 250C5.66667 248.527 4.47276 247.333 3 247.333C1.52724 247.333 0.333333 248.527 0.333333 250ZM3 127V126.5H2.5V127H3ZM783 127H783.5V126.5H783V127ZM780.333 250C780.333 251.473 781.527 252.667 783 252.667C784.473 252.667 785.667 251.473 785.667 250C785.667 248.527 784.473 247.333 783 247.333C781.527 247.333 780.333 248.527 780.333 250ZM3.5 250V127H2.5V250H3.5ZM3 127.5H199V126.5H3V127.5ZM199 127.5H769.5V126.5H199V127.5ZM769.5 127.5H783V126.5H769.5V127.5ZM782.5 127V250H783.5V127H782.5Z" fill="white"/>
</svg>
