<svg width="125" height="125" viewBox="0 0 125 125" fill="none" xmlns="http://www.w3.org/2000/svg">
<g clip-path="url(#clip0_2135_3048)">
<mask id="mask0_2135_3048" style="mask-type:luminance" maskUnits="userSpaceOnUse" x="0" y="0" width="125" height="125">
<path d="M125 0H0V125H125V0Z" fill="white"/>
</mask>
<g mask="url(#mask0_2135_3048)">
<path d="M112.938 26.8438V115.483C112.938 119.883 109.362 123.459 104.962 123.459H20.0425C15.6289 123.459 12.0664 119.883 12.0664 115.483V26.8438H112.938Z" fill="#E8F1F8"/>
<path opacity="0.12" d="M112.943 26.8457V115.483C112.943 119.879 109.363 123.459 104.966 123.459H20.0391C15.6291 123.459 12.0625 119.879 12.0625 115.483V94.095C21.2192 104.873 34.8767 111.708 50.1295 111.708C77.7035 111.708 100.051 89.3612 100.051 61.787C100.051 48.1815 94.6032 35.86 85.7837 26.846L112.943 26.8457Z" fill="black"/>
<path d="M112.935 26.8482V9.5171C112.935 5.11205 109.364 1.54102 104.959 1.54102H20.0386C15.6336 1.54102 12.0625 5.11205 12.0625 9.5171V26.8485L112.935 26.8482Z" fill="#474747"/>
<path d="M104.287 14.1943C104.287 16.5437 102.369 18.4404 100.041 18.4404C97.6917 18.4404 95.7734 16.5437 95.7734 14.1943C95.7734 11.8447 97.6919 9.94824 100.041 9.94824C102.369 9.94824 104.287 11.8447 104.287 14.1943Z" fill="#E8F1F8"/>
<path d="M90.8145 14.1943C90.8145 16.5437 88.896 18.4404 86.5685 18.4404C84.2188 18.4404 82.3008 16.5437 82.3008 14.1943C82.3008 11.8447 84.219 9.94824 86.5685 9.94824C88.896 9.94824 90.8145 11.8447 90.8145 14.1943Z" fill="#E8F1F8"/>
<path d="M77.3419 14.1943C77.3419 16.5437 75.4234 18.4404 73.0959 18.4404C70.7461 18.4404 68.8281 16.5437 68.8281 14.1943C68.8281 11.8447 70.7464 9.94824 73.0959 9.94824C75.4234 9.94824 77.3419 11.8447 77.3419 14.1943Z" fill="#E8F1F8"/>
<path d="M36.1133 95.8799V77.6191C36.1133 73.8424 38.128 70.3526 41.3988 68.4641L57.2138 59.3334C60.4845 57.4449 64.5143 57.4449 67.785 59.3334L83.6 68.4641C86.8708 70.3526 88.8858 73.8424 88.8858 77.6191V95.8799C88.8858 99.6569 86.8708 103.147 83.6 105.035L67.785 114.166C64.5143 116.054 60.4845 116.054 57.2138 114.166L41.3988 105.035C38.128 103.147 36.1133 99.6566 36.1133 95.8799Z" fill="#F78721"/>
<path opacity="0.12" d="M88.8778 77.6203V95.8843C88.8778 99.6575 86.861 103.154 83.5923 105.041L67.7835 114.165C64.5145 116.051 60.481 116.051 57.212 114.165L41.4038 105.041C38.8338 103.561 37.0448 101.089 36.3945 98.275C40.4768 100.471 45.1605 101.707 50.121 101.707C66.2548 101.707 79.3308 88.6305 79.3308 72.4968C79.3308 70.0898 79.038 67.7475 78.485 65.5195L83.592 68.4635C86.861 70.3505 88.8778 73.847 88.8778 77.6203Z" fill="black"/>
<path d="M52.6009 92.9019L47.8599 85.6594V92.1911C47.8599 92.9079 47.2799 93.4884 46.5629 93.4884C45.8459 93.4884 45.2656 92.9081 45.2656 92.1911V81.3099C45.2656 80.0256 46.9424 79.5234 47.6481 80.5994L52.3891 87.8419V81.3101C52.3891 80.5931 52.9694 80.0129 53.6864 80.0129C54.4034 80.0129 54.9834 80.5929 54.9834 81.3101V92.1914C54.9831 93.4751 53.3066 93.9774 52.6009 92.9019Z" fill="#E8F1F8"/>
<path d="M78.4346 82.6069H70.6996C69.9826 82.6069 69.4023 82.0269 69.4023 81.3099C69.4023 80.5927 69.9823 80.0127 70.6996 80.0127H78.4346C79.1513 80.0127 79.7318 80.5927 79.7318 81.3099C79.7318 82.0269 79.1516 82.6069 78.4346 82.6069Z" fill="#E8F1F8"/>
<path d="M74.5665 93.4882C73.8498 93.4882 73.2695 92.9082 73.2695 92.1912V81.3099C73.2695 80.5929 73.8495 80.0127 74.5665 80.0127C75.2835 80.0127 75.8635 80.5927 75.8635 81.3099V92.1912C75.8635 92.9082 75.2835 93.4882 74.5665 93.4882Z" fill="#E8F1F8"/>
<path d="M60.0314 93.4882C59.3146 93.4882 58.7344 92.9082 58.7344 92.1912V81.3099C58.7344 80.5929 59.3144 80.0127 60.0314 80.0127H65.4779C66.1946 80.0127 66.7749 80.5927 66.7749 81.3099C66.7749 82.0269 66.1949 82.6069 65.4779 82.6069H61.3286V92.1914C61.3286 92.9082 60.7486 93.4882 60.0314 93.4882Z" fill="#E8F1F8"/>
<path d="M65.4779 88.0464H60.0316C59.3146 88.0464 58.7344 87.4664 58.7344 86.7492C58.7344 86.0322 59.3144 85.4521 60.0316 85.4521H65.4779C66.1946 85.4521 66.7749 86.0322 66.7749 86.7492C66.7749 87.4664 66.1946 88.0464 65.4779 88.0464Z" fill="#E8F1F8"/>
<path d="M12.1436 26.8418L1.54297 34.8473H24.5056L32.2869 26.8418H12.1436Z" fill="#475DA9"/>
<path d="M32.2852 26.8418L24.5039 34.8473H49.8347L52.4285 26.8418H32.2852Z" fill="#E8F1F8"/>
<path d="M52.4297 26.8418L49.8359 34.8473H75.1664L72.5727 26.8418H52.4297Z" fill="#475DA9"/>
<path d="M72.5742 26.8418L75.168 34.8473H100.499L92.7177 26.8418H72.5742Z" fill="#E8F1F8"/>
<path d="M92.7148 26.8418L100.496 34.8473H123.459L112.858 26.8418H92.7148Z" fill="#475DA9"/>
<path d="M24.5059 38.2539V34.8477H1.54297V38.2539C1.54297 44.5949 6.68335 49.7352 13.0244 49.7352C19.3652 49.7352 24.5059 44.5949 24.5059 38.2539Z" fill="#ACBADF"/>
<path d="M49.8383 37.0699V34.8477H24.5078V37.0699C24.5078 44.0647 30.1783 49.7352 37.1731 49.7352C44.1681 49.7352 49.8383 44.0647 49.8383 37.0699Z" fill="#475DA9"/>
<path d="M75.1664 37.0699V34.8477H49.8359V37.0699C49.8359 44.0647 55.5064 49.7352 62.5012 49.7352C69.4962 49.7352 75.1664 44.0647 75.1664 37.0699Z" fill="#ACBADF"/>
<path d="M100.499 37.0699V34.8477H75.168V37.0699C75.168 44.0647 80.8385 49.7352 87.8332 49.7352C94.8282 49.7352 100.499 44.0647 100.499 37.0699Z" fill="#475DA9"/>
<path d="M123.459 38.2539V34.8477H100.496V38.2539C100.496 44.5949 105.636 49.7352 111.977 49.7352C118.319 49.7352 123.459 44.5949 123.459 38.2539Z" fill="#ACBADF"/>
</g>
</g>
<defs>
<clipPath id="clip0_2135_3048">
<rect width="125" height="125" fill="white"/>
</clipPath>
</defs>
</svg>
