<svg width="125" height="125" viewBox="0 0 125 125" fill="none" xmlns="http://www.w3.org/2000/svg">
<path d="M44.922 63.2715C33.3715 63.2715 22.6288 65.5367 13.6719 69.4257V118.254C22.6288 114.365 33.3715 112.1 44.922 112.1C57.3245 112.1 68.796 114.711 78.125 119.141V70.313C68.796 65.8832 57.3245 63.2715 44.922 63.2715Z" fill="#08CCF9"/>
<path d="M119.141 14.9326C109.201 9.28038 96.226 5.85938 82.0312 5.85938C72.1152 5.85938 62.7943 7.5289 54.6875 10.4623V71.7015C62.7943 68.7682 72.1152 67.0985 82.0312 67.0985C96.226 67.0985 109.201 70.5198 119.141 76.172V14.9326Z" fill="#6562F1"/>
<path d="M68.3595 16.3396C60.7222 13.8261 52.0977 12.4111 42.9688 12.4111C28.774 12.4111 15.799 15.8321 5.8594 21.4844L5.85938 80.0782C15.799 74.4259 28.774 71.0049 42.9688 71.0049C52.0977 71.0049 60.7222 72.4199 68.3595 74.9332V16.3396Z" fill="#5350EF"/>
<path d="M72.4889 56.1475L65.5149 62.1382C64.4702 63.0357 63.6812 64.1932 63.2279 65.494C62.7749 66.7945 62.6734 68.1917 62.9344 69.5442L63.7299 73.669L68.3357 76.2942C68.3612 76.3067 74.5894 79.3417 75.3944 79.7335C77.0844 80.5565 79.0149 80.7422 80.8309 80.2562C82.6469 79.7702 84.2267 78.6452 85.2799 77.088L86.3219 75.5477L88.4059 72.4675L72.4889 56.1475Z" fill="#EF7070"/>
<path d="M59.8143 76.7128L59.8646 76.6248C60.3991 75.6783 61.2746 74.9713 62.3123 74.6483C63.3501 74.325 64.4721 74.41 65.4493 74.8858C68.2253 76.2408 72.1323 78.1445 75.3948 79.7333C77.0851 80.5563 79.0153 80.742 80.8313 80.256C82.6476 79.77 84.2271 78.645 85.2803 77.0878L88.4066 72.4673L63.5983 47.031C62.2093 45.6068 61.4158 43.7065 61.3798 41.7175C61.3438 39.7283 62.0681 37.8005 63.4048 36.327L64.3358 35.3008L99.4276 68.2543C100.626 69.3798 101.439 70.855 101.751 72.4695L106.234 95.7153L117.186 107.422L116.43 108.892C114.209 113.207 110.395 116.487 105.795 118.036C101.196 119.585 96.1743 119.281 91.7958 117.188L88.0278 102.786L75.0891 91.0483L61.1998 82.2703C60.2978 81.7003 59.6506 80.8045 59.3926 79.7695C59.1346 78.7343 59.2856 77.6395 59.8143 76.7128Z" fill="#FA8481"/>
<path d="M50.7812 31.25H23.4375L13.6719 41.0155L37.1095 64.453L60.547 41.0155L50.7812 31.25Z" fill="#FA8481"/>
<path d="M60.547 41.0156H13.6719L37.1095 64.4531L60.547 41.0156Z" fill="#EF7070"/>
<path d="M37.1094 31.25L29.2969 41.0155L37.1094 64.453L44.9219 41.0155L37.1094 31.25Z" fill="#FB918E"/>
<path d="M62.2697 24.6992C58.4612 23.7886 54.5917 23.1563 50.6914 22.8073L50.8672 20.8623C54.8622 21.2198 58.8257 21.8675 62.7267 22.8004L62.2697 24.6992Z" fill="#7572F2"/>
<path d="M12.1058 28.5347L11.3281 26.7432C13.2352 25.9152 15.2349 25.1554 17.2711 24.4854L17.8817 26.3407C15.9018 26.9922 13.9586 27.7304 12.1058 28.5347Z" fill="#7572F2"/>
<path d="M78.6669 13.6719L75.6719 27.1537L96.3459 48.7233L104.735 61.9048L111.326 57.7098L102.937 44.5283L92.1489 16.6667L78.6669 13.6719Z" fill="#4CDAFB"/>
<path d="M92.15 16.6667L78.668 13.6719L99.6425 46.6257L102.938 44.5283L92.15 16.6667Z" fill="#08CCF9"/>
<path d="M110.845 21.641C107.77 19.9053 104.554 18.433 101.23 17.2401L101.895 15.4033C105.323 16.6341 108.64 18.1527 111.811 19.943L110.845 21.641Z" fill="#4B48D7"/>
<path d="M33.2031 87.8906H56.6406V103.516H33.2031V87.8906Z" fill="#06A4C9"/>
<path d="M118.658 86.7866C115.583 85.0508 112.366 83.5786 109.043 82.3856L109.707 80.5488C113.135 81.7796 116.452 83.2983 119.624 85.0886L118.658 86.7866Z" fill="#BEBEBE"/>
<path d="M70.2686 76.7956L69.8398 77.0251C70.8831 77.5333 72.2856 78.2168 73.4321 78.7753L85.2721 69.2503L83.9023 67.8458L73.3483 76.3361C73.8806 75.3551 74.1021 74.2356 73.9838 73.1258C73.8653 72.0161 73.4126 70.9683 72.6856 70.1216L72.3036 69.6768L79.2676 63.0936L77.9036 61.6953L70.2851 68.8968C70.1026 69.0693 69.9938 69.3053 69.9806 69.5561C69.9676 69.8066 70.0516 70.0526 70.2151 70.2431L71.2041 71.3943C71.5456 71.7918 71.7946 72.2596 71.9338 72.7648C72.0733 73.2698 72.0991 73.7993 72.0096 74.3153C71.9203 74.8316 71.7178 75.3216 71.4168 75.7503C71.1158 76.1791 70.7236 76.5361 70.2686 76.7956Z" fill="#FA8481"/>
<path d="M37.1094 31.25L44.9219 41.0155H29.2969L37.1094 31.25Z" fill="#FB9C9A"/>
<path d="M96.3867 48.7346L102.98 44.5391L111.371 57.7266L104.777 61.9221L96.3867 48.7346Z" fill="#06A4C9"/>
<path d="M93.1562 49.6448L104.963 42.1328L106.012 43.7811L94.205 51.2931L93.1562 49.6448Z" fill="#06A4C9"/>
<path d="M56.6406 94.7266H45.8986V87.8906H43.9454V94.7266H33.2031V96.6799H43.9454V103.516H45.8986V96.6799H56.6406V94.7266Z" fill="#07B7E0"/>
<path d="M48.8282 79.1016C48.0689 79.1023 47.3202 79.2803 46.6422 79.6216C45.964 79.9628 45.3749 80.4578 44.9219 81.0671C44.4237 80.4003 43.7635 79.8721 43.0034 79.5326C42.2435 79.1928 41.4094 79.0533 40.5804 79.1271C39.7514 79.2006 38.9549 79.4853 38.2669 79.9536C37.5789 80.4218 37.0219 81.0583 36.6492 81.8026C36.2767 82.5466 36.1004 83.3738 36.1377 84.2053C36.1747 85.0368 36.4239 85.8451 36.8614 86.5531C37.2992 87.2611 37.9104 87.8453 38.6377 88.2503C39.3647 88.6553 40.1832 88.8678 41.0157 88.8673H48.8282C50.1232 88.8673 51.3649 88.3528 52.2807 87.4371C53.1964 86.5213 53.7109 85.2796 53.7109 83.9846C53.7109 82.6893 53.1964 81.4476 52.2807 80.5318C51.3649 79.6161 50.1232 79.1016 48.8282 79.1016ZM38.0859 83.9846C38.0859 83.2073 38.3944 82.4623 38.9439 81.9128C39.4934 81.3633 40.2384 81.0548 41.0157 81.0548C41.7927 81.0548 42.5377 81.3633 43.0872 81.9128C43.6367 82.4623 43.9452 83.2073 43.9452 83.9846V86.9141H41.0157C40.2389 86.9133 39.4942 86.6043 38.9449 86.0551C38.3957 85.5058 38.0867 84.7611 38.0859 83.9846ZM48.8282 86.9141H45.8984V83.9846C45.8984 83.4051 46.0702 82.8386 46.3922 82.3568C46.7139 81.8751 47.1717 81.4996 47.7069 81.2778C48.2422 81.0561 48.8314 80.9981 49.3997 81.1111C49.9679 81.2241 50.4899 81.5031 50.8997 81.9128C51.3094 82.3226 51.5884 82.8446 51.7014 83.4128C51.8144 83.9811 51.7564 84.5703 51.5347 85.1056C51.3129 85.6408 50.9375 86.0986 50.4557 86.4203C49.974 86.7423 49.4074 86.9141 48.8282 86.9141Z" fill="#06A4C9"/>
</svg>
