<svg width="125" height="125" viewBox="0 0 125 125" fill="none" xmlns="http://www.w3.org/2000/svg">
<g clip-path="url(#clip0_2135_3080)">
<mask id="mask0_2135_3080" style="mask-type:luminance" maskUnits="userSpaceOnUse" x="0" y="0" width="125" height="125">
<path d="M125 0H0V125H125V0Z" fill="white"/>
</mask>
<g mask="url(#mask0_2135_3080)">
<path fill-rule="evenodd" clip-rule="evenodd" d="M44.2298 71.2508H34.5635V80.9168C34.5635 82.5278 33.2455 83.8461 31.6345 83.8461C30.0235 83.8461 28.7052 82.5278 28.7052 80.9168V71.2508H18.966C17.355 71.2508 16.0369 69.9328 16.0369 68.3216C16.0369 66.7106 17.355 65.3926 18.966 65.3926H28.7052V55.6533C28.7052 54.0423 30.0235 52.7241 31.6345 52.7241C33.2455 52.7241 34.5635 54.0423 34.5635 55.6533V65.3926H44.2298C45.8408 65.3926 47.1588 66.7106 47.1588 68.3216C47.1588 69.9328 45.8408 71.2508 44.2298 71.2508ZM67.0035 30.9756H58.802C57.191 30.9756 55.873 29.6573 55.873 28.0463V3.29533C55.873 1.68431 57.191 0.366211 58.802 0.366211H67.0035C73.0815 0.366211 78.1342 5.3457 78.1342 11.4969V19.8448C78.1342 25.9961 73.0815 30.9756 67.0035 30.9756ZM61.731 25.1173H67.0035C69.8595 25.1173 72.276 22.774 72.276 19.8448V11.4969C72.276 8.56773 69.8595 6.22445 67.0035 6.22445H61.731V25.1173ZM86.775 124.634C80.7702 124.634 75.864 119.728 75.864 113.65V97.6861H49.136V113.65C49.136 119.728 44.2298 124.634 38.1517 124.634C32.147 124.634 27.1675 119.728 27.1675 113.65V97.5396C11.9361 96.0751 0 83.1868 0 67.5893C0 51.0398 13.181 37.4928 29.3645 37.4928H95.6355C111.819 37.4928 124.927 51.0398 124.927 67.5893C124.927 83.1868 112.991 96.0751 97.7592 97.5396V113.65C97.7592 119.728 92.853 124.634 86.775 124.634ZM46.2067 91.8278H78.7933C80.4043 91.8278 81.7223 93.1458 81.7223 94.7571V113.65C81.7223 116.506 83.9925 118.776 86.775 118.776C89.631 118.776 91.901 116.506 91.901 113.65V94.7571C91.901 93.1458 93.219 91.8278 94.83 91.8278C108.231 91.8278 119.068 80.9901 119.068 67.5893C119.068 54.2618 108.597 43.3511 95.6355 43.3511H29.3645C16.403 43.3511 5.85823 54.2618 5.85823 67.5893C5.85823 80.9901 16.7692 91.8278 30.0968 91.8278C31.781 91.8278 33.0257 93.1458 33.0257 94.7571V113.65C33.0257 116.506 35.369 118.776 38.1517 118.776C41.0075 118.776 43.2777 116.506 43.2777 113.65V94.7571C43.2777 93.1458 44.5958 91.8278 46.2067 91.8278ZM100.615 18.6H87.2145C85.6035 18.6 84.2852 17.2819 84.2852 15.6709V3.29533C84.2852 1.68431 85.6035 0.366211 87.2145 0.366211H103.544C105.155 0.366211 106.473 1.68431 106.473 3.29533C106.473 4.90635 105.155 6.22445 103.544 6.22445H90.1435V12.7417H103.471H103.544C104.862 12.7417 105.961 13.5472 106.327 14.7189L106.4 14.7921V14.8653V14.9386V15.0118L106.473 15.085V15.1583V15.2315V15.3047V15.3779V15.4512V15.5244V15.5976V15.6709V28.0463C106.473 29.6573 105.155 30.9756 103.544 30.9756H87.2145C85.6035 30.9756 84.2852 29.6573 84.2852 28.0463C84.2852 26.4353 85.6035 25.1173 87.2145 25.1173H100.615V18.6ZM40.3485 21.8952H27.8265L24.0187 29.3646C23.5061 30.3896 22.4809 30.9756 21.3825 30.9756C20.9432 30.9756 20.5038 30.9023 20.0644 30.6826C18.5999 29.9503 18.0873 28.1928 18.8196 26.7283L23.4329 17.7212C23.4329 17.7212 23.4329 17.648 23.5061 17.5748L31.488 1.97722C31.5612 1.83077 31.5613 1.75754 31.6345 1.68431L31.7077 1.61108V1.53786H31.781V1.46463L31.9272 1.31817L32.0005 1.24495L32.0737 1.17172C32.3667 0.878806 32.6597 0.732351 32.9525 0.585893H33.0257L33.099 0.512666C33.1722 0.512666 33.2455 0.512666 33.3188 0.439438C33.6115 0.366211 33.8312 0.366211 34.1243 0.366211H34.1975H34.2707H34.344C34.5635 0.366211 34.71 0.439438 34.8565 0.439438L34.9297 0.512666H35.003C35.0762 0.512666 35.0763 0.512666 35.1495 0.585893C35.5155 0.659121 35.8085 0.878806 36.1012 1.17172L36.1745 1.24495L36.2477 1.31817H36.321V1.3914L36.3942 1.46463V1.53786H36.4675V1.61108L36.5407 1.68431C36.614 1.75754 36.614 1.83077 36.6872 1.97722L44.669 17.5748C44.7422 17.648 44.7422 17.7212 44.7422 17.7212L49.3555 26.7283C50.0878 28.1928 49.5753 29.9503 48.1108 30.6826C47.6713 30.9023 47.232 30.9756 46.7925 30.9756C45.6942 30.9756 44.669 30.3896 44.1565 29.3646L40.3485 21.8952ZM30.829 16.037H37.3463L34.1243 9.73938L30.829 16.037ZM88.8255 62.8296C84.7248 62.8296 81.3562 59.5343 81.3562 55.3603C81.3562 51.2596 84.7248 47.8911 88.8255 47.8911C92.9263 47.8911 96.2947 51.2596 96.2947 55.3603C96.2947 59.5343 92.9263 62.8296 88.8255 62.8296ZM88.8255 53.7493C87.9468 53.7493 87.2145 54.4816 87.2145 55.3603C87.2145 56.2391 87.9468 56.9713 88.8255 56.9713C89.7043 56.9713 90.4365 56.2391 90.4365 55.3603C90.4365 54.4816 89.7043 53.7493 88.8255 53.7493ZM88.8255 88.1663C84.7248 88.1663 81.3562 84.7981 81.3562 80.6973C81.3562 76.5963 84.7248 73.2281 88.8255 73.2281C92.9263 73.2281 96.2947 76.5963 96.2947 80.6973C96.2947 84.7981 92.9263 88.1663 88.8255 88.1663ZM88.8255 79.0861C87.9468 79.0861 87.2145 79.8186 87.2145 80.6973C87.2145 81.5758 87.9468 82.3083 88.8255 82.3083C89.7043 82.3083 90.4365 81.5758 90.4365 80.6973C90.4365 79.8186 89.7043 79.0861 88.8255 79.0861ZM101.494 75.4981C97.3197 75.4981 94.0245 72.1296 94.0245 68.0288C94.0245 63.9281 97.3197 60.5596 101.494 60.5596C105.594 60.5596 108.89 63.9281 108.89 68.0288C108.89 72.1296 105.594 75.4981 101.494 75.4981ZM101.494 66.4178C100.542 66.4178 99.8827 67.1501 99.8827 68.0288C99.8827 68.9076 100.542 69.6398 101.494 69.6398C102.372 69.6398 103.032 68.9076 103.032 68.0288C103.032 67.1501 102.372 66.4178 101.494 66.4178ZM76.157 75.4981C72.0562 75.4981 68.6878 72.1296 68.6878 68.0288C68.6878 63.9281 72.0562 60.5596 76.157 60.5596C80.2578 60.5596 83.6263 63.9281 83.6263 68.0288C83.6263 72.1296 80.2578 75.4981 76.157 75.4981ZM76.157 66.4178C75.2782 66.4178 74.546 67.1501 74.546 68.0288C74.546 68.9076 75.2782 69.6398 76.157 69.6398C77.0358 69.6398 77.768 68.9076 77.768 68.0288C77.768 67.1501 77.0358 66.4178 76.157 66.4178Z" fill="#006EA7"/>
<path fill-rule="evenodd" clip-rule="evenodd" d="M44.2307 65.3931C45.8417 65.3931 47.16 66.7111 47.16 68.3221C47.16 69.9333 45.8417 71.2513 44.2307 71.2513H34.5647V80.9173C34.5647 82.5283 33.2467 83.8466 31.6355 83.8466C30.0245 83.8466 28.7065 82.5283 28.7065 80.9173V71.2513H18.9672C17.3562 71.2513 16.0381 69.9333 16.0381 68.3221C16.0381 66.7111 17.3562 65.3931 18.9672 65.3931H28.7065V55.6538C28.7065 54.0428 30.0245 52.7246 31.6355 52.7246C33.2467 52.7246 34.5647 54.0428 34.5647 55.6538V65.3931H44.2307ZM95.6367 43.3516H29.3655C16.4042 43.3516 5.85938 54.2623 5.85938 67.5898C5.85938 80.9906 16.7703 91.8283 30.0977 91.8283C31.782 91.8283 33.027 93.1463 33.027 94.7576V113.65C33.027 116.506 35.3702 118.776 38.153 118.776C41.0087 118.776 43.2787 116.506 43.2787 113.65V94.7576C43.2787 93.1463 44.597 91.8283 46.208 91.8283H78.7945C80.4055 91.8283 81.7235 93.1463 81.7235 94.7576V113.65C81.7235 116.506 83.9935 118.776 86.7762 118.776C89.632 118.776 91.9022 116.506 91.9022 113.65V94.7576C91.9022 93.1463 93.2202 91.8283 94.8312 91.8283C108.232 91.8283 119.07 80.9906 119.07 67.5898C119.07 54.2623 108.598 43.3516 95.6367 43.3516ZM88.8265 62.8301C84.7257 62.8301 81.3572 59.5348 81.3572 55.3608C81.3572 51.2601 84.7257 47.8916 88.8265 47.8916C92.9272 47.8916 96.2957 51.2601 96.2957 55.3608C96.2957 59.5348 92.9272 62.8301 88.8265 62.8301ZM76.1582 75.4986C72.0575 75.4986 68.689 72.1301 68.689 68.0293C68.689 63.9286 72.0575 60.5601 76.1582 60.5601C80.259 60.5601 83.6275 63.9286 83.6275 68.0293C83.6275 72.1301 80.259 75.4986 76.1582 75.4986ZM88.8265 88.1668C84.7257 88.1668 81.3572 84.7986 81.3572 80.6978C81.3572 76.5968 84.7257 73.2286 88.8265 73.2286C92.9272 73.2286 96.2957 76.5968 96.2957 80.6978C96.2957 84.7986 92.9272 88.1668 88.8265 88.1668ZM101.495 75.4986C97.321 75.4986 94.0257 72.1301 94.0257 68.0293C94.0257 63.9286 97.321 60.5601 101.495 60.5601C105.596 60.5601 108.891 63.9286 108.891 68.0293C108.891 72.1301 105.596 75.4986 101.495 75.4986Z" fill="#59AAE7"/>
<path fill-rule="evenodd" clip-rule="evenodd" d="M74.5469 68.029C74.5469 68.9077 75.2791 69.64 76.1579 69.64C77.0366 69.64 77.7689 68.9077 77.7689 68.029C77.7689 67.1502 77.0366 66.418 76.1579 66.418C75.2791 66.418 74.5469 67.1502 74.5469 68.029Z" fill="#59AAE7"/>
<path fill-rule="evenodd" clip-rule="evenodd" d="M87.2148 55.36C87.2148 56.2388 87.9473 56.971 88.8258 56.971C89.7046 56.971 90.4371 56.2388 90.4371 55.36C90.4371 54.4813 89.7046 53.749 88.8258 53.749C87.9473 53.749 87.2148 54.4813 87.2148 55.36Z" fill="#59AAE7"/>
<path fill-rule="evenodd" clip-rule="evenodd" d="M101.494 66.418C100.542 66.418 99.8828 67.1502 99.8828 68.029C99.8828 68.9077 100.542 69.64 101.494 69.64C102.373 69.64 103.032 68.9077 103.032 68.029C103.032 67.1502 102.373 66.418 101.494 66.418Z" fill="#59AAE7"/>
<path fill-rule="evenodd" clip-rule="evenodd" d="M90.4371 80.6972C90.4371 79.8184 89.7046 79.0859 88.8258 79.0859C87.9473 79.0859 87.2148 79.8184 87.2148 80.6972C87.2148 81.5757 87.9473 82.3082 88.8258 82.3082C89.7046 82.3082 90.4371 81.5757 90.4371 80.6972Z" fill="#59AAE7"/>
</g>
</g>
<defs>
<clipPath id="clip0_2135_3080">
<rect width="125" height="125" fill="white"/>
</clipPath>
</defs>
</svg>
