<svg width="125" height="125" viewBox="0 0 125 125" fill="none" xmlns="http://www.w3.org/2000/svg">
<g clip-path="url(#clip0_2135_3095)">
<mask id="mask0_2135_3095" style="mask-type:luminance" maskUnits="userSpaceOnUse" x="0" y="0" width="125" height="125">
<path d="M125 0H0V125H125V0Z" fill="white"/>
</mask>
<g mask="url(#mask0_2135_3095)">
<path d="M76.9733 89.1568L89.1568 76.9733L20.0674 7.8838L1.95312 1.95312L7.8838 20.0674L76.9733 89.1568Z" fill="#F4EFED"/>
<path d="M78.8953 101.714L101.714 78.8953C103.713 76.8963 103.713 73.655 101.714 71.6555C99.7148 69.6565 96.473 69.6565 94.474 71.6555L71.6555 94.4735C69.6565 96.4725 69.6565 99.7137 71.6555 101.713C73.655 103.713 76.8963 103.713 78.8953 101.714Z" fill="#FCC24C"/>
<path d="M120.525 120.523C123.89 117.159 123.89 111.704 120.525 108.34L96.3983 84.2129L84.2148 96.3964L108.342 120.523C111.707 123.888 117.161 123.888 120.525 120.523Z" fill="#FCC24C"/>
<path d="M17.2476 10.7036L1.95312 1.95312L20.0674 7.8838L89.1568 76.9733L86.337 79.793L17.2476 10.7036Z" fill="#D6D1CF"/>
<path d="M98.188 82.4197C100.188 80.4207 100.187 77.1795 98.188 75.18C96.189 73.181 92.9473 73.181 90.9483 75.18L94.4728 71.6555C96.4718 69.6565 99.7135 69.6565 101.713 71.6555C103.712 73.6545 103.712 76.8963 101.713 78.8953L78.8945 101.714L98.188 82.4197Z" fill="#DEA42E"/>
<path d="M117.705 111.16L93.5781 87.0326L96.3979 84.2129L120.525 108.34C123.889 111.704 123.889 117.159 120.525 120.523C120.038 121.01 119.505 121.417 118.944 121.763C120.991 118.442 120.583 114.038 117.705 111.16Z" fill="#DEA42E"/>
<path d="M76.9734 90.1335C76.7146 90.1335 76.4661 90.0303 76.2831 89.8473L7.1932 20.7579C7.0843 20.6495 7.00325 20.5172 6.9559 20.3712L1.02522 2.25742C0.910477 1.90732 1.00227 1.52305 1.26253 1.26279C1.52278 1.00205 1.90657 0.91074 2.25667 1.025L20.3709 6.95565C20.5169 7.00352 20.6492 7.08505 20.7576 7.19345L89.8471 76.2827C90.2283 76.6642 90.2283 77.2822 89.8471 77.6637L77.6638 89.8473C77.4808 90.0303 77.2323 90.1335 76.9734 90.1335ZM8.7391 19.5416L76.9731 87.7755L87.7753 76.9733L19.5413 8.73935L3.4808 3.48105L8.7391 19.5416Z" fill="#690589"/>
<path d="M75.2765 104.189C73.648 104.189 72.1172 103.556 70.966 102.404C68.5895 100.027 68.5895 96.1597 70.966 93.7832L93.7842 70.9652C94.9355 69.8139 96.4665 69.1797 98.0947 69.1797C99.7232 69.1797 101.254 69.8139 102.405 70.9652C103.556 72.1167 104.19 73.6474 104.19 75.2754C104.19 76.9037 103.556 78.4344 102.405 79.5859L79.587 102.404C78.4355 103.556 76.9047 104.189 75.2765 104.189ZM98.0942 71.1332C96.9872 71.1332 95.9467 71.5644 95.1645 72.3467L72.3462 95.1649C70.731 96.7802 70.731 99.4082 72.3462 101.023C73.129 101.806 74.169 102.237 75.276 102.237C76.383 102.237 77.4225 101.806 78.2052 101.023L101.023 78.2054C101.806 77.4227 102.236 76.3827 102.236 75.2762C102.236 74.1699 101.805 73.1299 101.023 72.3472C100.241 71.5644 99.2012 71.1332 98.0942 71.1332Z" fill="#690589"/>
<path d="M83.0648 84.0414C82.8148 84.0414 82.5653 83.9461 82.3743 83.7553L1.26257 2.64342C0.881226 2.26209 0.881226 1.64392 1.26257 1.26257C1.64392 0.881226 2.26209 0.881226 2.64342 1.26257L83.7553 82.3743C84.1366 82.7558 84.1366 83.3738 83.7553 83.7553C83.5648 83.9461 83.3148 84.0414 83.0648 84.0414Z" fill="#690589"/>
<path d="M114.43 124.023C111.868 124.023 109.46 123.026 107.648 121.214L83.5206 97.0868C83.3374 96.9038 83.2344 96.655 83.2344 96.3963C83.2344 96.1375 83.3374 95.889 83.5206 95.706L95.7041 83.5223C96.0854 83.141 96.7036 83.141 97.0849 83.5223L121.212 107.649C123.024 109.461 124.022 111.87 124.022 114.432C124.022 116.994 123.024 119.402 121.212 121.214C119.401 123.026 116.993 124.023 114.43 124.023ZM85.5924 96.3963L109.029 119.833C110.472 121.276 112.39 122.07 114.43 122.07C116.471 122.07 118.389 121.276 119.832 119.833C121.274 118.391 122.069 116.473 122.069 114.432C122.069 112.392 121.274 110.474 119.832 109.031L96.3951 85.5945L85.5924 96.3963Z" fill="#690589"/>
<path d="M90.7772 103.937C90.5272 103.937 90.2777 103.842 90.0869 103.651C89.7054 103.27 89.7054 102.652 90.0869 102.27L102.27 90.0867C102.652 89.7055 103.27 89.7055 103.651 90.0867C104.033 90.4682 104.033 91.0862 103.651 91.4677L91.4677 103.651C91.2772 103.842 91.0272 103.937 90.7772 103.937Z" fill="#690589"/>
<path d="M98.2538 111.412C98.0038 111.412 97.7543 111.317 97.5633 111.126C97.182 110.745 97.182 110.126 97.5633 109.745L109.747 97.5613C110.128 97.1801 110.747 97.1801 111.128 97.5613C111.509 97.9428 111.509 98.5608 111.128 98.9423L98.9443 111.126C98.7533 111.317 98.5033 111.412 98.2538 111.412Z" fill="#690589"/>
<path d="M105.726 118.886C105.476 118.886 105.227 118.791 105.036 118.6C104.655 118.219 104.655 117.601 105.036 117.219L117.22 105.036C117.601 104.655 118.219 104.655 118.6 105.036C118.982 105.417 118.982 106.035 118.6 106.417L106.417 118.6C106.226 118.791 105.976 118.886 105.726 118.886Z" fill="#690589"/>
<path d="M48.0272 89.1568L35.8438 76.9733L104.933 7.8838L123.047 1.95312L117.117 20.0674L48.0272 89.1568Z" fill="#F4EFED"/>
<path d="M46.1028 101.714L23.2844 78.8953C21.2854 76.8963 21.2854 73.655 23.2844 71.6555C25.2833 69.6565 28.5251 69.6565 30.5241 71.6555L53.3421 94.4735C55.3411 96.4725 55.3411 99.7137 53.3421 101.713C51.3431 103.713 48.1018 103.713 46.1028 101.714Z" fill="#526FAA"/>
<path d="M4.47632 120.523C1.11206 117.159 1.11206 111.704 4.47632 108.34L28.6032 84.2129L40.7869 96.3964L16.6599 120.523C13.2952 123.888 7.84057 123.888 4.47632 120.523Z" fill="#526FAA"/>
<path d="M107.753 10.7036L123.047 1.95312L104.933 7.8838L35.8438 76.9733L38.6635 79.793L107.753 10.7036Z" fill="white"/>
<path d="M26.8127 82.4197C24.8132 80.4207 24.8137 77.1795 26.8127 75.18C28.8117 73.181 32.0534 73.181 34.0524 75.18L30.5282 71.6555C28.5292 69.6565 25.2874 69.6565 23.2883 71.6555C21.2893 73.6545 21.2893 76.8963 23.2883 78.8953L46.1062 101.714L26.8127 82.4197Z" fill="#708DC8"/>
<path d="M7.29564 111.16L31.4227 87.0326L28.6027 84.2129L4.47632 108.34C1.11206 111.704 1.11206 117.159 4.47632 120.523C4.96264 121.01 5.49584 121.417 6.05689 121.763C4.01002 118.442 4.41772 114.038 7.29564 111.16Z" fill="#708DC8"/>
<path d="M48.0266 90.1334C47.7679 90.1334 47.5194 90.0304 47.3364 89.8474L35.1531 77.6639C34.7719 77.2824 34.7719 76.6644 35.1531 76.2829L104.243 7.19358C104.351 7.08518 104.483 7.00365 104.629 6.9558L122.744 1.02513C123.093 0.91038 123.477 1.00266 123.738 1.26292C123.998 1.52317 124.09 1.90745 123.975 2.25755L118.044 20.3713C117.996 20.5168 117.915 20.6492 117.807 20.758L48.7171 89.8474C48.5341 90.0304 48.2859 90.1334 48.0266 90.1334ZM37.2244 76.9734L48.0266 87.7757L116.261 19.5417L121.52 3.4807L105.459 8.739L37.2244 76.9734Z" fill="#690589"/>
<path d="M49.726 104.189C48.0977 104.189 46.5669 103.556 45.416 102.404L22.5982 79.5859C21.4468 78.4344 20.8125 76.9037 20.8125 75.2754C20.8125 73.6469 21.4468 72.1167 22.5982 70.9652C23.749 69.8139 25.2797 69.1797 26.9082 69.1797C28.5367 69.1797 30.0675 69.8139 31.2187 70.9652L54.0372 93.7832C56.4134 96.1597 56.4134 100.027 54.0372 102.404C52.8852 103.556 51.3545 104.189 49.726 104.189ZM26.9077 71.1332C25.8007 71.1332 24.7612 71.5644 23.9785 72.3467C23.1963 73.1294 22.7651 74.1694 22.7651 75.2759C22.7651 76.3827 23.1963 77.4227 23.9785 78.2049L46.7965 101.023C47.5792 101.806 48.6187 102.236 49.7257 102.236C50.8324 102.236 51.8725 101.806 52.6552 101.023C54.2705 99.4077 54.2705 96.7797 52.6552 95.1644L29.837 72.3462C29.0552 71.5644 28.0147 71.1332 26.9077 71.1332Z" fill="#690589"/>
<path d="M41.9335 84.0414C41.6835 84.0414 41.434 83.9461 41.243 83.7553C40.8617 83.3738 40.8617 82.7558 41.243 82.3743L122.355 1.26257C122.736 0.881226 123.354 0.881226 123.736 1.26257C124.117 1.64392 124.117 2.26209 123.736 2.64342L42.624 83.7553C42.433 83.9461 42.183 84.0414 41.9335 84.0414Z" fill="#690589"/>
<path d="M10.5684 124.023C8.00635 124.023 5.59765 123.026 3.78612 121.214C1.97412 119.403 0.976562 116.994 0.976562 114.432C0.976562 111.87 1.97412 109.461 3.78612 107.649L27.913 83.5223C28.2945 83.141 28.9125 83.141 29.294 83.5223L41.4775 95.706C41.6607 95.889 41.7637 96.1375 41.7637 96.3963C41.7637 96.655 41.6607 96.9038 41.4775 97.0868L17.3501 121.214C15.5386 123.026 13.1304 124.023 10.5684 124.023ZM28.6035 85.594L5.167 109.03C3.72413 110.473 2.9297 112.392 2.9297 114.432C2.9297 116.472 3.72413 118.39 5.167 119.832C6.60938 121.275 8.52783 122.07 10.5684 122.07C12.6089 122.07 14.5268 121.275 15.9697 119.833L39.4067 96.3958L28.6035 85.594Z" fill="#690589"/>
<path d="M34.2226 103.937C33.9726 103.937 33.7231 103.842 33.5321 103.651L21.3485 91.4677C20.9672 91.0862 20.9672 90.4682 21.3485 90.0867C21.7299 89.7055 22.348 89.7055 22.7294 90.0867L34.9129 102.27C35.2944 102.652 35.2944 103.27 34.9129 103.651C34.7221 103.842 34.4726 103.937 34.2226 103.937Z" fill="#690589"/>
<path d="M26.7494 111.412C26.4994 111.412 26.2499 111.317 26.0589 111.126L13.8758 98.9423C13.4945 98.5608 13.4945 97.9428 13.8758 97.5613C14.2572 97.1801 14.8754 97.1801 15.2567 97.5613L27.4399 109.745C27.8211 110.126 27.8211 110.745 27.4399 111.126C27.2494 111.317 26.9994 111.412 26.7494 111.412Z" fill="#690589"/>
<path d="M19.2733 118.886C19.0233 118.886 18.7738 118.791 18.5829 118.6L6.39929 106.417C6.01794 106.035 6.01794 105.417 6.39929 105.036C6.78064 104.655 7.39879 104.655 7.78014 105.036L19.9637 117.219C20.3451 117.601 20.3451 118.219 19.9637 118.6C19.7728 118.791 19.5228 118.886 19.2733 118.886Z" fill="#690589"/>
<path d="M24.2461 40.4145C24.2461 67.7485 38.8287 93.0062 62.5005 106.673C86.1725 93.0062 100.755 67.7485 100.755 40.4145L62.5005 18.3281L24.2461 40.4145Z" fill="#8852A8"/>
<path d="M95.5353 37.4004C95.1993 66.0089 83.6528 92.2364 62.5 106.672C86.1718 93.0054 100.755 67.7481 100.755 40.4136L95.5353 37.4004Z" fill="#6A348A"/>
<path d="M29.4652 37.4004C29.8017 66.0089 41.3482 92.2359 62.5005 106.672C38.8287 93.0054 24.2461 67.7481 24.2461 40.4136L29.4652 37.4004Z" fill="#A670C6"/>
<path d="M62.501 107.649C62.332 107.649 62.164 107.606 62.0127 107.518C38.1152 93.7211 23.2695 68.0086 23.2695 40.4138C23.2695 40.0653 23.4556 39.7426 23.7578 39.5683L62.0127 17.4823C62.315 17.308 62.687 17.308 62.9892 17.4823L101.244 39.5688C101.546 39.7431 101.732 40.0658 101.732 40.4143C101.732 68.0086 86.8867 93.7216 62.9892 107.519C62.838 107.606 62.67 107.649 62.501 107.649ZM25.2247 40.9768C25.423 67.4741 39.6537 92.1211 62.501 105.543C85.3477 92.1216 99.5787 67.4741 99.777 40.9768L62.501 19.4554L25.2247 40.9768Z" fill="#690589"/>
<path d="M30.9594 54.9941C30.4919 54.9941 30.0789 54.6581 29.9974 54.1821C29.6629 52.2249 29.3856 50.2334 29.1736 48.2621C29.1161 47.7259 29.5036 47.2446 30.0399 47.1869C30.5666 47.1264 31.0574 47.5164 31.1151 48.0531C31.3231 49.9839 31.5946 51.9349 31.9226 53.8524C32.0134 54.3841 31.6561 54.8886 31.1244 54.9799C31.0691 54.9891 31.0139 54.9941 30.9594 54.9941Z" fill="#690589"/>
<path d="M62.5 72.7321L49.5092 79.5616L51.9902 65.0963L41.4805 54.8516L56.0042 52.7413L62.5 39.5801L68.9955 52.7413L83.5195 54.8516L73.0097 65.0963L75.4907 79.5616L62.5 72.7321Z" fill="#F4EFED"/>
<path d="M75.4912 80.5375C75.3359 80.5375 75.1797 80.5005 75.0367 80.4253L62.5004 73.835L49.9639 80.4258C49.6347 80.5993 49.2367 80.5698 48.9354 80.3515C48.6352 80.1328 48.4844 79.7628 48.5469 79.3965L50.9409 65.437L40.7989 55.5508C40.5327 55.2915 40.4369 54.9033 40.5517 54.5498C40.6664 54.1963 40.9722 53.939 41.3404 53.8853L55.3564 51.8488L61.6244 39.148C61.7889 38.8145 62.1284 38.6035 62.5004 38.6035C62.8724 38.6035 63.2119 38.8145 63.3764 39.148L69.6444 51.8488L83.6607 53.8853C84.0287 53.9385 84.3344 54.1963 84.4492 54.5498C84.5639 54.9033 84.4682 55.2915 84.2022 55.5508L74.0599 65.437L76.4542 79.3965C76.5167 79.7628 76.3657 80.1328 76.0654 80.3515C75.8954 80.475 75.6939 80.5375 75.4912 80.5375ZM62.5004 71.755C62.6562 71.755 62.8129 71.7925 62.9552 71.8668L74.1947 77.776L72.0484 65.2608C71.9947 64.9443 72.0992 64.621 72.3292 64.3965L81.4224 55.5333L68.8564 53.707C68.5382 53.6613 68.2632 53.4615 68.1207 53.1728L62.5004 41.7863L56.8809 53.1728C56.7382 53.461 56.4639 53.6613 56.1449 53.707L43.5792 55.5333L52.6724 64.3965C52.9024 64.621 53.0069 64.9443 52.9532 65.2608L50.8067 77.776L62.0464 71.8668C62.1879 71.7925 62.3447 71.755 62.5004 71.755Z" fill="#690589"/>
</g>
</g>
<defs>
<clipPath id="clip0_2135_3095">
<rect width="125" height="125" fill="white"/>
</clipPath>
</defs>
</svg>
