<svg width="120" height="106" viewBox="0 0 120 106" fill="none" xmlns="http://www.w3.org/2000/svg">
<path d="M93.3031 26.9396C90.15 27.894 89 29.7805 87.8501 31.667C87.204 32.3754 86.0216 32.7333 85.3431 31.9131C84.8067 31.5626 84.6646 31.0929 84.3802 30.1534L79.4158 8.06775C79.2736 7.598 78.9891 6.65855 78.4528 6.30811C77.9165 5.95767 77.3802 5.6073 76.5919 5.84592L58.8559 11.2147C57.2793 11.692 56.3813 12.9894 56.0196 14.6372C55.658 16.2851 56.2267 18.1641 57.4416 19.3347C58.6565 20.5053 59.3349 21.3256 60.0459 23.6743C61.1835 27.4323 58.6316 31.7943 54.2962 33.1067C49.9607 34.419 45.4181 32.2046 44.2805 28.4466C43.7117 26.5676 43.6792 25.0391 44.0409 23.3912C44.4026 21.7433 43.8338 19.8643 42.619 18.6937C41.4041 17.5231 39.9373 16.9415 38.3608 17.4187L20.6247 22.7876C20.2306 22.9069 19.5845 23.6151 19.3326 24.2042C19.0806 24.7933 19.2228 25.263 19.5072 26.2025L27.6247 47.3337C27.9091 48.2732 27.6573 48.8622 27.7995 49.3319C27.2956 50.51 26.6495 51.2184 25.1827 50.6369C23.1795 49.7048 21.3186 49.2426 18.1655 50.197C12.6476 51.8673 10.1607 59.2865 12.578 67.2722C14.9953 75.2579 21.1794 80.0522 26.6972 78.3819C29.8503 77.4275 31.0003 75.5409 32.1502 73.6545C32.7963 72.9461 33.9788 72.5882 34.6573 73.4084C35.1936 73.7588 35.3358 74.2286 35.6202 75.168L40.5846 97.2537C40.7268 97.7235 41.0112 98.6629 41.5475 99.0134C42.0839 99.3638 42.6202 99.7143 43.4085 99.4757L61.1445 94.1069C62.7211 93.6297 63.6192 92.3322 63.9809 90.6843C64.3425 89.0365 63.7738 87.1575 62.5589 85.9869C61.344 84.8162 60.6654 83.9961 59.9545 81.6473C58.8169 77.8894 61.3687 73.5274 65.7042 72.215C70.0397 70.9026 74.5823 73.1171 75.7199 76.875C76.2887 78.754 76.3212 80.2826 75.9595 81.9304C75.5978 83.5783 76.1666 85.4573 77.3814 86.6279C78.5963 87.7985 80.0631 88.3801 81.6396 87.9029L99.3757 82.5341C99.7698 82.4148 100.416 81.7063 100.668 81.1173C100.92 80.5282 100.778 80.0585 100.493 79.119L92.3756 57.9878C92.0912 57.0483 92.3432 56.4593 92.201 55.9895C92.7049 54.8114 93.3509 54.1031 94.8177 54.6846C96.8208 55.6166 98.6818 56.0789 101.835 55.1244C107.353 53.4541 109.84 46.035 107.422 38.0493C105.005 30.0636 98.821 25.2693 93.3031 26.9396Z" fill="url(#paint0_linear_2143_5368)"/>
<defs>
<linearGradient id="paint0_linear_2143_5368" x1="48.4112" y1="14.3764" x2="71.5891" y2="90.9452" gradientUnits="userSpaceOnUse">
<stop stop-color="#9AEDAD"/>
<stop offset="1" stop-color="#06CFF1"/>
</linearGradient>
</defs>
</svg>
