<svg width="80" height="80" viewBox="0 0 80 80" fill="none" xmlns="http://www.w3.org/2000/svg">
<path d="M40 0C17.9443 0 0 17.9443 0 40C0 62.0556 17.9443 80 40 80C62.0556 80 80 62.0556 80 40C80 17.9443 62.0556 0 40 0ZM60.8696 41.7391H40C39.04 41.7391 38.2609 40.96 38.2609 40V12.1739C38.2609 11.2139 39.04 10.4348 40 10.4348C40.96 10.4348 41.7391 11.2139 41.7391 12.1739V38.2609H60.8696C61.8296 38.2609 62.6087 39.04 62.6087 40C62.6087 40.96 61.8296 41.7391 60.8696 41.7391Z" fill="url(#paint0_linear_2143_5372)"/>
<defs>
<linearGradient id="paint0_linear_2143_5372" x1="40" y1="0" x2="40" y2="80" gradientUnits="userSpaceOnUse">
<stop stop-color="#9AEDAD"/>
<stop offset="1" stop-color="#06CFF1"/>
</linearGradient>
</defs>
</svg>
