<svg width="138" height="80" viewBox="0 0 138 80" fill="none" xmlns="http://www.w3.org/2000/svg">
<path d="M33.5725 6.28571C29.0011 1.71429 9.57254 0.571429 3.28683 0C2.7154 0 2.14397 -5.53472e-07 1.57254 0.571428C1.00112 1.14286 0.429688 2.28571 0.429688 2.85714V54.2857C0.429688 56 1.57254 57.1429 3.28683 57.1429H20.4297C21.5725 57.1429 22.7154 56.5714 23.2868 55.4286C23.2868 53.7143 33.5725 23.4286 34.7154 8.57143C34.7154 8 34.7154 6.85714 33.5725 6.28571Z" fill="url(#paint0_linear_2143_5374)"/>
<path d="M79.2921 14.2838C69.0064 9.71233 64.435 11.998 55.2921 21.1409C51.2921 25.1409 48.435 30.8552 49.0064 33.1409C49.0064 33.7123 49.0064 33.7123 50.1493 34.2838C53.0064 35.4266 57.0064 35.998 61.0064 29.7123C61.5778 29.1409 62.1493 28.5695 63.2921 28.5695C65.0064 28.5695 65.5778 27.998 67.2921 27.4266C68.435 26.8552 69.5778 26.2838 71.2921 25.7123C71.8635 25.7123 71.8635 25.7123 72.435 25.7123C73.0064 25.7123 74.1493 26.2838 74.7207 26.2838C77.5778 29.1409 82.7207 33.1409 87.8635 37.7123C95.8635 43.998 103.864 50.8552 107.864 55.998H108.435C104.435 44.5695 97.5778 25.1409 94.7207 19.998C89.0064 18.2838 83.8635 15.998 79.2921 14.2838Z" fill="url(#paint1_linear_2143_5374)"/>
<path d="M134.717 5.71387C112.431 5.71387 99.8599 11.4282 99.2885 11.4282C98.7171 11.9996 98.1456 12.571 97.5742 13.1424C97.5742 13.7139 97.5742 14.8567 98.1456 15.4282C101.574 21.1424 113.003 52.571 114.717 60.571C115.289 61.7139 116.431 62.8567 117.574 62.8567H134.717C136.431 62.8567 137.574 61.7139 137.574 59.9996V8.57101C137.574 6.85672 136.431 5.71387 134.717 5.71387Z" fill="url(#paint2_linear_2143_5374)"/>
<path d="M83.2835 42.2854C78.7121 38.2854 74.1406 34.8569 70.7121 31.9997C70.1406 32.5712 68.9978 32.5711 68.9978 33.1426C67.2835 33.714 66.7121 34.2854 64.4263 34.2854C59.8549 39.9997 54.1406 42.2854 47.8549 39.9997C44.9978 39.4283 43.2835 37.1426 42.7121 34.8569C41.5692 29.1426 46.7121 21.1426 50.7121 17.1426H39.2835C36.9978 28.5711 32.9978 43.4283 30.1406 51.4283C32.4263 53.714 34.7121 56.5711 36.4263 57.714C47.2835 66.8569 59.8549 75.9997 62.1406 77.714C63.8549 78.8569 67.2835 79.9997 68.9978 79.9997C69.5692 79.9997 70.1406 79.9997 70.7121 79.9997L61.5692 70.8569C60.4263 69.714 60.4263 67.9997 61.5692 66.8569C62.7121 65.714 64.4263 65.714 65.5692 66.8569L76.9978 78.2854C78.1406 79.4283 79.2835 78.8569 80.4263 78.8569C82.1406 78.2854 82.7121 77.1426 83.2835 75.4283L70.1406 62.2854C68.9978 61.1426 68.9978 59.4283 70.1406 58.2854C71.2835 57.1426 72.9978 57.1426 74.1406 58.2854L88.4263 72.5712C88.9978 73.1426 91.2835 73.1426 92.9978 72.5712C93.5692 71.9997 94.7121 71.4283 95.2835 70.2854L79.2835 54.2854C78.1406 53.1426 78.1406 51.4283 79.2835 50.2854C80.4263 49.1426 82.1406 49.1426 83.2835 50.2854L99.8549 66.8569C100.998 67.4283 102.141 66.8569 103.283 66.2854C103.855 65.714 104.998 63.9997 103.855 61.714C101.569 56.5711 91.8549 49.1426 83.2835 42.2854Z" fill="url(#paint3_linear_2143_5374)"/>
<defs>
<linearGradient id="paint0_linear_2143_5374" x1="17.5725" y1="0" x2="17.5725" y2="57.1429" gradientUnits="userSpaceOnUse">
<stop stop-color="#9AEDAD"/>
<stop offset="1" stop-color="#06CFF1"/>
</linearGradient>
<linearGradient id="paint1_linear_2143_5374" x1="78.6843" y1="11.998" x2="78.6843" y2="55.998" gradientUnits="userSpaceOnUse">
<stop stop-color="#9AEDAD"/>
<stop offset="1" stop-color="#06CFF1"/>
</linearGradient>
<linearGradient id="paint2_linear_2143_5374" x1="117.574" y1="5.71387" x2="117.574" y2="62.8567" gradientUnits="userSpaceOnUse">
<stop stop-color="#9AEDAD"/>
<stop offset="1" stop-color="#06CFF1"/>
</linearGradient>
<linearGradient id="paint3_linear_2143_5374" x1="67.2423" y1="17.1426" x2="67.2423" y2="79.9997" gradientUnits="userSpaceOnUse">
<stop stop-color="#9AEDAD"/>
<stop offset="1" stop-color="#06CFF1"/>
</linearGradient>
</defs>
</svg>
