<svg width="80" height="80" viewBox="0 0 80 80" fill="none" xmlns="http://www.w3.org/2000/svg">
<path d="M14.2165 16.4633L32.5499 26.4633C33.2932 26.8733 34.2165 26.6567 34.7032 25.97L42.1332 15.57L45.8899 21.0333L40.9365 23.51C40.2999 23.83 39.9365 24.5167 40.0332 25.2233C40.1265 25.9267 40.6599 26.4967 41.3565 26.6367L49.6899 28.3033C49.7965 28.3267 49.9065 28.3367 50.0199 28.3367C50.7965 28.3367 51.4899 27.79 51.6499 26.9967C51.8332 26.0933 51.2465 25.2167 50.3399 25.0367L46.7732 24.3233L49.0932 23.1633C49.5232 22.9467 49.8432 22.5567 49.9632 22.09C50.0832 21.6233 49.9965 21.1267 49.7232 20.73L38.8132 4.86333C38.4232 4.29667 37.9532 3.81667 37.4799 3.34H51.4465C53.1232 3.34 54.6765 4.17333 55.6065 5.56667L60.2932 12.5967C60.7599 13.3 61.6799 13.5333 62.4265 13.1633L65.0865 11.8333L58.4765 27.6967C58.1265 28.5467 58.5265 29.5233 59.3765 29.8767C59.5799 29.96 59.7965 30 60.0132 30C60.6632 30 61.2865 29.6133 61.5532 28.9733L69.8865 8.97333C70.1532 8.33 69.9932 7.58667 69.4832 7.11333C68.9732 6.64 68.2265 6.53 67.6032 6.84L62.2532 9.51667L58.3832 3.71C56.8299 1.39 54.2399 0 51.4465 0H31.6799C31.4065 0 31.1599 0.08 30.9332 0.196667C30.5899 0.156667 30.2632 0.0633333 29.9099 0.0533333C26.2932 -0.05 22.9865 1.59333 20.8165 4.48333L13.6799 14C13.3899 14.3867 13.2799 14.88 13.3832 15.3533C13.4865 15.8267 13.7899 16.2333 14.2165 16.4633ZM23.4832 6.48333C24.9999 4.46333 27.3832 3.36667 29.8432 3.38667C32.3665 3.44 34.6365 4.66333 36.0632 6.74333L40.1199 12.6467L32.8499 22.83L17.5032 14.46L23.4832 6.48333ZM79.2032 42.9833L71.4699 29.1867C71.2499 28.7933 70.8765 28.5067 70.4399 28.39C70.0065 28.2733 69.5399 28.34 69.1565 28.5733L60.8232 33.5733C60.0332 34.0467 59.7765 35.07 60.2499 35.86C60.7265 36.6533 61.7532 36.9033 62.5365 36.43L69.3999 32.3133L76.2599 44.54C76.8499 45.72 76.7865 47.0933 76.0932 48.2133C76.0065 48.3533 75.8899 48.4633 75.7899 48.59C75.6065 48.7067 75.4432 48.8633 75.3132 49.0533L75.2565 49.1333C74.5932 49.6733 73.7732 50 72.8832 50H64.1799L59.6799 44C59.1232 43.26 58.0799 43.1133 57.3465 43.6633C56.6099 44.2167 56.4599 45.26 57.0099 45.9967L60.0099 49.9967H51.6765C50.7565 49.9967 50.0099 50.7433 50.0099 51.6633C50.0099 52.5833 50.7565 53.33 51.6765 53.33H72.3432L63.2899 66.4067C61.7365 68.66 59.1699 70 56.4399 70H51.6799C50.7599 70 50.0132 70.7467 50.0132 71.6667V73.95L40.4765 63.22L48.0399 52.6367C48.5732 51.8833 48.3999 50.8467 47.6532 50.31C46.8999 49.78 45.8632 49.9533 45.3265 50.6967L36.9932 62.3633C36.5399 62.9967 36.5865 63.86 37.1032 64.44L50.4365 79.44C50.7565 79.8033 51.2132 80 51.6799 80C51.8799 80 52.0799 79.9633 52.2732 79.8933C52.9199 79.6467 53.3465 79.0267 53.3465 78.3333V73.3333H56.4399C60.2632 73.3333 63.8532 71.4567 66.0365 68.3067L77.7199 51.4233C78.1765 50.9967 78.5865 50.5133 78.9265 49.9633C80.2299 47.8533 80.3499 45.27 79.2032 42.9833ZM31.6799 50H7.1432C6.2832 50 5.4732 49.7133 4.81987 49.2033L4.71654 49.0533C4.56987 48.8433 4.3832 48.6733 4.1732 48.5567C4.08987 48.4467 4.00987 48.3333 3.93654 48.2133C3.2432 47.09 3.17987 45.72 3.76987 44.54L9.83654 32.41C10.1565 31.77 10.0332 30.9933 9.5232 30.4867L5.7032 26.6667H23.3465C24.2665 26.6667 25.0132 25.92 25.0132 25C25.0132 24.08 24.2665 23.3333 23.3465 23.3333H1.67987C1.00654 23.3333 0.396536 23.74 0.139869 24.3633C-0.120131 24.9867 0.0232027 25.7 0.499869 26.18L6.31654 31.9967L0.786536 43.05C-0.323464 45.27 -0.203464 47.8533 1.09987 49.9633C1.44654 50.5233 1.85987 51.02 2.3232 51.4533L13.9899 68.31C16.1765 71.4567 19.7632 73.3333 23.5865 73.3333H31.6799C32.5999 73.3333 33.3465 72.5867 33.3465 71.6667V51.6667C33.3465 50.7467 32.5999 50 31.6799 50ZM30.0132 70H23.5865C20.8532 70 18.2932 68.66 16.7332 66.4133L7.67987 53.3333H30.0132V70Z" fill="url(#paint0_linear_2144_5380)"/>
<defs>
<linearGradient id="paint0_linear_2144_5380" x1="40.0007" y1="0" x2="40.0007" y2="80" gradientUnits="userSpaceOnUse">
<stop stop-color="#9AEDAD"/>
<stop offset="1" stop-color="#06CFF1"/>
</linearGradient>
</defs>
</svg>
