<svg width="108" height="80" viewBox="0 0 108 80" fill="none" xmlns="http://www.w3.org/2000/svg">
<path d="M20.6697 79.9996C14.5408 79.9996 9.55859 75.0129 9.55859 68.8885C9.55859 62.764 14.5408 57.7773 20.6697 57.7773C26.7986 57.7773 31.7808 62.764 31.7808 68.8885C31.7808 75.0129 26.7986 79.9996 20.6697 79.9996ZM20.6697 62.2218C16.9941 62.2218 14.003 65.2129 14.003 68.8885C14.003 72.564 16.9941 75.5552 20.6697 75.5552C24.3453 75.5552 27.3364 72.564 27.3364 68.8885C27.3364 65.2129 24.3453 62.2218 20.6697 62.2218Z" fill="url(#paint0_linear_2144_5384)"/>
<path d="M87.3377 79.9996C81.2088 79.9996 76.2266 75.0129 76.2266 68.8885C76.2266 62.764 81.2088 57.7773 87.3377 57.7773C93.4666 57.7773 98.4488 62.764 98.4488 68.8885C98.4488 75.0129 93.4666 79.9996 87.3377 79.9996ZM87.3377 62.2218C83.6621 62.2218 80.671 65.2129 80.671 68.8885C80.671 72.564 83.6621 75.5552 87.3377 75.5552C91.0132 75.5552 94.0043 72.564 94.0043 68.8885C94.0043 65.2129 91.0132 62.2218 87.3377 62.2218Z" fill="url(#paint1_linear_2144_5384)"/>
<path d="M102.29 41.449C99.0635 40.6401 96.1169 38.9734 93.7702 36.6268L73.7302 16.5912C71.9124 14.7734 69.5746 13.6623 67.0546 13.3956L59.3524 2.75556C58.1035 1.03111 56.0858 0 53.9524 0H7.33464C3.65908 0 0.667969 2.99112 0.667969 6.66668V60.0001C0.667969 66.1246 5.65019 71.1113 11.7791 71.1113C11.8857 71.1113 11.9746 71.0668 12.0769 71.0535C11.8991 70.3557 11.7791 69.6402 11.7791 68.8891C11.7791 63.9779 15.7569 60.0001 20.668 60.0001C25.5791 60.0001 29.5569 63.9779 29.5569 68.8891C29.5569 69.6402 29.4369 70.3557 29.2591 71.0535C29.3613 71.0668 29.4502 71.1113 29.5569 71.1113H78.4457C78.5524 71.1113 78.6413 71.0668 78.7435 71.0535C78.5658 70.3557 78.4457 69.6402 78.4457 68.8891C78.4457 63.9779 82.4235 60.0001 87.3346 60.0001C92.2458 60.0001 96.2235 63.9779 96.2235 68.8891C96.2235 69.6402 96.1035 70.3557 95.9258 71.0535C96.028 71.0668 96.1169 71.1113 96.2235 71.1113C102.352 71.1113 107.335 66.1246 107.335 60.0001V47.9157C107.335 44.849 105.259 42.1912 102.29 41.449ZM42.8902 44.4445H16.2235C14.9969 44.4445 14.0013 43.449 14.0013 42.2223C14.0013 40.9957 14.9969 40.0001 16.2235 40.0001H42.8902C44.1169 40.0001 45.1124 40.9957 45.1124 42.2223C45.1124 43.449 44.1169 44.4445 42.8902 44.4445ZM42.8902 31.1112H16.2235C14.9969 31.1112 14.0013 30.1156 14.0013 28.889C14.0013 27.6623 14.9969 26.6667 16.2235 26.6667H42.8902C44.1169 26.6667 45.1124 27.6623 45.1124 28.889C45.1124 30.1156 44.1169 31.1112 42.8902 31.1112ZM51.7791 17.7778H16.2235C14.9969 17.7778 14.0013 16.7823 14.0013 15.5556C14.0013 14.3289 14.9969 13.3334 16.2235 13.3334H51.7791C53.0057 13.3334 54.0013 14.3289 54.0013 15.5556C54.0013 16.7823 53.0057 17.7778 51.7791 17.7778ZM69.5569 53.3335H65.1124C63.8857 53.3335 62.8902 52.3379 62.8902 51.1112C62.8902 49.8846 63.8857 48.889 65.1124 48.889H69.5569C70.7835 48.889 71.7791 49.8846 71.7791 51.1112C71.7791 52.3379 70.7835 53.3335 69.5569 53.3335ZM82.8902 44.4445H56.2235C54.9969 44.4445 54.0013 43.449 54.0013 42.2223V24.4445C54.0013 23.2178 54.9969 22.2223 56.2235 22.2223C57.4502 22.2223 58.4457 23.2178 58.4457 24.4445V40.0001H82.8902C84.1169 40.0001 85.1124 40.9957 85.1124 42.2223C85.1124 43.449 84.1169 44.4445 82.8902 44.4445Z" fill="url(#paint2_linear_2144_5384)"/>
<defs>
<linearGradient id="paint0_linear_2144_5384" x1="20.6697" y1="57.7773" x2="20.6697" y2="79.9996" gradientUnits="userSpaceOnUse">
<stop stop-color="#9AEDAD"/>
<stop offset="1" stop-color="#06CFF1"/>
</linearGradient>
<linearGradient id="paint1_linear_2144_5384" x1="87.3377" y1="57.7773" x2="87.3377" y2="79.9996" gradientUnits="userSpaceOnUse">
<stop stop-color="#9AEDAD"/>
<stop offset="1" stop-color="#06CFF1"/>
</linearGradient>
<linearGradient id="paint2_linear_2144_5384" x1="54.0013" y1="0" x2="54.0013" y2="71.1113" gradientUnits="userSpaceOnUse">
<stop stop-color="#9AEDAD"/>
<stop offset="1" stop-color="#06CFF1"/>
</linearGradient>
</defs>
</svg>
