<svg width="80" height="80" viewBox="0 0 80 80" fill="none" xmlns="http://www.w3.org/2000/svg">
<path d="M75.4574 34.0835C74.2226 33.1757 72.6852 32.0417 72.487 31.2939C72.2678 30.4696 73.0539 28.6643 73.6835 27.2139C74.7687 24.72 75.8887 22.1426 74.6435 19.993C73.3843 17.8191 70.567 17.4991 67.84 17.193C66.2887 17.0191 64.3548 16.8035 63.7739 16.2226C63.193 15.6417 62.9774 13.7113 62.8035 12.1565C62.4974 9.43304 62.1809 6.61217 60.0035 5.35304C58.1078 4.26087 55.3113 5.21391 52.7861 6.31304C51.3983 6.91826 49.9861 7.51304 48.7061 7.50956C47.9548 7.30783 46.8209 5.77043 45.913 4.53913C44.3478 2.41391 42.567 0 40 0C37.433 0 35.6522 2.41391 34.0835 4.54261C33.1757 5.77739 32.0417 7.31478 30.9774 7.54783C30.0383 7.54783 28.6017 6.92174 27.2104 6.31652C24.6817 5.21739 21.8783 4.25739 19.9896 5.35652C17.8157 6.61565 17.4957 9.43304 17.1896 12.16C17.0157 13.7113 16.8 15.6452 16.2191 16.2261C15.6383 16.807 13.7078 17.0226 12.153 17.1965C9.42956 17.5026 6.6087 17.8191 5.34957 19.9965C4.10783 22.1426 5.22783 24.72 6.30956 27.2139C6.94261 28.6643 7.7287 30.473 7.50609 31.2939C7.30435 32.0452 5.76696 33.1791 4.53565 34.087C2.41391 35.6522 0 37.433 0 40C0 42.567 2.41391 44.3478 4.54261 45.9165C5.77739 46.8243 7.31478 47.9583 7.51304 48.7061C7.73217 49.5304 6.94609 51.3356 6.31652 52.7861C5.2313 55.28 4.1113 57.8574 5.35652 60.007C6.61565 62.1809 9.43304 62.5009 12.16 62.807C13.7113 62.9809 15.6452 63.1965 16.2261 63.7774C16.807 64.3583 17.0226 66.2922 17.1965 67.8435C17.5026 70.5704 17.8191 73.3843 19.993 74.647C21.8817 75.7426 24.6852 74.7861 27.2139 73.687C28.6017 73.0817 30 72.4765 31.2939 72.4904C32.0452 72.6922 33.1791 74.2296 34.087 75.4609C35.6522 77.5861 37.433 80 40 80C42.567 80 44.3478 77.5861 45.9165 75.4574C46.8243 74.2226 47.9583 72.6852 49.0226 72.4522C49.9617 72.4522 51.3983 73.0783 52.7896 73.6835C55.3183 74.7826 58.1217 75.7426 60.0104 74.6435C62.1878 73.3843 62.5043 70.567 62.8104 67.84C62.9843 66.2852 63.2 64.3548 63.7774 63.7739C64.3583 63.193 66.2922 62.9774 67.8435 62.8035C70.5669 62.4974 73.3843 62.1809 74.647 60.0035C75.8887 57.8574 74.7687 55.28 73.687 52.7861C73.0539 51.3356 72.2678 49.527 72.4904 48.7061C72.6922 47.9548 74.2296 46.8209 75.4609 45.913C77.5861 44.3478 80 42.567 80 40C80 37.433 77.5861 35.6522 75.4574 34.0835ZM65.5791 34.2748L54.0626 45.7913L57.2661 61.8087C57.3913 62.0487 57.4609 62.32 57.4609 62.6087C57.4609 63.5826 56.5565 64.3409 55.687 64.3478H55.6522C55.3635 64.3478 55.0713 64.2748 54.807 64.1287L40 55.9026L25.193 64.1287C24.6017 64.4591 23.8713 64.4174 23.3217 64.0139C22.7757 63.6139 22.5113 62.9322 22.6435 62.2678L25.9374 45.7913L14.4209 34.2748C13.9478 33.8017 13.7878 33.0991 14.0104 32.4696C14.2296 31.84 14.7965 31.3913 15.4609 31.3148L30.2226 29.6765L38.4835 14.8104C39.0956 13.7078 40.9113 13.7078 41.5235 14.8104L49.7843 29.6765L64.5461 31.3148C65.2104 31.3878 65.7739 31.8365 65.9965 32.4696C66.2122 33.0991 66.0487 33.8017 65.5791 34.2748Z" fill="url(#paint0_linear_2144_5394)"/>
<defs>
<linearGradient id="paint0_linear_2144_5394" x1="40" y1="0" x2="40" y2="80" gradientUnits="userSpaceOnUse">
<stop stop-color="#9AEDAD"/>
<stop offset="1" stop-color="#06CFF1"/>
</linearGradient>
</defs>
</svg>
