<svg width="80" height="80" viewBox="0 0 80 80" fill="none" xmlns="http://www.w3.org/2000/svg">
<path d="M65.81 60.15L53.04 56.9567L52.3033 54.0067C61.1133 52.5233 65.6467 49.8833 65.8467 49.7667C66.32 49.49 66.6133 48.9867 66.6533 48.44C66.69 47.8933 66.4467 47.3567 66.0167 47.0133C65.9567 46.9667 60 42.0467 60 25C60 10.6233 56.6367 3.33333 50 3.33333H49.0167C46.6233 1.02 44.8267 0 40 0C33.7367 0 20 6.29667 20 25C20 42.0467 14.0433 46.9667 14 47C13.5567 47.3333 13.3067 47.8633 13.3333 48.4167C13.3633 48.9733 13.6633 49.4733 14.14 49.76C14.34 49.88 18.83 52.5333 27.6933 54.0133L26.9567 56.9567L14.1867 60.15C5.83333 62.24 0 69.7133 0 78.3333C0 79.2533 0.746667 80 1.66667 80H78.3333C79.2533 80 80 79.2467 80 78.3267C80 69.7133 74.1667 62.24 65.81 60.15Z" fill="url(#paint0_linear_2144_5398)"/>
<defs>
<linearGradient id="paint0_linear_2144_5398" x1="40" y1="0" x2="40" y2="80" gradientUnits="userSpaceOnUse">
<stop stop-color="#9AEDAD"/>
<stop offset="1" stop-color="#06CFF1"/>
</linearGradient>
</defs>
</svg>
