<svg width="80" height="80" viewBox="0 0 80 80" fill="none" xmlns="http://www.w3.org/2000/svg">
<path d="M30.2609 31.3043C29.5653 30.9565 28.8696 31.3044 28.5218 31.6522L25.0435 35.1305C24.3479 35.8261 24.3479 36.8696 25.0435 37.5653C25.7392 38.2609 26.7826 38.2609 27.4782 37.5653L27.8261 37.2174V43.4783C27.8261 44.5217 28.5217 45.2174 29.5652 45.2174C30.6087 45.2174 31.3043 44.5217 31.3043 43.4783V33.0435C31.3043 32.3478 30.9566 31.6522 30.2609 31.3043ZM41.3913 16.6957L41.7391 16.3479V22.6087C41.7391 23.6522 42.4348 24.3478 43.4783 24.3478C44.5217 24.3478 45.2174 23.6522 45.2174 22.6087V12.1739C45.2174 11.4783 44.8696 10.7826 44.174 10.4348C43.4783 10.087 42.7827 10.4348 42.4348 10.7826L38.9566 14.2609C38.2609 14.9565 38.2609 16.0001 38.9566 16.6957C39.6522 17.3914 40.6956 17.3914 41.3913 16.6957ZM19.1304 10.4348H12.1739C11.1304 10.4348 10.4348 11.1304 10.4348 12.1739V22.6087C10.4348 23.6522 11.1304 24.3478 12.1739 24.3478H19.1304C20.1739 24.3478 20.8696 23.6522 20.8696 22.6087V12.1739C20.8696 11.1304 20.1739 10.4348 19.1304 10.4348ZM17.3913 20.8696H13.913V13.913H17.3913V20.8696ZM19.1304 31.3043H12.1739C11.1304 31.3043 10.4348 32 10.4348 33.0435V43.4783C10.4348 44.5217 11.1304 45.2174 12.1739 45.2174H19.1304C20.1739 45.2174 20.8696 44.5217 20.8696 43.4783V33.0435C20.8696 32 20.1739 31.3043 19.1304 31.3043ZM17.3913 41.7391H13.913V34.7826H17.3913V41.7391ZM71.3044 0H8.69565C3.82609 0 0 3.82609 0 8.69565V57.3913C0 62.2609 3.82609 66.087 8.69565 66.087H34.7826V69.5652H22.6087C17.7391 69.5652 13.913 73.3913 13.913 78.2609C13.913 79.3043 14.6087 80 15.6522 80H64.3478C65.3913 80 66.087 79.3043 66.087 78.2609C66.087 77.913 66.087 77.9131 66.087 77.5653C65.7391 73.0435 61.913 69.5652 57.3913 69.5652H45.2174V66.087H71.3044C76.1739 66.087 80 62.2609 80 57.3913V8.69565C80 3.82609 76.1739 0 71.3044 0ZM76.5217 52.1739H3.47826V8.69565C3.47826 5.91304 5.91304 3.47826 8.69565 3.47826H71.3044C74.087 3.47826 76.5217 5.91304 76.5217 8.69565V52.1739ZM67.8261 31.3043H60.8696C59.8261 31.3043 59.1304 32 59.1304 33.0435V43.4783C59.1304 44.5217 59.8261 45.2174 60.8696 45.2174H67.8261C68.8696 45.2174 69.5652 44.5217 69.5652 43.4783V33.0435C69.5652 32 68.8696 31.3043 67.8261 31.3043ZM66.087 41.7391H62.6087V34.7826H66.087V41.7391ZM67.8261 10.4348H60.8696C59.8261 10.4348 59.1304 11.1304 59.1304 12.1739V22.6087C59.1304 23.6522 59.8261 24.3478 60.8696 24.3478H67.8261C68.8696 24.3478 69.5652 23.6522 69.5652 22.6087V12.1739C69.5652 11.1304 68.8696 10.4348 67.8261 10.4348ZM66.087 20.8696H62.6087V13.913H66.087V20.8696ZM54.6087 10.4348C53.9131 10.087 53.2174 10.4348 52.8696 10.7826L49.3913 14.2609C48.6957 14.9565 48.6957 16.0001 49.3913 16.6957C50.087 17.3914 51.1304 17.3914 51.8261 16.6957L52.1739 16.3479V22.6087C52.1739 23.6522 52.8696 24.3478 53.913 24.3478C54.9565 24.3478 55.6522 23.6522 55.6522 22.6087V12.1739C55.6522 11.4783 55.3044 10.7826 54.6087 10.4348ZM34.7826 12.1739C34.7826 11.1304 34.087 10.4348 33.0435 10.4348H26.087C25.0435 10.4348 24.3478 11.1304 24.3478 12.1739V22.6087C24.3478 23.6522 25.0435 24.3478 26.087 24.3478H33.0435C34.087 24.3478 34.7826 23.6522 34.7826 22.6087V12.1739ZM31.3043 20.8696H27.8261V13.913H31.3043V20.8696ZM54.6087 31.3043C53.9131 30.9565 53.2174 31.3044 52.8696 31.6522L49.3913 35.1305C48.6957 35.8261 48.6957 36.8696 49.3913 37.5653C50.087 38.2609 51.1304 38.2609 51.8261 37.5653L52.1739 37.2174V43.4783C52.1739 44.5217 52.8696 45.2174 53.913 45.2174C54.9565 45.2174 55.6522 44.5217 55.6522 43.4783V33.0435C55.6522 32.3478 55.3044 31.6522 54.6087 31.3043ZM43.4783 31.3043H36.5217C35.4783 31.3043 34.7826 32 34.7826 33.0435V43.4783C34.7826 44.5217 35.4783 45.2174 36.5217 45.2174H43.4783C44.5217 45.2174 45.2174 44.5217 45.2174 43.4783V33.0435C45.2174 32 44.5217 31.3043 43.4783 31.3043ZM41.7391 41.7391H38.2609V34.7826H41.7391V41.7391Z" fill="url(#paint0_linear_2144_5402)"/>
<defs>
<linearGradient id="paint0_linear_2144_5402" x1="40" y1="0" x2="40" y2="80" gradientUnits="userSpaceOnUse">
<stop stop-color="#9AEDAD"/>
<stop offset="1" stop-color="#06CFF1"/>
</linearGradient>
</defs>
</svg>
