<svg width="70" height="70" viewBox="0 0 70 70" fill="none" xmlns="http://www.w3.org/2000/svg">
<g clip-path="url(#clip0_1400_1063)">
<path d="M51.9173 70.0001H18.084C18.084 68.0168 19.484 66.2668 21.3507 65.8001L26.484 64.7501C27.534 64.5168 28.234 63.5835 28.234 62.5335V56.4668H41.7673V62.5335C41.7673 63.5835 42.4673 64.5168 43.5173 64.7501L48.6507 65.8001C50.634 66.2668 51.9173 68.0168 51.9173 70.0001Z" fill="#393D48"/>
<path d="M70 13.5334V49.7001H0V13.5334C0 11.0834 1.98333 8.9834 4.55 8.9834H65.5667C68.0167 8.9834 70 11.0834 70 13.5334Z" fill="#FBFBFB"/>
<path d="M70 49.7002V51.9169C70 54.3669 68.0167 56.4669 65.45 56.4669H4.55C2.1 56.4669 0 54.4835 0 51.9169V49.7002H70Z" fill="#8394B2"/>
<path d="M65.45 54.2502H4.55C2.1 54.2502 0 52.2669 0 49.7002V51.9169C0 54.3669 1.98333 56.4669 4.55 56.4669H65.5667C68.0167 56.4669 70.1167 54.4835 70.1167 51.9169V49.7002C70 52.1502 68.0167 54.2502 65.45 54.2502Z" fill="#5C6979"/>
<path d="M6.76667 19.2501V8.9834H4.55C1.98333 8.9834 0 11.0834 0 13.5334V49.7001H70V44.1001H31.6167C17.85 43.9834 6.76667 32.9001 6.76667 19.2501Z" fill="#EDF4FA"/>
<path d="M65.45 8.9834H4.55C1.98333 8.9834 0 11.0834 0 13.5334V49.7001H1.16667V13.5334C1.16667 11.6667 2.68333 10.1501 4.55 10.1501H65.5667C67.4333 10.1501 68.95 11.6667 68.95 13.5334V49.7001H70.1167V13.5334C70 11.0834 68.0167 8.9834 65.45 8.9834Z" fill="#A8B7D4"/>
<path d="M4.55 8.9834C1.98333 8.9834 0 11.0834 0 13.5334V49.7001H1.16667V13.5334C1.16667 11.6667 2.68333 10.1501 4.55 10.1501H6.76667V8.9834H4.55Z" fill="#8394B2"/>
<path d="M68.834 43.9834H70.0007V49.5834H68.834V43.9834Z" fill="#8394B2"/>
<path d="M29.1673 67.7835C28.584 67.7835 28.0007 67.3168 28.0007 66.6168C28.0007 66.2668 28.1173 65.9168 28.4673 65.6835L30.2173 64.8668C31.034 64.5168 31.6173 63.7001 31.6173 62.7668V60.9001C31.6173 59.6168 32.6673 58.6835 33.834 58.6835H41.7673V56.4668H28.234V62.5335C28.234 63.5835 27.534 64.5168 26.484 64.7501L21.3507 65.8001C19.3673 66.2668 18.084 68.0168 18.084 70.0001H51.9173C51.9173 69.1835 51.684 68.3668 51.2173 67.7835H29.1673Z" fill="#2B2B37"/>
<path d="M45.1491 27.0674C44.5658 27.0674 43.9824 26.6008 43.9824 25.9008C43.9824 25.5508 44.0991 25.3174 44.3324 25.0841L52.2658 17.1508C52.7324 16.6841 53.4324 16.6841 53.8991 17.1508C54.3658 17.6174 54.3658 18.3174 53.8991 18.6674L45.9658 26.6008C45.7324 26.9508 45.4991 27.0674 45.1491 27.0674Z" fill="#F7594E"/>
<path d="M41.7663 35.0007C41.1829 35.0007 40.5996 34.534 40.5996 33.834C40.5996 33.484 40.7163 33.2507 40.9496 33.0174L46.5496 27.4174C47.0163 26.9507 47.7163 26.9507 48.1829 27.4174C48.6496 27.884 48.6496 28.584 48.1829 28.934L42.5829 34.534C42.3496 34.884 42.1163 35.0007 41.7663 35.0007Z" fill="#F7594E"/>
<path d="M38.3835 38.3838C37.8001 38.3838 37.2168 37.9171 37.2168 37.2171C37.2168 36.8671 37.3335 36.6338 37.5668 36.4005L38.7335 35.2338C39.2001 34.7671 39.9001 34.7671 40.3668 35.2338C40.8335 35.7005 40.8335 36.4005 40.3668 36.7505L39.2001 37.9171C38.9668 38.2671 38.7335 38.3838 38.3835 38.3838Z" fill="#F7594E"/>
<path d="M23.6842 6.76712C23.1009 6.76712 22.5176 6.30046 22.5176 5.60046C22.5176 5.25046 22.6342 5.01712 22.8676 4.78379L27.4176 0.233789C27.8842 -0.232878 28.5842 -0.232878 29.0509 0.233789C29.5176 0.700456 29.5176 1.40046 29.0509 1.75046L24.5009 6.41712C24.2676 6.65046 24.0342 6.76712 23.6842 6.76712Z" fill="#F7594E"/>
<path d="M20.2995 10.1504C19.7161 10.1504 19.1328 9.68372 19.1328 8.98372C19.1328 8.63372 19.2495 8.40039 19.4828 8.16706L20.6495 7.00039C21.1161 6.53372 21.8161 6.53372 22.2828 7.00039C22.7495 7.46706 22.7495 8.16706 22.2828 8.63372L21.1161 9.80039C20.8828 10.0337 20.6495 10.1504 20.2995 10.1504Z" fill="#F7594E"/>
<path d="M31.266 23.8006L32.1993 26.1339L32.316 26.3673C32.316 26.8339 31.7327 28.0006 28.9327 30.6839L28.116 28.3506C26.016 30.3339 23.216 31.5006 20.416 31.5006C20.5327 28.5839 21.5827 25.9006 23.566 23.8006L21.2327 22.9839C23.916 20.3006 25.0827 19.7173 25.5493 19.6006L25.7827 19.7173L28.116 20.6506L31.266 23.8006Z" fill="#A81E29"/>
<path d="M51.3341 0.583998C52.0341 1.284 52.1508 3.734 51.3341 6.884C49.5841 8.51733 46.7841 8.51733 45.1508 6.76733C43.5174 5.01733 43.5174 2.334 45.1508 0.700665C48.1841 -0.232669 50.6341 -0.232669 51.3341 0.583998Z" fill="#F7594E"/>
<path d="M39.55 16.9174C42.0629 16.9174 44.1 14.8803 44.1 12.3674C44.1 9.85449 42.0629 7.81738 39.55 7.81738C37.0371 7.81738 35 9.85449 35 12.3674C35 14.8803 37.0371 16.9174 39.55 16.9174Z" fill="#FBFBFB"/>
<path d="M31.5007 10.1503C28.934 14.0003 27.7673 18.0836 28.1173 20.6503L25.784 19.717C25.6673 19.6003 25.6673 19.6003 25.5507 19.6003L18.084 16.8003L24.2673 10.617C26.2507 8.63363 29.284 8.51697 31.5007 10.1503Z" fill="#FF7376"/>
<path d="M31.2676 23.8003C33.8342 24.1503 37.9176 23.1003 41.7676 20.417C43.5176 22.6337 43.2842 25.667 41.3009 27.6503L35.1176 33.8337L32.3176 26.367C32.3176 26.2503 32.3176 26.1337 32.2009 26.1337L31.2676 23.8003Z" fill="#FF7376"/>
<path d="M41.766 20.4168C37.916 22.9835 33.8326 24.1501 31.266 23.8001L28.116 20.6501C27.766 18.0835 28.816 14.0001 31.4993 10.1501C32.316 8.8668 33.2493 7.8168 34.2993 6.65013C37.3326 3.73346 41.066 1.63346 45.1493 0.466797C43.516 2.2168 43.516 5.0168 45.266 6.65013C47.016 8.28346 49.6993 8.28346 51.3326 6.65013C50.2826 10.7335 48.066 14.4668 45.1493 17.5001C44.0993 18.6668 42.9326 19.6001 41.766 20.4168ZM36.2826 9.2168C34.5326 10.9668 34.5326 13.8835 36.2826 15.6335C38.0326 17.3835 40.9493 17.3835 42.6993 15.6335C44.4493 13.8835 44.4493 10.9668 42.6993 9.2168C40.9493 7.4668 38.0326 7.4668 36.2826 9.2168Z" fill="#FFAD39"/>
<path d="M31.5001 10.1502C31.1501 9.80019 30.6835 9.56686 30.2168 9.4502L26.3668 14.0002C25.4335 15.1669 23.9168 15.7502 22.4001 15.5169L19.6001 15.1669L17.9668 16.8002L25.4335 19.6002C25.5501 19.6002 25.6668 19.6002 25.6668 19.7169L28.0001 20.6502C27.7668 18.0835 28.9335 14.0002 31.5001 10.1502Z" fill="#E03E3E"/>
<path d="M38.3842 24.3837L42.3509 21.467C42.2342 21.117 42.0009 20.767 41.7676 20.417C37.9176 22.9837 33.8342 24.1503 31.2676 23.8003L32.2009 26.1337C32.3176 26.2503 32.3176 26.2503 32.3176 26.367L35.1176 33.8337L36.9842 31.967L36.5176 28.7003C36.2842 27.067 36.9842 25.317 38.3842 24.3837Z" fill="#E03E3E"/>
<path d="M51.7991 1.51758C51.7991 1.63424 51.7991 1.63424 51.7991 1.75091C51.2158 3.96758 50.3991 5.95091 49.2324 7.93424C50.0491 7.81758 50.7491 7.35091 51.3324 6.76758C51.9158 5.13424 52.0324 3.26758 51.7991 1.51758Z" fill="#CB3541"/>
<path d="M43.05 15.1671C42.9333 15.2838 42.8167 15.4005 42.7 15.6338C42.35 15.9838 41.8833 16.2171 41.4167 16.4505C40.7167 16.9171 40.1333 17.3838 39.4333 17.8505C35.9333 20.1838 31.2667 19.6005 28.4667 16.5671C28 17.9671 27.8833 19.3671 28.1167 20.7671L31.2667 23.9171C33.8333 24.2671 37.9167 23.2171 41.7667 20.5338C43.05 19.7171 44.1 18.7838 45.2667 17.7338C48.1833 14.7005 50.2833 10.9671 51.45 6.88379C50.8667 7.46712 50.1667 7.81712 49.35 8.05046C47.6 10.6171 45.5 13.0671 43.05 15.1671Z" fill="#E68C15"/>
<path d="M43.5172 8.40078C41.3006 6.18411 37.6839 6.18411 35.5839 8.40078C33.4839 10.6174 33.3672 14.2341 35.5839 16.3341C37.8006 18.4341 41.4172 18.5508 43.5172 16.3341C45.7339 14.2341 45.7339 10.6174 43.5172 8.40078ZM42.7006 15.6341C40.9506 17.3841 38.0339 17.3841 36.2839 15.6341C34.5339 13.8841 34.5339 10.9674 36.2839 9.21745C38.0339 7.46745 40.9506 7.46745 42.7006 9.21745C44.4506 10.9674 44.4506 13.8841 42.7006 15.6341Z" fill="#CB3541"/>
<path d="M43.8666 13.4173C42.1166 15.1673 39.1999 15.1673 37.4499 13.4173C36.3999 12.2507 35.9333 10.8507 36.1666 9.33398C34.4166 11.2007 34.5333 14.0007 36.3999 15.7507C38.2666 17.5007 41.0666 17.384 42.8166 15.5173C43.3999 14.8173 43.8666 14.1173 43.9833 13.184C43.8666 13.3007 43.8666 13.3007 43.8666 13.4173Z" fill="#C1CFE8"/>
<path d="M28.1174 20.7671L27.8841 20.6504C26.8341 21.4671 23.8008 24.3837 23.8008 28.2337C27.6508 28.2337 30.4508 25.2004 31.3841 24.1504L31.2674 23.9171L28.1174 20.7671Z" fill="#800000"/>
<path d="M21 20.7666L21.2333 20.8833C21.2333 20.8833 21.1167 20.7666 21 20.7666Z" fill="#D6E0EB"/>
<path d="M25.4336 19.7168L25.6669 19.8335C25.6669 19.7168 25.5503 19.7168 25.4336 19.7168Z" fill="#D6E0EB"/>
<path d="M23.4499 23.8004L21.1165 22.9837C23.7999 20.3004 24.9665 19.717 25.4332 19.6004L17.9665 16.6837L24.1499 10.5004C24.3832 10.5004 24.4999 10.3837 24.7332 10.267C22.8665 9.91702 20.9999 10.5004 19.7165 11.7837L13.5332 17.967L20.9999 20.767C21.1165 20.767 21.2332 20.767 21.2332 20.8837L20.9999 20.767C20.5332 20.767 19.3665 21.3504 16.6832 24.1504L19.0165 24.967C17.0332 27.067 15.9832 29.867 15.8665 32.667C17.4999 32.667 19.2499 32.317 20.6499 31.5004C20.5332 31.5004 20.4165 31.5004 20.2999 31.5004C20.4165 28.7004 21.5832 25.9004 23.4499 23.8004Z" fill="#D6E0EB"/>
<path d="M24.3832 31.85C25.1999 31.0333 25.8999 30.3333 26.3665 29.75C25.6665 30.2167 24.8499 30.5667 24.0332 30.9167L24.3832 31.85Z" fill="#D6E0EB"/>
<path d="M32.2007 26.4833C32.2007 26.3667 32.2007 26.25 32.084 26.25L32.2007 26.4833Z" fill="#D6E0EB"/>
<path d="M28.9336 30.6839L30.5669 35.0005L34.1836 31.3839L32.3169 26.3672C32.2003 26.9505 31.6169 28.0005 28.9336 30.6839Z" fill="#D6E0EB"/>
</g>
<defs>
<clipPath id="clip0_1400_1063">
<rect width="70" height="70" fill="white"/>
</clipPath>
</defs>
</svg>
