<svg width="70" height="70" viewBox="0 0 70 70" fill="none" xmlns="http://www.w3.org/2000/svg">
<g clip-path="url(#clip0_1400_1103)">
<path d="M63.9331 14.583V65.4497C63.9331 68.0163 61.8331 69.9997 59.3831 69.9997H10.6164C8.04974 69.9997 6.06641 67.8997 6.06641 65.4497V14.583H63.9331Z" fill="#E8F1F8"/>
<path opacity="0.12" d="M63.9331 14.5835V65.4501C63.9331 68.0168 61.8331 70.0001 59.3831 70.0001H10.6164C8.04974 70.0001 6.06641 67.9001 6.06641 65.4501V53.0835C11.3164 59.2668 19.1331 63.2335 27.8831 63.2335C43.7497 63.2335 56.5831 50.4001 56.5831 34.5335C56.5831 26.7168 53.4331 19.6001 48.4164 14.4668L63.9331 14.5835Z" fill="black"/>
<path d="M63.9331 14.5833V4.55C63.9331 1.98333 61.8331 0 59.3831 0H10.6164C8.04974 0 6.06641 2.1 6.06641 4.55V14.4667L63.9331 14.5833Z" fill="#474747"/>
<path d="M59.0328 7.2332C59.0328 8.6332 57.9828 9.6832 56.5828 9.6832C55.1828 9.6832 54.1328 8.6332 54.1328 7.2332C54.1328 5.8332 55.1828 4.7832 56.5828 4.7832C57.8661 4.7832 59.0328 5.94987 59.0328 7.2332Z" fill="#E8F1F8"/>
<path d="M51.2164 7.2332C51.2164 8.6332 50.1664 9.6832 48.7664 9.6832C47.3664 9.6832 46.3164 8.6332 46.3164 7.2332C46.3164 5.8332 47.3664 4.7832 48.7664 4.7832C50.1664 4.7832 51.2164 5.94987 51.2164 7.2332Z" fill="#E8F1F8"/>
<path d="M43.5172 7.2332C43.5172 8.6332 42.4672 9.6832 41.0672 9.6832C39.6672 9.6832 38.6172 8.6332 38.6172 7.2332C38.6172 5.8332 39.6672 4.7832 41.0672 4.7832C42.4672 4.7832 43.5172 5.94987 43.5172 7.2332Z" fill="#E8F1F8"/>
<path d="M19.834 54.1332V43.6332C19.834 41.4165 21.0007 39.4332 22.8673 38.3832L31.9673 33.1332C33.834 32.0832 36.1673 32.0832 38.034 33.1332L47.134 38.3832C49.0007 39.4332 50.1673 41.4165 50.1673 43.6332V54.1332C50.1673 56.3499 49.0007 58.3332 47.134 59.3832L38.034 64.6332C36.1673 65.6832 33.834 65.6832 31.9673 64.6332L22.8673 59.3832C21.0007 58.3332 19.834 56.3499 19.834 54.1332Z" fill="#F78721"/>
<path opacity="0.12" d="M50.1659 43.6333V54.1333C50.1659 56.35 48.9992 58.3333 47.1326 59.3833L38.0325 64.6333C36.1659 65.6833 33.8326 65.6833 31.9659 64.6333L22.8659 59.3833C21.3492 58.5667 20.4159 57.1667 19.9492 55.5333C22.2826 56.8167 24.9659 57.5167 27.8826 57.5167C37.0992 57.5167 44.6826 50.05 44.6826 40.7167C44.6826 39.3167 44.5659 38.0333 44.2159 36.75L47.1326 38.3833C48.9992 39.55 50.1659 41.5333 50.1659 43.6333Z" fill="black"/>
<path d="M29.2826 52.5002L26.5992 48.3002V52.0335C26.5992 52.5002 26.2492 52.7335 25.8992 52.7335C25.5492 52.7335 25.1992 52.3835 25.1992 52.0335V45.7335C25.1992 45.0335 26.1326 44.6835 26.5992 45.3835L29.2826 49.5835V45.8502C29.2826 45.3835 29.6326 45.1502 29.9826 45.1502C30.4492 45.1502 30.6826 45.5002 30.6826 45.8502V52.1502C30.6826 52.7335 29.7492 53.0835 29.2826 52.5002Z" fill="#E8F1F8"/>
<path d="M44.1001 46.5504H39.6668C39.2001 46.5504 38.9668 46.2004 38.9668 45.8504C38.9668 45.3837 39.3168 45.1504 39.6668 45.1504H44.1001C44.5668 45.1504 44.8001 45.5004 44.8001 45.8504C44.9168 46.2004 44.5668 46.5504 44.1001 46.5504Z" fill="#E8F1F8"/>
<path d="M41.8816 52.8504C41.415 52.8504 41.1816 52.5004 41.1816 52.1504V45.8504C41.1816 45.3837 41.5316 45.1504 41.8816 45.1504C42.2316 45.1504 42.5816 45.5004 42.5816 45.8504V52.1504C42.6983 52.5004 42.3483 52.8504 41.8816 52.8504Z" fill="#E8F1F8"/>
<path d="M33.5984 52.8504C33.1318 52.8504 32.8984 52.5004 32.8984 52.1504V45.8504C32.8984 45.3837 33.2484 45.1504 33.5984 45.1504H36.7484C37.2151 45.1504 37.4484 45.5004 37.4484 45.8504C37.4484 46.3171 37.0984 46.5504 36.7484 46.5504H34.4151V52.0337C34.2984 52.5004 33.9484 52.8504 33.5984 52.8504Z" fill="#E8F1F8"/>
<path d="M36.7484 49.6998H33.5984C33.1318 49.6998 32.8984 49.3498 32.8984 48.9998C32.8984 48.6498 33.2484 48.2998 33.5984 48.2998H36.7484C37.2151 48.2998 37.4484 48.6498 37.4484 48.9998C37.4484 49.3498 37.0984 49.6998 36.7484 49.6998Z" fill="#E8F1F8"/>
<path d="M6.06667 14.583L0 19.133H13.1833L17.6167 14.583H6.06667Z" fill="#475DA9"/>
<path d="M17.6169 14.583L13.1836 19.133H27.7669L29.2836 14.583H17.6169Z" fill="#E8F1F8"/>
<path d="M29.1671 14.583L27.6504 19.133H42.2337L40.8337 14.583H29.1671Z" fill="#475DA9"/>
<path d="M40.834 14.583L42.3507 19.133H56.934L52.5007 14.583H40.834Z" fill="#E8F1F8"/>
<path d="M52.3828 14.583L56.8161 19.133H69.9995L63.9328 14.583H52.3828Z" fill="#475DA9"/>
<path d="M13.1833 21.1171V19.1338H0V21.1171C0 24.7338 2.91667 27.7671 6.65 27.7671C10.2667 27.6505 13.1833 24.7338 13.1833 21.1171Z" fill="#ACBADF"/>
<path d="M27.7669 20.4171V19.1338H13.1836V20.4171C13.1836 24.3838 16.4503 27.6505 20.4169 27.6505C24.3836 27.6505 27.7669 24.3838 27.7669 20.4171Z" fill="#475DA9"/>
<path d="M42.2342 20.4171V19.1338H27.7676V20.4171C27.7676 24.3838 31.0342 27.6505 35.0009 27.6505C38.9676 27.6505 42.2342 24.3838 42.2342 20.4171Z" fill="#ACBADF"/>
<path d="M56.8158 20.4171V19.1338H42.2324V20.4171C42.2324 24.3838 45.4991 27.6505 49.4658 27.6505C53.5491 27.6505 56.8158 24.3838 56.8158 20.4171Z" fill="#475DA9"/>
<path d="M69.9997 21.1171V19.1338H56.8164V21.1171C56.8164 24.7338 59.7331 27.7671 63.4664 27.7671C67.0831 27.6505 69.9997 24.7338 69.9997 21.1171Z" fill="#ACBADF"/>
</g>
<defs>
<clipPath id="clip0_1400_1103">
<rect width="70" height="70" fill="white"/>
</clipPath>
</defs>
</svg>
