<svg width="70" height="56" viewBox="0 0 70 56" fill="none" xmlns="http://www.w3.org/2000/svg">
<path d="M67.5492 48.5334H2.44922V4.7834C2.44922 2.3334 4.43255 0.233398 6.99922 0.233398H63.1159C65.5659 0.233398 67.6659 2.21673 67.6659 4.7834V48.5334H67.5492Z" fill="#D6D5D0"/>
<path d="M2.44922 45.8496H67.6659V48.5329H2.44922V45.8496Z" fill="#AEADAA"/>
<path d="M7.23242 5.0166H62.7658V48.4166H7.23242V5.0166Z" fill="#92D1F7"/>
<path d="M7.23242 45.8496H62.7658V48.5329H7.23242V45.8496Z" fill="#5EBEF7"/>
<path d="M44.5669 46.5501L43.4003 48.5334H26.6003L25.4336 46.3167L26.0169 45.7334H34.0669C34.7669 46.0834 35.7003 46.0834 36.4003 45.7334H43.9836L44.5669 46.5501Z" fill="#5EBEF7"/>
<path d="M0 48.5332H70V50.0499C70 53.1999 67.4333 55.7665 64.2833 55.7665H5.71667C2.56667 55.7665 0 53.1999 0 50.0499V48.5332Z" fill="#D6D5D0"/>
<path d="M35.0005 41.1837C43.6346 41.1837 50.6339 34.1844 50.6339 25.5503C50.6339 16.9163 43.6346 9.91699 35.0005 9.91699C26.3665 9.91699 19.3672 16.9163 19.3672 25.5503C19.3672 34.1844 26.3665 41.1837 35.0005 41.1837Z" fill="#D78E0C"/>
<path d="M35 36.0498C40.799 36.0498 45.5 31.3488 45.5 25.5498C45.5 19.7508 40.799 15.0498 35 15.0498C29.201 15.0498 24.5 19.7508 24.5 25.5498C24.5 31.3488 29.201 36.0498 35 36.0498Z" fill="#ECAB2C"/>
<path d="M34.9995 19.5996L31.3828 25.0829L34.9995 25.8996L38.6161 25.0829L34.9995 19.5996Z" fill="#529FFF"/>
<path d="M31.3828 25.083L34.9995 30.9163L38.6161 25.083L34.9995 25.8997L31.3828 25.083Z" fill="#0A71CD"/>
<path d="M42.3508 43.6335C42.3508 43.5169 42.3508 43.4002 42.3508 43.1669L44.6841 40.9502L42.2341 36.7502L39.2008 37.5669C38.9674 37.3335 38.6174 37.2169 38.2674 37.1002L37.4508 33.9502H32.6674L31.8508 37.1002C31.6174 37.2169 31.3841 37.3335 31.1508 37.5669L27.8841 36.6335L25.5508 40.8335L28.0008 43.1669C28.0008 43.2835 28.0008 43.5169 28.0008 43.6335C28.0008 43.7502 28.0008 43.7502 28.0008 43.8669L25.5508 46.3169L26.7174 48.5335H43.5174L44.6841 46.5502L42.3508 44.3335C42.3508 44.1002 42.3508 43.8669 42.3508 43.6335ZM35.1174 46.0835C33.8341 46.0835 32.6674 45.0335 32.6674 43.6335C32.6674 42.2335 33.7174 41.1835 35.1174 41.1835C36.4008 41.1835 37.5674 42.2335 37.5674 43.6335C37.5674 45.0335 36.5174 46.0835 35.1174 46.0835Z" fill="#5CA4D9"/>
<path d="M43.8664 45.8496H36.2831C35.5831 46.1996 34.6497 46.1996 33.9497 45.8496H25.8997L25.3164 46.4329L26.4831 48.6496H43.2831L44.4497 46.6663L43.8664 45.8496Z" fill="#5292C1"/>
</svg>
