<svg width="66" height="70" viewBox="0 0 66 70" fill="none" xmlns="http://www.w3.org/2000/svg">
<path d="M31.7173 58.3333H5.00065C2.43398 58.3333 0.333984 56.2333 0.333984 53.6667V49H36.1507L31.7173 58.3333Z" fill="#D3DCFB"/>
<path d="M61.0007 20.9997V40.5997V53.6663H5.00065C2.43398 53.6663 0.333984 51.5663 0.333984 48.9997V20.9997L33.0007 9.33301L61.0007 20.9997Z" fill="#EBF5FC"/>
<path d="M8.61667 30.3337H6.05C5.46667 30.3337 5 29.867 5 29.2837V26.8337C5 26.1337 5.46667 25.667 6.05 25.667H8.5C9.08333 25.667 9.55 26.1337 9.55 26.717V29.167C9.66667 29.867 9.2 30.3337 8.61667 30.3337Z" fill="#3C58A0"/>
<path d="M17.9492 30.3332H15.4992C14.9159 30.3332 14.4492 29.8665 14.4492 29.2832V26.8332C14.4492 26.2499 14.9159 25.7832 15.4992 25.7832H17.9492C18.5326 25.7832 18.9992 26.2499 18.9992 26.8332V29.2832C18.9992 29.8665 18.5326 30.3332 17.9492 30.3332Z" fill="#3C58A0"/>
<path d="M27.2832 30.3332H24.8332C24.2499 30.3332 23.7832 29.8665 23.7832 29.2832V26.8332C23.7832 26.2499 24.2499 25.7832 24.8332 25.7832H27.2832C27.8665 25.7832 28.3332 26.2499 28.3332 26.8332V29.2832C28.3332 29.8665 27.8665 30.3332 27.2832 30.3332Z" fill="#3C58A0"/>
<path d="M36.6172 30.3332H34.1672C33.5839 30.3332 33.1172 29.8665 33.1172 29.2832V26.8332C33.1172 26.2499 33.5839 25.7832 34.1672 25.7832H36.6172C37.2005 25.7832 37.6672 26.2499 37.6672 26.8332V29.2832C37.6672 29.8665 37.2005 30.3332 36.6172 30.3332Z" fill="#3C58A0"/>
<path d="M45.9492 30.3332H43.4992C42.9159 30.3332 42.4492 29.8665 42.4492 29.2832V26.8332C42.4492 26.2499 42.9159 25.7832 43.4992 25.7832H45.9492C46.5326 25.7832 46.9992 26.2499 46.9992 26.8332V29.2832C46.9992 29.8665 46.5326 30.3332 45.9492 30.3332Z" fill="#3C58A0"/>
<path d="M55.2832 30.3332H52.8332C52.2499 30.3332 51.7832 29.8665 51.7832 29.2832V26.8332C51.7832 26.2499 52.2499 25.7832 52.8332 25.7832H55.2832C55.8665 25.7832 56.3332 26.2499 56.3332 26.8332V29.2832C56.3332 29.8665 55.8665 30.3332 55.2832 30.3332Z" fill="#3C58A0"/>
<path d="M8.61667 39.6667H6.05C5.46667 39.6667 5 39.2 5 38.6167V36.1667C5 35.4667 5.46667 35 6.05 35H8.5C9.08333 35 9.55 35.4667 9.55 36.05V38.5C9.66667 39.2 9.2 39.6667 8.61667 39.6667Z" fill="#3C58A0"/>
<path d="M17.9492 39.6672H15.4992C14.9159 39.6672 14.4492 39.2005 14.4492 38.6172V36.1672C14.4492 35.5839 14.9159 35.1172 15.4992 35.1172H17.9492C18.5326 35.1172 18.9992 35.5839 18.9992 36.1672V38.6172C18.9992 39.2005 18.5326 39.6672 17.9492 39.6672Z" fill="#3C58A0"/>
<path d="M27.2832 39.6672H24.8332C24.2499 39.6672 23.7832 39.2005 23.7832 38.6172V36.1672C23.7832 35.5839 24.2499 35.1172 24.8332 35.1172H27.2832C27.8665 35.1172 28.3332 35.5839 28.3332 36.1672V38.6172C28.3332 39.2005 27.8665 39.6672 27.2832 39.6672Z" fill="#3C58A0"/>
<path d="M37.6667 39.6667V36.1667C37.6667 35.4667 37.2 35 36.5 35H34.1667C33.4667 35 33 35.4667 33 36.1667V38.5C33 39.2 33.4667 39.6667 34.1667 39.6667H37.6667Z" fill="#3C58A0"/>
<path d="M8.61667 49.0007H6.05C5.46667 49.0007 5 48.534 5 47.9506V45.5007C5 44.8007 5.46667 44.334 6.05 44.334H8.5C9.08333 44.334 9.55 44.8007 9.55 45.384V47.834C9.66667 48.534 9.2 49.0007 8.61667 49.0007Z" fill="#3C58A0"/>
<path d="M17.9492 49.0002H15.4992C14.9159 49.0002 14.4492 48.5335 14.4492 47.9502V45.5002C14.4492 44.9169 14.9159 44.4502 15.4992 44.4502H17.9492C18.5326 44.4502 18.9992 44.9169 18.9992 45.5002V47.9502C18.9992 48.5335 18.5326 49.0002 17.9492 49.0002Z" fill="#3C58A0"/>
<path d="M27.2832 49.0002H24.8332C24.2499 49.0002 23.7832 48.5335 23.7832 47.9502V45.5002C23.7832 44.9169 24.2499 44.4502 24.8332 44.4502H27.2832C27.8665 44.4502 28.3332 44.9169 28.3332 45.5002V47.9502C28.3332 48.5335 27.8665 49.0002 27.2832 49.0002Z" fill="#3C58A0"/>
<path d="M55.1672 25.667H52.8339C52.7172 25.667 52.6005 25.667 52.3672 25.7837C52.8339 25.9003 53.0672 26.367 53.0672 26.8337V29.167C53.0672 29.6337 52.7172 30.1003 52.3672 30.217C52.4839 30.217 52.6005 30.3337 52.8339 30.3337H55.1672C55.7505 30.3337 56.3339 29.867 56.3339 29.167V26.8337C56.3339 26.1337 55.8672 25.667 55.1672 25.667Z" fill="#2A428C"/>
<path d="M45.8332 25.667H43.4999C43.3832 25.667 43.2665 25.667 43.0332 25.7837C43.4999 25.9003 43.7332 26.367 43.7332 26.8337V29.167C43.7332 29.6337 43.3832 30.1003 43.0332 30.217C43.1499 30.217 43.2665 30.3337 43.4999 30.3337H45.8332C46.4165 30.3337 46.9999 29.867 46.9999 29.167V26.8337C46.9999 26.1337 46.5332 25.667 45.8332 25.667Z" fill="#2A428C"/>
<path d="M36.5012 25.667H34.1678C34.0512 25.667 33.9345 25.667 33.7012 25.7837C34.1678 25.9003 34.4012 26.367 34.4012 26.8337V29.167C34.4012 29.6337 34.0512 30.1003 33.7012 30.217C33.8178 30.217 33.9345 30.3337 34.1678 30.3337H36.5012C37.0845 30.3337 37.6678 29.867 37.6678 29.167V26.8337C37.6678 26.1337 37.2012 25.667 36.5012 25.667Z" fill="#2A428C"/>
<path d="M27.1672 25.667H24.8339C24.7172 25.667 24.6005 25.667 24.3672 25.7837C24.8339 25.9003 25.0672 26.367 25.0672 26.8337V29.167C25.0672 29.6337 24.7172 30.1003 24.3672 30.217C24.4839 30.217 24.6005 30.3337 24.8339 30.3337H27.1672C27.7505 30.3337 28.3339 29.867 28.3339 29.167V26.8337C28.3339 26.1337 27.8672 25.667 27.1672 25.667Z" fill="#2A428C"/>
<path d="M17.8332 25.667H15.4999C15.3832 25.667 15.2665 25.667 15.0332 25.7837C15.4999 25.9003 15.7332 26.367 15.7332 26.8337V29.167C15.7332 29.6337 15.3832 30.1003 15.0332 30.217C15.1499 30.217 15.2665 30.3337 15.4999 30.3337H17.8332C18.4165 30.3337 18.9999 29.867 18.9999 29.167V26.8337C18.9999 26.1337 18.5332 25.667 17.8332 25.667Z" fill="#2A428C"/>
<path d="M8.50117 25.667H6.16784C6.05117 25.667 5.93451 25.667 5.70117 25.7837C6.16784 25.9003 6.40117 26.367 6.40117 26.8337V29.167C6.40117 29.6337 6.05117 30.1003 5.70117 30.217C5.81784 30.3337 5.93451 30.3337 6.16784 30.3337H8.50117C9.08451 30.3337 9.66784 29.867 9.66784 29.167V26.8337C9.66784 26.1337 9.20117 25.667 8.50117 25.667Z" fill="#2A428C"/>
<path d="M8.50117 35H6.16784C6.05117 35 5.93451 35 5.70117 35.1167C6.16784 35.2333 6.40117 35.7 6.40117 36.1667V38.5C6.40117 38.9667 6.05117 39.4333 5.70117 39.55C5.81784 39.6667 5.93451 39.6667 6.16784 39.6667H8.50117C9.08451 39.6667 9.66784 39.2 9.66784 38.5V36.1667C9.66784 35.4667 9.20117 35 8.50117 35Z" fill="#2A428C"/>
<path d="M8.50117 44.333H6.16784C6.05117 44.333 5.93451 44.333 5.70117 44.4497C6.16784 44.5663 6.40117 45.033 6.40117 45.4997V47.833C6.40117 48.2997 6.05117 48.7663 5.70117 48.883C5.81784 48.9997 5.93451 48.9997 6.16784 48.9997H8.50117C9.08451 48.9997 9.66784 48.533 9.66784 47.833V45.4997C9.66784 44.7997 9.20117 44.333 8.50117 44.333Z" fill="#2A428C"/>
<path d="M17.8332 35H15.4999C15.3832 35 15.2665 35 15.0332 35.1167C15.4999 35.2333 15.7332 35.7 15.7332 36.1667V38.5C15.7332 38.9667 15.3832 39.4333 15.0332 39.55C15.1499 39.55 15.2665 39.6667 15.4999 39.6667H17.8332C18.4165 39.6667 18.9999 39.2 18.9999 38.5V36.1667C18.9999 35.4667 18.5332 35 17.8332 35Z" fill="#2A428C"/>
<path d="M17.8332 44.333H15.4999C15.3832 44.333 15.2665 44.333 15.0332 44.4497C15.4999 44.5663 15.7332 45.033 15.7332 45.4997V47.833C15.7332 48.2997 15.3832 48.7663 15.0332 48.883C15.1499 48.883 15.2665 48.9997 15.4999 48.9997H17.8332C18.4165 48.9997 18.9999 48.533 18.9999 47.833V45.4997C18.9999 44.7997 18.5332 44.333 17.8332 44.333Z" fill="#2A428C"/>
<path d="M27.1672 35H24.8339C24.7172 35 24.6005 35 24.3672 35.1167C24.8339 35.2333 25.0672 35.7 25.0672 36.1667V38.5C25.0672 38.9667 24.7172 39.4333 24.3672 39.55C24.4839 39.55 24.6005 39.6667 24.8339 39.6667H27.1672C27.7505 39.6667 28.3339 39.2 28.3339 38.5V36.1667C28.3339 35.4667 27.8672 35 27.1672 35Z" fill="#2A428C"/>
<path d="M37.6678 39.6667V36.1667C37.6678 35.5833 37.2012 35 36.5012 35H34.1678C34.0512 35 33.9345 35 33.7012 35.1167C34.1678 35.2333 34.4012 35.7 34.4012 36.1667V38.5C34.4012 38.9667 34.0512 39.4333 33.7012 39.55C33.8178 39.55 33.9345 39.6667 34.1678 39.6667H37.6678Z" fill="#2A428C"/>
<path d="M27.1672 44.333H24.8339C24.7172 44.333 24.6005 44.333 24.3672 44.4497C24.8339 44.5663 25.0672 45.033 25.0672 45.4997V47.833C25.0672 48.2997 24.7172 48.7663 24.3672 48.883C24.4839 48.883 24.6005 48.9997 24.8339 48.9997H27.1672C27.7505 48.9997 28.3339 48.533 28.3339 47.833V45.4997C28.3339 44.7997 27.8672 44.333 27.1672 44.333Z" fill="#2A428C"/>
<path d="M57.7344 19.5996V40.5996V53.6663H61.001V40.5996V20.9996L57.7344 19.5996Z" fill="#D3DCFB"/>
<path d="M61.0007 21.0003V9.33366C61.0007 6.76699 58.9007 4.66699 56.334 4.66699H5.00065C2.43398 4.66699 0.333984 6.76699 0.333984 9.33366V21.0003H61.0007Z" fill="#FF4155"/>
<path d="M15.0345 10.3832H12.0012C11.4178 10.3832 10.9512 9.91654 10.9512 9.3332C10.9512 8.74987 11.4178 8.2832 12.0012 8.2832H15.0345C15.6178 8.2832 16.0845 8.74987 16.0845 9.3332C16.0845 9.91654 15.6178 10.3832 15.0345 10.3832Z" fill="#E80054"/>
<path d="M22.5013 10.3832H19.468C18.8846 10.3832 18.418 9.91654 18.418 9.3332C18.418 8.74987 18.8846 8.2832 19.468 8.2832H22.5013C23.0846 8.2832 23.5513 8.74987 23.5513 9.3332C23.5513 9.91654 23.0846 10.3832 22.5013 10.3832Z" fill="#E80054"/>
<path d="M41.8685 10.3832H38.8352C38.2518 10.3832 37.7852 9.91654 37.7852 9.3332C37.7852 8.74987 38.2518 8.2832 38.8352 8.2832H41.8685C42.4518 8.2832 42.9185 8.74987 42.9185 9.3332C42.9185 9.91654 42.4518 10.3832 41.8685 10.3832Z" fill="#E80054"/>
<path d="M49.3353 10.3832H46.302C45.7186 10.3832 45.252 9.91654 45.252 9.3332C45.252 8.74987 45.7186 8.2832 46.302 8.2832H49.3353C49.9186 8.2832 50.3853 8.74987 50.3853 9.3332C50.3853 9.91654 49.9186 10.3832 49.3353 10.3832Z" fill="#E80054"/>
<path d="M20.1673 8.75C20.1673 10.3833 18.884 11.6667 17.2507 11.6667C15.6173 11.6667 14.334 10.3833 14.334 8.75V2.91667C14.334 1.28333 15.6173 0 17.2507 0C18.884 0 20.1673 1.28333 20.1673 2.91667V8.75Z" fill="#EBF5FC"/>
<path d="M47.0013 8.75C47.0013 10.3833 45.718 11.6667 44.0846 11.6667C42.4513 11.6667 41.168 10.3833 41.168 8.75V2.91667C41.168 1.28333 42.4513 0 44.0846 0C45.718 0 47.0013 1.28333 47.0013 2.91667V8.75Z" fill="#EBF5FC"/>
<path d="M44.0845 0C43.5012 0 42.9178 0.233333 42.4512 0.466667C43.2678 0.933333 43.7345 1.86667 43.7345 2.91667V8.75C43.7345 9.8 43.2678 10.6167 42.4512 11.2C42.9178 11.4333 43.5012 11.6667 44.0845 11.6667C45.7178 11.6667 47.0012 10.3833 47.0012 8.75V2.91667C47.0012 1.28333 45.7178 0 44.0845 0Z" fill="#D3DCFB"/>
<path d="M17.2505 0C16.6672 0 16.0839 0.233333 15.6172 0.466667C16.4339 0.933333 16.9005 1.86667 16.9005 2.91667V8.75C16.9005 9.8 16.4339 10.6167 15.6172 11.2C16.0839 11.4333 16.6672 11.6667 17.2505 11.6667C18.8839 11.6667 20.1672 10.3833 20.1672 8.75V2.91667C20.1672 1.28333 18.8839 0 17.2505 0Z" fill="#D3DCFB"/>
<path d="M56.3331 4.66699H53.0664C55.6331 4.66699 57.7331 6.76699 57.7331 9.33366V21.0003H60.9997V9.33366C60.9997 6.76699 58.8997 4.66699 56.3331 4.66699Z" fill="#E80054"/>
<path d="M0.333984 15.2832H61.0007V17.3832H0.333984V15.2832Z" fill="#E80054"/>
<path d="M48.168 70C57.833 70 65.668 62.165 65.668 52.5C65.668 42.835 57.833 35 48.168 35C38.503 35 30.668 42.835 30.668 52.5C30.668 62.165 38.503 70 48.168 70Z" fill="#4FABF7"/>
<path d="M48.1673 65.3337C55.255 65.3337 61.0007 59.588 61.0007 52.5003C61.0007 45.4127 55.255 39.667 48.1673 39.667C41.0797 39.667 35.334 45.4127 35.334 52.5003C35.334 59.588 41.0797 65.3337 48.1673 65.3337Z" fill="#EBF5FC"/>
<path d="M48.1672 51.2165C47.5839 51.2165 47.1172 50.7499 47.1172 50.1665V44.3332C47.1172 43.7499 47.5839 43.2832 48.1672 43.2832C48.7505 43.2832 49.2172 43.7499 49.2172 44.3332V50.1665C49.2172 50.7499 48.7505 51.2165 48.1672 51.2165Z" fill="#3C58A0"/>
<path d="M54.0012 53.5502H50.5012C49.9178 53.5502 49.4512 53.0835 49.4512 52.5002C49.4512 51.9169 49.9178 51.4502 50.5012 51.4502H54.0012C54.5845 51.4502 55.0512 51.9169 55.0512 52.5002C55.0512 53.0835 54.5845 53.5502 54.0012 53.5502Z" fill="#3C58A0"/>
<path d="M48.1665 35C47.5832 35 47.1165 35 46.5332 35.1167C55.3999 35.9333 62.3999 43.4 62.3999 52.5C62.3999 61.6 55.3999 69.0667 46.5332 69.8833C47.1165 69.8833 47.5832 70 48.1665 70C57.8499 70 65.6665 62.1833 65.6665 52.5C65.6665 42.8167 57.8499 35 48.1665 35Z" fill="#1886EA"/>
<path d="M48.1665 39.667C47.5832 39.667 47.1165 39.667 46.5332 39.7837C52.8332 40.6003 57.7332 45.967 57.7332 52.5003C57.7332 59.0337 52.8332 64.4003 46.5332 65.217C47.1165 65.3337 47.5832 65.3337 48.1665 65.3337C55.2832 65.3337 60.9999 59.617 60.9999 52.5003C60.9999 45.3837 55.2832 39.667 48.1665 39.667Z" fill="#D3DCFB"/>
<path d="M48.1673 54.8337C49.456 54.8337 50.5007 53.789 50.5007 52.5003C50.5007 51.2117 49.456 50.167 48.1673 50.167C46.8787 50.167 45.834 51.2117 45.834 52.5003C45.834 53.789 46.8787 54.8337 48.1673 54.8337Z" fill="#FFDD40"/>
</svg>
