<svg width="125" height="125" viewBox="0 0 125 125" fill="none" xmlns="http://www.w3.org/2000/svg">
<g clip-path="url(#clip0_2170_1563)">
<mask id="mask0_2170_1563" style="mask-type:luminance" maskUnits="userSpaceOnUse" x="0" y="0" width="125" height="125">
<path d="M125 0H0V125H125V0Z" fill="white"/>
</mask>
<g mask="url(#mask0_2170_1563)">
<path d="M97.6562 72.2559H27.3437C25.2717 72.2559 23.2846 73.079 21.8194 74.544C20.3544 76.0092 19.5312 77.9963 19.5312 80.0684V121.094H105.469V80.0779C105.47 79.0513 105.269 78.0344 104.877 77.0852C104.485 76.1363 103.91 75.274 103.184 74.5475C102.458 73.8211 101.597 73.2446 100.648 72.8515C99.6998 72.4582 98.6831 72.2559 97.6562 72.2559ZM62.5 111.328C61.341 111.328 60.2083 110.984 59.2448 110.341C58.281 109.697 57.5302 108.782 57.0867 107.711C56.6431 106.64 56.5271 105.462 56.7531 104.326C56.9794 103.189 57.5373 102.145 58.3569 101.325C59.1762 100.506 60.2202 99.9479 61.3569 99.7219C62.4935 99.4959 63.6717 99.6119 64.7423 100.055C65.8129 100.499 66.7281 101.25 67.3719 102.213C68.0156 103.177 68.3594 104.31 68.3594 105.469C68.3594 107.023 67.7421 108.513 66.6431 109.612C65.5444 110.711 64.054 111.328 62.5 111.328Z" fill="#FC6C2D"/>
<path d="M107.422 87.9004V80.0781C107.419 77.489 106.39 75.0065 104.559 73.1756C102.728 71.3448 100.245 70.315 97.6562 70.3125H81.2148C83.0215 66.9775 84.4783 63.4648 85.5625 59.83L92.9844 53.8887C94.1379 52.9677 94.9815 51.715 95.4006 50.2996C95.82 48.8842 95.795 47.3742 95.3292 45.9735C94.8633 44.5727 93.979 43.3485 92.7954 42.4663C91.6121 41.5837 90.1865 41.0856 88.7108 41.0392L93.0625 29.0742C94.1729 26.021 94.5308 22.7452 94.1062 19.5241C93.6817 16.3031 92.4869 13.232 90.6231 10.5709C88.7594 7.90971 86.2817 5.73704 83.4 4.2369C80.5181 2.73677 77.3173 1.95338 74.0683 1.95313H57.4883C45.0802 1.94961 32.9215 5.43586 22.4004 12.0137C22.0844 12.2095 21.8306 12.4914 21.6694 12.8264C21.5079 13.1614 21.4456 13.5354 21.4894 13.9046C21.5333 14.2739 21.6817 14.6229 21.9171 14.9106C22.1525 15.1985 22.4652 15.4131 22.8183 15.5293L27.5273 17.0918C28.1756 17.3082 28.7727 17.6548 29.2821 18.1102C29.7917 18.5656 30.2027 19.1203 30.4902 19.7403C30.7777 20.3602 30.9356 21.0323 30.954 21.7154C30.9725 22.3985 30.8512 23.0783 30.5977 23.7129C30.1304 24.8825 29.916 26.1375 29.9685 27.3958C30.021 28.6542 30.3392 29.8871 30.9023 31.0137L35.9375 41.0742C34.4967 41.1885 33.1233 41.7335 31.9962 42.6383C30.8692 43.5433 30.0402 44.7663 29.6173 46.1485C29.1944 47.5306 29.1969 49.0081 29.6246 50.3887C30.0523 51.7694 30.8854 52.9896 32.0156 53.8906L39.4375 59.83C40.5217 63.4646 41.9787 66.9775 43.7852 70.3125H27.3437C24.7546 70.315 22.2721 71.3448 20.4413 73.1756C18.6104 75.0065 17.5807 77.489 17.5781 80.0781V87.9004C12.9554 89.8319 9.00623 93.0858 6.2264 97.2537C3.44656 101.422 1.95992 106.318 1.95312 111.328V121.094C1.95312 121.612 2.1589 122.109 2.52519 122.475C2.89146 122.841 3.38825 123.047 3.90625 123.047H121.094C121.612 123.047 122.109 122.841 122.475 122.475C122.841 122.109 123.047 121.612 123.047 121.094V111.328C123.04 106.318 121.554 101.422 118.774 97.2537C115.994 93.0858 112.045 89.8319 107.422 87.9004ZM78.125 41.0156H66.4062C65.8883 41.0156 65.3915 41.2215 65.0252 41.5877C64.659 41.954 64.4531 42.4508 64.4531 42.9688V44.9219H60.5469V42.9688C60.5469 42.4508 60.341 41.954 59.9748 41.5877C59.6085 41.2215 59.1117 41.0156 58.5937 41.0156H41.0156V38.1544L53.2071 30.0254C55.83 28.2737 58.9142 27.3404 62.0683 27.3437C66.5827 27.3381 70.9617 25.8021 74.4902 22.9862L77.6798 20.4316L81.0312 25.459C82.9598 28.3446 83.9877 31.7381 83.9844 35.209V41.0156H78.125ZM76.1719 44.9219V50.7812C76.1719 51.2992 75.966 51.796 75.5998 52.1623C75.2335 52.5285 74.7367 52.7344 74.2188 52.7344H70.3125C69.7946 52.7344 69.2977 52.5285 68.9315 52.1623C68.5652 51.796 68.3594 51.2992 68.3594 50.7812V44.9219H76.1719ZM56.6406 44.9219V50.7812C56.6406 51.2992 56.4348 51.796 56.0685 52.1623C55.7023 52.5285 55.2054 52.7344 54.6875 52.7344H50.7812C50.2633 52.7344 49.7665 52.5285 49.4002 52.1623C49.034 51.796 48.8281 51.2992 48.8281 50.7812V44.9219H56.6406ZM91.7969 48.2423C91.7983 48.7408 91.6869 49.2333 91.4712 49.6827C91.2554 50.1323 90.9408 50.5271 90.5508 50.8379L87.0098 53.67C87.5252 50.7812 87.8087 47.8558 87.8575 44.9219H88.4767C88.9125 44.9219 89.3444 45.0077 89.7473 45.1746C90.15 45.3415 90.516 45.586 90.8244 45.8944C91.1327 46.2027 91.3773 46.5687 91.5442 46.9717C91.711 47.3744 91.7969 47.8062 91.7969 48.2423ZM34.2246 25.1621C34.6756 24.0329 34.8913 22.8237 34.8579 21.6083C34.8246 20.3929 34.5433 19.1971 34.0312 18.0944C33.519 16.9916 32.7869 16.0052 31.8798 15.1957C30.9725 14.3861 29.9096 13.7705 28.7558 13.3867L28.17 13.1914C37.1919 8.37554 47.2615 5.85729 57.4883 5.85938H74.0683C76.6892 5.8591 79.2715 6.49054 81.5965 7.70019C83.9215 8.90983 85.9204 10.662 87.4244 12.8084C88.9285 14.9547 89.8929 17.4319 90.2362 20.0302C90.5794 22.6283 90.2915 25.271 89.3965 27.7344L87.6973 32.4044C87.2737 29.1427 86.1048 26.0223 84.2812 23.2852L79.7481 16.4922C79.5979 16.2672 79.4027 16.0759 79.1748 15.9303C78.9469 15.7847 78.691 15.6881 78.4237 15.6465C78.1564 15.6059 77.8833 15.6208 77.6219 15.6904C77.3604 15.7599 77.1162 15.8826 76.9044 16.0508L72.0508 19.9355C69.2148 22.1977 65.696 23.4323 62.0683 23.4375C58.1425 23.4333 54.3037 24.5952 51.0392 26.7754L37.9785 35.4825C37.8571 35.5648 37.7456 35.6612 37.6465 35.7696L34.3946 29.2675C34.0785 28.634 33.9 27.9406 33.8708 27.2329C33.8415 26.5254 33.9621 25.8198 34.2246 25.1621ZM34.4492 50.8398C33.91 50.4106 33.5177 49.8242 33.3269 49.1619C33.1358 48.4996 33.1558 47.7944 33.3837 47.144C33.6119 46.4935 34.0365 45.9302 34.5992 45.5319C35.1617 45.1338 35.8342 44.9206 36.5233 44.9219H37.1367C37.1879 47.8565 37.4719 50.7823 37.9862 53.6719L34.4492 50.8398ZM41.045 44.9219H44.9219V50.7812C44.9219 52.3352 45.5392 53.8256 46.6381 54.9244C47.7369 56.0233 49.2273 56.6406 50.7812 56.6406H54.6875C56.2415 56.6406 57.7319 56.0233 58.8306 54.9244C59.9296 53.8256 60.5469 52.3352 60.5469 50.7812V48.8281H64.4531V50.7812C64.4531 52.3352 65.0704 53.8256 66.1694 54.9244C67.2681 56.0233 68.7585 56.6406 70.3125 56.6406H74.2188C75.7727 56.6406 77.2631 56.0233 78.3619 54.9244C79.4608 53.8256 80.0781 52.3352 80.0781 50.7812V44.9219H83.9531C83.8004 53.8735 81.3019 62.6285 76.7071 70.3125H48.2929C43.6973 62.6287 41.1981 53.8737 41.045 44.9219ZM27.3437 74.2188H97.6562C99.2102 74.2188 100.701 74.836 101.799 75.935C102.898 77.0337 103.516 78.5242 103.516 80.0781V119.141H21.4844V80.0781C21.4844 78.5242 22.1017 77.0337 23.2006 75.935C24.2994 74.836 25.7898 74.2188 27.3437 74.2188ZM5.85937 111.328C5.86533 107.371 6.96233 103.492 9.02979 100.117C11.0972 96.7427 14.0551 94.0037 17.5781 92.2012V119.141H5.85937V111.328ZM119.141 119.141H107.422V92.1992C110.945 94.0021 113.903 96.7415 115.97 100.116C118.038 103.491 119.135 107.37 119.141 111.328V119.141Z" fill="white"/>
<path d="M62.5 113.281C64.0452 113.281 65.5556 112.823 66.8404 111.965C68.1252 111.106 69.1265 109.886 69.7177 108.458C70.3092 107.031 70.4637 105.46 70.1623 103.945C69.861 102.429 69.1169 101.037 68.0242 99.9445C66.9317 98.8518 65.5396 98.1079 64.0242 97.8064C62.5087 97.5049 60.9379 97.6595 59.5102 98.251C58.0827 98.8422 56.8625 99.8435 56.0042 101.128C55.1456 102.413 54.6875 103.923 54.6875 105.469C54.6875 107.541 55.5106 109.528 56.9758 110.993C58.4408 112.458 60.4279 113.281 62.5 113.281ZM62.5 101.562C63.2725 101.562 64.0279 101.792 64.6702 102.221C65.3125 102.65 65.8133 103.26 66.109 103.974C66.4046 104.688 66.4819 105.473 66.3313 106.231C66.1804 106.988 65.8085 107.685 65.2621 108.231C64.7158 108.777 64.0198 109.149 63.2621 109.3C62.5044 109.451 61.719 109.373 61.0052 109.078C60.2915 108.782 59.6813 108.281 59.2521 107.639C58.8229 106.997 58.5938 106.241 58.5938 105.469C58.5938 104.433 59.0052 103.439 59.7379 102.707C60.4704 101.974 61.464 101.562 62.5 101.562Z" fill="white"/>
<path d="M49.3969 95.1309L52.1607 92.3672L45.729 85.9376L52.1607 79.5059L49.3969 76.7422L41.5844 84.5547C41.403 84.7361 41.2588 84.9516 41.1605 85.1886C41.0623 85.4257 41.0117 85.6799 41.0117 85.9366C41.0117 86.1932 41.0623 86.4474 41.1605 86.6845C41.2588 86.9216 41.403 87.137 41.5844 87.3184L49.3969 95.1309Z" fill="white"/>
<path d="M75.5995 95.1309L83.412 87.3184C83.5936 87.137 83.7378 86.9216 83.8359 86.6845C83.9343 86.4474 83.9849 86.1932 83.9849 85.9366C83.9849 85.6799 83.9343 85.4257 83.8359 85.1886C83.7378 84.9516 83.5936 84.7361 83.412 84.5547L75.5995 76.7422L72.8359 79.5059L79.2676 85.9376L72.8359 92.3672L75.5995 95.1309Z" fill="white"/>
<path d="M55.0742 92.5918L66.793 76.9668L69.918 79.3105L58.1992 94.9355L55.0742 92.5918Z" fill="white"/>
</g>
</g>
<defs>
<clipPath id="clip0_2170_1563">
<rect width="125" height="125" fill="white"/>
</clipPath>
</defs>
</svg>
