<svg width="125" height="125" viewBox="0 0 125 125" fill="none" xmlns="http://www.w3.org/2000/svg">
<g clip-path="url(#clip0_2170_1579)">
<path d="M62.5011 11.733C62.5011 9.70267 60.8551 8.05664 58.8246 8.05664H36.7661C34.7358 8.05664 33.0898 9.70267 33.0898 11.733V15.0881H62.5011V11.733Z" fill="white"/>
<path d="M59.0665 67.603C59.5165 68.6147 60.2605 69.4577 61.1895 70.0605C67.116 57.9067 79.6982 49.3932 94.331 48.933V36.752C94.331 29.6222 88.346 23.7725 80.8755 23.7725H14.7045C7.235 23.7725 1.25 29.6222 1.25 36.752V58.0975C1.25 65.2275 7.235 71.0772 14.7045 71.0772H30.9422C33.3867 71.0772 35.5818 69.6982 36.5138 67.6027C38.4043 63.354 42.753 60.405 47.7905 60.405C52.827 60.405 57.1768 63.354 59.0665 67.603ZM59.0665 67.603L58.185 67.995M6.10225 33.1947C6.10225 35.8825 8.3525 38.002 11.0284 38.002C13.704 38.002 15.9545 35.8837 15.9545 33.1947C15.9545 30.507 13.7054 28.3872 11.0284 28.3872C8.3525 28.3872 6.10225 30.507 6.10225 33.1947ZM20.8067 33.1947C20.8067 35.8825 23.057 38.002 25.7328 38.002C28.4098 38.002 30.659 35.8835 30.659 33.1947C30.659 30.507 28.4098 28.3872 25.7328 28.3872C23.057 28.3872 20.8067 30.507 20.8067 33.1947ZM35.5122 33.1947C35.5122 35.8825 37.7625 38.002 40.4383 38.002C43.114 38.002 45.3645 35.8837 45.3645 33.1947C45.3645 30.507 43.1143 28.3872 40.4383 28.3872C37.7613 28.3872 35.5122 30.507 35.5122 33.1947Z" stroke="white"/>
<path d="M95.5904 81.1064C91.3654 81.1064 87.4947 83.6794 85.3984 87.7717C87.4947 91.8629 91.3654 94.4359 95.5904 94.4359C99.8142 94.4359 103.685 91.8629 105.781 87.7717C103.685 83.6794 99.8142 81.1064 95.5904 81.1064ZM95.5904 91.4482C93.5647 91.4482 91.9129 89.7964 91.9129 87.7717C91.9129 85.7469 93.5647 84.0952 95.5904 84.0952C97.6149 84.0952 99.2667 85.7469 99.2667 87.7717C99.2667 89.7964 97.6149 91.4482 95.5904 91.4482Z" fill="#FC6C2D"/>
<path d="M95.588 58.3594C79.3698 58.3594 66.1758 71.5536 66.1758 87.7716C66.1758 103.989 79.3698 117.183 95.588 117.183C111.805 117.183 124.999 103.989 124.999 87.7716C124.999 71.5536 111.805 58.3594 95.588 58.3594ZM113.23 89.1031C110.235 96.8096 103.309 101.789 95.588 101.789C87.8663 101.789 80.9405 96.8096 77.945 89.1031C77.6123 88.2466 77.6123 87.2959 77.945 86.4394C80.9405 78.7336 87.8663 73.7536 95.588 73.7536C103.309 73.7536 110.235 78.7329 113.23 86.4394C113.563 87.2959 113.563 88.2466 113.23 89.1031Z" fill="#FC6C2D"/>
</g>
<defs>
<clipPath id="clip0_2170_1579">
<rect width="125" height="125" fill="white"/>
</clipPath>
</defs>
</svg>
