<svg width="125" height="128" viewBox="0 0 125 128" fill="none" xmlns="http://www.w3.org/2000/svg">
<path d="M32.3494 68.6179C33.392 69.0758 34.3321 68.5858 34.7354 67.761L42.3022 51.6899C42.7295 50.7789 42.3553 49.6853 41.4833 49.2486C40.593 48.8108 39.5247 49.1934 39.0974 50.1044L31.5127 66.1764C31.0854 67.0876 31.4594 68.1802 32.3494 68.6179Z" fill="black"/>
<path d="M28.0423 59.4519C28.7959 60.0524 29.9142 59.9496 30.5349 59.1246C31.1403 58.3228 30.9977 57.193 30.2145 56.5728L27.8464 54.6963L30.2145 52.8379C30.9977 52.2185 31.1403 51.0708 30.5349 50.2869C29.9293 49.4854 28.8079 49.3394 28.0423 49.9586L23.8582 53.2568C23.4131 53.603 23.1641 54.1501 23.1641 54.6963C23.1641 55.2614 23.4131 55.8078 23.8582 56.1547L28.0423 59.4519Z" fill="black"/>
<path d="M43.301 67.579C43.9378 68.3938 45.0301 68.515 45.7934 67.9073L49.9776 64.6091C50.4227 64.2629 50.6717 63.7168 50.6717 63.1517C50.6717 62.5867 50.4227 62.0583 49.9776 61.7122L45.7934 58.414C45.0276 57.7948 43.9061 57.9397 43.301 58.7423C42.6954 59.5252 42.8375 60.6729 43.6214 61.293L45.9717 63.1517L43.6214 65.0282C42.8375 65.6295 42.6954 66.7775 43.301 67.579Z" fill="black"/>
<path d="M22.2922 75.7606H33.954C34.933 75.7606 35.7346 74.9591 35.7346 73.9384C35.7346 72.9366 34.933 72.1162 33.954 72.1162H22.2922C21.3128 72.1162 20.5117 72.9366 20.5117 73.9384C20.5117 74.9591 21.3128 75.7606 22.2922 75.7606Z" fill="black"/>
<path d="M94.2739 80.7539H83.4132C82.4343 80.7539 81.6328 81.5733 81.6328 82.5761C81.6328 83.5779 82.4343 84.3983 83.4132 84.3983H94.2739C95.2532 84.3983 96.0542 83.5779 96.0542 82.5761C96.0542 81.5733 95.2532 80.7539 94.2739 80.7539Z" fill="black"/>
<path d="M53.3936 84.3983H76.6462C77.625 84.3983 78.4265 83.5779 78.4265 82.5761C78.4265 81.5733 77.625 80.7539 76.6462 80.7539H53.3936C52.4143 80.7539 51.6133 81.5733 51.6133 82.5761C51.6133 83.5779 52.4143 84.3983 53.3936 84.3983Z" fill="black"/>
<path d="M22.2922 84.3983H45.6154C46.5948 84.3983 47.3958 83.5779 47.3958 82.5761C47.3958 81.5733 46.5948 80.7539 45.6154 80.7539H22.2922C21.3128 80.7539 20.5117 81.5733 20.5117 82.5761C20.5117 83.5779 21.3128 84.3983 22.2922 84.3983Z" fill="black"/>
<path d="M59.6977 89.3721H41.7686C40.7893 89.3721 39.9883 90.1925 39.9883 91.1943C39.9883 92.2157 40.7893 93.0165 41.7686 93.0165H59.6977C60.6765 93.0165 61.4781 92.2157 61.4781 91.1943C61.4781 90.1925 60.6765 89.3721 59.6977 89.3721Z" fill="black"/>
<path d="M92.3692 89.3721H85.9957H67.0694C66.0722 89.3721 65.2891 90.1925 65.2891 91.1943C65.2891 92.2157 66.0722 93.0165 67.0694 93.0165H85.9957H92.3692C93.3664 93.0165 94.1498 92.2157 94.1498 91.1943C94.1498 90.1925 93.3664 89.3721 92.3692 89.3721Z" fill="black"/>
<path d="M34.7017 89.3721H22.2922C21.3128 89.3721 20.5117 90.1925 20.5117 91.1943C20.5117 92.2157 21.3128 93.0165 22.2922 93.0165H34.7017C35.6805 93.0165 36.482 92.2157 36.482 91.1943C36.482 90.1925 35.6805 89.3721 34.7017 89.3721Z" fill="black"/>
<path d="M119.303 41.252C119.303 32.6893 112.771 25.6569 104.548 25.1089V22.8401C104.548 20.945 103.052 19.4147 101.218 19.4147H96.0016C94.1679 19.4147 92.672 20.945 92.672 22.8401V25.0716H86.209V18.5952C86.209 17.2179 87.3044 16.0969 88.6508 16.0969H101.915C105.224 16.0969 107.917 13.3405 107.917 9.95421V6.80459C107.917 5.79921 107.12 4.98242 106.137 4.98242C105.154 4.98242 104.357 5.79921 104.357 6.80459V9.95421C104.357 11.3315 103.261 12.4526 101.915 12.4526H88.6508C85.3414 12.4526 82.648 15.2089 82.648 18.5952V25.0716H76.1853V22.8401C76.1853 20.945 74.6896 19.4147 72.8562 19.4147H67.6391C65.8057 19.4147 64.31 20.945 64.31 22.8401V25.108H64.3052C57.9317 25.5635 52.5904 29.8635 50.4891 35.7492H19.6167C13.4382 35.7492 8.39993 40.9061 8.39993 47.2283V101.912H7.02896C6.10312 101.912 5.35547 102.677 5.35547 103.624V112.572C5.35547 117.583 9.34361 121.664 14.2398 121.664H102.353C107.249 121.664 111.238 117.583 111.238 112.572V103.624C111.238 102.677 110.49 101.912 109.564 101.912H108.193V56.7581C114.62 54.6995 119.303 48.5219 119.303 41.252ZM96.798 38.0446C98.4281 38.0446 99.7182 39.4423 99.7182 41.052C99.7182 42.6916 98.4006 44.0395 96.798 44.0395C95.1781 44.0395 93.8605 42.6916 93.8605 41.052C93.8605 39.3441 95.2103 38.0446 96.798 38.0446ZM58.8217 39.2298H62.5248C62.5248 38.7875 62.5248 35.2291 62.5248 35.4209C62.5248 34.4191 63.3258 33.5987 64.3052 33.5987C65.2845 33.5987 66.0858 34.4191 66.0858 35.4209C66.0858 35.6847 66.0858 39.4321 66.0858 39.2298H69.8069C70.7694 39.2298 71.5873 40.012 71.5873 41.052C71.5873 42.0538 70.7863 42.874 69.8069 42.874H66.0858V46.6643C66.0858 47.666 65.2845 48.4865 64.3052 48.4865C63.3258 48.4865 62.5248 47.666 62.5248 46.6643V42.874H58.8217C57.8424 42.874 57.0414 42.0538 57.0414 41.052C57.0414 40.0104 57.8605 39.2298 58.8217 39.2298ZM68.0799 110.02C68.0799 110.621 67.5993 111.096 67.0294 111.096H49.5633C48.9937 111.096 48.5131 110.621 48.5131 110.02V105.447H68.0799V110.02ZM104.632 101.802C95.5587 101.802 22.2374 101.802 11.9608 101.802V47.2283C11.9608 42.9097 15.3969 39.3933 19.6167 39.3933H49.6524C49.5814 40.0127 49.5457 40.6319 49.5457 41.252C49.5457 50.1982 56.6677 57.487 65.4092 57.487C70.7149 57.487 75.5756 54.8089 78.4779 50.3087H90.371C93.2728 54.8089 98.1511 57.487 103.492 57.487C103.866 57.487 104.258 57.4691 104.632 57.4326V101.802ZM103.884 51.2918C102.264 51.2918 100.946 49.9439 100.946 48.3041C100.946 46.6456 102.264 45.2977 103.884 45.2977C105.538 45.2977 106.804 46.7018 106.804 48.3041C106.804 49.8586 105.545 51.2918 103.884 51.2918ZM103.884 36.7875C102.264 36.7875 100.946 35.4395 100.946 33.799C100.946 32.1413 102.264 30.7926 103.884 30.7926C105.505 30.7926 106.804 32.1413 106.804 33.799C106.804 35.4395 105.505 36.7875 103.884 36.7875ZM108.033 41.052C108.033 39.3933 109.35 38.0446 110.97 38.0446C112.573 38.0446 113.89 39.3933 113.89 41.0331C113.89 42.6916 112.573 44.0395 110.97 44.0395C109.35 44.0395 108.033 42.6916 108.033 41.052Z" fill="#FC6C2D"/>
</svg>
