<svg width="125" height="125" viewBox="0 0 125 125" fill="none" xmlns="http://www.w3.org/2000/svg">
<g clip-path="url(#clip0_2170_1604)">
<mask id="mask0_2170_1604" style="mask-type:luminance" maskUnits="userSpaceOnUse" x="0" y="0" width="125" height="125">
<path d="M125 0H0V125H125V0Z" fill="white"/>
</mask>
<g mask="url(#mask0_2170_1604)">
<path d="M93.75 66.4062H64.4531V52.7344C64.4531 52.2165 64.2473 51.7196 63.881 51.3533C63.5148 50.9871 63.0179 50.7812 62.5 50.7812C61.9821 50.7812 61.4852 50.9871 61.119 51.3533C60.7527 51.7196 60.5469 52.2165 60.5469 52.7344V66.4062H31.25C29.696 66.4062 28.2056 67.0235 27.1069 68.1225C26.0079 69.2212 25.3906 70.7117 25.3906 72.2656V80.0781C25.3906 80.596 25.5965 81.0929 25.9627 81.4592C26.329 81.8254 26.8258 82.0312 27.3437 82.0312C27.8617 82.0312 28.3585 81.8254 28.7248 81.4592C29.091 81.0929 29.2969 80.596 29.2969 80.0781V72.2656C29.2969 71.7477 29.5027 71.2508 29.869 70.8846C30.2352 70.5183 30.7321 70.3125 31.25 70.3125H93.75C94.2679 70.3125 94.7648 70.5183 95.131 70.8846C95.4973 71.2508 95.7031 71.7477 95.7031 72.2656V80.0781C95.7031 80.596 95.909 81.0929 96.2752 81.4592C96.6415 81.8254 97.1383 82.0312 97.6562 82.0312C98.1742 82.0312 98.671 81.8254 99.0373 81.4592C99.4035 81.0929 99.6094 80.596 99.6094 80.0781V72.2656C99.6094 70.7117 98.9921 69.2212 97.8931 68.1225C96.7944 67.0235 95.304 66.4062 93.75 66.4062Z" fill="#FC6C2D"/>
<path d="M60.5469 1.95312H83.9844C85.5383 1.95312 87.0288 2.57046 88.1275 3.66929C89.2265 4.76815 89.8437 6.2585 89.8437 7.8125V13.6719H60.5469V1.95312Z" fill="white"/>
<path d="M35.1562 13.6719H89.8437V46.875C89.8437 48.429 89.2265 49.9194 88.1275 51.0181C87.0288 52.1171 85.5383 52.7344 83.9844 52.7344H41.0156C39.4617 52.7344 37.9712 52.1171 36.8725 51.0181C35.7735 49.9194 35.1562 48.429 35.1562 46.875V13.6719Z" fill="#FC6C2D"/>
<path d="M54.1208 25.9566C53.9391 25.7735 53.7231 25.6283 53.4852 25.5291C53.2472 25.4299 52.9918 25.3789 52.7341 25.3789C52.4762 25.3789 52.221 25.4299 51.9829 25.5291C51.7449 25.6283 51.5289 25.7735 51.3472 25.9566L45.4879 31.816C45.3049 31.9977 45.1595 32.2137 45.0604 32.4516C44.9612 32.6895 44.9102 32.9449 44.9102 33.2027C44.9102 33.4606 44.9612 33.7158 45.0604 33.9539C45.1595 34.1918 45.3049 34.4079 45.4879 34.5895L51.3472 40.4489C51.7152 40.8166 52.2139 41.0233 52.7341 41.0233C53.2541 41.0233 53.7531 40.8166 54.1208 40.4489C54.4885 40.081 54.6952 39.5822 54.6952 39.062C54.6952 38.542 54.4885 38.0433 54.1208 37.6754L49.6285 33.2027L54.1208 28.7302C54.3039 28.5485 54.4491 28.3324 54.5483 28.0945C54.6474 27.8564 54.6985 27.6012 54.6985 27.3433C54.6985 27.0856 54.6474 26.8302 54.5483 26.5922C54.4491 26.3543 54.3039 26.1383 54.1208 25.9566Z" fill="white"/>
<path d="M79.512 31.8166L73.6526 25.9572C73.2847 25.5895 72.7859 25.3828 72.2657 25.3828C71.7457 25.3828 71.2468 25.5895 70.8791 25.9572C70.5114 26.3251 70.3047 26.8239 70.3047 27.3441C70.3047 27.8641 70.5114 28.3628 70.8791 28.7307L75.3714 33.2034L70.8791 37.6759C70.697 37.858 70.5526 38.0743 70.4541 38.3122C70.3553 38.5501 70.3047 38.8051 70.3047 39.0628C70.3047 39.3203 70.3553 39.5753 70.4541 39.8132C70.5526 40.0511 70.697 40.2674 70.8791 40.4495C71.0611 40.6316 71.2774 40.7759 71.5153 40.8745C71.7532 40.973 72.0082 41.0239 72.2657 41.0239C72.5232 41.0239 72.7784 40.973 73.0163 40.8745C73.2543 40.7759 73.4703 40.6316 73.6526 40.4495L79.512 34.5901C79.6949 34.4084 79.8403 34.1924 79.9395 33.9545C80.0386 33.7164 80.0897 33.4611 80.0897 33.2034C80.0897 32.9455 80.0386 32.6903 79.9395 32.4522C79.8403 32.2143 79.6949 31.9982 79.512 31.8166Z" fill="white"/>
<path d="M64.9205 23.4377C64.4182 23.3138 63.8869 23.3942 63.444 23.6617C63.0009 23.929 62.6819 24.3611 62.5573 24.8634L58.6511 40.4884C58.578 40.7409 58.5567 41.0057 58.5886 41.2665C58.6203 41.5275 58.7044 41.7794 58.8359 42.0069C58.9671 42.2346 59.1432 42.4334 59.3532 42.5915C59.5634 42.7494 59.8032 42.8634 60.0582 42.9265C60.3134 42.9896 60.5788 43.0007 60.8382 42.9588C61.0978 42.9169 61.3461 42.8232 61.5686 42.6832C61.7909 42.5429 61.9828 42.3594 62.1326 42.1434C62.2823 41.9273 62.3869 41.6834 62.4401 41.4259L66.3463 25.8009C66.4703 25.2986 66.3896 24.7673 66.1223 24.3244C65.8551 23.8813 65.4228 23.5623 64.9205 23.4377Z" fill="white"/>
<path d="M70.3125 13.6719H35.1562V7.8125C35.1562 6.2585 35.7735 4.76815 36.8725 3.66929C37.9712 2.57046 39.4617 1.95312 41.0156 1.95312H62.1875C63.415 1.95542 64.6106 2.34313 65.6058 3.06154C66.6012 3.77994 67.3456 4.79275 67.7344 5.95702L70.3125 13.6719Z" fill="white"/>
<path d="M35.1562 37.1094C35.6742 37.1094 36.171 36.9035 36.5373 36.5373C36.9035 36.171 37.1094 35.6742 37.1094 35.1562V31.25C37.1094 30.7321 36.9035 30.2352 36.5373 29.869C36.171 29.5027 35.6742 29.2969 35.1562 29.2969C34.6383 29.2969 34.1415 29.5027 33.7752 29.869C33.409 30.2352 33.2031 30.7321 33.2031 31.25V35.1562C33.2031 35.6742 33.409 36.171 33.7752 36.5373C34.1415 36.9035 34.6383 37.1094 35.1562 37.1094Z" fill="#FC6C2D"/>
<path d="M52.7344 113.281H49.6875C50.3975 112.102 50.7754 110.752 50.7812 109.375V85.9375C50.7812 83.8654 49.9581 81.8783 48.4929 80.4133C47.0279 78.9481 45.0408 78.125 42.9688 78.125H11.7188C9.64675 78.125 7.6596 78.9481 6.19448 80.4133C4.72935 81.8783 3.90625 83.8654 3.90625 85.9375V109.375C3.91202 110.752 4.28994 112.102 5 113.281H1.95312C1.43512 113.281 0.93834 113.487 0.572056 113.853C0.205775 114.22 0 114.716 0 115.234V119.141C0 120.695 0.617325 122.185 1.71617 123.284C2.81502 124.383 4.30537 125 5.85938 125H48.8281C50.3821 125 51.8725 124.383 52.9712 123.284C54.0702 122.185 54.6875 120.695 54.6875 119.141V115.234C54.6875 114.716 54.4817 114.22 54.1154 113.853C53.7492 113.487 53.2523 113.281 52.7344 113.281ZM7.8125 109.375V85.9375C7.8125 84.9015 8.22404 83.9079 8.9566 83.1754C9.68919 82.4427 10.6827 82.0312 11.7188 82.0312H42.9688C44.0048 82.0312 44.9983 82.4427 45.7308 83.1754C46.4635 83.9079 46.875 84.9015 46.875 85.9375V109.375C46.875 110.411 46.4635 111.405 45.7308 112.137C44.9983 112.87 44.0048 113.281 42.9688 113.281H11.7188C10.6827 113.281 9.68919 112.87 8.9566 112.137C8.22404 111.405 7.8125 110.411 7.8125 109.375ZM50.7812 119.141C50.7812 119.659 50.5754 120.155 50.2092 120.522C49.8429 120.888 49.346 121.094 48.8281 121.094H5.85938C5.34137 121.094 4.84458 120.888 4.47831 120.522C4.11202 120.155 3.90625 119.659 3.90625 119.141V117.188H50.7812V119.141Z" fill="#0F0F0F"/>
<path d="M123.047 113.281H120C120.71 112.102 121.088 110.752 121.094 109.375V85.9375C121.094 83.8654 120.271 81.8783 118.805 80.4133C117.34 78.9481 115.353 78.125 113.281 78.125H82.0312C79.9592 78.125 77.9721 78.9481 76.5071 80.4133C75.0419 81.8783 74.2187 83.8654 74.2187 85.9375V91.7969C74.2187 92.3148 74.4246 92.8117 74.7908 93.1779C75.1571 93.5442 75.654 93.75 76.1719 93.75C76.6898 93.75 77.1867 93.5442 77.5529 93.1779C77.9192 92.8117 78.125 92.3148 78.125 91.7969V85.9375C78.125 84.9015 78.5365 83.9079 79.2692 83.1754C80.0017 82.4427 80.9952 82.0312 82.0312 82.0312H113.281C114.317 82.0312 115.311 82.4427 116.043 83.1754C116.776 83.9079 117.188 84.9015 117.188 85.9375V109.375C117.188 110.411 116.776 111.405 116.043 112.137C115.311 112.87 114.317 113.281 113.281 113.281H82.0312C80.9952 113.281 80.0017 112.87 79.2692 112.137C78.5365 111.405 78.125 110.411 78.125 109.375V99.6094C78.125 99.0915 77.9192 98.5946 77.5529 98.2283C77.1867 97.8621 76.6898 97.6562 76.1719 97.6562C75.654 97.6562 75.1571 97.8621 74.7908 98.2283C74.4246 98.5946 74.2187 99.0915 74.2187 99.6094C74.2187 109.824 73.8673 110.82 75.3125 113.281H72.2656C71.7477 113.281 71.2508 113.487 70.8846 113.853C70.5183 114.22 70.3125 114.716 70.3125 115.234V119.141C70.3125 120.695 70.9298 122.185 72.0287 123.284C73.1275 124.383 74.6179 125 76.1719 125H119.141C120.695 125 122.185 124.383 123.284 123.284C124.383 122.185 125 120.695 125 119.141V115.234C125 114.716 124.794 114.22 124.428 113.853C124.062 113.487 123.565 113.281 123.047 113.281ZM121.094 119.141C121.094 119.659 120.888 120.155 120.522 120.522C120.155 120.888 119.659 121.094 119.141 121.094H76.1719C75.654 121.094 75.1571 120.888 74.7908 120.522C74.4246 120.155 74.2187 119.659 74.2187 119.141V117.188H121.094V119.141Z" fill="black"/>
<path d="M15.625 91.7969H19.5312C20.0492 91.7969 20.546 91.591 20.9123 91.2248C21.2785 90.8585 21.4844 90.3617 21.4844 89.8437C21.4844 89.3258 21.2785 88.829 20.9123 88.4627C20.546 88.0965 20.0492 87.8906 19.5312 87.8906H15.625C15.107 87.8906 14.6102 88.0965 14.2439 88.4627C13.8776 88.829 13.6719 89.3258 13.6719 89.8437C13.6719 90.3617 13.8776 90.8585 14.2439 91.2248C14.6102 91.591 15.107 91.7969 15.625 91.7969Z" fill="#FC6C2D"/>
<path d="M41.0156 89.8437C41.0156 89.3258 40.8098 88.829 40.4435 88.4627C40.0773 88.0965 39.5804 87.8906 39.0625 87.8906H29.2969C28.779 87.8906 28.2821 88.0965 27.9158 88.4627C27.5496 88.829 27.3438 89.3258 27.3438 89.8437C27.3438 90.3617 27.5496 90.8585 27.9158 91.2248C28.2821 91.591 28.779 91.7969 29.2969 91.7969H39.0625C39.5804 91.7969 40.0773 91.591 40.4435 91.2248C40.8098 90.8585 41.0156 90.3617 41.0156 89.8437Z" fill="#FC6C2D"/>
<path d="M25.3906 97.6562H15.625C15.107 97.6562 14.6102 97.8621 14.2439 98.2283C13.8776 98.5946 13.6719 99.0915 13.6719 99.6094C13.6719 100.127 13.8776 100.624 14.2439 100.99C14.6102 101.357 15.107 101.562 15.625 101.562H25.3906C25.9085 101.562 26.4054 101.357 26.7717 100.99C27.1379 100.624 27.3437 100.127 27.3437 99.6094C27.3437 99.0915 27.1379 98.5946 26.7717 98.2283C26.4054 97.8621 25.9085 97.6562 25.3906 97.6562Z" fill="#FC6C2D"/>
<path d="M39.0625 97.6562H35.1562C34.6383 97.6562 34.1415 97.8621 33.7752 98.2283C33.409 98.5946 33.2031 99.0915 33.2031 99.6094C33.2031 100.127 33.409 100.624 33.7752 100.99C34.1415 101.357 34.6383 101.562 35.1562 101.562H39.0625C39.5804 101.562 40.0773 101.357 40.4435 100.99C40.8098 100.624 41.0156 100.127 41.0156 99.6094C41.0156 99.0915 40.8098 98.5946 40.4435 98.2283C40.0773 97.8621 39.5804 97.6562 39.0625 97.6562Z" fill="#FC6C2D"/>
<path d="M85.9375 91.7969H89.8438C90.3617 91.7969 90.8585 91.591 91.2248 91.2248C91.591 90.8585 91.7969 90.3617 91.7969 89.8437C91.7969 89.3258 91.591 88.829 91.2248 88.4627C90.8585 88.0965 90.3617 87.8906 89.8438 87.8906H85.9375C85.4196 87.8906 84.9227 88.0965 84.5565 88.4627C84.1902 88.829 83.9844 89.3258 83.9844 89.8437C83.9844 90.3617 84.1902 90.8585 84.5565 91.2248C84.9227 91.591 85.4196 91.7969 85.9375 91.7969Z" fill="#FC6C2D"/>
<path d="M111.328 89.8437C111.328 89.3258 111.122 88.829 110.756 88.4627C110.39 88.0965 109.893 87.8906 109.375 87.8906H99.6094C99.0915 87.8906 98.5946 88.0965 98.2283 88.4627C97.8621 88.829 97.6562 89.3258 97.6562 89.8437C97.6562 90.3617 97.8621 90.8585 98.2283 91.2248C98.5946 91.591 99.0915 91.7969 99.6094 91.7969H109.375C109.893 91.7969 110.39 91.591 110.756 91.2248C111.122 90.8585 111.328 90.3617 111.328 89.8437Z" fill="#FC6C2D"/>
<path d="M95.7031 97.6562H85.9375C85.4196 97.6562 84.9227 97.8621 84.5565 98.2283C84.1902 98.5946 83.9844 99.0915 83.9844 99.6094C83.9844 100.127 84.1902 100.624 84.5565 100.99C84.9227 101.357 85.4196 101.562 85.9375 101.562H95.7031C96.221 101.562 96.7179 101.357 97.0842 100.99C97.4504 100.624 97.6562 100.127 97.6562 99.6094C97.6562 99.0915 97.4504 98.5946 97.0842 98.2283C96.7179 97.8621 96.221 97.6562 95.7031 97.6562Z" fill="#FC6C2D"/>
<path d="M109.375 97.6562H105.469C104.951 97.6562 104.454 97.8621 104.088 98.2283C103.721 98.5946 103.516 99.0915 103.516 99.6094C103.516 100.127 103.721 100.624 104.088 100.99C104.454 101.357 104.951 101.562 105.469 101.562H109.375C109.893 101.562 110.39 101.357 110.756 100.99C111.122 100.624 111.328 100.127 111.328 99.6094C111.328 99.0915 111.122 98.5946 110.756 98.2283C110.39 97.8621 109.893 97.6562 109.375 97.6562Z" fill="#FC6C2D"/>
</g>
</g>
<defs>
<clipPath id="clip0_2170_1604">
<rect width="125" height="125" fill="white"/>
</clipPath>
</defs>
</svg>
