<svg width="68" height="70" viewBox="0 0 68 70" fill="none" xmlns="http://www.w3.org/2000/svg">
<path d="M36.8 63.0998H43.8C52.8 63.0998 60.2 55.6998 60.2 46.6998V33.7998H53.2V40.7998C53.2 45.9998 49 50.1998 43.8 50.1998H41.5L36.8 63.0998Z" fill="#959DA6"/>
<path d="M43.5 48.7996L40.8 47.4996C40.4 45.8996 39.7 44.2996 38.9 42.8996L39.8 40.0996C38.7 38.7996 37.6 37.5996 36.2 36.4996L33.4 37.3996C31.9 36.4996 30.4 35.8996 28.8 35.4996L27.5 32.7996C26.7 32.6996 25.8 32.5996 25 32.5996C24.2 32.5996 23.3 32.6996 22.5 32.7996L21.2 35.4996C19.6 35.8996 18 36.5996 16.6 37.3996L13.8 36.4996C12.5 37.5996 11.3 38.6996 10.2 40.0996L11.1 42.8996C10.3 44.3996 9.59996 45.8996 9.19996 47.4996L6.49996 48.7996C6.19996 50.4996 6.19996 52.1996 6.49996 53.7996L9.19996 55.0996C9.59996 56.6996 10.3 58.2996 11.1 59.6996L10.2 62.4996C11.3 63.7996 12.4 64.9996 13.8 66.0996L16.6 65.1996C18.1 66.0996 19.6 66.6996 21.2 67.0996L22.5 69.7996C23.3 69.8996 24.2 69.9996 25 69.9996C25.8 69.9996 26.7 69.8996 27.5 69.7996L28.8 67.0996C30.4 66.6996 32 65.9996 33.4 65.1996L36.2 66.0996C37.5 64.9996 38.7 63.8996 39.8 62.4996L38.9 59.6996C39.8 58.1996 40.4 56.6996 40.8 55.0996L43.5 53.7996C43.8 52.0996 43.8 50.4996 43.5 48.7996ZM25 62.5996C18.8 62.5996 13.8 57.5996 13.8 51.3996C13.8 45.1996 18.8 40.1996 25 40.1996C31.2 40.1996 36.2 45.1996 36.2 51.3996C36.2 57.5996 31.2 62.5996 25 62.5996Z" fill="#87B0F2"/>
<path d="M25 62.9996C31.4617 62.9996 36.7 57.7613 36.7 51.2996C36.7 44.8379 31.4617 39.5996 25 39.5996C18.5383 39.5996 13.3 44.8379 13.3 51.2996C13.3 57.7613 18.5383 62.9996 25 62.9996Z" fill="#FFE473"/>
<path d="M46.2 33.7996L56.7 22.0996L67.2 33.7996H46.2Z" fill="#A0A9B3"/>
<path d="M22.3 22.8996C22.4 21.7996 22.3 20.7996 22.1 19.6996L23.2 18.1996C22.8 17.1996 22.4 16.1996 21.8 15.3996H20C19.3 14.5996 18.5 13.8996 17.6 13.3996L17.3 11.5996C16.4 11.0996 15.3 10.7996 14.4 10.5996L13.1 11.8996C12 11.7996 11 11.8996 9.89999 12.0996L8.49999 10.9996C7.99999 11.0996 7.49999 11.3996 6.99999 11.5996C6.49999 11.7996 6.09999 12.0996 5.69999 12.3996V14.1996C4.89999 14.8996 4.19999 15.6996 3.69999 16.5996L1.79999 16.9996C1.29999 17.8996 0.999988 18.9996 0.799988 19.8996L1.89999 21.1996C1.79999 22.2996 1.89999 23.2996 2.09999 24.3996L0.999988 25.8996C1.39999 26.8996 1.79999 27.8996 2.39999 28.6996H4.19999C4.89999 29.4996 5.69999 30.1996 6.59999 30.6996L6.89999 32.4996C7.79999 32.9996 8.89999 33.2996 9.79999 33.4996L11.1 32.1996C12.2 32.2996 13.2 32.1996 14.3 31.9996L15.8 33.0996C16.3 32.9996 16.8 32.6996 17.3 32.4996C17.8 32.2996 18.2 31.9996 18.6 31.6996V29.8996C19.4 29.1996 20.1 28.3996 20.6 27.4996L22.4 27.1996C22.9 26.2996 23.2 25.1996 23.4 24.2996L22.3 22.8996ZM12.1 27.8996C8.89999 27.8996 6.29999 25.2996 6.29999 22.0996C6.29999 18.8996 8.89999 16.2996 12.1 16.2996C15.3 16.2996 17.9 18.8996 17.9 22.0996C17.9 25.2996 15.4 27.8996 12.1 27.8996Z" fill="#799DD9"/>
<path d="M56.7 8V18.7L47.3 14.7V4L56.7 8Z" fill="#D18528"/>
<path d="M66.1 4L56.7 8L47.4 4L56.8 0L66.1 4Z" fill="#D1AB7B"/>
<path d="M66.1 4V14.7L56.7 18.7V8L66.1 4Z" fill="#D19752"/>
<path d="M26.3 50.1996V46.6996C27.6 46.6996 28.6 47.4996 28.6 48.4996H30.9C30.8 46.0996 28.7 44.1996 26.2 44.3996V42.0996H23.9V44.3996C21.4 44.2996 19.4 46.0996 19.2 48.4996C19.3 50.8996 21.4 52.7996 23.9 52.5996V56.0996C22.6 56.0996 21.6 55.2996 21.6 54.2996H19.3C19.4 56.6996 21.5 58.5996 24 58.3996V60.6996H26.3V58.3996C28.8 58.4996 30.8 56.6996 31 54.2996C30.8 51.8996 28.7 50.0996 26.3 50.1996ZM21.6 48.4996C21.6 47.4996 22.7 46.6996 23.9 46.6996V50.1996C22.7 50.1996 21.6 49.4996 21.6 48.4996ZM26.3 56.0996V52.5996C27.6 52.5996 28.6 53.3996 28.6 54.3996C28.6 55.2996 27.5 56.0996 26.3 56.0996Z" fill="#687180"/>
</svg>
