<svg width="70" height="70" viewBox="0 0 70 70" fill="none" xmlns="http://www.w3.org/2000/svg">
<path d="M63.5 70H10.2V0H63.5C63.7999 0 64.0999 0.2 64.0999 0.6V69.5C64 69.8 63.7999 70 63.5 70Z" fill="#ADE7FF"/>
<path d="M63.5 70H59.8V0H63.5C63.8 0 64.1 0.2 64.1 0.6V69.5C64 69.8 63.8 70 63.5 70Z" fill="#82D2F5"/>
<path d="M14.4 70H6.50002C6.20002 70 5.90002 69.8 5.90002 69.4V0.6C6.00002 0.2 6.20002 0 6.50002 0H14.4V70Z" fill="#FF2C5C"/>
<path d="M10.2 0H14.4V70H10.2V0Z" fill="#E62753"/>
<path d="M26.7 28.5996V45.5996C26.7 45.8996 26.6 46.0996 26.4 46.1996C26.3 46.2996 26.1 46.2996 25.9 46.2996H8.7C8.6 46.2996 8.4 46.1996 8.3 46.1996L0.5 41.8996C0.4 41.7996 0.3 41.7996 0.2 41.6996C0.1 41.6996 0 41.4996 0 41.3996V24.3996C0 23.9996 0.3 23.5996 0.8 23.5996H18.1C18.2 23.5996 18.2 23.5996 18.3 23.5996C18.4 23.5996 18.4 23.6996 18.5 23.6996L22.6 25.8996L26.4 27.9996C26.6 28.0996 26.7 28.3996 26.7 28.5996Z" fill="#3D9ADB"/>
<path d="M18.3 23.5V41.8H0.1C0.1 41.7 0 41.5 0 41.4V24.4C0 24 0.3 23.6 0.8 23.6H18.1C18.2 23.5 18.3 23.5 18.3 23.5Z" fill="#4FB1F5"/>
<path d="M26.7001 28.6V45.6C26.7001 45.9 26.6 46.1 26.4 46.2L22.5 44L18.3 41.7V23.5C18.4 23.5 18.4 23.6 18.5 23.6L22.6 25.8L26.4 27.9C26.6 28.1 26.7001 28.4 26.7001 28.6Z" fill="#46A4E6"/>
<path d="M26.7 28.5998V45.5998C26.7 45.8998 26.6 46.0998 26.4 46.1998L22.5 43.9998V25.7998L26.3 27.8998C26.6 28.0998 26.7 28.3998 26.7 28.5998Z" fill="#3D9ADB"/>
<path d="M70 24.4V41.4C70 41.6 69.9 41.7 69.9 41.9C69.8 42 69.7999 42 69.5999 42.1L61.7999 46.4C61.6999 46.5 61.5 46.5 61.4 46.5H44C43.8 46.5 43.6 46.4 43.5 46.4C43.3 46.3 43.2 46.1 43.2 45.8V28.6C43.2 28.3 43.2999 28 43.5999 27.9L51.4 23.6C51.5 23.6 51.5 23.5 51.5 23.5C51.6 23.5 51.6 23.5 51.7 23.5H69C69.7 23.5 70 23.9 70 24.4Z" fill="#FF943D"/>
<path d="M70 24.4V41.4C70 41.6 69.9 41.7 69.9 41.9H51.7V23.5C51.8 23.5 51.8 23.5 51.9 23.5H69.1999C69.6999 23.5 70 23.9 70 24.4Z" fill="#FFD659"/>
<path d="M70 24.4V41.4C70 41.6 69.9 41.7 69.9 41.9H65.8V23.5H69.2C69.7 23.5 70 23.9 70 24.4Z" fill="#FFBD54"/>
<path d="M51.7 23.5V41.8L43.5999 46.3C43.3999 46.2 43.2 45.9 43.2 45.7V28.7C43.2 28.4 43.2999 28.1 43.5999 28L51.4 23.7C51.6 23.6 51.7 23.6 51.7 23.5Z" fill="#FFBD54"/>
<path d="M31.1 40.8004H23.2C22.6 40.8004 22.2 40.3004 22.2 39.8004C22.2 39.2004 22.7 38.8004 23.2 38.8004H30V32.4004H23.1C22.5 32.4004 22.1 31.9004 22.1 31.4004C22.1 30.9004 22.6 30.4004 23.1 30.4004H31C31.6 30.4004 32 30.9004 32 31.4004V39.9004C32.1 40.3004 31.6 40.8004 31.1 40.8004Z" fill="#685C79"/>
<path d="M46.8 40.8004H38.9C38.3 40.8004 37.9 40.3004 37.9 39.8004V31.4004C37.9 30.8004 38.4 30.4004 38.9 30.4004H46.8C47.4 30.4004 47.8 30.9004 47.8 31.4004C47.8 31.9004 47.3 32.5004 46.8 32.5004H40V38.9004H46.9C47.5 38.9004 47.9 39.4004 47.9 39.9004C47.9 40.3004 47.4 40.8004 46.8 40.8004Z" fill="#685C79"/>
<path d="M40.2001 36.6H29.8C29.2 36.6 28.8 36.1 28.8 35.5C28.8 34.9 29.3 34.5 29.8 34.5H40.3C40.9 34.5 41.3 35 41.3 35.5C41.3 36.1 40.8001 36.6 40.2001 36.6Z" fill="#594F69"/>
<path d="M23 7.3002H54.9C55.5 7.3002 55.9 6.8002 55.9 6.3002C55.9 5.8002 55.4 5.2002 54.9 5.2002H23C22.4 5.2002 22 5.7002 22 6.3002C22 6.9002 22.5 7.3002 23 7.3002Z" fill="#685C79"/>
<path d="M54.9 10.9004H23C22.4 10.9004 22 11.4004 22 12.0004C22 12.6004 22.5 13.1004 23 13.1004H54.9C55.5 13.1004 55.9 12.6004 55.9 12.0004C55.9 11.4004 55.4 10.9004 54.9 10.9004Z" fill="#685C79"/>
<path d="M54.9 16.5996H23C22.4 16.5996 22 17.0996 22 17.6996C22 18.2996 22.5 18.6996 23 18.6996H54.9C55.5 18.6996 55.9 18.1996 55.9 17.6996C55.9 16.9996 55.4 16.5996 54.9 16.5996Z" fill="#685C79"/>
<path d="M54.9 51.4004H23C22.4 51.4004 22 51.9004 22 52.4004C22 52.9004 22.5 53.4004 23 53.4004H54.9C55.5 53.4004 55.9 52.9004 55.9 52.4004C55.9 51.8004 55.4 51.4004 54.9 51.4004Z" fill="#685C79"/>
<path d="M54.9 57H23C22.4 57 22 57.5 22 58.1C22 58.7 22.5 59.1 23 59.1H54.9C55.5 59.1 55.9 58.6 55.9 58.1C55.9 57.5 55.4 57 54.9 57Z" fill="#685C79"/>
<path d="M54.9 62.7002H23C22.4 62.7002 22 63.2002 22 63.7002C22 64.2002 22.5 64.7002 23 64.7002H54.9C55.5 64.7002 55.9 64.2002 55.9 63.7002C55.9 63.1002 55.4 62.7002 54.9 62.7002Z" fill="#685C79"/>
</svg>
