<svg width="70" height="70" viewBox="0 0 70 70" fill="none" xmlns="http://www.w3.org/2000/svg">
<g clip-path="url(#clip0_1125_600)">
<path d="M62.7001 24.6002C62.2001 24.1002 61.9001 23.4002 61.9001 22.7002V15.3002C61.9001 11.3002 58.6 8.0002 54.6 8.0002H47.3C46.6 8.0002 45.9001 7.7002 45.4001 7.2002L40.2001 2.0002C37.3 -0.899805 32.7001 -0.899805 29.8 2.0002L24.6 7.2002C24.1 7.7002 23.4001 8.0002 22.7001 8.0002H15.4C11.4 8.0002 8.10005 11.3002 8.10005 15.3002V22.7002C8.10005 23.4002 7.80005 24.1002 7.30005 24.6002L2.10005 29.8002C-0.799951 32.7002 -0.799951 37.3002 2.10005 40.2002L7.30005 45.4002C7.80005 45.9002 8.10005 46.6002 8.10005 47.3002V54.6002C8.10005 58.6002 11.4 61.9002 15.4 61.9002H22.8C23.5 61.9002 24.2001 62.2002 24.7001 62.7002L29.9 67.9002C32.8 70.8002 37.4 70.8002 40.3 67.9002L45.5 62.7002C46 62.2002 46.7001 61.9002 47.4001 61.9002H54.7001C58.7001 61.9002 62 58.6002 62 54.6002V47.3002C62 46.6002 62.3 45.9002 62.8 45.4002L68 40.2002C70.9 37.3002 70.9 32.7002 68 29.8002L62.7001 24.6002ZM46 30.5002L33.5 42.9002C32.6 43.7002 31.1 43.7002 30.2001 42.9002L24 36.7002C23.1 35.8002 23.1 34.3002 24 33.4002C24.9 32.5002 26.3001 32.5002 27.2001 33.4002L31.7001 38.0002L42.6 27.2002C43.5 26.3002 45 26.3002 45.9001 27.2002C46.9001 28.0002 46.9001 29.5002 46 30.5002Z" fill="#5ECBF1"/>
<path d="M62.7 24.6C62.2 24.1 61.9 23.4 61.9 22.7V15.3C61.9 11.3 58.6 8 54.6 8H47.3C46.6 8 45.9 7.7 45.4 7.2L40.2 2C38.8 0.8 37 0 35 0V34.8L42.7 27.1C43.6 26.2 45.1 26.2 46 27.1C46.9 28 46.9 29.5 46.1 30.4C46.1 30.4 46.1 30.4 46 30.5L35 41.5V70C37 70 38.8 69.2 40.2 67.8L45.4 62.6C45.9 62.1 46.6 61.8 47.3 61.8H54.6C58.6 61.8 61.9 58.5 61.9 54.5V47.2C61.9 46.5 62.2 45.8 62.7 45.3L67.9 40.1C70.8 37.2 70.8 32.6 67.9 29.7L62.7 24.6Z" fill="#4793FF"/>
</g>
<defs>
<clipPath id="clip0_1125_600">
<rect width="70" height="70" fill="white"/>
</clipPath>
</defs>
</svg>
