<svg width="62" height="70" viewBox="0 0 62 70" fill="none" xmlns="http://www.w3.org/2000/svg">
<path d="M53.4 32.2L45.7 27.8C45.4 27.6 45.1 27.2 45.1 26.8V18L53.4 22.8V32.2Z" fill="#96D2FF"/>
<path d="M61.2 27.8L53.5 32.2V22.8L61.8 18V26.8C61.7 27.2 61.5 27.5 61.2 27.8Z" fill="#72B4F4"/>
<path d="M54 13.6L61.7 18L53.4 22.8L45.2 18L52.9 13.6C53.2 13.3 53.6 13.3 54 13.6Z" fill="#C0E7FF"/>
<path d="M31 70.6L23.3 66.2C23 66 22.7 65.6 22.7 65.2V56.5L31 61.2V70.6Z" fill="#96D2FF"/>
<path d="M38.7 66.1994L31 70.5994V61.1994L39.3 56.3994V65.1994C39.3 65.5994 39.1 65.9994 38.7 66.1994Z" fill="#72B4F4"/>
<path d="M31.6 51.9997L39.3 56.3997L31 61.0997L22.7 56.2997L30.4 51.8997C30.8 51.7997 31.2 51.7997 31.6 51.9997Z" fill="#C0E7FF"/>
<path d="M31 19.4002L23.3 15.0002C23 14.8002 22.7 14.4002 22.7 14.0002V5.2002L31 9.9002V19.4002Z" fill="#96D2FF"/>
<path d="M38.7 14.9996L31 19.3996V9.89961L39.3 5.09961V13.9996C39.3 14.3996 39.1 14.6996 38.7 14.9996Z" fill="#72B4F4"/>
<path d="M31.6 0.699805L39.3 5.0998L31 9.8998L22.7 5.0998L30.4 0.699805C30.8 0.499805 31.2 0.499805 31.6 0.699805Z" fill="#C0E7FF"/>
<path d="M43.6013 27.3885L39.9545 29.4717L40.7977 30.9478L44.4445 28.8646L43.6013 27.3885Z" fill="#1B2E69"/>
<path d="M43.5929 52.9871L39.946 55.0703L40.7892 56.5464L44.4361 54.4632L43.5929 52.9871Z" fill="#1B2E69"/>
<path d="M40.8836 40.1997L40.0404 41.6758L43.6873 43.759L44.5305 42.2829L40.8836 40.1997Z" fill="#1B2E69"/>
<path d="M40.8191 14.4799L39.9759 15.9561L43.6228 18.0393L44.4659 16.5631L40.8191 14.4799Z" fill="#1B2E69"/>
<path d="M53.4 57.7996L45.7 53.3996C45.4 53.1996 45.1 52.7996 45.1 52.3996V43.5996L53.4 48.3996V57.7996Z" fill="#96D2FF"/>
<path d="M61.2 53.3996L53.5 57.7996V48.3996L61.7 43.5996V52.3996C61.7 52.7996 61.5 53.1996 61.2 53.3996Z" fill="#72B4F4"/>
<path d="M54 39.1998L61.7 43.5998L53.4 48.3998L45.1 43.5998L52.8 39.1998C53.2 38.9998 53.6 38.9998 54 39.1998Z" fill="#C0E7FF"/>
<path d="M54.3 33.5996H52.6V37.3996H54.3V33.5996Z" fill="#1B2E69"/>
<path d="M8.60004 32.2L16.3 27.8C16.6 27.6 16.9 27.2 16.9 26.8V18L8.60004 22.8V32.2Z" fill="#72B4F4"/>
<path d="M0.900024 27.8L8.60003 32.2V22.8L0.400024 18V26.8C0.400024 27.2 0.600024 27.5 0.900024 27.8Z" fill="#96D2FF"/>
<path d="M8.10002 13.6L0.400024 18L8.70002 22.8L17 18L9.30002 13.6C8.80002 13.3 8.40002 13.3 8.10002 13.6Z" fill="#C0E7FF"/>
<path d="M18.3761 27.3471L17.5329 28.8232L21.1798 30.9064L22.023 29.4303L18.3761 27.3471Z" fill="#1B2E69"/>
<path d="M18.4034 52.9301L17.5602 54.4062L21.207 56.4895L22.0502 55.0133L18.4034 52.9301Z" fill="#1B2E69"/>
<path d="M21.2047 40.1873L17.5579 42.2705L18.4011 43.7466L22.0479 41.6634L21.2047 40.1873Z" fill="#1B2E69"/>
<path d="M21.1891 14.4764L17.5422 16.5596L18.3854 18.0357L22.0323 15.9525L21.1891 14.4764Z" fill="#1B2E69"/>
<path d="M8.60004 57.7996L16.3 53.3996C16.6 53.1996 16.9 52.7996 16.9 52.3996V43.5996L8.60004 48.3996V57.7996Z" fill="#72B4F4"/>
<path d="M0.900024 53.3996L8.60003 57.7996V48.3996L0.400024 43.5996V52.3996C0.400024 52.7996 0.600024 53.1996 0.900024 53.3996Z" fill="#96D2FF"/>
<path d="M8.10002 39.1998L0.400024 43.5998L8.70002 48.3998L17 43.5998L9.30002 39.1998C8.80002 38.9998 8.40002 38.9998 8.10002 39.1998Z" fill="#C0E7FF"/>
<path d="M9.50005 33.5996H7.80005V37.3996H9.50005V33.5996Z" fill="#1B2E69"/>
<path d="M31.9 20.7998H30.2V24.5998H31.9V20.7998Z" fill="#1B2E69"/>
<path d="M31.9 46.3994H30.2V50.1994H31.9V46.3994Z" fill="#1B2E69"/>
<path d="M39.7 36.9994L38.4 36.1994C38.5 35.6994 38.5 35.1994 38.4 34.6994L39.7 33.8994C40.1 33.6994 40.3 33.1994 40 32.7994L37.8 28.9994C37.6 28.5994 37.1 28.3994 36.7 28.6994L35.4 29.4994C35 29.1994 34.6 28.8994 34.1 28.6994V27.1994C34.1 26.6994 33.8 26.3994 33.3 26.3994H28.9C28.4 26.3994 28.1 26.6994 28.1 27.1994V28.6994C27.6 28.8994 27.2 29.1994 26.8 29.4994L25.5 28.6994C25.1 28.4994 24.6 28.5994 24.4 28.9994L22.2 32.7994C22 33.1994 22.1 33.6994 22.5 33.8994L23.8 34.6994C23.7 35.1994 23.7 35.6994 23.8 36.1994L22.4 36.9994C22 37.1994 21.8 37.6994 22.1 38.0994L24.3 41.8994C24.4 42.0994 24.6 42.1994 24.8 42.2994C25 42.3994 25.2 42.2994 25.4 42.1994L26.7 41.3994C27.1 41.6994 27.5 41.9994 28 42.1994V43.6994C28 44.1994 28.3 44.4994 28.8 44.4994H33.2C33.7 44.4994 34 44.1994 34 43.6994V42.1994C34.5 41.9994 34.9 41.6994 35.3 41.3994L36.6 42.1994C36.8 42.2994 37 42.2994 37.2 42.2994C37.4 42.1994 37.6 42.0994 37.7 41.8994L39.9 38.0994C40.3 37.7994 40.1 37.2994 39.7 36.9994ZM33.2 35.4994C33.2 36.6994 32.2 37.6994 31 37.6994C29.8 37.6994 28.8 36.6994 28.8 35.4994C28.8 34.2994 29.8 33.2994 31 33.2994C32.2 33.2994 33.2 34.2994 33.2 35.4994Z" fill="#DEF5F5"/>
<path d="M31 31.7002C28.9 31.7002 27.2 33.4002 27.2 35.5002C27.2 37.6002 28.9 39.3002 31 39.3002C33.1 39.3002 34.8 37.6002 34.8 35.5002C34.9 33.4002 33.1 31.7002 31 31.7002ZM31 37.7002C29.8 37.7002 28.8 36.7002 28.8 35.5002C28.8 34.3002 29.8 33.3002 31 33.3002C32.2 33.3002 33.2 34.3002 33.2 35.5002C33.2 36.7002 32.2 37.7002 31 37.7002Z" fill="#F0FFFF"/>
</svg>
