<svg width="70" height="52" viewBox="0 0 70 52" fill="none" xmlns="http://www.w3.org/2000/svg">
<path d="M27.7 44.5998H11.6C10.3 44.5998 9.19995 43.5998 9.19995 42.1998C9.19995 40.8998 10.2 39.7998 11.6 39.7998H27.7999C29.0999 39.7998 30.2 40.7998 30.2 42.1998C30.1 43.5998 29 44.5998 27.7 44.5998Z" fill="#FFA91A"/>
<path d="M9.19995 42.2002C9.19995 43.5002 10.2 44.6002 11.6 44.6002H27.7999C29.0999 44.6002 30.2 43.6002 30.2 42.2002H9.19995Z" fill="#F79219"/>
<path d="M27.7 34.5002H2.4C1.1 34.5002 0 33.5002 0 32.1002C0 30.8002 1 29.7002 2.4 29.7002H27.7C29 29.7002 30.1 30.7002 30.1 32.1002C30.1 33.4002 29 34.5002 27.7 34.5002Z" fill="#FFA91A"/>
<path d="M0 32.0996C0 33.3996 1 34.4996 2.4 34.4996H27.7C29 34.4996 30.1 33.4996 30.1 32.0996H0Z" fill="#F79219"/>
<path d="M17.3 24.3H7.30002C6.00002 24.3 4.90002 23.3 4.90002 21.9C4.90002 20.5 5.90002 19.5 7.30002 19.5H17.3C18.6 19.5 19.7 20.5 19.7 21.9C19.7 23.3 18.6 24.3 17.3 24.3Z" fill="#FFA91A"/>
<path d="M4.90002 21.9004C4.90002 23.2004 5.90002 24.3004 7.30002 24.3004H17.3C18.6 24.3004 19.7 23.3004 19.7 21.9004H4.90002Z" fill="#F79219"/>
<path d="M67.6 26.8L32.3 37.3C30.6 37.9 28.7 36.8 28.2 35.1L22.3 15.3C21.7 13.6 22.8 11.7 24.5 11.2L59.8 0.600025C61.5 2.50936e-05 63.4 1.10002 63.9 2.80002L69.8 22.6C70.4 24.4 69.4 26.2 67.6 26.8Z" fill="#FFA91A"/>
<path d="M69.9 22.6004L64 2.80039C63.6 1.50039 62.4 0.600391 61.1 0.400391L66.8 19.4004C67.4 21.1004 66.3 23.0004 64.6 23.5004L29.2 34.2004C28.8 34.3004 28.4 34.3004 27.9 34.3004L28.1 35.1004C28.7 36.8004 30.5 37.8004 32.2 37.3004L67.5 26.7004C69.4 26.2004 70.4 24.4004 69.9 22.6004Z" fill="#F79219"/>
<path d="M69.9 22.6008L64 2.80078C63.7 1.90078 63.1 1.10078 62.3 0.800781C62.4 0.900781 62.4 1.10078 62.5 1.30078L68.4 21.1008C69 22.8008 67.9 24.7008 66.2 25.2008L30.8 35.7008C30 36.0008 29.1 35.8008 28.4 35.5008C29.1 37.0008 30.8 37.7008 32.3 37.2008L67.6 26.6008C69.4 26.2008 70.4 24.4008 69.9 22.6008Z" fill="#EF7816"/>
<path d="M22.6 16.3008L64.2 3.80078L66 9.90078L24.4 22.4008L22.6 16.3008Z" fill="#EF7816"/>
<path d="M63.1 15.4009L29.4 25.4009C28.8 25.6009 28.1 25.3009 28 24.6009C27.8 24.0009 28.1 23.3009 28.8 23.2009L62.4 13.1009C63 12.9009 63.7 13.2009 63.8 13.9009C64 14.6009 63.6 15.2009 63.1 15.4009Z" fill="#F79219"/>
<path d="M51 24.6007L30.9 30.6007C30.3 30.8007 29.6 30.5007 29.5 29.8007C29.3 29.2007 29.6 28.5007 30.3 28.4007L50.4 22.4007C51 22.2007 51.7 22.5007 51.8 23.2007C51.9 23.8007 51.6 24.5007 51 24.6007Z" fill="#F79219"/>
<path d="M68.5999 51.5002H28.1C27.3 51.5002 26.7 50.9002 26.7 50.1002V31.1002C26.7 30.3002 27.3 29.7002 28.1 29.7002H68.5999C69.3999 29.7002 70 30.3002 70 31.1002V50.2002C70 50.9002 69.3999 51.5002 68.5999 51.5002Z" fill="#5A7A39"/>
<path d="M66.3 49.2004H25.8C25 49.2004 24.4 48.6004 24.4 47.8004V28.8004C24.4 28.0004 25 27.4004 25.8 27.4004H66.3C67.1 27.4004 67.7 28.0004 67.7 28.8004V47.9004C67.7 48.6004 67.1 49.2004 66.3 49.2004Z" fill="#648940"/>
<path d="M64 46.9006H23.5C22.7 46.9006 22.1 46.3006 22.1 45.5006V26.5006C22.1 25.7006 22.7 25.1006 23.5 25.1006H64C64.8 25.1006 65.4 25.7006 65.4 26.5006V45.6006C65.4 46.3006 64.7 46.9006 64 46.9006Z" fill="#76A34F"/>
<path d="M63.5 39.5004V32.5004C63.5 32.3004 63.3 32.1004 63.1 32.0004C60.7 31.8004 58.8 29.8004 58.6 27.3004C58.6 27.1004 58.4 26.9004 58.1 26.9004H29.5C29.3 26.9004 29.1 27.1004 29 27.3004C28.8 29.7004 26.9 31.8004 24.5 32.0004C24.3 32.0004 24.1 32.2004 24.1 32.5004V39.5004C24.1 39.7004 24.3 39.9004 24.5 40.0004C26.9 40.2004 28.8 42.2004 29 44.7004C29 44.9004 29.2 45.1004 29.5 45.1004H58C58.2 45.1004 58.4 44.9004 58.5 44.7004C58.7 42.3004 60.6 40.2004 63 40.0004C63.3 39.9004 63.5 39.7004 63.5 39.5004Z" fill="#91B56B"/>
<path d="M43.7999 43.1004C47.7212 43.1004 50.9 39.9216 50.9 36.0004C50.9 32.0792 47.7212 28.9004 43.7999 28.9004C39.8787 28.9004 36.7 32.0792 36.7 36.0004C36.7 39.9216 39.8787 43.1004 43.7999 43.1004Z" fill="white"/>
<path d="M44.5 40.3012H43.1C41.8 40.3012 40.9 39.3012 40.9 38.1012C40.9 37.8012 41.1 37.6012 41.4 37.6012C41.7 37.6012 41.9 37.8012 41.9 38.1012C41.9 38.8012 42.5 39.4012 43.2 39.4012H44.6C45.3 39.4012 45.9 38.8012 45.9 38.1012V37.4012C45.9 36.7012 45.3 36.1012 44.6 36.1012H43.2C41.9 36.1012 41 35.1012 41 33.9012C41 32.7012 42 31.7012 43.2 31.7012H44.6C45.9 31.7012 46.8 32.7012 46.8 33.9012C46.8 34.2012 46.6 34.4012 46.3 34.4012C46 34.4012 45.8 34.2012 45.8 33.9012C45.8 33.2012 45.2 32.6012 44.5 32.6012H43.1C42.4 32.6012 41.8 33.2012 41.8 33.9012C41.8 34.6012 42.4 35.2012 43.1 35.2012H44.5C45.8 35.2012 46.7 36.2012 46.7 37.4012V38.1012C46.7 39.4012 45.7 40.3012 44.5 40.3012Z" fill="#648940"/>
<path d="M43.8 41.0008C43.5 41.0008 43.3 40.8008 43.3 40.5008V31.3008C43.3 31.0008 43.5 30.8008 43.8 30.8008C44.1 30.8008 44.3 31.0008 44.3 31.3008V40.5008C44.2 40.8008 44 41.0008 43.8 41.0008Z" fill="#648940"/>
<path d="M12.3 38.3004C15.7241 38.3004 18.5 35.5246 18.5 32.1004C18.5 28.6762 15.7241 25.9004 12.3 25.9004C8.87581 25.9004 6.09998 28.6762 6.09998 32.1004C6.09998 35.5246 8.87581 38.3004 12.3 38.3004Z" fill="#58595B"/>
<path d="M15.9 27C16.6 28 17 29.2 17 30.6C17 34 14.2 36.8 10.8 36.8C9.49995 36.8 8.29995 36.4 7.19995 35.7C8.29995 37.3 10.2 38.4 12.3 38.4C15.7 38.4 18.5 35.6 18.5 32.2C18.6 30 17.5 28.1 15.9 27Z" fill="#414042"/>
<path d="M11.5999 35.1002C11.2999 35.1002 10.9999 35.0002 10.7999 34.8002L8.59993 32.6002C8.19993 32.2002 8.19993 31.4002 8.59993 31.0002C8.99993 30.6002 9.79993 30.6002 10.1999 31.0002L11.6999 32.4002L14.5999 29.5002C14.9999 29.1002 15.7999 29.1002 16.1999 29.5002C16.5999 29.9002 16.5999 30.7002 16.1999 31.1002L12.4999 34.8002C12.1999 35.0002 11.8999 35.1002 11.5999 35.1002Z" fill="white"/>
<path d="M26.5 23.5002C26.2 23.5002 26 23.3002 25.9 23.1002L23.5 15.0002C23.4 14.8002 23.4 14.6002 23.4 14.4002C23.4 14.1002 23.5 13.7002 23.7 13.4002C24 12.9002 24.4 12.6002 25 12.4002L56.8 2.80023C57.1 2.70023 57.5 2.90023 57.6 3.20023C57.7 3.50023 57.5 3.90023 57.2 4.00023L25.4 13.5002C25.2 13.6002 25.1 13.7002 24.9 13.9002C24.8 14.0002 24.8 14.2002 24.8 14.3002C24.8 14.4002 24.8 14.4002 24.8 14.5002L27.2 22.6002C27.3 22.7002 27.2 22.9002 27.1 23.1002C27 23.3002 26.9 23.4002 26.8 23.4002C26.7 23.5002 26.6 23.5002 26.5 23.5002ZM59.3 3.30023C59 3.30023 58.8 3.10023 58.7 2.90023C58.6 2.80023 58.7 2.60023 58.8 2.40023C58.9 2.30023 59 2.10023 59.1 2.10023C59.4 2.00023 59.8 2.20023 59.9 2.50023C60 2.80023 59.8 3.20023 59.5 3.30023C59.4 3.30023 59.4 3.30023 59.3 3.30023Z" fill="#FFC91D"/>
</svg>
