<svg width="70" height="70" viewBox="0 0 70 70" fill="none" xmlns="http://www.w3.org/2000/svg">
<g clip-path="url(#clip0_1125_726)">
<path d="M53.9 66.3004C53.9 66.0004 50.9 51.0004 50.9 50.7004C50.6 49.0004 49.5999 47.6004 48.0999 46.8004C47.2999 46.3004 46.7999 46.2004 46.2 46.0004C46.6 46.1004 39 43.5004 36 42.4004C35.4 42.2004 35 41.6004 35 41.0004V37.9004C31.1 39.9004 27 39.7004 23.2999 38.0004V41.1004C23.2999 41.7004 22.9 42.3004 22.2999 42.5004C21.9 42.6004 23.8 41.9004 18.1 44.0004L12.1 46.2004C11.8 46.3004 11.3 46.4004 11.3 46.4004C9.89995 47.0004 8.59995 47.9004 7.89995 49.3004C7.39995 50.3004 7.59995 49.9004 5.19995 61.7004C4.39995 66.2004 4.19995 66.5004 4.19995 67.5004C4.59995 70.3004 7.49995 70.0004 7.59995 70.0004C13.1 70.0004 29.7999 70.0004 29.2999 70.0004C29.4 70.0004 31.8 70.0004 31.7 70.0004C35.5 70.0004 49.2 70.0004 50.9 70.0004C50.7 70.0004 54.5 70.3004 53.9 66.3004Z" fill="#6C7D87"/>
<path d="M7.69998 66.2996L10.8 49.3996C10.7 49.5996 11 47.1996 13.3 45.5996C10.7 46.4996 11.5 46.1996 10.7 46.4996C9.19998 47.1996 7.99998 48.2996 7.49998 49.8996C7.29998 50.4996 7.39998 49.9996 5.09998 61.6996C4.29998 66.1996 4.09998 66.4996 4.09998 67.4996C4.39998 70.2996 7.29998 69.9996 7.39998 69.9996C7.69998 69.9996 10.5 69.9996 10.9 69.9996C8.49998 69.9996 7.39998 68.4996 7.69998 66.2996Z" fill="#566A75"/>
<path d="M13.8 70.0004C11.8 70.0004 9.50001 70.0004 7.40001 70.0004C7.30001 69.9004 4.00001 70.3004 4.10001 66.9004C4.10001 66.2004 4.20001 66.1004 5.10001 61.7004L5.20001 61.4004H13.8V70.0004Z" fill="#DD9A5E"/>
<path d="M8.60001 61.4004H5.20001L5.10001 61.6004C4.30001 66.1004 4.10001 66.1004 4.10001 66.8004C4.00001 70.2004 7.30001 69.9004 7.40001 69.9004C7.70001 69.9004 10.5 69.9004 10.9 69.9004C8.60001 69.9004 7.50001 68.7004 7.60001 66.8004C7.70001 66.6004 7.80001 66.1004 8.60001 61.4004Z" fill="#D18C54"/>
<path d="M23.2 37.4004C23.2 46.1004 23.2 36.4004 23.2 43.3004V43.5004C23.2 44.9004 24.1 46.2004 25.4 46.6004C27.4999 47.3004 30.3 47.4004 32.7 46.6004C34 46.2004 34.9 44.9004 34.9 43.5004V43.3004C34.9 41.9004 34.9 38.1004 34.9 37.4004C31.1 39.4004 26.9 39.3004 23.2 37.4004Z" fill="#DD9A5E"/>
<path d="M26.7 44.4998C26.7 37.1998 26.7 39.5998 26.7 39.0998C25.5 38.8998 24.3 38.4998 23.2 37.7998C23.2 46.4998 23.2 36.3998 23.2 43.2998V43.4998C23.2 44.8998 24.1 46.1998 25.4 46.5998C25.9999 46.7998 26.7 46.8998 27.5 47.0998C26.6 45.7998 26.7 44.5998 26.7 44.4998Z" fill="#D18C54"/>
<path d="M13.8 58C13.2 58 12.8 58.5 12.8 59V70C13.5 70 14.1 70 14.9 70V59C14.8 58.4 14.4 58 13.8 58Z" fill="#566A75"/>
<path d="M63.3 70.0004H29C27.6 70.0004 26.4 68.8004 26.4 67.4004C26.4 66.6004 27 65.9004 27.9 65.9004H64.3C65.1 65.9004 65.8 66.5004 65.8 67.4004C65.8 68.8004 64.7 70.0004 63.3 70.0004Z" fill="#C6C6C6"/>
<path d="M33.2 67.4004C33.2 66.6004 33.8 65.9004 34.7 65.9004H28C27.2 65.9004 26.5 66.5004 26.5 67.4004C26.5 68.8004 27.7 70.0004 29.1 70.0004H35.7C34.3 70.0004 33.2 68.8004 33.2 67.4004Z" fill="#B7B7B7"/>
<path d="M61 43.2998H31.3C30.4 43.2998 29.6 44.0998 29.6 44.9998V64.1998C29.6 65.0998 30.4 65.8998 31.3 65.8998H61C61.9 65.8998 62.7 65.0998 62.7 64.1998V44.9998C62.7 44.0998 61.9 43.2998 61 43.2998Z" fill="#EDEDED"/>
<path d="M33.2 64.2998V44.9998C33.2 44.0998 34 43.2998 34.9 43.2998H31.4C30.5 43.2998 29.7 44.0998 29.7 44.9998V64.1998C29.7 65.0998 30.5 65.8998 31.4 65.8998H34.9C33.9 65.8998 33.2 65.1998 33.2 64.2998Z" fill="#DADADA"/>
<path d="M46.1999 57.0002C47.5254 57.0002 48.5999 55.9257 48.5999 54.6002C48.5999 53.2747 47.5254 52.2002 46.1999 52.2002C44.8744 52.2002 43.7999 53.2747 43.7999 54.6002C43.7999 55.9257 44.8744 57.0002 46.1999 57.0002Z" fill="#DADADA"/>
<path d="M46.2 52.2002C44.3 52.2002 43.1 54.2002 44.1 55.8002C45.1 57.4002 47.4 57.4002 48.3 55.8002C46.4 55.9002 45.2 53.8002 46.2 52.2002Z" fill="#C6C6C6"/>
<path d="M28.8 -0.000120563C19.7 -0.000120563 12 7.49988 12 16.8999V23.2999H45.8C45.8 17.1999 45.8 19.1999 45.8 13.6999C45.8 7.09988 41.7 5.69988 41.7 5.69988C36.7 -0.500121 28.8 -0.000120563 28.8 -0.000120563Z" fill="#4C4846"/>
<path d="M31 0.100018C20.7 -0.999982 12.3 6.70002 12 16.2C12 16.9 12 16.6 12 23.3H16V16.9C16 8.20002 22.6 1.10002 31 0.100018Z" fill="#3D3938"/>
<path d="M16.2 21.3004C14.1 20.5004 11.8 21.9004 11.8 24.0004C11.8 26.0004 14.1 27.4004 16.2 26.7004V21.3004Z" fill="#DD9A5E"/>
<path d="M41.6001 21.3004C43.7001 20.5004 46.0001 21.9004 46.0001 24.0004C46.0001 26.0004 43.7001 27.4004 41.6001 26.7004V21.3004Z" fill="#DD9A5E"/>
<path d="M12 22.7998C10.7 25.1998 13.4 27.6998 16.1 26.6998V24.2998C14.5 24.7998 12.7 24.1998 12 22.7998Z" fill="#D18C54"/>
<path d="M41.6 24.2002V26.6002C44.3 27.6002 46.9 25.0002 45.7 22.7002C45.2 23.7002 43.2 24.8002 41.6 24.2002Z" fill="#D18C54"/>
<path d="M41.1 15.9996C41.4 15.9996 41.7 16.2996 41.7 16.5996C41.7 27.3996 41.7 26.5996 41.7 27.0996C41.6 30.3996 40.1 33.3996 37.9 35.5996C29.9 43.3996 16.5 37.8996 16.1 26.8996C16.1 26.3996 16.1 20.7996 16.1 20.7996C16.1 18.2996 18.3 16.2996 20.9 16.6996C24.8 17.2996 30.6 16.9996 35.6 12.7996C36.1 12.3996 36.9 12.4996 37.2 13.0996C37.6 14.2996 38.9 15.7996 41.1 15.9996Z" fill="#EDAE6B"/>
<path d="M19.5 27.0004C19.5 26.6004 19.5 19.0004 19.5 16.9004C17.5 17.2004 16 18.9004 16 21.0004C16 21.0004 16 26.6004 16 27.1004C16.3 35.2004 23.7 40.3004 30.8 39.3004C24.9 38.4004 19.8 33.7004 19.5 27.0004Z" fill="#DD9A5E"/>
</g>
<defs>
<clipPath id="clip0_1125_726">
<rect width="70" height="70" fill="white"/>
</clipPath>
</defs>
</svg>
