<svg width="55" height="55" viewBox="0 0 55 55" fill="none" xmlns="http://www.w3.org/2000/svg">
<path fill-rule="evenodd" clip-rule="evenodd" d="M37.0996 15.1H17.9996C17.5996 15.1 17.0996 14.7 17.0996 14.2V10.2C17.1996 4.6 21.7996 0 27.4996 0C33.1996 0 37.7996 4.6 37.7996 10.3V14.3C37.7996 14.7 37.3996 15.1 37.0996 15.1ZM18.7996 13.5H36.1996V10.3C36.1996 5.6 32.2996 1.6 27.4996 1.6C22.6996 1.6 18.7996 5.5 18.7996 10.3V13.5Z" fill="#6A6A6A"/>
<path fill-rule="evenodd" clip-rule="evenodd" d="M38.5 37.2H16.7C14.7 37.2 13 35.6 13 33.7V17.2C13 15.2 14.6 13.5 16.7 13.5H38.5C40.4 13.5 42 15.1 42 17.2V33.6C42 35.6 40.4 37.2 38.5 37.2Z" fill="#FCBE37"/>
<path fill-rule="evenodd" clip-rule="evenodd" d="M42.0004 24.6V26.2H37.3004C36.9004 26.2 36.4004 25.8 36.4004 25.3C36.4004 24.8 36.8004 24.5 37.3004 24.5H42.0004V24.6Z" fill="#E3AB32"/>
<path fill-rule="evenodd" clip-rule="evenodd" d="M13 26.1996V24.5996H17.8C18.2 24.5996 18.6 24.8996 18.6 25.3996C18.6 25.8996 18.3 26.2996 17.8 26.2996H13V26.1996Z" fill="#E3AB32"/>
<path fill-rule="evenodd" clip-rule="evenodd" d="M27.4998 30.1992C25.0998 30.1992 23.2998 28.2992 23.2998 25.8992C23.2998 23.5992 25.0998 21.6992 27.4998 21.6992C29.7998 21.6992 31.6998 23.5992 31.6998 25.8992C31.6998 28.2992 29.8998 30.1992 27.4998 30.1992Z" fill="#6A6A6A"/>
<path fill-rule="evenodd" clip-rule="evenodd" d="M15.5 55H1.1C0.4 55 0 54.6 0 53.9V39.6C0 39 0.5 38.5 1.1 38.5H15.5C16 38.5 16.5 39 16.5 39.6V54C16.4 54.6 16 55 15.5 55Z" fill="#FCBE37"/>
<path fill-rule="evenodd" clip-rule="evenodd" d="M34.7002 55H20.3002C19.8002 55 19.2002 54.6 19.2002 53.9V39.6C19.2002 39 19.7002 38.5 20.3002 38.5H34.7002C35.2002 38.5 35.8002 39 35.8002 39.6V54C35.8002 54.6 35.2002 55 34.7002 55Z" fill="#FCBE37"/>
<path fill-rule="evenodd" clip-rule="evenodd" d="M8.29941 51.8008C7.89941 51.8008 7.39941 51.5008 7.39941 50.9008V42.6008C7.39941 42.2008 7.79941 41.8008 8.29941 41.8008C8.79941 41.8008 8.99941 42.2008 8.99941 42.6008V50.9008C8.99941 51.5008 8.69941 51.8008 8.29941 51.8008Z" fill="#6A6A6A"/>
<path fill-rule="evenodd" clip-rule="evenodd" d="M12.3998 47.6H4.0998C3.6998 47.6 3.2998 47.2 3.2998 46.7C3.2998 46.2 3.6998 46 4.0998 46H12.3998C12.8998 46 13.2998 46.3 13.2998 46.8C13.2998 47.3 12.8998 47.6 12.3998 47.6Z" fill="#6A6A6A"/>
<path fill-rule="evenodd" clip-rule="evenodd" d="M5.3002 50.5012C5.2002 50.5012 4.9002 50.4012 4.8002 50.3012C4.5002 50.0012 4.5002 49.5012 4.8002 49.2012L10.7002 43.3012C11.0002 43.0012 11.6002 43.0012 11.9002 43.3012C12.1002 43.6012 12.1002 44.1012 11.9002 44.4012L5.9002 50.3012C5.7002 50.5012 5.5002 50.5012 5.3002 50.5012Z" fill="#6A6A6A"/>
<path fill-rule="evenodd" clip-rule="evenodd" d="M11.2002 50.5012C11.0002 50.5012 10.8002 50.4012 10.7002 50.3012L4.8002 44.4012C4.5002 44.1012 4.5002 43.6012 4.8002 43.3012C5.1002 43.0012 5.7002 43.0012 6.0002 43.3012L11.9002 49.2012C12.1002 49.5012 12.1002 50.0012 11.9002 50.3012C11.6002 50.5012 11.4002 50.5012 11.2002 50.5012Z" fill="#6A6A6A"/>
<path fill-rule="evenodd" clip-rule="evenodd" d="M27.5002 51.8008C27.1002 51.8008 26.7002 51.5008 26.7002 50.9008V42.6008C26.7002 42.2008 27.0002 41.8008 27.5002 41.8008C28.0002 41.8008 28.3002 42.1008 28.3002 42.6008V50.9008C28.3002 51.5008 27.9002 51.8008 27.5002 51.8008Z" fill="#6A6A6A"/>
<path fill-rule="evenodd" clip-rule="evenodd" d="M31.7 47.6004H23.3C22.9 47.6004 22.5 47.2004 22.5 46.7004C22.5 46.2004 22.8 45.9004 23.3 45.9004H31.7C32.1 45.9004 32.5 46.2004 32.5 46.7004C32.5 47.2004 32.1 47.6004 31.7 47.6004Z" fill="#6A6A6A"/>
<path fill-rule="evenodd" clip-rule="evenodd" d="M24.6 50.4992C24.4 50.4992 24.2 50.3992 24.1 50.2992C23.8 49.9992 23.8 49.4992 24.1 49.1992L29.9 43.2992C30.2 42.9992 30.8 42.9992 31.1 43.2992C31.4 43.5992 31.4 44.0992 31.1 44.3992L25.2 50.2992C24.9 50.4992 24.8 50.4992 24.6 50.4992Z" fill="#6A6A6A"/>
<path fill-rule="evenodd" clip-rule="evenodd" d="M30.4 50.4992C30.3 50.4992 30.1 50.3992 29.9 50.2992L24.1 44.3992C23.8 44.0992 23.8 43.5992 24.1 43.2992C24.3 42.9992 24.9 42.9992 25.2 43.2992L31.1 49.1992C31.4 49.4992 31.4 49.9992 31.1 50.2992C30.8 50.4992 30.6 50.4992 30.4 50.4992Z" fill="#6A6A6A"/>
<path fill-rule="evenodd" clip-rule="evenodd" d="M53.9 55H39.5C39 55 38.5 54.6 38.5 53.9V39.6C38.5 39 38.9 38.5 39.5 38.5H53.9C54.5 38.5 55 39 55 39.6V54C55 54.6 54.6 55 53.9 55Z" fill="#FCBE37"/>
<path fill-rule="evenodd" clip-rule="evenodd" d="M46.8004 51.8008C46.4004 51.8008 45.9004 51.5008 45.9004 50.9008V42.6008C45.9004 42.2008 46.3004 41.8008 46.8004 41.8008C47.3004 41.8008 47.6004 42.1008 47.6004 42.6008V50.9008C47.6004 51.5008 47.2004 51.8008 46.8004 51.8008Z" fill="#6A6A6A"/>
<path fill-rule="evenodd" clip-rule="evenodd" d="M50.9002 47.6004H42.6002C42.1002 47.6004 41.7002 47.2004 41.7002 46.7004C41.7002 46.2004 42.0002 45.9004 42.6002 45.9004H50.9002C51.3002 45.9004 51.7002 46.2004 51.7002 46.7004C51.7002 47.2004 51.3002 47.6004 50.9002 47.6004Z" fill="#6A6A6A"/>
<path fill-rule="evenodd" clip-rule="evenodd" d="M43.8002 50.4992C43.6002 50.4992 43.4002 50.3992 43.3002 50.2992C43.0002 49.9992 43.0002 49.4992 43.3002 49.1992L49.2002 43.2992C49.5002 42.9992 50.0002 42.9992 50.3002 43.2992C50.6002 43.5992 50.6002 44.1992 50.3002 44.4992L44.4002 50.3992C44.3002 50.4992 44.0002 50.4992 43.8002 50.4992Z" fill="#6A6A6A"/>
<path fill-rule="evenodd" clip-rule="evenodd" d="M49.7002 50.4992C49.5002 50.4992 49.3002 50.3992 49.2002 50.2992L43.3002 44.3992C43.0002 44.0992 43.0002 43.5992 43.3002 43.2992C43.6002 42.9992 44.1002 42.9992 44.4002 43.2992L50.3002 49.1992C50.6002 49.4992 50.6002 49.9992 50.3002 50.2992C50.1002 50.4992 50.0002 50.4992 49.7002 50.4992Z" fill="#6A6A6A"/>
</svg>
