<svg width="55" height="55" viewBox="0 0 55 55" fill="none" xmlns="http://www.w3.org/2000/svg">
<path fill-rule="evenodd" clip-rule="evenodd" d="M17.3002 7.60015C17.1002 7.20015 17.2002 6.80015 17.6002 6.50015C18.0002 6.30015 18.4002 6.40015 18.7002 6.80015L19.3002 8.00015C19.5002 8.40015 19.4002 8.80015 19.0002 9.10015C18.6002 9.30015 18.2002 9.20015 17.9002 8.80015L17.3002 7.60015ZM15.4002 1.70015C15.6002 2.10015 15.5002 2.50015 15.1002 2.80015C14.7002 3.10015 14.3002 2.90015 14.0002 2.50015L13.3002 1.30015C13.1002 0.900146 13.2002 0.500146 13.6002 0.200146C14.0002 -0.0998544 14.4002 0.100146 14.7002 0.500146L15.4002 1.70015ZM18.4002 2.30015C18.2002 2.70015 17.7002 2.80015 17.3002 2.60015C16.9002 2.40015 16.8002 1.90015 17.0002 1.50015L17.7002 0.300146C18.0002 0.000145584 18.5002 -0.0998544 18.8002 0.100146C19.2002 0.300146 19.3002 0.800146 19.1002 1.20015L18.4002 2.30015ZM19.4002 5.30015C19.0002 5.30015 18.6002 5.00015 18.6002 4.50015C18.6002 4.00015 18.9002 3.70015 19.4002 3.70015H20.8002C21.2002 3.70015 21.6002 4.00015 21.6002 4.50015C21.6002 5.00015 21.3002 5.30015 20.8002 5.30015H19.4002Z" fill="#F76C82"/>
<path fill-rule="evenodd" clip-rule="evenodd" d="M8.39949 10C8.39949 10.4 8.09949 10.8 7.59949 10.8C7.19949 10.8 6.79949 10.5 6.79949 10V8.30002C6.69949 6.80002 7.09949 5.80002 7.69949 5.10002C7.99949 4.70002 8.29949 4.40002 8.69949 4.20002C9.09949 4.00002 9.59949 3.90002 9.99949 3.90002C10.8995 3.80002 11.7995 4.10002 12.4995 4.60002C13.0995 5.00002 13.5995 5.10002 14.0995 5.00002C14.5995 4.90002 15.1995 4.50002 15.7995 4.10002C16.0995 3.80002 16.5995 3.90002 16.8995 4.30002C17.1995 4.70002 16.9995 5.00002 16.6995 5.30002C15.9995 5.90002 15.1995 6.30002 14.3995 6.50002C13.4995 6.70002 12.5995 6.60002 11.5995 5.90002C11.5995 5.90002 11.4995 5.90002 11.4995 5.80002C11.1995 5.50002 10.5995 5.40002 10.0995 5.40002C9.89949 5.40002 9.59949 5.50002 9.39949 5.60002C9.19949 5.70002 8.99949 5.80002 8.89949 6.00002C8.49949 6.50002 8.29949 7.20002 8.39949 8.20002V10Z" fill="#A9B0BB"/>
<path fill-rule="evenodd" clip-rule="evenodd" d="M6.70028 7.90039H8.60028C8.90028 7.90039 9.20028 8.10039 9.20028 8.50039V11.2004H6.20028V8.40039C6.10028 8.10039 6.40028 7.90039 6.70028 7.90039Z" fill="#636C77"/>
<path d="M13.3571 21.0139C15.3347 17.8213 14.3499 13.63 11.1573 11.6523C7.9647 9.67467 3.77339 10.6596 1.79572 13.8521C-0.181942 17.0447 0.802942 21.236 3.99552 23.2137C7.1881 25.1914 11.3794 24.2065 13.3571 21.0139Z" fill="#424852"/>
<path fill-rule="evenodd" clip-rule="evenodd" d="M4.59961 49.4992H50.3996V18.0992C50.3996 17.2992 49.7996 16.6992 48.9996 16.6992C34.6996 16.6992 20.3996 16.6992 6.09961 16.6992C5.29961 16.6992 4.69961 17.2992 4.69961 18.0992L4.59961 49.4992Z" fill="#636C77"/>
<path fill-rule="evenodd" clip-rule="evenodd" d="M7.5 19.5H47.5V49.7H7.5V19.5Z" fill="#A4D4FF"/>
<path fill-rule="evenodd" clip-rule="evenodd" d="M54.1998 49.5C54.1998 52.5 51.7998 55 48.6998 55H6.2998C3.2998 55 0.799805 52.6 0.799805 49.5V48.6C0.799805 48.3 0.999805 48 1.3998 48H53.5998C53.8998 48 54.1998 48.2 54.1998 48.6V49.5Z" fill="#424852"/>
<path fill-rule="evenodd" clip-rule="evenodd" d="M19.1996 48.0996H35.8996V50.7996C35.8996 51.0996 35.6996 51.3996 35.2996 51.3996H19.6996C19.3996 51.3996 19.0996 51.1996 19.0996 50.7996V48.0996H19.1996Z" fill="#636C77"/>
<path fill-rule="evenodd" clip-rule="evenodd" d="M37.2002 8.6C37.0002 8.2 37.1002 7.8 37.5002 7.5C37.9002 7.3 38.3002 7.4 38.6002 7.8L39.2002 9C39.4002 9.4 39.3002 9.8 38.9002 10.1C38.5002 10.4 38.1002 10.2 37.8002 9.8L37.2002 8.6ZM35.3002 2.7C35.5002 3.1 35.4002 3.5 35.0002 3.8C34.6002 4.1 34.2002 3.9 34.0002 3.5L33.3002 2.3C33.1002 1.9 33.2002 1.5 33.6002 1.2C34.0002 1 34.4002 1.1 34.7002 1.5L35.3002 2.7ZM38.3002 3.4C38.1002 3.8 37.6002 3.9 37.2002 3.7C36.9002 3.4 36.8002 3 37.0002 2.6L37.7002 1.4C37.9002 1 38.4002 0.9 38.8002 1.1C39.2002 1.3 39.3002 1.8 39.1002 2.2L38.3002 3.4ZM39.3002 6.3C38.9002 6.3 38.5002 6 38.5002 5.5C38.5002 5.1 38.8002 4.7 39.3002 4.7H40.7002C41.1002 4.7 41.5002 5 41.5002 5.5C41.5002 5.9 41.2002 6.3 40.7002 6.3H39.3002Z" fill="#F76C82"/>
<path fill-rule="evenodd" clip-rule="evenodd" d="M28.3006 11C28.3006 11.4 28.0006 11.8 27.5006 11.8C27.1006 11.8 26.7006 11.5 26.7006 11V9.30002C26.6006 7.80002 26.9006 6.80002 27.5006 6.10002C27.8006 5.70002 28.2006 5.40002 28.6006 5.20002C29.0006 5.00002 29.5006 4.90002 29.9006 4.90002C30.8006 4.80002 31.7006 5.10002 32.4006 5.60002C33.0006 6.00002 33.5006 6.10002 34.0006 6.00002C34.5006 5.90002 35.1006 5.50002 35.7006 5.10002C36.0006 4.80002 36.5006 4.90002 36.8006 5.30002C37.0006 5.50002 36.9006 6.00002 36.6006 6.30002C35.9006 6.90002 35.1006 7.30002 34.3006 7.50002C33.4006 7.70002 32.5006 7.60002 31.5006 6.90002C31.5006 6.90002 31.4006 6.90002 31.4006 6.80002C31.1006 6.50002 30.5006 6.40002 30.0006 6.40002C29.8006 6.40002 29.5006 6.50002 29.3006 6.60002C29.1006 6.70002 28.9006 6.80002 28.7006 7.00002C28.4006 7.40002 28.1006 8.10002 28.2006 9.20002L28.3006 11Z" fill="#A9B0BB"/>
<path fill-rule="evenodd" clip-rule="evenodd" d="M26.6007 8.90039H28.5007C28.8007 8.90039 29.1007 9.10039 29.1007 9.50039V12.2004H26.1007V9.50039C26.0007 9.10039 26.2007 8.90039 26.6007 8.90039Z" fill="#636C77"/>
<path d="M27.5002 25.2992C31.2557 25.2992 34.3002 22.2548 34.3002 18.4992C34.3002 14.7437 31.2557 11.6992 27.5002 11.6992C23.7447 11.6992 20.7002 14.7437 20.7002 18.4992C20.7002 22.2548 23.7447 25.2992 27.5002 25.2992Z" fill="#424852"/>
</svg>
