<svg width="55" height="55" viewBox="0 0 55 55" fill="none" xmlns="http://www.w3.org/2000/svg">
<path d="M43.3996 24.7V15.8C43.3996 7.1 36.2996 0 27.4996 0C18.6996 0 11.5996 7.1 11.5996 15.9V24.8M17.3996 24.7V15.8C17.3996 10.2 21.9996 5.7 27.4996 5.7C32.9996 5.7 37.5996 10.3 37.5996 15.8V24.7" fill="#D3DAE0"/>
<path d="M28.3996 0C28.0996 0 27.7996 0 27.4996 0C18.6996 0 11.5996 7.1 11.5996 15.9V24.8H13.4996V15.9C13.4996 7.4 20.0996 0.5 28.3996 0Z" fill="#899EA8"/>
<path d="M29.4 5.69922C29.1 5.69922 28.8 5.69922 28.5 5.69922C33.7 6.19922 37.7 10.4992 37.7 15.7992V24.6992H39.6V15.7992C39.5 10.2992 34.9 5.69922 29.4 5.69922Z" fill="#899EA8"/>
<path d="M48.7004 24.6992H6.40039V54.9992H48.7004V24.6992Z" fill="#F79F00"/>
<path d="M10.1004 24.6992H6.40039V54.9992H10.1004V24.6992Z" fill="#E48900"/>
<path d="M32 37C32 34.5 30 32.5 27.5 32.5C25 32.5 23 34.5 23 37C23 38.7 24 40.2 25.4 41L24.7 46.6H30.5L29.7 41C31.1 40.3 32 38.8 32 37Z" fill="#3E3D4C"/>
</svg>
