<svg width="55" height="55" viewBox="0 0 55 55" fill="none" xmlns="http://www.w3.org/2000/svg">
<path d="M27.5 55C42.6878 55 55 42.6878 55 27.5C55 12.3122 42.6878 0 27.5 0C12.3122 0 0 12.3122 0 27.5C0 42.6878 12.3122 55 27.5 55Z" fill="#382B73"/>
<path d="M27.5 51C40.4787 51 51 40.4787 51 27.5C51 14.5213 40.4787 4 27.5 4C14.5213 4 4 14.5213 4 27.5C4 40.4787 14.5213 51 27.5 51Z" fill="#473080"/>
<path d="M37.9004 30.5004H36.2004C36.2004 30.4004 36.2004 30.4004 36.2004 30.3004V25.3004C36.2004 24.5004 35.5004 23.8004 34.7004 23.8004H34.4004V22.4004H34.7004C35.5004 22.4004 36.2004 21.7004 36.2004 20.9004V15.9004C36.2004 15.1004 35.5004 14.4004 34.7004 14.4004H15.4004C14.6004 14.4004 13.9004 15.1004 13.9004 15.9004V20.9004C13.9004 21.7004 14.6004 22.4004 15.4004 22.4004H15.7004V23.8004H15.4004C14.6004 23.8004 13.9004 24.5004 13.9004 25.3004V30.3004C13.9004 31.1004 14.6004 31.8004 15.4004 31.8004H15.7004V33.2004H15.4004C14.6004 33.2004 13.9004 33.9004 13.9004 34.7004V39.7004C13.9004 40.5004 14.6004 41.2004 15.4004 41.2004H23.9004V43.4004C23.9004 43.7004 24.1004 43.9004 24.4004 43.9004H38.0004C38.3004 43.9004 38.5004 43.7004 38.5004 43.4004V30.9004C38.4004 30.7004 38.2004 30.5004 37.9004 30.5004Z" fill="#382B73"/>
<path d="M44.2001 26.8008H43.0001V24.3008C43.0001 23.8008 42.6001 23.3008 42.0001 23.3008H40.3001C39.8001 23.3008 39.3001 23.7008 39.3001 24.3008V26.8008H38.1001C37.5001 26.8008 37.2001 27.5008 37.6001 27.9008L40.6001 31.3008C40.9001 31.6008 41.4001 31.6008 41.6001 31.3008L44.6001 27.9008C45.1001 27.5008 44.8001 26.8008 44.2001 26.8008Z" fill="#382B73"/>
<path d="M15.7002 12.9004H34.6002V39.4004H15.7002V12.9004Z" fill="#A72973"/>
<path d="M34.8004 20.8008H15.4004C14.6004 20.8008 13.9004 20.1008 13.9004 19.3008V14.3008C13.9004 13.5008 14.6004 12.8008 15.4004 12.8008H34.8004C35.6004 12.8008 36.3004 13.5008 36.3004 14.3008V19.3008C36.3004 20.2008 35.6004 20.8008 34.8004 20.8008Z" fill="#EF5A9D"/>
<path d="M34.8004 19.7012H15.4004C14.6004 19.7012 13.9004 19.0012 13.9004 18.2012V19.3012C13.9004 20.1012 14.6004 20.8012 15.4004 20.8012H34.8004C35.6004 20.8012 36.3004 20.1012 36.3004 19.3012V18.2012C36.3004 19.1012 35.6004 19.7012 34.8004 19.7012Z" fill="#E43D91"/>
<path d="M18.4 18.3C19.1732 18.3 19.8 17.6732 19.8 16.9C19.8 16.1268 19.1732 15.5 18.4 15.5C17.6268 15.5 17 16.1268 17 16.9C17 17.6732 17.6268 18.3 18.4 18.3Z" fill="#FEDE3A"/>
<path d="M18.4004 17.6016C17.7004 17.6016 17.2004 17.2016 17.0004 16.6016C17.0004 16.7016 16.9004 16.8016 16.9004 17.0016C16.9004 17.8016 17.5004 18.4016 18.3004 18.4016C19.1004 18.4016 19.7004 17.8016 19.7004 17.0016C19.7004 16.9016 19.7004 16.8016 19.6004 16.6016C19.5004 17.1016 19.0004 17.6016 18.4004 17.6016Z" fill="#F7CB15"/>
<path d="M29.7008 18.3016C29.5008 18.3016 29.3008 18.1016 29.3008 17.9016V16.0016C29.3008 15.8016 29.5008 15.6016 29.7008 15.6016C29.9008 15.6016 30.1008 15.8016 30.1008 16.0016V17.9016C30.1008 18.1016 29.9008 18.3016 29.7008 18.3016Z" fill="#FEDE3A"/>
<path d="M29.7008 18.3016C29.5008 18.3016 29.3008 18.1016 29.3008 17.9016V16.0016C29.3008 15.8016 29.5008 15.6016 29.7008 15.6016C29.9008 15.6016 30.1008 15.8016 30.1008 16.0016V17.9016C30.1008 18.1016 29.9008 18.3016 29.7008 18.3016Z" fill="#FEDE3A"/>
<path d="M29.7008 17.6012C29.5008 17.6012 29.3008 17.4012 29.3008 17.2012V17.9012C29.3008 18.1012 29.5008 18.3012 29.7008 18.3012C29.9008 18.3012 30.1008 18.1012 30.1008 17.9012V17.2012C30.1008 17.4012 29.9008 17.6012 29.7008 17.6012Z" fill="#F7CB15"/>
<path d="M31.6012 18.3016C31.4012 18.3016 31.2012 18.1016 31.2012 17.9016V16.0016C31.2012 15.8016 31.4012 15.6016 31.6012 15.6016C31.8012 15.6016 32.0012 15.8016 32.0012 16.0016V17.9016C32.0012 18.1016 31.8012 18.3016 31.6012 18.3016Z" fill="#FEDE3A"/>
<path d="M33.5006 18.3016C33.3006 18.3016 33.1006 18.1016 33.1006 17.9016V16.0016C33.1006 15.8016 33.3006 15.6016 33.5006 15.6016C33.7006 15.6016 33.9006 15.8016 33.9006 16.0016V17.9016C33.9006 18.1016 33.7006 18.3016 33.5006 18.3016Z" fill="#FEDE3A"/>
<path d="M31.6012 17.6012C31.4012 17.6012 31.2012 17.4012 31.2012 17.2012V17.9012C31.2012 18.1012 31.4012 18.3012 31.6012 18.3012C31.8012 18.3012 32.0012 18.1012 32.0012 17.9012V17.2012C32.0012 17.4012 31.8012 17.6012 31.6012 17.6012Z" fill="#F7CB15"/>
<path d="M33.5006 17.6012C33.3006 17.6012 33.1006 17.4012 33.1006 17.2012V17.9012C33.1006 18.1012 33.3006 18.3012 33.5006 18.3012C33.7006 18.3012 33.9006 18.1012 33.9006 17.9012V17.2012C33.9006 17.4012 33.7006 17.6012 33.5006 17.6012Z" fill="#F7CB15"/>
<path d="M34.8004 30.1016H15.4004C14.6004 30.1016 13.9004 29.4016 13.9004 28.6016V23.6016C13.9004 22.8016 14.6004 22.1016 15.4004 22.1016H34.8004C35.6004 22.1016 36.3004 22.8016 36.3004 23.6016V28.6016C36.3004 29.5016 35.6004 30.1016 34.8004 30.1016Z" fill="#EF5A9D"/>
<path d="M34.8004 29.002H15.4004C14.6004 29.002 13.9004 28.302 13.9004 27.502V28.602C13.9004 29.402 14.6004 30.102 15.4004 30.102H34.8004C35.6004 30.102 36.3004 29.402 36.3004 28.602V27.502C36.3004 28.402 35.6004 29.002 34.8004 29.002Z" fill="#E43D91"/>
<path d="M19.8 26.2008C19.8 27.0008 19.2 27.6008 18.4 27.6008C17.6 27.6008 17 27.0008 17 26.2008C17 25.4008 17.6 24.8008 18.4 24.8008C19.2 24.8008 19.8 25.4008 19.8 26.2008Z" fill="#FEDE3A"/>
<path d="M29.7008 27.6023C29.5008 27.6023 29.3008 27.4023 29.3008 27.2023V25.3023C29.3008 25.1023 29.5008 24.9023 29.7008 24.9023C29.9008 24.9023 30.1008 25.1023 30.1008 25.3023V27.2023C30.1008 27.4023 29.9008 27.6023 29.7008 27.6023Z" fill="#FEDE3A"/>
<path d="M31.6012 27.6023C31.4012 27.6023 31.2012 27.4023 31.2012 27.2023V25.3023C31.2012 25.1023 31.4012 24.9023 31.6012 24.9023C31.8012 24.9023 32.0012 25.1023 32.0012 25.3023V27.2023C32.0012 27.4023 31.8012 27.6023 31.6012 27.6023Z" fill="#FEDE3A"/>
<path d="M33.5006 27.6023C33.3006 27.6023 33.1006 27.4023 33.1006 27.2023V25.3023C33.1006 25.1023 33.3006 24.9023 33.5006 24.9023C33.7006 24.9023 33.9006 25.1023 33.9006 25.3023V27.2023C33.9006 27.4023 33.7006 27.6023 33.5006 27.6023Z" fill="#FEDE3A"/>
<path d="M34.8004 39.4004H15.4004C14.6004 39.4004 13.9004 38.7004 13.9004 37.9004V32.9004C13.9004 32.1004 14.6004 31.4004 15.4004 31.4004H34.8004C35.6004 31.4004 36.3004 32.1004 36.3004 32.9004V37.9004C36.3004 38.8004 35.6004 39.4004 34.8004 39.4004Z" fill="#EF5A9D"/>
<path d="M34.8004 38.3008H15.4004C14.6004 38.3008 13.9004 37.6008 13.9004 36.8008V38.0008C13.9004 38.8008 14.6004 39.5008 15.4004 39.5008H34.8004C35.6004 39.5008 36.3004 38.8008 36.3004 38.0008V36.9008C36.3004 37.7008 35.6004 38.3008 34.8004 38.3008Z" fill="#E43D91"/>
<path d="M19.8 35.4996C19.8 36.2996 19.2 36.8996 18.4 36.8996C17.6 36.8996 17 36.2996 17 35.4996C17 34.6996 17.6 34.0996 18.4 34.0996C19.2 34.0996 19.8 34.6996 19.8 35.4996Z" fill="#FEDE3A"/>
<path d="M29.7008 36.9012C29.5008 36.9012 29.3008 36.7012 29.3008 36.5012V34.6012C29.3008 34.4012 29.5008 34.2012 29.7008 34.2012C29.9008 34.2012 30.1008 34.4012 30.1008 34.6012V36.5012C30.1008 36.7012 29.9008 36.9012 29.7008 36.9012Z" fill="#FEDE3A"/>
<path d="M31.6012 36.9012C31.4012 36.9012 31.2012 36.7012 31.2012 36.5012V34.6012C31.2012 34.4012 31.4012 34.2012 31.6012 34.2012C31.8012 34.2012 32.0012 34.4012 32.0012 34.6012V36.5012C32.0012 36.7012 31.8012 36.9012 31.6012 36.9012Z" fill="#FEDE3A"/>
<path d="M33.5006 36.9012C33.3006 36.9012 33.1006 36.7012 33.1006 36.5012V34.6012C33.1006 34.4012 33.3006 34.2012 33.5006 34.2012C33.7006 34.2012 33.9006 34.4012 33.9006 34.6012V36.5012C33.9006 36.7012 33.7006 36.9012 33.5006 36.9012Z" fill="#FEDE3A"/>
<path d="M18.4004 26.9004C17.7004 26.9004 17.2004 26.5004 17.0004 25.9004C17.0004 26.0004 16.9004 26.1004 16.9004 26.3004C16.9004 27.1004 17.5004 27.7004 18.3004 27.7004C19.1004 27.7004 19.7004 27.1004 19.7004 26.3004C19.7004 26.2004 19.7004 26.1004 19.6004 25.9004C19.5004 26.4004 19.0004 26.9004 18.4004 26.9004Z" fill="#F7CB15"/>
<path d="M29.7008 26.9C29.5008 26.9 29.3008 26.7 29.3008 26.5V27.2C29.3008 27.4 29.5008 27.6 29.7008 27.6C29.9008 27.6 30.1008 27.4 30.1008 27.2V26.5C30.1008 26.7 29.9008 26.9 29.7008 26.9Z" fill="#F7CB15"/>
<path d="M31.6002 26.9C31.4002 26.9 31.2002 26.7 31.2002 26.5V27.2C31.2002 27.4 31.4002 27.6 31.6002 27.6C31.8002 27.6 32.0002 27.4 32.0002 27.2V26.5C32.0002 26.7 31.8002 26.9 31.6002 26.9Z" fill="#F7CB15"/>
<path d="M33.5006 26.9C33.3006 26.9 33.1006 26.7 33.1006 26.5V27.2C33.1006 27.4 33.3006 27.6 33.5006 27.6C33.7006 27.6 33.9006 27.4 33.9006 27.2V26.5C33.9006 26.7 33.7006 26.9 33.5006 26.9Z" fill="#F7CB15"/>
<path d="M18.4004 36.2012C17.7004 36.2012 17.2004 35.8012 17.0004 35.2012C17.0004 35.3012 16.9004 35.4012 16.9004 35.6012C16.9004 36.4012 17.5004 37.0012 18.3004 37.0012C19.1004 37.0012 19.7004 36.4012 19.7004 35.6012C19.7004 35.5012 19.7004 35.4012 19.6004 35.2012C19.5004 35.7012 19.0004 36.2012 18.4004 36.2012Z" fill="#F7CB15"/>
<path d="M29.7008 36.2008C29.5008 36.2008 29.3008 36.0008 29.3008 35.8008V36.5008C29.3008 36.7008 29.5008 36.9008 29.7008 36.9008C29.9008 36.9008 30.1008 36.7008 30.1008 36.5008V35.8008C30.1008 36.0008 29.9008 36.2008 29.7008 36.2008Z" fill="#F7CB15"/>
<path d="M31.6002 36.2008C31.4002 36.2008 31.2002 36.0008 31.2002 35.8008V36.5008C31.2002 36.7008 31.4002 36.9008 31.6002 36.9008C31.8002 36.9008 32.0002 36.7008 32.0002 36.5008V35.8008C32.0002 36.0008 31.8002 36.2008 31.6002 36.2008Z" fill="#F7CB15"/>
<path d="M33.5006 36.2008C33.3006 36.2008 33.1006 36.0008 33.1006 35.8008V36.5008C33.1006 36.7008 33.3006 36.9008 33.5006 36.9008C33.7006 36.9008 33.9006 36.7008 33.9006 36.5008V35.8008C33.9006 36.0008 33.7006 36.2008 33.5006 36.2008Z" fill="#F7CB15"/>
<path d="M37.9004 42.1004H24.4004C24.1004 42.1004 23.9004 41.9004 23.9004 41.6004V30.6004C23.9004 30.2004 24.2004 29.9004 24.6004 29.9004H37.6004C38.0004 29.9004 38.3004 30.2004 38.3004 30.6004V41.6004C38.4004 41.9004 38.2004 42.1004 37.9004 42.1004Z" fill="#009ADD"/>
<path d="M37.9004 41.1008H24.4004C24.1004 41.1008 23.9004 40.9008 23.9004 40.6008V29.3008C23.9004 29.0008 24.1004 28.8008 24.4004 28.8008H38.0004C38.3004 28.8008 38.5004 29.0008 38.5004 29.3008V40.6008C38.4004 40.9008 38.2004 41.1008 37.9004 41.1008Z" fill="#1CAEE4"/>
<path d="M28.6006 38.802C28.5006 38.802 28.4006 38.802 28.3006 38.702L26.2006 36.602C26.1006 36.502 26.1006 36.402 26.1006 36.302C26.1006 36.202 26.2006 36.002 26.2006 36.002L28.3006 33.902C28.5006 33.702 28.8006 33.702 29.0006 33.902C29.2006 34.102 29.2006 34.402 29.0006 34.602L27.3006 36.302L29.0006 38.002C29.2006 38.202 29.2006 38.502 29.0006 38.702C28.9006 38.802 28.8006 38.802 28.6006 38.802Z" fill="#009ADD"/>
<path d="M33.6004 38.802C33.5004 38.802 33.4004 38.802 33.3004 38.702C33.1004 38.502 33.1004 38.202 33.3004 38.002L35.0004 36.302L33.3004 34.602C33.1004 34.402 33.1004 34.102 33.3004 33.902C33.5004 33.702 33.8004 33.702 34.0004 33.902L36.1004 36.002C36.2004 36.102 36.2004 36.202 36.2004 36.302C36.2004 36.402 36.1004 36.602 36.1004 36.602L34.0004 38.702C33.9004 38.802 33.8004 38.802 33.6004 38.802Z" fill="#009ADD"/>
<path d="M30.1004 38.8013C30.0004 38.8013 30.0004 38.8013 29.9004 38.7013C29.7004 38.6013 29.6004 38.3013 29.7004 38.0013L31.8004 33.9013C31.9004 33.7013 32.2004 33.6013 32.5004 33.7013C32.7004 33.8013 32.8004 34.1013 32.7004 34.4013L30.6004 38.5013C30.4004 38.7013 30.3004 38.8013 30.1004 38.8013Z" fill="#009ADD"/>
<path d="M28.6006 38.302C28.5006 38.302 28.4006 38.302 28.3006 38.202L26.2006 36.102C26.1006 36.002 26.1006 35.902 26.1006 35.802C26.1006 35.702 26.2006 35.502 26.2006 35.502L28.3006 33.402C28.5006 33.202 28.8006 33.202 29.0006 33.402C29.2006 33.602 29.2006 33.902 29.0006 34.102L27.3006 35.802L29.0006 37.502C29.2006 37.702 29.2006 38.002 29.0006 38.202C28.9006 38.302 28.8006 38.302 28.6006 38.302Z" fill="white"/>
<path d="M27.3002 35.802L29.0002 34.102C29.2002 33.902 29.2002 33.602 29.0002 33.402C28.8002 33.202 28.5002 33.202 28.4002 33.402C28.6002 33.602 28.6002 33.902 28.4002 34.102L26.7002 35.802L28.4002 37.502C28.6002 37.702 28.6002 38.002 28.4002 38.202C28.5002 38.302 28.6002 38.302 28.7002 38.302C28.8002 38.302 28.9002 38.302 29.0002 38.202C29.2002 38.002 29.2002 37.702 29.0002 37.502L27.3002 35.802Z" fill="#E6E7E8"/>
<path d="M33.6004 38.302C33.5004 38.302 33.4004 38.302 33.3004 38.202C33.1004 38.002 33.1004 37.702 33.3004 37.502L35.0004 35.802L33.3004 34.102C33.1004 33.902 33.1004 33.602 33.3004 33.402C33.5004 33.202 33.8004 33.202 34.0004 33.402L36.1004 35.502C36.2004 35.602 36.2004 35.702 36.2004 35.802C36.2004 35.902 36.1004 36.102 36.1004 36.102L34.0004 38.202C33.9004 38.302 33.8004 38.302 33.6004 38.302Z" fill="white"/>
<path d="M33.9004 38.2026C33.7004 38.0026 33.7004 37.7026 33.9004 37.5026L35.6004 35.8026L33.9004 34.1026C33.7004 33.9026 33.7004 33.6026 33.9004 33.4026C33.7004 33.2026 33.4004 33.3026 33.3004 33.4026C33.1004 33.6026 33.1004 33.9026 33.3004 34.1026L35.0004 35.8026L33.3004 37.5026C33.1004 37.7026 33.1004 38.0026 33.3004 38.2026C33.4004 38.3026 33.5004 38.3026 33.6004 38.3026C33.7004 38.3026 33.9004 38.3026 33.9004 38.2026Z" fill="#E6E7E8"/>
<path d="M30.1004 38.3013C30.0004 38.3013 30.0004 38.3013 29.9004 38.2013C29.7004 38.1013 29.6004 37.8013 29.7004 37.5013L31.8004 33.4013C31.9004 33.2013 32.2004 33.1013 32.5004 33.2013C32.7004 33.3013 32.8004 33.6013 32.7004 33.9013L30.6004 38.0013C30.4004 38.2013 30.3004 38.3013 30.1004 38.3013Z" fill="white"/>
<path d="M32.4002 33.3008H32.3002C32.3002 33.4008 32.3002 33.5008 32.3002 33.6008L30.2002 37.7008C30.1002 37.9008 29.9002 38.0008 29.8002 38.0008H29.7002C29.7002 38.1008 29.8002 38.3008 30.0002 38.3008C30.1002 38.3008 30.1002 38.4008 30.2002 38.4008C30.4002 38.4008 30.5002 38.3008 30.6002 38.1008L32.7002 34.0008C32.7002 33.7008 32.6002 33.4008 32.4002 33.3008Z" fill="#E6E7E8"/>
<path d="M37.9004 28.9004H24.4004C24.1004 28.9004 23.9004 29.1004 23.9004 29.4004V31.0004H38.4004V29.3004C38.4004 29.1004 38.2004 28.9004 37.9004 28.9004Z" fill="#009ADD"/>
<path d="M25.9004 30.5C26.1765 30.5 26.4004 30.2761 26.4004 30C26.4004 29.7239 26.1765 29.5 25.9004 29.5C25.6242 29.5 25.4004 29.7239 25.4004 30C25.4004 30.2761 25.6242 30.5 25.9004 30.5Z" fill="white"/>
<path d="M44.7007 26.3012L41.7007 29.7012C41.4007 30.0012 40.9007 30.0012 40.7007 29.7012L37.7007 26.3012C37.3007 25.9012 37.6007 25.2012 38.2007 25.2012H39.4007V22.7012C39.4007 22.2012 39.8007 21.7012 40.4007 21.7012H42.1007C42.6007 21.7012 43.1007 22.1012 43.1007 22.7012V25.2012H44.3007C44.8007 25.2012 45.1007 25.9012 44.7007 26.3012Z" fill="#FEDE3A"/>
<path d="M44.4001 25.2012L41.7001 28.3012C41.4001 28.6012 40.9001 28.6012 40.7001 28.3012L38.0001 25.2012C37.6001 25.3012 37.4001 25.9012 37.7001 26.3012L40.7001 29.7012C41.0001 30.0012 41.5001 30.0012 41.7001 29.7012L44.7001 26.3012C45.1001 25.9012 44.9001 25.3012 44.4001 25.2012Z" fill="#E7AD27"/>
</svg>
