<svg width="55" height="49" viewBox="0 0 55 49" fill="none" xmlns="http://www.w3.org/2000/svg">
<path d="M27.4998 48.2008C40.589 48.2008 51.1998 37.5899 51.1998 24.5008C51.1998 11.4116 40.589 0.800781 27.4998 0.800781C14.4107 0.800781 3.7998 11.4116 3.7998 24.5008C3.7998 37.5899 14.4107 48.2008 27.4998 48.2008Z" fill="url(#paint0_linear_1137_919)"/>
<path d="M51.1998 24.5008C51.1998 11.4008 40.5998 0.800781 27.4998 0.800781C26.7998 0.800781 25.9998 0.800781 25.2998 0.900781C25.3998 0.900781 25.4998 0.900781 25.5998 0.900781C18.7998 1.90078 13.0998 8.10078 10.8998 16.5008C6.4998 18.5008 3.7998 21.3008 3.7998 24.4008C3.7998 27.5008 6.4998 30.3008 10.8998 32.3008C13.0998 40.7008 18.7998 47.0008 25.5998 47.9008C25.4998 47.9008 25.3998 47.9008 25.2998 47.9008C25.9998 48.0008 26.6998 48.0008 27.4998 48.0008C40.5998 48.2008 51.1998 37.6008 51.1998 24.5008ZM10.1998 20.0008C10.0998 21.0008 9.9998 22.1008 9.8998 23.2008H6.8998C7.3998 22.1008 8.5998 21.0008 10.1998 20.0008ZM6.8998 25.8008H9.9998C9.9998 26.9008 10.0998 27.9008 10.2998 29.0008C8.5998 28.0008 7.3998 26.9008 6.8998 25.8008ZM46.7998 23.2008H45.0998C45.0998 22.1008 44.9998 21.1008 44.7998 20.0008C45.4998 20.4008 46.0998 20.9008 46.6998 21.3008C46.6998 21.9008 46.7998 22.5008 46.7998 23.2008ZM45.0998 25.8008H46.7998C46.7998 26.4008 46.6998 27.0008 46.5998 27.6008C46.0998 28.1008 45.4998 28.5008 44.6998 28.9008C44.8998 28.0008 44.9998 26.9008 45.0998 25.8008ZM45.7998 17.4008C45.2998 17.1008 44.6998 16.8008 44.0998 16.5008C43.1998 13.2008 41.8998 10.3008 40.0998 7.80078C42.6998 10.6008 44.5998 13.8008 45.7998 17.4008ZM30.4998 16.2008C30.6998 18.4008 30.8998 20.7008 30.8998 23.1008H23.9998C23.9998 20.7008 24.1998 18.4008 24.3998 16.2008C25.3998 16.1008 26.3998 16.1008 27.3998 16.1008C28.4998 16.1008 29.4998 16.2008 30.4998 16.2008ZM30.3998 3.90078C33.0998 4.70078 35.6998 6.50078 37.7998 9.30078C39.0998 11.0008 40.0998 13.1008 40.8998 15.3008C38.4998 14.5008 35.7998 14.0008 32.9998 13.7008C32.3998 9.60078 31.4998 6.10078 30.3998 3.90078ZM30.8998 25.8008C30.8998 28.2008 30.6998 30.5008 30.4998 32.7008C29.4998 32.8008 28.4998 32.8008 27.4998 32.8008C26.4998 32.8008 25.4998 32.8008 24.4998 32.7008C24.2998 30.5008 24.0998 28.2008 24.0998 25.8008H30.8998ZM32.9998 35.3008C35.8998 35.0008 38.5998 34.4008 40.8998 33.7008C40.0998 35.9008 39.0998 38.0008 37.7998 39.7008C36.5998 41.3008 35.2998 42.5008 33.8998 43.5008C32.6998 44.3008 31.1998 43.2008 31.5998 41.9008C32.1998 39.9008 32.5998 37.7008 32.9998 35.3008ZM36.1998 32.1008C35.1998 32.3008 34.2998 32.4008 33.2998 32.6008C33.4998 30.5008 33.5998 28.3008 33.6998 25.9008H42.3998C42.2998 27.5008 42.0998 29.0008 41.7998 30.5008C40.0998 31.1008 38.1998 31.7008 36.1998 32.1008ZM33.5998 23.2008C33.5998 20.9008 33.3998 18.6008 33.1998 16.5008C34.1998 16.6008 35.1998 16.8008 36.0998 17.0008C38.0998 17.4008 39.9998 17.9008 41.6998 18.6008C41.9998 20.1008 42.1998 21.6008 42.2998 23.2008H33.5998ZM25.3998 10.0008C25.7998 8.20078 26.2998 6.60078 26.7998 5.40078C26.9998 4.90078 27.2998 4.50078 27.3998 4.20078C27.5998 4.50078 27.7998 4.80078 27.9998 5.40078C28.4998 6.60078 28.9998 8.20078 29.3998 10.0008C29.5998 11.1008 29.8998 12.3008 29.9998 13.5008C29.0998 13.5008 28.1998 13.4008 27.2998 13.4008C26.3998 13.4008 25.4998 13.4008 24.5998 13.5008C24.9998 12.3008 25.1998 11.1008 25.3998 10.0008ZM17.1998 9.40078C19.2998 6.60078 21.7998 4.70078 24.5998 4.00078C23.4998 6.20078 22.5998 9.60078 21.9998 13.8008C19.0998 14.1008 16.3998 14.7008 14.0998 15.4008C14.8998 13.1008 15.8998 11.1008 17.1998 9.40078ZM13.1998 18.5008C14.8998 17.8008 16.6998 17.3008 18.7998 16.9008C19.7998 16.7008 20.6998 16.6008 21.6998 16.4008C21.4998 18.5008 21.3998 20.7008 21.2998 23.1008H12.5998C12.6998 21.6008 12.8998 20.0008 13.1998 18.5008ZM12.5998 25.8008H21.2998C21.2998 28.1008 21.4998 30.4008 21.6998 32.5008C20.6998 32.4008 19.6998 32.2008 18.7998 32.0008C16.7998 31.6008 14.8998 31.1008 13.1998 30.4008C12.8998 29.0008 12.6998 27.4008 12.5998 25.8008ZM17.1998 39.6008C15.8998 37.9008 14.8998 35.8008 14.0998 33.6008C16.4998 34.4008 19.1998 34.9008 21.9998 35.2008C22.2998 37.7008 22.7998 39.9008 23.2998 41.7008C23.6998 43.0008 22.1998 44.1008 20.9998 43.3008C19.6998 42.5008 18.3998 41.2008 17.1998 39.6008ZM24.7998 35.5008C25.6998 35.5008 26.5998 35.6008 27.4998 35.6008C28.3998 35.6008 29.2998 35.6008 30.1998 35.5008C29.9998 36.7008 29.7998 37.9008 29.5998 39.0008C29.1998 40.8008 28.6998 42.4008 28.1998 43.6008C27.9998 44.1008 27.1998 44.1008 26.9998 43.6008C26.4998 42.4008 25.9998 40.8008 25.5998 39.0008C25.1998 37.9008 24.9998 36.7008 24.7998 35.5008ZM40.0998 41.1008C41.8998 38.7008 43.2998 35.7008 44.0998 32.4008C44.6998 32.1008 45.2998 31.8008 45.7998 31.5008C44.5998 35.2008 42.6998 38.4008 40.0998 41.1008Z" fill="url(#paint1_linear_1137_919)"/>
<path d="M52.8 44.4004H2.2C1 44.4004 0 43.4004 0 42.2004V31.1004C0 29.9004 1 28.9004 2.2 28.9004H52.8C54 28.9004 55 29.9004 55 31.1004V42.2004C55 43.4004 54 44.4004 52.8 44.4004Z" fill="url(#paint2_linear_1137_919)"/>
<path d="M52.8004 28.9004H48.4004C49.6004 28.9004 50.6004 29.9004 50.6004 31.1004V42.2004C50.6004 43.4004 49.6004 44.4004 48.4004 44.4004H52.8004C54.0004 44.4004 55.0004 43.4004 55.0004 42.2004V31.1004C55.0004 29.9004 54.0004 28.9004 52.8004 28.9004Z" fill="url(#paint3_linear_1137_919)"/>
<path d="M9 39.9016C9 40.2016 8.5 40.5016 8 40.5016C7.4 40.5016 7 40.2016 7 39.9016V31.2016C7 30.8016 7.4 30.6016 8 30.6016C8.6 30.6016 9 30.9016 9 31.2016V35.1016C9.2 34.6016 9.8 34.1016 10.6 34.1016C11.8 34.1016 12.9 35.4016 12.9 36.9016V39.9016C12.9 40.3016 12.4 40.5016 11.9 40.5016C11.4 40.5016 10.9 40.3016 10.9 39.9016V36.9016C10.9 36.4016 10.5 35.9016 9.9 35.9016C9.4 36.0016 9 36.3016 9 37.0016V39.9016Z" fill="#7A6D79"/>
<path d="M16.1 38.3016C16.1 38.7016 16.2 38.8016 16.6 38.8016H17.2C17.8 38.8016 18.1 39.2016 18.1 39.7016C18.1 40.1016 17.8 40.6016 17.2 40.6016H16.6C14.9 40.6016 14 39.9016 14 38.4016V32.2016C14 31.8016 14.5 31.6016 15 31.6016C15.5 31.6016 16 31.9016 16 32.2016V34.3016H17.5C17.8 34.3016 18 34.7016 18 35.0016C18 35.4016 17.8 35.7016 17.5 35.7016H16L16.1 38.3016Z" fill="#7A6D79"/>
<path d="M20.8998 38.3016C20.8998 38.7016 20.9998 38.8016 21.3998 38.8016H21.9998C22.5998 38.8016 22.8998 39.2016 22.8998 39.7016C22.8998 40.1016 22.5998 40.6016 21.9998 40.6016H21.3998C19.6998 40.6016 18.7998 39.9016 18.7998 38.4016V32.2016C18.7998 31.8016 19.2998 31.6016 19.7998 31.6016C20.2998 31.6016 20.7998 31.9016 20.7998 32.2016V34.3016H22.2998C22.5998 34.3016 22.7998 34.7016 22.7998 35.0016C22.7998 35.4016 22.5998 35.7016 22.2998 35.7016H20.7998V38.3016H20.8998Z" fill="#7A6D79"/>
<path d="M25.6002 34.9012V35.2012C25.9002 34.7012 26.6002 34.2012 27.4002 34.2012C28.7002 34.2012 29.8002 35.5012 29.8002 37.0012V37.9012C29.8002 39.4012 28.7002 40.7012 27.5002 40.7012C26.7002 40.7012 26.0002 40.2012 25.8002 39.6012V42.8012C25.8002 43.1012 25.3002 43.4012 24.7002 43.4012C24.1002 43.4012 23.7002 43.1012 23.7002 42.8012V34.8012C23.7002 34.4012 24.1002 34.2012 24.7002 34.2012C25.2002 34.3012 25.6002 34.5012 25.6002 34.9012ZM27.8002 37.0012C27.8002 36.5012 27.3002 36.0012 26.8002 36.0012C26.3002 36.0012 25.8002 36.4012 25.8002 37.0012V38.1012C25.8002 38.3012 26.2002 39.0012 26.8002 39.0012C27.3002 39.0012 27.8002 38.5012 27.8002 38.0012V37.0012Z" fill="#7A6D79"/>
<path d="M33.8 38.7012C33.8 37.8012 30.7 38.4012 30.7 36.2012C30.7 35.2012 31.3 34.2012 33.2 34.2012C34.4 34.2012 35.5 34.6012 35.5 35.2012C35.5 35.5012 35.2 36.2012 34.8 36.2012C34.4 36.2012 34 35.8012 33.3 35.8012C32.8 35.8012 32.5 36.0012 32.5 36.2012C32.5 36.9012 35.6 36.4012 35.6 38.7012C35.6 40.0012 34.7 40.7012 33 40.7012C31.6 40.7012 30.5 40.1012 30.5 39.5012C30.5 39.2012 30.8 38.6012 31.2 38.6012C31.6 38.6012 31.9 39.2012 33 39.2012C33.7 39.2012 33.8 38.9012 33.8 38.7012Z" fill="#7A6D79"/>
<path d="M38.4004 36C38.4004 36.5 37.9004 37 37.4004 37C36.8004 37 36.4004 36.5 36.4004 36C36.4004 35.4 36.8004 35 37.4004 35C38.0004 35 38.4004 35.4 38.4004 36ZM38.4004 39.6C38.4004 40.1 37.9004 40.6 37.4004 40.6C36.8004 40.6 36.4004 40.1 36.4004 39.6C36.4004 39 36.8004 38.6 37.4004 38.6C38.0004 38.6 38.4004 39.1 38.4004 39.6Z" fill="#7A6D79"/>
<path d="M45.1996 31.0008C45.1996 31.1008 45.1996 31.2008 45.0996 31.3008L40.3996 40.9008C40.2996 41.1008 40.0996 41.2008 39.7996 41.2008C39.2996 41.2008 39.0996 40.8008 39.0996 40.5008C39.0996 40.4008 39.0996 40.3008 39.1996 40.2008L43.8996 30.6008C43.9996 30.4008 44.1996 30.3008 44.4996 30.3008C44.7996 30.3008 45.1996 30.6008 45.1996 31.0008Z" fill="#7A6D79"/>
<path d="M48.5004 31.0008C48.5004 31.1008 48.5004 31.2008 48.4004 31.3008L43.7004 40.9008C43.6004 41.1008 43.4004 41.2008 43.1004 41.2008C42.6004 41.2008 42.4004 40.8008 42.4004 40.5008C42.4004 40.4008 42.4004 40.3008 42.5004 40.2008L47.2004 30.6008C47.3004 30.4008 47.5004 30.3008 47.8004 30.3008C48.1004 30.3008 48.5004 30.6008 48.5004 31.0008Z" fill="#7A6D79"/>
<defs>
<linearGradient id="paint0_linear_1137_919" x1="3.80698" y1="24.5019" x2="51.1916" y2="24.5019" gradientUnits="userSpaceOnUse">
<stop stop-color="#99E6FC"/>
<stop offset="0.4296" stop-color="#01D0FB"/>
<stop offset="0.5256" stop-color="#08C6F7"/>
<stop offset="0.692" stop-color="#1DA9EB"/>
<stop offset="0.9074" stop-color="#3F7CD9"/>
<stop offset="1" stop-color="#4F66D0"/>
</linearGradient>
<linearGradient id="paint1_linear_1137_919" x1="-15.5292" y1="24.5019" x2="50.2763" y2="24.5019" gradientUnits="userSpaceOnUse">
<stop stop-color="#99E6FC"/>
<stop offset="0.4296" stop-color="#01D0FB"/>
<stop offset="0.5256" stop-color="#08C6F7"/>
<stop offset="0.692" stop-color="#1DA9EB"/>
<stop offset="0.9074" stop-color="#3F7CD9"/>
<stop offset="1" stop-color="#4F66D0"/>
</linearGradient>
<linearGradient id="paint2_linear_1137_919" x1="8.822e-05" y1="36.6683" x2="63.6229" y2="36.6683" gradientUnits="userSpaceOnUse">
<stop stop-color="#F8F6F7"/>
<stop offset="0.1788" stop-color="#F8F6F7"/>
<stop offset="1" stop-color="#E7E6F5"/>
</linearGradient>
<linearGradient id="paint3_linear_1137_919" x1="24.3726" y1="36.6683" x2="47.9907" y2="36.6683" gradientUnits="userSpaceOnUse">
<stop stop-color="#F8F6F7"/>
<stop offset="1" stop-color="#D1CEEB"/>
</linearGradient>
</defs>
</svg>
