<svg width="55" height="55" viewBox="0 0 55 55" fill="none" xmlns="http://www.w3.org/2000/svg">
<g clip-path="url(#clip0_1135_647)">
<path d="M4.7002 9.5V19.6C4.7002 34.9 13.6002 48.7 27.5002 55.1C41.4002 48.7 50.3002 34.9 50.3002 19.6V9.5C42.9002 9.5 35.8002 6.9 30.2002 2.2L27.5002 0L24.9002 2.2C19.2002 6.9 12.1002 9.5 4.7002 9.5Z" fill="#4398D1"/>
<path d="M38.5996 7.19922C35.2996 27.5992 25.6996 39.9992 16.5996 47.4992C19.7996 50.5992 23.4996 53.0992 27.4996 54.9992C41.3996 48.5992 50.2996 34.7992 50.2996 19.4992V9.49922C46.2996 9.49922 42.2996 8.69922 38.5996 7.19922Z" fill="#3E8CC7"/>
<path d="M31.3004 26.6008V20.9008C31.3004 18.8008 29.6004 17.1008 27.5004 17.1008C25.4004 17.1008 23.7004 18.8008 23.7004 20.9008V26.6008H19.9004V20.9008C19.9004 16.7008 23.3004 13.3008 27.5004 13.3008C31.7004 13.3008 35.1004 16.7008 35.1004 20.9008V26.6008H31.3004Z" fill="#E5E5E5"/>
<path d="M19.9004 26.5996H23.7004V22.0996C22.5004 22.6996 21.2004 23.2996 19.9004 23.6996V26.5996Z" fill="#D6D6D6"/>
<path d="M32.7 15.4004C31.9 16.4004 31 17.2004 30 18.1004C30.8 18.8004 31.3 19.9004 31.3 20.9004V26.6004H35.1V20.9004C35.1 18.8004 34.2 16.8004 32.7 15.4004Z" fill="#D6D6D6"/>
<path d="M37.9996 24.6992H17.0996V41.7992H37.9996V24.6992Z" fill="#FDB62F"/>
<path d="M37.9996 24.6992H17.0996V41.7992H37.9996V24.6992Z" fill="#FDB62F"/>
<path d="M37.8996 41.6996H17.0996C22.9996 37.8996 31.9996 37.8996 37.8996 41.6996Z" fill="#FFA230"/>
<path d="M28.4996 33.2012H26.5996V37.9012H28.4996V33.2012Z" fill="#126099"/>
<path d="M27.4996 34.1008C28.549 34.1008 29.3996 33.2501 29.3996 32.2008C29.3996 31.1514 28.549 30.3008 27.4996 30.3008C26.4503 30.3008 25.5996 31.1514 25.5996 32.2008C25.5996 33.2501 26.4503 34.1008 27.4996 34.1008Z" fill="#126099"/>
<path d="M17.0996 24.7012H37.9996C31.9996 28.4012 22.9996 28.4012 17.0996 24.7012Z" fill="#FDC353"/>
<path d="M12.2998 21.8004C12.2998 19.2004 14.3998 17.1004 16.9998 17.1004C14.3998 17.1004 12.2998 15.0004 12.2998 12.4004" fill="#FDC353"/>
<path d="M12.2996 12.3008C12.2996 14.9008 10.1996 17.0008 7.59961 17.0008C10.1996 17.0008 12.2996 19.1008 12.2996 21.7008" fill="#FDC353"/>
</g>
<defs>
<clipPath id="clip0_1135_647">
<rect width="55" height="55" fill="white"/>
</clipPath>
</defs>
</svg>
