<svg width="55" height="55" viewBox="0 0 55 55" fill="none" xmlns="http://www.w3.org/2000/svg">
<path d="M55 11.4V42.7C55 44.8 53.3 46.5 51.2 46.5H3.8C1.7 46.5 0 44.8 0 42.7V3.8C0 1.7 1.7 0 3.8 0H17.3C18.9 0 20.3 1 20.8 2.5L22 5.7L22.7 7.6H51.1C53.3 7.6 55 9.3 55 11.4Z" fill="#F0C419"/>
<path d="M6.6 6.59922C6.6 7.09922 6.2 7.49922 5.7 7.49922H0V5.69922H5.7C6.2 5.69922 6.6 6.09922 6.6 6.59922Z" fill="#F29C1F"/>
<path d="M13.2997 37.9004H41.6997C46.3997 37.9004 50.1997 41.7004 50.1997 46.4004C50.1997 51.1004 46.3997 54.9004 41.6997 54.9004H13.2997C8.59973 54.9004 4.79973 51.1004 4.79973 46.4004C4.69973 41.8004 8.59973 37.9004 13.2997 37.9004Z" fill="#802D40"/>
<path d="M32.2004 23.3004C31.7004 23.3004 31.3004 22.9004 31.3004 22.4004V17.1004C31.3004 15.0004 29.6004 13.3004 27.5004 13.3004C25.4004 13.3004 23.7004 15.0004 23.7004 17.1004V22.4004C23.7004 22.9004 23.3004 23.3004 22.8004 23.3004C22.3004 23.3004 21.9004 22.9004 21.9004 22.4004V17.1004C21.9004 14.0004 24.4004 11.4004 27.6004 11.4004C30.8004 11.4004 33.3004 13.9004 33.3004 17.1004V22.4004C33.3004 22.7004 33.2004 22.9004 33.0004 23.1004C32.7004 23.2004 32.5004 23.3004 32.2004 23.3004Z" fill="#95A5A5"/>
<path d="M16.9 43.9996C16.8 43.7996 16.5 43.5996 16.3 43.5996C16.1 43.5996 15.8 43.5996 15.6 43.6996L14.2 44.5996V43.4996C14.2 42.9996 13.8 42.5996 13.3 42.5996C12.8 42.5996 12.4 42.9996 12.4 43.4996V44.5996L11 43.7996C10.6 43.4996 10 43.5996 9.7 44.0996C9.4 44.4996 9.5 45.0996 10 45.3996L11.7 46.4996L10 47.5996C9.6 47.8996 9.4 48.4996 9.7 48.8996C10 49.2996 10.6 49.4996 11 49.1996L12.4 48.2996V49.3996C12.4 49.8996 12.8 50.2996 13.3 50.2996C13.8 50.2996 14.2 49.8996 14.2 49.3996V48.2996L15.6 49.1996C15.9 49.3996 16.2 49.3996 16.5 49.2996C16.8 49.0996 17 48.7996 17 48.4996C17 48.1996 16.9 47.7996 16.6 47.5996L15 46.4996L16.7 45.3996C16.9 45.2996 17.1 44.9996 17.1 44.7996C17.1 44.4996 17 44.2996 16.9 43.9996Z" fill="#ECF0F1"/>
<path d="M26.4 43.9996C26.3 43.7996 26 43.5996 25.8 43.5996C25.6 43.5996 25.3 43.5996 25.1 43.6996L23.7 44.5996V43.4996C23.7 42.9996 23.3 42.5996 22.8 42.5996C22.3 42.5996 21.9 42.9996 21.9 43.4996V44.5996L20.5 43.6996C20.1 43.3996 19.5 43.4996 19.2 43.9996C18.9 44.3996 19 44.9996 19.5 45.2996L21.2 46.3996L19.5 47.4996C19.1 47.7996 18.9 48.3996 19.2 48.7996C19.5 49.1996 20.1 49.3996 20.5 49.0996L21.9 48.1996V49.2996C21.9 49.7996 22.3 50.1996 22.8 50.1996C23.3 50.1996 23.7 49.7996 23.7 49.2996V48.1996L25.1 49.0996C25.5 49.3996 26.1 49.2996 26.4 48.7996C26.7 48.3996 26.6 47.7996 26.1 47.4996L24.4 46.3996L26.1 45.2996C26.3 45.1996 26.5 44.8996 26.5 44.6996C26.6 44.4996 26.5 44.2996 26.4 43.9996Z" fill="#ECF0F1"/>
<path d="M35.9 43.9996C35.8 43.7996 35.5 43.5996 35.3 43.5996C35.1 43.5996 34.8 43.5996 34.6 43.6996L33.2 44.5996V43.4996C33.2 42.9996 32.8 42.5996 32.3 42.5996C31.8 42.5996 31.4 42.9996 31.4 43.4996V44.5996L30 43.6996C29.6 43.3996 29 43.4996 28.7 43.9996C28.4 44.3996 28.5 44.9996 29 45.2996L30.7 46.3996L29 47.4996C28.6 47.7996 28.4 48.3996 28.7 48.7996C29 49.1996 29.6 49.3996 30 49.0996L31.4 48.1996V49.2996C31.4 49.7996 31.8 50.1996 32.3 50.1996C32.8 50.1996 33.2 49.7996 33.2 49.2996V48.1996L34.6 49.0996C34.9 49.2996 35.2 49.2996 35.5 49.1996C35.8 48.9996 36 48.6996 36 48.3996C36 48.0996 35.9 47.6996 35.6 47.4996L33.9 46.3996L35.6 45.2996C35.8 45.1996 36 44.8996 36 44.6996C36.1 44.4996 36 44.2996 35.9 43.9996Z" fill="#ECF0F1"/>
<path d="M43.4 46.4992L45.1 45.3992C45.4 45.1992 45.5 44.8992 45.5 44.4992C45.5 44.0992 45.3 43.8992 45 43.6992C44.7 43.4992 44.3 43.5992 44.1 43.7992L42.7 44.6992V43.5992C42.7 43.0992 42.3 42.6992 41.8 42.6992C41.3 42.6992 40.9 43.0992 40.9 43.5992V44.6992L39.5 43.7992C39.1 43.4992 38.5 43.5992 38.2 44.0992C37.9 44.4992 38 45.0992 38.5 45.3992L40.2 46.4992L38.5 47.5992C38.1 47.8992 37.9 48.4992 38.2 48.8992C38.5 49.2992 39.1 49.4992 39.5 49.1992L40.9 48.2992V49.3992C40.9 49.8992 41.3 50.2992 41.8 50.2992C42.3 50.2992 42.7 49.8992 42.7 49.3992V48.2992L44.1 49.1992C44.4 49.3992 44.7 49.3992 45 49.2992C45.3 49.0992 45.5 48.7992 45.5 48.4992C45.5 48.1992 45.4 47.7992 45.1 47.5992L43.4 46.4992Z" fill="#ECF0F1"/>
<path d="M21.8 20.9004H33.2C34.8 20.9004 36 22.2004 36 23.7004V35.1004C36 36.7004 34.7 37.9004 33.2 37.9004H21.8C20.2 37.9004 19 36.6004 19 35.1004V23.7004C19 22.1004 20.2 20.9004 21.8 20.9004Z" fill="#F3D55B"/>
<path d="M30.2999 27.9992C30.4999 28.9992 30.0999 29.9992 29.3999 30.5992V31.2992C29.3999 32.2992 28.5999 33.1992 27.4999 33.1992C26.4999 33.1992 25.5999 32.3992 25.5999 31.2992V30.5992C24.9999 30.0992 24.5999 29.2992 24.6999 28.4992C24.6999 26.9992 25.7999 25.7992 27.2999 25.6992C28.6999 25.4992 30.0999 26.4992 30.2999 27.9992Z" fill="#3F5C6C"/>
<path d="M22.8 7.59922H9.5C9 7.59922 8.5 7.19922 8.5 6.59922C8.5 5.99922 9 5.69922 9.5 5.69922H22L22.8 7.59922Z" fill="#F29C1F"/>
</svg>
