<svg width="55" height="55" viewBox="0 0 55 55" fill="none" xmlns="http://www.w3.org/2000/svg">
<path d="M3.8 0H51.2C53.3 0 55 1.7 55 3.8V51.2C55 53.3 53.3 55 51.2 55H3.8C1.7 55 0 53.3 0 51.2V3.8C0 1.7 1.7 0 3.8 0Z" fill="#E6E6E6"/>
<path d="M27.5 51.1992C37.4411 51.1992 45.5 43.1403 45.5 33.1992C45.5 23.2581 37.4411 15.1992 27.5 15.1992C17.5589 15.1992 9.5 23.2581 9.5 33.1992C9.5 43.1403 17.5589 51.1992 27.5 51.1992Z" fill="#1AB3FF"/>
<path d="M45.4998 34.1004C45.5998 33.5004 45.5998 32.8004 45.4998 32.2004H37.8998C37.8998 28.6004 37.1998 25.1004 35.8998 21.8004H41.4998C40.8998 21.1004 40.2998 20.5004 39.6998 19.9004H34.9998C34.1998 18.2004 32.9998 16.8004 31.4998 15.6004C28.8998 15.0004 26.1998 15.0004 23.4998 15.6004C21.9998 16.8004 20.7998 18.2004 19.9998 19.9004H15.3998C14.7998 20.5004 14.0998 21.1004 13.5998 21.8004H19.1998C17.8998 25.1004 17.1998 28.7004 17.1998 32.2004H9.4998C9.3998 32.8004 9.3998 33.5004 9.4998 34.1004H17.0998C17.0998 37.7004 17.7998 41.2004 19.0998 44.5004H13.4998C14.0998 45.2004 14.6998 45.8004 15.2998 46.4004H19.9998C20.7998 48.1004 21.9998 49.5004 23.4998 50.7004C26.0998 51.3004 28.7998 51.3004 31.4998 50.7004C32.9998 49.5004 34.1998 48.1004 34.9998 46.4004H39.5998C40.1998 45.8004 40.8998 45.2004 41.3998 44.5004H35.7998C37.0998 41.2004 37.7998 37.6004 37.7998 34.1004H45.4998ZM28.3998 16.2004C29.9998 16.6004 31.4998 17.9004 32.6998 19.9004H28.3998V16.2004ZM33.7998 21.8004C35.1998 25.1004 35.9998 28.6004 35.9998 32.2004H28.4998V21.8004H33.7998ZM26.5998 16.2004V19.9004H22.2998C23.3998 17.9004 24.8998 16.6004 26.5998 16.2004ZM21.1998 21.8004H26.4998V32.2004H18.9998C18.9998 28.7004 19.7998 25.1004 21.1998 21.8004ZM26.5998 50.1004C24.9998 49.7004 23.4998 48.4004 22.2998 46.4004H26.5998V50.1004ZM21.1998 44.6004C19.7998 41.3004 18.9998 37.8004 18.9998 34.2004H26.4998V44.6004H21.1998ZM28.3998 50.1004V46.4004H32.6998C31.5998 48.4004 30.0998 49.8004 28.3998 50.1004ZM33.7998 44.6004H28.4998V34.1004H35.9998C35.9998 37.7004 35.1998 41.3004 33.7998 44.6004Z" fill="#0094E4"/>
<path d="M55 3.8V11.4H0V3.8C0 1.7 1.7 0 3.8 0H51.2C53.3 0 55 1.7 55 3.8Z" fill="#232D4D"/>
<path d="M45.5 33.1992H9.5" stroke="black" stroke-width="16" stroke-miterlimit="32" stroke-linecap="round" stroke-linejoin="round"/>
<path d="M8.5002 25.5996H46.4002C48.5002 25.5996 50.2002 27.2996 50.2002 29.3996V36.9996C50.2002 39.0996 48.5002 40.7996 46.4002 40.7996H8.5002C6.4002 40.7996 4.7002 39.0996 4.7002 36.9996V29.3996C4.7002 27.2996 6.4002 25.5996 8.5002 25.5996Z" fill="#FFD221"/>
<path d="M5.6998 6.60078C6.19686 6.60078 6.5998 6.19784 6.5998 5.70078C6.5998 5.20372 6.19686 4.80078 5.6998 4.80078C5.20275 4.80078 4.7998 5.20372 4.7998 5.70078C4.7998 6.19784 5.20275 6.60078 5.6998 6.60078Z" fill="white"/>
<path d="M10.4 6.60078C10.8971 6.60078 11.3 6.19784 11.3 5.70078C11.3 5.20372 10.8971 4.80078 10.4 4.80078C9.90294 4.80078 9.5 5.20372 9.5 5.70078C9.5 6.19784 9.90294 6.60078 10.4 6.60078Z" fill="white"/>
<path d="M15.1998 6.60078C15.6969 6.60078 16.0998 6.19784 16.0998 5.70078C16.0998 5.20372 15.6969 4.80078 15.1998 4.80078C14.7027 4.80078 14.2998 5.20372 14.2998 5.70078C14.2998 6.19784 14.7027 6.60078 15.1998 6.60078Z" fill="white"/>
<path d="M49.3004 4.69922H39.8004C39.3004 4.69922 38.9004 5.09922 38.9004 5.59922C38.9004 6.09922 39.3004 6.49922 39.8004 6.49922H49.3004C49.8004 6.49922 50.2004 6.09922 50.2004 5.59922C50.2004 5.09922 49.8004 4.69922 49.3004 4.69922Z" fill="white"/>
<path d="M12.1004 29.4004C11.6004 29.4004 11.2004 29.8004 11.2004 30.3004V32.2004H9.70039V30.3004C9.70039 29.8004 9.30039 29.4004 8.80039 29.4004C8.30039 29.4004 7.90039 29.8004 7.90039 30.3004V36.0004C7.90039 36.5004 8.30039 36.9004 8.80039 36.9004C9.30039 36.9004 9.70039 36.5004 9.70039 36.0004V34.1004H11.2004V36.0004C11.2004 36.5004 11.6004 36.9004 12.1004 36.9004C12.6004 36.9004 13.0004 36.5004 13.0004 36.0004V30.3004C13.1004 29.8004 12.7004 29.4004 12.1004 29.4004Z" fill="#232D4D"/>
<path d="M18.8 29.4004H15.4C14.9 29.4004 14.5 29.8004 14.5 30.3004C14.5 30.8004 14.9 31.2004 15.4 31.2004H16.2V36.0004C16.2 36.5004 16.6 36.9004 17.1 36.9004C17.6 36.9004 18 36.6004 18 36.0004V31.3004H18.8C19.3 31.3004 19.7 30.9004 19.7 30.4004C19.7 29.9004 19.3 29.4004 18.8 29.4004Z" fill="#232D4D"/>
<path d="M25.4006 29.4004H22.0006C21.5006 29.4004 21.1006 29.8004 21.1006 30.3004C21.1006 30.8004 21.5006 31.2004 22.0006 31.2004H22.8006V36.0004C22.8006 36.5004 23.2006 36.9004 23.7006 36.9004C24.2006 36.9004 24.6006 36.5004 24.6006 36.0004V31.3004H25.4006C25.9006 31.3004 26.3006 30.9004 26.3006 30.4004C26.3006 29.9004 25.9006 29.4004 25.4006 29.4004Z" fill="#232D4D"/>
<path d="M30.6002 29.4004H28.6002C28.1002 29.4004 27.7002 29.8004 27.7002 30.3004V36.0004C27.7002 36.5004 28.1002 36.9004 28.6002 36.9004C29.1002 36.9004 29.5002 36.5004 29.5002 36.0004V34.1004H30.5002C31.8002 34.1004 32.9002 33.0004 32.9002 31.7004C32.9002 30.4004 31.9002 29.4004 30.6002 29.4004ZM30.6002 32.2004H29.6002V31.3004H30.6002C30.9002 31.3004 31.1002 31.5004 31.1002 31.8004C31.1002 32.1004 30.9002 32.2004 30.6002 32.2004Z" fill="#232D4D"/>
<path d="M36.5006 32.2004C36.9976 32.2004 37.4006 31.7974 37.4006 31.3004C37.4006 30.8033 36.9976 30.4004 36.5006 30.4004C36.0035 30.4004 35.6006 30.8033 35.6006 31.3004C35.6006 31.7974 36.0035 32.2004 36.5006 32.2004Z" fill="#232D4D"/>
<path d="M36.5006 36.0012C36.9976 36.0012 37.4006 35.5982 37.4006 35.1012C37.4006 34.6041 36.9976 34.2012 36.5006 34.2012C36.0035 34.2012 35.6006 34.6041 35.6006 35.1012C35.6006 35.5982 36.0035 36.0012 36.5006 36.0012Z" fill="#232D4D"/>
<path d="M43.0005 29.4005C42.5005 29.2005 42.0005 29.5005 41.8005 30.0005L39.9005 35.7005C39.7005 36.2005 40.0005 36.7005 40.5005 36.9005C41.0005 37.1005 41.5005 36.8005 41.7005 36.3005L43.6005 30.6005C43.7005 30.1005 43.5005 29.6005 43.0005 29.4005Z" fill="#232D4D"/>
<path d="M46.8003 29.4005C46.3003 29.2005 45.8003 29.5005 45.6003 30.0005L43.7003 35.7005C43.5003 36.2005 43.8003 36.7005 44.3003 36.9005C44.8003 37.1005 45.3003 36.8005 45.5003 36.3005L47.4003 30.6005C47.5003 30.1005 47.3003 29.6005 46.8003 29.4005Z" fill="#232D4D"/>
</svg>
