<svg width="80" height="80" viewBox="0 0 80 80" fill="none" xmlns="http://www.w3.org/2000/svg">
<g clip-path="url(#clip0_1433_979)">
<path d="M67.3337 5.59961H2.40039V14.6663H67.3337V5.59961Z" fill="#FC6C2D"/>
<path d="M5.33333 66.9336H8V64.2669H5.33333C3.86667 64.2669 2.66667 63.0669 2.66667 61.6003V8.26693C2.66667 6.80026 3.86667 5.60026 5.33333 5.60026H64C65.4667 5.60026 66.6667 6.80026 66.6667 8.26693V10.9336H69.3333V8.26693C69.3333 5.33359 66.9333 2.93359 64 2.93359H5.33333C2.4 2.93359 0 5.33359 0 8.26693V61.6003C0 64.6669 2.4 66.9336 5.33333 66.9336Z" fill="white"/>
<path d="M5.33398 8.26758H8.00065V10.9342H5.33398V8.26758Z" fill="white"/>
<path d="M10.666 8.26758H13.3327V10.9342H10.666V8.26758Z" fill="white"/>
<path d="M16 8.26758H18.6667V10.9342H16V8.26758Z" fill="white"/>
<path d="M74.666 13.5996H15.9993C13.066 13.5996 10.666 15.9996 10.666 18.9329V72.2663C10.666 75.1996 13.066 77.5996 15.9993 77.5996H74.666C77.5993 77.5996 79.9994 75.1996 79.9994 72.2663V18.9329C79.9994 15.9996 77.5993 13.5996 74.666 13.5996ZM77.3327 72.2663C77.3327 73.7329 76.1327 74.9329 74.666 74.9329H15.9993C14.5327 74.9329 13.3327 73.7329 13.3327 72.2663V18.9329C13.3327 17.4663 14.5327 16.2663 15.9993 16.2663H74.666C76.1327 16.2663 77.3327 17.4663 77.3327 18.9329V72.2663Z" fill="white"/>
<path d="M16 18.9336H18.6667V21.6003H16V18.9336Z" fill="white"/>
<path d="M21.334 18.9336H24.0007V21.6003H21.334V18.9336Z" fill="white"/>
<path d="M26.666 18.9336H29.3327V21.6003H26.666V18.9336Z" fill="white"/>
<path d="M16 24.2676H74.6667V26.9342H16V24.2676Z" fill="white"/>
<path d="M16 30.9336H26.6667V33.6003H16V30.9336Z" fill="white"/>
<path d="M16 36.2676H24V38.9342H16V36.2676Z" fill="white"/>
<path d="M45.3333 41.5996C40.1333 41.5996 36 45.7329 36 50.9329C36 56.1329 40.1333 60.2663 45.3333 60.2663C50.5333 60.2663 54.6667 56.1329 54.6667 50.9329C54.6667 45.8663 50.5333 41.5996 45.3333 41.5996ZM45.3333 57.5996C41.6 57.5996 38.6667 54.6663 38.6667 50.9329C38.6667 47.1996 41.6 44.2663 45.3333 44.2663C49.0667 44.2663 52 47.1996 52 50.9329C52 54.6663 49.0667 57.5996 45.3333 57.5996Z" fill="white"/>
<path d="M65.3333 45.5991H61.8667C61.6 44.6658 61.2 43.8658 60.8 43.0658L63.3333 40.5324C63.8667 39.9991 63.8667 39.1991 63.3333 38.6658L57.7333 33.0658C57.2 32.5324 56.4 32.5324 55.8667 33.0658L53.3333 35.5991C52.5333 35.1991 51.7333 34.7991 50.8 34.5324V31.0658C50.8 30.3991 50.1333 29.7324 49.4667 29.7324H41.4667C40.8 29.7324 40.1333 30.3991 40.1333 31.0658V34.5324C39.2 34.7991 38.4 35.1991 37.6 35.5991L35.0667 33.0658C34.5333 32.5324 33.7333 32.5324 33.2 33.0658L27.6 38.6658C27.0667 39.1991 27.0667 39.9991 27.6 40.5324L30.1333 43.0658C30 43.3324 29.8667 43.4658 29.8667 43.7324C29.6 44.3991 29.3333 44.9324 29.2 45.5991H25.3333C24.6667 45.5991 24 46.2658 24 46.9324V54.9324C24 55.5991 24.6667 56.2658 25.3333 56.2658H28.8C29.0667 57.1991 29.4667 57.9991 29.8667 58.7991L27.4667 61.3324C26.9333 61.8658 26.9333 62.6658 27.4667 63.1991L33.0667 68.7991C33.6 69.3324 34.4 69.3324 34.9333 68.7991L37.4667 66.2658C38.2667 66.6658 39.0667 67.0658 40 67.3324V70.7991C40 71.4658 40.6667 72.1324 41.3333 72.1324H49.3333C50 72.1324 50.6667 71.4658 50.6667 70.7991V67.3324C51.6 67.0658 52.4 66.6658 53.2 66.2658L55.7333 68.7991C56.2667 69.3324 57.0667 69.3324 57.6 68.7991L63.2 63.1991C63.7333 62.6658 63.7333 61.8658 63.2 61.3324L60.6667 58.7991C61.0667 57.9991 61.4667 57.1991 61.7333 56.2658H65.3333C66 56.2658 66.6667 55.5991 66.6667 54.9324V46.9324C66.6667 46.2658 66 45.5991 65.3333 45.5991ZM64 53.5991H60.8C60.1333 53.5991 59.6 53.9991 59.4667 54.6658C59.0667 55.9991 58.5333 57.1991 57.8667 58.3991C57.6 58.9324 57.6 59.5991 58.1333 59.9991L60.4 62.2658L56.6667 65.9991L54.4 63.7324C54 63.3324 53.3333 63.1991 52.8 63.4658C51.6 64.1324 50.4 64.6658 49.0667 65.0658C48.5333 65.1991 48 65.7324 48 66.3991V69.5991H42.6667V66.3991C42.6667 65.7324 42.2667 65.1991 41.6 65.0658C40.2667 64.6658 39.0667 64.1324 37.8667 63.4658C37.3333 63.1991 36.6667 63.1991 36.2667 63.7324L34 65.9991L30.2667 62.2658L32.5333 59.9991C32.9333 59.5991 33.0667 58.9324 32.8 58.3991C32 57.1991 31.4667 55.9991 31.2 54.6658C31.0667 54.1324 30.5333 53.5991 29.8667 53.5991H26.6667V48.2658H29.8667C30.5333 48.2658 31.0667 47.8658 31.2 47.1991C31.4667 46.3991 31.7333 45.5991 32.1333 44.7991C32.4 44.3991 32.5333 43.8658 32.8 43.4658C33.0667 42.9324 33.0667 42.2658 32.5333 41.8658L30.2667 39.5991L34 35.8658L36.2667 38.1324C36.6667 38.5324 37.3333 38.6658 37.8667 38.3991C39.0667 37.7324 40.2667 37.1991 41.6 36.7991C42.1333 36.6658 42.6667 36.1324 42.6667 35.4658V32.2658H48V35.4658C48 36.1324 48.4 36.6658 49.0667 36.7991C50.4 37.1991 51.6 37.7324 52.8 38.3991C53.3333 38.6658 54 38.6658 54.4 38.1324L56.6667 35.8658L60.4 39.5991L58.1333 41.8658C57.7333 42.2658 57.6 42.9324 57.8667 43.4658C58.5333 44.6658 59.0667 45.8658 59.4667 47.1991C59.6 47.7324 60.1333 48.2658 60.8 48.2658H64V53.5991Z" fill="white"/>
<path d="M60.7993 48.2676C60.1327 48.2676 59.5993 47.8676 59.466 47.2009C59.066 45.8676 58.5327 44.5342 57.866 43.4676C57.5993 42.9342 57.5993 42.2676 58.1327 41.8676L60.3993 39.6009L56.666 35.8676L54.3993 38.1342C53.9993 38.6676 53.3327 38.6676 52.7993 38.4009C51.5993 37.7342 50.3993 37.2009 49.066 36.8009C48.5327 36.6676 47.9993 36.1342 47.9993 35.4676V32.2676H42.666V35.4676C42.666 36.1342 42.266 36.5342 41.5993 36.8009C40.266 37.0676 39.066 37.7342 37.866 38.4009C37.3327 38.6676 36.666 38.6676 36.266 38.1342L33.9993 35.8676L30.266 39.6009L32.5327 41.8676C32.9327 42.2676 33.066 42.9342 32.7993 43.4676C32.5327 43.8676 32.266 44.4009 32.1327 44.8009C31.7327 45.6009 31.466 46.4009 31.1993 47.2009C31.066 47.7342 30.5327 48.2676 29.866 48.2676H26.666V53.6009H29.866C30.5327 53.6009 31.066 54.0009 31.1993 54.6676C31.5993 56.0009 32.1327 57.2009 32.7993 58.4009C33.066 58.9342 33.066 59.6009 32.5327 60.0009L30.266 62.2676L33.9993 66.0009L36.266 63.7342C36.666 63.3342 37.3327 63.2009 37.866 63.4676C39.066 64.1342 40.266 64.6676 41.5993 65.0676C42.1327 65.2009 42.666 65.7342 42.666 66.4009V69.6009H47.9993V66.4009C47.9993 65.7342 48.3993 65.2009 49.066 65.0676C50.3993 64.6676 51.5993 64.1342 52.7993 63.4676C53.3327 63.2009 53.9993 63.2009 54.3993 63.7342L56.666 66.0009L60.3993 62.2676L58.1327 60.0009C57.7327 59.6009 57.5993 58.9342 57.866 58.4009C58.5327 57.2009 59.066 56.0009 59.466 54.6676C59.5993 54.1342 60.1327 53.6009 60.7993 53.6009H63.9993V48.2676H60.7993ZM45.3327 60.2676C40.1327 60.2676 35.9993 56.1342 35.9993 50.9342C35.9993 45.7342 40.1327 41.6009 45.3327 41.6009C50.5327 41.6009 54.666 45.7342 54.666 50.9342C54.666 56.1342 50.5327 60.2676 45.3327 60.2676Z" fill="#FC6C2D"/>
<path d="M66.666 69.5996H74.666V72.2663H66.666V69.5996Z" fill="white"/>
</g>
<defs>
<clipPath id="clip0_1433_979">
<rect width="80" height="80" fill="white"/>
</clipPath>
</defs>
</svg>
