<svg width="80" height="80" viewBox="0 0 80 80" fill="none" xmlns="http://www.w3.org/2000/svg">
<g clip-path="url(#clip0_1433_927)">
<path d="M24.5342 36.1337C24.5342 33.7337 22.9342 31.7337 20.6676 31.2004V28.4004H18.1342V30.9337H14.2676V48.9337H18.1342V51.4671H20.6676V48.6671C22.9342 48.1337 24.5342 46.1337 24.5342 43.7337C24.5342 42.1337 23.8676 40.8004 22.8009 39.8671C23.8676 39.0671 24.5342 37.6004 24.5342 36.1337ZM19.3342 46.4004H16.8009V41.3337H19.3342C20.8009 41.3337 21.8676 42.5337 21.8676 43.8671C22.0009 45.3337 20.8009 46.4004 19.3342 46.4004ZM19.3342 38.6671H16.8009V33.4671H19.3342C20.8009 33.4671 21.8676 34.6671 21.8676 36.0004C22.0009 37.6004 20.8009 38.6671 19.3342 38.6671Z" fill="white"/>
<path d="M76.1331 36.1328C74.3997 36.1328 73.0664 37.1995 72.5331 38.6661H49.0664V41.3328H72.5331C73.0664 42.7995 74.5331 43.8661 76.1331 43.8661C78.2664 43.8661 79.9997 42.1328 79.9997 39.9995C79.9997 37.8661 78.2664 36.1328 76.1331 36.1328ZM76.1331 41.3328C75.4664 41.3328 74.7997 40.7995 74.7997 39.9995C74.7997 39.1995 75.3331 38.6661 76.1331 38.6661C76.7997 38.6661 77.4664 39.1995 77.4664 39.9995C77.4664 40.6661 76.7997 41.3328 76.1331 41.3328Z" fill="white"/>
<path d="M67.0667 46.4C65.3333 46.4 64 47.4667 63.4667 48.9333H57.3333L52.1333 43.7333H41.3333V46.2667H51.0667L56.2667 51.4667H63.4667C63.8667 52.5333 64.6667 53.4667 65.8667 53.8667V76C65.8667 76.6667 65.3333 77.3333 64.5333 77.3333H12.9333C12.2667 77.3333 11.6 76.8 11.6 76V55.6H11.7333C12.1333 55.3333 12.5333 55.3333 12.9333 55.6C13.3333 55.7333 13.6 56.1333 13.7333 56.5333C14.1333 58.2667 15.7333 59.4667 17.4667 59.4667H21.2C22.9333 59.4667 24.5333 58.2667 24.9333 56.5333C25.0667 56.1333 25.3333 55.8667 25.7333 55.6C26.1333 55.4667 26.5333 55.4667 26.9333 55.7333C28.5333 56.6667 30.4 56.4 31.7333 55.0667L34.4 52.4C35.7333 51.2 35.8667 49.2 34.9333 47.6C34.6667 47.2 34.6667 46.8 34.9333 46.4C35.0667 46 35.4667 45.7333 35.8667 45.6C37.6 45.2 38.8 43.6 38.8 41.8667V41.3333H41.3333V38.6667H38.6667V38.1333C38.6667 36.4 37.4667 34.8 35.7333 34.4C35.3333 34.2667 35.0667 34 34.8 33.6C34.6667 33.2 34.6667 32.8 34.9333 32.4C35.8667 30.8 35.6 28.9333 34.4 27.6L31.7333 24.9333C30.5333 23.6 28.5333 23.4667 26.9333 24.4C26.5333 24.6667 26.1333 24.6667 25.7333 24.4C25.3333 24.2667 25.0667 23.8667 24.9333 23.4667C24.5333 21.7333 22.9333 20.5333 21.2 20.5333H17.4667C15.7333 20.5333 14.1333 21.7333 13.6 23.4667C13.4667 23.8667 13.2 24.1333 12.8 24.4C12.4 24.5333 12 24.5333 11.6 24.2667C11.6 24.2667 11.6 24.2667 11.4667 24.2667V3.86667C11.4667 3.2 12 2.53333 12.8 2.53333H52.8V11.6C52.8 13.7333 54.5333 15.4667 56.6667 15.4667H65.7333V26C64.6667 26.4 63.7333 27.2 63.3333 28.4H56.1333L50.9333 33.6H41.3333V36.1333H52.1333L57.3333 30.9333H63.4667C64 32.4 65.4667 33.4667 67.0667 33.4667C69.2 33.4667 70.9333 31.7333 70.9333 29.6C70.9333 27.8667 69.8667 26.5333 68.4 26V15.2C68.4 14.1333 68 13.2 67.3333 12.4L56 1.06667C55.0667 0.4 54.1333 0 53.0667 0H12.9333C10.8 0 9.06667 1.73333 9.06667 3.86667V24C8.26667 24.1333 7.6 24.5333 7.06667 25.0667L4.4 27.7333C3.2 28.9333 2.93333 30.9333 3.86667 32.5333C4.13333 32.9333 4.13333 33.3333 3.86667 33.7333C3.73333 34.1333 3.33333 34.4 2.93333 34.5333C1.2 34.8 0 36.4 0 38.1333V41.8667C0 43.6 1.2 45.2 2.93333 45.6C3.33333 45.7333 3.6 46 3.86667 46.4C4 46.8 4 47.2 3.73333 47.6C2.8 49.2 3.06667 51.0667 4.26667 52.4L6.93333 55.0667C7.46667 55.6 8.26667 56 8.93333 56.1333V76.2667C8.93333 78.4 10.6667 80.1333 12.8 80.1333H64.4C66.5333 80.1333 68.2667 78.4 68.2667 76.2667V54C69.7333 53.4667 70.8 52 70.8 50.4C70.9333 48.1333 69.2 46.4 67.0667 46.4ZM67.0667 28.4C67.7333 28.4 68.4 28.9333 68.4 29.7333C68.4 30.4 67.8667 31.0667 67.0667 31.0667C66.4 31.0667 65.7333 30.5333 65.7333 29.7333C65.7333 28.9333 66.4 28.4 67.0667 28.4ZM55.4667 4.4L64 12.9333H56.8C56.1333 12.9333 55.4667 12.4 55.4667 11.6V4.4ZM8.8 53.2L6.13333 50.5333C5.73333 50.1333 5.6 49.4667 6 48.9333C6.66667 47.8667 6.66667 46.5333 6.26667 45.3333C5.73333 44.2667 4.8 43.3333 3.6 43.0667C3.06667 42.9333 2.66667 42.4 2.66667 41.7333V38C2.66667 37.3333 3.06667 36.9333 3.73333 36.6667C4.93333 36.4 5.86667 35.4667 6.4 34.4C6.66667 33.4667 6.66667 32.1333 6 31.0667C5.73333 30.5333 5.73333 29.8667 6.26667 29.4667L8.93333 26.8C9.33333 26.4 10 26.2667 10.5333 26.6667C11.6 27.3333 12.9333 27.3333 14 26.9333C15.0667 26.5333 16 25.4667 16.2667 24.2667C16.4 23.7333 16.9333 23.3333 17.6 23.3333H21.3333C21.8667 23.3333 22.4 23.7333 22.6667 24.4C22.9333 25.6 23.8667 26.5333 24.9333 27.0667C26 27.6 27.3333 27.4667 28.4 26.8C28.9333 26.5333 29.6 26.5333 30 27.0667L32.6667 29.7333C33.0667 30.1333 33.2 30.8 32.8 31.3333C32.1333 32.4 32.1333 33.7333 32.5333 34.8C33.0667 35.8667 34 36.8 35.2 37.0667C35.7333 37.2 36.2667 37.7333 36.2667 38.4V42.1333C36.2667 42.8 35.8667 43.2 35.2 43.4667C34 43.7333 33.0667 44.6667 32.5333 45.7333C32 46.8 32.1333 48.1333 32.8 49.2C33.0667 49.7333 33.0667 50.4 32.6667 50.8L30 53.4667C29.6 53.8667 28.9333 54 28.4 53.6C27.3333 52.9333 26 52.9333 24.9333 53.3333C23.8667 53.7333 22.9333 54.8 22.6667 56C22.5333 56.5333 22 56.9333 21.3333 56.9333H17.6C16.9333 56.9333 16.4 56.5333 16.2667 55.8667C16 54.6667 15.0667 53.7333 14 53.2C13.4667 52.9333 12.9333 52.9333 12.5333 52.9333C11.8667 52.9333 11.2 53.0667 10.5333 53.4667C9.86667 53.6 9.2 53.6 8.8 53.2ZM67.0667 51.6C66.4 51.6 65.7333 51.0667 65.7333 50.2667C65.7333 49.6 66.2667 48.9333 67.0667 48.9333C67.7333 48.9333 68.4 49.4667 68.4 50.2667C68.4 51.0667 67.8667 51.6 67.0667 51.6Z" fill="white"/>
<path d="M64.0001 12.9337H56.8001C56.1335 12.9337 55.4668 12.4004 55.4668 11.6004V4.40039L64.0001 12.9337Z" fill="#FC6C2D"/>
<path d="M35.0665 36.9326C33.8665 36.6659 32.9332 35.7326 32.3999 34.6659C31.8665 33.4659 31.9999 32.1326 32.6665 31.1992C32.9332 30.6659 32.9332 29.9992 32.5332 29.5992L29.8665 26.9326C29.4665 26.5326 28.7999 26.3992 28.2665 26.6659C27.1999 27.3326 25.8665 27.4659 24.7999 26.9326C23.5999 26.3992 22.7999 25.4659 22.5332 24.2659C22.3999 23.5992 21.8665 23.1992 21.1999 23.1992H17.4665C16.7999 23.1992 16.2665 23.5992 16.1332 24.1326C15.8665 25.3326 14.9332 26.3992 13.8665 26.7992C12.6665 27.3326 11.3332 27.1992 10.3999 26.5326C9.86654 26.2659 9.19987 26.2659 8.79987 26.6659L6.1332 29.3326C5.7332 29.7326 5.59987 30.3992 5.86654 30.9326C6.66654 32.1326 6.66654 33.4659 6.26654 34.5326C5.7332 35.7326 4.79987 36.5326 3.59987 36.7992C2.9332 36.9326 2.5332 37.4659 2.5332 38.1326V41.8659C2.5332 42.5326 2.9332 42.9326 3.46654 43.1992C4.66654 43.4659 5.59987 44.3992 6.1332 45.4659C6.66654 46.5325 6.66654 47.8659 5.99987 48.9326C5.7332 49.4659 5.7332 50.1326 6.1332 50.5326L8.79987 53.1992C9.19987 53.5992 9.86654 53.7325 10.3999 53.4659C11.0665 53.0659 11.7332 52.9326 12.3999 52.9326C12.9332 52.9326 13.4665 53.0659 13.8665 53.1992C15.0665 53.7326 15.8665 54.6659 16.1332 55.8659C16.2665 56.5326 16.7999 56.9326 17.4665 56.9326H21.1999C21.7332 56.9326 22.2665 56.5326 22.5332 55.9992C22.7999 54.7992 23.7332 53.7326 24.7999 53.3326C25.9999 52.7992 27.1999 52.9326 28.2665 53.5992C28.7999 53.8659 29.4665 53.8659 29.8665 53.4659L32.5332 50.7992C32.9332 50.3992 33.0665 49.7326 32.6665 49.1992C31.9999 48.1326 31.9999 46.7992 32.3999 45.7325C32.9332 44.5326 33.8665 43.7325 35.0665 43.4659C35.7332 43.3326 36.1332 42.7992 36.1332 42.1326V38.3992C36.1332 37.5992 35.7332 37.0659 35.0665 36.9326ZM24.5332 43.8659C24.5332 46.2659 22.9332 48.2659 20.6665 48.7992V51.5992H18.1332V49.0659H14.2665V30.9326H18.1332V28.3992H20.6665V31.1992C22.9332 31.7326 24.5332 33.7326 24.5332 36.1326C24.5332 37.7326 23.8665 39.0659 22.7999 39.9992C23.8665 40.9326 24.5332 42.3992 24.5332 43.8659Z" fill="#FC6C2D"/>
<path d="M43.8672 38.666H46.4005V41.3327H43.8672V38.666Z" fill="white"/>
<path d="M14.2676 5.19922V18.1326H32.2676V5.19922H14.2676ZM29.7342 15.4659H16.8009V7.73255H29.7342V15.4659Z" fill="white"/>
<path d="M29.7341 7.73242H16.8008V15.4658H29.7341V7.73242Z" fill="#FC6C2D"/>
<path d="M34.8008 5.19922H37.3341V7.73255H34.8008V5.19922Z" fill="white"/>
<path d="M40 5.19922H50.2667V7.73255H40V5.19922Z" fill="white"/>
<path d="M34.8008 10.2676H50.2674V12.8009H34.8008V10.2676Z" fill="white"/>
<path d="M34.8008 15.4668H50.2674V18.0001H34.8008V15.4668Z" fill="white"/>
<path d="M38.6674 28.3993C40.8008 28.3993 42.5341 26.666 42.5341 24.5327C42.5341 22.3993 40.8008 20.666 38.6674 20.666C36.5341 20.666 34.8008 22.3993 34.8008 24.5327C34.8008 26.666 36.5341 28.3993 38.6674 28.3993ZM38.6674 23.1993C39.3341 23.1993 40.0008 23.7327 40.0008 24.5327C40.0008 25.3327 39.4674 25.866 38.6674 25.866C37.8674 25.866 37.3341 25.3327 37.3341 24.5327C37.3341 23.7327 38.0008 23.1993 38.6674 23.1993Z" fill="white"/>
<path d="M45.1992 24.5327C45.1992 26.666 46.9325 28.3993 49.0659 28.3993C51.1992 28.3993 52.9326 26.666 52.9326 24.5327C52.9326 22.3993 51.1992 20.666 49.0659 20.666C46.9325 20.666 45.1992 22.3993 45.1992 24.5327ZM50.2659 24.5327C50.2659 25.1993 49.7326 25.866 48.9326 25.866C48.2659 25.866 47.5992 25.3327 47.5992 24.5327C47.5992 23.7327 48.1326 23.1993 48.9326 23.1993C49.7326 23.1993 50.2659 23.866 50.2659 24.5327Z" fill="white"/>
<path d="M32.6665 58.4004L19.3332 71.7337L16.3999 68.8004L14.5332 70.6671L19.3332 75.4671L34.3999 60.4004L32.6665 58.4004Z" fill="white"/>
<path d="M33.6008 71.7332L30.6674 68.7999L28.8008 70.6665L33.6008 75.4665L48.6674 60.3999L46.8008 58.5332L33.6008 71.7332Z" fill="white"/>
<path d="M42.9336 70.5337L47.7336 75.3337L62.8003 60.2671L60.9336 58.4004L47.6003 71.7337L44.6669 68.8004L42.9336 70.5337Z" fill="white"/>
</g>
<defs>
<clipPath id="clip0_1433_927">
<rect width="80" height="80" fill="white"/>
</clipPath>
</defs>
</svg>
