<svg width="80" height="80" viewBox="0 0 80 80" fill="none" xmlns="http://www.w3.org/2000/svg">
<g clip-path="url(#clip0_1433_996)">
<path d="M41.4664 7.86719C29.4664 8.00052 20.533 16.2672 18.933 26.9339C17.9997 33.2005 19.733 39.8672 24.3997 45.0672C28.133 49.3339 30.2664 54.4005 30.2664 59.7339H29.333C28.533 59.7339 28.133 60.2672 28.133 60.9339V71.8672C28.133 72.6672 28.6664 73.0672 29.333 73.0672H32.7997C33.4664 76.9339 36.7997 80.0005 40.7997 80.0005C44.7997 80.0005 48.133 77.0672 48.7997 73.0672H52.2664C53.0664 73.0672 53.4664 72.5339 53.4664 71.8672V60.9339C53.4664 60.1339 52.933 59.7339 52.2664 59.7339H51.4664C51.5997 57.8672 51.8664 56.1339 52.3997 54.4005C52.533 53.7339 52.133 53.0672 51.4664 52.9339C50.7997 52.8005 50.133 53.2005 49.9997 53.8672C49.4664 55.8672 49.0664 57.8672 48.933 59.8672H45.5997V52.6672C45.5997 51.8672 45.0664 51.4672 44.3997 51.4672C43.5997 51.4672 43.1997 52.0005 43.1997 52.6672V59.8672H38.6664V52.6672C38.6664 51.8672 38.133 51.4672 37.4664 51.4672C36.6664 51.4672 36.2664 52.0005 36.2664 52.6672V59.8672H32.933C32.933 54.0005 30.533 48.2672 26.3997 43.6005C22.2664 39.0672 20.533 32.9339 21.5997 26.8005C23.0664 17.8672 30.933 10.4005 41.0664 10.4005C51.9997 10.4005 60.933 19.2005 60.933 30.1339C60.933 35.0672 59.1997 39.7339 55.8664 43.3339C54.6664 44.6672 53.4664 46.2672 52.6664 48.0005C52.2664 48.6672 52.533 49.3339 53.1997 49.7339C53.8664 50.1339 54.533 49.8672 54.933 49.2005C55.8664 47.7339 56.7997 46.2672 57.8664 44.9339C61.4664 40.8005 63.5997 35.6005 63.5997 30.0005C63.733 17.6005 53.5997 7.86719 41.4664 7.86719ZM41.0664 77.4672C38.3997 77.4672 36.133 75.6005 35.5997 73.0672H46.533C45.9997 75.6005 43.733 77.4672 41.0664 77.4672ZM30.7997 62.2672H51.333V65.2005H30.7997V62.2672ZM30.7997 67.7339H51.333V70.6672H30.7997V67.7339Z" fill="white"/>
<path d="M46.5324 73.0664C45.9991 75.5997 43.7324 77.4664 41.1991 77.4664C38.5324 77.4664 36.2658 75.5997 35.7324 73.0664H46.5324Z" fill="#FC6C2D"/>
<path d="M51.3341 67.7324H30.8008V70.6658H51.3341V67.7324Z" fill="#FC6C2D"/>
<path d="M51.3341 62.2676H30.8008V65.2009H51.3341V62.2676Z" fill="#FC6C2D"/>
<path d="M41.0668 22.8008C36.8001 22.8008 33.4668 26.1341 33.4668 30.4008C33.4668 34.6674 36.8001 38.0008 41.0668 38.0008C45.3335 38.0008 48.6668 34.5341 48.6668 30.4008C48.6668 26.1341 45.2001 22.8008 41.0668 22.8008ZM41.0668 35.4674C38.1335 35.4674 36.0001 33.0674 36.0001 30.4008C36.0001 27.4674 38.2668 25.3341 41.0668 25.3341C43.8668 25.3341 46.1335 27.6008 46.1335 30.4008C46.2668 33.2008 44.0001 35.4674 41.0668 35.4674Z" fill="white"/>
<path d="M56.0006 33.3331C55.734 33.1997 53.6006 31.9997 53.734 32.1331L53.6006 31.9997C53.734 30.9331 53.734 29.4664 53.6006 28.6664C53.6006 28.5331 54.0006 28.3997 55.8673 27.3331C57.0673 26.5331 57.6006 24.9331 56.934 23.7331L54.8006 19.9997C54.0006 18.7997 52.4006 18.3997 51.2006 18.9331L48.934 20.1331H48.8006C46.934 18.6664 45.8673 18.6664 45.8673 18.3997V15.7331C45.8673 14.2664 44.8006 13.0664 43.2006 13.0664H38.934C37.4673 13.0664 36.2673 14.1331 36.2673 15.7331C36.2673 18.5331 36.4006 18.3997 36.134 18.5331C34.0006 19.4664 33.334 20.2664 33.2006 20.1331C31.4673 19.1997 30.534 18.1331 28.934 18.6664C28.2673 18.7997 27.734 19.3331 27.334 19.8664L25.0673 23.5997C24.2673 24.7997 24.8006 26.5331 26.134 27.1997L28.4006 28.3997C28.534 28.5331 28.534 28.6664 28.4006 28.5331C28.2673 29.9997 28.2673 30.7997 28.4006 31.9997L26.134 33.1997C24.934 33.9997 24.5339 35.5997 25.0673 36.7997L27.2006 40.3997C28.0006 41.5997 29.6006 42.1331 30.8006 41.4664C33.0673 40.2664 33.0673 40.1331 33.2006 40.2664C35.0673 41.5997 36.134 41.7331 36.134 41.9997V44.6664C36.2673 45.8664 37.334 47.1997 38.934 47.1997H43.2006C44.6673 47.1997 45.8673 46.1331 45.8673 44.5331C46.0006 41.8664 45.734 41.8664 46.0006 41.7331C48.4006 40.6664 48.8006 39.9997 48.934 40.1331L51.2006 41.3331C52.4006 42.1331 54.1339 41.5997 54.8006 40.2664L56.934 36.6664C57.734 35.7331 57.2006 34.1331 56.0006 33.3331ZM54.6673 35.8664C52.534 39.4664 52.6673 39.5997 52.4006 39.4664L50.1339 38.2664C49.2006 37.7331 48.0006 37.7331 47.2006 38.5331C46.534 39.0664 45.8673 39.4664 44.934 39.7331C43.8673 40.1331 43.2006 41.0664 43.2006 42.2664C43.2006 44.6664 43.334 45.0664 43.0673 45.0664C38.934 45.0664 38.6673 45.1997 38.6673 44.9331V42.2664C38.6673 41.1997 38.0006 40.2664 37.0673 39.7331C34.934 38.6664 34.8006 37.8664 33.334 37.8664C32.2673 37.8664 31.734 38.5331 29.8673 39.4664C29.8673 39.4664 29.734 39.4664 29.6006 39.4664C27.6006 35.9997 27.334 35.8664 27.6006 35.5997L29.8673 34.3997C30.8006 33.8664 31.2006 32.9331 31.0673 31.7331C30.9339 30.7997 30.9339 29.9997 31.0673 28.9331C31.2006 27.8664 30.6673 26.7997 29.8673 26.2664L27.6006 25.0664C27.334 24.9331 27.734 24.6664 29.734 21.3331C29.8673 21.0664 30.2673 21.4664 32.134 22.5331C33.0673 23.0664 34.134 23.0664 35.0673 22.2664C35.8673 21.7331 36.534 21.1997 37.334 21.0664C38.4006 20.6664 38.934 19.7331 38.934 18.5331C38.934 16.1331 38.8006 15.7331 39.0673 15.7331C43.2006 15.8664 43.4673 15.5997 43.4673 15.8664V18.5331C43.4673 19.5997 44.134 20.5331 45.0673 21.0664C45.8673 21.4664 46.534 21.8664 47.334 22.2664C48.2673 22.9331 49.334 23.0664 50.2673 22.5331L52.534 21.3331C52.8006 21.1997 52.6673 21.4664 54.8006 24.9331V25.0664L52.534 26.2664C51.6006 26.7997 51.0673 27.8664 51.334 28.9331C51.4673 29.7331 51.4673 30.6664 51.334 31.7331C51.2006 32.7997 51.734 33.7331 52.534 34.3997C54.534 35.5997 54.8006 35.5997 54.6673 35.8664Z" fill="white"/>
<path d="M52.4006 34.4005C51.4673 33.7339 51.0673 32.8005 51.2006 31.7339C51.334 30.6672 51.334 29.7339 51.2006 28.9339C50.934 27.8672 51.6006 26.8005 52.4006 26.2672L54.6673 25.0672V24.9339C52.534 21.4672 52.6673 21.2005 52.4006 21.3339L50.134 22.6672C49.2006 23.2005 48.134 23.0672 47.2006 22.4005C46.4006 21.8672 45.734 21.4672 44.934 21.2005C43.8673 20.6672 43.334 19.7339 43.334 18.6672V16.0005C43.334 15.7339 43.0673 16.0005 38.934 15.8672C38.6673 15.8672 38.8006 16.2672 38.8006 18.6672C38.8006 19.7339 38.134 20.8005 37.2006 21.2005C36.4006 21.4672 35.734 22.0005 34.934 22.4005C33.8673 23.2005 32.8006 23.2005 32.0006 22.6672C30.134 21.6005 29.734 21.2005 29.6006 21.4672C27.6006 24.8005 27.2006 25.0672 27.4673 25.2005L29.734 26.4005C30.6673 26.9339 31.0673 28.0005 30.934 29.0672C30.8006 30.1339 30.8006 30.9339 30.934 31.8672C31.0673 32.9339 30.534 34.0005 29.734 34.5339L27.4673 35.7339C27.2006 36.0005 27.4673 36.1339 29.4673 39.6005C29.6006 39.6005 29.734 39.6005 29.734 39.6005C31.6006 38.5339 32.134 38.0005 33.2006 38.0005C34.6673 38.0005 34.8006 38.9339 36.934 39.8672C38.0006 40.4005 38.534 41.2005 38.534 42.4005V45.0672C38.534 45.3339 38.8006 45.2005 42.934 45.2005C43.2006 45.2005 43.0673 44.8005 43.0673 42.4005C43.0673 41.3339 43.8673 40.2672 44.8006 39.8672C45.734 39.4672 46.4006 39.0672 47.0673 38.6672C48.0006 37.8672 49.2006 37.8672 50.0006 38.4005L52.2673 39.6005C52.534 39.7339 52.4006 39.6005 54.534 36.0005C54.8006 35.6005 54.534 35.6005 52.4006 34.4005ZM41.0673 38.0005C36.8006 38.0005 33.4673 34.6672 33.4673 30.4005C33.4673 26.1339 36.8006 22.8005 41.0673 22.8005C45.334 22.8005 48.6673 26.1339 48.6673 30.4005C48.6673 34.5339 45.2006 38.0005 41.0673 38.0005Z" fill="#FC6C2D"/>
<path d="M38.9336 1.2V4.93333C38.9336 5.73333 39.4669 6.13333 40.1336 6.13333C40.9336 6.13333 41.3336 5.6 41.3336 4.93333V1.2C41.3336 0.4 40.8003 0 40.1336 0C39.4669 0 38.9336 0.533333 38.9336 1.2Z" fill="white"/>
<path d="M25.0664 4.53364C24.3997 4.93364 24.2664 5.60031 24.5331 6.26697L26.3997 9.46698C26.7997 10.1336 27.4664 10.267 28.1331 10.0003C28.7997 9.46698 29.0664 8.80031 28.6664 8.13364L26.7997 5.06697C26.5331 4.40031 25.7331 4.13364 25.0664 4.53364Z" fill="white"/>
<path d="M17.9994 19.4658C18.6661 19.8658 19.3327 19.5991 19.7327 18.9325C20.1327 18.2658 19.8661 17.5991 19.1994 17.1991L15.9994 15.3325C15.3327 14.9325 14.6661 15.1991 14.2661 15.8658C13.8661 16.5325 14.1327 17.1991 14.7994 17.5991L17.9994 19.4658Z" fill="white"/>
<path d="M65.2 14.0004L62 15.8671C61.3333 16.2671 61.2 16.9338 61.4667 17.6004C61.8667 18.2671 62.5333 18.4004 63.2 18.1338L66.4 16.2671C67.0667 15.8671 67.2 15.2004 66.9333 14.5338C66.6667 13.8671 65.8667 13.6004 65.2 14.0004Z" fill="white"/>
<path d="M55.4676 3.60005C54.801 3.20005 54.1343 3.46671 53.7343 4.13338L51.8676 7.33338C51.4676 8.00005 51.7343 8.66672 52.401 9.06672C53.0676 9.46672 53.7343 9.20005 54.1343 8.53338L56.001 5.33338C56.401 4.80005 56.1343 4.00005 55.4676 3.60005Z" fill="white"/>
<path d="M67.0659 67.8659C67.5992 68.3992 68.2659 68.3992 68.7992 67.8659C69.3325 67.3326 69.3325 66.6659 68.7992 66.1325L64.1325 61.4659C63.5992 60.9325 62.9325 60.9325 62.3992 61.4659L57.7325 66.1325C57.1992 66.6659 57.1992 67.3326 57.7325 67.8659C58.2659 68.3992 58.9325 68.3992 59.4659 67.8659L61.9992 65.3326V77.4659H52.3992C51.5992 77.4659 51.1992 77.9992 51.1992 78.6659C51.1992 79.4659 51.7325 79.8659 52.3992 79.8659H78.6659C79.4659 79.8659 79.8659 79.3325 79.8659 78.6659C79.8659 77.8659 79.3325 77.4659 78.6659 77.4659H75.0659V57.4659L77.8659 60.2659C78.3992 60.7992 79.0659 60.7992 79.5992 60.2659C80.1325 59.7326 80.1325 59.0659 79.5992 58.5326L74.6659 53.5992C74.1325 53.0659 73.4659 53.0659 72.9326 53.5992L67.9992 58.5326C67.4659 59.0659 67.4659 59.7326 67.9992 60.2659C68.5325 60.7992 69.1992 60.7992 69.7325 60.2659L72.5326 57.4659V77.4659H64.6659V65.4659L67.0659 67.8659Z" fill="white"/>
<path d="M1.20052 77.4659C0.400521 77.4659 0.00052084 77.9992 0.00052084 78.6659C0.00052084 79.4659 0.533854 79.9992 1.20052 79.9992H29.4672C30.2672 79.9992 30.6672 79.4659 30.6672 78.7992C30.6672 77.9992 30.1339 77.5992 29.4672 77.5992H17.7339V65.5992L20.2672 68.1325C20.8005 68.6659 21.4672 68.6659 22.0005 68.1325C22.5339 67.5992 22.5339 66.9325 22.0005 66.3992L17.4672 61.7325C16.9339 61.1992 16.2672 61.1992 15.7339 61.7325L11.0672 66.3992C10.6672 66.7992 10.6672 67.4659 11.0672 67.9992C11.6005 68.5326 12.2672 68.5326 12.8005 67.9992L15.3339 65.4659V77.4659H7.33385V57.4659L10.1339 60.2659C10.6672 60.7992 11.3339 60.7992 11.8672 60.2659C12.4005 59.7326 12.4005 59.0659 11.8672 58.5326L6.93385 53.5992C6.40052 53.0659 5.73385 53.0659 5.20052 53.5992L0.267188 58.5326C-0.266146 59.0659 -0.266146 59.7326 0.267188 60.2659C0.800521 60.7992 1.46719 60.7992 2.00052 60.2659L4.80052 57.4659V77.4659H1.20052Z" fill="white"/>
</g>
<defs>
<clipPath id="clip0_1433_996">
<rect width="80" height="80" fill="white"/>
</clipPath>
</defs>
</svg>
