<svg width="80" height="80" viewBox="0 0 80 80" fill="none" xmlns="http://www.w3.org/2000/svg">
<path fill-rule="evenodd" clip-rule="evenodd" d="M48.2672 6C48.0005 5.33333 47.4672 4.93333 46.8005 4.93333L42.9339 4.8L41.4672 1.06667C41.2005 0.4 40.6672 0 40.0005 0C39.3339 0 38.8005 0.4 38.5339 1.06667L37.2005 4.8L33.3339 4.93333C32.6672 4.93333 32.1339 5.33333 31.8672 6C31.6005 6.66667 31.8672 7.33333 32.4005 7.73333L35.4672 10.1333L34.4005 13.8667C34.2672 14.5333 34.4005 15.2 35.0672 15.6C35.3339 15.8667 35.7339 15.8667 36.0005 15.8667C36.2672 15.8667 36.6672 15.7333 36.9339 15.6L40.2672 13.4667L43.6005 15.6C44.1339 16 44.9339 16 45.3339 15.6C45.8672 15.2 46.1339 14.5333 46.0005 13.8667L44.9339 10.1333L48.0005 7.73333C48.2672 7.33333 48.4005 6.66667 48.2672 6ZM42.6672 8.53333C42.1339 8.93333 42.0005 9.6 42.1339 10.1333L42.6672 12.2667L40.9339 11.0667C40.6672 10.9333 40.4005 10.8 40.0005 10.8C39.7339 10.8 39.3339 10.9333 39.2005 11.0667L37.3339 12.2667L37.8672 10.2667C38.0005 9.6 37.8672 9.06667 37.3339 8.66667L35.7339 7.33333L37.8672 7.2C38.5339 7.2 39.0672 6.8 39.2005 6.13333L40.0005 4.13333L40.8005 6.13333C41.0672 6.66667 41.6005 7.06667 42.2672 7.2L44.4005 7.33333L42.6672 8.53333ZM65.8672 9.33333C65.6005 8.66667 65.0672 8.26667 64.4005 8.26667L60.5339 8L59.2005 4.26667C58.9339 3.6 58.4005 3.2 57.7339 3.2C57.0672 3.2 56.5339 3.6 56.2672 4.26667L54.6672 8L50.8005 8.13333C50.1339 8.13333 49.6005 8.53333 49.3339 9.2C49.0672 9.86667 49.3339 10.5333 49.8672 10.9333L52.9339 13.3333L52.0005 17.3333C51.8672 18 52.0005 18.6667 52.6672 19.0667C52.9339 19.3333 53.2005 19.3333 53.6005 19.3333C53.8672 19.3333 54.2672 19.2 54.5339 19.0667L57.8672 16.9333L61.2005 19.0667C61.7339 19.4667 62.4005 19.4667 63.0672 19.0667C63.6005 18.6667 63.8672 18 63.6005 17.3333L62.5339 13.6L65.3339 11.0667C65.8672 10.6667 66.0005 10 65.8672 9.33333ZM60.2672 12C59.7339 12.4 59.6005 13.0667 59.7339 13.6L60.2672 15.6L58.5339 14.4C58.2672 14.2667 58.0005 14.1333 57.7339 14.1333C57.4672 14.1333 57.0672 14.2667 56.8005 14.4L55.0672 15.6L55.6005 13.6C55.7339 12.9333 55.6005 12.4 55.0672 12L53.3339 10.6667L55.4672 10.5333C56.1339 10.5333 56.6672 10.1333 56.9339 9.46667L57.7339 7.46667L58.5339 9.46667C58.8005 10 59.3339 10.4 59.8672 10.5333L61.8672 10.6667L60.2672 12ZM30.5339 9.33333C30.2672 8.66667 29.7339 8.26667 29.0672 8.26667L25.2005 8L23.8672 4.26667C23.6005 3.6 23.0672 3.2 22.4005 3.2C21.7339 3.2 21.2005 3.6 20.9339 4.26667L19.6005 8L15.7339 8.13333C15.0672 8.13333 14.5339 8.53333 14.2672 9.2C14.0005 9.86667 14.2672 10.5333 14.8005 10.9333L17.8672 13.3333L16.6672 17.3333C16.5339 18 16.6672 18.6667 17.2005 19.0667C17.4672 19.3333 17.8672 19.3333 18.1339 19.3333C18.4005 19.3333 18.8005 19.2 19.0672 19.0667L22.4005 16.9333L25.7339 19.0667C26.2672 19.4667 26.9339 19.4667 27.6005 19.0667C28.0005 18.6667 28.2672 18 28.0005 17.3333L26.9339 13.6L30.0005 11.2C30.5339 10.6667 30.8005 10 30.5339 9.33333ZM24.9339 12C24.4005 12.4 24.2672 13.0667 24.4005 13.6L24.9339 15.6L23.2005 14.4C22.9339 14.2667 22.6672 14.1333 22.4005 14.1333C22.1339 14.1333 21.7339 14.2667 21.4672 14.4L19.7339 15.6L20.2672 13.6C20.4005 12.9333 20.2672 12.4 19.7339 12L18.1339 10.6667L20.2672 10.5333C20.9339 10.5333 21.4672 10.1333 21.7339 9.46667L22.5339 7.46667L23.3339 9.46667C23.6005 10 24.1339 10.4 24.6672 10.5333L26.6672 10.6667L24.9339 12ZM65.7339 36.2667C64.9339 33.6 62.9339 31.4667 60.5339 30.4C61.4672 29.4667 62.0005 28.1333 62.0005 26.6667C62.0005 23.7333 59.6005 21.2 56.5339 21.2C53.6005 21.2 51.0672 23.6 51.0672 26.6667C51.0672 28.1333 51.6005 29.4667 52.5339 30.4C51.3339 30.9333 50.2672 31.7333 49.4672 32.6667C48.1339 30.9333 46.2672 29.6 44.2672 28.8C45.7339 27.6 46.6672 25.7333 46.6672 23.6C46.6672 19.8667 43.6005 16.8 39.8672 16.8C36.1339 16.8 33.0672 19.8667 33.0672 23.6C33.0672 25.6 34.0005 27.4667 35.4672 28.8C33.4672 29.6 31.6005 30.9333 30.2672 32.6667C29.3339 31.7333 28.2672 30.9333 27.2005 30.4C28.1339 29.4667 28.6672 28.1333 28.6672 26.6667C28.6672 23.7333 26.2672 21.2 23.2005 21.2C20.2672 21.2 17.7339 23.6 17.7339 26.6667C17.7339 28.1333 18.2672 29.4667 19.2005 30.4C16.8005 31.4667 14.8005 33.6 14.0005 36.2667C13.7339 37.2 13.8672 38.2667 14.5339 39.0667C15.0672 39.8667 16.0005 40.4 17.0672 40.4H27.6005V41.3333C27.6005 43.6 29.4672 45.6 31.7339 45.6H47.7339C50.0005 45.6 51.8672 43.7333 51.8672 41.3333V40.4H62.4005C63.4672 40.4 64.4005 39.8667 64.9339 39.0667C65.8672 38.2667 66.0005 37.2 65.7339 36.2667ZM23.3339 23.7333C24.9339 23.7333 26.2672 25.0667 26.2672 26.6667C26.2672 28.2667 24.9339 29.6 23.3339 29.6C21.7339 29.6 20.4005 28.2667 20.4005 26.6667C20.4005 25.0667 21.7339 23.7333 23.3339 23.7333ZM28.0005 37.8667H17.3339C17.0672 37.8667 16.9339 37.7333 16.8005 37.6C16.6672 37.4667 16.6672 37.3333 16.6672 37.0667C17.6005 34.1333 20.2672 32.1333 23.3339 32.1333C25.6005 32.1333 27.6005 33.2 28.9339 34.9333C28.5339 35.8667 28.1339 36.8 28.0005 37.8667ZM40.0005 19.3333C42.4005 19.3333 44.2672 21.3333 44.2672 23.6C44.2672 26 42.2672 27.8667 40.0005 27.8667C37.6005 27.8667 35.7339 25.8667 35.7339 23.6C35.6005 21.3333 37.6005 19.3333 40.0005 19.3333ZM49.7339 41.3333C49.7339 42.2667 48.9339 43.0667 48.0005 43.0667H32.0005C31.0672 43.0667 30.2672 42.2667 30.2672 41.3333V39.2C30.8005 34.2667 34.9339 30.5333 40.0005 30.5333C45.0672 30.5333 49.2005 34.2667 49.7339 39.2V41.3333ZM56.6672 23.7333C58.2672 23.7333 59.6005 25.0667 59.6005 26.6667C59.6005 28.2667 58.2672 29.6 56.6672 29.6C55.0672 29.6 53.7339 28.2667 53.7339 26.6667C53.7339 25.0667 55.0672 23.7333 56.6672 23.7333ZM63.3339 37.6C63.2005 37.7333 63.0672 37.8667 62.8005 37.8667H52.1339C51.8672 36.8 51.6005 35.8667 51.2005 34.9333C52.5339 33.2 54.5339 32.1333 56.8005 32.1333C59.8672 32.1333 62.5339 34.1333 63.4672 37.0667C63.4672 37.3333 63.3339 37.4667 63.3339 37.6ZM8.93387 57.0667C8.13387 57.2 7.73387 57.8667 7.73387 58.6667C7.8672 59.4667 8.53387 59.8667 9.33387 59.8667C10.1339 59.7333 10.6672 59.0667 10.5339 58.2667C10.2672 57.4667 9.60054 56.9333 8.93387 57.0667ZM8.93387 57.0667C8.13387 57.2 7.73387 57.8667 7.73387 58.6667C7.8672 59.4667 8.53387 59.8667 9.33387 59.8667C10.1339 59.7333 10.6672 59.0667 10.5339 58.2667C10.2672 57.4667 9.60054 56.9333 8.93387 57.0667ZM8.93387 57.0667C8.13387 57.2 7.73387 57.8667 7.73387 58.6667C7.8672 59.4667 8.53387 59.8667 9.33387 59.8667C10.1339 59.7333 10.6672 59.0667 10.5339 58.2667C10.2672 57.4667 9.60054 56.9333 8.93387 57.0667ZM8.93387 57.0667C8.13387 57.2 7.73387 57.8667 7.73387 58.6667C7.8672 59.4667 8.53387 59.8667 9.33387 59.8667C10.1339 59.7333 10.6672 59.0667 10.5339 58.2667C10.2672 57.4667 9.60054 56.9333 8.93387 57.0667ZM8.93387 57.0667C8.13387 57.2 7.73387 57.8667 7.73387 58.6667C7.8672 59.4667 8.53387 59.8667 9.33387 59.8667C10.1339 59.7333 10.6672 59.0667 10.5339 58.2667C10.2672 57.4667 9.60054 56.9333 8.93387 57.0667ZM8.93387 57.0667C8.13387 57.2 7.73387 57.8667 7.73387 58.6667C7.8672 59.4667 8.53387 59.8667 9.33387 59.8667C10.1339 59.7333 10.6672 59.0667 10.5339 58.2667C10.2672 57.4667 9.60054 56.9333 8.93387 57.0667ZM76.6672 50.9333C76.0005 49.7333 73.0672 46.1333 65.3339 50.6667L51.7339 58.5333C51.0672 58.9333 50.4005 59.2 49.7339 59.3333C50.0005 58.9333 50.1339 58.4 50.2672 58C50.9339 55.3333 49.4672 52.6667 46.8005 51.7333H46.6672C42.8005 51.0667 38.9339 49.6 35.8672 48.5333C34.8005 48.1333 33.7339 47.7333 32.9339 47.4667C29.4672 46.4 26.2672 47.7333 23.6005 49.2L13.4672 55.0667L12.4005 53.2C12.0005 52.4 11.3339 51.8667 10.4005 51.7333C9.60054 51.4667 8.6672 51.6 8.00054 52L4.13387 54.1333C2.53387 55.0667 2.00054 56.9333 2.93387 58.5333L14.1339 78.4C14.6672 79.4667 15.8672 80 16.9339 80C17.4672 80 18.0005 79.8667 18.5339 79.6L22.4005 77.4667C23.2005 77.0667 23.7339 76.4 23.8672 75.4667C24.1339 74.6667 24.0005 73.7333 23.6005 73.0667L22.6672 71.2L24.9339 69.8667L42.2672 74.5333C43.2005 74.8 44.2672 74.9333 45.2005 74.9333C47.0672 74.9333 48.9339 74.4 50.5339 73.3333L75.2005 58.1333C77.4672 56.9333 78.1339 53.3333 76.6672 50.9333ZM21.4672 74.8C21.4672 74.9333 21.3339 75.2 21.0672 75.2L17.3339 77.4667C17.2005 77.6 16.9339 77.6 16.8005 77.4667C16.6672 77.4667 16.4005 77.3333 16.4005 77.0667L5.0672 57.3333C4.93387 57.2 4.93387 56.9333 5.0672 56.8C5.0672 56.6667 5.20054 56.4 5.4672 56.4L9.33387 54.2667C9.4672 54.2667 9.60054 54.1333 9.73387 54.1333C9.8672 54.1333 9.8672 54.1333 10.0005 54.1333C10.1339 54.1333 10.4005 54.2667 10.4005 54.5333L20.0005 71.4667L21.6005 74.2667C21.4672 74.4 21.6005 74.6667 21.4672 74.8ZM73.8672 56.1333L49.2005 71.3333C47.2005 72.5333 45.0672 72.8 42.8005 72.2667L24.9339 67.4667C24.6672 67.3333 24.2672 67.4667 24.0005 67.6L21.3339 69.2L14.6672 57.3333L24.8005 51.4667C27.0672 50.1333 29.4672 49.0667 32.0005 49.8667C32.8005 50.1333 33.7339 50.5333 34.9339 50.9333C38.1339 52.1333 42.0005 53.4667 46.1339 54.2667C47.4672 54.8 48.2672 56.1333 48.0005 57.4667C47.6005 59.2 46.0005 59.4667 44.9339 59.3333C42.9339 58.9333 41.0672 58.4 39.0672 57.7333C38.1339 57.4667 37.0672 57.2 36.1339 56.9333C35.4672 56.8 34.8005 57.2 34.5339 57.8667C34.4005 58.5333 34.8005 59.2 35.4672 59.3333C36.4005 59.6 37.4672 59.8667 38.4005 60.1333C40.4005 60.8 42.4005 61.3333 44.5339 61.7333L46.2672 62C48.8005 62.4 51.0672 62 53.2005 60.8L66.8005 52.9333C70.6672 50.6667 73.7339 50.4 74.8005 52.2667C75.3339 53.4667 74.9339 55.4667 73.8672 56.1333ZM8.93387 57.0667C8.13387 57.2 7.73387 57.8667 7.73387 58.6667C7.8672 59.4667 8.53387 59.8667 9.33387 59.8667C10.1339 59.7333 10.6672 59.0667 10.5339 58.2667C10.2672 57.4667 9.60054 56.9333 8.93387 57.0667ZM8.93387 57.0667C8.13387 57.2 7.73387 57.8667 7.73387 58.6667C7.8672 59.4667 8.53387 59.8667 9.33387 59.8667C10.1339 59.7333 10.6672 59.0667 10.5339 58.2667C10.2672 57.4667 9.60054 56.9333 8.93387 57.0667ZM8.93387 57.0667C8.13387 57.2 7.73387 57.8667 7.73387 58.6667C7.8672 59.4667 8.53387 59.8667 9.33387 59.8667C10.1339 59.7333 10.6672 59.0667 10.5339 58.2667C10.2672 57.4667 9.60054 56.9333 8.93387 57.0667ZM8.93387 57.0667C8.13387 57.2 7.73387 57.8667 7.73387 58.6667C7.8672 59.4667 8.53387 59.8667 9.33387 59.8667C10.1339 59.7333 10.6672 59.0667 10.5339 58.2667C10.2672 57.4667 9.60054 56.9333 8.93387 57.0667ZM8.93387 57.0667C8.13387 57.2 7.73387 57.8667 7.73387 58.6667C7.8672 59.4667 8.53387 59.8667 9.33387 59.8667C10.1339 59.7333 10.6672 59.0667 10.5339 58.2667C10.2672 57.4667 9.60054 56.9333 8.93387 57.0667ZM8.93387 57.0667C8.13387 57.2 7.73387 57.8667 7.73387 58.6667C7.8672 59.4667 8.53387 59.8667 9.33387 59.8667C10.1339 59.7333 10.6672 59.0667 10.5339 58.2667C10.2672 57.4667 9.60054 56.9333 8.93387 57.0667ZM8.93387 57.0667C8.13387 57.2 7.73387 57.8667 7.73387 58.6667C7.8672 59.4667 8.53387 59.8667 9.33387 59.8667C10.1339 59.7333 10.6672 59.0667 10.5339 58.2667C10.2672 57.4667 9.60054 56.9333 8.93387 57.0667Z" fill="white"/>
<path fill-rule="evenodd" clip-rule="evenodd" d="M63.3326 37.5995C63.1992 37.7328 63.0659 37.8661 62.7992 37.8661H52.1325C51.8659 36.7995 51.5992 35.8661 51.1992 34.9328C52.5326 33.1995 54.5325 32.1328 56.7992 32.1328C59.8659 32.1328 62.5325 34.1328 63.4659 37.0661C63.4659 37.3328 63.3326 37.4661 63.3326 37.5995Z" fill="#FC6C2D"/>
<path fill-rule="evenodd" clip-rule="evenodd" d="M59.5991 26.6658C59.5991 28.2658 58.2658 29.5991 56.6658 29.5991C55.0658 29.5991 53.7324 28.2658 53.7324 26.6658C53.7324 25.0658 55.0658 23.7324 56.6658 23.7324C58.2658 23.7324 59.5991 25.0658 59.5991 26.6658Z" fill="#FC6C2D"/>
<path fill-rule="evenodd" clip-rule="evenodd" d="M44.2658 23.7339C44.2658 26.1339 42.2658 28.0006 39.9991 28.0006C37.5991 28.0006 35.7324 26.0006 35.7324 23.7339C35.7324 21.3339 37.7324 19.4672 39.9991 19.4672C42.3991 19.3339 44.2658 21.3339 44.2658 23.7339Z" fill="#FC6C2D"/>
<path fill-rule="evenodd" clip-rule="evenodd" d="M49.7342 39.1999V41.3332C49.7342 42.2665 48.9342 43.0665 48.0009 43.0665H32.0009C31.0676 43.0665 30.2676 42.2665 30.2676 41.3332V39.1999C30.8009 34.2665 34.9342 30.5332 40.0009 30.5332C44.9342 30.5332 49.2009 34.2665 49.7342 39.1999Z" fill="#FC6C2D"/>
<path fill-rule="evenodd" clip-rule="evenodd" d="M28.9327 34.9328C28.5327 35.8661 28.1327 36.7995 27.9993 37.8661H17.3327C17.066 37.8661 16.9327 37.7328 16.7993 37.5995C16.666 37.4661 16.666 37.3328 16.666 37.0661C17.5993 34.1328 20.266 32.1328 23.3327 32.1328C25.5993 32.1328 27.5993 33.0661 28.9327 34.9328Z" fill="#FC6C2D"/>
<path fill-rule="evenodd" clip-rule="evenodd" d="M26.2671 26.6658C26.2671 28.2658 24.9337 29.5991 23.3337 29.5991C21.7337 29.5991 20.4004 28.2658 20.4004 26.6658C20.4004 25.0658 21.7337 23.7324 23.3337 23.7324C24.9337 23.7324 26.2671 25.0658 26.2671 26.6658Z" fill="#FC6C2D"/>
</svg>
