<svg width="71" height="70" viewBox="0 0 71 70" fill="none" xmlns="http://www.w3.org/2000/svg">
<g clip-path="url(#clip0_1432_566)">
<path d="M69.3333 63H68.1667V21C68.1667 20.4167 67.5833 19.8333 67 19.8333H48.6833C49.6167 17.15 50.2 14.4667 50.55 11.6667H56.5C57.0833 11.6667 57.6667 11.0833 57.6667 10.5C57.6667 10.15 57.55 9.91667 57.3167 9.68333L47.9833 0.35C47.5167 -0.116667 46.8167 -0.116667 46.35 0.35L37.0167 9.68333C36.55 10.15 36.55 10.85 37.0167 11.3167C37.25 11.55 37.4833 11.6667 37.8333 11.6667H41.5667C40.1667 14.7 38.1833 17.5 35.7333 19.8333H4C3.41667 19.8333 2.83333 20.4167 2.83333 21V63H1.66667C1.08333 63 0.5 63.5833 0.5 64.1667V66.5C0.5 68.4833 2.01667 70 4 70H67C68.9833 70 70.5 68.4833 70.5 66.5V64.1667C70.5 63.5833 69.9167 63 69.3333 63ZM44.3667 10.85C44.6 10.2667 44.25 9.56667 43.6667 9.33333C43.55 9.33333 43.4333 9.33333 43.2 9.33333H40.6333L47.1667 2.8L53.7 9.33333H49.3833C48.8 9.33333 48.2167 9.8 48.2167 10.3833C47.05 26.25 35.0333 39.2 19.2833 41.3L15.6667 41.8833V29.05C28.2667 30.2167 39.9333 22.75 44.3667 10.85ZM5.16667 22.1667H32.8167C27.5667 25.9 21.2667 27.4167 14.85 26.6H14.6167C14.0333 26.4833 13.3333 26.95 13.3333 27.65V27.7667V43.1667C13.3333 43.75 13.9167 44.3333 14.5 44.3333H14.6167L19.5167 43.6333C32.1167 42 42.85 33.8333 47.75 22.1667H65.8333V63H63.5V25.6667C63.5 25.0833 62.9167 24.5 62.3333 24.5H49.5V26.8333H61.1667V63H9.83333V26.8333H12.1667V24.5H8.66667C8.08333 24.5 7.5 25.0833 7.5 25.6667V63H5.16667V22.1667ZM68.1667 66.5C68.1667 67.0833 67.5833 67.6667 67 67.6667H4C3.41667 67.6667 2.83333 67.0833 2.83333 66.5V65.3333H68.1667V66.5Z" fill="white"/>
<path d="M47.166 2.7998L40.6327 9.33314H43.1993C43.316 9.33314 43.4327 9.33314 43.5494 9.4498C44.1327 9.68314 44.4827 10.3831 44.2494 10.9665C39.9327 22.7498 28.266 30.2165 15.666 29.0498V41.8831L19.2827 41.4165C35.0327 39.1998 47.166 26.2498 48.216 10.3831C48.216 9.7998 48.7994 9.33314 49.3827 9.33314H53.6993L47.166 2.7998ZM16.8327 30.3331H19.166V32.6665H16.8327V30.3331ZM17.9993 39.6665C17.416 39.6665 16.8327 39.0831 16.8327 38.4998V34.9998H19.166V37.3331C22.316 36.9831 25.2327 35.8165 27.7993 34.0665L29.0827 36.0498C25.816 38.2665 21.966 39.4331 17.9993 39.6665Z" fill="#FC6C2D"/>
<path d="M54.166 59.5V32.6667C54.166 32.0833 53.5827 31.5 52.9994 31.5H45.9994C45.416 31.5 44.8327 32.0833 44.8327 32.6667V59.5H40.166V42C40.166 41.4167 39.5827 40.8333 38.9994 40.8333H31.9993C31.416 40.8333 30.8327 41.4167 30.8327 42V59.5H26.166V47.8333C26.166 47.25 25.5827 46.6667 24.9993 46.6667H17.9993C17.416 46.6667 16.8327 47.25 16.8327 47.8333V59.5H12.166V61.8333H58.8327V59.5H54.166ZM23.8327 59.5H19.166V49H23.8327V59.5ZM37.8327 59.5H33.166V43.1667H37.8327V59.5ZM51.8327 59.5H47.166V33.8333H51.8327V59.5Z" fill="white"/>
<path d="M51.8327 33.833H47.166V59.4997H51.8327V33.833Z" fill="#FC6C2D"/>
<path d="M37.8327 43.167H33.166V59.5003H37.8327V43.167Z" fill="#FC6C2D"/>
<path d="M23.8327 49H19.166V59.5H23.8327V49Z" fill="#FC6C2D"/>
<path d="M29.666 0H31.9993V2.33333H29.666V0Z" fill="white"/>
<path d="M32 2.33301H34.3333V4.66634H32V2.33301Z" fill="white"/>
<path d="M29.666 4.66699H31.9993V7.00033H29.666V4.66699Z" fill="white"/>
<path d="M27.334 2.33301H29.6673V4.66634H27.334V2.33301Z" fill="white"/>
<path d="M25 9.33301H27.3333V11.6663H25V9.33301Z" fill="white"/>
<path d="M68.166 11.667H70.4993V14.0003H68.166V11.667Z" fill="white"/>
<path d="M65.834 14H68.1673V16.3333H65.834V14Z" fill="white"/>
<path d="M63.5 11.667H65.8333V14.0003H63.5V11.667Z" fill="white"/>
<path d="M65.834 9.33301H68.1673V11.6663H65.834V9.33301Z" fill="white"/>
<path d="M61.166 4.66699H63.4993V7.00033H61.166V4.66699Z" fill="white"/>
<path d="M29.2007 35.9331C25.934 38.1497 22.084 39.4331 18.0007 39.6664C17.4173 39.6664 16.834 39.0831 16.834 38.4997V34.9997H19.1673V37.3331C22.3173 36.9831 25.234 35.8164 27.8007 34.0664L29.2007 35.9331Z" fill="white"/>
<path d="M19.1673 30.333H16.834V32.6663H19.1673V30.333Z" fill="white"/>
</g>
<defs>
<clipPath id="clip0_1432_566">
<rect width="70" height="70" fill="white" transform="translate(0.5)"/>
</clipPath>
</defs>
</svg>
