<svg width="71" height="70" viewBox="0 0 71 70" fill="none" xmlns="http://www.w3.org/2000/svg">
<g clip-path="url(#clip0_1432_628)">
<path d="M63.7333 37.9167V15.75C67.5833 15.1667 70.5 11.9 70.5 7.93333C70.5 3.5 67 0 62.5667 0C58.25 0 54.6333 3.5 54.6333 7.93333H0.5V53.0833H34.45C35.0333 62.5333 42.85 70 52.4167 70C62.3333 70 70.5 61.8333 70.5 51.9167C70.5 46.2 67.8167 41.1833 63.7333 37.9167ZM62.5667 2.21667C65.7167 2.21667 68.1667 4.78333 68.1667 7.81667C68.1667 10.9667 65.6 13.4167 62.5667 13.4167C59.4167 13.4167 56.9667 10.85 56.9667 7.81667C56.9667 4.78333 59.5333 2.21667 62.5667 2.21667ZM34.45 50.75H2.71667V10.15H54.9833C55.2167 11.0833 55.6833 11.9 56.2667 12.6L49.3833 19.4833C48.9167 19.25 48.45 19.1333 47.9833 19.1333C47.4 19.1333 46.9333 19.25 46.5833 19.4833L44.25 17.15C44.4833 16.6833 44.6 16.2167 44.6 15.75C44.6 13.8833 43.0833 12.3667 41.2167 12.3667C39.35 12.3667 37.8333 13.8833 37.8333 15.75C37.8333 16.3333 37.95 16.8 38.1833 17.15L32.4667 22.8667C32 22.6333 31.5333 22.5167 31.0667 22.5167C29.2 22.5167 27.6833 24.0333 27.6833 25.9C27.6833 27.7667 29.2 29.2833 31.0667 29.2833C32.9333 29.2833 34.45 27.7667 34.45 25.9C34.45 25.3167 34.3333 24.85 34.1 24.5L39.8167 18.7833C40.2833 19.0167 40.75 19.1333 41.2167 19.1333C41.6833 19.1333 42.2667 19.0167 42.6167 18.7833L44.95 21.1167C44.7167 21.5833 44.6 22.05 44.6 22.5167C44.6 24.3833 46.1167 25.9 47.9833 25.9C49.85 25.9 51.3667 24.3833 51.3667 22.5167C51.3667 22.05 51.25 21.4667 51.0167 21.1167L57.9 14.2333C58.95 15.05 60.1167 15.5167 61.5167 15.75V36.4C58.8333 34.7667 55.6833 33.8333 52.4167 33.8333C47.05 33.8333 42.15 36.1667 38.8833 40.0167V35H32.1167V48.5333H34.6833C34.5667 49.2333 34.45 50.05 34.45 50.75ZM49.0333 22.5167C49.0333 23.1 48.5667 23.6833 47.8667 23.6833C47.2833 23.6833 46.7 23.2167 46.7 22.5167C46.7 21.9333 47.1667 21.35 47.8667 21.35C48.5667 21.4667 49.0333 21.9333 49.0333 22.5167ZM42.2667 15.75C42.2667 16.3333 41.8 16.9167 41.1 16.9167C40.5167 16.9167 39.9333 16.45 39.9333 15.75C39.9333 15.1667 40.4 14.5833 41.1 14.5833C41.8 14.7 42.2667 15.1667 42.2667 15.75ZM32.1167 26.0167C32.1167 26.6 31.65 27.1833 30.95 27.1833C30.3667 27.1833 29.7833 26.7167 29.7833 26.0167C29.7833 25.4333 30.25 24.85 30.95 24.85C31.65 24.85 32.1167 25.3167 32.1167 26.0167ZM61.5167 51.9167C61.5167 56.9333 57.4333 60.9 52.5333 60.9C47.5167 60.9 43.4333 56.8167 43.4333 51.9167C43.4333 46.9 47.5167 42.8167 52.5333 42.8167C57.4333 42.9333 61.5167 46.9 61.5167 51.9167ZM34.3333 46.3167V37.3333H36.6667V43.1667C36.0833 44.1 35.7333 45.15 35.3833 46.2H34.3333V46.3167ZM36.6667 51.9167C36.6667 43.5167 43.2 36.75 51.3667 36.1667V40.7167C45.65 41.3 41.2167 46.0833 41.2167 51.9167C41.2167 53.55 41.5667 55.1833 42.2667 56.5833L38.3 58.8C37.25 56.7 36.6667 54.3667 36.6667 51.9167ZM52.4167 67.7833C46.9333 67.7833 42.15 64.9833 39.35 60.7833L43.3167 58.45C45.4167 61.25 48.6833 63.1167 52.5333 63.1167C56.2667 63.1167 59.65 61.25 61.6333 58.45L65.6 60.7833C62.6833 64.9833 57.9 67.7833 52.4167 67.7833ZM66.65 58.8L62.6833 56.5833C63.2667 55.1833 63.7333 53.55 63.7333 51.9167C63.7333 46.0833 59.3 41.1833 53.5833 40.7167V36.1667C61.75 36.75 68.2833 43.5167 68.2833 51.9167C68.2833 54.3667 67.7 56.7 66.65 58.8Z" fill="white"/>
<path d="M68.284 7.93293C68.284 11.0829 65.7173 13.5329 62.684 13.5329C59.534 13.5329 57.084 10.9663 57.084 7.93293C57.084 4.78293 59.6507 2.33293 62.684 2.33293C65.7173 2.21626 68.284 4.78293 68.284 7.93293Z" fill="#FC6C2D"/>
<path d="M65.4829 60.7835C62.6829 64.9835 57.7829 67.7835 52.4163 67.7835C46.9329 67.7835 42.1496 64.9835 39.3496 60.7835L43.3163 58.4502C45.4163 61.2502 48.6829 63.1169 52.5329 63.1169C56.2663 63.1169 59.6496 61.2502 61.6329 58.4502L65.4829 60.7835Z" fill="#FC6C2D"/>
<path d="M51.2508 36.167V40.717C45.5341 41.3003 41.1008 46.0837 41.1008 51.917C41.1008 53.5503 41.4508 55.1837 42.1508 56.5837L38.1841 58.8003C37.1341 56.7003 36.5508 54.367 36.5508 51.917C36.6674 43.6337 43.0841 36.7503 51.2508 36.167Z" fill="#FC6C2D"/>
<path d="M68.284 51.917C68.284 54.367 67.7007 56.7003 66.6507 58.8003L62.684 56.5837C63.2673 55.1837 63.734 53.5503 63.734 51.917C63.734 46.0837 59.3007 41.1837 53.584 40.717V36.167C61.7507 36.7503 68.284 43.6337 68.284 51.917Z" fill="#FC6C2D"/>
<path d="M52.4171 45.1504C48.6837 45.1504 45.6504 48.1837 45.6504 51.9171C45.6504 55.6504 48.6837 58.6837 52.4171 58.6837C56.1504 58.6837 59.1837 55.6504 59.1837 51.9171C59.1837 48.1837 56.1504 45.1504 52.4171 45.1504ZM52.4171 56.4671C49.9671 56.4671 47.8671 54.4837 47.8671 51.9171C47.8671 49.4671 49.8504 47.3671 52.4171 47.3671C54.8671 47.3671 56.9671 49.3504 56.9671 51.9171C56.9671 54.4837 54.9837 56.4671 52.4171 56.4671Z" fill="white"/>
<path d="M52.4172 56.4662C54.9301 56.4662 56.9672 54.4291 56.9672 51.9162C56.9672 49.4033 54.9301 47.3662 52.4172 47.3662C49.9043 47.3662 47.8672 49.4033 47.8672 51.9162C47.8672 54.4291 49.9043 56.4662 52.4172 56.4662Z" fill="white"/>
<path d="M5.05078 12.3662H7.26745V14.5829H5.05078V12.3662Z" fill="white"/>
<path d="M9.48242 12.3662H25.2324V14.5829H9.48242V12.3662Z" fill="white"/>
<path d="M5.05078 16.917H7.26745V19.1337H5.05078V16.917Z" fill="white"/>
<path d="M9.48242 16.917H25.2324V19.1337H9.48242V16.917Z" fill="white"/>
<path d="M5.05078 21.4668H7.26745V23.6835H5.05078V21.4668Z" fill="white"/>
<path d="M9.48242 21.4668H25.2324V23.6835H9.48242V21.4668Z" fill="white"/>
<path d="M5.05078 26.0166H7.26745V28.2333H5.05078V26.0166Z" fill="white"/>
<path d="M9.48242 26.0166H25.2324V28.2333H9.48242V26.0166Z" fill="white"/>
<path d="M5.05078 48.5335H11.8174V37.2168H5.05078V48.5335ZM7.26745 39.5501H9.48411V46.3168H7.26745V39.5501Z" fill="white"/>
<path d="M14.0332 48.5331H20.7999V39.5498H14.0332V48.5331ZM16.2499 41.7665H18.4665V46.3165H16.2499V41.7665Z" fill="white"/>
<path d="M23.1328 48.5335H29.8995V30.4502H23.1328V48.5335ZM25.3495 32.7835H27.5661V46.3169H25.3495V32.7835Z" fill="white"/>
</g>
<defs>
<clipPath id="clip0_1432_628">
<rect width="70" height="70" fill="white" transform="translate(0.5)"/>
</clipPath>
</defs>
</svg>
