<svg width="71" height="70" viewBox="0 0 71 70" fill="none" xmlns="http://www.w3.org/2000/svg">
<g clip-path="url(#clip0_1432_611)">
<path d="M13.2173 26.3665H19.1673C20.1007 26.3665 20.8007 25.6665 20.8007 24.7332V18.6665C20.8007 17.7332 20.1007 17.0332 19.1673 17.0332H13.2173C12.284 17.0332 11.584 17.7332 11.584 18.6665V24.6165C11.584 25.5499 12.284 26.3665 13.2173 26.3665ZM13.5673 19.0165H18.8173V24.2665H13.5673V19.0165Z" fill="white"/>
<path d="M13.2173 40.2499H19.1673C20.1007 40.2499 20.8007 39.5499 20.8007 38.6165V32.6665C20.8007 31.7332 20.1007 31.0332 19.1673 31.0332H13.2173C12.284 31.0332 11.584 31.7332 11.584 32.6665V38.4999C11.584 39.4332 12.284 40.2499 13.2173 40.2499ZM13.5673 32.8999H18.8173V38.1499H13.5673V32.8999Z" fill="white"/>
<path d="M13.2173 54.0165H19.1673C20.1007 54.0165 20.8007 53.3165 20.8007 52.3831V46.4331C20.8007 45.4998 20.1007 44.7998 19.1673 44.7998H13.2173C12.284 44.7998 11.584 45.4998 11.584 46.4331V52.3831C11.584 53.3165 12.284 54.0165 13.2173 54.0165ZM13.5673 46.7831H18.8173V52.0331H13.5673V46.7831Z" fill="white"/>
<path d="M24.3 24.85H33.4C33.9833 24.85 34.45 24.3833 34.45 23.8C34.45 23.2167 33.9833 22.75 33.4 22.75H24.3C23.7167 22.75 23.25 23.2167 23.25 23.8C23.25 24.3833 23.7167 24.85 24.3 24.85Z" fill="white"/>
<path d="M24.3 20.5336H36.55C37.1333 20.5336 37.6 20.0669 37.6 19.4836C37.6 18.9003 37.1333 18.4336 36.55 18.4336H24.3C23.7167 18.4336 23.25 18.9003 23.25 19.4836C23.25 20.0669 23.7167 20.5336 24.3 20.5336Z" fill="white"/>
<path d="M37.95 47.8336L34.1 52.6169C33.8667 52.8503 33.6333 52.9669 33.4 52.9669H33.2833C33.05 52.9669 32.8167 52.8503 32.5833 52.7336L30.4833 50.9836C30.0167 50.6336 30.0167 49.9336 30.3667 49.5836C30.7167 49.1169 31.4167 49.1169 31.7667 49.4669L33.05 50.6336L36.2 46.6669C36.55 46.2003 37.25 46.2003 37.6 46.5503C38.3 46.7836 38.3 47.4836 37.95 47.8336Z" fill="white"/>
<path d="M46.116 50.05C46.116 50.6333 45.6494 51.1 45.066 51.1H41.216C40.6327 51.1 40.166 50.6333 40.166 50.05C40.166 49.4667 40.6327 49 41.216 49H45.066C45.6494 49 46.116 49.4667 46.116 50.05Z" fill="white"/>
<path d="M54.3992 50.05C54.3992 50.6333 53.9326 51.1 53.3492 51.1H49.4992C48.9159 51.1 48.4492 50.6333 48.4492 50.05C48.4492 49.4667 48.9159 49 49.4992 49H53.3492C53.9326 49 54.3992 49.4667 54.3992 50.05Z" fill="white"/>
<path d="M35.7332 61.4836C35.7332 62.0669 35.2665 62.5336 34.6832 62.5336H30.8332C30.2499 62.5336 29.7832 62.0669 29.7832 61.4836C29.7832 60.9003 30.2499 60.4336 30.8332 60.4336H34.6832C35.2665 60.4336 35.7332 60.9003 35.7332 61.4836Z" fill="white"/>
<path d="M63.2664 61.4836C63.2664 62.0669 62.7997 62.5336 62.2164 62.5336H58.3664C57.7831 62.5336 57.3164 62.0669 57.3164 61.4836C57.3164 60.9003 57.7831 60.4336 58.3664 60.4336H62.2164C62.7997 60.4336 63.2664 60.9003 63.2664 61.4836Z" fill="white"/>
<path d="M46.2332 59.3829L42.3832 64.1662C42.2665 64.3995 41.9165 64.5162 41.6832 64.5162C41.6832 64.5162 41.6832 64.5162 41.5665 64.5162C41.3332 64.5162 41.0999 64.3995 40.8665 64.2829L38.7665 62.5329C38.2999 62.1829 38.2999 61.4829 38.6499 61.1329C38.9999 60.6662 39.6999 60.6662 40.0499 61.0162L41.3332 62.0662L44.4832 58.0995C44.8332 57.6329 45.5332 57.6329 45.8832 57.9829C46.5832 58.3329 46.5832 58.9162 46.2332 59.3829Z" fill="white"/>
<path d="M54.3992 61.4836C54.3992 62.0669 53.9326 62.5336 53.3492 62.5336H49.4992C48.9159 62.5336 48.4492 62.0669 48.4492 61.4836C48.4492 60.9003 48.9159 60.4336 49.4992 60.4336H53.3492C53.9326 60.4336 54.3992 60.9003 54.3992 61.4836Z" fill="white"/>
<path d="M64.8992 47.8336L61.0492 52.6169C60.8159 52.8503 60.5826 52.9669 60.3492 52.9669H60.2326C59.9992 52.9669 59.7659 52.8503 59.5326 52.7336L57.4326 50.9836C56.9659 50.6336 56.9659 49.9336 57.3159 49.5836C57.6659 49.1169 58.3659 49.1169 58.7159 49.4669L59.9992 50.6336L63.1492 46.6669C63.4992 46.2003 64.1992 46.2003 64.5492 46.5503C65.2492 46.7836 65.2492 47.4836 64.8992 47.8336Z" fill="white"/>
<path d="M68.5172 32.2H64.7839V31.2667C64.7839 29.2833 63.1505 27.65 61.1672 27.65C59.1839 27.65 57.5505 29.2833 57.5505 31.2667V32.2H48.4505V9.91667C48.4505 7.81667 46.7005 6.06667 44.6005 6.06667H35.2672C34.9172 5.13333 33.9839 4.55 32.9339 4.55H30.0172C29.5505 1.98333 27.2172 0 24.5339 0C21.8505 0 19.5172 1.98333 19.0505 4.55H16.1339C15.0839 4.55 14.1505 5.13333 13.8005 6.06667H4.46719C2.36719 6.06667 0.617188 7.81667 0.617188 9.91667V61.0167C0.617188 63.1167 2.36719 64.8667 4.46719 64.8667H25.0005V66.5C25.0005 68.4833 26.5172 70 28.5005 70H65.9505C67.9339 70 69.4505 68.4833 69.4505 66.5V42.8167C70.0339 42.4667 70.3839 41.8833 70.3839 41.1833V34.1833C70.3839 33.0167 69.5672 32.2 68.5172 32.2ZM59.6505 31.3833C59.6505 30.5667 60.3505 29.8667 61.1672 29.8667C61.9839 29.8667 62.6839 30.5667 62.6839 31.3833V34.5333C62.6839 35.35 61.9839 36.05 61.1672 36.05C60.3505 36.05 59.6505 35.35 59.6505 34.5333V31.3833ZM35.5005 8.16667H44.6005C45.6505 8.16667 46.4672 8.98333 46.4672 10.0333V32.3167H43.0839V13.7667C43.0839 12.4833 42.0339 11.55 40.8672 11.55H35.5005V8.16667ZM15.6672 7.11667C15.6672 6.88333 15.9005 6.65 16.1339 6.65H19.9839C20.5672 6.65 21.0339 6.18333 21.0339 5.6C21.0339 3.61667 22.5505 2.1 24.5339 2.1C26.5172 2.1 28.0339 3.61667 28.0339 5.6C28.0339 6.18333 28.5005 6.65 29.0839 6.65H32.9339C33.1672 6.65 33.4005 6.88333 33.4005 7.11667V11.55H15.6672V7.11667ZM26.0505 32.2C25.0005 32.2 24.1839 33.0167 24.1839 34.0667V41.0667C24.1839 41.7667 24.5339 42.35 25.1172 42.7V57.4H8.31719C8.20052 57.4 8.08385 57.2833 8.08385 57.1667V37.8C8.08385 37.2167 7.61719 36.75 7.03385 36.75C6.45052 36.75 5.98385 37.2167 5.98385 37.8V57.2833C5.98385 58.5667 7.03385 59.5 8.20052 59.5H25.0005V62.8833H4.46719C3.41719 62.8833 2.60052 62.0667 2.60052 61.0167V9.91667C2.71719 8.98333 3.53385 8.16667 4.46719 8.16667H13.5672V11.55H8.31719C7.03385 11.55 6.10052 12.6 6.10052 13.7667V33.0167C6.10052 33.6 6.56719 34.0667 7.15052 34.0667C7.73385 34.0667 8.20052 33.6 8.20052 33.0167V13.7667C8.20052 13.65 8.31719 13.5333 8.43385 13.5333H40.8672C40.9839 13.5333 41.1005 13.65 41.1005 13.7667V32.2H37.0172V31.2667C37.0172 29.2833 35.3839 27.65 33.4005 27.65C31.4172 27.65 29.7839 29.2833 29.7839 31.2667V32.2H26.0505ZM34.8005 31.3833V34.5333C34.8005 35.35 34.1005 36.05 33.2839 36.05C32.4672 36.05 31.7672 35.35 31.7672 34.5333V31.3833C31.7672 30.5667 32.4672 29.8667 33.2839 29.8667C34.1005 29.8667 34.8005 30.5667 34.8005 31.3833ZM68.2839 41.0667H49.6172C49.0339 41.0667 48.5672 41.5333 48.5672 42.1167C48.5672 42.7 49.0339 43.1667 49.6172 43.1667H67.3505V66.5C67.3505 67.3167 66.7672 67.9 65.9505 67.9H28.5005C27.6839 67.9 27.1005 67.2 27.1005 66.5V43.05H44.9505C45.5339 43.05 46.0005 42.5833 46.0005 42C46.0005 41.4167 45.5339 40.95 44.9505 40.95H26.1672V34.1833H29.6672V34.4167C29.6672 36.4 31.3005 38.0333 33.2839 38.0333C35.2672 38.0333 36.9005 36.4 36.9005 34.4167V34.1833H57.6672V34.4167C57.6672 36.4 59.3005 38.0333 61.2839 38.0333C63.2672 38.0333 64.9005 36.4 64.9005 34.4167V34.1833H68.4005V41.0667H68.2839Z" fill="white"/>
<path d="M33.3993 7.11628V11.5496H15.666V7.11628C15.666 6.88294 15.8993 6.64961 16.1327 6.64961H19.9827C20.566 6.64961 21.0327 6.18294 21.0327 5.59961C21.0327 3.61628 22.5493 2.09961 24.5327 2.09961C26.516 2.09961 28.0327 3.61628 28.0327 5.59961C28.0327 6.18294 28.4993 6.64961 29.0827 6.64961H32.9327C33.166 6.53294 33.3993 6.76628 33.3993 7.11628Z" fill="#FC6C2D"/>
<path d="M49.7327 41.0665H68.3993V34.2998H64.8993V34.5331C64.8993 36.5165 63.266 38.1498 61.2827 38.1498C59.2993 38.1498 57.666 36.5165 57.666 34.5331V34.2998H36.8993V34.5331C36.8993 36.5165 35.266 38.1498 33.2827 38.1498C31.2993 38.1498 29.666 36.5165 29.666 34.5331V34.2998H26.166V41.0665H44.9493C45.5327 41.0665 45.9993 41.5331 45.9993 42.1165C45.9993 42.6998 45.5327 43.1665 44.9493 43.1665H27.0993V66.4998C27.0993 67.3165 27.7993 67.8998 28.4993 67.8998H65.9493C66.766 67.8998 67.3493 67.1998 67.3493 66.4998V43.0498H49.7327C49.1493 43.0498 48.6827 42.5831 48.6827 41.9998C48.6827 41.4165 49.1493 41.0665 49.7327 41.0665ZM41.216 48.9998H45.066C45.6493 48.9998 46.116 49.4665 46.116 50.0498C46.116 50.6331 45.6493 51.0998 45.066 51.0998H41.216C40.6327 51.0998 40.166 50.6331 40.166 50.0498C40.166 49.4665 40.6327 48.9998 41.216 48.9998ZM34.6827 62.5331H30.8327C30.2493 62.5331 29.7827 62.0665 29.7827 61.4831C29.7827 60.8998 30.2493 60.4331 30.8327 60.4331H34.6827C35.266 60.4331 35.7327 60.8998 35.7327 61.4831C35.7327 62.0665 35.266 62.5331 34.6827 62.5331ZM37.9493 47.8331L34.0993 52.6165C33.866 52.8498 33.6327 52.9665 33.3993 52.9665H33.2827C33.0493 52.9665 32.816 52.8498 32.5827 52.7331L30.4827 50.9831C30.016 50.6331 30.016 49.9331 30.366 49.5831C30.716 49.1165 31.416 49.1165 31.766 49.4665L33.0493 50.6331L36.1993 46.6665C36.5493 46.1998 37.2493 46.1998 37.5993 46.5498C38.2993 46.7831 38.2993 47.4831 37.9493 47.8331ZM46.2327 59.3831L42.3827 64.1665C42.266 64.3998 41.916 64.5165 41.6827 64.5165C41.6827 64.5165 41.6827 64.5165 41.566 64.5165C41.3327 64.5165 41.0993 64.3998 40.866 64.2831L38.766 62.5331C38.2993 62.1831 38.2993 61.4831 38.6493 61.1331C38.9993 60.6665 39.6994 60.6665 40.0494 61.0165L41.3327 62.0665L44.4827 58.0998C44.8327 57.6331 45.5327 57.6331 45.8827 57.9831C46.5827 58.3331 46.5827 58.9165 46.2327 59.3831ZM53.3493 62.5331H49.4993C48.916 62.5331 48.4493 62.0665 48.4493 61.4831C48.4493 60.8998 48.916 60.4331 49.4993 60.4331H53.3493C53.9327 60.4331 54.3993 60.8998 54.3993 61.4831C54.3993 62.0665 53.9327 62.5331 53.3493 62.5331ZM62.216 62.5331H58.366C57.7827 62.5331 57.316 62.0665 57.316 61.4831C57.316 60.8998 57.7827 60.4331 58.366 60.4331H62.216C62.7994 60.4331 63.266 60.8998 63.266 61.4831C63.266 62.0665 62.7994 62.5331 62.216 62.5331ZM57.4327 49.5831C57.7827 49.1165 58.4827 49.1165 58.8327 49.4665L60.116 50.6331L63.266 46.6665C63.616 46.1998 64.316 46.1998 64.666 46.5498C65.1327 46.8998 65.1327 47.5998 64.7827 47.9498L60.9327 52.7331C60.6993 52.9665 60.466 53.0831 60.2327 53.0831H60.116C59.8827 53.0831 59.6493 52.9665 59.416 52.8498L57.316 51.0998C57.0827 50.6331 57.0827 49.9331 57.4327 49.5831ZM49.4993 48.9998H53.3493C53.9327 48.9998 54.3993 49.4665 54.3993 50.0498C54.3993 50.6331 53.9327 51.0998 53.3493 51.0998H49.4993C48.916 51.0998 48.4493 50.6331 48.4493 50.0498C48.4493 49.4665 48.916 48.9998 49.4993 48.9998Z" fill="#FC6C2D"/>
</g>
<defs>
<clipPath id="clip0_1432_611">
<rect width="70" height="70" fill="white" transform="translate(0.5)"/>
</clipPath>
</defs>
</svg>
