<svg width="71" height="70" viewBox="0 0 71 70" fill="none" xmlns="http://www.w3.org/2000/svg">
<g clip-path="url(#clip0_1432_596)">
<path d="M22.1996 11.083C19.0496 11.083 16.5996 13.6497 16.5996 16.683C16.5996 19.7163 19.0496 22.283 22.1996 22.283C25.2329 22.283 27.7996 19.7163 27.7996 16.683C27.7996 13.6497 25.3496 11.083 22.1996 11.083ZM22.1996 20.0663C20.3329 20.0663 18.8163 18.5497 18.8163 16.683C18.8163 14.8163 20.3329 13.2997 22.1996 13.2997C24.0663 13.2997 25.5829 14.8163 25.5829 16.683C25.5829 18.5497 24.0663 20.0663 22.1996 20.0663Z" fill="white"/>
<path d="M22.1993 6.65039C16.5993 6.65039 12.166 11.2004 12.166 16.6837C12.166 22.1671 16.716 26.7171 22.1993 26.7171C27.7993 26.7171 32.2327 22.1671 32.2327 16.6837C32.2327 11.2004 27.7993 6.65039 22.1993 6.65039ZM22.1993 24.5004C17.8827 24.5004 14.3827 21.0004 14.3827 16.6837C14.3827 12.3671 17.8827 8.86706 22.1993 8.86706C26.516 8.86706 30.016 12.3671 30.016 16.6837C30.016 21.0004 26.516 24.5004 22.1993 24.5004Z" fill="white"/>
<path d="M22.1995 8.86621C17.8828 8.86621 14.3828 12.3662 14.3828 16.6829C14.3828 20.9995 17.8828 24.4995 22.1995 24.4995C26.5161 24.4995 30.0161 20.9995 30.0161 16.6829C30.0161 12.3662 26.5161 8.86621 22.1995 8.86621ZM22.1995 22.2829C19.0495 22.2829 16.5995 19.7162 16.5995 16.6829C16.5995 13.6495 19.0495 11.0829 22.1995 11.0829C25.2328 11.0829 27.7995 13.6495 27.7995 16.6829C27.7995 19.8329 25.3495 22.2829 22.1995 22.2829Z" fill="white"/>
<path d="M68.0503 37.9166H61.2836V66.9666H59.0669V44.6833H52.3003V67.0833H50.0836V51.3333H43.3169V66.9666H41.1003V54.0166C41.1003 52.3833 40.8669 50.6333 40.4003 49.1166L54.5169 34.9999L57.9003 38.3833L66.8836 29.3999L69.5669 32.0833L73.0669 21.5833L62.5669 25.0833L65.2503 27.7666L57.9003 35.1166L54.5169 31.7333L39.8169 46.7833C37.7169 41.6499 33.2836 37.5666 27.6836 35.9333L26.8669 32.5499L27.1003 30.4499C27.6836 30.2166 28.1503 30.0999 28.6169 29.8666L31.0669 31.7333L37.3669 25.4333L35.5003 22.9833C35.7336 22.5166 35.9669 21.9333 36.0836 21.4666L39.1169 21.1166V12.2499L36.0836 11.8999C35.8503 11.3166 35.7336 10.8499 35.5003 10.3833L37.3669 7.93327L31.0669 1.63327L28.6169 3.49993C28.1503 3.2666 27.5669 3.03327 27.1003 2.79993L26.7503 -0.233398H17.8836L17.5336 2.79993C16.8336 3.03327 16.3669 3.2666 15.9003 3.49993L13.4503 1.63327L7.15026 7.93327L9.01693 10.3833C8.78359 10.8499 8.55026 11.4333 8.43359 11.8999L5.40026 12.2499V21.1166L8.43359 21.4666C8.66693 22.0499 8.78359 22.5166 9.01693 22.9833L7.15026 25.4333L13.4503 31.7333L15.9003 29.8666C16.3669 30.0999 16.9503 30.3333 17.4169 30.4499L17.6503 32.5499L16.8336 35.9333C8.78359 38.2666 3.18359 45.6166 3.18359 54.0166V69.2999H72.4836V67.0833H68.0503V37.9166ZM69.6836 25.1999L68.7503 28.1166L66.8836 26.2499L69.6836 25.1999ZM26.7503 38.0333C26.9836 38.0333 27.2169 38.1499 27.4503 38.2666L26.9836 40.7166L24.5336 39.1999L26.7503 38.0333ZM22.2003 37.7999L19.0503 36.1666L19.7503 33.4833H24.7669L25.4669 36.1666L22.2003 37.7999ZM23.0169 40.8333L22.5503 42.3499H21.9669L21.3836 40.8333L22.2003 40.3666L23.0169 40.8333ZM16.3669 27.4166L15.6669 26.9499L13.6836 28.4666L10.4169 25.1999L11.9336 23.3333L11.5836 22.6333C11.1169 21.8166 10.7669 20.9999 10.5336 20.0666L10.3003 19.2499L7.85026 18.8999V14.3499L10.3003 13.9999L10.5336 13.1833C10.7669 12.2499 11.1169 11.4333 11.5836 10.6166L11.9336 9.9166L10.4169 8.1666L13.6836 4.89993L15.6669 6.4166L16.3669 6.0666C17.1836 5.59993 18.0003 5.24993 18.9336 5.0166L19.7503 4.78327L19.9836 2.33327H24.5336L24.8836 4.78327L25.7003 5.0166C26.6336 5.24993 27.4503 5.59993 28.2669 6.0666L28.9669 6.4166L30.8336 4.89993L34.1003 8.1666L32.5836 10.1499L32.9336 10.8499C33.4003 11.6666 33.7503 12.4833 33.9836 13.4166L34.2169 14.2333L36.6669 14.5833V19.1333L34.2169 19.4833L33.9836 20.2999C33.7503 21.2333 33.4003 22.0499 32.9336 22.8666L32.4669 23.3333L33.9836 25.3166L30.8336 28.5833L28.8503 27.0666L28.1503 27.4166C27.3336 27.8833 26.5169 28.2333 25.5836 28.4666L24.7669 28.6999L24.4169 31.1499H19.8669L19.5169 28.6999L18.7003 28.4666C18.0003 28.2333 17.0669 27.7666 16.3669 27.4166ZM17.6503 38.0333L19.8669 39.1999L17.4169 40.7166L16.9503 38.2666C17.1836 38.1499 17.4169 38.1499 17.6503 38.0333ZM12.1669 67.0833V49.1166H9.83359V66.9666H5.40026V54.0166C5.40026 47.5999 9.13359 41.7666 14.7336 39.0833L15.7836 44.2166L19.4003 42.1166L19.8669 43.6333L15.3169 62.8833L19.4003 66.9666H12.1669V67.0833ZM17.8836 62.1833L21.9669 44.6833H22.4336L26.5169 62.1833L22.2003 66.4999L17.8836 62.1833ZM39.0003 67.0833H34.5669V49.1166H32.2336V66.9666H24.8836L28.9669 62.8833L24.4169 43.6333L24.8836 42.1166L28.5003 44.2166L29.5503 39.0833C35.1503 41.7666 38.8836 47.5999 38.8836 54.0166V67.0833H39.0003ZM47.9836 67.0833H45.7669V53.6666H47.9836V67.0833ZM56.8503 67.0833H54.6336V46.8999H56.8503V67.0833ZM65.8336 67.0833H63.6169V40.2499H65.8336V67.0833Z" fill="white"/>
<path d="M34.2163 14.1163L33.9829 13.2997C33.7496 12.3663 33.3996 11.5497 32.9329 10.733L32.5829 10.033L34.0996 8.16634L30.8329 4.89967L28.8496 6.41634L28.1496 6.06634C27.3329 5.59967 26.5163 5.24967 25.5829 5.01634L24.7663 4.78301L24.5329 2.33301H19.9829L19.6329 4.78301L18.8163 5.01634C17.8829 5.24967 17.0663 5.59967 16.2496 6.06634L15.6663 6.41634L13.6829 4.89967L10.4163 8.16634L11.9329 10.1497L11.5829 10.8497C11.1163 11.6663 10.7663 12.483 10.5329 13.4163L10.2996 14.233L7.84961 14.583V19.133L10.2996 19.483L10.5329 20.2997C10.7663 21.233 11.1163 22.0497 11.5829 22.8663L11.9329 23.333L10.4163 25.3163L13.6829 28.583L15.6663 27.0663L16.3663 27.4163C17.1829 27.883 17.9996 28.233 18.9329 28.4663L19.7496 28.6997L20.0996 31.1497H24.6496L24.9996 28.6997L25.8163 28.4663C26.7496 28.233 27.5663 27.883 28.3829 27.4163L29.0829 27.0663L31.0663 28.583L34.3329 25.3163L32.4663 23.333L32.8163 22.633C33.2829 21.8163 33.6329 20.9997 33.8663 20.0663L34.0996 19.2497L36.5496 18.8997V14.3497L34.2163 14.1163ZM22.1996 26.833C16.5996 26.833 12.1663 22.283 12.1663 16.7997C12.1663 11.3163 16.7163 6.76634 22.1996 6.76634C27.7996 6.76634 32.2329 11.3163 32.2329 16.7997C32.2329 22.283 27.7996 26.833 22.1996 26.833Z" fill="#FC6C2D"/>
<path d="M25.5831 16.6831C25.5831 18.5498 24.0664 20.0665 22.1997 20.0665C20.3331 20.0665 18.8164 18.5498 18.8164 16.6831C18.8164 14.8165 20.3331 13.2998 22.1997 13.2998C24.0664 13.4165 25.5831 14.9331 25.5831 16.6831Z" fill="#FC6C2D"/>
<path d="M38.9993 54.0163V67.083H34.566V49.1163H32.2327V66.9663H24.8827L28.966 62.883L24.416 43.633L24.8827 42.1163L28.4993 44.2163L29.5493 39.083C35.266 41.883 38.9993 47.5997 38.9993 54.0163Z" fill="#FC6C2D"/>
<path d="M15.4337 62.883L19.5171 66.9663H12.1671V49.1163H9.83372V66.9663H5.40039V54.0163C5.40039 47.5997 9.13372 41.7663 14.7337 39.083L15.7837 44.2163L19.4004 42.1163L19.8671 43.633L15.4337 62.883Z" fill="#FC6C2D"/>
<path d="M47.9835 0H41.2168V6.76667H47.9835V0ZM45.7668 4.43333H43.5501V2.21667H45.7668V4.43333Z" fill="white"/>
<path d="M50.1992 2.2168H63.6159V4.3168H50.1992V2.2168Z" fill="white"/>
<path d="M47.9835 8.86621H41.2168V15.6329H47.9835V8.86621ZM45.7668 13.4162H43.5501V11.0829H45.7668V13.4162Z" fill="white"/>
<path d="M50.1992 11.2002H63.6159V13.3002H50.1992V11.2002Z" fill="white"/>
<path d="M47.9835 17.8496H41.2168V24.4996H47.9835V17.8496ZM45.7668 22.2829H43.5501V20.0663H45.7668V22.2829Z" fill="white"/>
<path d="M50.1992 20.1836H63.6159V22.2836H50.1992V20.1836Z" fill="white"/>
</g>
<defs>
<clipPath id="clip0_1432_596">
<rect width="70" height="70" fill="white" transform="translate(0.5)"/>
</clipPath>
</defs>
</svg>
