<svg width="71" height="70" viewBox="0 0 71 70" fill="none" xmlns="http://www.w3.org/2000/svg">
<g clip-path="url(#clip0_1432_589)">
<path d="M63.5 2.91699C60.1167 2.91699 57.2 5.36699 56.6167 8.75033H14.3833C13.6833 4.90033 10.0667 2.33366 6.33333 3.03366C2.95 3.61699 0.5 6.53366 0.5 9.91699V53.0837C0.5 53.667 0.966667 54.1337 1.55 54.2503L4.7 54.717C4.81667 55.3003 5.16667 56.0003 5.4 56.5837L3.53333 59.1503C3.18333 59.617 3.18333 60.317 3.65 60.667L6.91667 63.9337C7.26667 64.4003 7.96667 64.4003 8.43333 64.0503L11 62.1837C11.5833 62.5337 12.2833 62.767 12.8667 63.0003L13.3333 66.1503C13.45 66.7337 13.9167 67.2003 14.5 67.2003H19.1667C19.75 67.2003 20.2167 66.7337 20.3333 66.1503L20.8 63.0003C21.5 62.767 22.0833 62.5337 22.6667 62.1837L25.2333 64.0503C25.7 64.4003 26.4 64.4003 26.75 63.9337L30.0167 60.667C30.4833 60.317 30.4833 59.617 30.1333 59.1503L28.2667 56.5837C28.5 56.2337 28.6167 55.767 28.7333 55.417H63.5C67.35 55.417 70.5 52.267 70.5 48.417V9.91699C70.5 6.06699 67.35 2.91699 63.5 2.91699ZM2.83333 9.91699C2.83333 7.35033 4.93333 5.25033 7.5 5.25033C10.0667 5.25033 12.1667 7.35033 12.1667 9.91699V38.8503C11.8167 38.967 11.35 39.2003 11 39.317L8.43333 37.4503C7.96667 37.1003 7.26667 37.1003 6.91667 37.567L3.65 40.8337C3.18333 41.1837 3.18333 41.8837 3.53333 42.3503L3.65 42.5837C3.41667 42.817 3.06667 42.9337 2.83333 43.167V9.91699ZM5.4 44.917C5.16667 45.5003 4.81667 46.2003 4.58333 46.7837L2.95 47.017C3.3 45.967 4 45.0337 4.93333 44.4503L5.4 44.917ZM30.8333 52.0337L27.9167 52.5003C27.45 52.617 27.1 52.967 26.9833 53.4337C26.75 54.367 26.4 55.3003 25.8167 56.2337C25.5833 56.5837 25.5833 57.167 25.9333 57.517L27.6833 59.8503L25.8167 61.717L23.4833 59.967C23.1333 59.7337 22.55 59.617 22.2 59.8503C21.3833 60.317 20.45 60.7837 19.4 61.017C18.9333 61.1337 18.5833 61.4837 18.4667 61.9503L18.1167 64.867H15.4333L15.0833 61.8337C14.9667 61.367 14.6167 61.017 14.15 60.9003C13.2167 60.667 12.2833 60.317 11.35 59.7337C11.1167 59.5003 10.5333 59.5003 10.1833 59.8503L7.85 61.6003L5.98333 59.7337L7.73333 57.4003C7.96667 57.0503 8.08333 56.467 7.85 56.117C7.38333 55.3003 6.91667 54.367 6.68333 53.317C6.56667 52.8503 6.21667 52.5003 5.75 52.5003L2.83333 52.0337V49.3503L5.75 49.0003C6.21667 48.8837 6.56667 48.5337 6.68333 48.067C6.91667 47.1337 7.26667 46.2003 7.85 45.267C8.08333 44.917 8.08333 44.3337 7.73333 43.9837L5.98333 41.6503L7.85 39.7837L10.1833 41.5337C10.5333 42.0003 11.1167 42.0003 11.4667 41.767C12.2833 41.3003 13.2167 40.8337 14.2667 40.6003C14.7333 40.4837 15.0833 40.1337 15.2 39.667L15.55 36.7503H18.2333L18.5833 39.667C18.7 40.1337 19.05 40.4837 19.5167 40.6003C20.45 40.8337 21.3833 41.1837 22.3167 41.767C22.6667 42.0003 23.25 42.0003 23.6 41.6503L25.9333 39.9003L27.8 41.767L26.05 44.1003C25.8167 44.4503 25.7 45.0337 25.9333 45.3837C26.4 46.2003 26.8667 47.1337 27.1 48.1837C27.2167 48.6503 27.5667 49.0003 28.0333 49.117L30.95 49.467V52.0337H30.8333ZM63.5 53.0837H33.1667V49.5837H39C39.5833 49.5837 40.1667 49.0003 40.1667 48.417V46.0837H43.6667V48.417C43.6667 49.0003 44.25 49.5837 44.8333 49.5837H51.8333C52.4167 49.5837 53 49.0003 53 48.417V41.417C53 40.8337 52.4167 40.2503 51.8333 40.2503H44.8333C44.25 40.2503 43.6667 40.8337 43.6667 41.417V43.7503H40.1667V41.417C40.1667 40.8337 39.5833 40.2503 39 40.2503H36.6667V36.7503H39C39.5833 36.7503 40.1667 36.167 40.1667 35.5837V33.2503H43.6667V35.5837C43.6667 36.167 44.25 36.7503 44.8333 36.7503H51.8333C52.4167 36.7503 53 36.167 53 35.5837V28.5837C53 28.0003 52.4167 27.417 51.8333 27.417H49.5V23.917H51.8333C52.4167 23.917 53 23.3337 53 22.7503V15.7503C53 15.167 52.4167 14.5837 51.8333 14.5837H44.8333C44.25 14.5837 43.6667 15.167 43.6667 15.7503V18.0837H40.1667V15.7503C40.1667 15.167 39.5833 14.5837 39 14.5837H32C31.4167 14.5837 30.8333 15.167 30.8333 15.7503V18.0837H27.3333V15.7503C27.3333 15.167 26.75 14.5837 26.1667 14.5837H19.1667C18.5833 14.5837 18 15.167 18 15.7503V22.7503C18 23.3337 18.5833 23.917 19.1667 23.917H26.1667C26.75 23.917 27.3333 23.3337 27.3333 22.7503V20.417H30.8333V22.7503C30.8333 23.3337 31.4167 23.917 32 23.917H39C39.5833 23.917 40.1667 23.3337 40.1667 22.7503V20.417H43.6667V22.7503C43.6667 23.3337 44.25 23.917 44.8333 23.917H47.1667V27.417H44.8333C44.25 27.417 43.6667 28.0003 43.6667 28.5837V30.917H40.1667V28.5837C40.1667 28.0003 39.5833 27.417 39 27.417H32C31.4167 27.417 30.8333 28.0003 30.8333 28.5837V35.5837C30.8333 36.167 31.4167 36.7503 32 36.7503H34.3333V40.2503H32C31.4167 40.2503 30.8333 40.8337 30.8333 41.417V47.017L29.0833 46.7837C28.85 46.0837 28.6167 45.5003 28.2667 44.917L30.1333 42.3503C30.4833 41.8837 30.4833 41.1837 30.0167 40.8337L26.75 37.567C26.4 37.1003 25.7 37.1003 25.2333 37.4503L22.6667 39.317C22.0833 38.967 21.3833 38.7337 20.8 38.5003L20.3333 35.467C20.2167 34.8837 19.75 34.417 19.1667 34.417H14.5V11.0837H56.5V48.417C56.5 49.0003 57.0833 49.5837 57.6667 49.5837C58.25 49.5837 58.8333 49.0003 58.8333 48.417C58.8333 45.8503 60.9333 43.7503 63.5 43.7503C66.0667 43.7503 68.1667 45.8503 68.1667 48.417C68.1667 50.9837 66.0667 53.0837 63.5 53.0837ZM33.1667 47.2503V42.5837H37.8333V47.2503H33.1667ZM46 47.2503V42.5837H50.6667V47.2503H46ZM33.1667 34.417V29.7503H37.8333V34.417H33.1667ZM46 34.417V29.7503H50.6667V34.417H46ZM46 21.5837V16.917H50.6667V21.5837H46ZM37.8333 16.917V21.5837H33.1667V16.917H37.8333ZM25 16.917V21.5837H20.3333V16.917H25ZM68.1667 43.167C65.4833 40.8337 61.5167 40.8337 58.8333 43.167V9.91699C58.8333 7.35033 60.9333 5.25033 63.5 5.25033C66.0667 5.25033 68.1667 7.35033 68.1667 9.91699V43.167Z" fill="white"/>
<path d="M27.9173 49.0005C27.4506 48.8838 27.1007 48.5338 26.984 48.0671C26.7507 47.1338 26.4007 46.2005 25.8173 45.2671C25.584 44.9171 25.584 44.3338 25.934 43.9838L27.684 41.6505L25.8173 39.7838L23.484 41.5338C23.134 41.7671 22.5507 41.8838 22.2007 41.6505C21.384 41.1838 20.4507 40.7171 19.4007 40.4838C18.934 40.3671 18.584 40.0171 18.4673 39.5505L18.1173 36.6338H15.434L15.084 39.6671C14.9673 40.1338 14.6173 40.4838 14.1507 40.6005C13.2173 40.8338 12.284 41.1838 11.3507 41.7671C11.1173 42.0005 10.534 42.0005 10.184 41.6505L7.85065 39.9005L5.98398 41.7671L7.73398 44.1005C7.96732 44.4505 8.08398 45.0338 7.85065 45.3838C7.38398 46.2005 6.91732 47.1338 6.68398 48.1838C6.56732 48.6505 6.21732 49.0005 5.75065 49.0005L2.83398 49.4671V52.1505L5.75065 52.5005C6.21732 52.6171 6.56732 52.9671 6.68398 53.4338C6.91732 54.3671 7.26732 55.3005 7.85065 56.2338C8.08398 56.5838 8.08398 57.1671 7.73398 57.5171L5.98398 59.8505L7.85065 61.7171L10.184 59.9671C10.534 59.5005 11.1173 59.5005 11.4673 59.7338C12.284 60.2005 13.2173 60.6671 14.2673 60.9005C14.734 61.0171 15.084 61.3671 15.2007 61.8338L15.5507 64.7505H18.234L18.584 61.8338C18.7007 61.3671 19.0506 61.0171 19.5173 60.9005C20.4506 60.6671 21.384 60.3171 22.3173 59.7338C22.6673 59.5005 23.2506 59.5005 23.6006 59.8505L25.934 61.6005L27.8006 59.7338L26.0506 57.4005C25.8173 57.0505 25.7006 56.4671 25.934 56.1171C26.4007 55.3005 26.8673 54.3671 27.1006 53.3171C27.2173 52.8505 27.5673 52.5005 28.034 52.3838L30.9507 52.0338V49.3505L27.9173 49.0005ZM16.834 57.7505C12.984 57.7505 9.83398 54.6005 9.83398 50.7505C9.83398 46.9005 12.984 43.7505 16.834 43.7505C20.684 43.7505 23.834 46.9005 23.834 50.7505C23.834 54.6005 20.684 57.7505 16.834 57.7505Z" fill="#FC6C2D"/>
<path d="M68.1673 9.91667V43.1667C65.484 40.8333 61.5173 40.8333 58.834 43.1667V9.91667C58.834 7.35 60.934 5.25 63.5007 5.25C66.0673 5.25 68.1673 7.35 68.1673 9.91667Z" fill="#FC6C2D"/>
<path d="M12.1673 9.91667V38.85C11.8173 38.9667 11.3507 39.2 11.0007 39.3167L8.43398 37.45C7.96732 37.1 7.26732 37.1 6.91732 37.5667L3.65065 40.8333C3.18398 41.1833 3.18398 41.8833 3.53398 42.35L3.65065 42.5833C3.41732 42.8167 3.06732 42.9333 2.83398 43.1667V9.91667C2.83398 7.35 4.93398 5.25 7.50065 5.25C10.0673 5.25 12.1673 7.35 12.1673 9.91667Z" fill="#FC6C2D"/>
<path d="M16.834 43.75C12.984 43.75 9.83398 46.9 9.83398 50.75C9.83398 54.6 12.984 57.75 16.834 57.75C20.684 57.75 23.834 54.6 23.834 50.75C23.834 46.9 20.684 43.75 16.834 43.75ZM16.834 55.4167C14.2673 55.4167 12.1673 53.3167 12.1673 50.75C12.1673 48.1833 14.2673 46.0833 16.834 46.0833C19.4007 46.0833 21.5007 48.1833 21.5007 50.75C21.5007 53.3167 19.4007 55.4167 16.834 55.4167Z" fill="white"/>
<path d="M16.8327 55.4163C19.41 55.4163 21.4993 53.327 21.4993 50.7497C21.4993 48.1723 19.41 46.083 16.8327 46.083C14.2554 46.083 12.166 48.1723 12.166 50.7497C12.166 53.327 14.2554 55.4163 16.8327 55.4163Z" fill="white"/>
</g>
<defs>
<clipPath id="clip0_1432_589">
<rect width="70" height="70" fill="white" transform="translate(0.5)"/>
</clipPath>
</defs>
</svg>
