<svg width="71" height="70" viewBox="0 0 71 70" fill="none" xmlns="http://www.w3.org/2000/svg">
<g clip-path="url(#clip0_1432_585)">
<path d="M66.6507 26.8338L60.584 26.2505C60.0007 23.6838 58.9507 21.2338 57.5507 19.0171L61.4007 14.3505C61.7507 13.8838 61.7507 13.1838 61.284 12.8338L54.7507 6.30046C54.284 5.83379 53.7007 5.83379 53.234 6.18379L48.5673 10.0338C46.3507 8.63379 43.9007 7.58379 41.334 7.00046L40.7507 0.933789C40.7507 0.350456 40.1673 -0.116211 39.584 -0.116211H30.834C30.2507 -0.116211 29.784 0.350456 29.6673 0.933789L29.084 7.00046C26.5173 7.58379 24.0673 8.63379 21.8507 10.0338L17.184 6.18379C16.7173 5.83379 16.0173 5.83379 15.6673 6.30046L9.13399 12.8338C8.66732 13.3005 8.66732 14.0005 9.01732 14.3505L12.8673 19.0171C11.4673 21.2338 10.4173 23.6838 9.83398 26.2505L3.76732 26.8338C3.18398 26.9505 2.83398 27.4171 2.83398 28.0005V37.2171C2.83398 37.8005 3.30065 38.2671 3.88398 38.3838L9.83398 38.9671C10.4173 41.5338 11.4673 43.9838 12.8673 46.2005L9.01732 50.8671C8.66732 51.3338 8.66732 52.0338 9.13399 52.5005L14.034 56.8171C14.2673 57.0505 14.6173 57.1671 14.9673 57.0505C15.3173 57.0505 15.5507 56.8171 15.784 56.5838L22.9007 46.4338C23.2507 45.9671 23.134 45.3838 22.784 45.0338C16.0173 38.2671 16.0173 27.1838 22.784 20.4171C29.5507 13.6505 40.634 13.6505 47.4007 20.4171C54.1673 27.1838 54.1673 38.2671 47.4007 45.0338C47.0507 45.3838 46.934 46.0838 47.284 46.5505L54.634 56.7005C54.8673 56.9338 55.1007 57.1671 55.4507 57.1671C55.8007 57.1671 56.034 57.0505 56.384 56.9338L61.284 52.6171C61.7507 52.2671 61.7507 51.4505 61.4007 50.9838L57.5507 46.3171C58.9507 44.1005 60.0007 41.6505 60.584 39.0838L66.6507 38.5005C67.234 38.5005 67.7007 37.9171 67.7007 37.3338V28.0005C67.7007 27.4171 67.234 26.9505 66.6507 26.8338ZM65.3673 36.1671L59.534 36.7505C59.0673 36.7505 58.6007 37.1005 58.484 37.6838C57.9007 40.6005 56.734 43.2838 55.1007 45.7338C54.8673 46.2005 54.8673 46.6671 55.2173 47.1338L58.834 51.5671L55.684 54.3671L49.6173 45.9671C56.6173 38.2671 56.384 26.2505 48.9173 18.7838C41.334 10.9671 28.8507 10.9671 21.1507 18.6671C13.684 26.1338 13.4507 38.1505 20.4507 45.8505L14.6173 54.2505L11.4673 51.4505L15.084 47.0171C15.434 46.6671 15.434 46.0838 15.2007 45.6171C13.5673 43.1671 12.4007 40.4838 11.8173 37.5671C11.7007 37.1005 11.3507 36.7505 10.884 36.6338L5.05065 36.0505V28.9338L10.884 28.3505C11.3507 28.3505 11.8173 28.0005 11.934 27.4171C12.5173 24.6171 13.684 21.8171 15.3173 19.3671C15.5507 18.9005 15.5507 18.4338 15.2007 17.9671L11.4673 13.5338L16.484 8.51712L20.9173 12.2505C21.2673 12.6005 21.8507 12.6005 22.3173 12.3671C24.7673 10.7338 27.4507 9.56712 30.3673 8.98379C30.834 8.86712 31.184 8.51712 31.3007 7.93379L31.884 2.10046H38.7673L39.3507 7.93379C39.3507 8.40046 39.8173 8.86712 40.284 8.98379C43.2007 9.56712 45.884 10.7338 48.334 12.3671C48.8007 12.6005 49.2673 12.6005 49.734 12.2505L54.1673 8.51712L59.184 13.5338L55.334 18.2005C54.984 18.5505 54.984 19.1338 55.2173 19.6005C56.8507 22.0505 58.0173 24.7338 58.6007 27.6505C58.7173 28.1171 59.0673 28.4671 59.6507 28.5838L65.484 29.1671V36.1671H65.3673Z" fill="white"/>
<path d="M65.3674 29.0496V36.1663L59.5341 36.7496C59.0674 36.7496 58.6008 37.0996 58.4841 37.6829C57.9008 40.5996 56.7341 43.2829 55.1008 45.7329C54.8674 46.1996 54.8674 46.6663 55.2174 47.1329L58.8341 51.5663L55.6841 54.3663L49.6174 45.9663C56.6174 38.2663 56.3841 26.2496 48.9174 18.7829C41.3341 10.9663 28.8508 10.9663 21.1508 18.6663C13.6841 26.1329 13.4508 38.1496 20.4508 45.8496L14.6174 54.2496L11.4674 51.4496L15.0841 47.0163C15.4341 46.6663 15.4341 46.0829 15.2008 45.6163C13.5674 43.1663 12.4008 40.4829 11.8174 37.5663C11.7008 37.0996 11.3508 36.7496 10.8841 36.6329L5.05078 36.0496V28.9329L10.8841 28.3496C11.3508 28.3496 11.8174 27.9996 11.9341 27.4163C12.5174 24.6163 13.6841 21.8163 15.3174 19.3663C15.5508 18.8996 15.5508 18.4329 15.2008 17.9663L11.4674 13.5329L16.4841 8.51628L20.9174 12.2496C21.2674 12.5996 21.8508 12.5996 22.3174 12.3663C24.7674 10.7329 27.4508 9.56628 30.3674 8.98294C30.8341 8.86628 31.1841 8.51628 31.3008 7.93294L31.8841 2.09961H38.7674L39.3508 7.93294C39.3508 8.39961 39.8174 8.86628 40.2841 8.98294C43.2008 9.56628 45.8841 10.7329 48.3341 12.3663C48.8008 12.5996 49.2674 12.5996 49.7341 12.2496L54.1674 8.51628L59.1841 13.5329L55.3341 18.1996C54.9841 18.5496 54.9841 19.1329 55.2174 19.5996C56.8508 22.0496 58.0174 24.7329 58.6008 27.6496C58.7174 28.1163 59.0674 28.4663 59.6508 28.5829L65.3674 29.0496Z" fill="#FC6C2D"/>
<path d="M39.2326 52.7335V35.3502C42.1492 33.7169 44.0159 30.5669 44.0159 27.3002C44.0159 22.8669 41.4492 19.6002 37.2492 18.6669C36.8992 18.5502 36.5492 18.6669 36.1992 18.9002C35.9659 19.1335 35.7326 19.4835 35.8492 19.8335L36.1992 24.7335C35.2659 25.2002 34.0992 25.2002 33.1659 24.7335L33.5159 19.8335C33.5159 19.4835 33.3992 19.1335 33.0492 18.9002C32.6992 18.6669 32.3492 18.5502 31.9992 18.6669C28.1492 19.8335 25.6992 23.1002 25.6992 27.4169C25.6992 31.3835 27.7992 34.5335 31.1826 35.9335V53.2002C28.7326 54.6002 26.3992 57.5169 26.3992 61.2502C26.3992 65.6835 28.9659 68.9502 33.1659 70.0002C33.5159 70.1169 33.8659 70.0002 34.2159 69.7669C34.4492 69.5335 34.6826 69.1835 34.5659 68.8335L34.2159 63.9335C35.1492 63.4669 36.3159 63.4669 37.2492 63.9335L36.8992 68.8335C36.8992 69.1835 37.0159 69.5335 37.3659 69.7669C37.5992 70.0002 38.0659 70.1169 38.4159 70.0002C42.2659 68.8335 44.7159 65.5669 44.7159 61.2502C44.7159 57.2835 42.6159 54.1335 39.2326 52.7335ZM39.3492 67.0835L39.6992 63.4669C39.6992 63.1169 39.5826 62.6502 39.2326 62.4169C37.2492 60.9002 34.4492 60.9002 32.4659 62.4169C32.1159 62.6502 31.9992 63.0002 31.9992 63.3502L32.3492 67.0835C30.1326 66.0335 28.9659 63.9335 28.9659 61.1335C28.9659 58.1002 31.0659 55.7669 33.0492 54.8335C33.3992 54.6002 33.7492 54.2502 33.7492 53.7835V35.0002C33.7492 34.5335 33.3992 34.0669 32.9326 33.9502C30.0159 33.1335 28.2659 30.5669 28.2659 27.4169C28.2659 24.8502 29.4326 22.7502 31.2992 21.5835L30.8326 25.2002C30.8326 25.5502 30.9492 26.0169 31.2992 26.2502C33.2826 27.7669 36.0826 27.7669 38.0659 26.2502C38.2992 26.0169 38.5326 25.6669 38.4159 25.3169L38.0659 21.4669C40.2826 22.5169 41.5659 24.6169 41.5659 27.4169C41.5659 29.9835 39.8159 32.6669 37.4826 33.8335C37.1326 34.0669 36.7826 34.4169 36.7826 34.8835V53.7835C36.7826 54.2502 37.1326 54.7169 37.5992 54.8335C40.5159 55.6502 42.2659 58.2169 42.2659 61.3669C42.3825 63.8169 41.2159 65.9169 39.3492 67.0835Z" fill="white"/>
</g>
<defs>
<clipPath id="clip0_1432_585">
<rect width="70" height="70" fill="white" transform="translate(0.5)"/>
</clipPath>
</defs>
</svg>
