<svg width="72" height="70" viewBox="0 0 72 70" fill="none" xmlns="http://www.w3.org/2000/svg">
<path d="M58.6876 54.6824H13.2288C9.02881 54.6824 5.65234 51.3059 5.65234 47.1059V7.57647C5.65234 3.37647 9.02881 0 13.2288 0H58.77C62.97 0 66.3465 3.37647 66.3465 7.57647V47.1882C66.2641 51.3059 62.8876 54.6824 58.6876 54.6824Z" fill="#7A8A93"/>
<path d="M16.0288 54.6824H13.2288C9.02881 54.6824 5.65234 51.3059 5.65234 47.1059V7.57647C5.65234 3.37647 9.02881 0 13.2288 0H16.0288C11.8288 0 8.45234 3.37647 8.45234 7.57647V47.1882C8.45234 51.3059 11.8288 54.6824 16.0288 54.6824Z" fill="#687780"/>
<path d="M62.2284 16.3883V47.106C62.2284 49.0001 60.6636 50.5648 58.7695 50.5648H13.2284C11.3342 50.5648 9.76953 49.0001 9.76953 47.106V16.3883C9.76953 14.0001 11.6636 12.106 14.0519 12.106H58.0284C60.3342 12.106 62.2284 14.0001 62.2284 16.3883Z" fill="#9CC6FA"/>
<path d="M17.5931 50.6471H13.2284C11.3342 50.6471 9.76953 49.0824 9.76953 47.1883V16.3883C9.76953 14.0001 11.6636 12.106 14.0519 12.106H18.4166C16.0284 12.106 14.1342 14.0001 14.1342 16.3883V47.106C14.1342 49.0824 15.6989 50.6471 17.5931 50.6471Z" fill="#7FB4FB"/>
<path d="M12.1581 8.64723C13.5226 8.64723 14.6287 7.54111 14.6287 6.17664C14.6287 4.81217 13.5226 3.70605 12.1581 3.70605C10.7936 3.70605 9.6875 4.81217 9.6875 6.17664C9.6875 7.54111 10.7936 8.64723 12.1581 8.64723Z" fill="#E28086"/>
<path d="M19.9823 8.64723C21.3468 8.64723 22.4529 7.54111 22.4529 6.17664C22.4529 4.81217 21.3468 3.70605 19.9823 3.70605C18.6178 3.70605 17.5117 4.81217 17.5117 6.17664C17.5117 7.54111 18.6178 8.64723 19.9823 8.64723Z" fill="#E28086"/>
<path d="M27.8866 8.64723C29.2511 8.64723 30.3572 7.54111 30.3572 6.17664C30.3572 4.81217 29.2511 3.70605 27.8866 3.70605C26.5221 3.70605 25.416 4.81217 25.416 6.17664C25.416 7.54111 26.5221 8.64723 27.8866 8.64723Z" fill="#E28086"/>
<path d="M30.4407 31.2121C30.1937 31.2121 29.8643 31.1298 29.6996 30.8827L25.1702 26.3533C24.7584 25.9415 24.7584 25.2827 25.1702 24.871L29.6996 20.3415C30.1113 19.9298 30.7702 19.9298 31.1819 20.3415C31.5937 20.7533 31.5937 21.4121 31.1819 21.8239L27.3937 25.6121L31.1819 29.4004C31.5937 29.8121 31.5937 30.4709 31.1819 30.8827C31.0172 31.1298 30.6878 31.2121 30.4407 31.2121Z" fill="#F9F6F6"/>
<path d="M41.4758 31.2121C41.2287 31.2121 40.8993 31.1298 40.7346 30.8827C40.3228 30.4709 40.3228 29.8121 40.7346 29.4004L44.5228 25.6121L40.7346 21.8239C40.3228 21.4121 40.3228 20.7533 40.7346 20.3415C41.1464 19.9298 41.8052 19.9298 42.217 20.3415L46.7464 24.871C47.1581 25.2827 47.1581 25.9415 46.7464 26.3533L42.217 30.8827C41.9699 31.1298 41.7228 31.2121 41.4758 31.2121Z" fill="#F9F6F6"/>
<path d="M33.8177 34.5884C33.7354 34.5884 33.653 34.5884 33.5707 34.5884C32.9942 34.4237 32.6648 33.8473 32.8295 33.3532L36.7001 17.5414C36.8648 16.9649 37.4413 16.6355 37.9354 16.8002C38.5119 16.9649 38.8413 17.5414 38.6766 18.0355L34.806 33.8473C34.7236 34.259 34.3119 34.5884 33.8177 34.5884Z" fill="#F9F6F6"/>
<path d="M49.0508 39.6118L43.4508 58.553H28.4626L22.5332 39.3647H46.9097C47.6508 39.3647 48.392 39.4471 49.0508 39.6118Z" fill="#DDDAEC"/>
<path d="M49.0512 39.6118L43.4512 58.553H41.3924L38.6748 51.3883C36.6983 46.2824 39.8277 40.6 45.1806 39.5295C45.7571 39.4471 46.3336 39.3647 46.9101 39.3647C47.6512 39.3647 48.3924 39.4471 49.0512 39.6118Z" fill="#D0CEE7"/>
<path d="M24.6752 39.5296C19.8987 38.5413 15.2046 41.6707 14.2164 46.4472L11.334 60.7766C10.5105 64.8943 13.1458 68.9296 17.3458 69.7531C20.9693 70.4943 24.6752 68.4355 25.9928 64.9766L31.2634 51.306C33.1575 46.2825 30.0281 40.6002 24.6752 39.5296Z" fill="#F9F6F6"/>
<path d="M20.4759 69.8355C19.9818 69.9179 19.4053 70.0002 18.8288 70.0002C18.3347 70.0002 17.8406 69.9179 17.3465 69.8355C13.2288 69.012 10.5112 64.9767 11.3347 60.859L14.217 46.5296C15.2053 41.7531 19.817 38.7061 24.5112 39.5296C21.0523 40.1884 18.17 42.8237 17.4288 46.5296L14.5465 60.859C13.8053 64.9767 16.4406 68.9296 20.4759 69.8355Z" fill="#DDDAEC"/>
<path d="M47.2401 39.5296C52.0166 38.5413 56.7107 41.6707 57.699 46.4472L60.5813 60.7766C61.4049 64.8943 58.7696 68.9296 54.5696 69.7531C50.946 70.4943 47.2401 68.4355 45.9225 64.9766L40.6519 51.306C38.7578 46.2825 41.8049 40.6002 47.2401 39.5296Z" fill="#F9F6F6"/>
<path d="M54.6513 69.8354C54.569 69.8354 54.569 69.8354 54.4866 69.8354C53.9925 69.9178 53.4984 70.0001 53.0043 70.0001C49.8749 70.0001 46.9925 68.106 45.9219 65.0589L40.6513 51.3884C38.6749 46.2825 41.8043 40.6001 47.1572 39.5295C48.3102 39.2825 49.4631 39.2825 50.5337 39.5295H50.4513C45.0984 40.6001 41.969 46.2825 43.9454 51.3884L49.216 65.0589C50.1219 67.5295 52.2631 69.2589 54.6513 69.8354Z" fill="#DDDAEC"/>
<path d="M25.1692 46.7764H24.3457V45.9529C24.3457 44.7999 23.4398 43.894 22.2869 43.894C21.1339 43.894 20.2281 44.7999 20.2281 45.9529V46.7764H19.4045C18.2516 46.7764 17.3457 47.6823 17.3457 48.8352C17.3457 49.9882 18.2516 50.894 19.4045 50.894H20.2281V51.7176C20.2281 52.8705 21.1339 53.7764 22.2869 53.7764C23.4398 53.7764 24.3457 52.8705 24.3457 51.7176V50.894H25.1692C26.3222 50.894 27.2281 49.9882 27.2281 48.8352C27.2281 47.7646 26.2398 46.7764 25.1692 46.7764Z" fill="#7A8A93"/>
<path d="M23.0281 53.6942C22.781 53.7766 22.5339 53.8589 22.2869 53.8589C21.1339 53.8589 20.2281 52.953 20.2281 51.8001V50.9766H19.4045C18.8281 50.9766 18.3339 50.7295 17.9222 50.4001C17.5104 49.9883 17.3457 49.4942 17.3457 48.9177C17.3457 47.7648 18.2516 46.8589 19.4045 46.8589H20.2281V46.0354C20.2281 44.8824 21.1339 43.9766 22.2869 43.9766C22.5339 43.9766 22.8633 44.0589 23.0281 44.1413C22.2869 44.4707 21.7104 45.2119 21.7104 46.0354V46.8589H20.8869C19.7339 46.8589 18.8281 47.7648 18.8281 48.9177C18.8281 49.4942 19.0751 49.9883 19.4045 50.4001C19.8163 50.8119 20.3104 50.9766 20.8869 50.9766H21.7104V51.8001C21.7928 52.6236 22.2869 53.3648 23.0281 53.6942Z" fill="#687780"/>
<path d="M51.6037 48.0942C52.7408 48.0942 53.6626 47.1724 53.6626 46.0354C53.6626 44.8983 52.7408 43.9766 51.6037 43.9766C50.4667 43.9766 49.5449 44.8983 49.5449 46.0354C49.5449 47.1724 50.4667 48.0942 51.6037 48.0942Z" fill="#E28086"/>
<path d="M46.0041 52.2119C47.1412 52.2119 48.063 51.2901 48.063 50.1531C48.063 49.016 47.1412 48.0942 46.0041 48.0942C44.8671 48.0942 43.9453 49.016 43.9453 50.1531C43.9453 51.2901 44.8671 52.2119 46.0041 52.2119Z" fill="#E28086"/>
<path d="M52.3452 47.9295C52.0982 48.0119 51.8511 48.0942 51.5217 48.0942C50.3688 48.0942 49.4629 47.1883 49.4629 46.0354C49.4629 44.8824 50.3688 43.9766 51.5217 43.9766C51.7688 43.9766 52.0982 44.0589 52.3452 44.1413C51.6041 44.4707 51.1099 45.2119 51.1099 46.0354C51.1099 46.8589 51.6041 47.6001 52.3452 47.9295Z" fill="#DD636E"/>
<path d="M46.7456 52.0472C46.4986 52.1295 46.2515 52.2119 45.9221 52.2119C44.7692 52.2119 43.8633 51.306 43.8633 50.1531C43.8633 49.0001 44.7692 48.0942 45.9221 48.0942C46.1692 48.0942 46.4986 48.1766 46.7456 48.2589C46.0045 48.5884 45.5103 49.3295 45.5103 50.1531C45.5103 51.0589 46.0045 51.8001 46.7456 52.0472Z" fill="#DD636E"/>
<path d="M37.1932 55.2591H34.7226C33.8991 55.2591 33.2402 54.6003 33.2402 53.7768C33.2402 52.9533 33.8991 52.2944 34.7226 52.2944H37.1932C38.0167 52.2944 38.6755 52.9533 38.6755 53.7768C38.6755 54.6003 38.0167 55.2591 37.1932 55.2591Z" fill="#7A8A93"/>
<path d="M36.452 55.2591H34.7226C33.8991 55.2591 33.2402 54.6003 33.2402 53.7768C33.2402 53.365 33.4049 52.9533 33.652 52.7062C33.8991 52.4591 34.3108 52.2944 34.7226 52.2944H36.452C36.0402 52.2944 35.6285 52.4591 35.3814 52.7062C35.1344 52.9533 34.9696 53.365 34.9696 53.7768C34.8873 54.6003 35.6285 55.2591 36.452 55.2591Z" fill="#687780"/>
</svg>
