<svg width="70" height="70" viewBox="0 0 70 70" fill="none" xmlns="http://www.w3.org/2000/svg">
<g clip-path="url(#clip0_1395_219)">
<path d="M35.1641 70.0825C15.8111 70.0825 0.164062 54.3531 0.164062 35.0002C0.164062 15.6472 15.8935 0.0825195 35.1641 0.0825195C54.4347 0.0825195 70.1641 15.8119 70.1641 35.0825C70.1641 44.3884 66.4582 53.2825 59.8699 59.7884C53.3641 66.3766 44.4699 70.0825 35.1641 70.0825ZM35.1641 2.2237C17.0464 2.2237 2.30524 16.9649 2.30524 35.0825C2.30524 53.2002 17.0464 67.9413 35.1641 67.9413C43.8935 67.9413 52.2111 64.4825 58.3876 58.3061C71.2347 45.459 71.2347 24.706 58.3876 11.859C52.2111 5.68252 43.8935 2.2237 35.1641 2.2237Z" fill="#414655"/>
<path d="M35.1651 61.3527C20.671 61.3527 8.89453 49.5762 8.89453 35.0821C8.89453 20.588 20.671 8.81152 35.1651 8.81152C49.6592 8.81152 61.4357 20.588 61.4357 35.0821C61.4357 49.5762 49.6592 61.2703 35.1651 61.3527ZM35.1651 10.9527C21.8239 10.9527 11.1181 21.7409 11.1181 34.9998C11.1181 48.2586 21.9063 59.0468 35.1651 59.0468C48.4239 59.0468 59.2122 48.2586 59.2122 34.9998C59.2122 21.7409 48.4239 10.9527 35.1651 10.9527Z" fill="#414655"/>
<path d="M11.1169 16.4707C14.1188 16.4707 16.5522 14.0372 16.5522 11.0354C16.5522 8.03356 14.1188 5.6001 11.1169 5.6001C8.1151 5.6001 5.68164 8.03356 5.68164 11.0354C5.68164 14.0372 8.1151 16.4707 11.1169 16.4707Z" fill="#7ED637"/>
<path d="M59.1287 64.4824C62.1305 64.4824 64.564 62.0489 64.564 59.0471C64.564 56.0453 62.1305 53.6118 59.1287 53.6118C56.1268 53.6118 53.6934 56.0453 53.6934 59.0471C53.6934 62.0489 56.1268 64.4824 59.1287 64.4824Z" fill="#FAC01E"/>
<path d="M9.96434 38.9531C12.102 38.9531 13.8349 37.2202 13.8349 35.0825C13.8349 32.9448 12.102 31.2119 9.96434 31.2119C7.82667 31.2119 6.09375 32.9448 6.09375 35.0825C6.09375 37.2202 7.82667 38.9531 9.96434 38.9531Z" fill="#F7325A"/>
<path d="M60.2827 38.9531C62.4204 38.9531 64.1533 37.2202 64.1533 35.0825C64.1533 32.9448 62.4204 31.2119 60.2827 31.2119C58.145 31.2119 56.4121 32.9448 56.4121 35.0825C56.4121 37.2202 58.145 38.9531 60.2827 38.9531Z" fill="#44C8EF"/>
<path d="M17.623 26.3531V43.6472C17.623 44.3884 18.0348 45.1296 18.6936 45.5413L34.0113 54.3531C34.6701 54.7648 35.4936 54.7648 36.2348 54.3531L51.5525 45.5413C52.2113 45.1296 52.623 44.3884 52.623 43.6472V26.3531C52.623 25.6119 52.2113 24.8707 51.5525 24.459L36.2348 15.6472C35.576 15.2354 34.7525 15.2354 34.0113 15.6472L18.6936 24.459C18.0348 24.8707 17.623 25.6119 17.623 26.3531Z" fill="#FFF050"/>
<path d="M35.1646 22.6469L39.0352 24.8704C39.5293 25.1998 40.1881 24.9527 40.5176 24.4586C40.847 23.9645 40.5999 23.3057 40.1058 22.9763L35.7411 20.4233C35.4117 20.2586 34.9999 20.2586 34.6705 20.4233L33.5999 21.0822C33.2705 21.2469 33.0234 21.6586 33.0234 22.0704V48.2586C33.0234 48.8351 33.5176 49.3292 34.094 49.3292C34.6705 49.3292 35.1646 48.8351 35.1646 48.2586V36.7292H39.0352C39.6117 36.7292 40.1058 36.2351 40.1058 35.6586C40.1058 35.0822 39.6117 34.588 39.0352 34.588H35.1646V22.6469Z" fill="#FAC01E"/>
<path d="M48.8352 27.9996L43.3999 24.8702C42.9058 24.5408 42.247 24.7879 41.9176 25.282C41.5882 25.7761 41.8352 26.4349 42.3293 26.7643L43.9764 27.7526V43.8937C43.9764 44.4702 44.4705 44.9643 45.047 44.9643C45.6235 44.9643 46.1176 44.4702 46.1176 43.8937V29.0702L47.7646 30.0584C48.2587 30.3879 48.9176 30.1408 49.247 29.6467C49.494 28.9879 49.3293 28.329 48.8352 27.9996Z" fill="#FAC01E"/>
<path d="M28.0824 45.8703L23.6353 34.7526V43.3173C23.6353 43.8938 23.1412 44.3879 22.5647 44.3879C21.9883 44.3879 21.4941 43.8938 21.4941 43.3173V29.0703C21.4941 28.4938 21.9883 27.9997 22.5647 27.9997C22.9765 27.9997 23.3883 28.2467 23.553 28.6585L28 39.7762V25.7762C28 25.1997 28.4941 24.7056 29.0706 24.7056C29.6471 24.7056 30.1412 25.1997 30.1412 25.7762V45.4585C30.1412 46.035 29.6471 46.5291 29.0706 46.5291C28.6588 46.5291 28.2471 46.282 28.0824 45.8703Z" fill="#FAC01E"/>
<path d="M52.1292 23.553L36.8116 14.6589C35.8233 14.0824 34.5057 14.0824 33.5174 14.6589L18.1998 23.553C17.2116 24.1295 16.5527 25.2001 16.5527 26.4354V43.7295C16.5527 44.8824 17.2116 45.953 18.1998 46.6119L33.5174 55.4236C34.5057 56.0001 35.8233 56.0001 36.8116 55.4236L52.1292 46.6119C53.1174 46.0354 53.7763 44.9648 53.7763 43.7295V26.353C53.7763 25.2001 53.1174 24.1295 52.1292 23.553ZM51.5527 43.7295C51.5527 44.1413 51.3057 44.4707 50.9763 44.7177L35.6586 53.5295C35.3292 53.6942 34.9174 53.6942 34.588 53.5295L19.2704 44.6354C18.941 44.4707 18.6939 44.0589 18.6939 43.6472V26.353C18.6939 25.9413 18.941 25.6119 19.2704 25.3648L34.588 16.553C34.9174 16.3883 35.3292 16.3883 35.6586 16.553L50.9763 25.3648C51.3057 25.5295 51.5527 25.9413 51.5527 26.353V43.7295Z" fill="#FFD42D"/>
<path d="M9.96542 11.5295C10.8751 11.5295 11.6125 10.7921 11.6125 9.88241C11.6125 8.97276 10.8751 8.23535 9.96542 8.23535C9.05577 8.23535 8.31836 8.97276 8.31836 9.88241C8.31836 10.7921 9.05577 11.5295 9.96542 11.5295Z" fill="#99E64B"/>
<path d="M58.1412 59.7057C59.0508 59.7057 59.7883 58.9683 59.7883 58.0587C59.7883 57.149 59.0508 56.4116 58.1412 56.4116C57.2316 56.4116 56.4941 57.149 56.4941 58.0587C56.4941 58.9683 57.2316 59.7057 58.1412 59.7057Z" fill="#FFD42D"/>
</g>
<defs>
<clipPath id="clip0_1395_219">
<rect width="70" height="70" fill="white"/>
</clipPath>
</defs>
</svg>
