<svg width="70" height="70" viewBox="0 0 70 70" fill="none" xmlns="http://www.w3.org/2000/svg">
<g clip-path="url(#clip0_1395_211)">
<path d="M0 48.6708C0 51.8826 3.87059 53.3649 6.25882 51.2237C10.2118 47.6002 13.1765 46.1179 17.5412 45.6237C19.4353 45.459 21 43.8943 21 42.0002V14.1649C21 12.2708 19.4353 10.6237 17.4588 10.7061C9.14118 11.1179 3.21176 13.1767 0.247059 19.0237C0.082353 19.5179 0 20.012 0 20.5061V48.6708Z" fill="#0048D4"/>
<path d="M70 48.6708C70 51.8826 66.1294 53.3649 63.7412 51.2237C59.7882 47.6002 56.8235 46.1179 52.4588 45.6237C50.5647 45.459 49 43.8943 49 42.0002V14.1649C49 12.2708 50.5647 10.6237 52.5412 10.7061C60.7765 11.1179 66.7059 13.1767 69.6706 18.859C69.9176 19.3531 70.0824 19.9296 70.0824 20.5061V48.6708H70Z" fill="#0048D4"/>
<path fill-rule="evenodd" clip-rule="evenodd" d="M68.9294 17.7884L65.5529 18.9413C42.1647 26.6002 27.4235 26.4355 4.28235 18.859L1.15294 17.7061C0.576471 18.4472 0.247059 19.0237 0.164706 19.9296C0 20.0943 0 20.259 0 20.4237V20.8355V49.8237C0 53.7766 2.14118 57.4002 5.84706 58.7178C22.4824 64.6472 47.1059 64.7296 64.0706 58.7178C67.7765 57.4002 70 53.6943 70 49.7414V20.8355V20.4237C70 20.259 70 20.0943 69.9176 20.0119C69.8353 19.0237 69.5059 18.5296 68.9294 17.7884Z" fill="#027EF1"/>
<path d="M11.6943 50.0704C12.7649 51.141 14.5767 51.141 15.6473 50.0704C16.7179 48.9998 16.7179 47.188 15.6473 46.1174L12.6826 43.1527L15.6473 40.188C16.7179 39.1174 16.7179 37.3057 15.6473 36.2351C14.5767 35.1645 12.7649 35.1645 11.6943 36.2351L7.24727 40.6821C5.84727 42.0821 5.84727 44.3057 7.24727 45.6233L11.6943 50.0704Z" fill="white"/>
<path d="M59.0469 50.0704C57.9763 51.141 56.1645 51.141 55.094 50.0704C54.0234 48.9998 54.0234 47.188 55.094 46.1174L58.0587 43.1527L55.094 40.188C54.0234 39.1174 54.0234 37.3057 55.094 36.2351C56.1645 35.1645 57.9763 35.1645 59.0469 36.2351L63.494 40.6821C64.894 42.0821 64.894 44.3057 63.494 45.6233L59.0469 50.0704Z" fill="white"/>
<path d="M42.9883 57.5645H26.9295C25.0354 57.5645 23.4707 55.9998 23.4707 54.1057V47.7645V41.5057C23.4707 39.6116 25.0354 38.0469 26.9295 38.0469H40.7648H43.0707C44.9648 38.0469 46.5295 39.6116 46.5295 41.5057V54.1057C46.5295 55.9998 44.9648 57.5645 42.9883 57.5645Z" fill="#FFBA33"/>
<path fill-rule="evenodd" clip-rule="evenodd" d="M35 30.9648H41.2588H41.3411C41.4235 30.9648 41.5058 30.9648 41.5058 30.9648H41.5882H43.647C44.2235 30.9648 44.7176 31.2943 44.9647 31.7884L48.5058 40.2707C48.5058 40.3531 48.5882 40.3531 48.5882 40.4354C48.6705 40.6001 48.6705 40.7648 48.8352 40.9296C49.1647 41.3413 49.3294 41.8354 49.3294 42.4119V42.4943C49.3294 44.9648 47.2705 47.0237 44.8 47.0237C43.7294 47.0237 42.8235 46.6943 42 46.1178C41.6705 45.8707 41.1764 45.8707 40.847 46.1178C40.1058 46.6943 39.1176 47.0237 38.047 47.0237C36.9764 47.0237 36.0705 46.6943 35.247 46.1178C34.9176 45.8707 34.4235 45.8707 34.0941 46.1178C33.3529 46.6943 32.3647 47.0237 31.2941 47.0237C30.2235 47.0237 29.3176 46.6943 28.4941 46.1178C28.1647 45.8707 27.6705 45.8707 27.3411 46.1178C26.6 46.6943 25.6117 47.0237 24.5411 47.0237C22.0705 47.0237 20.0117 44.9648 20.0117 42.4943V42.4119C20.0117 41.8354 20.1764 41.3413 20.5058 40.9296C20.5882 40.7648 20.6705 40.6001 20.7529 40.4354C20.7529 40.3531 20.7529 40.3531 20.8352 40.2707L24.7058 31.7884C24.9529 31.2943 25.447 30.9648 26.0235 30.9648H28H28.0823C28.1647 30.9648 28.247 30.9648 28.247 30.9648H28.3294H34.5882H34.6705C34.7529 30.9648 34.8352 30.9648 34.8352 30.9648C34.9176 30.9648 35 30.9648 35 30.9648Z" fill="#CE3B3B"/>
</g>
<defs>
<clipPath id="clip0_1395_211">
<rect width="70" height="70" fill="white"/>
</clipPath>
</defs>
</svg>
