<svg width="70" height="70" viewBox="0 0 70 70" fill="none" xmlns="http://www.w3.org/2000/svg">
<g clip-path="url(#clip0_1395_170)">
<path d="M51.2239 69.5879H19.518C16.4709 69.5879 13.918 67.1173 13.918 63.9879V5.9291C13.918 2.88204 16.3886 0.329102 19.518 0.329102H51.3062C54.3533 0.329102 56.9062 2.79969 56.9062 5.9291V64.0703C56.8238 67.1173 54.3533 69.5879 51.2239 69.5879Z" fill="#3D6D93"/>
<path d="M51.2234 0.411133H47.0234C50.0705 0.411133 52.6234 2.88172 52.6234 6.01113V64.1523C52.6234 67.1994 50.1528 69.7523 47.0234 69.7523H51.2234C54.2705 69.7523 56.8234 67.2817 56.8234 64.1523V5.92878C56.8234 2.88172 54.3529 0.411133 51.2234 0.411133Z" fill="#335E80"/>
<path d="M45.6234 5.68224C45.6234 6.75283 44.7999 7.57636 43.7293 7.57636H27.0116C25.941 7.57636 25.1175 6.75283 25.1175 5.68224C25.1175 5.10577 24.6234 4.5293 23.9646 4.5293H20.094C18.941 4.5293 18.0352 5.43518 18.0352 6.58812V63.3293C18.0352 64.4822 18.941 65.3881 20.094 65.3881H50.4822C51.6352 65.3881 52.541 64.4822 52.541 63.3293V6.67047C52.541 5.51753 51.6352 4.61165 50.4822 4.61165H46.6116C46.1175 4.5293 45.6234 5.02341 45.6234 5.68224Z" fill="#F9F7F8"/>
<path d="M35.4124 5.02301C36.0037 5.02301 36.483 4.54369 36.483 3.95242C36.483 3.36115 36.0037 2.88184 35.4124 2.88184C34.8211 2.88184 34.3418 3.36115 34.3418 3.95242C34.3418 4.54369 34.8211 5.02301 35.4124 5.02301Z" fill="#335E80"/>
<path d="M12.7638 32.0353C19.4042 32.0353 24.7873 26.6522 24.7873 20.0118C24.7873 13.3714 19.4042 7.98828 12.7638 7.98828C6.12335 7.98828 0.740234 13.3714 0.740234 20.0118C0.740234 26.6522 6.12335 32.0353 12.7638 32.0353Z" fill="#FFE179"/>
<path d="M12.7639 7.98828C12.0227 7.98828 11.3639 8.07063 10.7051 8.15299C16.3874 9.14122 20.6698 14.0824 20.6698 20.0118C20.6698 25.9412 16.3874 30.8824 10.7051 31.8706C11.3639 31.953 12.1051 32.0353 12.7639 32.0353C19.4345 32.0353 24.7874 26.6824 24.7874 20.0118C24.7874 13.3412 19.4345 7.98828 12.7639 7.98828Z" fill="#FBD268"/>
<path d="M16.9644 26.2706H8.64671C7.49377 26.2706 6.58789 25.3647 6.58789 24.2118V15.8118C6.58789 14.6588 7.49377 13.7529 8.64671 13.7529H17.0467C18.1997 13.7529 19.1055 14.6588 19.1055 15.8118V24.2118C19.1055 25.3647 18.1173 26.2706 16.9644 26.2706Z" fill="#F58A97"/>
<path d="M16.9637 13.7529H12.7637C13.9166 13.7529 14.8225 14.6588 14.8225 15.8118V24.2118C14.8225 25.3647 13.9166 26.2706 12.7637 26.2706H16.9637C18.1166 26.2706 19.0225 25.3647 19.0225 24.2118V15.8118C19.1048 14.6588 18.1166 13.7529 16.9637 13.7529Z" fill="#F07281"/>
<path d="M12.7639 22.0708C13.901 22.0708 14.8227 21.149 14.8227 20.0119C14.8227 18.8749 13.901 17.9531 12.7639 17.9531C11.6268 17.9531 10.7051 18.8749 10.7051 20.0119C10.7051 21.149 11.6268 22.0708 12.7639 22.0708Z" fill="white"/>
<path d="M12.0235 60.5285C18.6639 60.5285 24.0471 55.1454 24.0471 48.505C24.0471 41.8646 18.6639 36.4814 12.0235 36.4814C5.38312 36.4814 0 41.8646 0 48.505C0 55.1454 5.38312 60.5285 12.0235 60.5285Z" fill="#8FD8FA"/>
<path d="M12.0243 36.3994C11.2831 36.3994 10.542 36.4818 9.80078 36.6465C15.4008 37.7171 19.6008 42.5759 19.6008 48.5053C19.6008 54.4347 15.4008 59.2935 9.80078 60.3641C10.542 60.5288 11.2831 60.6112 12.0243 60.6112C18.6949 60.6112 24.0478 55.2582 24.0478 48.5876C24.0478 41.9171 18.6949 36.3994 12.0243 36.3994Z" fill="#6BCDFE"/>
<path d="M15.8946 43.8115C14.9063 42.7409 13.2593 42.5762 12.1063 43.5644C11.5299 44.0585 11.2005 44.7997 11.2005 45.6232V46.1997C9.30635 46.2821 7.49458 45.4585 6.25929 43.9762C6.09458 43.7291 5.76517 43.8115 5.68282 44.1409C5.27106 45.6232 4.61223 49.3291 8.89459 51.2232C8.07106 51.7997 7.08282 52.1291 6.09458 52.2938C5.84753 52.3762 5.92988 52.788 6.01223 52.9527C6.424 54.1056 11.5299 54.5997 14.5769 52.0468C16.4711 50.4821 17.0475 48.2585 17.2946 47.0232C17.624 46.6938 18.1181 46.1174 18.4475 45.2115C18.6122 44.7997 18.6946 44.4703 18.7769 44.0585C18.8593 43.5644 18.3652 43.1527 17.8711 43.3997C17.7064 43.4821 17.4593 43.5644 17.2122 43.6468C16.6358 43.9762 16.1416 43.8938 15.8946 43.8115Z" fill="white"/>
<path d="M57.9767 60.5285C64.6171 60.5285 70.0002 55.1454 70.0002 48.505C70.0002 41.8646 64.6171 36.4814 57.9767 36.4814C51.3362 36.4814 45.9531 41.8646 45.9531 48.505C45.9531 55.1454 51.3362 60.5285 57.9767 60.5285Z" fill="#F58A97"/>
<path d="M57.9768 36.3994C57.2356 36.3994 56.5768 36.4818 55.918 36.5641C61.6003 37.5524 65.8827 42.4935 65.8827 48.4229C65.8827 54.3524 61.6003 59.2935 55.918 60.2818C56.5768 60.3641 57.318 60.4465 57.9768 60.4465C64.6474 60.4465 70.0003 55.0935 70.0003 48.4229C70.0003 41.8347 64.6474 36.3994 57.9768 36.3994Z" fill="#F07281"/>
<path d="M55.0117 44.3872C55.0117 44.0578 55.3411 43.8931 55.5882 44.0578L62.9176 48.2578C63.1647 48.4225 63.1647 48.8342 62.9176 48.999L55.5882 53.199C55.3411 53.3637 55.0117 53.199 55.0117 52.8695V44.3872Z" fill="white"/>
<path d="M57.9767 32.0353C64.6171 32.0353 70.0002 26.6522 70.0002 20.0118C70.0002 13.3714 64.6171 7.98828 57.9767 7.98828C51.3362 7.98828 45.9531 13.3714 45.9531 20.0118C45.9531 26.6522 51.3362 32.0353 57.9767 32.0353Z" fill="#8FD8FA"/>
<path d="M57.9768 7.98828C57.2356 7.98828 56.5768 8.07063 55.918 8.15299C61.6003 9.14122 65.8827 14.0824 65.8827 20.0118C65.8827 25.9412 61.6003 30.8824 55.918 31.8706C56.5768 31.953 57.318 32.0353 57.9768 32.0353C64.6474 32.1177 70.0003 26.6824 70.0003 20.0118C70.0003 13.3412 64.6474 7.98828 57.9768 7.98828Z" fill="#6BCDFE"/>
<path d="M61.6009 12.4355H59.1303C57.4009 12.4355 56.0009 13.8355 56.0009 15.565V18.612H54.3538C53.7773 18.612 53.2832 19.1061 53.2832 19.6826C53.2832 20.2591 53.7773 20.7532 54.3538 20.7532H56.0009V27.4238C56.0009 28.0003 56.495 28.4944 57.0714 28.4944C57.6479 28.4944 58.142 28.0003 58.142 27.4238V20.7532H59.7891C60.3656 20.7532 60.8597 20.2591 60.8597 19.6826C60.8597 19.1061 60.3656 18.612 59.7891 18.612H58.142V15.6473C58.142 15.0708 58.6361 14.5767 59.2126 14.5767H61.6832C62.2597 14.5767 62.7538 14.0826 62.7538 13.5061C62.6714 12.9297 62.1773 12.4355 61.6009 12.4355Z" fill="white"/>
<path d="M35.1654 26.5998C30.8007 26.6821 27.2595 30.141 27.0124 34.5057C26.9301 35.6586 27.0948 36.7292 27.4242 37.7174C27.5066 37.8821 27.5066 38.1292 27.4242 38.3763L26.2713 41.588C26.1066 41.9998 26.5183 42.4939 27.0124 42.3292L29.236 41.5057C29.5654 41.4233 29.8948 41.4233 30.1418 41.6704C31.6242 42.8233 33.5183 43.5645 35.5771 43.4821C40.1066 43.3998 43.7301 39.6116 43.7301 35.0821C43.8124 30.3057 39.9418 26.4351 35.1654 26.5998Z" fill="#AEE69C"/>
<path d="M35.1656 26.5998C34.5068 26.5998 33.9303 26.6821 33.2715 26.8469C36.895 27.7527 39.6127 31.1292 39.6127 34.9998C39.6127 38.8704 36.895 42.1645 33.2715 43.1527C34.0127 43.3174 34.7538 43.3998 35.5774 43.3998C40.1068 43.3174 43.7303 39.5292 43.7303 34.9998C43.8127 30.3057 39.9421 26.4351 35.1656 26.5998Z" fill="#89DAA4"/>
<path d="M36.4828 38.0464C35.9064 38.0464 35.4122 37.8817 34.9181 37.6346L33.3534 36.6464C32.3652 36.0699 31.7887 34.917 31.8711 33.764C31.9534 33.1052 32.1181 32.4464 32.5299 31.8699C32.8593 31.3758 33.4358 31.2111 33.9299 31.5405C34.424 31.8699 34.5887 32.4464 34.2593 32.9405C34.0946 33.2699 33.9299 33.5993 33.9299 34.0111C33.9299 34.3405 34.0946 34.7523 34.3417 34.917L35.9064 35.9052C36.2358 36.0699 36.6475 36.0699 36.8946 35.9052C37.224 35.7405 37.4711 35.4111 37.6358 35.1641C37.9652 34.6699 38.5417 34.5052 39.0358 34.8346C39.5299 35.164 39.6946 35.7405 39.3652 36.2346C39.0358 36.8111 38.5416 37.3052 37.9652 37.717C37.6358 37.8817 37.0593 38.0464 36.4828 38.0464Z" fill="white"/>
</g>
<defs>
<clipPath id="clip0_1395_170">
<rect width="70" height="70" fill="white"/>
</clipPath>
</defs>
</svg>
