<svg width="70" height="70" viewBox="0 0 70 70" fill="none" xmlns="http://www.w3.org/2000/svg">
<g clip-path="url(#clip0_1395_148)">
<path d="M46.2811 36.1535H30.4693C29.8105 36.1535 29.3164 35.6594 29.3164 35.0006C29.3164 34.3418 29.8105 33.8477 30.4693 33.8477H46.2811C46.9399 33.8477 47.4341 34.3418 47.4341 35.0006C47.4341 35.6594 46.9399 36.1535 46.2811 36.1535Z" fill="#1B498F"/>
<path d="M22.5641 14.6592C22.2346 14.6592 21.9052 14.4945 21.6582 14.2474C21.2464 13.7533 21.3288 13.0121 21.8229 12.6827L27.5052 8.15331C27.6699 7.9886 27.917 7.90625 28.2464 7.90625H46.2817C46.9405 7.90625 47.4346 8.40037 47.4346 9.05919C47.4346 9.71801 46.9405 10.2121 46.2817 10.2121H28.6582L23.3052 14.4945C23.0582 14.5768 22.8111 14.6592 22.5641 14.6592Z" fill="#1B498F"/>
<path d="M46.2817 62.0947H28.2464C27.9994 62.0947 27.7523 62.0124 27.5052 61.8477L21.8229 57.3183C21.3288 56.9065 21.2464 56.2477 21.6582 55.7535C22.0699 55.2594 22.7288 55.1771 23.2229 55.5888L28.5758 59.8712H46.2817C46.9405 59.8712 47.4346 60.3653 47.4346 61.0241C47.4346 61.683 46.9405 62.0947 46.2817 62.0947Z" fill="#1B498F"/>
<path d="M56.4125 18.0353L42.8242 11.2823V6.75293L56.4125 13.5059V18.0353Z" fill="#C97CCC"/>
<path d="M56.4121 18.0353L70.0003 11.2823V6.75293L56.4121 13.5059V18.0353Z" fill="#9E4DA1"/>
<path d="M70.0004 6.75294L56.4121 0L42.9062 6.75294L56.4945 13.5059L70.0004 6.75294Z" fill="#853687"/>
<path d="M56.4125 44.0587L42.8242 37.3058V32.7764L56.4125 39.5293V44.0587Z" fill="#C97CCC"/>
<path d="M56.4121 44.059L70.0003 37.2237V32.6943L56.4121 39.5296V44.059Z" fill="#9E4DA1"/>
<path d="M70.0007 32.7764L56.4125 26.0234L42.8242 32.7764L56.4125 39.5293L70.0007 32.7764Z" fill="#853687"/>
<path d="M56.4125 70.0001L42.8242 63.2472V58.7178L56.4125 65.4707V70.0001Z" fill="#C97CCC"/>
<path d="M56.4121 70.0001L70.0003 63.2472V58.7178L56.4121 65.4707V70.0001Z" fill="#9E4DA1"/>
<path d="M70.0007 58.7178L56.4125 51.9648L42.8242 58.7178L56.4125 65.4707L70.0007 58.7178Z" fill="#853687"/>
<path d="M1.15234 59.8701C14.9053 59.8701 26.0229 48.7524 26.0229 34.9995C26.0229 21.2466 14.8229 10.1289 1.15234 10.1289V59.8701Z" fill="#32ADDB"/>
<path d="M1.15294 9.05859C0.494118 9.05859 0 9.55271 0 10.1292V59.788C0 60.4468 0.494118 60.9409 1.15294 60.9409C15.4824 60.9409 27.0941 49.3292 27.0941 34.9998C27.0941 20.6704 15.4824 9.05859 1.15294 9.05859ZM2.22353 58.6351V47.4351C5.35294 47.5174 8.4 47.8468 11.2824 48.4233C9.22353 54.0233 5.92941 57.8939 2.22353 58.6351ZM2.22353 45.2115V36.1527H13.5059C13.4235 39.7762 12.8471 43.2351 12.0235 46.2821C8.97647 45.6233 5.68235 45.2939 2.22353 45.2115ZM11.2824 21.5762C8.48235 22.1527 5.43529 22.4821 2.22353 22.5645V11.3645C5.92941 12.1057 9.22353 15.9762 11.2824 21.5762ZM12.0235 23.7174C12.9294 26.7645 13.4235 30.2233 13.5059 33.8468H2.22353V24.788C5.68235 24.7057 8.97647 24.3762 12.0235 23.7174ZM15.8118 36.1527H24.7882C24.5412 40.9292 22.8941 45.3762 20.2588 48.9998C18.4471 48.0939 16.4706 47.4351 14.2471 46.7762C15.1529 43.5645 15.7294 40.0233 15.8118 36.1527ZM15.8118 33.8468C15.7294 29.9762 15.1529 26.3527 14.2471 23.1409C16.3882 22.5645 18.3647 21.8233 20.2588 20.9174C22.9765 24.5409 24.6235 28.988 24.7882 33.7645H15.8118V33.8468ZM18.7765 19.188C17.2118 19.9292 15.4824 20.5057 13.5882 20.9998C12.3529 17.4586 10.6235 14.5762 8.5647 12.4351C12.5176 13.8351 16.0588 16.1409 18.7765 19.188ZM8.5647 57.4821C10.6235 55.4233 12.3529 52.4586 13.5882 48.9174C15.4824 49.4115 17.2118 50.0704 18.7765 50.7292C16.0588 53.8586 12.5176 56.1645 8.5647 57.4821Z" fill="#298BB0"/>
</g>
<defs>
<clipPath id="clip0_1395_148">
<rect width="70" height="70" fill="white"/>
</clipPath>
</defs>
</svg>
