<svg width="70" height="70" viewBox="0 0 70 70" fill="none" xmlns="http://www.w3.org/2000/svg">
<g clip-path="url(#clip0_1395_123)">
<path d="M60.2824 34.259C58.8824 37.5531 58.8 41.6707 60.2 44.9649L61.3529 47.2708H10.5412C10.5412 47.2708 1.07059 41.9178 10.5412 32.5296L60.9412 31.459L60.2824 34.259Z" fill="#F1F2F2"/>
<path d="M61.3529 47.2708H10.5412C10.5412 47.2708 1.07059 41.9178 10.5412 32.5296L60.9412 31.459L60.2824 34.259C59.9529 35.0002 59.7059 35.7413 59.5412 36.5649H13.4235C11.6118 36.5649 10.2118 38.0472 10.2118 39.7766C10.2118 41.5884 11.6941 42.9884 13.4235 42.9884H59.5412C59.7059 43.6472 59.8706 44.306 60.1177 44.8825L61.3529 47.2708Z" fill="#DEE1E1"/>
<path d="M60.6119 49.4118H14.1648C8.56482 49.4118 3.78835 45.8707 3.78835 40.2707C3.78835 39.0354 3.54129 37.4707 3.95305 36.3177C5.35305 32.4471 9.05894 29.7295 13.4236 29.7295H61.106C62.3413 29.7295 63.4119 30.7177 63.4119 32.0354C63.4119 33.353 62.4236 34.3413 61.106 34.3413H25.0354L21.4942 35.1648L18.4472 34.3413H13.4236C10.3766 34.3413 7.906 36.8118 7.906 39.8589C7.906 42.906 10.3766 45.3766 13.4236 45.3766H61.106C62.3413 45.3766 63.4119 46.3648 63.4119 47.6824C63.4119 47.7648 63.4119 47.8471 63.4119 47.9295C63.2472 49.0001 61.7648 49.4118 60.6119 49.4118Z" fill="#B7E546"/>
<path d="M63.3283 47.9291C63.2459 48.4232 62.9988 48.9174 62.6694 49.2468C62.2577 49.6585 61.6812 49.9056 61.0224 49.9056L37.4694 51.3056L13.34 49.9056C7.74003 49.9056 3.29297 45.3762 3.29297 39.8585C3.29297 38.3762 3.62238 37.0585 4.1165 35.8232V37.8821C4.1165 43.4821 8.64591 47.9291 14.1636 47.9291H63.3283Z" fill="#ABD641"/>
<path d="M25.0345 40.9291V34.3408H20.3404L18.6934 34.5055L18.7757 40.682C18.7757 40.8467 18.9404 41.0114 19.1875 40.9291L20.3404 40.5996L21.6581 40.1055C21.7404 40.1055 21.8228 40.1055 21.9051 40.1055L24.7051 41.1761C24.8698 41.2585 25.0345 41.0938 25.0345 40.9291Z" fill="#EF5227"/>
<path d="M20.3414 34.2588V40.6L18.859 41.1764C18.6943 41.2588 18.4473 41.0941 18.4473 40.9294V34.3411H20.3414V34.2588Z" fill="#D83724"/>
<path d="M53.7758 23.9645V27.1762L53.6111 28.5762C53.6111 29.1527 53.1993 29.5645 52.6228 29.5645L14.4111 29.3998C13.8346 29.3998 13.4228 28.988 13.4228 28.4115L13.1758 23.8821L32.6934 23.0586L53.7758 23.9645Z" fill="#FDCD08"/>
<path d="M65.471 24.2113C64.8945 24.2113 64.4004 23.7172 64.4004 23.1407V11.9407C64.4004 11.3642 64.8945 10.8701 65.471 10.8701C66.0475 10.8701 66.5416 11.3642 66.5416 11.9407V23.0584C66.5416 23.7172 66.1298 24.2113 65.471 24.2113Z" fill="#77777F"/>
<path d="M63.5764 26.6826C62.6705 28.9061 61.7646 31.0473 60.8588 33.2709C60.2823 34.5885 61.2705 36.0709 62.6705 36.0709L64.3176 36.2356H68.3529C69.7529 36.2356 70.7411 34.7532 70.1646 33.4356L68.3529 28.8238L67.1999 26.6826H63.5764Z" fill="#FDCD08"/>
<path d="M65.0588 29.647C66.2117 29.7293 67.447 29.4823 68.4352 28.8234L67.447 26.2705L65.7999 26.7646L63.6588 26.4352C63.4117 27.094 62.9999 28.0823 62.7529 28.7411C62.094 30.3058 61.5176 31.7882 60.8588 33.3529C60.2823 34.6705 61.2705 36.1529 62.6705 36.1529H64.9764C63.5764 36.1529 62.5882 34.6705 63.1646 33.3529C63.6588 32.1999 64.0705 31.047 64.5646 29.894C64.5646 29.7293 64.8117 29.5646 65.0588 29.647Z" fill="#FAAB18"/>
<path d="M68.8474 24.129C68.8474 22.6467 67.9415 21.4114 66.6238 20.9996C66.2944 20.9173 65.8003 21.082 65.3885 21.082C63.5768 21.082 62.4238 22.3173 62.4238 24.129C62.4238 25.9408 63.8238 27.0937 65.6356 27.0937C66.0474 27.0937 66.2944 27.4232 66.6238 27.3408C67.8591 26.8467 68.8474 25.6114 68.8474 24.129Z" fill="#FDCD08"/>
<path d="M66.5405 27.3412C66.2111 27.4235 65.8817 27.5059 65.4699 27.5059C63.6581 27.5059 62.1758 26.0235 62.1758 24.1294C62.1758 22.3176 63.6581 20.7529 65.4699 20.7529C65.8817 20.7529 66.2111 20.8353 66.5405 20.9176C65.2228 21.3294 64.317 22.647 64.317 24.047C64.317 25.6118 65.3052 26.847 66.5405 27.3412Z" fill="#FAAB18"/>
<path d="M65.7999 13.0941L56.3293 16.3882L53.7764 16.1412L35.4117 23.6353C34.1764 24.0471 32.7764 24.0471 31.4588 23.6353L13.094 16.3882H10.5411L1.07052 13.0941C-6.89328e-05 12.6824 -6.89328e-05 11.2 1.07052 10.7882L31.8705 0.247059C32.9411 -0.0823529 34.0117 -0.0823529 35.0823 0.247059L65.7999 10.8706C66.8705 11.2 66.8705 12.7647 65.7999 13.0941Z" fill="#868491"/>
<path d="M56.3293 15.3998V16.388L35.4116 23.6351C34.1763 24.0469 32.7763 24.0469 31.4587 23.6351L10.541 16.388V15.3998C10.541 13.341 12.0234 11.6116 13.9998 11.2821C20.4234 10.1292 26.9293 9.55273 33.4351 9.55273C39.941 9.55273 46.4469 10.1292 52.8704 11.2821C53.8587 11.4469 54.7645 11.941 55.341 12.7645C55.9998 13.5057 56.3293 14.4116 56.3293 15.3998Z" fill="#77777F"/>
<path d="M53.7768 15.3996V23.9643H13.5885L13.4238 15.729C13.4238 14.9055 14.0003 14.2466 14.7415 14.0819C15.1532 13.9996 15.2356 13.6702 15.6474 13.5878C21.4944 12.5996 27.4238 12.1055 33.3532 12.1055C39.6944 12.1055 46.0356 12.6819 52.2944 13.7525C52.7062 13.8349 53.0356 13.9996 53.2826 14.329C53.6121 14.6584 53.7768 15.0702 53.7768 15.3996Z" fill="#868491"/>
<path d="M53.7758 27.1762V28.7409C53.7758 29.3174 53.364 29.7292 52.7875 29.7292H14.164C13.5875 29.7292 13.1758 29.3174 13.1758 28.7409V23.9645L14.4934 23.0586L15.8111 23.9645V26.5174C15.8111 26.9292 16.1405 27.2586 16.5523 27.2586H53.7758V27.1762Z" fill="#FAAB18"/>
<path d="M15.7287 13.5879V23.9644H13.1758V15.3997C13.1758 14.5761 13.7523 13.9173 14.4934 13.7526C14.9052 13.7526 15.317 13.6702 15.7287 13.5879Z" fill="#77777F"/>
<path d="M64.0701 65.1407C62.6701 61.8466 62.6701 58.1407 64.0701 54.8466L64.4819 52.8701H5.92895C5.92895 52.8701 -0.659285 60.0348 6.34071 67.0348L64.8937 67.4466L64.0701 65.1407Z" fill="#F1F2F2"/>
<path d="M64.8937 67.4466L6.34071 67.0348C-0.659285 60.0348 5.92895 52.8701 5.92895 52.8701L64.8113 52.9525L64.0701 54.7642C63.8231 55.4231 63.576 56.0819 63.4113 56.7407H9.63483C7.82307 56.7407 6.42307 58.2231 6.42307 59.9525C6.42307 61.7642 7.90542 63.1642 9.63483 63.1642H63.4113C63.576 63.8231 63.7407 64.3995 64.0701 65.0584L64.8937 67.4466Z" fill="#DEE1E1"/>
<path d="M63.9047 69.5883L10.9518 69.5059C5.35179 69.5059 0.492968 66.3765 0.492968 60.7765C0.492968 59.0471 0.0812038 56.5765 0.82238 55.1765C2.55179 52.0471 5.84591 49.9883 9.63415 49.9883H64.893C66.1283 49.9883 67.1989 50.9765 67.1989 52.2942C67.1989 53.5295 66.2106 54.6 64.893 54.6H51.2224L47.6812 55.4236L44.6341 54.6H9.63415C6.58709 54.6 4.1165 57.0706 4.1165 60.1177C4.1165 63.1648 6.58709 65.6353 9.63415 65.6353H64.893C66.1283 65.6353 67.1989 66.6236 67.1989 67.9412C67.1989 68.1059 67.1989 68.1883 67.1989 68.353C66.9518 69.2589 64.9753 69.5883 63.9047 69.5883Z" fill="#EF5227"/>
<path d="M67.1173 68.1882C67.035 68.6823 66.7879 69.0941 66.4585 69.4235C66.0467 69.8352 65.4702 70.0823 64.8114 70.0823H9.63495C4.1173 70.0823 -0.412109 65.5529 -0.412109 59.9529C-0.412109 57.9764 0.164361 56.0823 1.1526 54.5176V58.0588C1.1526 63.6588 5.68201 68.1058 11.1997 68.1058H67.1173V68.1882Z" fill="#D83724"/>
<path d="M51.2224 61.1061V54.4355H46.7753L44.7988 54.5179L44.8812 60.7767C44.8812 60.9414 45.0459 61.1061 45.2929 61.0238L46.7753 60.612L47.8459 60.2003C47.9282 60.2003 48.0106 60.2003 48.0929 60.2003L50.8929 61.2708C50.9753 61.4355 51.2224 61.3532 51.2224 61.1061Z" fill="#FDCD08"/>
<path d="M46.7759 54.4355V60.6944L45.0465 61.3532C44.8818 61.4355 44.6348 61.2708 44.6348 61.1061V54.4355H46.7759Z" fill="#FAAB18"/>
</g>
<defs>
<clipPath id="clip0_1395_123">
<rect width="70" height="70" fill="white"/>
</clipPath>
</defs>
</svg>
