<svg width="70" height="70" viewBox="0 0 70 70" fill="none" xmlns="http://www.w3.org/2000/svg">
<g clip-path="url(#clip0_1395_376)">
<path d="M17.3774 15.5654L5.27148 33.6831V44.2243H29.4832V33.6831L17.3774 15.5654Z" fill="#BE27FF"/>
<path d="M5.27148 33.6831V39.2007C5.7656 38.8713 6.17737 38.5419 6.50678 38.0478L17.4597 21.7419L28.4127 38.0478C28.7421 38.5419 29.1538 38.9537 29.648 39.2007V33.6831L17.5421 15.5654L5.27148 33.6831Z" fill="#A61BEF"/>
<path d="M14.082 33.1885H20.6703V44.2238H14.082V33.1885Z" fill="#F7D959"/>
<path d="M15.7285 34.8359H20.6697V44.2242H15.7285V34.8359Z" fill="#F9EB57"/>
<path d="M41.918 36.8125H43.565V43.9772H41.918V36.8125Z" fill="#FECDAA"/>
<path d="M46.0355 34.8353C46.0355 37.8824 44.5531 39.2824 42.7414 39.2824C40.9296 39.2824 39.4473 37.8824 39.4473 34.8353C39.4473 31.7882 40.9296 28.2471 42.7414 28.2471C44.5531 28.2471 46.0355 31.7882 46.0355 34.8353Z" fill="#AAFF32"/>
<path d="M51.8008 36.8125H53.4478V43.9772H51.8008V36.8125Z" fill="#FECDAA"/>
<path d="M55.9183 34.8353C55.9183 37.8824 54.436 39.2824 52.6242 39.2824C50.8124 39.2824 49.3301 37.8824 49.3301 34.8353C49.3301 31.7882 50.8124 28.2471 52.6242 28.2471C54.436 28.2471 55.9183 31.7882 55.9183 34.8353Z" fill="#AAFF32"/>
<path d="M61.7656 36.8125H63.4127V43.9772H61.7656V36.8125Z" fill="#FECDAA"/>
<path d="M33.3541 21.0822C34.2637 21.0822 35.0011 20.3448 35.0011 19.4351C35.0011 18.5255 34.2637 17.7881 33.3541 17.7881C32.4444 17.7881 31.707 18.5255 31.707 19.4351C31.707 20.3448 32.4444 21.0822 33.3541 21.0822Z" fill="#F9EB57"/>
<path d="M7.98886 5.68279C8.8985 5.68279 9.63591 4.94538 9.63591 4.03573C9.63591 3.12609 8.8985 2.38867 7.98886 2.38867C7.07921 2.38867 6.3418 3.12609 6.3418 4.03573C6.3418 4.94538 7.07921 5.68279 7.98886 5.68279Z" fill="#F9EB57"/>
<path d="M52.6232 23.3059C58.7178 23.3059 63.6585 18.3653 63.6585 12.2706C63.6585 6.17602 58.7178 1.23535 52.6232 1.23535C46.5286 1.23535 41.5879 6.17602 41.5879 12.2706C41.5879 18.3653 46.5286 23.3059 52.6232 23.3059Z" fill="#F9EB57"/>
<path d="M52.6244 0.412109C46.1186 0.412109 40.7656 5.6827 40.7656 12.2709C40.7656 18.8592 46.1186 24.1298 52.6244 24.1298C59.1303 24.1298 64.4833 18.8592 64.4833 12.2709C64.4833 5.6827 59.2127 0.412109 52.6244 0.412109ZM52.6244 22.4827C47.0244 22.4827 42.4127 17.9533 42.4127 12.2709C42.4127 6.58858 47.0244 2.05917 52.6244 2.05917C58.2245 2.05917 62.8362 6.58858 62.8362 12.2709C62.8362 17.8709 58.3068 22.4827 52.6244 22.4827Z" fill="#F9FF90"/>
<path d="M53.4479 6.01194V4.52958C53.4479 4.03547 53.1185 3.70605 52.6243 3.70605C52.1302 3.70605 51.8008 4.03547 51.8008 4.52958V6.01194C49.9067 6.4237 48.6714 8.40017 49.0832 10.2943C49.4949 11.9413 50.8949 13.0943 52.6243 13.0943C53.6949 13.0943 54.5185 13.9178 54.5185 14.9884C54.5185 16.059 53.6949 16.8825 52.6243 16.8825C51.5538 16.8825 50.7302 16.059 50.7302 14.9884V14.3296C50.7302 13.8355 50.4008 13.5061 49.9067 13.5061C49.4126 13.5061 49.0832 13.8355 49.0832 14.3296V14.9884C49.0832 16.6355 50.2361 18.1178 51.8008 18.4472V19.9296C51.8008 20.4237 52.1302 20.7531 52.6243 20.7531C53.1185 20.7531 53.4479 20.4237 53.4479 19.9296V18.4472C55.342 18.0355 56.5773 16.059 56.1655 14.1649C55.7537 12.5178 54.3538 11.3649 52.6243 11.3649C51.5538 11.3649 50.7302 10.5413 50.7302 9.47076C50.7302 8.40017 51.5538 7.57664 52.6243 7.57664C53.6949 7.57664 54.5185 8.40017 54.5185 9.47076V10.1296C54.5185 10.6237 54.8479 10.9531 55.342 10.9531C55.8361 10.9531 56.1655 10.6237 56.1655 10.1296V9.47076C56.2479 7.8237 55.0949 6.4237 53.4479 6.01194Z" fill="#F9FF90"/>
<path d="M69.1768 21.33H67.7768V19.93C67.7768 19.4359 67.4474 19.1064 66.9533 19.1064C66.4592 19.1064 66.1298 19.4359 66.1298 19.93V21.33H64.7298C64.2357 21.33 63.9062 21.6594 63.9062 22.1535C63.9062 22.6476 64.2357 22.977 64.7298 22.977H66.1298V24.377C66.1298 24.8712 66.4592 25.2006 66.9533 25.2006C67.4474 25.2006 67.7768 24.8712 67.7768 24.377V22.977H69.1768C69.671 22.977 70.0004 22.6476 70.0004 22.1535C70.0004 21.6594 69.671 21.33 69.1768 21.33Z" fill="#BE27FF"/>
<path d="M5.27059 15.8124H3.87059V14.4124C3.87059 13.9183 3.54118 13.5889 3.04706 13.5889C2.55294 13.5889 2.22353 13.9183 2.22353 14.4124V15.8124H0.823529C0.329412 15.8124 0 16.1418 0 16.6359C0 17.13 0.329412 17.4595 0.823529 17.4595H2.22353V18.8595C2.22353 19.3536 2.55294 19.683 3.04706 19.683C3.54118 19.683 3.87059 19.3536 3.87059 18.8595V17.4595H5.27059C5.76471 17.4595 6.09412 17.13 6.09412 16.6359C6.09412 16.1418 5.68235 15.8124 5.27059 15.8124Z" fill="#BE27FF"/>
<path d="M31.7061 2.63564H30.3061V1.23564C30.3061 0.741521 29.9767 0.412109 29.4826 0.412109C28.9885 0.412109 28.6591 0.741521 28.6591 1.23564V2.63564H27.2591C26.765 2.63564 26.4355 2.96505 26.4355 3.45917C26.4355 3.95329 26.765 4.2827 27.2591 4.2827H28.6591V5.6827C28.6591 6.17682 28.9885 6.50623 29.4826 6.50623C29.9767 6.50623 30.3061 6.17682 30.3061 5.6827V4.2827H31.7061C32.2003 4.2827 32.5297 3.95329 32.5297 3.45917C32.5297 2.96505 32.1179 2.63564 31.7061 2.63564Z" fill="#F9EB57"/>
<path d="M69.1772 47.5183H0.824219V43.0713H69.1772V47.5183Z" fill="#D6FF78"/>
<path d="M69.1772 47.5185H0.824219V45.2949H69.1772V47.5185Z" fill="#AAFF32"/>
<path d="M15.1523 47.5176L32.7759 69.5882L43.8112 59.7058L62.5876 55.2588L69.1759 47.5176H15.1523Z" fill="#1E416E"/>
<path d="M15.1536 47.5176H0.824219L8.56539 58.5529H17.3772L32.7772 69.5882L29.483 54.1882L15.1536 47.5176Z" fill="#153456"/>
<path d="M53.6944 47.5176L49.0003 52.2117H42.7415C42.2474 52.2117 41.918 52.5411 41.918 53.0352C41.918 53.5293 42.2474 53.8588 42.7415 53.8588H49.3297C49.5768 53.8588 49.7415 53.7764 49.9062 53.6117L56.0003 47.5176H53.6944Z" fill="#153456"/>
<path d="M65.8832 34.8353C65.8832 37.8824 64.4008 39.2824 62.589 39.2824C60.7773 39.2824 59.2949 37.8824 59.2949 34.8353C59.2949 31.7882 60.7773 28.2471 62.589 28.2471C64.4008 28.2471 65.8832 31.7882 65.8832 34.8353Z" fill="#AAFF32"/>
<path d="M17.3759 17.7884L30.1406 36.812C30.4701 37.3061 31.1289 37.6355 31.7054 37.6355C32.6936 37.6355 33.5171 36.812 33.5171 35.8237C33.5171 35.4943 33.4348 35.0825 33.1877 34.8355L17.3759 11.2002L1.56417 34.7531C0.987703 35.5767 1.23476 36.7296 2.05829 37.3061C2.3877 37.4708 2.71712 37.6355 3.04653 37.6355C3.623 37.6355 4.19947 37.3061 4.61123 36.812L17.3759 17.7884Z" fill="#F9EB57"/>
</g>
<defs>
<clipPath id="clip0_1395_376">
<rect width="70" height="70" fill="white"/>
</clipPath>
</defs>
</svg>
