<svg width="70" height="70" viewBox="0 0 70 70" fill="none" xmlns="http://www.w3.org/2000/svg">
<path d="M50.811 7.90599V15.8119H45.1287V7.90599H24.8699V15.8119H19.1875V7.90599C19.1875 4.77657 21.7404 2.22363 24.8699 2.22363H45.211C48.2581 2.22363 50.811 4.77657 50.811 7.90599Z" fill="#F7A539"/>
<path d="M66.624 46.2826V60.9414C66.624 64.6473 63.577 67.6943 59.8711 67.6943H10.1299C6.34166 67.6943 3.37695 64.6473 3.37695 60.9414V46.2826H16.9652V51.8825L35.0005 62.012L53.0358 51.8825V46.2002H66.624V46.2826Z" fill="#F7A539"/>
<path d="M70 22.5645V46.2821H53.0353V31.6233L35 21.4115L16.9647 31.6233V46.2821H0V22.5645C0 18.7762 3.04706 15.8115 6.75294 15.8115H63.1647C66.9529 15.8115 70 18.7762 70 22.5645Z" fill="#FFCC3E"/>
<path d="M35.0001 41.7534V62.0946L16.9648 51.8828V46.2005V31.624L35.0001 41.7534Z" fill="#904EDD"/>
<path d="M53.0353 46.2828V51.8828L35 62.0946V41.7534L53.0353 31.624V46.2828Z" fill="#7A40CC"/>
<path d="M53.0354 31.6239L35.0001 41.7533L16.9648 31.6239L35.0001 21.4121L53.0354 31.6239Z" fill="#9C69ED"/>
</svg>
