<svg width="70" height="70" viewBox="0 0 70 70" fill="none" xmlns="http://www.w3.org/2000/svg">
<g clip-path="url(#clip0_1395_351)">
<path d="M65.4707 58.718V65.4709H51.9648V58.718C51.9648 57.8121 52.3766 56.9062 52.9531 56.3298C53.5296 55.7533 54.4354 55.3415 55.3413 55.3415L56.0001 51.8827C56.2472 50.5651 57.4001 49.6592 58.7178 49.6592C60.0354 49.6592 61.1884 50.5651 61.4354 51.8827L62.0943 55.3415C63.9884 55.3415 65.4707 56.8239 65.4707 58.718Z" fill="#9C69ED"/>
<path d="M70.0003 60.9407C70.0003 63.4113 67.9414 65.4701 65.4708 65.4701V58.7171C65.4708 56.823 63.9885 55.3407 62.0944 55.3407L61.4355 51.8818C61.1885 50.5642 60.0356 49.6583 58.7179 49.6583C57.4003 49.6583 56.2473 50.5642 56.0003 51.8818L55.3414 55.3407C54.4355 55.3407 53.5297 55.7524 52.9532 56.3289C52.3767 56.9054 51.965 57.8113 51.965 58.7171V65.4701H47.4355V45.1289H70.0003V60.9407Z" fill="#60E8B3"/>
<path d="M41.752 58.718V65.4709H28.2461V58.718C28.2461 57.8121 28.6579 56.9062 29.2343 56.3298C29.8108 55.7533 30.7167 55.3415 31.6226 55.3415L32.2814 51.8827C32.5284 50.5651 33.6814 49.6592 34.999 49.6592C36.3167 49.6592 37.4696 50.5651 37.7167 51.8827L38.3755 55.3415C40.2696 55.3415 41.752 56.8239 41.752 58.718Z" fill="#7A40CC"/>
<path d="M47.435 45.1289V65.4701H41.7527V58.7171C41.7527 56.823 40.2703 55.3407 38.3762 55.3407L37.7174 51.8818C37.4703 50.5642 36.3174 49.6583 34.9997 49.6583C33.6821 49.6583 32.5292 50.5642 32.2821 51.8818L31.6233 55.3407C30.7174 55.3407 29.8115 55.7524 29.235 56.3289C28.6586 56.9054 28.2468 57.8113 28.2468 58.7171V65.4701H22.5645V45.1289H47.435Z" fill="#3AD894"/>
<path d="M18.0352 58.718V65.4709H4.5293V58.718C4.5293 57.8121 4.94106 56.9062 5.51753 56.3298C6.094 55.7533 6.99989 55.3415 7.90577 55.3415L8.56459 51.8827C8.81165 50.5651 9.96459 49.6592 11.2822 49.6592C12.5999 49.6592 13.7528 50.5651 13.9999 51.8827L14.6587 55.3415C16.5528 55.3415 18.0352 56.8239 18.0352 58.718Z" fill="#9C69ED"/>
<path d="M22.5647 45.1289V65.4701H18.0353V58.7171C18.0353 56.823 16.5529 55.3407 14.6588 55.3407L14 51.8818C13.7529 50.5642 12.6 49.6583 11.2824 49.6583C9.96471 49.6583 8.81176 50.5642 8.5647 51.8818L7.90588 55.3407C7 55.3407 6.09412 55.7524 5.51765 56.3289C4.94118 56.9054 4.52941 57.8113 4.52941 58.7171V65.4701C2.05882 65.4701 0 63.4113 0 60.9407V45.1289H22.5647Z" fill="#60E8B3"/>
<path d="M13.5875 15.8115L11.364 20.3409V28.2468L13.5875 32.7762H5.68164V15.8115H13.5875Z" fill="#7A40CC"/>
<path d="M64.318 15.8115V32.7762H56.4121L58.6356 28.2468V20.3409L56.4121 15.8115H64.318Z" fill="#9C69ED"/>
<path d="M70 9.05871V45.2117H0V9.05871C0 6.58812 2.05882 4.5293 4.52941 4.5293H65.4706C67.9412 4.5293 70 6.50577 70 9.05871ZM64.3176 32.7764V15.8117H56.4118L58.6353 20.3411V28.2469L56.4118 32.7764H64.3176ZM49.6588 32.7764V16.9646L35 9.05871L20.3412 16.9646V32.7764L35 40.6822L49.6588 32.7764ZM11.2824 20.3411L13.5059 15.8117H5.68235V32.7764H13.5882L11.3647 28.2469V20.3411H11.2824Z" fill="#FFCC3E"/>
<path d="M49.6588 16.9648V32.7766L35 40.6825V24.8707L49.6588 16.9648Z" fill="#7A40CC"/>
<path d="M49.6594 16.9645L35.0006 24.8704L20.3418 16.9645L35.0006 9.05859L49.6594 16.9645Z" fill="#9C69ED"/>
<path d="M35.0006 24.8707V40.6825L20.3418 32.7766V16.9648L35.0006 24.8707Z" fill="#9C69ED"/>
<path d="M63.8232 40.6825C64.7783 40.6825 65.5526 39.9082 65.5526 38.953C65.5526 37.9979 64.7783 37.2236 63.8232 37.2236C62.868 37.2236 62.0938 37.9979 62.0938 38.953C62.0938 39.9082 62.868 40.6825 63.8232 40.6825Z" fill="#F7A539"/>
<path d="M6.17668 40.6825C7.1318 40.6825 7.90609 39.9082 7.90609 38.953C7.90609 37.9979 7.1318 37.2236 6.17668 37.2236C5.22155 37.2236 4.44727 37.9979 4.44727 38.953C4.44727 39.9082 5.22155 40.6825 6.17668 40.6825Z" fill="#F7A539"/>
</g>
<defs>
<clipPath id="clip0_1395_351">
<rect width="70" height="70" fill="white"/>
</clipPath>
</defs>
</svg>
