<svg width="70" height="70" viewBox="0 0 70 70" fill="none" xmlns="http://www.w3.org/2000/svg">
<g clip-path="url(#clip0_1395_345)">
<path d="M63.8226 32.4471C65.552 32.4471 66.8697 33.9295 66.705 35.6589C65.4697 46.7766 58.0579 56.5766 47.1873 60.0354C27.1756 66.2942 8.72852 51.4707 8.72852 32.4471C8.72852 17.4589 20.0109 5.18832 34.505 3.54126C36.2344 3.37655 37.7991 4.6942 37.7991 6.42361V29.153C37.7991 30.9648 39.2815 32.4471 41.0932 32.4471H63.8226Z" fill="#FB545C"/>
<path d="M67.529 29.153H43.5643C42.1643 29.153 41.0938 28.0824 41.0938 26.6824V2.71772C41.0938 1.23537 42.4114 0.0824308 43.8937 0.247137C57.6467 1.56478 68.682 12.5177 69.9996 26.353C70.1643 27.8354 69.0114 29.153 67.529 29.153Z" fill="#F7AE4D"/>
<path d="M31.0471 55.9999C30.8824 56.494 30.6353 56.9882 30.4706 57.4823C30.3059 57.8117 30.3882 58.1411 30.5529 58.3882L32.8588 61.7646C33.1059 62.094 33.0235 62.5882 32.7765 62.9176L29.6471 65.9646C29.3176 66.294 28.8235 66.294 28.4941 66.047L25.1176 63.7411C24.8706 63.5764 24.4588 63.494 24.2118 63.6587C23.7176 63.9058 23.2235 64.0705 22.7294 64.2352C22.4 64.3176 22.1529 64.647 22.1529 64.9764L21.4118 69.0117C21.3294 69.4235 20.9176 69.7529 20.5059 69.7529H16.1412C15.7294 69.7529 15.3176 69.4235 15.2353 69.0117L14.4118 65.0587C14.3294 64.7293 14.0824 64.4823 13.8353 64.3176C13.3412 64.1529 12.8471 63.9058 12.3529 63.7411C12.0235 63.5764 11.6941 63.6587 11.4471 63.8234L8.07059 66.1293C7.74118 66.3764 7.24706 66.294 6.91765 66.047L3.87059 62.9999C3.54118 62.6705 3.54118 62.1764 3.78824 61.847L6.09412 58.4705C6.25882 58.2234 6.34118 57.8117 6.17647 57.5646C5.92941 57.0705 5.76471 56.5764 5.6 56.0823C5.51765 55.7529 5.18824 55.5058 4.85882 55.5058L0.823529 54.7646C0.329412 54.5176 0 54.1882 0 53.694V49.3293C0 48.9176 0.329412 48.5058 0.741176 48.4234L4.77647 47.6823C5.10588 47.5999 5.35294 47.3529 5.51765 47.1058C5.68235 46.6117 5.92941 46.1176 6.09412 45.6234C6.25882 45.294 6.17647 44.9646 6.01177 44.7176L3.70588 41.3411C3.45882 41.0117 3.54118 40.5176 3.78824 40.1882L6.91765 37.0587C7.24706 36.7293 7.74118 36.7293 8.07059 36.9764L11.4471 39.2823C11.6941 39.447 12.1059 39.5293 12.3529 39.3646C12.8471 39.1176 13.3412 38.9529 13.8353 38.7882C14.1647 38.7058 14.4118 38.3764 14.4118 38.047L15.1529 34.0117C15.2353 33.5999 15.6471 33.2705 16.0588 33.2705H20.4235C20.8353 33.2705 21.2471 33.5999 21.3294 34.0117L22.0706 38.047C22.1529 38.3764 22.4 38.6234 22.6471 38.7882C23.1412 38.9529 23.6353 39.1999 24.1294 39.3646C24.4588 39.5293 24.7882 39.447 25.0353 39.2823L28.4118 36.9764C28.7412 36.7293 29.2353 36.8117 29.5647 37.0587L32.6118 40.1058C32.9412 40.4352 32.9412 40.9293 32.6941 41.2587L30.3882 44.6352C30.2235 44.8823 30.1412 45.294 30.3059 45.5411C30.5529 46.0352 30.7176 46.5293 30.8824 47.0234C30.9647 47.3529 31.2941 47.5999 31.6235 47.5999L35.6588 48.3411C36.0706 48.4234 36.4 48.8352 36.4 49.247V53.6117C36.4 54.0234 36.0706 54.4352 35.6588 54.5176L31.6235 55.2587C31.4588 55.4234 31.1294 55.6705 31.0471 55.9999Z" fill="#47D681"/>
<path d="M18.2815 61.0238C13.0109 61.0238 8.72852 56.7415 8.72852 51.4709C8.72852 46.2003 13.0109 41.918 18.2815 41.918C23.552 41.918 27.8344 46.2003 27.8344 51.4709C27.752 56.7415 23.552 61.0238 18.2815 61.0238Z" fill="white"/>
</g>
<defs>
<clipPath id="clip0_1395_345">
<rect width="70" height="70" fill="white"/>
</clipPath>
</defs>
</svg>
