<svg width="70" height="70" viewBox="0 0 70 70" fill="none" xmlns="http://www.w3.org/2000/svg">
<path d="M52.5409 30.9646H49.5762V11.0352H52.5409C53.2821 11.0352 53.9409 11.694 53.9409 12.4352V29.5646C53.9409 30.3057 53.2821 30.9646 52.5409 30.9646Z" fill="#B5ADB6"/>
<path d="M9.63548 19.4352H12.6002V11.0352H9.63548C8.8943 11.0352 8.23548 11.694 8.23548 12.4352V17.9528C8.15313 18.7763 8.81195 19.4352 9.63548 19.4352Z" fill="#B5ADB6"/>
<path d="M9.63548 30.9645H12.6002V22.5645H9.63548C8.8943 22.5645 8.23548 23.2233 8.23548 23.9645V29.4821C8.15313 30.3056 8.81195 30.9645 9.63548 30.9645Z" fill="#B5ADB6"/>
<path d="M46.4473 70H15.6473C13.3414 70 11.4473 68.1059 11.4473 65.8V4.2C11.4473 1.89412 13.3414 0 15.6473 0H46.4473C48.7531 0 50.6473 1.89412 50.6473 4.2V65.7177C50.6473 68.1059 48.7531 70 46.4473 70Z" fill="#7A6E79"/>
<path d="M50.6464 4.2V65.7177C50.6464 68.0235 48.7523 69.9176 46.4464 69.9176H41.6699C43.9758 69.9176 45.8699 68.0235 45.8699 65.7177V4.2C45.8699 1.89412 43.9758 0 41.6699 0H46.4464C48.7523 0 50.6464 1.89412 50.6464 4.2Z" fill="#685E67"/>
<path d="M47.1062 4.20016V65.7178C47.1062 66.1296 46.7768 66.459 46.3651 66.459H15.6474C15.2357 66.459 14.9062 66.1296 14.9062 65.7178V4.20016C14.9062 3.7884 15.2357 3.45898 15.6474 3.45898H23.3886C23.718 3.45898 23.9651 3.62369 24.0474 3.87075L24.871 5.92957C25.118 6.50604 25.6121 6.83546 26.1886 6.83546H35.9062C36.4827 6.83546 36.9768 6.50604 37.2239 5.92957L38.0474 3.87075C38.1298 3.62369 38.3768 3.45898 38.7062 3.45898H46.4474C46.8592 3.54134 47.1062 3.87075 47.1062 4.20016Z" fill="#107295"/>
<path d="M47.1061 18.8584V37.3878H34.3414C33.6002 37.3878 32.9414 36.729 32.9414 35.9878V20.2584C32.9414 19.5172 33.6002 18.8584 34.3414 18.8584H47.1061Z" fill="#0D5F7F"/>
<path d="M47.1065 4.20016V65.7178C47.1065 66.1296 46.7771 66.459 46.3654 66.459H42.3301C42.7418 66.459 43.0713 66.1296 43.0713 65.7178V4.20016C43.0713 3.7884 42.7418 3.45898 42.3301 3.45898H46.3654C46.8595 3.54134 47.1065 3.87075 47.1065 4.20016Z" fill="#0D5F7F"/>
<path d="M30.7182 4.61188H27.9182C27.3418 4.61188 26.8477 4.11776 26.8477 3.54129C26.8477 2.96482 27.3418 2.4707 27.9182 2.4707H30.7182C31.2947 2.4707 31.7888 2.96482 31.7888 3.54129C31.7888 4.11776 31.2947 4.61188 30.7182 4.61188Z" fill="#433F43"/>
<path d="M34.178 4.61188C33.6015 4.61188 33.1074 4.11776 33.1074 3.54129C33.1074 2.96482 33.6015 2.4707 34.178 2.4707C34.7545 2.4707 35.2486 2.96482 35.2486 3.54129C35.2486 4.11776 34.7545 4.61188 34.178 4.61188Z" fill="#433F43"/>
<path d="M36.4822 62.9996H25.6116C25.0351 62.9996 24.541 62.5055 24.541 61.929C24.541 61.3525 25.0351 60.8584 25.6116 60.8584H36.4822C37.0587 60.8584 37.5528 61.3525 37.5528 61.929C37.5528 62.5055 37.0587 62.9996 36.4822 62.9996Z" fill="#64E0C4"/>
<path d="M60.3649 34.0118H34.3414C33.6002 34.0118 32.9414 33.353 32.9414 32.6118V16.8824C32.9414 16.1412 33.6002 15.4824 34.3414 15.4824H60.4473C61.1885 15.4824 61.8473 16.1412 61.8473 16.8824V32.6118C61.8473 33.353 61.1885 34.0118 60.3649 34.0118Z" fill="#64E0C4"/>
<path d="M61.8481 16.8824V32.6118C61.8481 33.353 61.1892 34.0118 60.4481 34.0118H56.7422C57.4834 34.0118 58.1422 33.353 58.1422 32.6118V16.8824C58.1422 16.1412 57.4834 15.4824 56.7422 15.4824H60.4481C61.1892 15.4824 61.8481 16.1412 61.8481 16.8824Z" fill="#27D1B3"/>
<path d="M42.1648 29.3169C41.9178 29.3169 41.6707 29.2345 41.4236 28.9875L37.8001 25.5286C37.5531 25.3639 37.4707 25.0345 37.4707 24.7875C37.4707 24.4581 37.5531 24.211 37.8001 24.0463L41.506 20.5051C41.9178 20.0933 42.5766 20.0933 42.9884 20.5051C43.4001 20.9169 43.4001 21.5757 42.9884 21.9875L40.106 24.7051L42.9884 27.4228C43.4001 27.8345 43.4001 28.4933 42.9884 28.9051C42.7413 29.2345 42.4119 29.3169 42.1648 29.3169Z" fill="#0D5F7F"/>
<path d="M52.5422 29.3166C52.2951 29.3166 51.9657 29.2342 51.801 28.9871C51.3892 28.5754 51.3892 27.9166 51.801 27.5048L54.6834 24.7871L51.801 22.0695C51.3892 21.6577 51.3892 20.9989 51.801 20.5871C52.2128 20.1754 52.8716 20.1754 53.2834 20.5871L56.9892 24.1283C57.2363 24.293 57.3187 24.6224 57.3187 24.8695C57.3187 25.1166 57.2363 25.446 56.9892 25.6107L53.2834 29.1519C53.0363 29.2342 52.7892 29.3166 52.5422 29.3166Z" fill="#0D5F7F"/>
<path d="M45.9528 29.3173C45.7881 29.3173 45.7057 29.3173 45.541 29.235C44.9645 28.9879 44.7175 28.4114 44.9645 27.835L47.7645 20.835C48.0116 20.2585 48.5881 20.0114 49.1645 20.2585C49.741 20.5055 49.9881 21.082 49.741 21.6585L46.941 28.6585C46.7763 29.0702 46.3645 29.3173 45.9528 29.3173Z" fill="#0D5F7F"/>
<path d="M20.3421 40.106C19.7656 40.106 19.2715 39.6119 19.2715 39.0354C19.2715 38.459 19.7656 37.9648 20.3421 37.9648C20.9185 37.9648 21.4127 38.459 21.4127 39.0354C21.3303 39.6119 20.9185 40.106 20.3421 40.106Z" fill="#64B9FC"/>
<path d="M29.1543 40.106H24.2132C23.6367 40.106 23.1426 39.6119 23.1426 39.0354C23.1426 38.459 23.6367 37.9648 24.2132 37.9648H29.1543C29.7308 37.9648 30.2249 38.459 30.2249 39.0354C30.2249 39.6119 29.7308 40.106 29.1543 40.106Z" fill="#64B9FC"/>
<path d="M20.3421 44.5533C19.7656 44.5533 19.2715 44.0592 19.2715 43.4827C19.2715 42.9062 19.7656 42.4121 20.3421 42.4121C20.9185 42.4121 21.4127 42.9062 21.4127 43.4827C21.3303 44.0592 20.9185 44.5533 20.3421 44.5533Z" fill="#27D1B3"/>
<path d="M38.6249 44.5533H24.2132C23.6367 44.5533 23.1426 44.0592 23.1426 43.4827C23.1426 42.9062 23.6367 42.4121 24.2132 42.4121H38.6249C39.2014 42.4121 39.6955 42.9062 39.6955 43.4827C39.6955 44.0592 39.2014 44.5533 38.6249 44.5533Z" fill="#27D1B3"/>
<path d="M20.3421 49.0826C19.7656 49.0826 19.2715 48.5885 19.2715 48.012C19.2715 47.4355 19.7656 46.9414 20.3421 46.9414C20.9185 46.9414 21.4127 47.4355 21.4127 48.012C21.3303 48.5885 20.9185 49.0826 20.3421 49.0826Z" fill="#A3E440"/>
<path d="M41.8367 49.0826H24.2132C23.6367 49.0826 23.1426 48.5885 23.1426 48.012C23.1426 47.4355 23.6367 46.9414 24.2132 46.9414H41.8367C42.4132 46.9414 42.9073 47.4355 42.9073 48.012C42.8249 48.5885 42.4132 49.0826 41.8367 49.0826Z" fill="#A3E440"/>
<path d="M20.3421 53.5298C19.7656 53.5298 19.2715 53.0357 19.2715 52.4593C19.2715 51.8828 19.7656 51.3887 20.3421 51.3887C20.9185 51.3887 21.4127 51.8828 21.4127 52.4593C21.3303 53.0357 20.9185 53.5298 20.3421 53.5298Z" fill="#A3E440"/>
<path d="M41.8367 53.5298H24.2132C23.6367 53.5298 23.1426 53.0357 23.1426 52.4593C23.1426 51.8828 23.6367 51.3887 24.2132 51.3887H41.8367C42.4132 51.3887 42.9073 51.8828 42.9073 52.4593C42.8249 53.0357 42.4132 53.5298 41.8367 53.5298Z" fill="#A3E440"/>
<path d="M28.6597 32.7769H20.3421C19.7656 32.7769 19.2715 32.2828 19.2715 31.7063C19.2715 31.1299 19.7656 30.6357 20.3421 30.6357H28.6597C29.2362 30.6357 29.7303 31.1299 29.7303 31.7063C29.7303 32.2828 29.2362 32.7769 28.6597 32.7769Z" fill="#FCC16D"/>
<path d="M28.6597 28.2476H20.3421C19.7656 28.2476 19.2715 27.7535 19.2715 27.177C19.2715 26.6006 19.7656 26.1064 20.3421 26.1064H28.6597C29.2362 26.1064 29.7303 26.6006 29.7303 27.177C29.7303 27.7535 29.2362 28.2476 28.6597 28.2476Z" fill="#FCC16D"/>
<path d="M28.6597 23.8004H20.3421C19.7656 23.8004 19.2715 23.3062 19.2715 22.7298C19.2715 22.1533 19.7656 21.6592 20.3421 21.6592H28.6597C29.2362 21.6592 29.7303 22.1533 29.7303 22.7298C29.7303 23.3062 29.2362 23.8004 28.6597 23.8004Z" fill="#FC5A95"/>
<path d="M28.6597 19.2711H20.3421C19.7656 19.2711 19.2715 18.7769 19.2715 18.2005C19.2715 17.624 19.7656 17.1299 20.3421 17.1299H28.6597C29.2362 17.1299 29.7303 17.624 29.7303 18.2005C29.7303 18.7769 29.2362 19.2711 28.6597 19.2711Z" fill="#FC5A95"/>
</svg>
