<svg width="70" height="70" viewBox="0 0 70 70" fill="none" xmlns="http://www.w3.org/2000/svg">
<path d="M4.11719 36.8115H37.3054V62.9174H4.11719V36.8115Z" fill="#AAE1F9"/>
<path d="M0.576172 62.918H40.9291V65.3062C40.9291 67.9415 38.7879 70.0827 36.1526 70.0827H5.35264C2.71735 70.0827 0.576172 67.9415 0.576172 65.3062V62.918Z" fill="#F9E109"/>
<path d="M8.89366 46.2821V36.8115H4.11719V62.9174H37.3054V58.1409H20.7525C14.2466 58.1409 8.89366 52.788 8.89366 46.2821Z" fill="#57B7EB"/>
<path d="M7.74088 66.4591C5.76441 66.4591 4.11735 64.8121 4.11735 62.918H0.576172V65.3062C0.576172 67.9415 2.71735 70.0827 5.35264 70.0827H36.235C38.3762 70.0827 40.2703 68.6003 40.8468 66.5415H7.74088V66.4591Z" fill="#FCBC04"/>
<path d="M52.7886 37.9648H67.0357C68.3533 37.9648 69.4239 39.0354 69.4239 40.3531V54.6001C69.4239 55.9178 68.3533 56.9884 67.0357 56.9884H52.7886C51.471 56.9884 50.4004 55.9178 50.4004 54.6001V40.3531C50.4004 39.0354 51.471 37.9648 52.7886 37.9648Z" fill="#C4F236"/>
<path d="M59.9533 50.9769C61.909 50.9769 63.4945 49.3914 63.4945 47.4357C63.4945 45.48 61.909 43.8945 59.9533 43.8945C57.9976 43.8945 56.4121 45.48 56.4121 47.4357C56.4121 49.3914 57.9976 50.9769 59.9533 50.9769Z" fill="#57B7EB"/>
<path d="M54.0236 43.8943V37.9648H52.8707C51.553 37.9648 50.4824 39.0354 50.4824 40.3531V54.6001C50.4824 55.9178 51.553 56.9884 52.8707 56.9884H67.1177C68.4354 56.9884 69.506 55.9178 69.506 54.6001V53.4472H63.5765C58.2236 53.3648 54.0236 49.1648 54.0236 43.8943Z" fill="#A1D51C"/>
<path d="M61.1061 47.4358C61.7428 47.4358 62.259 46.9196 62.259 46.2828C62.259 45.6461 61.7428 45.1299 61.1061 45.1299C60.4693 45.1299 59.9531 45.6461 59.9531 46.2828C59.9531 46.9196 60.4693 47.4358 61.1061 47.4358Z" fill="#AAE1F9"/>
<path d="M0.576172 11.8584H14.8232V30.8819H0.576172V11.8584Z" fill="#C4F236"/>
<path d="M29.0702 18.9412C34.3007 18.9412 38.5408 14.701 38.5408 9.47059C38.5408 4.24013 34.3007 0 29.0702 0C23.8397 0 19.5996 4.24013 19.5996 9.47059C19.5996 14.701 23.8397 18.9412 29.0702 18.9412Z" fill="#F89C8D"/>
<path d="M26.6816 13.012V5.92969L33.764 9.47086L26.6816 13.012Z" fill="#AAE1F9"/>
<path d="M32.6114 15.4001C27.3409 15.4001 23.1409 11.1177 23.1409 5.92947C23.1409 4.28241 23.5526 2.63535 24.3761 1.23535C19.8467 3.87065 18.3644 9.7177 20.9997 14.2471C23.635 18.7765 29.482 20.2589 34.0114 17.6236C35.4114 16.8001 36.5644 15.6471 37.3879 14.2471C35.9056 15.0706 34.2585 15.4824 32.6114 15.4001Z" fill="#F8664F"/>
<path d="M52.7886 1.15332H67.0357C68.3533 1.15332 69.4239 2.22391 69.4239 3.54156V17.7886C69.4239 19.1063 68.3533 20.1768 67.0357 20.1768H52.7886C51.471 20.1768 50.4004 19.1063 50.4004 17.7886V3.54156C50.4004 2.22391 51.471 1.15332 52.7886 1.15332Z" fill="#AAE1F9"/>
<path d="M54.0236 7.08273V1.15332H52.8707C51.553 1.15332 50.4824 2.22391 50.4824 3.54156V17.7886C50.4824 19.1063 51.553 20.1768 52.8707 20.1768H67.1177C68.4354 20.1768 69.506 19.1063 69.506 17.7886V16.6357H63.5765C58.2236 16.6357 54.0236 12.3533 54.0236 7.08273Z" fill="#57B7EB"/>
<path d="M4.11735 20.176V11.8584H0.576172V30.8819H14.8232V27.3408H11.2821C7.32911 27.2584 4.11735 24.129 4.11735 20.176Z" fill="#A1D51C"/>
<path d="M19.6816 48.8355L23.7993 46.4473L28.5758 54.6826C29.2346 55.8355 28.8228 57.2355 27.6699 57.8943C26.5169 58.5531 25.1169 58.1414 24.4581 56.9884L19.6816 48.8355Z" fill="#F8664F"/>
<path d="M26.764 51.6355L23.7993 46.4473L19.6816 48.8355L22.4816 53.6943L24.5405 52.5414L26.764 51.6355Z" fill="#CC5144"/>
<path d="M44.7996 42.5761L24.5407 50.1525L18.6113 39.8584L35.329 26.1055L44.7996 42.5761Z" fill="#C4F236"/>
<path d="M13.4231 42.8231L18.529 39.8584L24.4584 50.1525L19.3526 53.1172C17.6231 54.1055 15.482 53.529 14.4937 51.7996L12.1055 47.6819C11.1996 45.9525 11.7761 43.8113 13.4231 42.8231Z" fill="#F89C8D"/>
<path d="M10.0471 48.9176L12.1059 47.7646L14.4941 51.8823L12.4353 53.0352C11.2824 53.6941 9.88235 53.2823 9.22353 52.1294C8.56471 50.9764 8.97647 49.4941 10.0471 48.9176Z" fill="#CC5144"/>
<path d="M25.8579 46.5293C25.7756 46.6117 25.6109 46.6117 25.5285 46.694L23.2227 48.0117L24.458 50.1529L44.7168 42.5764L43.2344 40.0234L25.8579 46.5293Z" fill="#A1D51C"/>
<path d="M22.6462 48.3409C19.7638 49.9879 16.1403 48.9997 14.5756 46.1173C13.9991 45.0468 13.6697 43.8115 13.8344 42.5762L13.4227 42.8232C11.6932 43.8115 11.1168 45.9526 12.105 47.6821L14.4932 51.7997C15.4815 53.5291 17.6227 54.1056 19.3521 53.1173L24.4579 50.1526L23.2227 48.0115L22.6462 48.3409Z" fill="#F8664F"/>
<path d="M7.74023 70.0002V67.6119C7.74023 66.9531 8.23435 66.459 8.89318 66.459C9.552 66.459 10.0461 66.9531 10.0461 67.6119V70.0002H7.74023Z" fill="#57B7EB"/>
<path d="M31.459 70.0002V67.6119C31.459 66.9531 31.9531 66.459 32.6119 66.459C33.2707 66.459 33.7649 66.9531 33.7649 67.6119V70.0002H31.459Z" fill="#57B7EB"/>
<path d="M63.4931 4.77637H61.1049C59.1284 4.77637 57.5637 6.34107 57.5637 8.31754V9.47048H56.4108C55.7519 9.47048 55.2578 9.9646 55.2578 10.6234C55.2578 11.2822 55.7519 11.7764 56.4108 11.7764H57.5637V15.3175C57.5637 15.9764 58.0578 16.4705 58.7166 16.4705C59.3755 16.4705 59.8696 15.9764 59.8696 15.3175V11.7764H61.0225C61.6813 11.7764 62.1755 11.2822 62.1755 10.6234C62.1755 9.9646 61.6813 9.47048 61.0225 9.47048H59.8696V8.31754C59.8696 7.65872 60.3637 7.1646 61.0225 7.1646H63.4108C64.0696 7.1646 64.5637 6.67048 64.5637 6.01166C64.5637 5.35284 64.1519 4.77637 63.4931 4.77637Z" fill="#FCBC04"/>
<path d="M40.9286 24.9528C40.6816 24.9528 40.4345 24.8704 40.1875 24.7057C39.6933 24.294 39.5286 23.5528 39.9404 23.0587L43.4816 18.2822C43.8933 17.7881 44.6345 17.6234 45.1286 18.0351C45.6228 18.4469 45.7875 19.1881 45.3757 19.6822L41.8345 24.4587C41.6698 24.7057 41.3404 24.9528 40.9286 24.9528Z" fill="#F9E109"/>
<path d="M44.4697 29.6472C44.0579 29.6472 43.7285 29.4825 43.4814 29.1531C43.0697 28.6589 43.2344 27.9178 43.7285 27.506L48.505 23.9648C48.9991 23.5531 49.7402 23.7178 50.152 24.2119C50.5638 24.706 50.3991 25.4472 49.905 25.8589L45.1285 29.4001C44.9638 29.5648 44.7167 29.6472 44.4697 29.6472Z" fill="#F9E109"/>
<path d="M48.0102 34.4237C47.3514 34.506 46.7749 34.0119 46.6926 33.3531C46.6102 32.6943 47.1043 32.1178 47.7632 32.0355L53.6926 30.8825C54.3514 30.7178 55.0102 31.2119 55.0926 31.8707C55.1749 32.5296 54.7632 33.1884 54.1043 33.2707L48.1749 34.4237H48.0102Z" fill="#F9E109"/>
<path d="M10.0467 17.7883H7.74083C7.08201 17.7883 6.58789 17.2942 6.58789 16.6354C6.58789 15.9765 7.08201 15.4824 7.74083 15.4824H10.1291C10.7879 15.4824 11.282 15.9765 11.282 16.6354C11.282 17.2942 10.7055 17.7883 10.0467 17.7883Z" fill="#FCBC04"/>
<path d="M10.0463 22.5647H5.35216C4.69334 22.5647 4.19922 22.0706 4.19922 21.4117C4.19922 20.7529 4.69334 20.2588 5.35216 20.2588H10.1286C10.7875 20.2588 11.2816 20.7529 11.2816 21.4117C11.2816 22.0706 10.7051 22.5647 10.0463 22.5647Z" fill="#FCBC04"/>
<path d="M10.0463 27.259H5.35216C4.69334 27.259 4.19922 26.7649 4.19922 26.1061C4.19922 25.4472 4.69334 24.9531 5.35216 24.9531H10.1286C10.7875 24.9531 11.2816 25.4472 11.2816 26.1061C11.2816 26.7649 10.7051 27.259 10.0463 27.259Z" fill="#FCBC04"/>
<path d="M58.7177 16.635C59.2118 16.635 59.6236 16.3056 59.7883 15.8938C58.9648 15.5644 58.2236 15.0703 57.4824 14.5762V15.4821C57.5648 16.0585 58.0589 16.635 58.7177 16.635Z" fill="#E59730"/>
<path d="M5.35221 27.2584H10.1287C10.211 27.2584 10.2934 27.2584 10.4581 27.176C8.72869 26.9289 7.16398 26.1054 6.09339 24.8701H5.35221C4.69339 24.8701 4.19927 25.3642 4.19927 26.0231C4.11692 26.7642 4.69339 27.2584 5.35221 27.2584Z" fill="#E59730"/>
</svg>
