<?xml version="1.0" encoding="utf-8"?>
<!-- Generator: Adobe Illustrator 26.5.0, SVG Export Plug-In . SVG Version: 6.00 Build 0)  -->
<svg version="1.1" id="Layer_1" xmlns="http://www.w3.org/2000/svg" xmlns:xlink="http://www.w3.org/1999/xlink" x="0px" y="0px"
	 width="30px" height="30px" viewBox="0 0 30 30" style="enable-background:new 0 0 30 30;" xml:space="preserve">
<style type="text/css">
	.st0{fill:#5E9CF7;}
	.st1{fill:#478CF7;}
	.st2{fill:#F2AD97;}
	.st3{fill:#E59076;}
	.st4{fill:#8C3F0A;}
	.st5{fill:#995222;}
	.st6{fill:#7C3108;}
	.st7{fill:#6D2E03;}
	.st8{fill:#FFFFFF;}
	.st9{fill:#F79219;}
	.st10{fill:#EF7816;}
	.st11{fill:#FFC91D;}
	.st12{fill:#FFA91A;}
</style>
<g>
	<g>
		<g>
			<path class="st0" d="M14.54,3.18l-3.11-3.11c-0.15-0.15-0.42-0.05-0.42,0.17v1.57H4.27c-2.03,0-3.68,1.65-3.68,3.68v6.62
				c0,0.14,0.11,0.25,0.25,0.25h2.57c0.14,0,0.25-0.11,0.25-0.25V6.11c0-0.68,0.55-1.23,1.23-1.23h6.13v1.57
				c0,0.22,0.26,0.33,0.42,0.17l3.11-3.11C14.64,3.43,14.64,3.27,14.54,3.18z"/>
		</g>
		<g>
			<g>
				<path class="st1" d="M10.77,4.27h-6.5c-0.68,0-1.23,0.55-1.23,1.23v6.01c0,0.14-0.11,0.25-0.25,0.25H0.59v0.37
					c0,0.14,0.11,0.25,0.25,0.25h2.57c0.14,0,0.25-0.11,0.25-0.25V6.11c0-0.68,0.55-1.23,1.23-1.23h6.13V4.52
					C11.02,4.38,10.91,4.27,10.77,4.27z"/>
			</g>
			<g>
				<path class="st1" d="M14.54,3.18l-0.61-0.61c0.1,0.1,0.1,0.25,0,0.35l-2.91,2.91v0.63c0,0.22,0.26,0.33,0.42,0.17l3.11-3.11
					C14.64,3.43,14.64,3.27,14.54,3.18z"/>
			</g>
		</g>
		<g>
			<path class="st0" d="M26.34,18.13v5.76c0,0.68-0.55,1.23-1.23,1.23h-6.13v-1.57c0-0.22-0.26-0.33-0.42-0.17l-3.11,3.11
				c-0.1,0.1-0.1,0.25,0,0.35l3.11,3.11c0.15,0.15,0.42,0.05,0.42-0.17v-1.57h6.74c2.03,0,3.68-1.65,3.68-3.68v-6.38
				c0-0.14-0.11-0.25-0.25-0.25h-2.57C26.45,17.88,26.34,17.99,26.34,18.13z"/>
		</g>
		<g>
			<g>
				<path class="st1" d="M29.16,17.88h-0.37v6.01c0,2.03-1.65,3.68-3.68,3.68h-6.5c-0.14,0-0.25,0.11-0.25,0.25v1.33
					c0,0.22-0.26,0.33-0.42,0.17l0.61,0.61c0.15,0.15,0.42,0.05,0.42-0.17v-1.57h6.74c2.03,0,3.68-1.65,3.68-3.68v-6.38
					C29.41,17.99,29.3,17.88,29.16,17.88z"/>
			</g>
		</g>
	</g>
	<g>
		<g>
			<g>
				<circle class="st2" cx="9.36" cy="15" r="7.05"/>
			</g>
			<g>
				<path class="st3" d="M14.03,9.72c1.1,1.24,1.77,2.88,1.77,4.67c0,3.89-3.16,7.05-7.05,7.05c-1.79,0-3.42-0.67-4.67-1.77
					c1.29,1.46,3.18,2.38,5.28,2.38c3.89,0,7.05-3.16,7.05-7.05C16.41,12.9,15.49,11.01,14.03,9.72L14.03,9.72z"/>
			</g>
			<g>
				<circle class="st4" cx="9.36" cy="15" r="5.45"/>
			</g>
			<g>
				<path class="st5" d="M4.66,14.83c-0.01,0-0.01,0-0.02,0c-0.13-0.01-0.23-0.13-0.22-0.27c0.17-1.93,1.46-3.6,3.29-4.24
					c0.13-0.05,0.27,0.02,0.31,0.15C8.07,10.6,8,10.74,7.87,10.78c-1.65,0.58-2.82,2.08-2.97,3.82C4.9,14.73,4.79,14.83,4.66,14.83z
					 M8.74,10.57c-0.12,0-0.23-0.09-0.24-0.21c-0.02-0.13,0.08-0.26,0.21-0.28l0.05-0.01c0.13-0.02,0.26,0.08,0.27,0.22
					c0.02,0.13-0.08,0.26-0.22,0.27l-0.04,0C8.77,10.57,8.75,10.57,8.74,10.57z"/>
			</g>
			<g>
				<path class="st6" d="M12.55,10.58c0.65,0.9,1.03,2,1.03,3.19c0,3.01-2.44,5.45-5.45,5.45c-1.19,0-2.29-0.38-3.19-1.03
					c0.99,1.37,2.6,2.26,4.42,2.26c3.01,0,5.45-2.44,5.45-5.45C14.81,13.18,13.92,11.57,12.55,10.58L12.55,10.58z"/>
			</g>
			<g>
				<path class="st7" d="M12.89,10.85c0.81,0.95,1.3,2.18,1.3,3.53c0,3.01-2.44,5.45-5.45,5.45c-1.35,0-2.58-0.49-3.53-1.3
					c1,1.17,2.49,1.92,4.15,1.92c3.01,0,5.45-2.44,5.45-5.45C14.81,13.34,14.06,11.85,12.89,10.85L12.89,10.85z"/>
			</g>
			<path class="st8" d="M10.66,14.71c0.45-0.2,0.76-0.65,0.76-1.18c0-0.71-0.58-1.29-1.29-1.29H9.77v-0.48
				c0-0.14-0.11-0.25-0.25-0.25s-0.25,0.11-0.25,0.25v0.48h-0.8v-0.48c0-0.14-0.11-0.25-0.25-0.25s-0.25,0.11-0.25,0.25v0.48H7.55
				c-0.14,0-0.25,0.11-0.25,0.25s0.11,0.25,0.25,0.25h0.44v4.97H7.55c-0.14,0-0.25,0.11-0.25,0.25s0.11,0.25,0.25,0.25h0.44v0.48
				c0,0.14,0.11,0.25,0.25,0.25s0.25-0.11,0.25-0.25v-0.48h0.8v0.48c0,0.14,0.11,0.25,0.25,0.25s0.25-0.11,0.25-0.25v-0.5
				c0.93-0.11,1.65-0.9,1.65-1.86v-0.09C11.42,15.6,11.12,15.05,10.66,14.71L10.66,14.71z M10.12,12.73c0.44,0,0.8,0.36,0.8,0.8
				s-0.36,0.8-0.8,0.8H8.48v-1.61L10.12,12.73L10.12,12.73z M10.92,16.31c0,0.76-0.62,1.39-1.39,1.39H8.48v-0.26v-2.6h1.06
				c0.76,0,1.39,0.62,1.39,1.39V16.31z"/>
		</g>
		<g>
			<g>
				<circle class="st9" cx="20.64" cy="15" r="7.05"/>
			</g>
			<g>
				<path class="st10" d="M25.31,9.72c1.1,1.24,1.77,2.88,1.77,4.67c0,3.89-3.16,7.05-7.05,7.05c-1.79,0-3.42-0.67-4.67-1.77
					c1.29,1.46,3.18,2.38,5.28,2.38c3.89,0,7.05-3.16,7.05-7.05C27.69,12.9,26.77,11.01,25.31,9.72z"/>
			</g>
			<g>
				<circle class="st11" cx="20.64" cy="15" r="5.45"/>
			</g>
			<g>
				<path class="st12" d="M24.18,10.85c0.81,0.95,1.3,2.18,1.3,3.53c0,3.01-2.44,5.45-5.45,5.45c-1.35,0-2.58-0.49-3.53-1.3
					c1,1.17,2.49,1.92,4.15,1.92c3.01,0,5.45-2.44,5.45-5.45C26.09,13.34,25.35,11.85,24.18,10.85L24.18,10.85z"/>
			</g>
			<path class="st5" d="M21.17,14.49h-0.29v-2.17h0.29c0.6,0,1.08,0.49,1.08,1.08c0,0.14,0.11,0.25,0.25,0.25s0.25-0.11,0.25-0.25
				c0-0.87-0.71-1.57-1.57-1.57h-0.29v-0.29c0-0.14-0.11-0.25-0.25-0.25s-0.25,0.11-0.25,0.25v0.29h-0.29
				c-0.87,0-1.57,0.71-1.57,1.57s0.71,1.57,1.57,1.57h0.29v2.7h-0.29c-0.6,0-1.08-0.49-1.08-1.08c0-0.14-0.11-0.25-0.25-0.25
				s-0.25,0.11-0.25,0.25c0,0.87,0.71,1.57,1.57,1.57h0.29v0.29c0,0.14,0.11,0.25,0.25,0.25s0.25-0.11,0.25-0.25v-0.29h0.29
				c0.87,0,1.57-0.71,1.57-1.57v-0.53C22.75,15.19,22.04,14.49,21.17,14.49L21.17,14.49z M20.11,14.49c-0.6,0-1.08-0.49-1.08-1.08
				c0-0.6,0.49-1.08,1.08-1.08h0.29v2.17H20.11z M22.26,16.59c0,0.6-0.49,1.08-1.08,1.08h-0.29v-2.7h0.29c0.6,0,1.08,0.49,1.08,1.08
				V16.59z"/>
		</g>
	</g>
</g>
</svg>
