<?xml version="1.0" encoding="utf-8"?>
<!-- Generator: Adobe Illustrator 26.5.0, SVG Export Plug-In . SVG Version: 6.00 Build 0)  -->
<svg version="1.1" id="OBJECT" xmlns="http://www.w3.org/2000/svg" xmlns:xlink="http://www.w3.org/1999/xlink" x="0px" y="0px"
	 width="30px" height="30px" viewBox="0 0 30 30" style="enable-background:new 0 0 30 30;" xml:space="preserve">
<style type="text/css">
	.st0{fill:#EDA82E;}
	.st1{fill:#A5497C;}
	.st2{fill:#7DD9C2;}
	.st3{fill:#5CD0B3;}
	.st4{fill:#FAF7F5;}
</style>
<g>
	<path class="st0" d="M2.84,17.49h3.22v7.82H2.84V17.49z"/>
	<path class="st0" d="M10.07,17.49h3.22v7.82h-3.22V17.49z"/>
	<path class="st0" d="M16.71,17.49h3.22v7.82h-3.22V17.49z"/>
	<path class="st0" d="M23.94,17.49h3.22v7.82h-3.22V17.49z"/>
</g>
<path class="st0" d="M2.84,17.49h1.17v7.82H2.84V17.49z"/>
<path class="st0" d="M10.07,17.49h1.17v7.82h-1.17V17.49z"/>
<path class="st0" d="M16.71,17.49h1.17v7.82h-1.17V17.49z"/>
<path class="st0" d="M23.94,17.49h1.17v7.82h-1.17V17.49z"/>
<path class="st1" d="M1.52,24.43h26.95c0.24,0,0.44,0.2,0.44,0.44v2.34c0,0.24-0.2,0.44-0.44,0.44H1.52c-0.24,0-0.44-0.2-0.44-0.44
	v-2.34C1.08,24.63,1.28,24.43,1.52,24.43z"/>
<path class="st2" d="M1.52,15.15h26.95c0.24,0,0.44,0.2,0.44,0.44v2.34c0,0.24-0.2,0.44-0.44,0.44H1.52c-0.24,0-0.44-0.2-0.44-0.44
	v-2.34C1.08,15.34,1.28,15.15,1.52,15.15z"/>
<path class="st3" d="M28.48,15.15H1.52c-0.24,0-0.44,0.2-0.44,0.44v1.03h27.83v-1.03C28.92,15.34,28.72,15.15,28.48,15.15z"/>
<path class="st1" d="M29.79,12.87L15.23,4.08c-0.14-0.08-0.31-0.08-0.45,0L0.21,12.87C0.08,12.95,0,13.09,0,13.24v2.34
	c0,0.24,0.2,0.44,0.44,0.44l0,0h29.12c0.24,0,0.44-0.2,0.44-0.44l0,0v-2.34C30,13.09,29.92,12.95,29.79,12.87z"/>
<circle class="st0" cx="15" cy="6.88" r="6.88"/>
<path class="st4" d="M16.69,6.88c0.8-0.67,0.91-1.86,0.24-2.66c-0.22-0.27-0.52-0.47-0.85-0.58V3.02c0-0.24-0.2-0.44-0.44-0.44
	s-0.44,0.2-0.44,0.44v0.53h-0.41V3.02c0-0.24-0.2-0.44-0.44-0.44s-0.44,0.2-0.44,0.44v0.53h-0.85c-0.24,0-0.44,0.2-0.44,0.44
	s0.2,0.44,0.44,0.44h0.53v2.02h-0.53c-0.24,0-0.44,0.2-0.44,0.44s0.2,0.44,0.44,0.44h0.53v2.02h-0.53c-0.24,0-0.44,0.2-0.44,0.44
	s0.2,0.44,0.44,0.44h0.85v0.53c0,0.24,0.2,0.44,0.44,0.44s0.44-0.2,0.44-0.44v-0.53h0.41v0.53c0,0.24,0.2,0.44,0.44,0.44
	s0.44-0.2,0.44-0.44v-0.63c0.99-0.33,1.52-1.4,1.19-2.39C17.16,7.4,16.96,7.11,16.69,6.88z M15.48,9.35h-1.01V7.32h1.01
	c0.56,0,1.01,0.45,1.01,1.01S16.04,9.35,15.48,9.35z M15.48,6.45h-1.01V4.42h1.01c0.56,0,1.01,0.45,1.01,1.01S16.04,6.45,15.48,6.45
	z"/>
<path class="st2" d="M0.44,26.78h29.12c0.24,0,0.44,0.2,0.44,0.44v2.34C30,29.8,29.8,30,29.56,30H0.44C0.2,30,0,29.8,0,29.56v-2.34
	C0,26.97,0.2,26.78,0.44,26.78z"/>
<path class="st3" d="M1.17,28.39c0-0.24,0.2-0.44,0.44-0.44l0,0H30v-0.73c0-0.24-0.2-0.44-0.44-0.44H0.44C0.2,26.78,0,26.97,0,27.22
	v2.34C0,29.8,0.2,30,0.44,30h0.73V28.39z"/>
</svg>
