<?xml version="1.0" encoding="utf-8"?>
<!-- Generator: Adobe Illustrator 26.5.0, SVG Export Plug-In . SVG Version: 6.00 Build 0)  -->
<svg version="1.1" id="Layer_1" xmlns="http://www.w3.org/2000/svg" xmlns:xlink="http://www.w3.org/1999/xlink" x="0px" y="0px"
	 width="30px" height="30px" viewBox="0 0 30 30" style="enable-background:new 0 0 30 30;" xml:space="preserve">
<style type="text/css">
	.st0{fill:#C80A50;}
	.st1{fill:#9F0226;}
	.st2{fill:#F0F0F0;}
	.st3{fill:#D2D2D2;}
	.st4{fill:#00A0C8;}
</style>
<g>
	<g>
		<path class="st0" d="M27.88,14.91L15.44,27.33c-0.24,0.24-0.64,0.24-0.88,0L2.12,14.91c-2.83-2.83-2.83-7.45,0-10.28l0,0
			c2.85-2.85,7.44-2.85,10.3,0L15,7.2l2.58-2.57c2.85-2.85,7.44-2.85,10.3,0l0,0C30.71,7.46,30.71,12.08,27.88,14.91L27.88,14.91z"
			/>
	</g>
	<g>
		<path class="st1" d="M21.52,15.9l-6.08-6.08c-0.24-0.24-0.64-0.24-0.88,0L8.48,15.9c-0.24,0.24-0.24,0.64,0,0.88l0.37,0.37
			c0.24,0.24,0.64,0.24,0.88,0L10,16.88v4.38c0,0.35,0.28,0.63,0.63,0.63h8.75c0.35,0,0.63-0.28,0.63-0.63v-4.38l0.27,0.27
			c0.24,0.24,0.64,0.24,0.88,0l0.37-0.37C21.77,16.54,21.77,16.14,21.52,15.9L21.52,15.9z"/>
	</g>
	<g>
		<path class="st2" d="M21.52,15.27l-6.08-6.08c-0.24-0.24-0.64-0.24-0.88,0l-6.08,6.08c-0.24,0.24-0.24,0.64,0,0.88l0.37,0.37
			c0.24,0.24,0.64,0.24,0.88,0L10,16.25v4.38c0,0.35,0.28,0.63,0.63,0.63h8.75c0.35,0,0.63-0.28,0.63-0.63v-4.38l0.27,0.27
			c0.24,0.24,0.64,0.24,0.88,0l0.37-0.37C21.77,15.91,21.77,15.52,21.52,15.27L21.52,15.27z"/>
	</g>
	<g>
		<path class="st3" d="M17.5,16.25h-1.25V15c0-0.35-0.28-0.63-0.63-0.63h-1.25c-0.35,0-0.63,0.28-0.63,0.63v1.25H12.5
			c-0.35,0-0.63,0.28-0.63,0.63v1.25c0,0.35,0.28,0.63,0.63,0.63h1.25v1.25c0,0.35,0.28,0.63,0.63,0.63h1.25
			c0.35,0,0.63-0.28,0.63-0.63v-1.25h1.25c0.35,0,0.63-0.28,0.63-0.63v-1.25C18.13,16.53,17.85,16.25,17.5,16.25z"/>
	</g>
	<g>
		<path class="st4" d="M17.5,15.63h-1.25v-1.25c0-0.35-0.28-0.63-0.63-0.63h-1.25c-0.35,0-0.63,0.28-0.63,0.63v1.25H12.5
			c-0.35,0-0.63,0.28-0.63,0.63v1.25c0,0.35,0.28,0.63,0.63,0.63h1.25v1.25c0,0.35,0.28,0.63,0.63,0.63h1.25
			c0.35,0,0.63-0.28,0.63-0.63v-1.25h1.25c0.35,0,0.63-0.28,0.63-0.63v-1.25C18.13,15.91,17.85,15.63,17.5,15.63z"/>
	</g>
</g>
</svg>
