<?xml version="1.0" encoding="utf-8"?>
<!-- Generator: Adobe Illustrator 26.5.0, SVG Export Plug-In . SVG Version: 6.00 Build 0)  -->
<svg version="1.1" id="Layer_1" xmlns="http://www.w3.org/2000/svg" xmlns:xlink="http://www.w3.org/1999/xlink" x="0px" y="0px"
	 width="30px" height="30px" viewBox="0 0 30 30" style="enable-background:new 0 0 30 30;" xml:space="preserve">
<style type="text/css">
	.st0{fill:#F4B400;}
	.st1{fill:#F29500;}
	.st2{fill:#DB4437;}
	.st3{fill:#C62E26;}
	.st4{fill:#A51E1B;}
	.st5{fill:#F0D0B4;}
	.st6{fill:#ECC19C;}
	.st7{fill:#4285F4;}
	.st8{fill:#2B69B2;}
</style>
<g id="Cyber_Monday_flat_4">
	<g id="_27_Gift">
		<path class="st0" d="M24.19,15.98v6.77H6.77V9.69h17.42v3.39V15.98z"/>
		<path class="st1" d="M8.23,9.2H6.77v13.06h17.42v-1.45h-4.35C13.43,20.82,8.23,15.62,8.23,9.2z"/>
		<path class="st1" d="M6.77,9.69h17.42v0.97H6.77V9.69z"/>
		<path class="st2" d="M14.03,9.69h2.9v12.58h-2.9V9.69z"/>
		<path class="st3" d="M14.03,22.27h2.9v-1.82c-1.02-0.26-1.99-0.66-2.9-1.19V22.27z"/>
		<path class="st3" d="M14.03,9.69h2.9v0.97h-2.9V9.69z"/>
		<path class="st2" d="M15,0.98c1.34,0,2.42,1.08,2.42,2.42v2.42l0,0h-4.84l0,0V3.4C12.58,2.06,13.66,0.98,15,0.98z"/>
		<path class="st0" d="M15,0.98c1.34,0,2.42,1.08,2.42,2.42v2.42l0,0h-4.84l0,0V3.4C12.58,2.06,13.66,0.98,15,0.98z"/>
		<path class="st4" d="M15,0.98c1.34,0,2.42,1.08,2.42,2.42v2.42l0,0h-4.84l0,0V3.4C12.58,2.06,13.66,0.98,15,0.98z"/>
		<ellipse transform="matrix(0.7071 -0.7071 0.7071 0.7071 3.4062 15.0216)" class="st2" cx="19.84" cy="3.4" rx="4.06" ry="2.54"/>
		<path class="st4" d="M17.57,6.65c1.09,0.41,2.75-0.15,4.06-1.46c0.71-0.69,1.23-1.56,1.49-2.51c-1.09-0.41-2.75,0.15-4.06,1.46
			C18.34,4.83,17.83,5.7,17.57,6.65z"/>
		<ellipse transform="matrix(0.7071 -0.7071 0.7071 0.7071 0.7142 8.5217)" class="st2" cx="10.64" cy="3.4" rx="2.54" ry="4.06"/>
		<path class="st4" d="M12.91,6.65c-1.09,0.41-2.75-0.15-4.06-1.46C8.14,4.51,7.62,3.64,7.36,2.68c1.09-0.41,2.75,0.15,4.06,1.46
			C12.14,4.83,12.65,5.7,12.91,6.65z"/>
		<path class="st0" d="M19.35,9.69H4.84V5.82h21.29v3.87h-3.86"/>
		<path class="st2" d="M13.06,5.82h4.84v3.87h-4.84V5.82z"/>
		<path class="st5" d="M11.13,22.27H14c1.07,0,1.93-0.86,1.93-1.93v-0.01c0-1.07-0.87-1.94-1.94-1.94H7.26l-2.42,2.42l-0.97,0.01
			v8.22l5.82-0.01l12.83-4.16c0.08-0.03,0.16-0.08,0.21-0.15l5.22-6.15c0.13-0.16,0.11-0.39-0.04-0.52c0,0,0,0-0.01-0.01
			c-1.14-0.92-2.79-0.79-3.77,0.29l-3.59,3.93l-0.02,0.01h-7.47"/>
		<path class="st6" d="M27.7,17.91l-4.96,5.84c-0.06,0.07-0.13,0.12-0.21,0.15L9.69,28.06l-5.82,0.01v0.97l5.82-0.01l12.83-4.16
			c0.08-0.03,0.16-0.08,0.21-0.15l5.22-6.15c0.13-0.16,0.11-0.39-0.04-0.52c0,0,0,0-0.01-0.01C27.85,18,27.77,17.96,27.7,17.91
			L27.7,17.91z"/>
		<path class="st7" d="M0,23.24v-3.39h3.87v10.16H0v-2.9V23.24z"/>
		<path class="st8" d="M1.45,23.24v-3.39H0v3.39v3.87v2.9h1.45v-2.9V23.24z"/>
		<g>
			<path class="st2" d="M27.58,7.27H30v0.97h-2.42V7.27z"/>
			<path class="st2" d="M27.23,5.96l1.69-1.69l0.68,0.68l-1.69,1.69L27.23,5.96z"/>
			<path class="st2" d="M27.23,9.55l0.68-0.68l1.69,1.69l-0.68,0.68L27.23,9.55z"/>
			<path class="st2" d="M0.97,7.27h2.42v0.97H0.97V7.27z"/>
			<path class="st2" d="M1.35,10.55l1.69-1.69l0.68,0.68l-1.69,1.69L1.35,10.55z"/>
			<path class="st2" d="M1.35,4.95l0.68-0.68l1.69,1.69L3.04,6.64L1.35,4.95z"/>
		</g>
	</g>
</g>
</svg>
