<?xml version="1.0" encoding="utf-8"?>
<!-- Generator: Adobe Illustrator 26.5.0, SVG Export Plug-In . SVG Version: 6.00 Build 0)  -->
<svg version="1.1" id="Layer_1" xmlns="http://www.w3.org/2000/svg" xmlns:xlink="http://www.w3.org/1999/xlink" x="0px" y="0px"
	 width="30px" height="30px" viewBox="0 0 30 30" style="enable-background:new 0 0 30 30;" xml:space="preserve">
<style type="text/css">
	.st0{fill:#009AB1;}
	.st1{fill:#3FC4C1;}
	.st2{fill:#FFA800;}
	.st3{fill:#FFCD00;}
	.st4{fill:#FFFACF;}
	.st5{fill:#FFED66;}
	.st6{fill:#FF8400;}
	.st7{fill:#FFFFFF;}
	.st8{fill:#99D8EF;}
</style>
<path class="st0" d="M3.69,13.26h22.76c0.49,0,0.88,0.39,0.88,0.88v-3c0-0.49-0.39-0.88-0.88-0.88H3.69c-0.49,0-0.88,0.39-0.88,0.88
	v3C2.81,13.65,3.2,13.26,3.69,13.26z"/>
<path class="st1" d="M23.7,1.26h-0.94V0.35C22.75,0.16,22.6,0,22.41,0c-0.19,0-0.35,0.16-0.35,0.35v0.91h-0.91
	c-0.19,0-0.35,0.16-0.35,0.35s0.16,0.35,0.35,0.35h0.91V2.9c0,0.19,0.16,0.35,0.35,0.35c0.19,0,0.35-0.16,0.35-0.35V1.96h0.94
	c0.19,0,0.35-0.16,0.35-0.35S23.89,1.26,23.7,1.26z"/>
<path class="st2" d="M17.21,12.68l-0.93-0.93l-0.64-0.64l-0.92-0.92h0l-0.34-0.34v0l-1.19-1.19v0l-1.8-1.8l-1.9-1.9
	c-1.53,1.55-2.37,3.6-2.37,5.79c0,0.87,0.14,1.71,0.39,2.5h5.9c0.02,0.01,0.05,0.01,0.08,0.01h2.33v0c0.03,0,0.07,0,0.1-0.01h1.87
	L17.21,12.68z"/>
<path class="st3" d="M23.61,10.75c0,0.86-0.13,1.7-0.39,2.5h-5.44l-3.06-3.06h0l-0.34-0.34v0l-1.19-1.19v0l-1.8-1.8l-1.9-1.9
	C9.5,4.95,9.52,4.94,9.53,4.92c1.55-1.56,3.63-2.42,5.83-2.42C19.91,2.51,23.61,6.2,23.61,10.75z"/>
<path class="st4" d="M20.92,10.75c0,0.9-0.21,1.75-0.59,2.5h-2.55l-3.06-3.06h0l-0.34-0.34v0l-1.19-1.19v0l-1.8-1.8
	c0.01-0.01,0.02-0.03,0.04-0.04c1-1.01,2.4-1.63,3.93-1.63C18.43,5.19,20.92,7.68,20.92,10.75z"/>
<path class="st5" d="M14.73,13.26h1.08v0c0.03,0,0.07,0,0.1-0.01h1.87l-0.57-0.57l-0.93-0.93l-0.64-0.64l-0.92-0.92h0l-0.34-0.34v0
	l-1.19-1.19v0l-1.8-1.8c-0.98,1-1.59,2.37-1.59,3.89c0,0.9,0.21,1.75,0.59,2.5h3.01c0.02,0.01,0.05,0.01,0.08,0.01L14.73,13.26
	L14.73,13.26z"/>
<path class="st6" d="M17.08,10.81c-0.14-0.11-0.15-0.31-0.02-0.44c0.19-0.19,0.32-0.47,0.32-0.84c0-0.64-0.44-1.24-1.57-1.29v-0.6
	c0-0.09-0.08-0.17-0.17-0.17h-0.25c-0.09,0-0.17,0.08-0.17,0.17v0.59h-0.49V7.65c0-0.09-0.08-0.17-0.17-0.17h-0.25
	c-0.09,0-0.17,0.08-0.17,0.17v0.59h-0.66c-0.16,0-0.29,0.13-0.29,0.29v4.44c0,0.13,0.09,0.25,0.22,0.28
	c0.02,0.01,0.05,0.01,0.08,0.01h2.33v0c0.03,0,0.07,0,0.1-0.01c0.58-0.04,1.02-0.25,1.29-0.57c0.21-0.25,0.33-0.56,0.33-0.92
	C17.53,11.32,17.33,11.01,17.08,10.81z M14.38,9.44c0-0.16,0.13-0.29,0.29-0.29h0.83c0.39,0,0.66,0.16,0.66,0.52
	c0,0.31-0.18,0.53-0.68,0.53h-0.82c-0.16,0-0.29-0.13-0.29-0.29V9.44z M16.28,11.75c-0.02,0.41-0.29,0.6-0.8,0.6h-0.81
	c-0.16,0-0.29-0.13-0.29-0.29V11.4c0-0.16,0.13-0.29,0.29-0.29h0.83c0.05,0,0.09,0,0.14,0.01c0.43,0.04,0.64,0.25,0.64,0.59
	C16.28,11.72,16.28,11.74,16.28,11.75z"/>
<path class="st7" d="M16.28,11.71c0,0.44-0.27,0.64-0.8,0.64h-0.81c-0.16,0-0.29-0.13-0.29-0.29V11.4c0-0.16,0.13-0.29,0.29-0.29
	h0.83C16.03,11.11,16.28,11.33,16.28,11.71z"/>
<path class="st7" d="M16.16,9.67c0,0.31-0.18,0.53-0.68,0.53h-0.82c-0.16,0-0.29-0.13-0.29-0.29V9.44c0-0.16,0.13-0.29,0.29-0.29
	h0.83C15.89,9.15,16.16,9.31,16.16,9.67z"/>
<path class="st1" d="M27.34,14.14c0-0.49-0.39-0.88-0.88-0.88H3.69c-0.49,0-0.88,0.39-0.88,0.88v0v14.98C2.81,29.6,3.2,30,3.69,30
	h22.76c0.49,0,0.88-0.39,0.88-0.88V14.14C27.34,14.14,27.34,14.14,27.34,14.14z"/>
<path class="st8" d="M28.31,19.38c0-0.26-0.21-0.48-0.48-0.48h-0.5v0.69h-3.34c-0.25,0-0.45,0.2-0.45,0.45v2.6
	c0,0.16,0.08,0.3,0.21,0.38c0.07,0.04,0.15,0.07,0.24,0.07h3.87c0.25,0,0.45-0.2,0.45-0.45v-2.6c0,0,0,0,0,0h0V19.38z"/>
<g>
	<path class="st0" d="M26.64,21.35c0,0.39-0.32,0.71-0.71,0.71c-0.39,0-0.71-0.32-0.71-0.71c0-0.39,0.32-0.71,0.71-0.71
		C26.32,20.64,26.64,20.96,26.64,21.35z"/>
	<path class="st0" d="M27.34,23.1v3.51l-3.58-3.58c0.07,0.04,0.15,0.07,0.24,0.07H27.34z"/>
</g>
</svg>
