<?xml version="1.0" encoding="utf-8"?>
<!-- Generator: Adobe Illustrator 26.5.0, SVG Export Plug-In . SVG Version: 6.00 Build 0)  -->
<svg version="1.1" id="Layer_1" xmlns="http://www.w3.org/2000/svg" xmlns:xlink="http://www.w3.org/1999/xlink" x="0px" y="0px"
	 width="30px" height="30px" viewBox="0 0 30 30" style="enable-background:new 0 0 30 30;" xml:space="preserve">
<style type="text/css">
	.st0{fill:url(#SVGID_1_);}
</style>
<g>
	<linearGradient id="SVGID_1_" gradientUnits="userSpaceOnUse" x1="23.2713" y1="29.2978" x2="7.3422" y2="1.7079">
		<stop  offset="0" style="stop-color:#3C008A"/>
		<stop  offset="0.4948" style="stop-color:#5C04D5"/>
		<stop  offset="1" style="stop-color:#8F2BB9"/>
	</linearGradient>
	<path class="st0" d="M23.86,4.63C23.28,1.93,20.9,0,18.12,0C17,0,15.93,0.31,15,0.89C14.07,0.31,13,0,11.88,0
		C9.1,0,6.72,1.93,6.14,4.63C3.21,5.38,1.1,8.07,1.1,11.12c0,3.7,3.01,6.71,6.71,6.71h9.32H18h4.19c3.7,0,6.71-3.01,6.71-6.71
		C28.9,8.07,26.79,5.38,23.86,4.63z M15,16.7c-3.01,0-5.47-2.45-5.47-5.47c0-3.01,2.45-5.47,5.47-5.47c3.01,0,5.47,2.45,5.47,5.47
		C20.47,14.25,18.01,16.7,15,16.7z M15,6.58c-2.57,0-4.65,2.09-4.65,4.65c0,2.57,2.09,4.65,4.65,4.65c2.57,0,4.65-2.09,4.65-4.65
		C19.65,8.67,17.57,6.58,15,6.58z M16.85,11.52l-2.37,1.54c-0.06,0.04-0.12,0.05-0.18,0.05c-0.05,0-0.11-0.01-0.16-0.04
		c-0.11-0.06-0.17-0.17-0.17-0.29V9.7c0-0.12,0.07-0.24,0.17-0.29c0.11-0.06,0.24-0.05,0.34,0.01l2.37,1.54
		c0.1,0.06,0.15,0.17,0.15,0.28C17.01,11.35,16.95,11.46,16.85,11.52z M11.6,23.97v2.92c0,0.23-0.12,0.34-0.34,0.34h-0.5
		c-0.22,0-0.34-0.11-0.34-0.34v-2.92c0-0.22,0.12-0.34,0.34-0.34h0.5C11.48,23.63,11.6,23.75,11.6,23.97z M20.83,20.87H9.17
		c-2.52,0-4.57,2.05-4.57,4.57C4.6,27.95,6.65,30,9.17,30h11.67c2.52,0,4.57-2.05,4.57-4.57C25.4,22.91,23.35,20.87,20.83,20.87z
		 M12.7,27.11c0,0.8-0.43,1.23-1.23,1.23h-0.96c-0.8,0-1.23-0.43-1.23-1.23v-3.35c0-0.8,0.43-1.23,1.23-1.23h0.96
		c0.8,0,1.23,0.43,1.23,1.23V27.11z M16.62,23.52c0,0.09-0.04,0.14-0.14,0.14H15.5v4.55c0,0.09-0.04,0.14-0.14,0.14h-0.89
		c-0.09,0-0.14-0.04-0.14-0.14v-4.55h-0.99c-0.09,0-0.14-0.05-0.14-0.14v-0.85c0-0.09,0.05-0.14,0.14-0.14h3.15
		c0.09,0,0.14,0.05,0.14,0.14V23.52z M20.72,23.52c0,0.09-0.04,0.14-0.14,0.14h-0.99v4.55c0,0.09-0.04,0.14-0.14,0.14h-0.89
		c-0.09,0-0.14-0.04-0.14-0.14v-4.55h-0.99c-0.09,0-0.14-0.05-0.14-0.14v-0.85c0-0.09,0.05-0.14,0.14-0.14h3.15
		c0.09,0,0.14,0.05,0.14,0.14V23.52z M10.57,18.67c0-0.3,0.24-0.55,0.55-0.55c0.3,0,0.55,0.24,0.55,0.55c0,0.3-0.24,0.55-0.55,0.55
		C10.82,19.22,10.57,18.97,10.57,18.67z M10.57,20.03c0-0.3,0.24-0.55,0.55-0.55c0.3,0,0.55,0.24,0.55,0.55s-0.24,0.55-0.55,0.55
		C10.82,20.57,10.57,20.33,10.57,20.03z M14.45,18.67c0-0.3,0.24-0.55,0.55-0.55s0.55,0.24,0.55,0.55c0,0.3-0.24,0.55-0.55,0.55
		S14.45,18.97,14.45,18.67z M14.45,20.03c0-0.3,0.24-0.55,0.55-0.55s0.55,0.24,0.55,0.55S15.3,20.57,15,20.57
		S14.45,20.33,14.45,20.03z M18.34,18.67c0-0.3,0.24-0.55,0.55-0.55c0.3,0,0.55,0.24,0.55,0.55c0,0.3-0.24,0.55-0.55,0.55
		C18.58,19.22,18.34,18.97,18.34,18.67z M18.34,20.03c0-0.3,0.24-0.55,0.55-0.55c0.3,0,0.55,0.24,0.55,0.55s-0.24,0.55-0.55,0.55
		C18.58,20.57,18.34,20.33,18.34,20.03z"/>
</g>
</svg>
