<?xml version="1.0" encoding="utf-8"?>
<!-- Generator: Adobe Illustrator 26.5.0, SVG Export Plug-In . SVG Version: 6.00 Build 0)  -->
<svg version="1.1" id="Layer_1" xmlns="http://www.w3.org/2000/svg" xmlns:xlink="http://www.w3.org/1999/xlink" x="0px" y="0px"
	 width="30px" height="30px" viewBox="0 0 30 30" style="enable-background:new 0 0 30 30;" xml:space="preserve">
<style type="text/css">
	.st0{fill-rule:evenodd;clip-rule:evenodd;fill:#7D6599;}
	.st1{fill-rule:evenodd;clip-rule:evenodd;fill:#3B97D3;}
	.st2{fill-rule:evenodd;clip-rule:evenodd;fill:#2980BA;}
	.st3{fill-rule:evenodd;clip-rule:evenodd;fill:#5D4C72;}
	.st4{fill-rule:evenodd;clip-rule:evenodd;fill:#67B9CC;}
	.st5{fill-rule:evenodd;clip-rule:evenodd;fill:#F0C419;}
	.st6{fill-rule:evenodd;clip-rule:evenodd;fill:#F3D55B;}
	.st7{fill-rule:evenodd;clip-rule:evenodd;fill:#B19046;}
</style>
<g id="Page-1">
	<g id="_x30_76---Real-Estate-Investing">
		<path id="Path" class="st0" d="M11.38,6.23l1.03,15.52H2.07c-0.57,0-1.03-0.46-1.03-1.03V6.23H11.38z"/>
		<path id="Path_00000178172092636326250650000007570970371947057838_" class="st1" d="M13.45,21.74h-2.07V1.05h12.41v12.67
			L13.45,21.74z"/>
		<path id="Rectangle" class="st2" d="M10.86,0.02h13.45c0.29,0,0.52,0.23,0.52,0.52v1.03c0,0.29-0.23,0.52-0.52,0.52H10.86
			c-0.29,0-0.52-0.23-0.52-0.52V0.54C10.34,0.25,10.58,0.02,10.86,0.02z"/>
		<path id="Path_00000049201363160005278610000017029921293296283066_" class="st3" d="M11.38,5.19v2.07H0.52
			C0.23,7.26,0,7.03,0,6.74V5.71c0-0.29,0.23-0.52,0.52-0.52H11.38z"/>
		<path id="Path_00000040559978994910302790000010958047207367125143_" class="st3" d="M4.66,17.6h3.1c0.29,0,0.52,0.23,0.52,0.52
			v3.62H4.14v-3.62C4.14,17.84,4.37,17.6,4.66,17.6z"/>
		<g>
			<path id="Rectangle_00000005257589104818162120000000157751867012845466_" class="st4" d="M3.62,13.47h1.03
				c0.29,0,0.52,0.23,0.52,0.52v1.03c0,0.29-0.23,0.52-0.52,0.52H3.62c-0.29,0-0.52-0.23-0.52-0.52v-1.03
				C3.1,13.7,3.34,13.47,3.62,13.47z"/>
			<path id="Rectangle_00000018917161336332168780000016072514559570415019_" class="st4" d="M7.76,13.47h1.03
				c0.29,0,0.52,0.23,0.52,0.52v1.03c0,0.29-0.23,0.52-0.52,0.52H7.76c-0.29,0-0.52-0.23-0.52-0.52v-1.03
				C7.24,13.7,7.47,13.47,7.76,13.47z"/>
			<path id="Rectangle_00000158008806478958988840000012437927922436604345_" class="st4" d="M3.62,9.33h1.03
				c0.29,0,0.52,0.23,0.52,0.52v1.03c0,0.29-0.23,0.52-0.52,0.52H3.62c-0.29,0-0.52-0.23-0.52-0.52V9.85
				C3.1,9.56,3.34,9.33,3.62,9.33z"/>
			<path id="Rectangle_00000059990511841502566800000005186566794469413782_" class="st4" d="M7.76,9.33h1.03
				c0.29,0,0.52,0.23,0.52,0.52v1.03c0,0.29-0.23,0.52-0.52,0.52H7.76c-0.29,0-0.52-0.23-0.52-0.52V9.85
				C7.24,9.56,7.47,9.33,7.76,9.33z"/>
			<path id="Rectangle_00000075849126346495086200000012969091189043107724_" class="st4" d="M14.48,8.81h1.03
				c0.29,0,0.52,0.23,0.52,0.52v1.03c0,0.29-0.23,0.52-0.52,0.52h-1.03c-0.29,0-0.52-0.23-0.52-0.52V9.33
				C13.97,9.04,14.2,8.81,14.48,8.81z"/>
			<path id="Rectangle_00000167367044802363650470000014088943183011914373_" class="st4" d="M19.66,8.81h1.03
				c0.29,0,0.52,0.23,0.52,0.52v1.03c0,0.29-0.23,0.52-0.52,0.52h-1.03c-0.29,0-0.52-0.23-0.52-0.52V9.33
				C19.14,9.04,19.37,8.81,19.66,8.81z"/>
			<path id="Rectangle_00000081635451204582773000000004387918332287847592_" class="st4" d="M14.48,4.67h1.03
				c0.29,0,0.52,0.23,0.52,0.52v1.03c0,0.29-0.23,0.52-0.52,0.52h-1.03c-0.29,0-0.52-0.23-0.52-0.52V5.19
				C13.97,4.91,14.2,4.67,14.48,4.67z"/>
			<path id="Rectangle_00000072245705755115067420000012718040703787280535_" class="st4" d="M19.66,4.67h1.03
				c0.29,0,0.52,0.23,0.52,0.52v1.03c0,0.29-0.23,0.52-0.52,0.52h-1.03c-0.29,0-0.52-0.23-0.52-0.52V5.19
				C19.14,4.91,19.37,4.67,19.66,4.67z"/>
		</g>
		<path id="Path_00000181796051021450410960000013802584619198301373_" class="st5" d="M30,21.74c-0.01,3.53-2.26,6.66-5.59,7.8
			s-7.03,0.03-9.19-2.76s-2.31-6.64-0.37-9.59s5.53-4.34,8.95-3.46C27.45,14.67,30,17.97,30,21.74z"/>
		<circle id="Oval" class="st6" cx="21.72" cy="21.74" r="6.21"/>
		<path id="Path_00000077320909392297970240000002812763332855506084_" class="st7" d="M21.72,21.23c-0.57,0-1.03-0.46-1.03-1.03
			s0.46-1.03,1.03-1.03c0.57,0,1.03,0.46,1.03,1.03c0,0.29,0.23,0.52,0.52,0.52c0.29,0,0.52-0.23,0.52-0.52c0-0.94-0.64-1.76-1.55-2
			V17.6c0-0.29-0.23-0.52-0.52-0.52c-0.29,0-0.52,0.23-0.52,0.52v0.59c-1.01,0.26-1.67,1.23-1.53,2.26c0.13,1.03,1.01,1.81,2.05,1.8
			c0.57,0,1.03,0.46,1.03,1.03c0,0.57-0.46,1.03-1.03,1.03c-0.57,0-1.03-0.46-1.03-1.03c0-0.29-0.23-0.52-0.52-0.52
			s-0.52,0.23-0.52,0.52c0,0.94,0.64,1.76,1.55,2v0.59c0,0.29,0.23,0.52,0.52,0.52c0.29,0,0.52-0.23,0.52-0.52v-0.59
			c1.01-0.26,1.67-1.23,1.53-2.26C23.64,22,22.76,21.22,21.72,21.23z"/>
	</g>
</g>
</svg>
