<?xml version="1.0" encoding="utf-8"?>
<!-- Generator: Adobe Illustrator 26.5.0, SVG Export Plug-In . SVG Version: 6.00 Build 0)  -->
<svg version="1.1" id="Layer_1" xmlns="http://www.w3.org/2000/svg" xmlns:xlink="http://www.w3.org/1999/xlink" x="0px" y="0px"
	 width="30px" height="30px" viewBox="0 0 30 30" style="enable-background:new 0 0 30 30;" xml:space="preserve">
<style type="text/css">
	.st0{fill:#FD9827;}
	.st1{fill:#EA7B0C;}
	.st2{fill:#FFE780;}
	.st3{fill:#FBBE2C;}
	.st4{fill:#605553;}
	.st5{fill:#4C403F;}
	.st6{fill:#EEF9FF;}
	.st7{fill:#D2EBFF;}
</style>
<g>
	<g id="XMLID_117_">
		<g id="XMLID_118_">
			<g id="XMLID_119_">
				<g id="XMLID_120_">
					<g id="XMLID_121_">
						<g id="XMLID_122_">
							<g id="XMLID_123_">
								<g id="XMLID_124_">
									<g id="XMLID_125_">
										<g id="XMLID_126_">
											<g id="XMLID_127_">
												<g id="XMLID_128_">
													<g id="XMLID_129_">
														<g id="XMLID_130_">
															<circle id="XMLID_131_" class="st0" cx="15" cy="15" r="15"/>
														</g>
													</g>
												</g>
											</g>
										</g>
									</g>
								</g>
							</g>
						</g>
					</g>
				</g>
			</g>
		</g>
	</g>
	<path class="st1" d="M30,15c0-1.74-0.3-3.41-0.84-4.96l-6.19-6.19c0,0-4.21,1.2-4.87,2.97l-2.71-2.61l-1.58,2.06l-2.07-2.06
		l-1.36,2.06L8.14,4.21H6.25l2.01,7.08c0,1.15-0.69,2.87-0.69,2.87L9.5,16.1l0.17,10.37l3.4,3.4C13.7,29.96,14.35,30,15,30
		C23.28,30,30,23.28,30,15L30,15z"/>
	<g>
		<g>
			<path class="st2" d="M8.88,14.49h3.88v5.1H8.88L8.88,14.49z"/>
			<path class="st3" d="M10.82,14.49h1.94v5.1h-1.94V14.49z"/>
			<path class="st4" d="M10.82,26.85c-1.07,0-1.94-0.87-1.94-1.94v-7.02h3.88v7.02C12.76,25.98,11.89,26.85,10.82,26.85z"/>
			<path class="st2" d="M19.09,14.49h3.88v5.1h-3.88V14.49z"/>
			<path class="st3" d="M21.03,14.49h1.94v5.1h-1.94V14.49z"/>
			<path class="st4" d="M21.03,26.85c-1.07,0-1.94-0.87-1.94-1.94v-7.02h3.88v7.02C22.97,25.98,22.1,26.85,21.03,26.85z"/>
			<path class="st5" d="M22.97,17.89v7.02c0,1.07-0.87,1.94-1.94,1.94v-8.96L22.97,17.89z"/>
			<path class="st6" d="M22.97,14.79h-3.25c-1.19,0-2.15-0.96-2.15-2.15V8.52c0-2.58,2.09-4.67,4.67-4.67h0.74V14.79z"/>
			<path class="st6" d="M13.5,4.21v4.92c0,0.49-0.39,0.88-0.88,0.88s-0.88-0.39-0.88-0.88V4.21H9.9v4.92c0,0.49-0.39,0.88-0.88,0.88
				S8.14,9.62,8.14,9.13V4.21H6.25v7.08c0,2.09,1.69,3.79,3.79,3.79h1.57c2.09,0,3.79-1.69,3.79-3.79V4.21L13.5,4.21z"/>
			<path class="st7" d="M15.39,4.21v7.08c0,1.69-1.1,3.12-2.63,3.6c-0.36,0.12-0.75,0.18-1.16,0.18h-0.78V4.21h0.92v4.92
				c0,0.49,0.39,0.88,0.88,0.88h0c0.49,0,0.88-0.39,0.88-0.88V4.21L15.39,4.21z"/>
		</g>
		<path class="st5" d="M12.76,17.89v7.02c0,1.07-0.87,1.94-1.94,1.94v-8.96L12.76,17.89z"/>
		<path class="st7" d="M22.97,3.85v10.94h-1.94V4.01c0.38-0.1,0.79-0.16,1.2-0.16L22.97,3.85z"/>
	</g>
</g>
</svg>
