<?xml version="1.0" encoding="utf-8"?>
<!-- Generator: Adobe Illustrator 26.5.0, SVG Export Plug-In . SVG Version: 6.00 Build 0)  -->
<svg version="1.1" id="Layer_1" xmlns="http://www.w3.org/2000/svg" xmlns:xlink="http://www.w3.org/1999/xlink" x="0px" y="0px"
	 width="30px" height="30px" viewBox="0 0 30 30" style="enable-background:new 0 0 30 30;" xml:space="preserve">
<style type="text/css">
	.st0{fill:#B5B5B5;}
	.st1{fill:#49A9CD;}
	.st2{fill:#4FB5DC;}
	.st3{fill:#474747;}
	.st4{fill:#686868;}
	.st5{fill:#5ED3F2;}
	.st6{fill:#95EBFC;}
	.st7{fill:#F2F2F2;}
	.st8{fill:#FFFFFF;}
	.st9{fill:#2862BE;}
	.st10{fill:#C8CDED;}
	.st11{fill:#F6B940;}
	.st12{fill:#B52F28;}
	.st13{fill:#D23F34;}
</style>
<g id="Layer_22">
	<path class="st0" d="M14.5,3h1v7h-1V3z"/>
	<path class="st1" d="M0,16h30v14H0V16z"/>
	<path class="st2" d="M2,27.5c0,0.55,0.45,1,1,1h27V16H2V27.5z"/>
	<path class="st3" d="M25.27,10L30,16H0l5-6H25.27z"/>
	<path class="st4" d="M7,10l-5,6h28l-4.73-6H7z"/>
	<path class="st5" d="M10,30V16l5-7.5l5,7.5v14"/>
	<path class="st6" d="M10,16v12.5h10V16l-5-7.5L10,16z"/>
	<path class="st7" d="M12,30v-9h6v9"/>
	<g>
		<path class="st8" d="M12,21h6v7.5h-6V21z"/>
		<path class="st8" d="M2,19h6v3H2V19z"/>
		<path class="st8" d="M2,24h6v3H2V24z"/>
		<path class="st8" d="M22,19h6v3h-6V19z"/>
		<path class="st8" d="M22,24h6v3h-6V24z"/>
	</g>
	<circle class="st9" cx="15" cy="16.5" r="2.5"/>
	<path class="st7" d="M16,17h-1c-0.28,0-0.5-0.22-0.5-0.5V15h1v1H16V17z"/>
	<path class="st10" d="M4.5,19h1v3h-1V19z"/>
	<path class="st10" d="M4.5,24h1v3h-1V24z"/>
	<path class="st10" d="M24.5,24h1v3h-1V24z"/>
	<path class="st10" d="M24.5,19h1v3h-1V19z"/>
	<path class="st11" d="M15.5,3H9l2-1.5L9,0h6.5V3z"/>
	<path class="st4" d="M14.5,21h1v9h-1V21z"/>
	<path class="st12" d="M29.5,5.5c0,0.98-0.28,1.94-0.81,2.76L25,14l-3.69-5.74C20.78,7.44,20.5,6.48,20.5,5.5
		C20.5,3.01,22.51,1,25,1S29.5,3.01,29.5,5.5z"/>
	<path class="st13" d="M28.69,8.26c0.53-0.82,0.81-1.78,0.81-2.76c0-2.19-1.59-4.07-3.75-4.43C23.59,1.43,22,3.31,22,5.5
		c0,0.98,0.28,1.94,0.81,2.76l2.94,4.57L28.69,8.26z"/>
	<circle class="st7" cx="25" cy="5.5" r="2.5"/>
</g>
</svg>
