<?xml version="1.0" encoding="utf-8"?>
<!-- Generator: Adobe Illustrator 26.5.0, SVG Export Plug-In . SVG Version: 6.00 Build 0)  -->
<svg version="1.1" id="Flat" xmlns="http://www.w3.org/2000/svg" xmlns:xlink="http://www.w3.org/1999/xlink" x="0px" y="0px"
	 width="30px" height="30px" viewBox="0 0 30 30" style="enable-background:new 0 0 30 30;" xml:space="preserve">
<style type="text/css">
	.st0{fill:#FFE650;}
	.st1{fill:#64648C;}
	.st2{fill:#FF6E96;}
	.st3{fill:#EDFAFC;}
	.st4{fill:#222282;}
</style>
<path class="st0" d="M6.5,0.83H23.5v25.87H6.5V0.83z"/>
<g>
	<path class="st1" d="M20.49,19.25h-3.43v3.43c0,0.39,0.32,0.71,0.71,0.71h2.72c0.39,0,0.71-0.32,0.71-0.71v-2.72
		C21.2,19.57,20.88,19.25,20.49,19.25z"/>
	<path class="st1" d="M12.93,19.25H9.51c-0.39,0-0.71,0.32-0.71,0.71v2.72c0,0.39,0.32,0.71,0.71,0.71h2.72
		c0.39,0,0.71-0.32,0.71-0.71V19.25z"/>
	<path class="st1" d="M16.36,15.12h-2.72c-0.39,0-0.71,0.32-0.71,0.71v3.43h4.13v-3.43C17.07,15.44,16.75,15.12,16.36,15.12z"/>
</g>
<path class="st2" d="M14.46,13.27c0.31,0.27,0.77,0.27,1.08,0c0.37-0.32,3.6-3.16,3.6-5.82c0-2.28-1.85-4.13-4.13-4.13
	s-4.13,1.85-4.13,4.13C10.87,10.11,14.09,12.95,14.46,13.27z"/>
<circle class="st3" cx="15" cy="7.44" r="1.65"/>
<path class="st4" d="M23.5,0H6.5C6.04,0,5.67,0.37,5.67,0.83v28.35C5.67,29.63,6.04,30,6.5,30H23.5c0.46,0,0.83-0.37,0.83-0.83V0.83
	C24.33,0.37,23.96,0,23.5,0z M22.68,25.04H7.32V1.65h15.35V25.04z"/>
</svg>
