<svg width="125" height="125" viewBox="0 0 125 125" fill="none" xmlns="http://www.w3.org/2000/svg">
<g clip-path="url(#clip0_2135_3385)">
<path d="M62.5 125C97.0178 125 125 97.0178 125 62.5C125 27.9822 97.0178 0 62.5 0C27.9822 0 0 27.9822 0 62.5C0 97.0178 27.9822 125 62.5 125Z" fill="#262964"/>
<path d="M62.5 117.187C92.7031 117.187 117.187 92.7031 117.187 62.5C117.187 32.2969 92.7031 7.8125 62.5 7.8125C32.2969 7.8125 7.8125 32.2969 7.8125 62.5C7.8125 92.7031 32.2969 117.187 62.5 117.187Z" fill="#555ABE"/>
<path d="M100.001 62.5622C99.9388 62.6247 99.8555 62.6663 99.793 62.7288C97.1471 65.3747 94.5013 68.0205 91.8555 70.6663C91.7721 70.7497 91.668 70.833 91.6055 70.8955C88.793 68.083 86.0013 65.2913 83.2305 62.5205C85.9805 59.7705 88.793 56.958 91.6055 54.1455C91.6263 54.1663 91.7096 54.2288 91.793 54.3122C94.5013 57.0205 97.2096 59.7288 99.918 62.4372C99.9388 62.458 99.9596 62.4788 100.001 62.4997V62.5622Z" fill="white"/>
<path d="M48.0208 56.4583C45.2083 53.6458 42.4167 50.8542 39.625 48.0625C39.7292 47.8958 62.1875 25.375 62.5208 25.125C70.1667 32.7708 77.8333 40.4167 85.4792 48.0833C85.375 48.25 77.5208 56.1667 77.1042 56.4792C72.2708 51.6458 67.4167 46.7917 62.5625 41.9375C57.6875 46.7917 52.8333 51.625 48.0208 56.4583Z" fill="white"/>
<path d="M47.9792 68.542C52.8333 73.3962 57.6667 78.2295 62.5208 83.0837C63.1042 82.5628 63.625 82.0003 64.1458 81.4795C64.6875 80.9378 65.2292 80.3962 65.75 79.8753C66.2708 79.3545 66.8333 78.792 67.3542 78.2712C67.8958 77.7295 68.4375 77.1878 68.9583 76.667C69.5 76.1253 70.0417 75.5837 70.5833 75.042C71.125 74.5003 71.6667 73.9587 72.1875 73.4378C72.7292 72.8962 73.2708 72.3545 73.7917 71.8337C74.3333 71.292 74.875 70.7503 75.3958 70.2295C75.9375 69.6878 76.4792 69.1462 77.0417 68.5837C79.8542 71.3962 82.6458 74.1878 85.4167 76.9587C77.75 84.6253 70.0833 92.292 62.4583 99.8962C54.8333 92.2712 47.1875 84.6253 39.5 76.9378C42.3542 74.1462 45.1667 71.3545 47.9792 68.542Z" fill="white"/>
<path d="M62.5417 70.9795C59.7292 68.167 56.875 65.3128 54.0625 62.5003C56.875 59.6878 59.7083 56.8545 62.5208 54.042C65.3333 56.8545 68.1875 59.7087 71 62.5212C68.2083 65.3337 65.3542 68.167 62.5417 70.9795Z" fill="white"/>
<path d="M25.1875 62.5003C27.9583 59.7295 30.75 56.9378 33.5208 54.167C36.2917 56.9378 39.1042 59.7503 41.8542 62.5003C39.0833 65.2712 36.2917 68.0628 33.5208 70.8337C30.7708 68.0837 27.9792 65.292 25.1875 62.5003Z" fill="white"/>
</g>
<defs>
<clipPath id="clip0_2135_3385">
<rect width="125" height="125" fill="white"/>
</clipPath>
</defs>
</svg>
