<svg width="125" height="125" viewBox="0 0 125 125" fill="none" xmlns="http://www.w3.org/2000/svg">
<g clip-path="url(#clip0_2135_3421)">
<path d="M62.5 125C97.0178 125 125 97.0178 125 62.5C125 27.9822 97.0178 0 62.5 0C27.9822 0 0 27.9822 0 62.5C0 97.0178 27.9822 125 62.5 125Z" fill="#262964"/>
<path d="M62.5 116.063C92.0818 116.063 116.063 92.0818 116.063 62.5C116.063 32.9182 92.0818 8.9375 62.5 8.9375C32.9182 8.9375 8.9375 32.9182 8.9375 62.5C8.9375 92.0818 32.9182 116.063 62.5 116.063Z" fill="#555ABE"/>
<path d="M44.4 62.4878C44.2238 65.527 46.5583 68.1038 49.5755 68.28H49.9059C52.9672 68.28 55.4118 65.8133 55.3898 62.7741C55.3898 59.7128 52.9231 57.2682 49.8839 57.2902C46.9767 57.2682 44.5541 59.5586 44.4 62.4878Z" fill="white"/>
<path d="M23.8739 61.0557C22.8828 60.9896 22.0459 61.7605 22.0018 62.7295C21.9578 63.7206 22.7066 64.5575 23.6756 64.6015C24.6667 64.6676 25.4816 63.8968 25.5476 62.9277C25.6137 61.9587 24.8429 61.1218 23.8739 61.0557Z" fill="white"/>
<path d="M44.0493 30.5306C44.9302 30.0901 45.2606 29.011 44.8421 28.13C44.4017 27.2491 43.3225 26.9187 42.4416 27.3372C41.5606 27.7777 41.2303 28.8348 41.6487 29.7157C42.0892 30.6187 43.1683 30.9931 44.0493 30.5306Z" fill="white"/>
<path d="M49.6199 40.2658C50.9634 39.5831 51.514 37.9313 50.8312 36.5879C50.1485 35.2444 48.4967 34.6938 47.1533 35.3766C45.8099 36.0593 45.2593 37.7111 45.942 39.0545C46.6247 40.398 48.2765 40.9485 49.6199 40.2658Z" fill="white"/>
<path d="M30.8568 46.9607C31.9139 47.6435 33.3014 47.3571 33.9841 46.3C34.6668 45.2429 34.3805 43.8554 33.3234 43.1727C32.2663 42.4899 30.8788 42.7762 30.1961 43.8334C29.4913 44.8685 29.7996 46.3 30.8568 46.9607Z" fill="white"/>
<path d="M34.1814 60.0878C32.6618 59.9997 31.3624 61.1449 31.2743 62.6865C31.1862 64.2062 32.3314 65.5056 33.8731 65.5937C35.3927 65.6818 36.6921 64.5365 36.7802 62.9949C36.8683 61.4753 35.701 60.1759 34.1814 60.0878Z" fill="white"/>
<path d="M31.1441 78.5421C30.0429 79.1147 29.5804 80.4581 30.131 81.6033C30.7036 82.7045 32.0471 83.167 33.1923 82.6164C34.2935 82.0438 34.756 80.7004 34.2054 79.5551C33.6328 78.4319 32.2673 77.9694 31.1441 78.5421Z" fill="white"/>
<path d="M41.824 54.4049C43.3216 55.3959 45.3258 54.9775 46.2948 53.4579C47.2859 51.9602 46.8674 49.9561 45.3478 48.9871C43.8502 47.996 41.8461 48.4144 40.877 49.9341C39.908 51.4097 40.3264 53.4138 41.824 54.4049Z" fill="white"/>
<path d="M75.7173 40.0676C76.9726 40.9045 78.7125 40.5521 79.5274 39.2748C80.3643 38.0194 80.0119 36.2796 78.7345 35.4647C77.4792 34.6278 75.7393 34.9802 74.9244 36.2575C74.0876 37.5349 74.4179 39.2307 75.7173 40.0676Z" fill="white"/>
<path d="M81.3344 30.3544C82.1713 30.905 83.2504 30.6628 83.801 29.8259C84.3516 28.989 84.1094 27.9098 83.2725 27.3592C82.4356 26.8086 81.3564 27.0509 80.8058 27.8658C80.2993 28.7027 80.5195 29.8259 81.3344 30.3544Z" fill="white"/>
<path d="M76.1375 57.2242C73.0982 57.048 70.4995 59.3825 70.3453 62.3997C70.1691 65.439 72.5036 68.0378 75.5208 68.192H75.8292C78.8684 68.192 81.313 65.7253 81.313 62.686C81.3351 59.801 79.0446 57.3784 76.1375 57.2242Z" fill="white"/>
<path d="M51.4479 54.0081C52.3949 55.8581 54.289 57.0473 56.3812 57.0473C59.4205 57.0473 61.8651 54.5807 61.8651 51.5414C61.8651 50.6825 61.6669 49.8456 61.2704 49.0528C59.905 46.3219 56.5794 45.2427 53.8925 46.6082C51.1616 47.9956 50.0604 51.2992 51.4479 54.0081Z" fill="white"/>
<path d="M94.5719 46.9613C95.673 46.3886 96.1135 45.0232 95.5629 43.9C94.9903 42.7988 93.6248 42.3583 92.5016 42.9089C91.4005 43.4815 90.96 44.825 91.4886 45.9482C92.0832 47.0714 93.4266 47.5339 94.5719 46.9613Z" fill="white"/>
<path d="M80.6059 48.6999C79.0202 49.5148 78.3594 51.4529 79.1743 53.0385C79.9892 54.6242 81.9273 55.285 83.513 54.4701C85.0987 53.6552 85.7594 51.7171 84.9445 50.1314C84.1516 48.5457 82.2136 47.9291 80.6059 48.6999Z" fill="white"/>
<path d="M62.6356 29.5401C63.8689 29.6062 64.948 28.6372 65.0361 27.4038C65.1242 26.1705 64.1332 25.0914 62.8999 25.0033C61.6665 24.9372 60.5874 25.8842 60.4993 27.1175C60.4332 28.3729 61.4022 29.452 62.6356 29.5401Z" fill="white"/>
<path d="M62.6144 43.7667C64.3983 43.8769 65.9179 42.5114 66.006 40.7055C66.1161 38.9216 64.7507 37.4019 62.9448 37.3138C61.1608 37.2037 59.6412 38.5692 59.5531 40.3751C59.487 42.159 60.8305 43.6786 62.6144 43.7667Z" fill="white"/>
<path d="M45.1067 76.8029C46.6924 75.988 47.3531 74.0499 46.5382 72.4642C45.7234 70.8785 43.7853 70.2178 42.1996 71.0327C40.6139 71.8476 39.9532 73.7857 40.7681 75.3714C41.5609 76.9571 43.499 77.5957 45.1067 76.8029Z" fill="white"/>
<path d="M64.7068 48.4809C63.055 51.0356 63.7377 54.4272 66.2925 56.079C68.8472 57.7308 72.2388 57.048 73.8906 54.4933C75.5424 51.9386 74.8596 48.5469 72.3049 46.8952C71.4019 46.3005 70.3668 45.9922 69.2877 45.9922C67.4597 46.0142 65.7419 46.9392 64.7068 48.4809Z" fill="white"/>
<path d="M74.2647 71.4952C72.8992 68.7642 69.5736 67.6851 66.8868 69.0505C64.1558 70.416 63.0767 73.7416 64.4421 76.4284C65.8076 79.1594 69.1332 80.2385 71.82 78.8731C74.5289 77.5296 75.6301 74.2481 74.2867 71.5392C74.2867 71.5172 74.2867 71.5172 74.2647 71.4952Z" fill="white"/>
<path d="M83.8866 71.0994C82.389 70.1083 80.3848 70.5268 79.4158 72.0464C78.4247 73.544 78.8432 75.5481 80.3628 76.5172C81.8604 77.5082 83.8645 77.0898 84.8336 75.5702C85.8026 74.0946 85.3842 72.0904 83.8866 71.0994Z" fill="white"/>
<path d="M94.4364 62.8396C94.5245 61.32 93.3793 60.0206 91.8377 59.9325C90.318 59.8444 89.0186 60.9896 88.9305 62.5313C88.8424 64.0729 89.9877 65.3503 91.5293 65.4384C93.0269 65.5265 94.3483 64.3592 94.4364 62.8396Z" fill="white"/>
<path d="M102.034 60.8799C101.043 60.8139 100.206 61.5847 100.162 62.5537C100.118 63.5448 100.867 64.3817 101.836 64.4257C102.827 64.4918 103.642 63.721 103.708 62.7519C103.752 61.7829 103.003 60.946 102.034 60.8799Z" fill="white"/>
<path d="M94.8567 78.5418C93.8215 77.8591 92.412 78.1454 91.7293 79.2025C91.0466 80.2376 91.3329 81.6471 92.39 82.3299C93.4251 83.0126 94.8346 82.7263 95.5174 81.6692C96.2221 80.6341 95.9138 79.2245 94.8567 78.5418Z" fill="white"/>
<path d="M44.3571 95.1473C43.5202 94.5967 42.4411 94.839 41.8905 95.6539C41.3399 96.4907 41.5821 97.5699 42.397 98.1205C43.2339 98.6711 44.3131 98.4288 44.8637 97.614C45.4143 96.7991 45.194 95.6759 44.3571 95.1473Z" fill="white"/>
<path d="M81.6642 94.9722C80.7833 95.4127 80.4529 96.4918 80.8714 97.3728C81.3118 98.2537 82.391 98.5841 83.2719 98.1656C84.1529 97.7251 84.4832 96.668 84.0648 95.7871C83.6243 94.8841 82.5452 94.5097 81.6642 94.9722Z" fill="white"/>
<path d="M61.0044 77.0222C62.6561 74.4675 61.9734 71.0759 59.4187 69.4021C56.8639 67.7503 53.4723 68.433 51.7985 70.9878C50.1247 73.5425 50.8295 76.9341 53.3842 78.6079C54.2872 79.2026 55.3223 79.5109 56.4014 79.5109C58.2514 79.5109 59.9693 78.5859 61.0044 77.0222Z" fill="white"/>
<path d="M49.9945 85.4354C48.7391 84.5985 46.9993 84.9509 46.1844 86.2282C45.3475 87.4836 45.6999 89.2234 46.9773 90.0383C48.2546 90.8532 49.9725 90.5228 50.7873 89.2455C51.6242 87.9901 51.2939 86.2723 49.9945 85.4354Z" fill="white"/>
<path d="M62.8318 95.9631C61.5985 95.8971 60.5193 96.8661 60.4312 98.0994C60.3431 99.3328 61.3342 100.412 62.5675 100.5C63.8008 100.566 64.88 99.6191 64.9681 98.3857C65.0342 97.1304 64.0651 96.0512 62.8318 95.9631Z" fill="white"/>
<path d="M62.8549 81.7357C61.071 81.6256 59.5513 82.9911 59.4632 84.797C59.3531 86.5809 60.7186 88.1005 62.5245 88.1886C64.3084 88.2767 65.8281 86.9333 65.9162 85.1273C66.0043 83.3655 64.6388 81.8238 62.8549 81.7357Z" fill="white"/>
<path d="M76.0909 85.2378C74.7474 85.9426 74.1969 87.5943 74.9016 88.9378C75.6064 90.2812 77.2581 90.8318 78.6016 90.1271C79.945 89.4443 80.4956 87.7925 79.8129 86.4491C79.1081 85.1057 77.4563 84.5331 76.0909 85.2378Z" fill="white"/>
</g>
<defs>
<clipPath id="clip0_2135_3421">
<rect width="125" height="125" fill="white"/>
</clipPath>
</defs>
</svg>
