<svg width="125" height="125" viewBox="0 0 125 125" fill="none" xmlns="http://www.w3.org/2000/svg">
<path d="M62.5013 120.834C94.7179 120.834 120.835 94.7169 120.835 62.5003C120.835 30.2837 94.7179 4.16699 62.5013 4.16699C30.2847 4.16699 4.16797 30.2837 4.16797 62.5003C4.16797 94.7169 30.2847 120.834 62.5013 120.834Z" fill="#262964"/>
<path d="M62.5 112.5C90.1142 112.5 112.5 90.1142 112.5 62.5C112.5 34.8858 90.1142 12.5 62.5 12.5C34.8858 12.5 12.5 34.8858 12.5 62.5C12.5 90.1142 34.8858 112.5 62.5 112.5Z" fill="#555ABE"/>
<path fill-rule="evenodd" clip-rule="evenodd" d="M66.5189 52.2826L78.5793 45.2475V59.318L66.5189 52.2826ZM78.5793 82.4333L62.4988 91.8135L46.4182 82.4333V66.018L62.4988 75.3982L78.5793 66.018V82.4333ZM46.4182 45.2475L58.4786 52.2826L46.4182 59.3177V45.2475ZM64.5089 55.6326L76.5693 62.6677L64.5089 69.7028V55.6326ZM60.4887 69.7031L48.4283 62.668L60.4887 55.633V69.7031ZM76.5693 41.8972L62.4988 49.9375L48.4283 41.8972L62.4988 33.5222L76.5693 41.8972ZM42.3984 40.5573V84.4434L62.4988 95.8337L82.5991 84.4434V40.5573L62.4988 29.167L42.3984 40.5573Z" fill="white"/>
</svg>
