<svg width="125" height="125" viewBox="0 0 125 125" fill="none" xmlns="http://www.w3.org/2000/svg">
<g clip-path="url(#clip0_2135_3462)">
<path d="M62.5 125C97.0178 125 125 97.0178 125 62.5C125 27.9822 97.0178 0 62.5 0C27.9822 0 0 27.9822 0 62.5C0 97.0178 27.9822 125 62.5 125Z" fill="#262964"/>
<path d="M62.5 116.063C92.0818 116.063 116.063 92.0818 116.063 62.5C116.063 32.9182 92.0818 8.9375 62.5 8.9375C32.9182 8.9375 8.9375 32.9182 8.9375 62.5C8.9375 92.0818 32.9182 116.063 62.5 116.063Z" fill="#555ABE"/>
<path d="M62.5013 26.792L45.793 49.792L38.793 83.792L62.5013 98.2087L86.2096 83.7712L79.0638 49.6253L62.5013 26.792ZM42.6471 82.2087L47.9388 56.3545L59.9388 92.792L42.6471 82.2087ZM49.6471 50.5003L62.5013 32.792L75.3555 50.5003L62.5013 89.3545L49.6471 50.5003ZM64.9388 92.792L76.9388 56.3545L82.2305 82.2087L64.9388 92.792Z" fill="white"/>
</g>
<defs>
<clipPath id="clip0_2135_3462">
<rect width="125" height="125" fill="white"/>
</clipPath>
</defs>
</svg>
