<svg width="69" height="70" viewBox="0 0 69 70" fill="none" xmlns="http://www.w3.org/2000/svg">
<path d="M0.179155 60.2813H10.197V61.4123C10.197 63.836 11.9743 65.7749 14.2364 65.9365C16.6601 66.0981 18.599 64.3207 18.7606 61.8971V61.7355V60.2813H28.7784V50.1019H27.6473C25.2237 50.1019 23.2847 48.3246 23.1231 46.0625C22.9616 43.6388 24.7389 41.6999 27.1626 41.5383H27.3242H28.7784V31.5205H2.92597C1.3102 31.5205 0.0175781 32.8131 0.0175781 34.4289V60.2813H0.179155Z" fill="#7CD1FF"/>
<path d="M14.5595 61.5729C14.5595 63.0271 13.7516 64.4813 12.459 65.2892C13.1053 65.6123 13.7516 65.9355 14.3979 65.9355C16.8216 66.0971 18.7605 64.3197 18.9221 61.896V61.7345V60.2803H14.5595V61.5729Z" fill="#7099CF"/>
<path d="M27.3234 41.5383H28.7776V31.5205H24.5766V41.5383H23.1224C20.6987 41.5383 18.7598 43.4772 18.7598 45.9009V46.0625C18.9213 48.3246 21.0218 50.2635 23.2839 50.1019H24.5766V60.1197H28.9391V50.1019H27.8081C25.3844 50.1019 23.4455 48.3246 23.2839 46.0625C23.1224 43.6388 24.8997 41.6999 27.3234 41.5383Z" fill="#7099CF"/>
<path d="M28.7779 88.8795V78.8617H29.909C32.3326 78.8617 34.2715 77.0843 34.4331 74.8222C34.5947 72.3986 32.8173 70.4597 30.3937 70.2981H30.2321H28.7779V60.2803H18.7601V61.4113C18.7601 63.835 16.9828 65.7739 14.7207 65.9355C12.297 66.0971 10.3581 64.3197 10.1965 61.896V61.7345V60.2803H0.178711V86.1327C0.178711 87.7484 1.47133 89.041 3.0871 89.041H28.7779V88.8795Z" fill="#B2876D"/>
<path d="M30.2327 70.2981H28.7785V60.2803H25.8701V70.2981H27.3243C29.748 70.2981 31.6869 72.237 31.6869 74.6607V74.8222C31.5253 77.0843 29.4248 79.0233 27.1627 78.8617H26.0317V88.8795H28.9401V78.8617H30.0711C32.4948 78.8617 34.4337 77.0843 34.5953 74.8222C34.7569 72.3986 32.9795 70.4597 30.5559 70.2981C30.3943 70.2981 30.3943 70.2981 30.2327 70.2981Z" fill="#966857"/>
<path d="M11.8123 65.9359C12.1354 65.9359 12.6201 65.7743 12.9433 65.6128C11.1659 64.9665 10.0349 63.3507 10.0349 61.5733V60.1191H7.28809V61.5733C7.28809 63.997 9.22701 65.9359 11.6507 65.9359H11.8123Z" fill="#966857"/>
<path d="M57.5396 60.2806H47.5218V59.1496C47.5218 56.7259 45.7445 54.787 43.4824 54.6254C41.0587 54.4639 39.1198 56.2412 38.9582 58.6649V58.8264V60.2806H28.9404V70.2984H30.0715C32.4951 70.2984 34.4341 72.0758 34.5956 74.3379C34.7572 76.7615 32.9799 78.7005 30.5562 78.862H30.3946H28.9404V88.8798H54.7928C56.4086 88.8798 57.7012 87.5872 57.7012 85.9714V60.2806H57.5396Z" fill="#95E8C8"/>
<path d="M43.1591 58.988V60.1191H47.5217V58.988C47.5217 56.5644 45.7443 54.6254 43.4823 54.4639C42.6744 54.4639 41.8665 54.6254 41.0586 55.1102C42.3512 55.9181 43.1591 57.3723 43.1591 58.988Z" fill="#06CCAB"/>
<path d="M53.176 60.2803V86.1327C53.176 87.7484 51.8834 89.041 50.2676 89.041H54.6302C56.2459 89.041 57.5386 87.7484 57.5386 86.1327V60.2803H53.176Z" fill="#06CCAB"/>
<path d="M86.1373 58.8252V67.3888H84.6832H64.6476H63.1934V58.8252H66.1018H76.1196H83.229H86.1373Z" fill="#A0CBE0"/>
<path d="M64.6484 67.3896H84.684V88.8794H64.6484V67.3896Z" fill="#314A66"/>
<path d="M84.684 73.0449V67.3896H64.6484V88.8794H70.3036V87.4252C70.4652 79.5079 76.7667 73.0449 84.684 73.0449Z" fill="#2C4354"/>
<path d="M66.1029 52.039C58.9935 48.4843 58.9935 35.8812 58.9935 35.8812L58.1857 35.0734L53.1768 30.0645L57.5393 25.7019L58.5088 26.6713L66.1029 34.2655L70.4655 38.628V22.4703L73.3739 19.5619L64.3256 10.1904L74.6665 11.483L86.1385 21.5008L83.2302 53.0084V58.6637H76.1207C70.4655 58.6637 70.4655 53.0084 70.4655 53.0084C68.8498 53.0084 67.3956 52.6853 66.1029 52.039Z" fill="#FFBEAA"/>
<path d="M76.1213 58.8263H66.1035V52.04C67.3961 52.6863 68.8503 53.0095 70.4661 53.0095C70.4661 53.0095 70.4661 58.8263 76.1213 58.8263Z" fill="#FAA68E"/>
<path d="M70.465 22.4712L66.264 26.8338L66.1024 26.6722L65.2945 25.7028C63.6788 24.087 61.0935 23.9254 59.3162 25.5412C59.1546 25.7028 59.1546 25.7028 58.993 25.8643C58.6699 26.1875 58.5083 26.5106 58.3467 26.8338L57.5388 25.8643L53.1762 30.2269L58.1851 35.2358L53.1762 40.2447L46.2284 32.9737L45.0974 33.9432C43.4816 35.559 40.8963 35.7206 39.2806 34.1048C39.119 33.9432 39.119 33.9432 38.9574 33.7816C37.5032 32.0043 37.6648 29.2575 39.2806 27.6417L40.0885 26.8338L33.1406 19.4012L51.2373 0.81984C52.3683 -0.311202 53.9841 -0.311202 55.1152 0.658263C55.1152 0.658263 55.1152 0.658263 55.2767 0.81984L64.3251 10.1913L73.3734 19.5628L70.465 22.4712Z" fill="#FBB040"/>
<path d="M69.0101 23.7632L68.2022 22.7937C66.5864 21.1779 64.0012 21.0163 62.2238 22.6321C62.0622 22.7937 62.0622 22.7937 61.9007 22.9553C61.5775 23.2784 61.4159 23.6016 61.2544 23.9247L60.2849 22.9553L57.5381 25.8637L58.5075 26.8331C58.6691 26.51 58.8307 26.1868 59.1539 25.8637C60.6081 24.0863 63.3549 23.9247 64.9706 25.3789C65.1322 25.5405 65.1322 25.5405 65.2938 25.7021L66.1017 26.6715L66.2633 26.8331L69.0101 23.7632Z" fill="#F7941D"/>
<path d="M48.9752 30.0648L48.0057 31.0342C46.39 32.65 43.8047 32.8116 42.189 31.1958C42.0274 31.0342 42.0274 31.0342 41.8658 30.8726C40.4116 29.0953 40.5732 26.3485 42.189 24.7327L42.9968 23.9248L36.049 16.6538L51.722 0.496094C51.5604 0.657671 51.3989 0.657671 51.2373 0.819249L33.1406 19.4007L40.0885 26.6716L39.2806 27.4795C37.6648 29.0953 37.5032 31.8421 38.9574 33.6195C40.4116 35.3968 42.9968 35.5584 44.7742 34.1042C44.9358 33.9426 44.9358 33.9426 45.0974 33.781L46.0668 32.8116L53.0146 40.0826L55.7615 37.1742L48.9752 30.0648Z" fill="#F7941D"/>
<path d="M70.4661 22.4697V38.789L66.1035 34.4265V26.5092L66.2651 26.6707L70.4661 22.4697Z" fill="#FAA68E"/>
<path d="M66.1018 58.8252H63.1934V67.3888H86.1373V64.4804C66.1017 64.4804 66.1018 58.8252 66.1018 58.8252Z" fill="#7EA8C2"/>
<path d="M14.5596 14.3955H26.0316V17.3039H14.5596V14.3955Z" fill="#A8B8BF"/>
<path d="M17.791 26.1914L24.9004 19.082L27.0009 21.1825L19.7299 28.2919L17.791 26.1914Z" fill="#A8B8BF"/>
<path d="M17.791 5.3466L19.7299 3.24609L26.8393 10.3555L24.7388 12.456L17.791 5.3466Z" fill="#A8B8BF"/>
</svg>
