<svg width="70" height="70" viewBox="0 0 70 70" fill="none" xmlns="http://www.w3.org/2000/svg">
<path d="M22.6545 45.3088H32.9636V36.3997L30.9273 33.0907C30.9273 26.3452 25.4545 20.7452 18.5818 20.7452H12.4727V15.6543L0 24.6907L12.4727 33.9816V28.8907H18.5818C20.8727 28.8907 22.6545 30.6725 22.6545 32.9634V45.3088Z" fill="#FFDD33"/>
<path d="M47.3452 45.3092H37.0361V35.891L39.0725 32.9637C39.0725 26.2183 44.5452 20.6183 51.418 20.6183H57.527V15.5273L69.9998 24.8183L57.527 34.1092V29.0183H51.418C49.127 29.0183 47.3452 30.8001 47.3452 33.091V45.3092Z" fill="#FF4D4D"/>
<path d="M34.9996 0L25.8359 12.3455H30.9268V37.0364L34.9996 41.1091L39.0723 37.0364V12.3455H44.1632L34.9996 0Z" fill="#7ED8F6"/>
<path d="M39.0727 12.3455H44.1636L35 0V41.1091L39.0727 37.0364V12.3455Z" fill="#6AA9FF"/>
<path d="M47.3457 53.4543C47.3457 52.6907 47.2184 51.927 47.0911 51.1634L51.2911 48.7452L47.2184 41.618L43.0184 44.0361C41.873 43.0179 40.6002 42.2543 39.2002 41.8725V37.0361H35.1275H31.0548V41.8725C29.6548 42.3816 28.382 43.1452 27.2366 44.0361L23.0366 41.618L18.9639 48.7452L23.1639 51.1634C23.0366 51.927 22.9093 52.6907 22.9093 53.4543C22.9093 54.218 23.0366 54.9816 23.1639 55.7452L18.9639 58.1634L23.0366 65.2907L27.2366 62.8725C28.382 63.8907 29.6548 64.6543 31.0548 65.0361V69.9998H35.1275H39.2002V65.0361C40.6002 64.527 41.873 63.7634 43.0184 62.8725L47.2184 65.2907L51.2911 58.1634L47.0911 55.7452C47.2184 54.9816 47.3457 54.218 47.3457 53.4543ZM35.0002 57.527C32.7093 57.527 30.9275 55.7452 30.9275 53.4543C30.9275 51.1634 32.7093 49.3816 35.0002 49.3816C37.2911 49.3816 39.073 51.1634 39.073 53.4543C39.073 55.7452 37.2911 57.527 35.0002 57.527Z" fill="#CFE6E6"/>
<path d="M39.0724 65.0361C40.4724 64.527 41.7451 63.7634 42.8906 62.8725L47.0906 65.2907L51.1633 58.1634L47.0906 55.7452C47.2179 54.9816 47.3451 54.218 47.3451 53.4543C47.3451 52.6907 47.2179 51.927 47.0906 51.1634L51.2906 48.7452L47.2179 41.618L43.0179 44.0361C41.8724 43.0179 40.5997 42.2543 39.1997 41.8725V37.0361H35.127V49.3816C37.4179 49.3816 39.1997 51.1634 39.1997 53.4543C39.1997 55.7452 37.4179 57.527 35.127 57.527V69.9998H39.1997L39.0724 65.0361Z" fill="#A3C6CC"/>
<path d="M34.9997 47.3457C31.5634 47.3457 28.8906 50.1457 28.8906 53.4548C28.8906 56.7639 31.6906 59.5639 34.9997 59.5639C38.3088 59.5639 41.1088 56.7639 41.1088 53.4548C41.1088 50.1457 38.4361 47.3457 34.9997 47.3457ZM34.9997 55.4912C33.8543 55.4912 32.9634 54.6002 32.9634 53.4548C32.9634 52.3093 33.8543 51.4184 34.9997 51.4184C36.1452 51.4184 37.0361 52.3093 37.0361 53.4548C37.0361 54.6002 36.1452 55.4912 34.9997 55.4912Z" fill="#E6F2F2"/>
<path d="M41.1091 53.4548C41.1091 50.0184 38.3091 47.3457 35 47.3457V51.4184C36.1455 51.4184 37.0364 52.3093 37.0364 53.4548C37.0364 54.6002 36.1455 55.4912 35 55.4912V59.5639C38.4364 59.5639 41.1091 56.8912 41.1091 53.4548Z" fill="#CFE6E6"/>
</svg>
