<svg width="68" height="70" viewBox="0 0 68 70" fill="none" xmlns="http://www.w3.org/2000/svg">
<path fill-rule="evenodd" clip-rule="evenodd" d="M45.545 60.059H40.3801C38.3454 60.059 36.7803 58.4369 36.7803 56.3283V53.733C36.7803 53.0842 37.2498 52.7598 37.7194 52.7598H47.8927C48.5188 52.7598 48.8318 53.2464 48.8318 53.733V56.3283C49.1448 58.4369 47.5797 60.059 45.545 60.059Z" fill="#707487"/>
<path fill-rule="evenodd" clip-rule="evenodd" d="M36.9365 56.3282V53.8951C36.9365 53.2463 37.4061 52.9219 37.8756 52.9219H48.049C48.675 52.9219 48.988 53.4085 48.988 53.8951V56.3282H36.9365Z" fill="#65687A"/>
<path fill-rule="evenodd" clip-rule="evenodd" d="M61.1971 54.0569C61.0405 54.0569 60.7275 53.8947 60.571 53.8947L51.3367 47.2443C51.0237 46.9199 50.8672 46.4332 50.8672 46.1088C51.8063 41.8915 52.4323 37.3498 52.4323 32.6459V32.3214C52.4323 31.8348 52.5888 31.5104 53.0584 31.3482C53.3714 31.186 53.8409 31.186 54.154 31.3482L61.8231 36.8632C62.1361 37.0254 62.2927 37.3498 62.2927 37.6742V52.7592C62.2927 53.0836 61.9796 53.5703 61.6666 53.5703C61.5101 54.0569 61.3536 54.0569 61.1971 54.0569Z" fill="#FF6464"/>
<path fill-rule="evenodd" clip-rule="evenodd" d="M53.8397 49.0285L51.492 47.2443C51.179 46.9199 51.0225 46.4332 51.0225 46.1088C51.9615 41.8915 52.5876 37.3498 52.5876 32.6459V32.3214C52.5876 31.8348 52.7441 31.5104 53.2136 31.3482C53.5267 31.186 53.9962 31.186 54.3092 31.3482L56.0309 32.6459C56.0309 38.1608 55.2483 43.6758 53.8397 49.0285Z" fill="#E65A5A"/>
<path fill-rule="evenodd" clip-rule="evenodd" d="M24.8856 54.0579C24.7291 54.0579 24.5726 54.0579 24.4161 53.8957C24.1031 53.7335 23.79 53.4091 23.79 53.0846V37.9996C23.79 37.6752 23.9466 37.3508 24.2596 37.1886L31.9287 31.6736C32.2418 31.5114 32.7113 31.3492 33.0243 31.6736C33.3373 31.8358 33.6504 32.1602 33.6504 32.6469V32.9713C33.6504 37.6752 34.1199 42.2169 35.059 46.4342C35.2155 46.7587 35.059 47.2453 34.5895 47.5697L25.5117 54.2201C25.1987 54.0579 25.0421 54.0579 24.8856 54.0579Z" fill="#FF6464"/>
<path fill-rule="evenodd" clip-rule="evenodd" d="M30.0508 32.8101L31.7724 31.5125C32.0855 31.3503 32.555 31.1881 32.868 31.5125C33.181 31.6747 33.4941 31.9991 33.4941 32.4857V32.8101C33.4941 37.5141 33.9636 42.0558 34.9027 46.2731C35.0592 46.5975 34.9027 47.0841 34.4332 47.4086L32.0855 49.1928C30.8333 43.6778 30.0508 38.1629 30.0508 32.8101Z" fill="#E65A5A"/>
<path fill-rule="evenodd" clip-rule="evenodd" d="M49.7717 54.8688H36.4681C35.9986 54.8688 35.6856 54.5443 35.529 54.2199C33.0248 47.894 31.6162 40.4325 31.6162 32.6467C31.6162 19.3459 35.6856 6.85617 42.4156 0.205781C42.8852 -0.280833 43.3547 -0.280833 43.8242 0.205781C50.5543 7.01838 54.7802 19.3459 54.7802 32.6467C54.7802 40.4325 53.3716 47.894 50.8673 54.2199C50.5543 54.5443 50.0848 54.8688 49.7717 54.8688Z" fill="#E4EAF6"/>
<path fill-rule="evenodd" clip-rule="evenodd" d="M35.0596 11.8845C36.9377 7.18058 39.2854 3.12546 42.2592 0.205781C42.7287 -0.280833 43.1983 -0.280833 43.6678 0.205781C46.6416 3.12546 48.9893 7.18058 50.8674 11.8845C48.5197 13.3444 45.7025 14.1554 42.8852 14.1554C40.2245 14.1554 37.5638 13.3444 35.0596 11.8845Z" fill="#CDD3DD"/>
<path fill-rule="evenodd" clip-rule="evenodd" d="M33.963 50.3255C33.8065 49.6766 33.4934 49.0278 33.3369 48.2168H52.588C52.4315 49.0278 52.1185 49.6766 51.962 50.3255H33.963Z" fill="#707487"/>
<path fill-rule="evenodd" clip-rule="evenodd" d="M35.3711 11.3979C37.2493 6.85617 39.597 3.12546 42.2577 0.205781C42.7272 -0.280833 43.1968 -0.280833 43.6663 0.205781C46.4835 2.96326 48.8312 6.85617 50.7094 11.3979C48.3617 12.8577 45.701 13.6688 43.0402 13.6688C40.3795 13.6688 37.7188 12.6955 35.3711 11.3979Z" fill="#FF6464"/>
<path fill-rule="evenodd" clip-rule="evenodd" d="M43.0416 29.7261C39.2853 29.7261 36.3115 26.482 36.3115 22.5891C36.3115 18.6961 39.4418 15.6143 43.0416 15.6143C46.7979 15.6143 49.9282 18.8584 49.9282 22.5891C49.9282 26.482 46.7979 29.7261 43.0416 29.7261Z" fill="#D0D5E0"/>
<path fill-rule="evenodd" clip-rule="evenodd" d="M43.0408 29.2411C39.5975 29.2411 36.7803 26.3214 36.7803 22.5907C36.7803 18.86 39.5975 16.1025 43.0408 16.1025C46.4841 16.1025 49.4578 19.0222 49.4578 22.5907C49.4578 26.1592 46.4841 29.2411 43.0408 29.2411Z" fill="#38A0EA"/>
<path fill-rule="evenodd" clip-rule="evenodd" d="M37.7191 26.1582C37.4061 25.5093 37.093 25.0227 36.9365 24.2117L44.6057 16.2637C45.3882 16.4259 45.8578 16.7503 46.4838 17.0747L37.7191 26.1582Z" fill="#5BB0EB"/>
<path fill-rule="evenodd" clip-rule="evenodd" d="M41.4745 28.9146C40.3789 28.5902 39.4398 28.1036 38.6572 27.2925L47.5785 18.0469C48.361 18.8579 48.8306 19.8311 49.1436 20.9666L41.4745 28.9146Z" fill="#5BB0EB"/>
<path fill-rule="evenodd" clip-rule="evenodd" d="M48.2047 72.0624C47.5786 72.0624 47.2656 71.5757 47.2656 71.0891V63.3033C47.2656 62.6545 47.7352 62.3301 48.2047 62.3301C48.8308 62.3301 49.1438 62.8167 49.1438 63.3033V71.0891C49.1438 71.5757 48.6742 72.0624 48.2047 72.0624Z" fill="#FDAD0E"/>
<path fill-rule="evenodd" clip-rule="evenodd" d="M37.8756 72.0624C37.2496 72.0624 36.9365 71.5757 36.9365 71.0891V63.3033C36.9365 62.6545 37.4061 62.3301 37.8756 62.3301C38.3451 62.3301 38.8147 62.8167 38.8147 63.3033V71.0891C38.9712 71.5757 38.5017 72.0624 37.8756 72.0624Z" fill="#FDAD0E"/>
<path fill-rule="evenodd" clip-rule="evenodd" d="M43.0406 72.0624C42.4146 72.0624 42.1016 71.5757 42.1016 71.0891V63.3033C42.1016 62.6545 42.5711 62.3301 43.0406 62.3301C43.5102 62.3301 43.9797 62.8167 43.9797 63.3033V71.0891C43.9797 71.5757 43.5102 72.0624 43.0406 72.0624Z" fill="#FDAD0E"/>
<path fill-rule="evenodd" clip-rule="evenodd" d="M66.3616 88.9314C63.2314 88.9314 60.4141 87.4715 58.536 84.8763C57.2839 85.8495 55.8752 86.4983 54.3101 86.4983C53.5275 86.4983 52.9015 86.3361 52.1189 86.1739C51.1798 86.9849 49.9277 87.4715 48.6756 87.4715C47.8931 87.4715 47.267 87.3093 46.4844 86.9849C45.5454 87.7959 44.2933 87.9582 43.0411 87.9582C41.9456 87.9582 40.6935 87.6337 39.7544 86.9849C39.1283 87.3093 38.3458 87.4715 37.5632 87.4715C36.3111 87.4715 35.059 86.9849 34.1199 86.1739C33.3373 86.4983 32.7113 86.4983 31.9287 86.4983C30.3636 86.4983 28.7984 85.8495 27.7029 84.8763C25.8247 87.3093 22.8509 88.9314 19.7207 88.9314C18.4686 88.9314 17.373 88.7692 16.1209 88.2826C15.4948 88.4448 14.7122 88.4448 14.0862 88.4448C8.60823 88.4448 4.22586 83.903 4.22586 78.2259C4.22586 77.5771 4.22586 77.0904 4.38237 76.4416C1.72165 74.6574 0 71.4133 0 68.007C0 62.3298 4.38237 57.7881 9.86034 57.7881C15.3383 57.7881 19.7207 62.3298 19.7207 68.007V68.4936C21.9119 68.4936 23.9465 69.3046 25.5117 70.6023C26.2942 70.1156 27.3898 69.9534 28.3289 69.9534C30.6766 69.9534 32.8678 71.2511 33.9634 73.3597C35.685 74.0086 36.9371 75.144 37.7197 76.9282C38.6588 76.9282 39.5979 77.2526 40.3804 77.9015C41.163 77.5771 42.1021 77.4149 42.8846 77.4149C43.6672 77.4149 44.6063 77.5771 45.3889 77.9015C46.1714 77.2526 47.1105 77.0904 48.0496 76.9282C48.8321 75.3062 50.2408 74.0086 51.8059 73.3597C53.058 71.2511 55.0927 69.9534 57.4404 69.9534C58.3795 69.9534 59.3185 70.1156 60.2576 70.6023C61.9793 69.3046 64.0139 68.4936 66.0486 68.4936C66.0486 68.3314 66.0486 68.1692 66.0486 68.007C66.0486 62.3298 70.431 57.7881 75.9089 57.7881C81.3869 57.7881 85.7693 62.3298 85.7693 68.007C85.7693 71.4133 84.0476 74.6574 81.3869 76.4416C81.5434 77.0904 81.5434 77.5771 81.5434 78.2259C81.5434 83.903 77.161 88.4448 71.6831 88.4448C70.9005 88.4448 70.2745 88.4448 69.6484 88.2826C68.7093 88.7692 67.6137 88.9314 66.3616 88.9314Z" fill="#FDC00F"/>
</svg>
