<svg width="70" height="70" viewBox="0 0 70 70" fill="none" xmlns="http://www.w3.org/2000/svg">
<path d="M69.5461 21.5917C68.5689 20.1258 66.6144 19.9629 65.3115 20.9402L53.259 30.5496L42.6723 31.364C40.8807 31.5268 39.252 32.5041 38.2747 33.807L29.1539 46.1853C28.0138 47.814 28.8282 50.0942 30.7826 50.5829C31.9227 50.9086 33.0628 50.42 33.7143 49.6056L42.0208 38.6932L42.8352 48.9541L39.9035 68.9874C39.5777 71.1047 41.3693 72.7334 43.4866 72.2448L44.6267 71.9191C45.7668 71.5933 46.7441 70.779 46.9069 69.476L50.3273 49.6056L57.4936 53.1888C57.8194 53.3517 58.1451 53.6774 58.1451 54.0032L60.7511 61.3324C61.4025 63.124 63.6827 63.9383 65.3115 62.7982L65.6372 62.6354C66.6144 61.821 67.1031 60.518 66.7773 59.3779L63.8456 49.2799C63.6828 48.9541 63.5199 48.6284 63.0313 48.4655L56.1906 44.8823L55.0505 36.0873L68.7318 25.3377C70.1976 24.6862 70.3605 22.8946 69.5461 21.5917Z" fill="#83ADE6"/>
<path d="M46.9073 31.3635C50.1456 31.3635 52.7707 28.7384 52.7707 25.5001C52.7707 22.2618 50.1456 19.6367 46.9073 19.6367C43.6691 19.6367 41.0439 22.2618 41.0439 25.5001C41.0439 28.7384 43.6691 31.3635 46.9073 31.3635Z" fill="#83ADE6"/>
<path d="M85.9964 37.2246L72.6409 44.7167L78.5043 46.1826C75.084 51.0687 65.1488 63.447 47.3957 69.9619C45.767 70.6133 44.3012 71.102 42.6725 71.4277C40.0665 72.2421 37.2977 72.8935 34.0402 73.2193C31.9229 73.3822 28.8284 73.545 25.0823 72.8935L22.3135 86.249H28.1769C29.1541 86.249 30.2942 86.249 31.2714 86.0862C65.6374 81.0371 80.7845 54.0004 84.6934 48.2999L89.5796 50.5801L85.9964 37.2246Z" fill="#FF8088"/>
<path d="M29.6427 77.2921V71.4287H26.2224C25.8966 70.2886 25.5709 69.3114 24.9194 68.3341L27.3625 65.8911L23.1278 61.8193L20.6847 64.2623C19.7075 63.7737 18.7303 63.2851 17.5902 62.9594V59.5391H11.8896V62.9594C10.7495 63.2851 9.77231 63.6109 8.79508 64.2623L6.51487 61.8193L2.28021 66.0539L4.56041 68.3341C4.0718 69.3114 3.58318 70.2886 3.25744 71.4287H0V77.2921H3.42031C3.74605 78.4322 4.0718 79.4094 4.72328 80.3867L2.28021 82.8297L6.51487 86.9015L8.79508 84.6213C9.77231 85.1099 10.7495 85.5986 11.8896 85.9243V89.3446H17.753V85.9243C18.8931 85.5986 19.8704 85.2728 20.8476 84.6213L23.2907 87.0644L27.5253 82.8297L25.0823 80.3867C25.5709 79.4094 26.0595 78.4322 26.3852 77.2921H29.6427ZM14.8213 80.2238C11.5639 80.2238 8.95795 77.6178 8.95795 74.3604C8.95795 71.103 11.5639 68.497 14.8213 68.497C18.0788 68.497 20.6847 71.103 20.6847 74.3604C20.6847 77.6178 18.0788 80.2238 14.8213 80.2238Z" fill="#5A6D80"/>
<path d="M2.93066 0.253906H5.86236V3.1856H2.93066V0.253906Z" fill="#ADC4E6"/>
<path d="M5.8623 3.1875H8.794V6.11919H5.8623V3.1875Z" fill="#ADC4E6"/>
<path d="M0 3.1875H2.93169V6.11919H0V3.1875Z" fill="#ADC4E6"/>
<path d="M2.93066 6.11523H5.86236V9.04693H2.93066V6.11523Z" fill="#ADC4E6"/>
<path d="M14.8213 4.64844H17.753V7.58013H14.8213V4.64844Z" fill="#ADC4E6"/>
<path d="M17.7539 7.58398H20.6856V10.5157H17.7539V7.58398Z" fill="#ADC4E6"/>
<path d="M11.8887 7.58398H14.8204V10.5157H11.8887V7.58398Z" fill="#ADC4E6"/>
<path d="M14.8213 10.6777H17.753V13.6094H14.8213V10.6777Z" fill="#ADC4E6"/>
</svg>
