<svg width="70" height="70" viewBox="0 0 70 70" fill="none" xmlns="http://www.w3.org/2000/svg">
<path d="M47.0907 45.8182C59.7431 45.8182 69.9998 35.5614 69.9998 22.9091C69.9998 10.2567 59.7431 0 47.0907 0C34.4384 0 24.1816 10.2567 24.1816 22.9091C24.1816 35.5614 34.4384 45.8182 47.0907 45.8182Z" fill="#FAE25C"/>
<path d="M47.0906 41.4918C57.3531 41.4918 65.6724 33.1724 65.6724 22.9099C65.6724 12.6475 57.3531 4.32812 47.0906 4.32812C36.8282 4.32812 28.5088 12.6475 28.5088 22.9099C28.5088 33.1724 36.8282 41.4918 47.0906 41.4918Z" fill="#FFED83"/>
<path d="M48.1092 19.7281H45.9456C44.1638 19.7281 42.6365 18.2009 42.6365 16.419C42.6365 14.6372 44.1638 13.1099 45.9456 13.1099H53.582C54.7274 13.1099 55.7456 12.0918 55.7456 10.9463C55.7456 9.80085 54.7274 8.78267 53.582 8.78267H49.2547V4.32812H44.9274V8.78267C40.7274 9.41903 37.9274 13.3645 38.5638 17.5645C39.0729 21.2554 42.2547 24.0554 46.0729 24.0554H48.2365C50.0183 24.0554 51.5456 25.5827 51.5456 27.3645C51.5456 29.1463 50.0183 30.6736 48.2365 30.6736H40.6002C39.4547 30.6736 38.4365 31.6918 38.4365 32.8372C38.4365 33.9827 39.4547 35.0009 40.6002 35.0009H44.9274V39.3281H49.2547V34.8736C53.4547 34.2372 56.2547 30.2918 55.6183 26.0918C55.1093 22.5281 51.9274 19.7281 48.1092 19.7281Z" fill="#D7986C"/>
<path d="M18.5814 14.2538H17.436V13.1083C17.436 12.472 16.9269 11.9629 16.2905 11.9629C15.6542 11.9629 15.2724 12.472 15.2724 13.1083V14.2538H14.1269C13.4905 14.2538 12.9814 14.7629 12.9814 15.3993C12.9814 16.0356 13.4905 16.5447 14.1269 16.5447H15.2724V17.6902C15.2724 18.3265 15.7814 18.8356 16.4178 18.8356C17.0542 18.8356 17.5633 18.3265 17.5633 17.6902V16.5447H18.7087C19.3451 16.5447 19.8542 16.0356 19.8542 15.3993C19.8542 14.7629 19.2178 14.2538 18.5814 14.2538Z" fill="#FAE25C"/>
<path d="M59.0548 54.7265H57.9093V53.581C57.9093 52.9446 57.4002 52.4355 56.7638 52.4355C56.1275 52.4355 55.6184 52.9446 55.6184 53.581V54.7265H54.7275C54.0911 54.7265 53.582 55.2355 53.582 55.8719C53.582 56.5083 54.0911 57.0174 54.7275 57.0174H55.8729V58.1628C55.8729 58.7992 56.382 59.3083 57.0184 59.3083C57.6548 59.3083 58.1639 58.7992 58.1639 58.1628V57.0174H59.3093C59.9457 57.0174 60.4548 56.5083 60.4548 55.8719C60.4548 55.2355 59.6911 54.7265 59.0548 54.7265Z" fill="#FAE25C"/>
<path d="M40.4731 50.2734H39.3277C41.1095 50.2734 42.6368 51.8007 42.6368 53.5825C42.6368 55.3643 41.1095 56.8916 39.3277 56.8916H38.1822C39.964 56.8916 41.4913 58.4189 41.4913 60.2007C41.4913 61.9825 39.964 63.5098 38.1822 63.5098H37.0368C38.8186 63.5098 40.3459 65.037 40.3459 66.8189C40.3459 68.6007 38.9459 70.0007 37.164 70.0007H18.5822L8.78223 67.837V48.1098C12.0913 48.1098 16.4186 43.7825 16.4186 43.7825L20.7459 28.5098C20.7459 28.5098 26.2186 28.5098 26.2186 35.1279L25.0731 43.9098H40.3459C42.1277 43.9098 43.655 45.437 43.655 47.2189C43.655 49.0007 42.255 50.2734 40.4731 50.2734Z" fill="#FFD2A6"/>
<path d="M0 45.9453H10.9455V69.9999H0V45.9453Z" fill="#7BACE6"/>
</svg>
