<svg width="70" height="70" viewBox="0 0 70 70" fill="none" xmlns="http://www.w3.org/2000/svg">
<path d="M0.508789 11.0727C0.508789 4.96364 5.47243 0 11.7088 0C17.6906 0.127273 22.527 4.96364 22.527 10.9455C22.527 14.2545 21.127 17.3091 18.7088 19.3455C18.4542 19.6 18.4542 19.9818 18.8361 20.1091L20.8724 21.3818C21.2542 21.6364 21.127 22.1455 20.6179 22.1455H11.1997C5.34515 21.8909 0.508789 17.0545 0.508789 11.0727Z" fill="#7ACAA6"/>
<path d="M20.9998 21.3818L18.9634 20.1091C18.7089 19.9818 18.5816 19.6 18.8362 19.3455C21.2543 17.3091 22.6543 14.2545 22.6543 10.8182C22.5271 4.96364 17.6907 0.127273 11.8362 0C11.0725 0 10.1816 0 9.41797 0.254545C14.5089 1.27273 18.3271 5.72727 18.3271 11.0727C18.3271 13.6182 17.4362 16.0364 16.0362 17.9455C15.1452 19.0909 15.3998 20.7455 16.6725 21.5091C17.0543 21.7636 16.9271 22.2727 16.5452 22.2727H20.7452C21.1271 22.0182 21.2543 21.5091 20.9998 21.3818Z" fill="#57BE92"/>
<path d="M54.2182 39.9636H29.2727C23.0364 39.9636 19.6 32.7091 23.5454 27.8727L23.8 27.6182C25.5818 25.4545 26.4727 22.7818 26.4727 20.1091V15.2727C26.4727 6.87273 33.3454 0 41.7454 0C50.1454 0 57.0182 6.87273 57.0182 15.2727V20.2364C57.0182 23.0364 58.0364 25.7091 59.8182 27.8727C63.8909 32.7091 60.5818 39.9636 54.2182 39.9636Z" fill="#C59191"/>
<path d="M67.4543 52.4359V68.9814H16.0361V52.5632C16.0361 48.8723 18.1998 45.4359 21.6361 44.0359L29.9089 40.4723L32.7089 39.1996C34.8725 38.3087 36.1452 36.145 36.1452 33.8541V32.8359H47.0907V33.8541C47.0907 36.145 48.4907 38.3087 50.6543 39.1996L61.8543 44.0359C65.2907 45.4359 67.4543 48.745 67.4543 52.4359Z" fill="white"/>
<path d="M30.0364 44.4178C32.8364 45.3087 37.0364 46.1996 42.1273 46.0723C46.8364 45.945 50.7819 45.0541 53.4546 44.1632L54.8546 40.9814L50.7819 39.1996C48.6183 38.3087 47.2183 36.145 47.2183 33.8541V32.8359H36.2728V33.8541C36.2728 36.145 34.8728 38.3087 32.8364 39.1996L29.5273 40.7268L30.0364 44.4178Z" fill="#FFCEBF"/>
<path d="M61.8541 44.0366L53.4541 40.3457V68.9821H67.4541V52.4366C67.4541 48.7457 65.2905 45.4366 61.8541 44.0366Z" fill="#8795DE"/>
<path d="M30.0361 40.4727V68.9817H16.0361V52.5636C16.0361 48.8727 18.1998 45.4363 21.6361 44.0363L30.0361 40.4727Z" fill="#8795DE"/>
<path d="M45.5637 38.8178C46.8364 38.8178 47.9819 38.5632 49.1273 38.0541C47.9819 37.0359 47.2182 35.3814 47.2182 33.8541V32.8359H36.2728V33.8541C36.2728 34.745 36.1455 35.5087 35.7637 36.2723C37.4182 37.7996 39.5819 38.8178 42.1273 38.8178H45.5637Z" fill="#FFB09E"/>
<path d="M52.6904 16.4174V25.4537C52.6904 30.5446 48.6177 34.6174 43.5268 34.6174H40.0904C34.9995 34.6174 30.9268 30.5446 30.9268 25.4537V16.4174C30.9268 13.1083 33.5995 10.4355 36.9086 10.4355H46.7086C49.8904 10.4355 52.6904 13.1083 52.6904 16.4174Z" fill="#FFCEBF"/>
<path d="M52.6907 21.127C52.5634 21.127 52.5634 21.127 52.6907 21.127C52.3089 22.2724 51.4179 24.436 49.3816 26.0906C48.3634 26.8542 47.2179 27.3633 46.0725 27.7451C45.5634 27.8724 45.1816 28.5088 45.3088 29.0179C45.4361 29.527 45.8179 29.7815 46.327 29.7815C46.4543 29.7815 46.4543 29.7815 46.5816 29.7815C48.1088 29.3997 49.5088 28.7633 50.6543 27.7451C51.5452 27.1088 52.1816 26.3451 52.6907 25.7088C52.6907 25.5815 52.6907 25.5815 52.6907 25.4542V21.127Z" fill="#7A6D79"/>
<path d="M44.8002 30.6723H42.3821C41.2366 30.6723 40.3457 29.7814 40.3457 28.636C40.3457 27.4905 41.2366 26.5996 42.3821 26.5996H44.8002C45.9457 26.5996 46.8366 27.4905 46.8366 28.636C46.8366 29.6542 45.9457 30.6723 44.8002 30.6723Z" fill="#685E68"/>
<path d="M43.9093 8.01861C44.1638 5.09134 46.9638 3.18224 49.6366 2.16406C54.0911 4.83679 57.1456 9.67315 57.1456 15.2732V16.2913C56.8911 16.2913 56.6365 16.4186 56.382 16.4186C54.8547 16.6732 53.582 16.5459 52.8184 16.4186C47.2184 15.7822 43.6547 11.5822 43.9093 8.01861Z" fill="#B98080"/>
<path d="M41.7454 0C45.1817 0 48.3636 1.14545 50.909 3.05455C49.6363 5.21818 46.709 9.67273 41.2363 12.9818C37.1636 15.4 33.3454 16.1636 30.9272 16.5455H26.4727V15.2727C26.4727 6.87273 33.3454 0 41.7454 0Z" fill="#C59191"/>
<path d="M58.9271 68.9809H25.5817L23.7998 51.6718C23.6726 50.399 24.6908 49.3809 25.8362 49.3809H58.6726C59.9453 49.3809 60.8362 50.399 60.7089 51.6718L58.9271 68.9809Z" fill="#EFEDEF"/>
<path d="M58.6727 49.3809H54.4727C55.7454 49.3809 56.6363 50.399 56.509 51.6718L54.7272 68.9809H58.9272L60.709 51.6718C60.8363 50.399 59.9454 49.3809 58.6727 49.3809Z" fill="#E5E1E5"/>
<path d="M68.9818 69.9993H1.01818C0.509091 69.9993 0 69.4902 0 68.9811C0 68.472 0.509091 67.9629 1.01818 67.9629H68.9818C69.4909 67.9629 70 68.472 70 68.9811C70 69.4902 69.4909 69.9993 68.9818 69.9993Z" fill="#C9BFC8"/>
<path d="M42.2544 62.1084C43.8711 62.1084 45.1817 60.7979 45.1817 59.1812C45.1817 57.5645 43.8711 56.2539 42.2544 56.2539C40.6377 56.2539 39.3271 57.5645 39.3271 59.1812C39.3271 60.7979 40.6377 62.1084 42.2544 62.1084Z" fill="#C9BFC8"/>
<path d="M7.38146 12.0911C7.94379 12.0911 8.39964 11.6352 8.39964 11.0729C8.39964 10.5105 7.94379 10.0547 7.38146 10.0547C6.81914 10.0547 6.36328 10.5105 6.36328 11.0729C6.36328 11.6352 6.81914 12.0911 7.38146 12.0911Z" fill="white"/>
<path d="M11.5817 12.0911C12.144 12.0911 12.5998 11.6352 12.5998 11.0729C12.5998 10.5105 12.144 10.0547 11.5817 10.0547C11.0193 10.0547 10.5635 10.5105 10.5635 11.0729C10.5635 11.6352 11.0193 12.0911 11.5817 12.0911Z" fill="white"/>
<path d="M15.6539 12.0911C16.2163 12.0911 16.6721 11.6352 16.6721 11.0729C16.6721 10.5105 16.2163 10.0547 15.6539 10.0547C15.0916 10.0547 14.6357 10.5105 14.6357 11.0729C14.6357 11.6352 15.0916 12.0911 15.6539 12.0911Z" fill="white"/>
</svg>
