<svg width="27" height="27" viewBox="0 0 27 27" fill="none" xmlns="http://www.w3.org/2000/svg">
<path fill-rule="evenodd" clip-rule="evenodd" d="M9.57896 12.0341C9.37338 10.9691 9.26572 9.8692 9.26572 8.74419V1.02441H26.5217V26.0002C22.343 26.0002 18.5112 24.5149 15.5255 22.0434C12.5469 24.0278 7.77057 25.9141 2 24.8649C3.58937 24.1837 9.71977 20.0968 9.49272 11.9229C9.52029 11.9608 9.54905 11.9979 9.57896 12.0341Z" fill="#5845F8"/>
<path d="M9.57896 12.0341L9.30623 12.2594L9.92633 11.967L9.57896 12.0341ZM9.26572 1.02441V0.670626H8.91193V1.02441H9.26572ZM26.5217 1.02441H26.8755V0.670626H26.5217V1.02441ZM26.5217 26.0002V26.3539H26.8755V26.0002H26.5217ZM15.5255 22.0434L15.7511 21.7709L15.5484 21.6031L15.3294 21.749L15.5255 22.0434ZM2 24.8649L1.86064 24.5397L0.780291 25.0027L1.93671 25.213L2 24.8649ZM9.49272 11.9229L9.77884 11.7148L9.10737 10.7915L9.13907 11.9327L9.49272 11.9229ZM8.91193 8.74419C8.91193 9.89182 9.02176 11.0141 9.23158 12.1011L9.92633 11.967C9.725 10.924 9.61951 9.84658 9.61951 8.74419H8.91193ZM8.91193 1.02441V8.74419H9.61951V1.02441H8.91193ZM26.5217 0.670626H9.26572V1.3782H26.5217V0.670626ZM26.8755 26.0002V1.02441H26.1679V26.0002H26.8755ZM15.2999 22.3159C18.3468 24.838 22.2577 26.3539 26.5217 26.3539V25.6464C22.4284 25.6464 18.6757 24.1918 15.7511 21.7709L15.2999 22.3159ZM1.93671 25.213C7.81997 26.2826 12.6882 24.3587 15.7217 22.3378L15.3294 21.749C12.4055 23.6968 7.72117 25.5455 2.06329 24.5168L1.93671 25.213ZM9.13907 11.9327C9.24988 15.922 7.81131 18.9076 6.15126 20.9827C4.48426 23.0664 2.60112 24.2224 1.86064 24.5397L2.13936 25.1901C2.98824 24.8263 4.96499 23.5982 6.70378 21.4247C8.44951 19.2425 9.96261 16.0977 9.84637 11.9131L9.13907 11.9327ZM9.85169 11.8087C9.82634 11.778 9.80205 11.7467 9.77884 11.7148L9.2066 12.131C9.23853 12.1749 9.27176 12.2177 9.30623 12.2594L9.85169 11.8087Z" fill="#5845F8"/>
</svg>
