<svg width="27" height="27" viewBox="0 0 27 27" fill="none" xmlns="http://www.w3.org/2000/svg">
<path fill-rule="evenodd" clip-rule="evenodd" d="M17.5917 12.0341C17.7973 10.9691 17.9049 9.8692 17.9049 8.74419V1.02441H0.648964V26.0002C4.82764 26.0002 8.6594 24.5149 11.6451 22.0434C14.6238 24.0278 19.4001 25.9141 25.1707 24.8649C23.5813 24.1837 17.4509 20.0968 17.6779 11.9229C17.6504 11.9608 17.6216 11.9979 17.5917 12.0341Z" fill="#9149ED"/>
<path d="M17.5917 12.0341L17.8644 12.2594L17.2443 11.967L17.5917 12.0341ZM17.9049 1.02441V0.670626H18.2587V1.02441H17.9049ZM0.648964 1.02441H0.295176V0.670626H0.648964V1.02441ZM0.648964 26.0002V26.3539H0.295176V26.0002H0.648964ZM11.6451 22.0434L11.4195 21.7709L11.6222 21.6031L11.8413 21.749L11.6451 22.0434ZM25.1707 24.8649L25.31 24.5397L26.3904 25.0027L25.2339 25.213L25.1707 24.8649ZM17.6779 11.9229L17.3918 11.7148L18.0633 10.7915L18.0316 11.9327L17.6779 11.9229ZM18.2587 8.74419C18.2587 9.89182 18.1489 11.0141 17.9391 12.1011L17.2443 11.967C17.4457 10.924 17.5511 9.84658 17.5511 8.74419H18.2587ZM18.2587 1.02441V8.74419H17.5511V1.02441H18.2587ZM0.648964 0.670626H17.9049V1.3782H0.648964V0.670626ZM0.295176 26.0002V1.02441H1.00275V26.0002H0.295176ZM11.8707 22.3159C8.8239 24.838 4.913 26.3539 0.648964 26.3539V25.6464C4.74228 25.6464 8.49491 24.1918 11.4195 21.7709L11.8707 22.3159ZM25.2339 25.213C19.3507 26.2826 14.4825 24.3587 11.449 22.3378L11.8413 21.749C14.7651 23.6968 19.4495 25.5455 25.1074 24.5168L25.2339 25.213ZM18.0316 11.9327C17.9208 15.922 19.3593 18.9076 21.0194 20.9827C22.6864 23.0664 24.5695 24.2224 25.31 24.5397L25.0313 25.1901C24.1824 24.8263 22.2057 23.5982 20.4669 21.4247C18.7211 19.2425 17.208 16.0977 17.3243 11.9131L18.0316 11.9327ZM17.319 11.8087C17.3443 11.778 17.3686 11.7467 17.3918 11.7148L17.9641 12.131C17.9321 12.1749 17.8989 12.2177 17.8644 12.2594L17.319 11.8087Z" fill="#9149ED"/>
</svg>
