<svg width="27" height="27" viewBox="0 0 27 27" fill="none" xmlns="http://www.w3.org/2000/svg">
<path fill-rule="evenodd" clip-rule="evenodd" d="M17.5918 12.0341C17.7973 10.9691 17.905 9.8692 17.905 8.74419V1.02441H0.649025V26.0002C4.8277 26.0002 8.65947 24.5149 11.6452 22.0434C14.6238 24.0278 19.4001 25.9141 25.1707 24.8649C23.5814 24.1837 17.4509 20.0968 17.678 11.9229C17.6504 11.9608 17.6217 11.9979 17.5918 12.0341Z" fill="#D6938A"/>
<path d="M17.5918 12.0341L17.8645 12.2594L17.2444 11.967L17.5918 12.0341ZM17.905 1.02441V0.670626H18.2588V1.02441H17.905ZM0.649025 1.02441H0.295237V0.670626H0.649025V1.02441ZM0.649025 26.0002V26.3539H0.295237V26.0002H0.649025ZM11.6452 22.0434L11.4196 21.7709L11.6223 21.6031L11.8413 21.749L11.6452 22.0434ZM25.1707 24.8649L25.3101 24.5397L26.3904 25.0027L25.234 25.213L25.1707 24.8649ZM17.678 11.9229L17.3919 11.7148L18.0633 10.7915L18.0316 11.9327L17.678 11.9229ZM18.2588 8.74419C18.2588 9.89182 18.149 11.0141 17.9391 12.1011L17.2444 11.967C17.4457 10.924 17.5512 9.84658 17.5512 8.74419H18.2588ZM18.2588 1.02441V8.74419H17.5512V1.02441H18.2588ZM0.649025 0.670626H17.905V1.3782H0.649025V0.670626ZM0.295237 26.0002V1.02441H1.00281V26.0002H0.295237ZM11.8708 22.3159C8.82396 24.838 4.91306 26.3539 0.649025 26.3539V25.6464C4.74234 25.6464 8.49497 24.1918 11.4196 21.7709L11.8708 22.3159ZM25.234 25.213C19.3507 26.2826 14.4825 24.3587 11.449 22.3378L11.8413 21.749C14.7652 23.6968 19.4495 25.5455 25.1074 24.5168L25.234 25.213ZM18.0316 11.9327C17.9208 15.922 19.3594 18.9076 21.0195 20.9827C22.6865 23.0664 24.5696 24.2224 25.3101 24.5397L25.0314 25.1901C24.1825 24.8263 22.2057 23.5982 20.4669 21.4247C18.7212 19.2425 17.2081 16.0977 17.3243 11.9131L18.0316 11.9327ZM17.319 11.8087C17.3444 11.778 17.3687 11.7467 17.3919 11.7148L17.9641 12.131C17.9322 12.1749 17.899 12.2177 17.8645 12.2594L17.319 11.8087Z" fill="#D6938A"/>
</svg>
