<svg width="75" height="75" viewBox="0 0 75 75" fill="none" xmlns="http://www.w3.org/2000/svg">
<g clip-path="url(#clip0_2135_3180)">
<mask id="mask0_2135_3180" style="mask-type:luminance" maskUnits="userSpaceOnUse" x="0" y="0" width="75" height="75">
<path d="M75 0H0V75H75V0Z" fill="white"/>
</mask>
<g mask="url(#mask0_2135_3180)">
<path d="M6.76851 58.9252L65.948 59.9047C70.1257 54.038 72.5828 46.8614 72.5828 39.1106C72.5828 19.2898 56.5147 3.22168 36.6938 3.22168C16.8728 3.22168 0.804688 19.2899 0.804688 39.1108C0.804688 46.4359 3.00108 53.2468 6.76851 58.9252Z" fill="#FFDD40"/>
<path d="M23.8594 8.36719C23.8594 11.0035 21.7222 13.1407 19.0859 13.1407H65.9492V8.36719H23.8594Z" fill="#BECAF5"/>
<path d="M6.76953 8.36719V13.1407H19.3846C22.0209 13.1407 24.1581 11.0035 24.1581 8.36719H6.76953Z" fill="#3C58A0"/>
<path d="M20.7364 12.8418L20.8532 12.9043C20.5958 13.4456 19.6489 15.6073 19.5818 18.245C19.5104 21.0449 20.4382 24.9668 25.2475 27.7883V43.1464C24.9788 43.4048 23.7238 44.699 23.683 46.3417C23.6597 47.2748 24.0362 48.145 24.8021 48.9283V64.619C24.6151 64.868 23.6909 66.1768 23.3962 68.0647C23.1109 69.8927 23.5429 71.4764 24.2774 72.7928C28.1461 74.2196 32.3279 74.9998 36.6923 74.9998C43.6226 74.9998 50.0938 73.0348 55.58 69.6323L60.6949 65.792C62.6524 64.0298 64.4152 62.0554 65.9467 59.9048V12.8418H20.7364Z" fill="#DEEEFF"/>
<path d="M6.76953 12.8418V58.9252C10.9914 65.2885 17.1876 70.2278 24.4843 72.8684C21.9274 68.4866 24.9508 64.6687 24.9508 64.6687V51.11V48.868C22.1929 46.1101 25.3963 43.2097 25.3963 43.2097V27.7042C16.0834 22.306 21.0496 12.8418 21.0496 12.8418H6.76953Z" fill="#D3DCFB"/>
<path d="M60.7349 0H23.0137C23.0137 0 21.6118 1.46382 23.0137 2.86568L23.2051 5.65064C23.2051 5.65064 22.0126 7.4546 23.8583 8.64536H65.948V5.21324C65.948 2.34594 63.602 0 60.7349 0Z" fill="#2A428C"/>
<path d="M11.9826 0C9.11547 0 6.76953 2.34594 6.76953 5.21324V8.64536H24.1582C22.3125 7.4546 23.505 5.65064 23.505 5.65064L23.3136 2.86568C21.9117 1.46367 23.3136 0 23.3136 0H11.9826Z" fill="#1C2E7A"/>
<path d="M14.8648 4.32304C14.8648 5.25117 14.1125 6.00351 13.1844 6.00351C12.2562 6.00351 11.5039 5.25117 11.5039 4.32304C11.5039 3.39492 12.2562 2.64258 13.1844 2.64258C14.1125 2.64243 14.8648 3.39492 14.8648 4.32304Z" fill="#FF4155"/>
<path d="M18.0428 5.99662C18.9644 5.88338 19.6197 5.04449 19.5065 4.12289C19.3932 3.20129 18.5543 2.54597 17.6327 2.65921C16.7111 2.77243 16.0557 3.61133 16.169 4.53293C16.2822 5.45453 17.1212 6.10985 18.0428 5.99662Z" fill="#FFDD40"/>
<path d="M23.1257 5.86882C23.9832 5.51335 24.3903 4.53001 24.0348 3.67244C23.6793 2.81488 22.6961 2.40785 21.8385 2.76331C20.9808 3.11878 20.5739 4.10212 20.9294 4.95968C21.2847 5.81725 22.2681 6.22427 23.1257 5.86882Z" fill="#88CE65"/>
<path d="M38.5552 4.32319C38.5552 3.704 39.0571 3.20215 39.6763 3.20215H29.6758C29.0567 3.20215 28.5547 3.704 28.5547 4.32319C28.5547 4.94239 29.0566 5.44424 29.6758 5.44424H39.6763C39.0571 5.44424 38.5552 4.94239 38.5552 4.32319Z" fill="#3C58A0"/>
<path d="M47.8098 4.32319C47.8098 3.704 47.3081 3.20215 46.6889 3.20215H39.3788C38.7597 3.20215 38.2578 3.704 38.2578 4.32319C38.2578 4.94239 38.7597 5.44424 39.3788 5.44424H46.6889C47.3081 5.44424 47.8098 4.94239 47.8098 4.32319Z" fill="#6289CC"/>
<path d="M60.2346 5.44424H58.7733C58.1542 5.44424 57.6523 4.94239 57.6523 4.32319C57.6523 3.704 58.1542 3.20215 58.7733 3.20215H60.2346C60.8538 3.20215 61.3555 3.704 61.3555 4.32319C61.3555 4.94239 60.8538 5.44424 60.2346 5.44424Z" fill="#6289CC"/>
<path d="M55.1565 5.44424H53.6952C53.076 5.44424 52.5742 4.94239 52.5742 4.32319C52.5742 3.704 53.076 3.20215 53.6952 3.20215H55.1565C55.7757 3.20215 56.2776 3.704 56.2776 4.32319C56.2776 4.94239 55.7757 5.44424 55.1565 5.44424Z" fill="#3C58A0"/>
<path d="M24.9513 51.1102H17.2381C16.6191 51.1102 16.1172 50.6085 16.1172 49.9893C16.1172 49.3701 16.6191 48.8682 17.2381 48.8682H24.9513C25.5705 48.8682 26.0724 49.3701 26.0724 49.9893C26.0724 50.6085 25.5705 51.1102 24.9513 51.1102Z" fill="#49B1F7"/>
<path d="M42.2047 55.6297H17.2381C16.6191 55.6297 16.1172 55.1278 16.1172 54.5088C16.1172 53.8896 16.6191 53.3877 17.2381 53.3877H42.2047C42.8239 53.3877 43.3257 53.8896 43.3257 54.5088C43.3257 55.1278 42.8238 55.6297 42.2047 55.6297Z" fill="#BECAF5"/>
<path d="M42.2047 60.1493H17.2381C16.6191 60.1493 16.1172 59.6474 16.1172 59.0282C16.1172 58.409 16.6191 57.9072 17.2381 57.9072H42.2047C42.8239 57.9072 43.3257 58.409 43.3257 59.0282C43.3257 59.6474 42.8238 60.1493 42.2047 60.1493Z" fill="#BECAF5"/>
<path d="M42.2047 64.6688H17.2381C16.6191 64.6688 16.1172 64.1669 16.1172 63.5477C16.1172 62.9285 16.6191 62.4268 17.2381 62.4268H42.2047C42.8239 62.4268 43.3257 62.9285 43.3257 63.5477C43.3257 64.1669 42.8238 64.6688 42.2047 64.6688Z" fill="#BECAF5"/>
<path d="M32.7551 22.0811C31.1903 22.0811 29.9219 23.3495 29.9219 24.9143V34.4801C29.922 36.0447 31.1904 37.3131 32.7551 37.3131C34.3197 37.3131 35.5883 36.0447 35.5883 34.4799V24.9143C35.5883 23.3496 34.3197 22.0811 32.7551 22.0811Z" fill="#9BD8F9"/>
<path d="M25.3957 27.7041C23.8309 27.7041 22.5625 28.9725 22.5625 30.5373V34.4796C22.5625 36.0444 23.8309 37.3128 25.3957 37.3128C26.9603 37.3128 28.2288 36.0444 28.2288 34.4796V30.5373C28.2288 28.9725 26.9602 27.7041 25.3957 27.7041Z" fill="#73C3F9"/>
<path d="M32.7551 37.0187C31.1903 37.0187 29.9219 35.7503 29.9219 34.1855V42.1789H35.5883V34.1855C35.5883 35.7503 34.3197 37.0187 32.7551 37.0187Z" fill="#73C3F9"/>
<path d="M25.3957 37.0187C23.8309 37.0187 22.5625 35.7503 22.5625 34.1855V42.1789H28.2288V34.1855C28.2288 35.7503 26.9602 37.0187 25.3957 37.0187Z" fill="#49B1F7"/>
<path d="M20.8694 42.1785V38.0674C20.8694 36.5028 19.6008 35.2344 18.0363 35.2344C16.4717 35.2344 15.2031 36.5028 15.2031 38.0674V42.1785H20.8694Z" fill="#1FA2EA"/>
<path d="M36.4499 43.21H14.0698C13.4919 43.21 13.0234 42.7415 13.0234 42.1636C13.0234 41.5856 13.4919 41.1172 14.0698 41.1172H36.4499C37.0277 41.1172 37.4961 41.5856 37.4961 42.1636C37.4961 42.7415 37.0277 43.21 36.4499 43.21Z" fill="#9BD8F9"/>
<path d="M57.3933 57.4356C56.0856 57.4356 55.0156 56.3657 55.0156 55.0581V47.1638C55.0156 45.8561 56.0856 44.7861 57.3933 44.7861C58.7008 44.7861 59.7708 45.8561 59.7708 47.1638V55.0581C59.7708 56.3657 58.7008 57.4356 57.3933 57.4356Z" fill="#BECAF5"/>
<path d="M51.136 23.9116C51.5569 25.0185 52.4031 25.8532 53.6523 26.3959C53.4514 26.8663 53.0676 28.0116 53.5282 29.0749C53.877 29.8798 54.6283 30.454 55.7625 30.7827L57.1578 35.908C57.0241 36.208 56.6115 37.2904 57.0417 38.3866C57.3508 39.1744 58.0204 39.7824 59.0337 40.1962C58.7775 40.8828 58.0981 43.0759 59.0256 44.9926C59.6124 46.2057 60.7297 47.0646 62.3482 47.5491C68.3857 45.4881 72.7276 39.7671 72.7276 33.0319C72.7276 24.5617 65.8611 17.6953 57.391 17.6953C55.3306 17.6953 53.3658 18.1024 51.571 18.8394C51.253 19.5556 50.362 21.8766 51.136 23.9116Z" fill="#2A428C"/>
<path d="M59.32 40.0719C55.9115 38.8254 57.3913 35.9286 57.3913 35.9286L55.942 30.6048C52.1755 29.5956 53.9489 26.2809 53.9489 26.2809C49.0208 24.3418 51.8695 18.7207 51.8695 18.7207C46.1279 20.9374 42.0547 26.5089 42.0547 33.0321C42.0547 41.5023 48.9212 48.3687 57.3914 48.3687C59.2603 48.3687 61.0508 48.034 62.707 47.422C56.771 45.8722 59.32 40.0719 59.32 40.0719Z" fill="#1C2E7A"/>
<path d="M53.6539 26.3959C53.453 26.8663 53.0693 28.0116 53.5298 29.0749C53.8786 29.8798 54.6299 30.454 55.7641 30.7827L57.1594 35.908C57.0259 36.208 56.6133 37.2904 57.0433 38.3866C57.3351 39.13 57.9479 39.7131 58.8674 40.1241C62.6843 39.7339 66.0581 37.8477 68.3917 35.0598C69.3718 33.8889 69.3718 32.1748 68.3917 31.0038C65.7619 27.8617 61.8107 25.8633 57.3928 25.8633C56.08 25.8633 54.8089 26.0409 53.6011 26.3713C53.6188 26.3796 53.6359 26.3881 53.6539 26.3959Z" fill="#DEEEFF"/>
<path d="M57.3901 40.2008C58.0439 40.2008 58.687 40.1559 59.3176 40.0713C55.9109 38.8247 57.3901 35.9287 57.3901 35.9287L55.9409 30.6049C52.1746 29.5957 53.9477 26.2812 53.9477 26.2812C50.9453 27.0212 48.3146 28.7061 46.3913 31.0041C45.4112 32.1752 45.4112 33.8893 46.3913 35.0602C49.0211 38.2024 52.9721 40.2008 57.3901 40.2008Z" fill="#BECAF5"/>
<path d="M53.5298 29.0755C53.8785 29.8804 54.6299 30.4546 55.764 30.7833L57.1593 35.9086C57.0257 36.2086 56.613 37.2912 57.0432 38.3872C57.3203 39.093 57.8874 39.654 58.7307 40.0606C61.7262 39.3868 63.9785 36.4963 63.9785 33.0324C63.9785 29.0686 61.0299 25.8555 57.3926 25.8555C55.8768 25.8555 54.4818 26.415 53.369 27.3526C53.2788 27.8653 53.273 28.483 53.5298 29.0755Z" fill="#49B1F7"/>
<path d="M57.3906 40.2091C57.9712 40.2091 58.534 40.1264 59.0703 39.9725C55.9876 38.6788 57.3906 35.9284 57.3906 35.9284L55.9414 30.6047C53.3955 29.9224 53.3812 28.1881 53.6388 27.1348C51.9265 28.4308 50.8047 30.5882 50.8047 33.0322C50.8048 36.9959 53.7534 40.2091 57.3906 40.2091Z" fill="#1FA2EA"/>
<path d="M57.3922 35.9283C58.8601 35.9283 60.0501 34.6317 60.0501 33.0321C60.0501 31.4325 58.8601 30.1357 57.3922 30.1357C55.9243 30.1357 54.7344 31.4325 54.7344 33.0321C54.7344 34.6317 55.9243 35.9283 57.3922 35.9283Z" fill="#218EE8"/>
<path d="M62.7069 29.3156C62.7069 30.2489 62.0127 31.0053 61.1562 31.0053C60.2998 31.0053 59.6055 30.2487 59.6055 29.3156C59.6055 28.3824 60.2997 27.626 61.1562 27.626C62.0127 27.626 62.7069 28.3824 62.7069 29.3156Z" fill="#73C3F9"/>
<path d="M57.3937 52.5996C55.5766 52.5996 54.0898 54.0864 54.0898 55.9035V66.8738C54.0898 68.0235 54.6853 69.0405 55.5828 69.6327C57.4024 68.5041 59.1141 67.2179 60.6976 65.7923V55.9035C60.6976 54.0863 59.211 52.5996 57.3937 52.5996Z" fill="#FF4155"/>
<path d="M57.3913 49.8339C48.1269 49.8339 40.5898 42.2968 40.5898 33.0324C40.5898 29.7958 41.5125 26.653 43.258 23.9437C44.9569 21.3069 47.3488 19.2016 50.175 17.8555C50.9052 17.5078 51.7794 17.8176 52.1274 18.5482C52.4752 19.2786 52.1652 20.1528 51.4348 20.5006C46.6266 22.7907 43.5196 27.7095 43.5196 33.0324C43.5196 40.6813 49.7424 46.9041 57.3915 46.9041C58.7185 46.9041 60.0306 46.7173 61.2912 46.3488C62.0679 46.1221 62.8809 46.5673 63.1081 47.3439C63.3351 48.1204 62.8896 48.9339 62.113 49.1608C60.5851 49.6074 58.9966 49.8339 57.3913 49.8339Z" fill="#A8B7EF"/>
<path d="M61.7016 49.2197C61.0675 49.2197 60.4831 48.8046 60.2961 48.1653C60.0693 47.3889 60.5146 46.5753 61.2912 46.3484C64.1107 45.5243 66.649 43.775 68.4387 41.4228C70.2864 38.9942 71.2632 36.0926 71.2632 33.032C71.2632 25.3832 65.0403 19.1603 57.3915 19.1603C55.3059 19.1603 53.3017 19.6112 51.4348 20.5002C50.7048 20.8479 49.8304 20.5382 49.4826 19.8075C49.1346 19.077 49.4448 18.203 50.1753 17.8551C52.4388 16.7771 54.8665 16.2305 57.3916 16.2305C66.6559 16.2305 74.193 23.7675 74.193 33.0318C74.193 36.7388 73.0095 40.2537 70.7704 43.1966C68.6043 46.0439 65.5299 48.1617 62.1133 49.1604C61.9761 49.2005 61.8375 49.2197 61.7016 49.2197Z" fill="#BECAF5"/>
<path d="M59.9295 56.8676C60.1703 55.8494 59.54 54.8289 58.5219 54.5883C57.5037 54.3477 56.4833 54.9779 56.2427 55.9961C56.0019 57.0141 56.6322 58.0346 57.6503 58.2753C58.6685 58.5159 59.6889 57.8856 59.9295 56.8676Z" fill="#FF7186"/>
</g>
</g>
<defs>
<clipPath id="clip0_2135_3180">
<rect width="75" height="75" fill="white"/>
</clipPath>
</defs>
</svg>
