<svg width="75" height="75" viewBox="0 0 75 75" fill="none" xmlns="http://www.w3.org/2000/svg">
<g filter="url(#filter0_i_2135_3226)">
<path d="M68.3236 9.75042V30.5115C68.3236 35.6501 65.794 41.6145 61.2026 47.3063C55.8517 53.9375 47.9698 59.7906 38.4085 64.2333L37.4998 64.6551L36.5909 64.2333C27.0298 59.7906 19.1477 53.9375 13.7968 47.3063C9.20546 41.6145 6.67578 35.6501 6.67578 30.5115V9.75042L21.6719 0H53.3273L68.3236 9.75042Z" fill="#00358F"/>
<path d="M68.324 9.75042V30.5115C68.324 35.6501 65.7943 41.6145 61.2028 47.3063C55.8519 53.9375 47.97 59.7906 38.4087 64.2333L37.5 64.6551V0H53.3278L68.324 9.75042Z" fill="#012453"/>
<path d="M50.7649 7.57715H24.2313L14.8125 13.7007V30.5117C14.8125 36.2893 20.9175 47.579 37.498 56.1197C54.0786 47.579 60.1837 36.2893 60.1837 30.5117V13.7007L50.7649 7.57715Z" fill="#00B3FE"/>
<path d="M60.1855 13.7007V30.5117C60.1855 36.2893 54.0806 47.579 37.5 56.1197V7.57715H50.7668L60.1855 13.7007Z" fill="#0274F9"/>
<path d="M43.168 16.8725C41.7152 15.5199 39.7091 14.6826 37.4983 14.6826C35.3618 14.6826 33.3491 15.4619 31.8311 16.8749C30.3134 18.288 29.4766 20.1621 29.4766 22.1511V27.2771H45.52V22.1511C45.52 20.0915 44.6206 18.2249 43.168 16.8725ZM41.4508 24.9194H33.5458V22.1511C33.5458 21.1751 33.9593 20.2518 34.7081 19.5534C35.0839 19.205 35.5178 18.9347 35.9914 18.7503C36.4633 18.5672 36.9733 18.4713 37.4983 18.4713C39.6779 18.4713 41.4508 20.1218 41.4508 22.1511V24.9194Z" fill="#FFB528"/>
<path d="M45.5217 22.1511V27.2771H37.5V24.9194H41.4525V22.1511C41.4525 20.1218 39.6796 18.4713 37.5 18.4713V14.6826C39.711 14.6826 41.7171 15.5199 43.1697 16.8725C44.6223 18.2249 45.5217 20.0915 45.5217 22.1511Z" fill="#FE8C01"/>
<path d="M26.3398 23.4893H48.6633V39.8217H26.3398V23.4893Z" fill="#FEE158"/>
<path d="M37.5 23.4893H48.6617V39.8217H37.5V23.4893Z" fill="#FFB528"/>
<path d="M51.4085 5.68262H23.5945L12.7812 12.7129V30.5115C12.7812 34.2066 14.7914 38.9019 18.295 43.3924C22.5608 48.8607 28.8613 53.835 36.5168 57.7776L37.5014 58.2852L38.4862 57.7776C46.1416 53.835 52.442 48.8607 56.7079 43.3924C60.2114 38.9019 62.2216 34.2066 62.2216 30.5115V12.7129L51.4085 5.68262ZM58.1525 30.5115C58.1525 35.5515 52.6307 45.8424 37.5014 53.9449C22.3723 45.8424 16.8503 35.5515 16.8503 30.5115V14.688L24.8749 9.47117H50.128L58.1525 14.688V30.5115Z" fill="#EFF5FA"/>
<path d="M62.2201 12.7129V30.5115C62.2201 34.2066 60.21 38.9019 56.7066 43.3924C52.4408 48.8607 46.1402 53.835 38.4847 57.7776L37.5 58.2852V53.9449C52.6291 45.8424 58.1509 35.5515 58.1509 30.5115V14.688L50.1267 9.47117H37.5V5.68262H51.4071L62.2201 12.7129Z" fill="#C6E1EC"/>
<path d="M35.4648 29.6973H39.534V33.6133H35.4648V29.6973Z" fill="#FFB528"/>
<path d="M37.5 29.6973H39.5346V33.6133H37.5V29.6973Z" fill="#FE8C01"/>
</g>
<defs>
<filter id="filter0_i_2135_3226" x="6.67578" y="0" width="61.6484" height="68.6553" filterUnits="userSpaceOnUse" color-interpolation-filters="sRGB">
<feFlood flood-opacity="0" result="BackgroundImageFix"/>
<feBlend mode="normal" in="SourceGraphic" in2="BackgroundImageFix" result="shape"/>
<feColorMatrix in="SourceAlpha" type="matrix" values="0 0 0 0 0 0 0 0 0 0 0 0 0 0 0 0 0 0 127 0" result="hardAlpha"/>
<feOffset dy="4"/>
<feGaussianBlur stdDeviation="2"/>
<feComposite in2="hardAlpha" operator="arithmetic" k2="-1" k3="1"/>
<feColorMatrix type="matrix" values="0 0 0 0 0 0 0 0 0 0 0 0 0 0 0 0 0 0 0.25 0"/>
<feBlend mode="normal" in2="shape" result="effect1_innerShadow_2135_3226"/>
</filter>
</defs>
</svg>
