<svg width="75" height="75" viewBox="0 0 75 75" fill="none" xmlns="http://www.w3.org/2000/svg">
<g clip-path="url(#clip0_2135_3244)">
<mask id="mask0_2135_3244" style="mask-type:luminance" maskUnits="userSpaceOnUse" x="0" y="0" width="75" height="75">
<path d="M75 0H0V75H75V0Z" fill="white"/>
</mask>
<g mask="url(#mask0_2135_3244)">
<path d="M74.9981 37.5003L66.5076 28.0737L67.8371 15.4539L55.4219 12.8257L49.0889 1.82422L37.4981 7.00453L35.9336 37.5003L37.4981 67.9958L49.089 73.1762L55.4219 62.1747L67.8371 59.5464L66.5076 46.9266L74.9981 37.5003Z" fill="#0ED678"/>
<path d="M25.9089 1.82422L19.5762 12.8257L7.16098 15.4541L8.49035 28.0737L0 37.5003L8.49035 46.9266L7.16098 59.5464L19.5762 62.1747L25.909 73.1762L37.5001 67.9958V7.00453L25.9089 1.82422Z" fill="#04EB84"/>
<path d="M53.219 29.2893L49.9365 26.3594L37.4981 40.2948L35.9336 43.7579L37.4981 46.9023L53.219 29.2893Z" fill="#F7F0EB"/>
<path d="M24.4274 34.1865L21.3164 37.2977L34.3966 50.378L37.4993 46.902V40.2945L34.2151 43.974L24.4274 34.1865Z" fill="#FFFBF5"/>
</g>
</g>
<defs>
<clipPath id="clip0_2135_3244">
<rect width="75" height="75" fill="white"/>
</clipPath>
</defs>
</svg>
