<svg width="75" height="75" viewBox="0 0 75 75" fill="none" xmlns="http://www.w3.org/2000/svg">
<g clip-path="url(#clip0_2135_3257)">
<mask id="mask0_2135_3257" style="mask-type:luminance" maskUnits="userSpaceOnUse" x="0" y="0" width="75" height="75">
<path d="M75 0H0V75H75V0Z" fill="white"/>
</mask>
<g mask="url(#mask0_2135_3257)">
<path d="M51.5625 29.2968V45.7032L37.5 53.9062L23.4375 45.7032V29.2968L37.5 21.0938L51.5625 29.2968Z" fill="#4294FF"/>
<path d="M51.5625 29.2969V45.7033L37.5 53.9063V37.5001L51.5625 29.2969Z" fill="#2946ED"/>
<path d="M37.5 37.5001V53.9063L23.4375 45.7033V29.2969L37.5 37.5001Z" fill="#376CFB"/>
<path d="M37.4999 17.5782C37.1891 17.5782 36.8911 17.4546 36.6713 17.2348C36.4516 17.0151 36.3281 16.7171 36.3281 16.4062V10.5469C36.3281 10.2361 36.4516 9.93801 36.6713 9.71823C36.8911 9.49846 37.1891 9.375 37.4999 9.375C37.8107 9.375 38.1088 9.49846 38.3285 9.71823C38.5483 9.93801 38.6717 10.2361 38.6717 10.5469V16.4062C38.6717 16.7171 38.5483 17.0151 38.3285 17.2348C38.1088 17.4546 37.8107 17.5782 37.4999 17.5782Z" fill="#376CFB"/>
<path d="M37.4999 65.6251C37.1891 65.6251 36.8911 65.5016 36.6713 65.2819C36.4516 65.0621 36.3281 64.7641 36.3281 64.4533V58.5938C36.3281 58.283 36.4516 57.985 36.6713 57.7652C36.8911 57.5455 37.1891 57.4219 37.4999 57.4219C37.8107 57.4219 38.1088 57.5455 38.3285 57.7652C38.5483 57.985 38.6717 58.283 38.6717 58.5938V64.4533C38.6717 64.7641 38.5483 65.0621 38.3285 65.2819C38.1088 65.5016 37.8107 65.6251 37.4999 65.6251Z" fill="#376CFB"/>
<path d="M64.4531 38.6717H56.2499C55.9391 38.6717 55.6411 38.5483 55.4213 38.3285C55.2016 38.1088 55.0781 37.8107 55.0781 37.4999C55.0781 37.1891 55.2016 36.8911 55.4213 36.6713C55.6411 36.4516 55.9391 36.3281 56.2499 36.3281H64.4531C64.7639 36.3281 65.062 36.4516 65.2817 36.6713C65.5015 36.8911 65.6249 37.1891 65.6249 37.4999C65.6249 37.8107 65.5015 38.1088 65.2817 38.3285C65.062 38.5483 64.7639 38.6717 64.4531 38.6717Z" fill="#376CFB"/>
<path d="M18.75 38.6717H10.5469C10.2361 38.6717 9.93801 38.5483 9.71823 38.3285C9.49846 38.1088 9.375 37.8107 9.375 37.4999C9.375 37.1891 9.49846 36.8911 9.71823 36.6713C9.93801 36.4516 10.2361 36.3281 10.5469 36.3281H18.75C19.0608 36.3281 19.3588 36.4516 19.5786 36.6713C19.7983 36.8911 19.9218 37.1891 19.9218 37.4999C19.9218 37.8107 19.7983 38.1088 19.5786 38.3285C19.3588 38.5483 19.0608 38.6717 18.75 38.6717Z" fill="#376CFB"/>
<path d="M51.5623 24.6097C51.3305 24.6095 51.104 24.5408 50.9113 24.412C50.7187 24.2833 50.5685 24.1003 50.4799 23.8862C50.3911 23.672 50.368 23.4365 50.4131 23.2091C50.4583 22.9819 50.5699 22.7731 50.7337 22.6093L58.9369 14.4061C59.1578 14.1926 59.4539 14.0745 59.7611 14.0772C60.0685 14.0799 60.3623 14.2031 60.5797 14.4204C60.7969 14.6377 60.9202 14.9316 60.9227 15.2389C60.9254 15.5461 60.8074 15.8422 60.5939 16.0631L52.3907 24.2663C52.171 24.4861 51.8731 24.6095 51.5623 24.6097Z" fill="#376CFB"/>
<path d="M23.4387 24.6097C23.1279 24.6095 22.83 24.4861 22.6102 24.2663L14.4071 16.0631C14.1936 15.8422 14.0755 15.5461 14.0782 15.2389C14.0808 14.9316 14.2041 14.6377 14.4214 14.4204C14.6386 14.2031 14.9326 14.0799 15.2398 14.0772C15.547 14.0745 15.8431 14.1926 16.0641 14.4061L24.2673 22.6093C24.4311 22.7731 24.5427 22.9819 24.5878 23.2091C24.633 23.4365 24.6099 23.672 24.5211 23.8862C24.4324 24.1003 24.2823 24.2833 24.0897 24.412C23.8969 24.5408 23.6704 24.6095 23.4387 24.6097Z" fill="#376CFB"/>
<path d="M59.7669 60.9377C59.4561 60.9377 59.1581 60.8141 58.9383 60.5944L50.7352 52.3913C50.5218 52.1702 50.4036 51.8743 50.4063 51.5669C50.409 51.2597 50.5321 50.9657 50.7495 50.7485C50.9667 50.5312 51.2607 50.408 51.5679 50.4053C51.8752 50.4026 52.1712 50.5208 52.3923 50.7343L60.5953 58.9373C60.7591 59.1013 60.8707 59.3101 60.916 59.5373C60.9612 59.7646 60.9379 60.0002 60.8493 60.2143C60.7606 60.4283 60.6105 60.6113 60.4177 60.7402C60.2251 60.8689 59.9986 60.9377 59.7669 60.9377Z" fill="#376CFB"/>
<path d="M15.2341 60.9377C15.0023 60.9377 14.7759 60.8689 14.5832 60.7402C14.3905 60.6113 14.2404 60.4283 14.1517 60.2143C14.063 60.0002 14.0398 59.7646 14.085 59.5373C14.1302 59.3101 14.2418 59.1013 14.4056 58.9373L22.6087 50.7343C22.8298 50.5208 23.1257 50.4026 23.4331 50.4053C23.7403 50.408 24.0343 50.5312 24.2515 50.7485C24.4688 50.9657 24.592 51.2597 24.5947 51.5669C24.5974 51.8743 24.4792 52.1702 24.2657 52.3913L16.0627 60.5944C15.8429 60.8141 15.5449 60.9377 15.2341 60.9377Z" fill="#376CFB"/>
<path d="M42.1874 0H32.8124C32.1652 0 31.6406 0.524667 31.6406 1.17188V10.5469C31.6406 11.1941 32.1652 11.7188 32.8124 11.7188H42.1874C42.8347 11.7188 43.3592 11.1941 43.3592 10.5469V1.17188C43.3592 0.524667 42.8347 0 42.1874 0Z" fill="#4294FF"/>
<path d="M42.1874 63.2812H32.8124C32.1652 63.2812 31.6406 63.8059 31.6406 64.4532V73.8282C31.6406 74.4753 32.1652 75 32.8124 75H42.1874C42.8347 75 43.3592 74.4753 43.3592 73.8282V64.4532C43.3592 63.8059 42.8347 63.2812 42.1874 63.2812Z" fill="#4294FF"/>
<path d="M73.8282 0H59.7657C59.1184 0 58.5938 0.524667 58.5938 1.17188V15.2343C58.5938 15.8816 59.1184 16.4062 59.7657 16.4062H73.8282C74.4753 16.4062 75 15.8816 75 15.2343V1.17188C75 0.524667 74.4753 0 73.8282 0Z" fill="#4294FF"/>
<path d="M73.8282 31.6406H64.4532C63.8059 31.6406 63.2812 32.1652 63.2812 32.8124V42.1874C63.2812 42.8347 63.8059 43.3592 64.4532 43.3592H73.8282C74.4753 43.3592 75 42.8347 75 42.1874V32.8124C75 32.1652 74.4753 31.6406 73.8282 31.6406Z" fill="#4294FF"/>
<path d="M10.5469 31.6406H1.17188C0.524667 31.6406 0 32.1652 0 32.8124V42.1874C0 42.8347 0.524667 43.3592 1.17188 43.3592H10.5469C11.1941 43.3592 11.7188 42.8347 11.7188 42.1874V32.8124C11.7188 32.1652 11.1941 31.6406 10.5469 31.6406Z" fill="#4294FF"/>
<path d="M15.2343 0H1.17188C0.524667 0 0 0.524667 0 1.17188V15.2343C0 15.8816 0.524667 16.4062 1.17188 16.4062H15.2343C15.8816 16.4062 16.4062 15.8816 16.4062 15.2343V1.17188C16.4062 0.524667 15.8816 0 15.2343 0Z" fill="#4294FF"/>
<path d="M73.8282 58.5938H59.7657C59.1184 58.5938 58.5938 59.1184 58.5938 59.7657V73.8282C58.5938 74.4753 59.1184 75 59.7657 75H73.8282C74.4753 75 75 74.4753 75 73.8282V59.7657C75 59.1184 74.4753 58.5938 73.8282 58.5938Z" fill="#4294FF"/>
<path d="M15.2343 58.5938H1.17188C0.524667 58.5938 0 59.1184 0 59.7657V73.8282C0 74.4753 0.524667 75 1.17188 75H15.2343C15.8816 75 16.4062 74.4753 16.4062 73.8282V59.7657C16.4062 59.1184 15.8816 58.5938 15.2343 58.5938Z" fill="#4294FF"/>
</g>
</g>
<defs>
<clipPath id="clip0_2135_3257">
<rect width="75" height="75" fill="white"/>
</clipPath>
</defs>
</svg>
