<svg width="75" height="75" viewBox="0 0 75 75" fill="none" xmlns="http://www.w3.org/2000/svg">
<g clip-path="url(#clip0_2135_3285)">
<mask id="mask0_2135_3285" style="mask-type:luminance" maskUnits="userSpaceOnUse" x="0" y="0" width="75" height="75">
<path d="M75 0H0V75H75V0Z" fill="white"/>
</mask>
<g mask="url(#mask0_2135_3285)">
<path d="M72.3549 62.5926C72.3116 62.5926 50.1546 71.6157 46.2872 73.1538C45.9351 73.2859 45.7595 73.3735 45.716 73.3735C40.7939 75.6148 34.3343 75.5707 29.0609 72.8905L8.93359 64.8774V41.1034L21.5021 39.2575C23.7434 38.6424 25.8966 38.8621 27.8301 39.8292C28.2695 40.0489 45.0128 48.4419 46.0674 48.9696C46.1555 49.0135 46.2431 49.0576 46.2872 49.1017C48.2646 50.1562 49.056 52.7049 48.0009 54.8581C47.6055 55.6494 46.9904 56.3086 46.2872 56.704C45.0569 57.4072 43.5188 57.4948 42.1122 56.7921C41.6735 56.5725 33.9384 52.749 33.9384 52.749C31.17 51.3865 27.8301 52.1338 25.8966 54.5508C25.1052 55.5172 25.2815 56.8797 26.2479 57.627C27.1715 58.3737 28.5774 58.2421 29.3241 57.2751C29.9832 56.4843 31.082 56.2204 32.0489 56.6599L40.1348 60.7467C41.409 61.3618 42.7715 61.6696 44.0898 61.6696C44.3537 61.6696 45.1445 61.494 46.2872 61.1866C52.4835 59.5605 69.1472 54.4627 69.1472 54.4627C71.3885 53.716 73.7174 54.8581 74.5964 56.8797C75.5633 58.5058 74.7726 61.5375 72.3549 62.5926Z" fill="#FFCEBF"/>
<path d="M72.357 62.5934C72.3135 62.5934 50.1565 71.6165 46.2891 73.1546V61.187C52.4854 59.5613 69.1492 54.4635 69.1492 54.4635C71.3905 53.7162 73.7194 54.8589 74.5983 56.8805C75.5653 58.5068 74.7745 61.5383 72.357 62.5934Z" fill="#FFBFAB"/>
<path d="M46.291 0C35.3928 0 26.5156 9.02367 26.5156 19.9218C26.5156 30.8201 35.3928 39.6972 46.291 39.6972C57.1891 39.6972 66.0663 30.8201 66.0663 19.9218C66.0663 9.02367 57.1891 0 46.291 0Z" fill="#FFE470"/>
<path d="M46.2891 39.6972V0C57.1872 0 66.0645 9.02367 66.0645 19.9218C66.0645 30.8201 57.1872 39.6972 46.2891 39.6972Z" fill="#FFD400"/>
<path d="M46.291 4.39453C37.8097 4.39453 30.9102 11.4407 30.9102 19.9218C30.9102 28.4031 37.8097 35.3028 46.291 35.3028C54.7722 35.3028 61.6719 28.4031 61.6719 19.9218C61.6719 11.4407 54.7722 4.39453 46.291 4.39453Z" fill="#FDBF00"/>
<path d="M61.6699 19.9218C61.6699 28.4031 54.7702 35.3028 46.2891 35.3028V4.39453C54.7702 4.39453 61.6699 11.4407 61.6699 19.9218Z" fill="#FF9F00"/>
<path d="M52.879 24.3163C52.879 27.1728 51.0337 29.5899 48.4844 30.5128V33.1054C48.4844 34.3363 47.518 35.3028 46.2872 35.3028C45.0563 35.3028 44.0899 34.3363 44.0899 33.1054V30.5128C41.5408 29.5899 39.6953 27.1728 39.6953 24.3163C39.6953 23.0856 40.6618 22.1191 41.8927 22.1191C43.1234 22.1191 44.0899 23.0856 44.0899 24.3163C44.0899 25.5472 45.0563 26.5137 46.2872 26.5137C47.518 26.5137 48.4844 25.5472 48.4844 24.3163C48.4844 23.0856 47.518 22.1191 46.2872 22.1191C42.6394 22.1191 39.6953 19.1751 39.6953 15.5274C39.6953 12.6709 41.5408 10.2539 44.0899 9.33151V6.59179C44.0899 5.36098 45.0563 4.39453 46.2872 4.39453C47.518 4.39453 48.4844 5.36098 48.4844 6.59179V9.33151C51.0337 10.2539 52.879 12.6709 52.879 15.5274C52.879 16.7581 51.9125 17.7246 50.6818 17.7246C49.4509 17.7246 48.4844 16.7581 48.4844 15.5274C48.4844 14.2965 47.518 13.3301 46.2872 13.3301C45.0563 13.3301 44.0899 14.2965 44.0899 15.5274C44.0899 16.7581 45.0563 17.7246 46.2872 17.7246C49.9349 17.7246 52.879 20.6686 52.879 24.3163Z" fill="#FFE470"/>
<path d="M11.1328 70.6054H2.19726C0.983619 70.6054 0 69.6218 0 68.4082V37.4999C0 36.2863 0.983619 35.3027 2.19726 35.3027H6.73827C10.3786 35.3027 13.3301 38.2541 13.3301 41.8945V68.4082C13.3301 69.6218 12.3464 70.6054 11.1328 70.6054Z" fill="#FF4B00"/>
<path d="M52.8808 24.3164C52.8808 27.1728 51.0355 29.5899 48.4863 30.5129V33.1055C48.4863 34.3364 47.5198 35.3028 46.2891 35.3028V26.5137C47.5198 26.5137 48.4863 25.5473 48.4863 24.3164C48.4863 23.0856 47.5198 22.1192 46.2891 22.1192V17.7246C49.9368 17.7246 52.8808 20.6687 52.8808 24.3164Z" fill="#FFD400"/>
<path d="M46.2891 13.3301V4.39453C47.5198 4.39453 48.4863 5.36098 48.4863 6.59179V9.33151C51.0355 10.2539 52.8808 12.6709 52.8808 15.5274C52.8808 16.7581 51.9144 17.7246 50.6836 17.7246C49.4527 17.7246 48.4863 16.7581 48.4863 15.5274C48.4863 14.2965 47.5198 13.3301 46.2891 13.3301Z" fill="#FFD400"/>
</g>
</g>
<defs>
<clipPath id="clip0_2135_3285">
<rect width="75" height="75" fill="white"/>
</clipPath>
</defs>
</svg>
