<svg width="75" height="75" viewBox="0 0 75 75" fill="none" xmlns="http://www.w3.org/2000/svg">
<g clip-path="url(#clip0_2135_3304)">
<path d="M4.05799 2.58594H60.6535C62.7848 2.58594 64.5123 4.32255 64.5123 6.46523V58.1893C64.5123 60.332 62.7848 62.0686 60.6535 62.0686H4.05799C1.92664 62.0688 0.199219 60.332 0.199219 58.1893V6.46523C0.199219 4.32267 1.92664 2.58594 4.05799 2.58594Z" fill="#4398D1"/>
<path d="M6.63106 6.46484H4.05859V9.051H6.63106V6.46484Z" fill="#3E8CC7"/>
<path d="M11.7756 6.46484H9.20312V9.051H11.7756V6.46484Z" fill="#3E8CC7"/>
<path d="M16.9201 6.46484H14.3477V9.051H16.9201V6.46484Z" fill="#3E8CC7"/>
<path d="M14.3471 12.9307H70.9425C73.0739 12.9307 74.8013 14.6673 74.8013 16.81V68.5341C74.8013 70.6768 73.0739 72.4134 70.9425 72.4134H14.3471C12.2157 72.4134 10.4883 70.6768 10.4883 68.5341V16.81C10.4883 14.6673 12.2157 12.9307 14.3471 12.9307Z" fill="#87CED9"/>
<path d="M70.943 12.9307H68.3705L11.0625 70.5435C11.7559 71.7021 13.0022 72.4121 14.3476 72.4134H70.9431C73.0745 72.4134 74.8019 70.6768 74.8019 68.5341V16.81C74.8019 14.6673 73.0743 12.9307 70.943 12.9307Z" fill="#71C4D1"/>
<path d="M16.9201 16.8105H14.3477V19.3967H16.9201V16.8105Z" fill="#5EB3D1"/>
<path d="M22.0647 16.8105H19.4922V19.3967H22.0647V16.8105Z" fill="#5EB3D1"/>
<path d="M27.2092 16.8105H24.6367V19.3967H27.2092V16.8105Z" fill="#5EB3D1"/>
<path d="M70.9431 21.9824H14.3477V24.5686H70.9431V21.9824Z" fill="#5EB3D1"/>
<path d="M24.6378 28.4482H14.3477V31.0344H24.6378V28.4482Z" fill="#5EB3D1"/>
<path d="M22.0652 33.6201H14.3477V36.2063H22.0652V33.6201Z" fill="#5EB3D1"/>
<path d="M61.9395 51.7241V43.9655H57.5753C57.2164 42.5638 56.6633 41.2215 55.9314 39.975L59.0183 36.8716L53.5607 31.385L50.4738 34.4883C49.2338 33.7525 47.8986 33.1965 46.5043 32.8357V28.4482H38.7868V32.8357C37.3924 33.1965 36.0573 33.7525 34.8173 34.4883L31.7303 31.385L26.2727 36.8716L29.3597 39.975C28.6278 41.2203 28.0747 42.5638 27.7158 43.9655H23.3516V51.7241H27.7158C28.0747 53.1259 28.6278 54.4682 29.3597 55.7147L26.2727 58.8181L31.7303 64.3047L34.8173 61.2013C36.0573 61.9372 37.3924 62.4932 38.7868 62.854V67.2415H46.5043V62.854C47.8986 62.4932 49.2338 61.9372 50.4738 61.2013L53.5607 64.3047L59.0183 58.8181L55.9314 55.7147C56.6633 54.4682 57.2164 53.1259 57.5753 51.7241H61.9395ZM42.6455 55.6034C38.3828 55.6034 34.928 52.1302 34.928 47.8448C34.928 43.5595 38.3828 40.0863 42.6455 40.0863C46.9082 40.0863 50.3631 43.5595 50.3631 47.8448C50.3631 52.1302 46.9082 55.6034 42.6455 55.6034Z" fill="#E34B87"/>
<path d="M70.9441 65.9482H63.2266V68.5344H70.9441V65.9482Z" fill="#5EB3D1"/>
<path d="M55.9308 39.9744L59.0178 36.871L56.4839 34.3223C54.2471 37.5796 51.7685 40.6624 49.0699 43.5446C51.425 47.1162 50.4526 51.9304 46.8999 54.2981C44.0431 56.2015 40.2783 55.983 37.6595 53.7602C34.4927 56.1395 31.187 58.3275 27.7617 60.311L31.7325 64.3029L34.8194 61.1995C36.0581 61.9353 37.3933 62.4926 38.7862 62.8534V67.2409H46.5037V62.8534C47.8981 62.4926 49.2332 61.9366 50.4732 61.2008L53.5602 64.3042L59.0178 58.8175L55.9308 55.7142C56.6628 54.4676 57.2158 53.1253 57.5747 51.7236H61.939V43.965H57.5747C57.2157 42.5632 56.6626 41.221 55.9308 39.9744Z" fill="#D94881"/>
<path d="M10.4878 16.8105V62.0692H6.62891V20.6898C6.62891 18.5472 8.35645 16.8105 10.4878 16.8105Z" fill="#3E8CC7"/>
</g>
<defs>
<clipPath id="clip0_2135_3304">
<rect width="74.6032" height="75" fill="white" transform="translate(0.199219)"/>
</clipPath>
</defs>
</svg>
