<?xml version="1.0" encoding="utf-8"?>
<!-- Generator: Adobe Illustrator 26.5.0, SVG Export Plug-In . SVG Version: 6.00 Build 0)  -->
<svg version="1.1" id="Layer_1" xmlns="http://www.w3.org/2000/svg" xmlns:xlink="http://www.w3.org/1999/xlink" x="0px" y="0px"
	 width="30px" height="30px" viewBox="0 0 30 30" style="enable-background:new 0 0 30 30;" xml:space="preserve">
<style type="text/css">
	.st0{fill:#0033AD;}
</style>
<g id="Layer_2_1_">
	<g id="Layer_1-2">
		<path class="st0" d="M8.2,15C8.1,16.1,9,17,10.1,17.1h0.1c1.1,0,2.1-0.9,2.1-2.1S11.3,13,10.2,13C9.2,13,8.3,13.8,8.2,15z"/>
		<path class="st0" d="M0.7,14.4C0.3,14.4,0,14.6,0,15c0,0.3,0.3,0.7,0.6,0.7s0.7-0.3,0.7-0.6C1.4,14.7,1,14.4,0.7,14.4L0.7,14.4z"
			/>
		<path class="st0" d="M8.1,3.2C8.4,3,8.5,2.6,8.3,2.4C8.2,2,7.8,1.8,7.5,2C7.2,2.2,7,2.6,7.2,2.9C7.4,3.2,7.8,3.4,8.1,3.2L8.1,3.2z
			"/>
		<path class="st0" d="M10.1,6.7c0.5-0.3,0.7-0.9,0.4-1.4S9.7,4.7,9.2,4.9S8.6,5.8,8.8,6.3C9,6.8,9.7,7,10.1,6.7z"/>
		<path class="st0" d="M3.3,9.2C3.6,9.5,4.1,9.4,4.4,9c0.3-0.3,0.2-0.9-0.3-1.1C3.8,7.6,3.3,7.7,3,8.1l0,0C2.7,8.4,2.8,9,3.3,9.2z"
			/>
		<path class="st0" d="M4.5,14c-0.5,0-1,0.4-1,0.9c0,0.6,0.4,1,0.9,1s1-0.4,1-0.9l0,0C5.5,14.5,5.1,14.1,4.5,14z"/>
		<path class="st0" d="M3.3,20.8C2.9,21,2.7,21.5,3,21.9c0.2,0.4,0.7,0.6,1.1,0.3c0.4-0.2,0.6-0.7,0.3-1.1l0,0
			C4.3,20.8,3.8,20.6,3.3,20.8L3.3,20.8z"/>
		<path class="st0" d="M7.3,12c0.5,0.3,1.3,0.2,1.6-0.3c0.3-0.5,0.2-1.3-0.3-1.6c-0.5-0.3-1.3-0.3-1.6,0.3C6.6,10.8,6.7,11.6,7.3,12
			L7.3,12z"/>
		<path class="st0" d="M19.7,6.6c0.4,0.3,1.1,0.2,1.4-0.3C21.4,6,21.3,5.3,20.8,5c-0.4-0.3-1.1-0.2-1.4,0.3l0,0
			C19.1,5.8,19.3,6.4,19.7,6.6L19.7,6.6z"/>
		<path class="st0" d="M21.8,3.1c0.3,0.2,0.7,0.1,0.9-0.2c0.2-0.3,0.1-0.7-0.2-0.9c-0.3-0.2-0.7-0.1-0.9,0.2
			C21.4,2.5,21.5,3,21.8,3.1L21.8,3.1z"/>
		<path class="st0" d="M19.9,13c-1.1-0.1-2.1,0.8-2.1,1.9c-0.1,1.1,0.8,2.1,1.9,2.1h0.1c1.1,0,2.1-0.9,2.1-2.1
			C21.8,13.9,20.9,13.1,19.9,13L19.9,13z"/>
		<path class="st0" d="M10.8,11.8c0.3,0.7,1,1.1,1.8,1.1c1.1,0,2.1-0.9,2.1-2.1c0-0.3-0.1-0.6-0.3-0.9c-0.5-1-1.7-1.4-2.7-0.9
			C10.7,9.6,10.3,10.8,10.8,11.8L10.8,11.8z"/>
		<path class="st0" d="M26.7,9.2C27.1,9,27.3,8.5,27,8.1c-0.2-0.4-0.7-0.6-1.1-0.3c-0.4,0.2-0.6,0.7-0.3,1.1
			C25.7,9.3,26.2,9.5,26.7,9.2L26.7,9.2z"/>
		<path class="st0" d="M21.5,9.9c-0.6,0.3-0.9,1-0.5,1.6c0.3,0.6,1,0.9,1.6,0.5c0.6-0.3,0.9-1,0.5-1.6C22.8,9.8,22.1,9.6,21.5,9.9z"
			/>
		<path class="st0" d="M14.9,2.8c0.4,0,0.9-0.3,0.9-0.8S15.4,1.2,15,1.2s-0.9,0.3-0.9,0.8S14.5,2.8,14.9,2.8L14.9,2.8z"/>
		<path class="st0" d="M14.9,8c0.7,0,1.2-0.4,1.3-1.1c0-0.7-0.4-1.2-1.1-1.3c-0.7,0-1.2,0.4-1.3,1.1C13.8,7.4,14.2,8,14.9,8L14.9,8z
			"/>
		<path class="st0" d="M8.5,20.2c0.6-0.3,0.9-1,0.5-1.6C8.7,18,8,17.7,7.4,18s-0.9,1-0.5,1.6C7.2,20.3,7.9,20.4,8.5,20.2z"/>
		<path class="st0" d="M15.7,9.8c-0.6,0.9-0.3,2.1,0.6,2.8c0.9,0.7,2.1,0.3,2.8-0.6c0.6-0.9,0.3-2.1-0.6-2.8
			c-0.3-0.3-0.8-0.3-1.1-0.3C16.7,8.9,16,9.2,15.7,9.8z"/>
		<path class="st0" d="M19.2,18.2c-0.5-1-1.7-1.4-2.7-0.9s-1.4,1.7-0.9,2.7c0.5,1,1.7,1.4,2.7,0.9l0,0
			C19.3,20.4,19.7,19.2,19.2,18.2L19.2,18.2z"/>
		<path class="st0" d="M22.7,18c-0.5-0.3-1.3-0.2-1.6,0.3s-0.2,1.3,0.3,1.6s1.3,0.2,1.6-0.3S23.3,18.5,22.7,18L22.7,18z"/>
		<path class="st0" d="M26.6,15c0-0.6-0.4-1-0.9-1c-0.6,0-1,0.4-1,0.9c0,0.6,0.4,1,0.9,1l0,0C26.1,16.1,26.6,15.6,26.6,15z"/>
		<path class="st0" d="M29.4,14.4c-0.3,0-0.7,0.3-0.7,0.6c0,0.3,0.3,0.7,0.6,0.7c0.3,0,0.7-0.3,0.7-0.6C30,14.7,29.7,14.4,29.4,14.4
			z"/>
		<path class="st0" d="M26.7,20.8c-0.3-0.3-0.9-0.2-1.1,0.3c-0.3,0.3-0.2,0.9,0.3,1.1c0.3,0.3,0.9,0.2,1.1-0.3
			C27.3,21.6,27.2,21,26.7,20.8L26.7,20.8z"/>
		<path class="st0" d="M8.2,26.9c-0.3-0.2-0.7-0.1-0.9,0.2c-0.2,0.3-0.1,0.7,0.2,0.9c0.3,0.2,0.7,0.1,0.9-0.2l0,0
			C8.6,27.6,8.5,27.1,8.2,26.9z"/>
		<path class="st0" d="M21.9,26.9c-0.3,0.2-0.4,0.6-0.3,0.9c0.2,0.3,0.6,0.4,0.9,0.3c0.3-0.2,0.4-0.5,0.3-0.9
			C22.6,26.8,22.2,26.7,21.9,26.9L21.9,26.9z"/>
		<path class="st0" d="M14.3,20.3c0.6-0.9,0.3-2.1-0.6-2.8c-0.9-0.6-2.1-0.3-2.8,0.6c-0.6,0.9-0.3,2.1,0.6,2.8
			c0.3,0.3,0.7,0.3,1.1,0.3C13.3,21.2,14,20.9,14.3,20.3z"/>
		<path class="st0" d="M10.3,23.4c-0.4-0.3-1.1-0.2-1.4,0.3C8.6,24,8.7,24.7,9.2,25c0.4,0.3,1.1,0.2,1.4-0.3l0,0
			C10.9,24.3,10.7,23.6,10.3,23.4z"/>
		<path class="st0" d="M15,27.2c-0.4,0-0.9,0.3-0.9,0.8s0.3,0.9,0.8,0.9c0.4,0,0.9-0.3,0.9-0.8S15.4,27.2,15,27.2L15,27.2z"/>
		<path class="st0" d="M15,22c-0.7,0-1.2,0.4-1.3,1.1c0,0.7,0.4,1.2,1.1,1.3c0.7,0,1.2-0.4,1.3-1.1C16.2,22.6,15.7,22,15,22L15,22z"
			/>
		<path class="st0" d="M19.9,23.3c-0.5,0.3-0.7,0.9-0.4,1.4c0.3,0.5,0.9,0.7,1.4,0.4c0.5-0.3,0.7-0.9,0.4-1.4
			C21,23.2,20.4,23,19.9,23.3L19.9,23.3z"/>
	</g>
</g>
</svg>
