<?xml version="1.0" encoding="utf-8"?>
<!-- Generator: Adobe Illustrator 26.5.0, SVG Export Plug-In . SVG Version: 6.00 Build 0)  -->
<svg version="1.1" id="Layer_1" xmlns="http://www.w3.org/2000/svg" xmlns:xlink="http://www.w3.org/1999/xlink" x="0px" y="0px"
	 width="30px" height="30px" viewBox="0 0 30 30" style="enable-background:new 0 0 30 30;" xml:space="preserve">
<style type="text/css">
	.st0{fill:#F9A83D;}
	.st1{fill:#FFD06C;}
	.st2{fill:#EA9734;}
	.st3{opacity:0.2;}
	.st4{fill:#FFFFFF;}
	.st5{fill:#497BFE;}
	.st6{fill:#1D2943;}
	.st7{fill:#57B3FE;}
	.st8{fill:#5094FF;}
	.st9{opacity:0.3;}
</style>
<g id="_x34_">
	<g>
		<g>
			<g>
				<path class="st0" d="M21.9,6.4c0,3.5-2.8,6.3-6.3,6.3S9.3,9.9,9.3,6.4S12.1,0,15.6,0S21.9,2.9,21.9,6.4z"/>
			</g>
			<g>
				<g>
					<path class="st1" d="M20.8,6.4c0,3.5-2.8,6.3-6.3,6.3S8.1,9.9,8.1,6.4S11,0,14.5,0S20.8,2.9,20.8,6.4L20.8,6.4z"/>
				</g>
				<g>
					<g>
						<g>
							<g>
								<path class="st0" d="M10,6.4c0,2.5,2,4.5,4.5,4.5s4.4-2.1,4.4-4.5s-2-4.5-4.5-4.5S10,3.9,10,6.4L10,6.4z"/>
							</g>
							<g>
								<g>
									<path class="st1" d="M16.8,7c-0.1-0.5-0.3-0.7-0.8-0.9c0.3-0.3,0.6-0.4,0.4-1c-0.1-0.7-0.7-0.8-1.4-0.9V3.4h-0.5v0.9h-0.4
										V3.4h-0.6v0.9h-1.1v0.6h0.4c0.2,0,0.3,0.2,0.3,0.3v2.5c0,0.2-0.1,0.3-0.2,0.3c0,0-0.3,0-0.5,0v0.7h1.1v0.9h0.6V8.7h0.4v0.9
										h0.6V8.7c0-0.1,0-0.1,0.1-0.1c0.3,0,0.6-0.1,0.9-0.2C16.7,8.1,16.9,7.6,16.8,7L16.8,7z M14.1,4.8c0.3,0,0.8-0.1,1.1,0.2
										c0.3,0.3,0.3,0.7-0.1,0.9C14.9,6,14.5,6,14.1,6C14.1,5.6,14.1,5.3,14.1,4.8L14.1,4.8z M15.4,7.6c-0.3,0.3-0.9,0.3-1.3,0.3
										c0-0.4,0-0.8,0-1.2c0.3,0,0.6,0,0.9,0.1c0.2,0.1,0.3,0.1,0.4,0.2C15.8,7,15.9,7.4,15.4,7.6L15.4,7.6z"/>
								</g>
							</g>
							<g>
								<path class="st2" d="M14.8,10.8c-0.1,0-0.2,0-0.3,0c-2.5,0-4.5-2-4.5-4.5s2-4.5,4.5-4.5h0.3c-2.3,0.2-4.1,2.1-4.1,4.5
									S12.5,10.7,14.8,10.8z"/>
							</g>
						</g>
						<g class="st3">
							<g>
								<path class="st4" d="M18.1,11.6c-1.2,0.9-3.2,1.4-5.1,0.9L8.9,3.4c0.9-1.7,2.5-2.8,4-3.2L18.1,11.6z"/>
							</g>
							<g>
								<path class="st4" d="M20.1,9.4c-0.3,0.4-0.6,0.9-0.9,1.3L14.2,0c0.3-0.1,1.1,0,1.6,0.2L20.1,9.4z"/>
							</g>
						</g>
						<g>
							<g>
								<path class="st4" d="M19.8,4.5c-0.6,0.3-0.9,0.8-1,1.2c-0.1,0.1-0.2,0.1-0.2,0c-0.2-0.4-0.4-0.9-1.1-1.2
									c-0.1-0.1-0.1-0.2,0-0.2c0.6-0.3,0.9-0.8,1.1-1.2c0.1-0.1,0.2-0.1,0.2,0c0.2,0.4,0.4,0.9,1.1,1.2C20,4.3,20,4.5,19.8,4.5z"
									/>
							</g>
							<g>
								<path class="st4" d="M9.9,7.6C9.6,7.8,9.3,8,9.3,8.3c0,0.1-0.1,0.1-0.1,0C9.2,8,9,7.8,8.7,7.6c-0.1-0.1-0.1-0.1,0-0.1
									C9,7.3,9.3,7.1,9.3,6.8c0-0.1,0.1-0.1,0.1,0C9.4,7,9.6,7.3,9.9,7.6L9.9,7.6z"/>
							</g>
						</g>
					</g>
				</g>
			</g>
		</g>
	</g>
	<g>
		<g>
			<g>
				<path class="st5" d="M28.6,22.4c0,5.7-3.1,7.2-7.4,7.5c-4,0.3-8.4,0.1-13-0.2c-4.8-0.3-6.1-2.3-6.1-6.9c-0.2-3.3,0-6.9,0.4-10.5
					c0.3-2.1,1.5-3.4,4.3-3.5l8.2-0.3l7.3,0.1c2.8,0.2,5.1,1.1,6,4.1C28.8,14.6,28.5,15.6,28.6,22.4z"/>
			</g>
			<g>
				<path class="st6" d="M27.8,22.2c0,5.4-2.9,6.9-6.9,7.1c-3.9,0.3-8,0.1-12.4-0.2C3.8,29,2.6,27,2.6,22.6c-0.2-3.2,0-6.5,0.4-9.9
					c0.3-2,1.5-3.3,4.1-3.3l7.8-0.3c5.1,0.4,11.1-1.4,12.6,4C27.9,14.9,27.7,15.8,27.8,22.2L27.8,22.2z"/>
			</g>
			<g>
				<g>
					<path class="st7" d="M26.7,15.2v7.2c0,5.7-3.1,7.2-7.4,7.5c-4.1,0.3-8.4,0.1-13-0.2c-4.8-0.3-6.1-2.3-6.1-6.9
						c-0.2-3.3,0-6.9,0.4-10.5C0.9,10.2,2.2,8.9,5,8.8l8.2-0.3C18.5,9,24.8,7,26.5,12.7C26.7,13.7,26.7,14.4,26.7,15.2L26.7,15.2z"
						/>
				</g>
			</g>
			<g>
				<path class="st4" d="M22.2,27.7c0.9-0.3,1.6-0.9,2.1-1.6c0.4-0.8,0.6-1.7,0.3-2.6c-0.2,1.1-0.3,1.7-0.8,2.4
					C23.5,26.6,23.1,27,22.2,27.7L22.2,27.7z"/>
			</g>
			<g>
				<path class="st4" d="M11.3,10.7c-1.2,0.2-2.4,0.2-3.6,0.2c-1.1,0-2.5-0.1-3.6-0.2c1-0.2,2.4-0.3,3.6-0.3
					C8.8,10.4,10.1,10.5,11.3,10.7L11.3,10.7z"/>
			</g>
			<g>
				<path class="st8" d="M29.8,18.3v2.3c0,0.7-0.6,1.3-1.3,1.3h-4.1c-0.7,0-1.3-0.6-1.3-1.3v-2.3c0-0.7,0.6-1.3,1.3-1.3h4.1
					C29.2,17,29.8,17.5,29.8,18.3z"/>
			</g>
			<g>
				<ellipse class="st6" cx="25.2" cy="19.3" rx="1" ry="1"/>
			</g>
			<g class="st9">
				
					<ellipse transform="matrix(0.7071 -0.7071 0.7071 0.7071 -6.7342 23.3032)" class="st4" cx="24.8" cy="19.8" rx="0.2" ry="0.3"/>
			</g>
		</g>
		<g>
			<g>
				<path class="st5" d="M19.8,26.4c-0.2,0-0.3,0.1-0.3,0.1l-3.3-3.3h-3.6l-3-3H0.3v0.3h9.2l3,3H16l3.3,3.3
					c-0.1,0.1-0.1,0.2-0.1,0.3c0,0.3,0.3,0.6,0.6,0.6c0.3,0,0.6-0.3,0.6-0.6C20.4,26.6,20.2,26.4,19.8,26.4L19.8,26.4z"/>
			</g>
			<g>
				<path class="st5" d="M17.8,27.6c-0.2,0-0.3,0.1-0.3,0.1l-3.1-3.1h-3.9l-3.2-3.2H0.3v0.3h7l3.2,3.2h3.9l3,3
					c-0.1,0.1-0.1,0.2-0.1,0.3c0,0.3,0.3,0.6,0.6,0.6s0.6-0.3,0.6-0.6C18.4,27.8,18.2,27.6,17.8,27.6z"/>
			</g>
			<g>
				<path class="st5" d="M7.7,14.7h3.7l3.7-3.7c0.1,0.1,0.3,0.2,0.3,0.2c0.3,0,0.6-0.3,0.6-0.6c0-0.3-0.3-0.7-0.6-0.7
					c-0.3,0-0.6,0.3-0.6,0.6c0,0.1,0.1,0.2,0.1,0.3l-3.7,3.7H7.5l-2.1,2.1H0.3v0.3h5.2L7.7,14.7z"/>
			</g>
			<g>
				<path class="st5" d="M8,16h4.2l2.5,2.5h3.9c0.1,0.3,0.3,0.4,0.6,0.4c0.3,0,0.6-0.3,0.6-0.6c0-0.3-0.3-0.6-0.6-0.6
					c-0.3,0-0.5,0.3-0.6,0.4h-3.7l-2.3-2.3l2.3-2.3h3.7c0.1,0.3,0.3,0.4,0.6,0.4s0.6-0.3,0.6-0.6c0-0.3-0.3-0.6-0.6-0.6
					c-0.3,0-0.5,0.3-0.6,0.4h-3.9l-2.5,2.5H7.9l-2,2H0.3v0.3h5.8L8,16z"/>
			</g>
			<g>
				<path class="st5" d="M12.9,22.2h6c0.1,0.3,0.3,0.4,0.6,0.4c0.3,0,0.6-0.3,0.6-0.6c0-0.3-0.3-0.6-0.6-0.6c-0.3,0-0.5,0.3-0.6,0.4
					H13l-3.2-3.2H0.3V19h9.6L12.9,22.2z"/>
			</g>
		</g>
	</g>
</g>
</svg>
