<?xml version="1.0" encoding="utf-8"?>
<!-- Generator: Adobe Illustrator 26.5.0, SVG Export Plug-In . SVG Version: 6.00 Build 0)  -->
<svg version="1.1" id="Layer_1" xmlns="http://www.w3.org/2000/svg" xmlns:xlink="http://www.w3.org/1999/xlink" x="0px" y="0px"
	 width="30px" height="30px" viewBox="0 0 30 30" style="enable-background:new 0 0 30 30;" xml:space="preserve">
<style type="text/css">
	.st0{fill:#233551;}
	.st1{fill:#FFFFFF;}
	.st2{fill:#EDB623;}
</style>
<circle class="st0" cx="15" cy="15" r="15"/>
<path class="st1" d="M9.38,4.47c-2.78,0-5.03,2.25-5.03,5.02s2.25,5.03,5.02,5.03s5.03-2.25,5.03-5.02c0,0,0-0.01,0-0.01
	C14.4,6.72,12.15,4.47,9.38,4.47z M9.38,13.53c-2.23,0-4.04-1.81-4.04-4.04c0-2.23,1.81-4.04,4.04-4.04c2.23,0,4.04,1.81,4.04,4.04
	C13.42,11.72,11.61,13.52,9.38,13.53z"/>
<g>
	<path class="st2" d="M9.27,5.82c-1.93,0-3.5,1.56-3.51,3.5c0,1.93,1.56,3.5,3.5,3.51s3.5-1.56,3.51-3.5c0,0,0-0.01,0-0.01
		C12.76,7.38,11.2,5.82,9.27,5.82z M10.47,11.05c-0.27,0.22-0.59,0.36-0.94,0.38H9.48v0.39c0,0.15-0.12,0.26-0.27,0.27
		c-0.15,0-0.27-0.12-0.27-0.27v-0.37H8.91c-0.34,0-0.57-0.03-0.68-0.04c-0.13-0.02-0.23-0.13-0.23-0.27V7.5
		c0-0.13,0.09-0.23,0.21-0.26c0.23-0.04,0.47-0.07,0.7-0.08h0.07V6.8c0-0.15,0.12-0.27,0.27-0.27c0.15,0,0.27,0.12,0.27,0.27v0.38
		h0.06c0.27,0.03,0.53,0.14,0.75,0.32c0.27,0.21,0.42,0.53,0.41,0.86c0,0.28-0.11,0.54-0.3,0.74l-0.05,0.05l0.06,0.05
		c0.28,0.23,0.44,0.57,0.43,0.94C10.86,10.48,10.72,10.81,10.47,11.05L10.47,11.05z"/>
	<path class="st2" d="M9.78,8.91c0.24-0.08,0.4-0.3,0.41-0.54c0.01-0.17-0.06-0.33-0.2-0.44C9.78,7.77,9.52,7.69,9.26,7.71H9.13
		c-0.18,0-0.38,0-0.55,0H8.52v1.2L9.78,8.91z"/>
	<path class="st2" d="M9.75,9.44H8.52v1.49h0.07H9c0.39,0.04,0.78-0.06,1.11-0.28c0.14-0.14,0.22-0.33,0.21-0.53
		C10.31,9.78,10.07,9.5,9.75,9.44z"/>
</g>
<path class="st1" d="M20.73,15.66c-2.78,0.01-5.01,2.27-5,5.05c0.01,2.78,2.27,5.01,5.05,5c2.76-0.01,5-2.26,5-5.02
	c0-2.78-2.25-5.03-5.03-5.03C20.75,15.66,20.74,15.66,20.73,15.66z M20.73,24.72c-2.23,0-4.04-1.81-4.04-4.04
	c0-2.23,1.81-4.04,4.04-4.04c2.23,0,4.04,1.81,4.04,4.04C24.77,22.91,22.96,24.72,20.73,24.72z"/>
<path class="st2" d="M20.73,17.18c-1.93,0-3.5,1.57-3.5,3.5s1.57,3.5,3.5,3.5s3.5-1.57,3.5-3.5C24.23,18.75,22.67,17.19,20.73,17.18
	z M19.88,20.02c0.07,0.13,0.17,0.23,0.3,0.3c0.16,0.08,0.33,0.12,0.5,0.12l0.3,0.03c0.47,0.05,0.88,0.34,1.09,0.76
	c0.15,0.36,0.11,0.77-0.12,1.08c-0.22,0.3-0.54,0.51-0.9,0.58H21v0.29c0,0.14-0.11,0.26-0.26,0.27c0,0-0.01,0-0.01,0
	c-0.15,0-0.27-0.12-0.27-0.27v-0.3h-0.05c-0.63-0.09-1.11-0.62-1.13-1.26c0-0.15,0.12-0.26,0.27-0.26v-0.07v0.07
	c0.14,0,0.26,0.12,0.26,0.26c0,0,0,0.01,0,0.01c0,0.49,0.53,0.74,0.91,0.75h0.04c0.29,0.01,0.57-0.13,0.75-0.36
	c0.13-0.17,0.15-0.4,0.05-0.6c-0.15-0.24-0.4-0.4-0.69-0.44c-0.09-0.01-0.18-0.02-0.27-0.03c-0.25-0.01-0.49-0.07-0.71-0.19
	c-0.22-0.12-0.39-0.31-0.51-0.52c-0.18-0.37-0.15-0.81,0.07-1.16c0.21-0.32,0.55-0.54,0.94-0.61h0.05v-0.31
	c0-0.15,0.12-0.26,0.27-0.27c0.15,0,0.27,0.12,0.27,0.27v0.32h0.06c0.56,0.1,1.01,0.53,1.13,1.09c0.02,0.15-0.07,0.29-0.22,0.31
	h-0.04c-0.13,0-0.24-0.09-0.27-0.22c-0.09-0.41-0.46-0.7-0.88-0.69H20.7c-0.31-0.01-0.6,0.14-0.78,0.4
	C19.81,19.59,19.79,19.82,19.88,20.02z"/>
<path class="st1" d="M12.75,21.73H9.47c-0.46,0-0.83-0.37-0.83-0.83v-2.53l0.27,0.3c0.1,0.1,0.23,0.16,0.37,0.16
	c0.13,0,0.25-0.05,0.34-0.13c0.1-0.09,0.15-0.22,0.16-0.35c0.01-0.13-0.04-0.27-0.14-0.36L8.5,16.75c-0.09-0.1-0.22-0.16-0.36-0.15
	c-0.14,0-0.27,0.06-0.37,0.16l-1.14,1.23c-0.19,0.2-0.18,0.52,0.03,0.71c0.2,0.18,0.52,0.17,0.71-0.03l0.27-0.3v2.53
	c0,1.02,0.83,1.84,1.84,1.84h3.28c0.28-0.03,0.48-0.27,0.46-0.55C13.19,21.95,13,21.75,12.75,21.73L12.75,21.73z"/>
<path class="st1" d="M17.25,8.27h3.28c0.46,0,0.83,0.37,0.83,0.83v2.53l-0.27-0.3c-0.1-0.1-0.23-0.16-0.37-0.16
	c-0.13,0-0.25,0.05-0.34,0.13c-0.1,0.09-0.15,0.22-0.16,0.35c-0.01,0.13,0.04,0.27,0.14,0.36l1.15,1.24
	c0.04,0.03,0.08,0.06,0.12,0.09l0.03-0.06v0.07c0.05,0.02,0.09,0.03,0.14,0.03h0.03c0.08,0,0.15-0.02,0.22-0.06
	c0.06-0.03,0.11-0.06,0.15-0.11L23.34,12c0.19-0.2,0.19-0.51-0.01-0.7c-0.1-0.09-0.22-0.14-0.36-0.14c-0.14,0-0.27,0.06-0.37,0.16
	l-0.27,0.3V9.1c0-1.02-0.83-1.84-1.84-1.84h-3.28c-0.28-0.03-0.53,0.18-0.55,0.46c-0.03,0.28,0.18,0.53,0.46,0.55
	c0.03,0,0.06,0,0.1,0L17.25,8.27z"/>
</svg>
