<?xml version="1.0" encoding="utf-8"?>
<!-- Generator: Adobe Illustrator 26.5.0, SVG Export Plug-In . SVG Version: 6.00 Build 0)  -->
<svg version="1.1"
	 id="Layer_1" xmlns:dc="http://purl.org/dc/elements/1.1/" xmlns:svg="http://www.w3.org/2000/svg" xmlns:cc="http://creativecommons.org/ns#" xmlns:sodipodi="http://sodipodi.sourceforge.net/DTD/sodipodi-0.dtd" xmlns:rdf="http://www.w3.org/1999/02/22-rdf-syntax-ns#" xmlns:inkscape="http://www.inkscape.org/namespaces/inkscape"
	 xmlns="http://www.w3.org/2000/svg" xmlns:xlink="http://www.w3.org/1999/xlink" x="0px" y="0px" width="30px" height="30px"
	 viewBox="0 0 30 30" style="enable-background:new 0 0 30 30;" xml:space="preserve">
<style type="text/css">
	.st0{fill:#2F3134;}
</style>
<sodipodi:namedview  bordercolor="#666666" borderopacity="1" gridtolerance="10" guidetolerance="10" id="namedview71" inkscape:current-layer="Layer_1" inkscape:cx="57.732727" inkscape:cy="42.995743" inkscape:pageopacity="0" inkscape:pageshadow="2" inkscape:window-height="1001" inkscape:window-maximized="1" inkscape:window-width="1920" inkscape:window-x="-9" inkscape:window-y="-9" inkscape:zoom="4.794184" objecttolerance="10" pagecolor="#ffffff" showgrid="false">
	</sodipodi:namedview>
<g id="g967" transform="matrix(3.0313136,0,0,3.0313136,-30.313124,-58.939421)">
	<path id="path8" inkscape:connector-curvature="0" class="st0" d="M12.8,28.7L12.8,28.7l-2.8-4c0,0,0,0,0-0.1l2-4.4l0,0l4.8-0.4
		l0,0l2.8,4c0,0,0,0,0,0.1l-2,4.4l0,0L12.8,28.7L12.8,28.7L12.8,28.7z M10.1,24.7l2.8,3.9l4.7-0.4l2-4.3l-2.8-4L12,20.3L10.1,24.7z"
		/>
	<path id="path10" inkscape:connector-curvature="0" class="st0" d="M12.8,28.7l-0.8-4v-4.4l3.8,1.1l3.9,2.4l-2.9,2.6L12.8,28.7z
		 M12,20.3v4.3l0.8,4l4-2.2l2.8-2.5l-3.9-2.4L12,20.3z"/>
	<circle id="circle12" class="st0" cx="15.8" cy="21.4" r="0.2"/>
	<path id="path14" inkscape:connector-curvature="0" class="st0" d="M15.8,21.7c-0.2,0-0.3-0.1-0.3-0.3c0-0.2,0.1-0.3,0.3-0.3
		c0.2,0,0.3,0.1,0.3,0.3l0,0C16.1,21.6,16,21.7,15.8,21.7z M15.8,21.4L15.8,21.4L15.8,21.4L15.8,21.4z"/>
	<circle id="circle16" class="st0" cx="16.8" cy="26.4" r="0.2"/>
	<path id="path18" inkscape:connector-curvature="0" class="st0" d="M16.8,26.6c-0.2,0-0.3-0.1-0.3-0.3c0-0.2,0.1-0.3,0.3-0.3
		c0.2,0,0.3,0.1,0.3,0.3l0,0C17,26.5,16.9,26.6,16.8,26.6z M16.8,26.4L16.8,26.4L16.8,26.4L16.8,26.4z"/>
	<circle id="circle20" class="st0" cx="12.8" cy="28.7" r="0.2"/>
	<path id="path22" inkscape:connector-curvature="0" class="st0" d="M12.8,28.9c-0.2,0-0.3-0.1-0.3-0.3s0.1-0.3,0.3-0.3
		s0.3,0.1,0.3,0.3l0,0C13.2,28.9,13,28.9,12.8,28.9z M12.8,28.7L12.8,28.7L12.8,28.7L12.8,28.7z"/>
	<circle id="circle24" class="st0" cx="12" cy="24.7" r="0.2"/>
	<path id="path26" inkscape:connector-curvature="0" class="st0" d="M12,25c-0.2,0-0.3-0.1-0.3-0.3c0-0.2,0.1-0.3,0.3-0.3
		s0.3,0.1,0.3,0.3l0,0C12.3,24.9,12.2,25,12,25z M12,24.7L12,24.7L12,24.7L12,24.7z"/>
	<circle id="circle28" class="st0" cx="19.6" cy="23.9" r="0.2"/>
	<path id="path30" inkscape:connector-curvature="0" class="st0" d="M19.6,24.1c-0.2,0-0.3-0.1-0.3-0.3c0-0.2,0.1-0.3,0.3-0.3
		c0.2,0,0.3,0.1,0.3,0.3l0,0C19.9,24,19.8,24.1,19.6,24.1z M19.6,23.9L19.6,23.9L19.6,23.9L19.6,23.9z"/>
	<circle id="circle32" class="st0" cx="12" cy="20.3" r="0.2"/>
	<path id="path34" inkscape:connector-curvature="0" class="st0" d="M12,20.6c-0.2,0-0.3-0.1-0.3-0.3c0-0.2,0.1-0.3,0.3-0.3
		s0.3,0.1,0.3,0.3l0,0C12.3,20.5,12.2,20.6,12,20.6z M12,20.3L12,20.3L12,20.3L12,20.3z"/>
	<path id="path36" inkscape:connector-curvature="0" class="st0" d="M17.6,28.2L17.6,28.2L13.9,27l-4-2.2c0,0,0,0,0-0.1l0,0l2.9-2.7
		l3.9-2.2l0,0l0,0l0.9,3.8V28.2L17.6,28.2L17.6,28.2L17.6,28.2z M10.1,24.7l3.9,2.2l3.6,1.3l0.1-4.5L16.8,20L13,22.1L10.1,24.7z"/>
	<path id="path38" inkscape:connector-curvature="0" class="st0" d="M16.8,26.4L16.8,26.4L12,24.7l0,0l3.8-3.3L16.8,26.4z M12,24.7
		l4.6,1.6l-0.9-4.9L12,24.7z"/>
	<path id="path40" inkscape:connector-curvature="0" class="st0" d="M13.9,27l-1-5.1l4.9,1.7L13.9,27z M13.1,22.1l0.9,4.7l3.6-3.1
		L13.1,22.1z"/>
	
		<rect id="rect42" x="12.5" y="20.2" transform="matrix(0.8718 -0.4898 0.4898 0.8718 -8.7708 8.8517)" class="st0" width="0.1" height="1.9"/>
	<polygon id="polygon44" class="st0" points="13.9,26.9 14,27 12.9,28.7 12.8,28.6 	"/>
	
		<rect id="rect46" x="18.6" y="22.9" transform="matrix(7.286219e-02 -0.9973 0.9973 7.286219e-02 -6.4272 40.6932)" class="st0" width="0.1" height="1.9"/>
</g>
</svg>
