<?xml version="1.0" encoding="utf-8"?>
<!-- Generator: Adobe Illustrator 26.5.0, SVG Export Plug-In . SVG Version: 6.00 Build 0)  -->
<svg version="1.1" id="Layer_1" xmlns="http://www.w3.org/2000/svg" xmlns:xlink="http://www.w3.org/1999/xlink" x="0px" y="0px"
	 width="30px" height="30px" viewBox="0 0 30 30" style="enable-background:new 0 0 30 30;" xml:space="preserve">
<style type="text/css">
	.st0{fill:#1B498F;}
	.st1{fill:#F0A47D;}
	.st2{fill:#298BB0;}
	.st3{fill:#FFC19E;}
	.st4{fill:#32ADDB;}
	.st5{fill:#47323B;}
	.st6{fill:#D99471;}
	.st7{fill:#71D6FC;}
</style>
<g id="c">
	<g>
		<g>
			<path class="st0" d="M0,30v-4.8l12.1-3.9h5.8L30,25.2V30H0z"/>
			<path class="st1" d="M19.4,19.4v5.3c0,0-1.5,1.5-4.4,1.5s-4.4-1.5-4.4-1.5v-5.3C10.6,19.4,19.4,19.4,19.4,19.4z"/>
			<path class="st2" d="M21.3,9.2h3.9c0.5,0,0.9,0.4,0.9,0.9V14c0,1-0.9,2-2,2h-2.9L21.3,9.2L21.3,9.2z"/>
			<path class="st2" d="M8.7,15.9H5.8c-1,0-2-0.9-2-2v-3.9c0-0.5,0.4-0.9,0.9-0.9h3.9L8.7,15.9L8.7,15.9z"/>
			<path class="st3" d="M22.7,7.7V15c0,0,0,6.8-7.7,7.3C7.3,21.8,7.3,15,7.3,15V7.7H22.7z"/>
			<path class="st4" d="M5.8,8.7v4.8c0,0.5,0.4,0.9,0.9,0.9h6.8c0-0.8,0.7-1.5,1.5-1.5s1.5,0.7,1.5,1.5h6.8c0.5,0,0.9-0.4,0.9-0.9
				V8.7c0-0.5-0.4-0.9-0.9-0.9H6.8C6.3,7.7,5.8,8.1,5.8,8.7z"/>
			<path class="st5" d="M7.3,7.7c0,0-3.9-1.5-3.4-5.8l2.4,1.5L6.8,0l2,1.5c0,0,2-1.5,5.8-1.5s4.8,2.4,4.8,2.4s4.8-0.9,3.4,5.3H7.3z"
				/>
		</g>
		<path class="st6" d="M15,19.4c-2.7,0-3.8-2.1-3.9-2.2c-0.1-0.3,0-0.5,0.3-0.7c0.3-0.1,0.5,0,0.7,0.3c0,0.1,0.9,1.6,2.9,1.6
			s2.9-1.6,2.9-1.6c0.1-0.3,0.4-0.3,0.7-0.2c0.3,0.1,0.3,0.4,0.3,0.7C18.8,17.2,17.7,19.4,15,19.4L15,19.4z"/>
		<g>
			<g>
				<path class="st7" d="M22.7,12.1h-0.9v-2h-0.9V9.2h1.5c0.3,0,0.5,0.3,0.5,0.5L22.7,12.1L22.7,12.1z"/>
				<path class="st7" d="M18.9,9.2h0.9v0.9h-0.9V9.2z"/>
			</g>
			<g>
				<path class="st7" d="M9.2,13H7.7c-0.3,0-0.5-0.3-0.5-0.5v-2.4h0.9v2h0.9L9.2,13L9.2,13z"/>
				<path class="st7" d="M10.2,12.1h0.9V13h-0.9V12.1z"/>
			</g>
		</g>
	</g>
</g>
</svg>
