<?xml version="1.0" encoding="utf-8"?>
<!-- Generator: Adobe Illustrator 26.5.0, SVG Export Plug-In . SVG Version: 6.00 Build 0)  -->
<svg version="1.1" id="Icons" xmlns="http://www.w3.org/2000/svg" xmlns:xlink="http://www.w3.org/1999/xlink" x="0px" y="0px"
	 width="30px" height="30px" viewBox="0 0 30 30" style="enable-background:new 0 0 30 30;" xml:space="preserve">
<style type="text/css">
	.st0{fill:#3F5C6C;}
	.st1{fill:#35495E;}
	.st2{fill:#547580;}
	.st3{fill:#F29C1F;}
	.st4{fill:#F0C419;}
	.st5{fill:#F3D55B;}
	.st6{fill:#FFFFFF;}
</style>
<path class="st0" d="M19.6,14h2.6c2.5,0,4.6,1.8,5.1,4.2l1.5,7.2c0.3,1.9-0.7,3.8-2.5,4.4c-0.4,0.2-0.9,0.3-1.3,0.3
	c-1.5,0-2.8-0.9-3.5-2.1l-1.7-2.7c-0.3-0.5-0.8-0.9-1.4-0.9h-6.3c-0.6,0-1.1,0.3-1.4,0.9l-1.7,2.7c-0.9,1.9-3.3,2.7-5.2,1.7
	c-1.3-0.7-2.1-2-2.1-3.5c0-0.3,0-0.5,0.1-0.7L3,18.2C3.4,15.7,5.6,14,8.1,14L19.6,14z"/>
<circle class="st1" cx="8.2" cy="19.6" r="3.6"/>
<path class="st2" d="M8.2,19.1c-0.3,0-0.5-0.3-0.5-0.5v-1c0-0.3,0.3-0.5,0.5-0.5c0.3,0,0.5,0.3,0.5,0.5v1
	C8.8,18.9,8.6,19.1,8.2,19.1z"/>
<path class="st2" d="M8.2,22.2c-0.3,0-0.5-0.3-0.5-0.5v-1c0-0.3,0.3-0.5,0.5-0.5c0.3,0,0.5,0.3,0.5,0.5v1C8.8,22,8.6,22.2,8.2,22.2z
	"/>
<path class="st2" d="M7.2,20.1h-1c-0.3,0-0.5-0.3-0.5-0.5s0.3-0.5,0.5-0.5h1c0.3,0,0.5,0.3,0.5,0.5S7.6,20.1,7.2,20.1z"/>
<path class="st2" d="M10.4,20.1h-1c-0.3,0-0.5-0.3-0.5-0.5s0.3-0.5,0.5-0.5h1c0.3,0,0.5,0.3,0.5,0.5S10.6,20.1,10.4,20.1z"/>
<path class="st1" d="M14,21.2c-0.3,0-0.5-0.3-0.5-0.5v-1.5c0-0.3,0.3-0.5,0.5-0.5s0.5,0.3,0.5,0.5v1.5C14.5,21,14.2,21.2,14,21.2z"
	/>
<path class="st1" d="M16.6,21.2c-0.3,0-0.5-0.3-0.5-0.5v-1.5c0-0.3,0.3-0.5,0.5-0.5s0.5,0.3,0.5,0.5v1.5
	C17.1,21,16.8,21.2,16.6,21.2z"/>
<circle class="st2" cx="19.6" cy="18.1" r="1"/>
<circle class="st2" cx="23.2" cy="17.1" r="1"/>
<circle class="st2" cx="20.7" cy="21.7" r="1"/>
<circle class="st2" cx="24.4" cy="20.7" r="1"/>
<path class="st3" d="M6.7,12.9c-0.3,0-0.5-0.3-0.5-0.5v-1.5c0-0.3,0.3-0.5,0.5-0.5c0.3,0,0.5,0.3,0.5,0.5v1.5
	C7.2,12.7,7,12.9,6.7,12.9z"/>
<path class="st3" d="M23.2,12.9c-0.3,0-0.5-0.3-0.5-0.5v-1.5c0-0.3,0.3-0.5,0.5-0.5c0.3,0,0.5,0.3,0.5,0.5v1.5
	C23.8,12.7,23.6,12.9,23.2,12.9z"/>
<path class="st4" d="M23.1,6.4l-3.3-5.7C19.5,0.3,19,0,18.4,0h-6.8c-0.5,0-1,0.3-1.4,0.8L7,6.4C6.7,6.9,6.7,7.5,7,8l3.3,5.7
	c0.3,0.5,0.8,0.8,1.4,0.8h6.8c0.5,0,1-0.3,1.4-0.8l0.8-1.3l2.6-4.4C23.3,7.5,23.3,6.9,23.1,6.4L23.1,6.4z"/>
<path class="st5" d="M23.1,8.1l-2.6,4.4h-4.7c-0.5,0-1-0.3-1.4-0.8L11.1,6c-0.3-0.5-0.3-1.1,0-1.5l2.6-4.4h4.7c0.5,0,1,0.3,1.4,0.8
	l3.3,5.7C23.3,6.9,23.3,7.5,23.1,8.1z"/>
<g>
	<path class="st6" d="M12.5,9.8c0.3-0.1,0.3-0.3,0.3-0.5V5.1c0-0.3-0.3-0.5-0.5-0.5s-0.4,0.3-0.4,0.5v2.3l-1.6-2.6
		c-0.2-0.3-0.4-0.3-0.7-0.2C9.4,4.8,9.3,5,9.3,5.1v4.1c0,0.3,0.3,0.5,0.5,0.5c0.3,0,0.5-0.3,0.5-0.5V6.9l1.6,2.6
		C12.1,9.8,12.4,9.9,12.5,9.8L12.5,9.8z"/>
	<path class="st6" d="M16.6,5.7c0.3,0,0.5-0.3,0.5-0.5s-0.3-0.5-0.5-0.5h-2.1c-0.3,0-0.5,0.3-0.5,0.5v4.1c0,0.3,0.3,0.5,0.5,0.5
		S15,9.5,15,9.3V7.8h1c0.3,0,0.5-0.3,0.5-0.5S16.3,6.7,16,6.7h-1v-1H16.6z"/>
	<path class="st6" d="M20.2,4.6h-2.1c-0.3,0-0.5,0.3-0.5,0.5c0,0.3,0.3,0.5,0.5,0.5h0.5v3.6c0,0.3,0.3,0.5,0.5,0.5s0.5-0.3,0.5-0.5
		V5.7h0.5c0.3,0,0.5-0.3,0.5-0.5C20.7,4.9,20.5,4.6,20.2,4.6z"/>
	<path class="st6" d="M13,3.6h4.1c0.3,0,0.5-0.3,0.5-0.5s-0.3-0.5-0.5-0.5H13c-0.3,0-0.5,0.3-0.5,0.5S12.6,3.6,13,3.6z"/>
	<path class="st6" d="M17.1,10.9H13c-0.3,0-0.5,0.3-0.5,0.5s0.3,0.5,0.5,0.5h4.1c0.3,0,0.5-0.3,0.5-0.5S17.3,10.9,17.1,10.9z"/>
</g>
</svg>
