<?xml version="1.0" encoding="utf-8"?>
<!-- Generator: Adobe Illustrator 26.5.0, SVG Export Plug-In . SVG Version: 6.00 Build 0)  -->
<svg version="1.1" id="Layer_1" xmlns="http://www.w3.org/2000/svg" xmlns:xlink="http://www.w3.org/1999/xlink" x="0px" y="0px"
	 width="30px" height="30px" viewBox="0 0 30 30" style="enable-background:new 0 0 30 30;" xml:space="preserve">
<style type="text/css">
	.st0{fill:#F78721;}
	.st1{opacity:0.12;enable-background:new    ;}
	.st2{fill:#D1660D;}
	.st3{fill:#E8F1F8;}
</style>
<g id="_x30_1_Nft">
	<g>
		<path class="st0" d="M1.5,20.8V9.2c0-1.2,0.6-2.2,1.6-2.8l10.1-5.8c1-0.6,2.3-0.6,3.3,0l10.1,5.8c1,0.6,1.6,1.7,1.6,2.8v11.7
			c0,1.2-0.6,2.2-1.6,2.8l-10.1,5.8c-1,0.6-2.3,0.6-3.3,0l-10-5.8C2.2,23.2,1.5,22,1.5,20.8z"/>
		<path class="st1" d="M28.5,9.2v11.8c0,1.2-0.6,2.2-1.6,2.8l-10.1,5.8c-1,0.6-2.3,0.6-3.3,0L3.2,23.8c-0.1-0.1-0.3-0.2-0.3-0.2
			c0.3,0,0.5,0,0.9,0c10.6,0,19.1-8.5,19.1-19.1c0-0.2,0-0.3,0-0.5l4,2.3C27.8,6.9,28.5,8,28.5,9.2z"/>
		<path class="st2" d="M5.9,20.2V9.8L15,4.5l9.1,5.2v10.6L15,25.6L5.9,20.2z"/>
		<path class="st1" d="M24.1,9.8v10.6L15,25.6l-7.8-4.5c7.3-0.3,13.2-5.8,14.1-13L24.1,9.8z"/>
		<g>
			<path class="st3" d="M11.9,17.4l-2.3-3.5v3.3c0,0.2-0.2,0.3-0.3,0.3s-0.3-0.2-0.3-0.3v-4.5c0-0.3,0.4-0.4,0.6-0.2l2.3,3.5v-3.3
				c0-0.2,0.2-0.3,0.3-0.3s0.3,0.2,0.3,0.3v4.5C12.4,17.6,12.1,17.7,11.9,17.4z"/>
			<path class="st3" d="M20.8,13.1h-3.2c-0.2,0-0.3-0.2-0.3-0.3c0-0.2,0.2-0.3,0.3-0.3h3.2c0.2,0,0.3,0.2,0.3,0.3
				C21.1,12.9,20.9,13.1,20.8,13.1z"/>
			<path class="st3" d="M19.2,17.6c-0.2,0-0.3-0.2-0.3-0.3v-4.5c0-0.2,0.2-0.3,0.3-0.3s0.3,0.2,0.3,0.3v4.5
				C19.5,17.4,19.4,17.6,19.2,17.6z"/>
			<path class="st3" d="M14,17.6c-0.2,0-0.3-0.2-0.3-0.3v-4.5c0-0.2,0.2-0.3,0.3-0.3h2.2c0.2,0,0.3,0.2,0.3,0.3
				c0,0.2-0.2,0.3-0.3,0.3h-1.9v4.1C14.3,17.4,14.1,17.6,14,17.6L14,17.6z"/>
			<path class="st3" d="M16.2,15.4H14c-0.2,0-0.3-0.2-0.3-0.3s0.2-0.3,0.3-0.3h2.2c0.2,0,0.3,0.2,0.3,0.3
				C16.5,15.2,16.4,15.4,16.2,15.4z"/>
		</g>
	</g>
</g>
</svg>
