<?xml version="1.0" encoding="utf-8"?>
<!-- Generator: Adobe Illustrator 26.5.0, SVG Export Plug-In . SVG Version: 6.00 Build 0)  -->
<svg version="1.1" id="Layer_1" xmlns="http://www.w3.org/2000/svg" xmlns:xlink="http://www.w3.org/1999/xlink" x="0px" y="0px"
	 width="30px" height="30px" viewBox="0 0 30 30" style="enable-background:new 0 0 30 30;" xml:space="preserve">
<style type="text/css">
	.st0{fill:#8247E5;}
</style>
<g>
	<path class="st0" d="M22.7,9.9c-0.6-0.3-1.3-0.3-1.9,0l-4.4,2.6l-3,1.6l-4.3,2.6c-0.6,0.3-1.3,0.3-1.9,0l-3.3-2.1
		C3.3,14.3,3,13.7,3,13V9.1c0-0.6,0.3-1.3,0.9-1.6l3.3-2c0.5-0.3,1.2-0.3,1.8,0l3.3,2.1c0.6,0.3,0.9,0.9,0.9,1.6v2.6l3-1.7V7.3
		c0-0.6-0.3-1.3-0.9-1.6L9.2,2C8.7,1.7,8,1.7,7.3,2.1L0.9,5.8C0.3,6.2,0,6.8,0,7.4v7.4c0,0.6,0.3,1.3,0.9,1.6l6.3,3.7
		c0.6,0.3,1.3,0.3,1.9,0l4.3-2.5l3-1.7l4.3-2.5c0.6-0.3,1.3-0.3,1.9,0l3.3,2c0.6,0.3,0.9,0.9,0.9,1.6v3.9c0,0.6-0.3,1.3-0.9,1.6
		l-3.3,2c-0.6,0.3-1.3,0.3-1.9,0l-3.3-2.1c-0.6-0.3-0.9-0.9-0.9-1.6v-2.5l-3,1.7v2.6c0,0.6,0.3,1.3,0.9,1.6l6.3,3.7
		c0.6,0.3,1.3,0.3,1.9,0l6.3-3.7c0.6-0.3,0.9-0.9,0.9-1.6v-7.5c0-0.6-0.3-1.3-0.9-1.6L22.7,9.9z"/>
</g>
</svg>
