<?xml version="1.0" encoding="utf-8"?>
<!-- Generator: Adobe Illustrator 26.5.0, SVG Export Plug-In . SVG Version: 6.00 Build 0)  -->
<svg version="1.1" id="Layer_1" xmlns="http://www.w3.org/2000/svg" xmlns:xlink="http://www.w3.org/1999/xlink" x="0px" y="0px"
	 width="30px" height="30px" viewBox="0 0 30 30" style="enable-background:new 0 0 30 30;" xml:space="preserve">
<g id="Layer_2_00000104663782112221281860000002502704986857140385_">
	<g id="Layer_1-2">
		<path d="M25.8,5.7l-3.6,1.8L4.7,16.4C4.6,16,4.6,15.5,4.6,15C4.6,9.3,9.3,4.6,15,4.6c1.8,0,3.5,0.4,5.1,1.3l2.1-1l0.3-0.2
			C16.8,0.7,8.8,2,4.7,7.6C3.1,9.8,2.3,12.4,2.3,15c0,0.3,0,0.7,0.1,0.9c0.1,0.9-0.4,1.8-1.3,2.2L0,18.8v2.6l3.2-1.6l0,0l1-0.5
			l1-0.5l0,0l18.3-9.3l2.1-1.1L30,6.1V3.5L25.8,5.7z"/>
		<path d="M30,8.7L6.3,20.8l-2.1,1.1L0,24v2.6l4.2-2.1l3.6-1.8l17.5-8.9c0.1,0.4,0.1,0.9,0.1,1.4c0,5.7-4.6,10.4-10.4,10.4
			c-1.8,0-3.5-0.4-5.1-1.3l-0.2,0.1l-2.2,1.1c5.7,4.1,13.6,2.8,17.7-2.8c1.6-2.1,2.4-4.8,2.4-7.5c0-0.3,0-0.7-0.1-0.9
			c-0.1-0.9,0.4-1.8,1.3-2.2l1.1-0.5C30,11.4,30,8.7,30,8.7z"/>
	</g>
</g>
</svg>
