<?xml version="1.0" encoding="utf-8"?>
<!-- Generator: Adobe Illustrator 26.5.0, SVG Export Plug-In . SVG Version: 6.00 Build 0)  -->
<svg version="1.1" id="Capa_1" xmlns="http://www.w3.org/2000/svg" xmlns:xlink="http://www.w3.org/1999/xlink" x="0px" y="0px"
	 width="30px" height="30px" viewBox="0 0 30 30" style="enable-background:new 0 0 30 30;" xml:space="preserve">
<style type="text/css">
	.st0{fill:#625FB2;}
	.st1{fill:#7E7BC6;}
	.st2{fill:#B5B4D9;}
	.st3{fill:#9997CF;}
	.st4{fill:#48484C;}
	.st5{fill:#2C2C2F;}
</style>
<g>
	<path class="st0" d="M3.3,17.9L5,26.6l5-2.9l1.7-5.8C11.7,17.9,3.3,17.9,3.3,17.9z"/>
	<path class="st1" d="M0,17.9v5.8l5,2.9v-8.7H0z"/>
	<path class="st0" d="M23.2,17.9l1.7,8.7l5-2.9v-5.8C29.9,17.9,23.2,17.9,23.2,17.9z"/>
	<path class="st1" d="M18.3,17.9l1.7,5.8l5,2.9v-8.7H18.3z"/>
	<path class="st0" d="M13.3,17.9l1.7,8.7l5-2.9v-5.8C20,17.9,13.3,17.9,13.3,17.9z"/>
	<path class="st1" d="M10,17.9v5.8l5,2.9v-8.7H10z"/>
	<path class="st2" d="M5,15l-5,2.9l5,1.7l5-1.7L5,15z"/>
	<path class="st3" d="M0,17.9l5,2.9l5-2.9C10,17.9,0,17.9,0,17.9L0,17.9z"/>
	<path class="st2" d="M25,15l-5,2.9l5,1.7l5-1.7L25,15z"/>
	<path class="st3" d="M20,17.9l5,2.9l5-2.9C30,17.9,20,17.9,20,17.9L20,17.9z"/>
	<path class="st2" d="M15,15l-5,2.9l5,1.7l5-1.7L15,15z"/>
	<path class="st3" d="M10,17.9l5,2.9l5-2.9H10L10,17.9z"/>
	<g>
		<path class="st4" d="M19.5,3.2c-1.5,0-2.7,1.2-2.7,2.7h1.7C18.6,5.4,19,5,19.5,5c0.5,0,0.9,0.4,0.9,0.9c0,0.4-0.4,0.9-0.9,0.9v0.9
			l0.9,0.9l0.9-0.9C21.8,7.2,22,6.5,22,5.9C22.2,4.4,21,3.2,19.5,3.2L19.5,3.2z"/>
		<path class="st4" d="M16.3,5.9c0-1.5-1.2-2.7-2.7-2.7H11v4.5l0.9,0.9l3.7-0.9C16,7.2,16.3,6.6,16.3,5.9z M13.6,6.8h-0.9V5.1h0.9
			c0.5,0,0.9,0.4,0.9,0.9C14.5,6.3,14.1,6.8,13.6,6.8z"/>
		<path class="st4" d="M8.3,6.8V5.1H10V3.3H6.6v4.4l0.9,0.9l2.7-0.9V6.8L8.3,6.8L8.3,6.8z"/>
		<path class="st4" d="M26.5,5.9c0-0.5,0.4-0.9,0.9-0.9c0.5,0,0.9,0.4,0.9,0.9v1.8l0.9,0.9l0.9-0.9V5.9c0-1.5-1.2-2.7-2.7-2.7
			s-2.7,1.2-2.7,2.7v1.8l0.9,0.9l0.9-0.9V5.9H26.5z"/>
		<path class="st4" d="M1.7,3.2H0v4.5l0.9,0.9l0.9-0.9V3.2z"/>
		<path class="st4" d="M2.8,6.8L2.3,7.7l0.5,0.9l0.5-0.9L2.8,6.8z"/>
		<path class="st4" d="M3.9,3.2v4.5l0.9,0.9l0.9-0.9V3.2H3.9z"/>
	</g>
	<path class="st5" d="M21.5,7.7h-2v0.9c0.5,0,0.9,0.4,0.9,0.9c0,0.5-0.4,0.9-0.9,0.9c-0.5,0-0.9-0.4-0.9-0.9H17
		c0,1.5,1.2,2.7,2.7,2.7s2.7-1.2,2.7-2.7C22.2,8.7,21.9,8.1,21.5,7.7L21.5,7.7z"/>
	<path class="st5" d="M11,7.7v4.4h2.7c1.5,0,2.7-1.2,2.7-2.7c0-0.7-0.3-1.3-0.7-1.7H11z M13.6,10.3h-0.9V8.6h0.9
		c0.5,0,0.9,0.4,0.9,0.9C14.5,9.9,14.1,10.3,13.6,10.3z"/>
	<path class="st5" d="M6.6,12.1h3.5v-1.7H8.4V8.7h1.7V7.7H6.6V12.1z"/>
	<path class="st5" d="M28.3,7.7v1.7c0,0.5-0.4,0.9-0.9,0.9c-0.5,0-0.9-0.4-0.9-0.9V7.7h-1.7v1.7c0,1.5,1.2,2.7,2.7,2.7
		c1.5,0,2.5-1.2,2.5-2.7V7.7H28.3z"/>
	<path class="st5" d="M22.5,10.3h1.7V12h-1.7V10.3z"/>
	<path class="st5" d="M3.9,8.7L3.3,7.7h-1L1.7,8.7V7.7H0v4.4h1.7l1.1-1.9l1.1,1.9h1.7V7.7H3.9V8.7z"/>
</g>
</svg>
