<svg width="80" height="80" viewBox="0 0 80 80" fill="none" xmlns="http://www.w3.org/2000/svg">
<g clip-path="url(#clip0_1272_1930)">
<path d="M33.333 12.4004H35.9997V15.0671H33.333V12.4004Z" fill="white"/>
<path d="M68 44.4004H70.6667V47.0671H68V44.4004Z" fill="white"/>
<path d="M44 65.7324H46.6667V68.3991H44V65.7324Z" fill="white"/>
<path d="M33.333 69.7324H35.9997V72.3991H33.333V69.7324Z" fill="white"/>
<path d="M12 39.0664H14.6667V41.7331H12V39.0664Z" fill="white"/>
<path d="M44 12.4004H46.6667V15.0671H44V12.4004Z" fill="white"/>
<path d="M65.333 33.7324H67.9997V36.3991H65.333V33.7324Z" fill="white"/>
<path d="M58.667 20.4004H61.3337V23.0671H58.667V20.4004Z" fill="white"/>
<path d="M18.667 20.4004H21.3337V23.0671H18.667V20.4004Z" fill="white"/>
<path d="M58.667 57.7324H61.3337V60.3991H58.667V57.7324Z" fill="white"/>
<path d="M18.667 57.7324H21.3337V60.3991H18.667V57.7324Z" fill="white"/>
<path d="M39.8667 39.0664C37.6 39.1997 36 40.9331 36 43.1997C36 44.7997 37.0667 46.2664 38.6667 46.7997V49.7331H41.3333V46.7997C43.4667 46.1331 44.5333 43.7331 43.7333 41.7331C43.2 40.1331 41.6 39.0664 39.8667 39.0664ZM41.3333 43.0664C41.3333 43.8664 40.8 44.3997 40 44.3997C39.6 44.3997 39.3333 44.2664 39.0667 43.9997C38.5333 43.4664 38.5333 42.6664 38.9333 42.1331C39.2 41.8664 39.4667 41.7331 39.8667 41.7331C40.6667 41.7331 41.3333 42.2664 41.3333 43.0664Z" fill="white"/>
<path d="M46.667 35.3331V33.7331C46.667 29.9997 43.7337 27.0664 40.0003 27.0664C36.267 27.0664 33.3337 29.9997 33.3337 33.7331V35.3331C31.7337 35.8664 30.667 37.3331 30.667 39.0664V49.7331C30.667 51.9997 32.4003 53.7331 34.667 53.7331H45.3337C47.6003 53.7331 49.3337 51.9997 49.3337 49.7331V39.0664C49.3337 37.3331 48.267 35.8664 46.667 35.3331ZM36.0003 33.7331C36.0003 31.4664 37.7337 29.7331 40.0003 29.7331C42.267 29.7331 44.0003 31.4664 44.0003 33.7331V35.0664H36.0003V33.7331ZM46.667 49.7331C46.667 50.3997 46.1337 51.0664 45.3337 51.0664H34.667C33.867 51.0664 33.3337 50.3997 33.3337 49.7331V39.0664C33.3337 38.3997 33.867 37.7331 34.667 37.7331H45.3337C46.1337 37.7331 46.667 38.2664 46.667 39.0664V49.7331Z" fill="white"/>
<path d="M76 52.4004C75.3333 52.4004 74.8 52.5337 74.2667 52.8004L71.2 49.7337H58.6667V47.0671H65.3333V44.4004H58.6667V41.7337H65.6L73.2 38.0004C74.8 39.4671 77.3333 39.4671 78.8 37.8671C80.2667 36.2671 80.2667 33.7337 78.6667 32.2671C77.0667 30.8004 74.5333 30.8004 73.0667 32.4004C72.4 33.2004 72 34.1337 72 35.2004C72 35.3337 72 35.4671 72 35.7337L64.9333 39.2004H58.6667V36.5337H62.6667V33.8671H58.6667V31.2004H64.5333L68.9333 26.8004C69.4667 27.0671 70 27.2004 70.6667 27.2004C72.9333 27.2004 74.6667 25.4671 74.6667 23.2004C74.6667 20.9337 72.9333 19.2004 70.6667 19.2004C68.4 19.2004 66.6667 20.9337 66.6667 23.2004C66.6667 23.8671 66.8 24.4004 67.0667 24.9337L63.4667 28.5337H58.6667C58.6667 24.8004 55.7333 21.8671 52 21.8671V18.4004L59.6 10.6671C60.1333 10.9337 60.6667 11.0671 61.3333 11.0671C63.6 11.0671 65.3333 9.33372 65.3333 7.06706C65.3333 4.93372 63.6 3.06706 61.3333 3.06706C59.0667 3.06706 57.3333 4.93372 57.3333 7.06706C57.3333 7.73372 57.4667 8.26706 57.7333 8.80039L49.3333 17.2004V21.7337H46.6667V17.7337H44V21.7337H41.3333V12.2671C43.4667 11.6004 44.5333 9.20039 43.7333 7.20039C43.0667 5.06706 40.8 4.00039 38.6667 4.66706C36.5333 5.33372 35.4667 7.73372 36.2667 9.73372C36.6667 10.9337 37.6 11.7337 38.6667 12.1337V21.7337H36V17.7337H33.3333V21.7337H30.6667V11.8671L24.9333 6.13372C25.2 5.60039 25.3333 5.06706 25.3333 4.40039C25.3333 2.26706 23.6 0.400391 21.3333 0.400391C19.0667 0.400391 17.3333 2.13372 17.3333 4.40039C17.3333 6.66706 19.0667 8.40039 21.3333 8.40039C21.8667 8.40039 22.5333 8.26706 23.0667 8.00039L28 13.0671V21.8671C24.2667 21.8671 21.3333 24.8004 21.3333 28.5337H16.5333L12.9333 24.9337C13.2 24.4004 13.3333 23.8671 13.3333 23.2004C13.3333 20.9337 11.6 19.2004 9.33333 19.2004C7.06667 19.2004 5.33333 20.9337 5.33333 23.2004C5.33333 25.4671 7.06667 27.2004 9.33333 27.2004C9.86667 27.2004 10.5333 27.0671 11.0667 26.8004L15.4667 31.2004H21.3333V33.8671H12.9333L6 39.7337C5.33333 39.2004 4.66667 39.0671 4 39.0671C1.86667 39.0671 0 40.8004 0 43.0671C0 45.3337 1.86667 47.0671 4 47.0671C6.26667 47.0671 8 45.3337 8 43.0671C8 42.5337 7.86667 42.0004 7.73333 41.4671L13.8667 36.4004H21.3333V39.0671H17.3333V41.7337H21.3333V44.4004H9.33333V47.0671H21.3333V49.7337H14L8.66667 57.7337C8.53333 57.7337 8.26667 57.7337 8.13333 57.6004C5.86667 57.6004 4.13333 59.3337 4 61.6004C4 63.8671 5.73333 65.6004 8 65.7337C10.2667 65.7337 12 64.0004 12.1333 61.7337C12.1333 60.6671 11.7333 59.7337 11.0667 58.9337L15.4667 52.2671H21.3333C21.3333 56.0004 24.2667 58.9337 28 58.9337V67.7337L23.0667 72.6671C22.5333 72.4004 22 72.2671 21.3333 72.2671C19.0667 72.2671 17.3333 74.0004 17.3333 76.2671C17.3333 78.5337 19.0667 80.2671 21.3333 80.2671C23.6 80.2671 25.3333 78.5337 25.3333 76.2671C25.3333 75.7337 25.2 75.0671 24.9333 74.5337L30.6667 68.8004V58.9337H33.3333V66.9337H36V58.9337H38.6667V70.2671L46.8 75.3337C46.2667 77.4671 47.6 79.7337 49.8667 80.2671C52 80.8004 54.2667 79.4671 54.6667 77.2004C55.2 75.0671 53.8667 72.8004 51.6 72.2671C50.4 72.0004 49.0667 72.2671 48.1333 73.0671L41.3333 68.9337V59.0671H44V63.0671H46.6667V59.0671H49.3333V69.7337H58.9333C59.7333 71.8671 62 72.9337 64 72.1337C66.1333 71.3337 67.2 69.0671 66.4 67.0671C65.7333 64.9337 63.3333 63.8671 61.3333 64.6671C60.2667 65.0671 59.3333 66.0004 58.9333 67.0671H52V59.0671C55.7333 59.0671 58.6667 56.1337 58.6667 52.4004H70.1333L72.4 54.6671C72.1333 55.2004 72 55.7337 72 56.4004C72 58.6671 73.7333 60.4004 76 60.4004C78.1333 60.4004 80 58.6671 80 56.4004C80 54.1337 78.1333 52.4004 76 52.4004ZM76 33.7337C76.6667 33.7337 77.3333 34.4004 77.3333 35.0671C77.3333 35.7337 76.6667 36.4004 76 36.4004C75.2 36.4004 74.6667 35.7337 74.6667 35.0671C74.6667 34.4004 75.2 33.7337 76 33.7337ZM70.6667 21.7337C71.4667 21.7337 72 22.4004 72 23.0671C72 23.7337 71.4667 24.4004 70.6667 24.4004C69.8667 24.4004 69.3333 23.7337 69.3333 23.0671C69.3333 22.4004 69.8667 21.7337 70.6667 21.7337ZM61.3333 5.73372C62.1333 5.73372 62.6667 6.40039 62.6667 7.06706C62.6667 7.86706 62.1333 8.40039 61.3333 8.40039C60.5333 8.40039 60 7.86706 60 7.06706C60 6.40039 60.5333 5.73372 61.3333 5.73372ZM21.3333 5.73372C20.5333 5.73372 20 5.20039 20 4.40039C20 3.73372 20.5333 3.06706 21.3333 3.06706C22 3.06706 22.6667 3.73372 22.6667 4.40039C22.6667 5.20039 22.1333 5.73372 21.3333 5.73372ZM9.33333 24.4004C8.53333 24.4004 8 23.7337 8 23.0671C8 22.4004 8.53333 21.7337 9.33333 21.7337C10.1333 21.7337 10.6667 22.4004 10.6667 23.0671C10.6667 23.7337 10.1333 24.4004 9.33333 24.4004ZM4 44.4004C3.33333 44.4004 2.66667 43.7337 2.66667 43.0671C2.66667 42.4004 3.33333 41.7337 4 41.7337C4.8 41.7337 5.33333 42.4004 5.33333 43.0671C5.33333 43.7337 4.8 44.4004 4 44.4004ZM8 63.0671C7.2 63.0671 6.66667 62.5337 6.66667 61.7337C6.66667 61.0671 7.2 60.4004 8 60.4004C8.8 60.4004 9.33333 61.0671 9.33333 61.7337C9.33333 62.4004 8.8 63.0671 8 63.0671ZM21.3333 77.7337C20.5333 77.7337 20 77.0671 20 76.4004C20 75.6004 20.5333 75.0671 21.3333 75.0671C22 75.0671 22.6667 75.6004 22.6667 76.4004C22.6667 77.0671 22.1333 77.7337 21.3333 77.7337ZM50.6667 75.0671C51.3333 75.0671 52 75.6004 52 76.4004C52 77.0671 51.3333 77.7337 50.6667 77.7337C50 77.7337 49.3333 77.0671 49.3333 76.4004C49.3333 75.6004 49.8667 75.0671 50.6667 75.0671ZM62.6667 67.0671C63.4667 67.0671 64 67.6004 64 68.4004C64 69.0671 63.4667 69.7337 62.6667 69.7337C62 69.7337 61.3333 69.0671 61.3333 68.4004C61.3333 67.6004 61.8667 67.0671 62.6667 67.0671ZM40 7.06706C40.6667 7.06706 41.3333 7.73372 41.3333 8.40039C41.3333 9.20039 40.6667 9.73372 40 9.73372C39.3333 9.73372 38.6667 9.20039 38.6667 8.40039C38.6667 7.73372 39.3333 7.06706 40 7.06706ZM56 52.4004C56 54.6671 54.2667 56.4004 52 56.4004H28C25.7333 56.4004 24 54.6671 24 52.4004V28.4004C24 26.1337 25.7333 24.4004 28 24.4004H52C54.2667 24.4004 56 26.1337 56 28.4004V52.4004ZM76 57.7337C75.2 57.7337 74.6667 57.2004 74.6667 56.4004C74.6667 55.6004 75.2 55.0671 76 55.0671C76.6667 55.0671 77.3333 55.6004 77.3333 56.4004C77.3333 57.0671 76.6667 57.7337 76 57.7337Z" fill="white"/>
<path d="M52 24.4004H28C25.7333 24.4004 24 26.1337 24 28.4004V52.4004C24 54.6671 25.7333 56.4004 28 56.4004H52C54.2667 56.4004 56 54.6671 56 52.4004V28.4004C56 26.2671 54.1333 24.4004 52 24.4004ZM49.3333 49.7337C49.3333 52.0004 47.6 53.7337 45.3333 53.7337H34.6667C32.4 53.7337 30.6667 52.0004 30.6667 49.7337V39.0671C30.6667 37.3337 31.7333 35.8671 33.3333 35.3337V33.7337C33.3333 30.0004 36.2667 27.0671 40 27.0671C43.7333 27.0671 46.6667 30.0004 46.6667 33.7337V35.3337C48.2667 35.8671 49.3333 37.3337 49.3333 39.0671V49.7337Z" fill="#FC6C2D"/>
</g>
<defs>
<clipPath id="clip0_1272_1930">
<rect width="80" height="80" fill="white"/>
</clipPath>
</defs>
</svg>
