<svg width="80" height="80" viewBox="0 0 80 80" fill="none" xmlns="http://www.w3.org/2000/svg">
<g clip-path="url(#clip0_1272_1972)">
<path d="M40 14.6667C37.7333 14.6667 36 16.5333 36 18.6667C36 20.8 37.7333 22.6667 40 22.6667C42.1333 22.6667 44 20.8 44 18.6667C44 16.4 42.1333 14.6667 40 14.6667ZM40 20C39.2 20 38.6667 19.4667 38.6667 18.6667C38.6667 17.8667 39.2 17.3333 40 17.3333C40.8 17.3333 41.3333 17.8667 41.3333 18.6667C41.3333 19.3333 40.8 20 40 20ZM40 14.6667C37.7333 14.6667 36 16.5333 36 18.6667C36 20.8 37.7333 22.6667 40 22.6667C42.1333 22.6667 44 20.8 44 18.6667C44 16.4 42.1333 14.6667 40 14.6667ZM40 20C39.2 20 38.6667 19.4667 38.6667 18.6667C38.6667 17.8667 39.2 17.3333 40 17.3333C40.8 17.3333 41.3333 17.8667 41.3333 18.6667C41.3333 19.3333 40.8 20 40 20ZM51.7333 23.2C50.8 21.8667 49.8667 21.0667 49.2 20.5333C49.2 19.8667 49.2 19.2 49.2 18.5333C49.2 7.2 40.6667 0.133333 40.6667 0.133333C40.6667 0.133333 40.2667 0 40 0C39.7333 0 39.3333 0.133333 39.2 0.266667C39.2 0.266667 30.6667 7.33333 30.6667 18.6667C30.6667 19.3333 30.6667 20 30.6667 20.6667C30 21.0667 29.0667 22 28.1333 23.3333C26.6667 25.4667 25.3333 29.0667 25.3333 34.6667C25.3333 36 27.2 36.5333 27.8667 35.3333C27.8667 35.3333 29.4667 32.2667 33.2 31.0667C34.1333 33.0667 34.9333 34.1333 34.9333 34.1333C35.2 34.4 35.6 34.6667 36 34.6667H44C44.4 34.6667 44.8 34.5333 45.0667 34.1333C45.0667 34.1333 45.8667 33.0667 46.8 31.0667C50.6667 32.1333 52.1333 35.3333 52.1333 35.3333C52.8 36.5333 54.6667 36 54.6667 34.6667C54.6667 29.0667 53.3333 25.4667 51.7333 23.2ZM28.2667 30.6667C28.8 27.7333 29.6 25.8667 30.4 24.6667C30.6667 24.2667 30.8 24.1333 31.0667 23.8667C31.3333 25.6 31.7333 27.2 32.2667 28.5333C30.6667 29.0667 29.3333 29.8667 28.2667 30.6667ZM40 3.2C40.5333 3.73333 41.6 4.93333 42.8 6.66667H37.0667C38.4 4.93333 39.4667 3.6 40 3.2ZM43.2 32H36.8C36.2667 31.3333 33.3333 26.9333 33.3333 18.6667C33.3333 15.0667 34.4 11.8667 35.6 9.33333H44.2667C45.4667 11.8667 46.5333 15.0667 46.5333 18.6667C46.6667 26.9333 43.7333 31.3333 43.2 32ZM47.7333 28.5333C48.1333 27.2 48.6667 25.6 48.9333 23.8667C49.2 24.1333 49.3333 24.4 49.6 24.6667C50.4 25.8667 51.2 27.6 51.7333 30.6667C50.6667 29.8667 49.3333 29.0667 47.7333 28.5333ZM40 14.6667C37.7333 14.6667 36 16.5333 36 18.6667C36 20.8 37.7333 22.6667 40 22.6667C42.1333 22.6667 44 20.8 44 18.6667C44 16.4 42.1333 14.6667 40 14.6667ZM40 20C39.2 20 38.6667 19.4667 38.6667 18.6667C38.6667 17.8667 39.2 17.3333 40 17.3333C40.8 17.3333 41.3333 17.8667 41.3333 18.6667C41.3333 19.3333 40.8 20 40 20ZM42.6667 56H37.3333C35.6 56.2667 35.7333 58.6667 37.3333 58.6667H42.6667C44.5333 58.8 44.6667 56 42.6667 56ZM42.6667 56H37.3333C35.6 56.2667 35.7333 58.6667 37.3333 58.6667H42.6667C44.5333 58.8 44.6667 56 42.6667 56ZM76 8H52C50.1333 8 50.1333 10.6667 52 10.6667H76C76.8 10.6667 77.3333 11.2 77.3333 12V50.6667H65.2C64.5333 46.9333 61.3333 44 57.3333 44C56 44 55.0667 44.2667 54 44.6667C53.0667 42.6667 51.3333 41.0667 49.2 40.4C49.0667 40.4 48.9333 40.2667 48.6667 40.4C47.2 40.4 46.9333 42.5333 48.2667 43.0667C50 43.7333 51.4667 45.2 51.8667 47.2C52 48.1333 53.2 48.6667 54 48C54.9333 47.2 56.1333 46.8 57.3333 46.8C59.8667 46.8 61.8667 48.5333 62.5333 50.8H17.4667C18 48.5333 20.1333 46.8 22.6667 46.8C23.8667 46.8 25.0667 47.2 26 48C26.8 48.6667 28 48.1333 28.1333 47.2C28.5333 45.2 29.8667 43.7333 31.7333 43.0667C33.2 42.6667 32.9333 40.5333 31.3333 40.4C31.2 40.4 31.0667 40.4 30.8 40.4C28.6667 41.0667 26.9333 42.6667 26 44.6667C24.9333 44.2667 24 44 22.6667 44C18.6667 44 15.4667 46.9333 14.8 50.6667H2.66667V12C2.66667 11.2 3.2 10.6667 4 10.6667H28C29.8667 10.6667 29.8667 8 28 8H4C1.86667 8 0 9.73333 0 12V60C0 62.1333 1.86667 64 4 64H76C78.2667 64 80 62.1333 80 60V12C80 9.73333 78.2667 8 76 8ZM77.3333 60C77.3333 60.8 76.8 61.3333 76 61.3333H4C3.2 61.3333 2.66667 60.8 2.66667 60V53.3333H77.3333V60ZM37.3333 58.6667H42.6667C44.5333 58.8 44.6667 56 42.6667 56H37.3333C35.6 56.2667 35.7333 58.6667 37.3333 58.6667ZM40 14.6667C37.7333 14.6667 36 16.5333 36 18.6667C36 20.8 37.7333 22.6667 40 22.6667C42.1333 22.6667 44 20.8 44 18.6667C44 16.4 42.1333 14.6667 40 14.6667ZM40 20C39.2 20 38.6667 19.4667 38.6667 18.6667C38.6667 17.8667 39.2 17.3333 40 17.3333C40.8 17.3333 41.3333 17.8667 41.3333 18.6667C41.3333 19.3333 40.8 20 40 20ZM40 14.6667C37.7333 14.6667 36 16.5333 36 18.6667C36 20.8 37.7333 22.6667 40 22.6667C42.1333 22.6667 44 20.8 44 18.6667C44 16.4 42.1333 14.6667 40 14.6667ZM40 20C39.2 20 38.6667 19.4667 38.6667 18.6667C38.6667 17.8667 39.2 17.3333 40 17.3333C40.8 17.3333 41.3333 17.8667 41.3333 18.6667C41.3333 19.3333 40.8 20 40 20ZM44 37.3333C43.3333 37.3333 42.6667 37.7333 42.6667 38.6667C42.6667 42.2667 40.5333 44.4 40 44.9333C39.4667 44.4 37.3333 42.2667 37.3333 38.6667C37.3333 37.7333 36.6667 37.3333 36 37.3333C35.3333 37.3333 34.6667 37.7333 34.6667 38.6667C34.6667 44.6667 39.2 47.7333 39.2 47.7333C39.4667 47.8667 39.7333 48 40 48C40.2667 48 40.5333 48 40.8 47.7333C40.8 47.7333 45.3333 44.6667 45.3333 38.6667C45.3333 37.7333 44.6667 37.3333 44 37.3333ZM42.6667 56H37.3333C35.6 56.2667 35.7333 58.6667 37.3333 58.6667H42.6667C44.5333 58.8 44.6667 56 42.6667 56ZM42.6667 56H37.3333C35.6 56.2667 35.7333 58.6667 37.3333 58.6667H42.6667C44.5333 58.8 44.6667 56 42.6667 56ZM54.6667 72H52.5333C50.5333 70.4 49.3333 68.6667 48.8 67.3333C48.5333 66.8 48.1333 66.5333 47.4667 66.5333C46.5333 66.5333 45.8667 67.6 46.2667 68.4C46.8 69.4667 47.6 70.6667 48.6667 71.8667H31.3333C32.4 70.6667 33.2 69.4667 33.7333 68.4C34.1333 67.4667 33.4667 66.5333 32.5333 66.5333C32 66.5333 31.4667 66.8 31.3333 67.3333C30.6667 68.6667 29.4667 70.2667 27.6 72H25.3333C23.2 72 21.3333 73.8667 21.3333 76V78.6667C21.3333 79.3333 22 80 22.6667 80H57.3333C58 80 58.6667 79.3333 58.6667 78.6667V76C58.6667 73.7333 56.8 72 54.6667 72ZM56 77.3333H24V76C24 75.2 24.5333 74.6667 25.3333 74.6667H54.6667C55.4667 74.6667 56 75.2 56 76V77.3333Z" fill="white"/>
<path d="M2.66602 53.334V60.0007C2.66602 60.8007 3.19935 61.334 3.99935 61.334H75.9993C76.7993 61.334 77.3327 60.8007 77.3327 60.0007V53.334H2.66602ZM42.666 58.6673H37.3327C35.7327 58.6673 35.5993 56.2673 37.3327 56.0007H42.666C44.666 56.0007 44.5327 58.8007 42.666 58.6673Z" fill="#FC6C2D"/>
<path d="M44.4001 9.33398H35.7335C34.5335 11.8673 33.4668 15.0673 33.4668 18.6673C33.4668 26.934 36.4001 31.334 36.9335 32.0007H43.3335C43.8668 31.334 46.8001 26.934 46.8001 18.6673C46.6668 14.934 45.6001 11.8673 44.4001 9.33398ZM40.0001 22.6673C37.7335 22.6673 36.0001 20.8007 36.0001 18.6673C36.0001 16.534 37.7335 14.6673 40.0001 14.6673C42.1335 14.6673 44.0001 16.534 44.0001 18.6673C44.0001 20.8007 42.1335 22.6673 40.0001 22.6673Z" fill="#FC6C2D"/>
</g>
<defs>
<clipPath id="clip0_1272_1972">
<rect width="80" height="80" fill="white"/>
</clipPath>
</defs>
</svg>
