<svg width="68" height="70" viewBox="0 0 68 70" fill="none" xmlns="http://www.w3.org/2000/svg">
<path d="M9.89999 59.5H57.8L62 54.7C65.4 49.5 67.4 43.2 67.4 36.5C67.4 18.1 52.4 3 33.9 3C15.4 3 0.299988 18 0.299988 36.5C0.299988 42.9 2.09999 49 5.29999 54.1L9.89999 59.5Z" fill="#73C3F9"/>
<path d="M11.4 61.2002L12 62.0002C17.9 67.0002 25.5 70.0002 33.8 70.0002C42.1 70.0002 49.8 67.0002 55.6 62.0002L56.3 61.2002H11.4Z" fill="#2A428C"/>
<path d="M47.7 42.1C43.7 34.9 54.8 31.6 51.9 25.2C48.9 18.8 48.7 15.5 53.1 9.3C55.8 5.5 55.8 2 55.5 0H17.5C18.1 2.6 19.3 5.4 21.3 7.6C23.1 9.6 22.5 12.6 21.7 16.2H21.2V18.4H21.3C20.2 23.9 19.6 30.5 26.9 36.9C35.4 44.4 26.7 50.1 28.9 56.8C30.4 57.8 31.4 58.6 32 59.2C32.6 59 33.2 58.9 33.8 58.9C34.4 58.9 34.9 59 35.4 59.2C37.2 57.6 42.4 53.6 49.8 52.2C51.1 50.1 50.7 47.6 47.7 42.1Z" fill="#816AE2"/>
<path d="M60.5 11.6C64.1 8.5 64.9 3.6 65.1 1.3C65.2 0.6 64.6 0 63.8 0H55.2C55.5 2 55.5 5.4 52.7 9.3C48.3 15.4 48.5 18.7 51.5 25.2C54.5 31.6 43.3 34.9 47.3 42.1C50.4 47.7 50.8 50.2 49.3 52.2C50.3 52 51.3 51.9 52.4 51.7C56.4 45.8 45.8 41.1 54.9 34.8C68.2 25.6 55.6 15.9 60.5 11.6Z" fill="#9181F2"/>
<path d="M27.1 36.8004C20 30.6004 20.4 24.2004 21.4 18.8004H21.2V16.0004H22C22.8 12.5004 23.4 9.60039 21.6 7.50039C19.6 5.30039 18.5 2.50039 17.8 -0.0996094H3.79999C3.09999 0.000390626 2.49999 0.600391 2.59999 1.30039C2.69999 3.60039 3.59999 8.40039 7.19999 11.6004C12.1 15.9004 -0.500006 25.6004 12.7 34.8004C21.9 41.2004 11.2 45.9004 15.3 51.7004C21.4 52.4004 26.2 54.9004 29.2 56.9004C26.6 50.2004 35.7 44.5004 27.1 36.8004Z" fill="#7255CE"/>
<path d="M49.8 36.1004C49.8 36.3004 49.9 36.6004 50.1 36.7004C50.2 36.7004 50.3 36.7004 50.4 36.7004C51.5 36.7004 53.5 37.2004 56.1 38.7004C57.7 39.6004 59.1 40.7004 60 41.8004C60.2 42.0004 60.4 42.2004 60.5 42.4004C60.5 42.3004 60.6 42.0004 61 41.9004C61.3 41.8004 61.6 42.0004 62 42.3004C62 42.3004 62 42.3004 62.1 42.4004C61.9 42.0004 61.6 41.5004 61.2 41.0004C60.2 39.8004 58.7 38.6004 56.9 37.6004C54.5 36.2004 51.9 35.3004 50.1 35.5004C49.8 35.6004 49.8 35.8004 49.8 36.1004Z" fill="#D3DCFB"/>
<path d="M46.7 28.3004C46.3 28.4004 45.9 28.4004 45.7 28.2004C45.4 27.9004 45.4 27.5004 45.4 27.5004C45.4 27.4004 44.5 23.2004 44.5 21.9004C44.5 21.5004 44.6 21.3004 44.8 21.1004C45.2 20.8004 45.6 20.8004 45.9 20.9004C44.7 19.6004 43 18.9004 41.2 18.9004C37.6 18.9004 34.8 21.8004 34.8 25.3004C34.8 28.9004 37.7 31.7004 41.2 31.7004C43.6 31.7004 45.7 30.4004 46.9 28.3004C46.8 28.2004 46.7 28.3004 46.7 28.3004Z" fill="#FFE98D"/>
<path d="M45.7 20.6004C45.7 20.6004 44.3 20.5004 44.3 21.8004C44.3 23.2004 45.2 27.5004 45.2 27.5004C45.2 27.5004 45.1 28.9004 46.7 28.5004C47.3 27.5004 47.6 26.4004 47.6 25.1004C47.7 23.4004 46.9 21.7004 45.7 20.6004Z" fill="#FFF6D2"/>
<path d="M42.1 20.6004C39.9 20.2004 37.6 21.5004 36.9 23.6004C36.4 25.0004 36.7 26.5004 37.5 27.6004C38.1 28.4004 38.2 29.4004 37.9 30.3004L37.8 30.4004C37.9 30.3004 38 30.3004 38.1 30.3004L41 31.1004C41.1 31.1004 41.2 31.2004 41.3 31.3004L41.4 31.2004C41.6 30.3004 42.2 29.5004 43.1 29.1004C44.3 28.5004 45.2 27.5004 45.6 26.2004C46.3 23.8004 44.7 21.1004 42.1 20.6004Z" fill="#FFC839"/>
<path d="M39 28.8002L39.3 25.6002C39.3 25.4002 39.5 25.2002 39.8 25.2002C40 25.2002 40.2 25.4002 40.2 25.7002L39.9 28.9002C39.9 29.1002 39.7 29.3002 39.4 29.3002C39.1 29.3002 38.9 29.0002 39 28.8002Z" fill="#FFDD40"/>
<path d="M41.3 29.5002L42.6 26.6002C42.7 26.4002 42.6 26.1002 42.4 26.0002C42.2 25.9002 41.9 26.0002 41.8 26.2002L40.5 29.1002C40.4 29.3002 40.5 29.6002 40.7 29.7002C41 29.8002 41.3 29.7002 41.3 29.5002Z" fill="#FFE98D"/>
<path d="M39.1 46.8L36.2 40.5C36.1 41.1 35.8 41.5 35.3 41.8L32.7 43L33.6 45.9C33.1 45.8 32.1 45.6 30.9 46.2C29.9 46.7 28.4 47.5 27.2 48C26.1 48.6 25.6 50 26.2 51.2L27.1 53.2C27.2 53.5 27.3 53.8 27.3 54.1L38.3 49C39.1 48.5 39.5 47.5 39.1 46.8Z" fill="#BC6242"/>
<path d="M27.4 52.9002L26.5 50.9002C26 49.9002 26.4 48.6002 27.5 48.0002C28.7 47.4002 30.2 46.6002 31.1 46.2002C32.8 45.4002 34 46.1002 34 46.1002L33 42.7002L18 49.7002C17.4 50.0002 16.9 49.9002 16.4 49.6002L19.3 55.9002C19.7 56.7002 20.6 57.0002 21.4 56.7002L27.6 53.8002C27.6 53.5002 27.5 53.3002 27.4 52.9002Z" fill="#A5533A"/>
<path d="M36.2 39.9007L33.8 34.8007C33.5 34.0007 32.5 33.6007 31.6 34.0007L21.5 38.7007C21.2 39.2007 21.2 39.7007 21.5 40.3007L24 45.8007C24.2 46.3007 24.6 46.6007 25.1 46.8007L35.4 42.0007C36.2 41.7007 36.5 40.7007 36.2 39.9007Z" fill="#E58B6C"/>
<path d="M24.1 45.6006L21.6 40.2006C21.3 39.6006 21.4 39.0006 21.7 38.6006L14.4 42.0006C13.6 42.3006 13.2 43.3006 13.6 44.2006L16 49.3006C16.4 50.1006 17.3 50.5006 18.2 50.1006L25.6 46.7006C24.9 46.5006 24.4 46.2006 24.1 45.6006Z" fill="#D1714B"/>
<path d="M20.4 48.9C19.8 49.2 19.3 49 18.9 48.7L22.2 55.8C22.5 56.5 23.3 56.8 24 56.4C24.7 56.1 25 55.3 24.6 54.6L21.3 47.5C21.3 48.1 20.9 48.7 20.4 48.9Z" fill="#70483D"/>
<path d="M16.3 40.0006C15.5 40.3006 15.2 41.3006 15.6 42.0006L18.5 48.2006C18.9 49.0006 19.8 49.2006 20.5 48.9006C21.2 48.6006 21.6 47.6006 21.2 46.9006L18.3 40.7006C17.9 40.0006 17 39.7006 16.3 40.0006Z" fill="#825648"/>
<path d="M33 43.0006C32.4 43.3006 31.9 43.1006 31.5 42.8006L34.8 49.9006C35.1 50.6006 35.9 50.9006 36.6 50.5006C37.3 50.2006 37.6 49.4006 37.2 48.7006L33.9 41.6006C33.8 42.2006 33.4 42.8006 33 43.0006Z" fill="#70483D"/>
<path d="M28.8 34.1999C28 34.4999 27.7 35.4999 28.1 36.1999L31 42.3999C31.3 43.1999 32.3 43.3999 33 43.0999C33.8 42.7999 34 41.7999 33.7 41.0999L30.8 34.8999C30.5 34.1999 29.6 33.7999 28.8 34.1999Z" fill="#825648"/>
<path d="M27.3 37.6003C26.9 37.8003 26.5 37.6003 26.3 37.3003L25.8 36.2003C25.4 35.2003 24.2 34.8003 23.2 35.3003L20.8 36.4003C19.8 36.8003 19.4 38.0003 19.9 39.0003L20.4 40.0003C20.6 40.3003 20.4 40.8003 20 41.0003C19.7 41.2003 19.2 41.0003 19 40.7003L18.5 39.6003C17.7 37.8003 18.4 35.8003 20.2 35.0003L22.6 33.9003C24.4 33.1003 26.4 33.8003 27.2 35.6003L27.7 36.6003C27.8 37.0003 27.6 37.5003 27.3 37.6003Z" fill="#E9EFFF"/>
<path d="M56.3 8.8C56.2 7.8 55.5 7 54.6 6.8C54.3 6.7 54 6.7 53.8 6.7C53.6 6.7 53.5 6.6 53.4 6.4C53 5 51.6 3.9 49.9 3.9C49.7 3.9 49.6 3.9 49.3 4C49.2 4 48.9 3.9 48.9 3.8C48.3 2.7 47.2 1.8 45.9 1.5C44.7 3 44.5 5.1 45.3 6.9C45.4 7 45.3 7.2 45.2 7.4C44.8 7.7 44.6 8 44.4 8.4C43.9 9.3 43.9 10.4 44.3 11.3H54C55.3 11.2 56.3 10.1 56.3 8.8Z" fill="#D3DCFB"/>
<path d="M44.6 8.2002C44.8 7.8002 45.1 7.5002 45.4 7.2002C45.5 7.1002 45.6 6.9002 45.5 6.7002C44.7 5.0002 44.9 2.9002 46.1 1.4002C45.7 1.3002 45.2 1.2002 44.7 1.2002C42.5 1.2002 40.7 2.6002 40 4.6002C39.9 4.9002 39.8 4.9002 39.6 4.9002C39.2 4.8002 38.8 4.9002 38.3 5.0002C37 5.4002 36.1 6.5002 36.1 7.9002C36 9.7002 37.5 11.2002 39.3 11.2002H44.6C44.2 10.3002 44.2 9.2002 44.6 8.2002Z" fill="#BEC8F7"/>
<path d="M45.1 11.1C44.8 11 44.5 11 44.2 11C44.1 11 43.9 10.9 43.9 10.8C43.5 9.7 42.7 8.9 41.7 8.5C41.4 8.6 41.1 8.9 40.8 9.2C39.8 10.2 39.5 11.6 39.8 12.9C39.8 13 39.8 13.2 39.7 13.3C39.6 13.4 39.5 13.4 39.4 13.6C38.8 14.2 38.6 15 38.6 15.8H44.6C45.9 15.8 47.1 14.7 47 13.3C46.8 12.3 46.1 11.4 45.1 11.1Z" fill="#E9EFFF"/>
<path d="M39.5 13.5002C39.6 13.4002 39.7 13.3002 39.8 13.2002C39.9 13.1002 39.9 13.0002 39.9 12.9002C39.6 11.6002 39.9 10.3002 40.9 9.3002C41.2 9.0002 41.5 8.7002 41.9 8.6002C41.4 8.4002 40.9 8.2002 40.4 8.2002C39 8.2002 37.8 9.0002 37.2 10.0002C37.1 10.1002 37 10.1002 36.9 10.1002C36.8 10.1002 36.6 10.1002 36.5 10.1002C35.2 10.1002 34.2 10.9002 33.8 12.1002C33.7 12.2002 33.7 12.3002 33.5 12.3002C33.3 12.3002 33.1 12.3002 32.9 12.4002C32.2 12.6002 31.7 13.2002 31.6 13.9002C31.5 14.9002 32.3 15.7002 33.2 15.7002H38.6C38.6 15.0002 38.9 14.1002 39.5 13.5002Z" fill="#D3DCFB"/>
<path d="M43.7 46.1008C43.4 46.0008 43.1 46.0008 42.8 46.0008C42.7 46.0008 42.5 45.9008 42.5 45.8008C42.1 44.5008 41 43.6008 39.6 43.3008C39.5 43.4008 39.5 43.4008 39.4 43.4008C38.4 44.4008 38.1 45.8008 38.4 47.0008C38.4 47.1008 38.4 47.2008 38.3 47.3008C38.2 47.4008 38.1 47.4008 38 47.6008C37.2 48.4008 37 49.6008 37.4 50.5008H43.1C44.4 50.5008 45.5 49.4008 45.5 48.1008C45.3 47.2008 44.6 46.3008 43.7 46.1008Z" fill="#E9EFFF"/>
<path d="M38.1 47.7002C38.2 47.6002 38.3 47.5002 38.4 47.4002C38.5 47.3002 38.5 47.2002 38.5 47.1002C38.2 45.8002 38.5 44.5002 39.5 43.5002C39.6 43.4002 39.6 43.4002 39.7 43.3002C39.5 43.2002 39.2 43.2002 38.9 43.2002C37.6 43.2002 36.4 44.0002 35.7 45.0002C35.6 45.1002 35.5 45.1002 35.4 45.1002C35.3 45.1002 35.1 45.1002 35 45.1002C33.7 45.1002 32.7 45.9002 32.4 47.1002C32.3 47.2002 32.3 47.3002 32.1 47.3002C31.9 47.3002 31.7 47.3002 31.5 47.4002C30.8 47.5002 30.3 48.2002 30.2 48.9002C30.1 49.9002 30.9 50.7002 31.8 50.7002H37.5C37.1 49.7002 37.3 48.5002 38.1 47.7002Z" fill="#D3DCFB"/>
<path d="M61.5 52.8004C61.4 52.2004 60.9 51.8004 60.3 51.8004C53.2 50.5004 47.2 52.1004 42.7 54.1004C42.4 54.7004 41.9 56.2004 42.5 57.6004C42.9 58.6004 43.8 59.4004 45.1 59.8004C45 60.1004 44.8 60.7004 45 61.3004C49.4 60.3004 54.2 59.9004 57.8 59.8004C59.3 58.3004 60.7 56.5004 61.9 54.7004L61.5 52.8004Z" fill="#E9EFFF"/>
<path d="M45.3 61.3C45 60.5 45.4 59.7 45.4 59.7C40.8 58.2 43 54 43 54C37.7 56.4 34.5 59.5 34.5 59.5L37.9 63.6C40.1 62.6 42.6 61.9 45.3 61.3Z" fill="#D3DCFB"/>
<path d="M6.89996 51.7999C6.29996 51.8999 5.79996 52.2999 5.69996 52.7999L5.39996 53.9999C6.69996 56.0999 8.19996 58.0999 9.89996 59.7999C15.6 60.1999 24 61.0999 29.1 63.5999L32.6 59.4999C32.6 59.4999 22.2 48.9999 6.89996 51.7999Z" fill="#D3DCFB"/>
<path d="M32.2 66.3006C32.9 67.3006 34.5 67.3006 35.2 66.3006C36.1 65.0006 37.2 64.0006 38.6 63.1006C38.3 60.6006 36.2 58.6006 33.7 58.6006C31.2 58.6006 29.1 60.6006 28.8 63.1006C30.1 63.9006 31.3 65.0006 32.2 66.3006Z" fill="#BEC8F7"/>
<path d="M15.3 58.7005C13 58.6005 10.7 58.6005 8.70001 58.8005C9.80001 59.9005 10.8 61.0005 12 62.0005C16.7 61.9005 22.4 62.6005 26.7 65.3005C27.4 64.4005 28.2 63.5005 29.2 62.9005C29.1 62.8005 29 62.8005 28.9 62.7005C25.4 60.3005 20.8 58.9005 15.3 58.7005Z" fill="#FFC839"/>
<path d="M52.3 58.7008C49.6 58.8008 47.2 59.3008 45 59.9008H45.1C45 60.3008 44.8 60.9008 45.1 61.5008C45.3 62.1008 45.9 62.5008 46.6 62.9008C49.6 62.1008 52.8 61.9008 55.6 61.9008C56.8 60.9008 57.8 59.8008 58.9 58.7008C57 58.5008 54.7 58.5008 52.3 58.7008Z" fill="#FFDD40"/>
<path d="M47 62.8002C44.3 61.9002 45.3 59.8002 45.4 59.7002C42.9 60.4002 40.6 61.4002 38.8 62.6002C38.7 62.7002 38.5 62.8002 38.4 62.9002C39.4 63.5002 40.2 64.3002 40.9 65.3002C42.7 64.1002 44.8 63.3002 47 62.8002Z" fill="#FFC839"/>
<path d="M38.5 62.8002C37.2 63.6002 36.2 64.7002 35.4 65.9002C34.7 66.9002 33.1 66.9002 32.4 65.9002C31.6 64.6002 30.4 63.6002 29.1 62.7002C28.1 63.3002 27.3 64.2002 26.6 65.1002C26.8 65.2002 27 65.3002 27.2 65.4002C28.2 66.1002 29.1 66.9002 29.7 67.8002C31.7 70.7002 36.1 70.7002 38.2 67.8002C38.8 66.9002 39.7 66.0002 40.7 65.4002C40.8 65.3002 40.9 65.3002 41.1 65.2002C40.3 64.3002 39.5 63.4002 38.5 62.8002Z" fill="#FFB332"/>
<path d="M42.3 27.4006L39.1 26.6006C38.9 26.5006 38.8 26.3006 38.8 26.0006C38.9 25.8006 39.1 25.6006 39.4 25.6006L42.6 26.4006C42.8 26.5006 42.9 26.7006 42.9 27.0006C42.8 27.3006 42.5 27.4006 42.3 27.4006Z" fill="#FFF6D2"/>
<path d="M40.9 29.0003L39.5 28.7003C39.1 28.6003 38.8 28.8003 38.7 29.2003L38.4 30.6003L41.1 31.3003L41.5 29.9003C41.5 29.5003 41.3 29.2003 40.9 29.0003Z" fill="#FFE98D"/>
<path d="M40.2 34.0004L37.7 33.4004L37.6 33.9004C37.5 34.5004 37.9 35.1004 38.5 35.3004C39.1 35.4004 39.8 35.2004 40 34.5004L40.2 34.0004Z" fill="#9181F2"/>
<path d="M41.2 31.1008L40.4 30.8008C40 30.9008 39.6 31.4008 39.6 31.9008L39.4 33.0008C39.3 33.3008 39.5 33.8008 39.7 34.0008L40.2 34.1008C40.5 34.2008 40.8 34.0008 40.8 33.8008L41.6 31.8008C41.7 31.5008 41.6 31.1008 41.2 31.1008Z" fill="#E9EFFF"/>
<path d="M39.4 32.9002L39.5 31.8002C39.6 31.3002 39.9 30.9002 40.4 30.7002L38.2 30.1002C37.9 30.0002 37.6 30.2002 37.5 30.5002L37.2 32.6002C37.1 32.9002 37.3 33.2002 37.6 33.2002L39.7 33.8002C39.5 33.7002 39.3 33.3002 39.4 32.9002Z" fill="#D3DCFB"/>
<path d="M26.1 9.20012C25.8 9.30012 25.5 9.30012 25.1 9.20012C23.7 9.10012 22.4 8.20012 21.7 7.00012C21.3 6.90012 19.8 6.60012 19.5 8.40012C20.2 9.60012 21.5 10.4001 22.9 10.6001C24.2 10.7001 25.4 10.3001 26.3 9.50012C26.4 9.40012 26.2 9.20012 26.1 9.20012Z" fill="#FFDD40"/>
<path d="M27.1 2.90013L27.3 3.30013C27.3 3.40013 27.4 3.40013 27.4 3.40013H27.8C27.9 3.40013 28 3.60013 27.9 3.70013L27.6 4.00013C27.6 4.10013 27.5 4.10013 27.6 4.20013L27.7 4.60013C27.7 4.70013 27.6 4.90013 27.4 4.80013L27 4.60013C26.9 4.60013 26.9 4.60013 26.8 4.60013L26.4 5.00013C26.3 5.10013 26 4.90013 26.1 4.80013L26.2 4.40013C26.2 4.30013 26.2 4.30013 26.1 4.20013L25.8 3.90013C25.7 3.80013 25.7 3.60013 25.9 3.60013L26.3 3.50013C26.4 3.50013 26.4 3.40013 26.4 3.40013L26.6 3.00013C26.9 2.70013 27.1 2.70013 27.1 2.90013Z" fill="#FFE98D"/>
<path d="M29 26.2999L29.4 26.9999C29.5 27.0999 29.6 27.1999 29.8 27.2999L30.6 27.3999C31 27.4999 31.2 27.9999 30.9 28.1999L30.3 28.6999C30.2 28.7999 30.2 28.9999 30.2 29.0999L30.3 29.8999C30.4 30.2999 30 30.5999 29.6 30.3999L28.7 29.9999C28.6 29.8999 28.4 29.8999 28.3 29.9999L27.6 30.3999C27.3 30.5999 26.8 30.2999 26.9 29.8999L27 29.0999C27 28.9999 27 28.7999 26.9 28.6999L26.3 28.0999C26 27.7999 26.2 27.2999 26.6 27.2999L27.4 27.1999C27.5 27.1999 27.7 27.0999 27.8 26.8999L28.2 26.1999C28.3 25.9999 28.8 25.9999 29 26.2999Z" fill="#FFE98D"/>
<path d="M54.6 14.5004L54.9 15.1004C55 15.2004 55.1 15.3004 55.2 15.3004L55.9 15.4004C56.3 15.5004 56.4 15.9004 56.1 16.1004L55.7 16.6004C55.6 16.7004 55.6 16.8004 55.6 17.0004L55.7 17.7004C55.8 18.0004 55.4 18.3004 55.1 18.1004L54.5 17.7004C54.4 17.6004 54.2 17.6004 54.1 17.7004L53.5 18.1004C53.2 18.2004 52.9 18.0004 52.9 17.7004L53 17.0004C53 16.9004 53 16.7004 52.9 16.6004L52.4 16.1004C52.1 15.9004 52.3 15.5004 52.6 15.4004L53.3 15.3004C53.4 15.3004 53.6 15.2004 53.6 15.1004L53.9 14.5004C54 14.2004 54.5 14.2004 54.6 14.5004Z" fill="#9BD8F9"/>
<path d="M55.3 38.4004C55.4 38.6004 55.4 38.8004 55.6 39.0004C55.5 39.2004 55.2 39.6004 55.2 40.0004C55.2 40.4004 55.3 40.7004 55.6 41.0004C56.7 41.1004 57.8 42.0004 58.5 42.6004C59.1 41.9004 59.4 41.0004 59.4 40.0004C59.4 39.6004 59.3 39.2004 59.3 38.8004C58 39.3004 56.4 39.5004 55.3 38.4004Z" fill="#FFC839"/>
<path d="M55.9 41.2008C55.8 41.1008 55.8 41.1008 55.8 41.0008C54.9 40.1008 55.9 39.1008 55.9 39.1008C55.8 39.0008 55.8 38.8008 55.7 38.7008C55.6 38.6008 55.5 38.5008 55.3 38.4008C54.3 37.4008 53.3 37.0008 52.5 36.8008C51.5 37.6008 50.9 38.8008 50.9 40.2008C50.9 40.6008 51 41.1008 51.1 41.5008C51.9 41.7008 53.1 41.8008 54.5 41.3008C54.9 41.0008 55.4 41.0008 55.9 41.2008Z" fill="#FFB332"/>
<path d="M52.3 43.3006C52.9 43.3006 53.4 43.2006 54.1 42.9006C55.3 42.5006 56.4 43.0006 57.3 43.7006C57.8 43.4006 58.2 43.0006 58.6 42.5006C57.8 41.7006 56.1 40.3006 54.5 41.0006C53.1 41.5006 51.9 41.3006 51.1 41.2006C51.2 42.1006 51.7 42.8006 52.3 43.3006Z" fill="#9181F2"/>
<path d="M54.1 42.8003C53.4 43.0003 52.8 43.1003 52.2 43.1003C53 43.8003 54 44.3003 55.1 44.3003C55.9 44.3003 56.7 44.1003 57.3 43.7003C56.5 43.0003 55.3 42.4003 54.1 42.8003Z" fill="#816AE2"/>
<path d="M56.3 36C56 36.2 55.4 36.7 55.2 37.5C55.1 38 55.1 38.4 55.4 38.9C56.5 39.7 58.1 39.4 59.1 39C58.8 37.6 57.7 36.5 56.3 36Z" fill="#FFE98D"/>
<path d="M55.8 39.1004C54.6 37.3004 56.6 36.2004 56.6 36.2004C56.1 36.0004 55.6 35.9004 55.1 35.9004C54 35.9004 53 36.3004 52.2 37.0004C53 37.2004 54.1 37.6004 55.1 38.6004C55.3 38.8004 55.6 39.0004 55.8 39.1004Z" fill="#FFDD40"/>
<path d="M51.5 37.9004C51.1 38.5004 50.9 39.3004 50.9 40.1004V40.2004C51 40.2004 51 40.2004 51 40.2004C52.5 40.5004 53.8 40.2004 53.9 39.6004C54 39.0004 53 38.2004 51.5 37.9004Z" fill="#FF9100"/>
<path d="M61.7 41.9C60.9 41.4 60.4 42 60.3 42.2C60.8 42.9 60.9 43.5 60.8 43.7C60.4 44.3 57.9 44.2 54.1 42.1C50.3 40 49 37.7 49.3 37.1C49.4 36.9 49.8 36.8 50.3 36.8C49.7 36.4 49.9 35.8 50.1 35.5C49.2 35.6 48.5 35.9 48.1 36.5C47.1 38.4 49.9 41.3 53.3 43.3C55.5 44.6 57.8 45.4 59.6 45.4C60.6 45.4 61.4 45.1 61.8 44.4C62.3 43.8 62.4 43 61.7 41.9Z" fill="#E9EFFF"/>
<path d="M64.7 18.2004C66.3016 18.2004 67.6 16.902 67.6 15.3004C67.6 13.6988 66.3016 12.4004 64.7 12.4004C63.0984 12.4004 61.8 13.6988 61.8 15.3004C61.8 16.902 63.0984 18.2004 64.7 18.2004Z" fill="#816AE2"/>
<path d="M66.6 14.6008C66.6 15.4008 66 15.9008 65.3 15.9008C64.5 15.9008 64 15.3008 64 14.6008C64 13.8008 64.6 13.3008 65.3 13.3008C66 13.3008 66.6 13.9008 66.6 14.6008Z" fill="#9181F2"/>
<path d="M7.79998 46.5004C10.6719 46.5004 13 44.1275 13 41.2004C13 38.2733 10.6719 35.9004 7.79998 35.9004C4.9281 35.9004 2.59998 38.2733 2.59998 41.2004C2.59998 44.1275 4.9281 46.5004 7.79998 46.5004Z" fill="#7255CE"/>
<path d="M8.99999 42.1002C10.215 42.1002 11.2 41.1152 11.2 39.9002C11.2 38.6852 10.215 37.7002 8.99999 37.7002C7.78496 37.7002 6.79999 38.6852 6.79999 39.9002C6.79999 41.1152 7.78496 42.1002 8.99999 42.1002Z" fill="#816AE2"/>
<path d="M18.2 28.8006C15.9 28.8006 14.6 24.5006 14.6 20.2006C14.6 15.9006 15.8 11.6006 18.2 11.6006C20.6 11.6006 21.8 15.9006 21.8 20.2006C21.8 24.5006 20.5 28.8006 18.2 28.8006ZM18.2 13.2006C17.5 13.2006 16.1 15.7006 16.1 20.3006C16.1 24.9006 17.5 27.4006 18.2 27.4006C18.9 27.4006 20.3 24.9006 20.3 20.3006C20.3 15.7006 18.9 13.2006 18.2 13.2006Z" fill="#FB7AC0"/>
<path d="M23.2 25.6C21.3 25.6 18.7 24.7 16.4 23.3C12.7 21.2 9.49997 18 10.7 15.9C11.9 13.8 16.2 15 19.9 17.2C21.8 18.3 23.4 19.6 24.5 20.8C26.1 22.7 26 23.9 25.5 24.5C25.2 25.3 24.3 25.6 23.2 25.6ZM13.1 16.4C12.5 16.4 12.1 16.5 12 16.8C11.7 17.4 13.1 19.9 17.1 22.1C21.1 24.4 24 24.5 24.3 23.9C24.4 23.6 24.2 22.9 23.4 21.9C22.4 20.8 21 19.6 19.2 18.5C16.5 16.9 14.3 16.4 13.1 16.4Z" fill="#FC90CE"/>
<path d="M13.1 25.6006C12 25.6006 11.1 25.2006 10.7 24.6006C9.49997 22.6006 12.7 19.4006 16.4 17.2006C20.1 15.0006 24.5 14.0006 25.6 15.9006C26 16.5006 26.1 17.7006 24.5 19.6006C23.5 20.9006 21.8 22.2006 19.9 23.2006C17.6 24.6006 15 25.6006 13.1 25.6006ZM23.2 16.4006C21.9 16.4006 19.8 17.0006 17.1 18.5006C13.1 20.8006 11.6 23.3006 12 23.8006C12.4 24.4006 15.2 24.4006 19.2 22.0006C21 21.0006 22.4 19.8006 23.4 18.6006C24.2 17.6006 24.4 16.8006 24.3 16.6006C24.2 16.5006 23.9 16.4006 23.2 16.4006Z" fill="#FCB1DF"/>
<path d="M43 25.1C43.718 25.1 44.3 24.518 44.3 23.8C44.3 23.082 43.718 22.5 43 22.5C42.282 22.5 41.7 23.082 41.7 23.8C41.7 24.518 42.282 25.1 43 25.1Z" fill="#FFDD40"/>
<path d="M21.8 7.10079C21.4 6.50079 21.2 5.80079 21.2 5.10079C21.1 4.20079 21.4 3.30079 21.8 2.50079C21.9 2.40079 21.7 2.10079 21.5 2.20079C19.9 2.90079 18.8 4.60079 18.9 6.50079C19 7.20079 19.2 7.90079 19.5 8.50079C19.9 6.50079 21.8 7.10079 21.8 7.10079Z" fill="#FFB332"/>
</svg>
