<svg width="70" height="62" viewBox="0 0 70 62" fill="none" xmlns="http://www.w3.org/2000/svg">
<path d="M19.0001 47.8994L11.2001 55.6994L5.70007 50.1994L13.5001 42.3994L19.0001 47.8994Z" fill="#B75F25"/>
<path d="M19.0001 47.8994L11.2001 55.6994L5.70007 50.1994L6.80007 49.0994L10.1001 52.3994C10.7001 52.9994 11.6001 52.9994 12.2001 52.3994L15.8001 48.8994C16.4001 48.2994 16.4001 47.3994 15.8001 46.7994L12.5001 43.4994L13.6001 42.3994L19.0001 47.8994Z" fill="#AA5821"/>
<path d="M60.3 8.39963L44.7 25.1996L34 36.6996L25.6 45.6996L21.6 49.9996L11.5 39.8996L15.8 35.8996L25.2 27.1996L36.1 17.0996L53.1 1.19963C54.6 -0.200374 56.2 0.599626 59.1 0.599626C60 0.699626 60.7 1.39963 60.8 2.29963C60.8 5.19963 61.7 6.79963 60.3 8.39963Z" fill="#D0D0F7"/>
<path d="M44.7001 25.1996L34.0001 36.6996L25.2001 27.1996L36.1001 17.0996L44.7001 25.1996Z" fill="#C2C2EF"/>
<path d="M21.6001 49.9992L20.2001 48.5992L23.6001 44.9992L58.3001 7.69922C59.7001 6.19922 58.9001 4.49922 58.9001 1.69922C58.9001 1.29922 58.8001 0.999219 58.5001 0.699219H59.0001C59.9001 0.799219 60.6001 1.49922 60.7001 2.39922C60.7001 5.09922 61.5001 6.89922 60.1001 8.39922L25.6001 45.6992L21.6001 49.9992Z" fill="#C2C2EF"/>
<path d="M21.6 49.9994L11.5 39.8994L15.8 35.8994L16.4 36.4994C16.5 36.5994 16.5 36.5994 16.7 36.5994L21.4 36.9994C23.1 37.1994 24.5 38.4994 24.6 40.1994L25 44.8994C25 44.9994 25.1 45.0994 25.1 45.1994L25.7 45.7994L21.6 49.9994Z" fill="#D0D0F7"/>
<path d="M17.2 44.3992C16.8 43.9992 16.8 43.2992 17.2 42.8992L51 8.99922C51.4 8.59922 52.1 8.59922 52.5 8.99922C52.9 9.39922 52.9 10.0992 52.5 10.4992L18.8 44.3992C18.3 44.7992 17.6 44.7992 17.2 44.3992Z" fill="#C2C2EF"/>
<path d="M29.7001 55.3998C28.2001 56.8998 25.8001 56.8998 24.3001 55.3998C23.5001 54.5998 23.1001 53.3998 23.2001 52.1998L9.40007 38.2998C8.30007 38.3998 7.10007 38.0998 6.20007 37.1998C4.70007 35.6998 4.70007 33.2998 6.20007 31.7998C7.70007 30.2998 10.1001 30.2998 11.6001 31.7998C12.4001 32.5998 12.8001 33.7998 12.7001 34.9998L15.3001 37.5998C15.7001 37.9998 16.1001 38.1998 16.6001 38.1998L21.3001 38.5998C22.3001 38.6998 23.1001 39.3998 23.1001 40.3998L23.5001 45.0998C23.6001 45.5998 23.8001 45.9998 24.1001 46.3998L26.7001 48.9998C27.8001 48.8998 29.0001 49.1998 29.9001 50.0998C31.2001 51.3998 31.3001 53.7998 29.7001 55.3998Z" fill="#F9B938"/>
<path d="M29.7001 55.3998C28.2001 56.8998 25.8001 56.8998 24.3001 55.3998C23.5001 54.5998 23.1001 53.3998 23.2001 52.1998L9.40007 38.2998C8.30007 38.3998 7.10007 38.0998 6.20007 37.1998C4.70007 35.6998 4.70007 33.2998 6.20007 31.7998C6.40007 31.5998 6.60007 31.3998 6.80007 31.2998C5.90007 32.5998 5.90007 34.4998 6.90007 35.6998C7.50007 36.5998 8.40007 37.0998 9.40007 37.1998C10.1001 37.2998 10.7001 37.5998 11.2001 37.9998L23.5001 50.2998C24.0001 50.7998 24.3001 51.3998 24.4001 52.0998C24.5001 53.0998 25.0001 53.9998 25.9001 54.6998C27.2001 55.5998 29.0001 55.5998 30.2001 54.7998C30.1001 54.8998 30.0001 55.1998 29.7001 55.3998Z" fill="#ECB021"/>
<path d="M27.0001 54.9994C28.2703 54.9994 29.3001 53.9697 29.3001 52.6994C29.3001 51.4292 28.2703 50.3994 27.0001 50.3994C25.7298 50.3994 24.7001 51.4292 24.7001 52.6994C24.7001 53.9697 25.7298 54.9994 27.0001 54.9994Z" fill="#FC6559"/>
<path d="M8.9001 36.7992C10.1704 36.7992 11.2001 35.7695 11.2001 34.4992C11.2001 33.229 10.1704 32.1992 8.9001 32.1992C7.62984 32.1992 6.6001 33.229 6.6001 34.4992C6.6001 35.7695 7.62984 36.7992 8.9001 36.7992Z" fill="#FC6559"/>
<path d="M29.3001 53.2994C29.2001 52.8994 29.0001 52.5994 28.7001 52.2994C27.8001 51.3994 26.3001 51.3994 25.5001 52.2994C25.2001 52.5994 25.0001 52.8994 24.9001 53.3994C24.7001 52.5994 24.9001 51.6994 25.5001 51.1994C26.4001 50.2994 27.9001 50.2994 28.8001 51.1994C29.3001 51.6994 29.5001 52.4994 29.3001 53.2994Z" fill="#F05543"/>
<path d="M11.1001 35.0996C11.0001 34.6996 10.8001 34.3996 10.5001 34.0996C9.60009 33.1996 8.10009 33.1996 7.20009 34.0996C6.90009 34.3996 6.70009 34.6996 6.60009 35.0996C6.30009 34.2996 6.50009 33.4996 7.20009 32.8996C8.10009 31.9996 9.60009 31.9996 10.5001 32.8996C11.1001 33.3996 11.3001 34.2996 11.1001 35.0996Z" fill="#F05543"/>
<path d="M11.3 55.6993L5.80005 50.1993C4.30005 50.0993 2.80005 50.6993 1.70005 51.7993C-0.499951 53.9993 -0.499951 57.4993 1.70005 59.7993C3.90005 61.9993 7.40005 61.9993 9.70005 59.7993C10.8 58.6993 11.3 57.2993 11.3 55.6993Z" fill="#F9B938"/>
<path d="M9.60001 59.8998C7.40001 62.0998 3.90001 62.0998 1.70001 59.8998C0.200012 58.3998 -0.299988 56.2998 0.300012 54.2998C0.300012 55.6998 0.900012 57.1998 2.00001 58.1998C4.20001 60.3998 7.70001 60.3998 10 58.1998C10.7 57.4998 11.1 56.6998 11.4 55.8998C11.3 57.3998 10.7 58.7998 9.60001 59.8998Z" fill="#ECB021"/>
<path d="M5.60007 59.3C7.47784 59.3 9.00007 57.7778 9.00007 55.9C9.00007 54.0222 7.47784 52.5 5.60007 52.5C3.7223 52.5 2.20007 54.0222 2.20007 55.9C2.20007 57.7778 3.7223 59.3 5.60007 59.3Z" fill="#FC6559"/>
<path d="M9.00002 56.6994C8.90002 56.0994 8.60002 55.4994 8.10002 55.0994C6.80002 53.7994 4.60002 53.7994 3.30002 55.0994C2.90002 55.4994 2.50002 56.0994 2.40002 56.6994C2.10002 55.5994 2.50002 54.3994 3.30002 53.4994C4.60002 52.1994 6.80002 52.1994 8.10002 53.4994C8.90002 54.3994 9.20002 55.5994 9.00002 56.6994Z" fill="#F05543"/>
<path d="M51.0001 47.8994L58.8001 55.6994L64.3001 50.1994L56.5001 42.3994L51.0001 47.8994Z" fill="#B75F25"/>
<path d="M51.0001 47.9L58.8001 55.7L64.3001 50.2L63.2001 49.1L59.9001 52.4C59.3001 53 58.4001 53 57.8001 52.4L54.2001 49C53.6001 48.4 53.6001 47.5 54.2001 46.9L57.5001 43.6L56.4001 42.5L51.0001 47.9Z" fill="#AA5821"/>
<path d="M48.4001 49.9996L58.5001 39.8996L54.2001 35.8996L16.9001 1.19963C15.4001 -0.200374 13.8001 0.599626 10.9001 0.599626C10.0001 0.699626 9.30009 1.39963 9.20009 2.39963C9.20009 5.09963 8.40009 6.89963 9.80009 8.39963L44.4001 45.7996L48.4001 49.9996Z" fill="#E4E3FF"/>
<path d="M48.4001 49.9996L49.8001 48.5996C29.8001 27.0996 17.2001 13.4996 11.7001 7.59961C10.3001 6.09961 11.1001 4.39961 11.1001 1.59961C11.1001 1.19961 11.2001 0.899609 11.5001 0.599609L10.9001 0.699609C10.0001 0.799609 9.30009 1.49961 9.20009 2.39961C9.20009 5.09961 8.40009 6.89961 9.80009 8.39961L44.4001 45.6996L48.4001 49.9996Z" fill="#D0D0F7"/>
<path d="M48.4001 49.9994L58.5001 39.8994L54.2001 35.8994L53.6001 36.4994C53.5001 36.5994 53.5001 36.5994 53.3001 36.5994L48.7001 36.9994C47.0001 37.1994 45.6001 38.4994 45.5001 40.1994L45.0001 44.8994C45.0001 44.9994 44.9001 45.0994 44.9001 45.1994L44.4001 45.6994L48.4001 49.9994Z" fill="#D0D0F7"/>
<path d="M51.2001 44.3992L17.4001 10.4992C17.0001 10.0992 17.0001 9.39922 17.4001 8.99922C17.8001 8.59922 18.5001 8.59922 18.9001 8.99922L52.7001 42.7992C53.1001 43.1992 53.1001 43.8992 52.7001 44.2992C52.4001 44.7992 51.7001 44.7992 51.2001 44.3992Z" fill="#D0D0F7"/>
<path d="M40.3001 55.3998C41.8001 56.8998 44.2001 56.8998 45.7001 55.3998C46.5001 54.5998 46.9001 53.3998 46.8001 52.1998L60.7001 38.2998C61.8001 38.3998 63.0001 38.0998 63.9001 37.1998C65.4001 35.6998 65.4001 33.2998 63.9001 31.7998C62.4001 30.2998 60.0001 30.2998 58.5001 31.7998C57.7001 32.5998 57.3001 33.7998 57.4001 34.9998L54.8001 37.5998C54.4001 37.9998 54.0001 38.1998 53.5001 38.1998L48.8001 38.5998C47.8001 38.6998 47.0001 39.3998 47.0001 40.3998L46.6001 44.9998C46.5001 45.4998 46.3001 45.8998 46.0001 46.2998L43.4001 48.8998C42.3001 48.7998 41.1001 49.0998 40.2001 49.9998C38.8001 51.3998 38.7001 53.7998 40.3001 55.3998Z" fill="#F9B938"/>
<path d="M40.3001 55.3998C41.8001 56.8998 44.2001 56.8998 45.7001 55.3998C46.5001 54.5998 46.9001 53.3998 46.8001 52.1998L60.7001 38.2998C61.8001 38.3998 63.0001 38.0998 63.9001 37.1998C65.4001 35.6998 65.4001 33.2998 63.9001 31.7998C63.7001 31.5998 63.5001 31.3998 63.3001 31.2998C64.2001 32.5998 64.2001 34.4998 63.2001 35.6998C62.6001 36.5998 61.7001 37.0998 60.7001 37.1998C60.0001 37.2998 59.4001 37.5998 58.9001 37.9998L46.6001 50.2998C46.1001 50.7998 45.8001 51.3998 45.7001 52.0998C45.6001 53.0998 45.1001 53.9998 44.2001 54.6998C42.9001 55.5998 41.1001 55.5998 39.9001 54.7998C39.9001 54.8998 40.0001 55.1998 40.3001 55.3998Z" fill="#ECB021"/>
<path d="M42.9001 54.8998C44.1704 54.8998 45.2001 53.8701 45.2001 52.5998C45.2001 51.3295 44.1704 50.2998 42.9001 50.2998C41.6298 50.2998 40.6001 51.3295 40.6001 52.5998C40.6001 53.8701 41.6298 54.8998 42.9001 54.8998Z" fill="#FC6559"/>
<path d="M61.1 36.6996C62.3703 36.6996 63.4001 35.6699 63.4001 34.3996C63.4001 33.1294 62.3703 32.0996 61.1 32.0996C59.8298 32.0996 58.8 33.1294 58.8 34.3996C58.8 35.6699 59.8298 36.6996 61.1 36.6996Z" fill="#FC6559"/>
<path d="M42.0001 54.7002C41.8001 54.4002 41.6001 54.0002 41.6001 53.6002C41.5001 52.3002 42.4001 51.2002 43.7001 51.1002C44.1001 51.0002 44.5001 51.2002 44.9001 51.3002C44.5001 50.6002 43.6001 50.2002 42.8001 50.2002C41.5001 50.3002 40.6001 51.4002 40.7001 52.7002C40.7001 53.7002 41.2001 54.5002 42.0001 54.7002Z" fill="#F05543"/>
<path d="M60.1001 36.5C59.9001 36.2 59.7001 35.8 59.7001 35.4C59.6001 34.1 60.5001 33 61.8001 32.9C62.2001 32.9 62.6001 33 62.9001 33.1C62.5001 32.4 61.7001 32 60.8001 32C59.5001 32.1 58.6001 33.2 58.7001 34.5C58.9001 35.5 59.4001 36.2 60.1001 36.5Z" fill="#F05543"/>
<path d="M58.7001 55.6993L64.2001 50.1993C65.7001 50.0993 67.2001 50.6993 68.3001 51.7993C70.5001 53.9993 70.5001 57.4993 68.3001 59.7993C66.1001 61.9993 62.6001 61.9993 60.3001 59.7993C59.2001 58.6993 58.7001 57.2993 58.7001 55.6993Z" fill="#F9B938"/>
<path d="M60.4001 59.8998C62.6001 62.0998 66.1001 62.0998 68.3001 59.8998C69.8001 58.3998 70.3001 56.2998 69.7001 54.2998C69.7001 55.6998 69.1001 57.1998 68.0001 58.1998C65.8001 60.3998 62.3001 60.3998 60.0001 58.1998C59.3001 57.4998 58.9001 56.6998 58.6001 55.8998C58.7001 57.3998 59.3001 58.7998 60.4001 59.8998Z" fill="#ECB021"/>
<path d="M64.4001 59.3C66.2779 59.3 67.8001 57.7778 67.8001 55.9C67.8001 54.0222 66.2779 52.5 64.4001 52.5C62.5224 52.5 61.0001 54.0222 61.0001 55.9C61.0001 57.7778 62.5224 59.3 64.4001 59.3Z" fill="#FC6559"/>
<path d="M62.9001 58.8995C62.5001 58.3995 62.3001 57.7995 62.2001 57.0995C62.1001 55.1995 63.4001 53.5995 65.3001 53.3995C65.9001 53.2995 66.6001 53.4995 67.1001 53.7995C66.4001 52.8995 65.3001 52.2995 64.1001 52.4995C62.2001 52.5995 60.8001 54.2995 61.0001 56.1995C61.1001 57.3995 61.8001 58.3995 62.9001 58.8995Z" fill="#F05543"/>
<g opacity="0.4">
<path d="M47.6 32.3991C47.3 32.6991 46.9 32.7991 46.5 32.4991L44.7 30.7991C44.4 30.4991 44.3 29.9991 44.6 29.6991C44.9 29.3991 45.3 29.2991 45.7 29.5991L47.5 31.2991C47.9 31.5991 47.9 32.0991 47.6 32.3991Z" fill="white"/>
<path d="M43.9 27.9993C44.2 28.2993 44.3 28.7993 44 29.0993C43.7 29.3993 43.3 29.4993 42.9 29.1993L35.6 22.4993C35.3 22.1993 35.2 21.7993 35.5 21.3993C35.8 21.0993 36.2 20.9993 36.6 21.2993L43.9 27.9993Z" fill="white"/>
</g>
<g opacity="0.3">
<path d="M23.8001 48.8992L22.8001 47.8992C22.5001 47.5992 22.5001 47.0992 22.8001 46.7992C23.1001 46.4992 23.6001 46.4992 23.9001 46.7992L24.9001 47.7992C25.2001 48.0992 25.2001 48.5992 24.9001 48.8992C24.6001 49.1992 24.1001 49.1992 23.8001 48.8992Z" fill="white"/>
</g>
<g opacity="0.3">
<path d="M21.1001 46.1992L16.3001 41.3992C16.0001 41.0992 16.0001 40.5992 16.3001 40.2992C16.6001 39.9992 17.1001 39.9992 17.4001 40.2992L22.2001 45.0992C22.5001 45.3992 22.5001 45.8992 22.2001 46.1992C21.8001 46.4992 21.3001 46.4992 21.1001 46.1992Z" fill="white"/>
</g>
<g opacity="0.3">
<path d="M60.9001 49.3992L60.4001 48.8992C60.2001 48.6992 60.2001 48.2992 60.4001 48.0992C60.6001 47.8992 61.0001 47.8992 61.2001 48.0992L61.7001 48.5992C61.9001 48.7992 61.9001 49.1992 61.7001 49.3992C61.5001 49.6992 61.1001 49.5992 60.9001 49.3992Z" fill="white"/>
</g>
<g opacity="0.3">
<path d="M59.3001 47.7997L57.1001 45.5997C56.9001 45.3997 56.9001 44.9997 57.1001 44.7997C57.3001 44.4997 57.7001 44.5997 57.9001 44.7997L60.1001 46.9997C60.3001 47.1997 60.3001 47.5997 60.1001 47.7997C59.9001 47.9997 59.5001 47.9997 59.3001 47.7997Z" fill="white"/>
</g>
</svg>
