<svg width="70" height="70" viewBox="0 0 70 70" fill="none" xmlns="http://www.w3.org/2000/svg">
<path d="M70 34.9999L69.2 35.8999C65.1 41.1999 60.1 45.4999 54.6 48.7999C52.8 49.8999 50.9 50.8999 48.9 51.6999C35.1 57.8999 18.9 58.2999 4.3 51.8999C1.6 46.9999 0 41.1999 0 34.9999V34.8999C0 15.4999 16 -0.200063 35.3 -6.32866e-05C42 0.0999367 48.2 1.99994 53.5 5.29994L70 34.9999Z" fill="#DB7158"/>
<path d="M70 34.9996L69.2 35.8996C53.8 55.3996 27.1 61.9996 4.3 51.8996C2.9 49.3996 1.8 46.6996 1.1 43.8996C0.4 41.0996 0 38.0996 0 34.9996C0 28.6996 1.7 22.7996 4.6 17.5996C10.6 28.0996 22 35.2996 35 35.2996C46.2 35.2996 56.2 29.9996 62.6 21.7996L70 34.9996Z" fill="#C55733"/>
<path d="M50.8 52.6006L43.5 68.9006C40.8 69.6006 38 69.9006 35 69.9006C27.6 69.9006 20.7 67.6006 15.1 63.7006C12.8 62.1006 10.8 60.3006 8.9 58.2006C7.2 56.3006 5.8 54.2006 4.5 52.0006L12 35.2006C12.4 34.3006 13.5 33.9006 14.4 34.3006L49.9 50.2006C50.7 50.5006 51.2 51.7006 50.8 52.6006Z" fill="#DFEBFF"/>
<path d="M14.4 34.3006L49.9 50.2006C50.8 50.6006 51.2 51.7006 50.8 52.6006L45.8 63.9006L6.90002 46.5006L11.9 35.2006C12.3 34.3006 13.4 33.9006 14.4 34.3006Z" fill="#C4DCF7"/>
<path d="M28.7001 50.0002C29.5001 50.3002 30.2 51.0002 30.4 51.9002L32.7001 58.1002L26.4 60.5002C25.6 60.8002 24.7 60.8002 23.9 60.4002C23.1 60.1002 22.4001 59.4002 22.2001 58.5002C21.9001 57.7002 21.9 56.8002 22.3 56.0002C22.6 55.2002 23.3001 54.5002 24.2001 54.3002C23.6001 52.6002 24.4001 50.6002 26.2001 50.0002C27.0001 49.6002 27.9001 49.6002 28.7001 50.0002Z" fill="#FF3D3B"/>
<path d="M28.7001 50.0002C29.5001 50.3002 30.2001 51.0002 30.4001 51.9002L32.7001 58.1002L24.1001 54.3002C23.5001 52.6002 24.3001 50.6002 26.1001 50.0002C27.0001 49.6002 27.9001 49.6002 28.7001 50.0002Z" fill="#E82E2E"/>
<path d="M43.7 46.5001L43.1 48.3001L43.3 48.4001C43.6 48.6001 43.6 49.0001 43.6 49.2001C43.5 49.8001 42.8 50.0001 42.3 49.6001L39.3 47.2001C39 47.0001 39 46.6001 39 46.4001L39.2 45.8001C39.3 45.5001 39.5 45.2001 39.9 45.2001L43.7 44.8001C44.3 44.7001 44.7 45.3001 44.5 45.8001V45.9001C44.4 46.2001 44.2 46.5001 43.8 46.5001H43.7ZM42.5 46.5001L40.9 46.6001L42.2 47.5001L42.5 46.5001Z" fill="#E82E2E"/>
<path d="M70 34.9998C70 40.9998 68.5001 46.6998 65.8001 51.6998L49 51.7998L41.2001 51.8998C40.1001 51.8998 39.2001 50.9998 39.2001 49.8998L38.8 7.3998C38.8 6.2998 39.7 5.3998 40.8 5.3998L53.5 5.2998C53.8 5.3998 54 5.5998 54.3 5.7998C63.7 11.9998 69.9 22.4998 70 34.5998C70 34.6998 70 34.8998 70 34.9998Z" fill="#DFEBFF"/>
<path d="M70 34.9994C70 40.9994 68.5001 46.6994 65.8001 51.6994L54.7001 51.7994V48.8994L54.3 5.89941C63.7 12.0994 69.9 22.5994 70 34.6994C70 34.6994 70 34.8994 70 34.9994Z" fill="#C4DCF7"/>
<path d="M45.1 12.2994H43.2L43.1 12.4994C43 12.7994 42.7 12.9994 42.3 13.0994C41.7 13.0994 41.3 12.4994 41.5 11.9994L43 8.39941C43.1 8.09941 43.4 7.89941 43.7 7.89941H44.4C44.7 7.89941 45 8.09941 45.1 8.39941L46.6 11.9994C46.8 12.4994 46.5 13.0994 45.9 13.0994H45.8C45.5 13.0994 45.2 12.8994 45 12.5994L45.1 12.2994ZM44.7 11.0994L44.1 9.59941L43.5 11.0994H44.7Z" fill="#FF3D3B"/>
<path d="M65.2 47.6998H63.3L63.2 47.8998C63.1 48.1998 62.8 48.3998 62.4 48.4998C61.8 48.4998 61.4 47.8998 61.6 47.3998L63.1 43.7998C63.2 43.4998 63.5 43.2998 63.8 43.2998H64.5C64.8 43.2998 65.1 43.4998 65.2 43.7998L66.7 47.3998C66.9 47.8998 66.6 48.4998 66 48.4998H65.9C65.6 48.4998 65.3 48.2998 65.1 47.9998L65.2 47.6998ZM64.7 46.3998L64.1 44.8998L63.6 46.3998H64.7Z" fill="#E82E2E"/>
<path d="M59.5 29.1996L55.5 34.7996C55.2 35.0996 54.9 35.3996 54.5 35.3996C54.1 35.3996 53.7 35.2996 53.5 34.7996L49.4 29.2996C49.1 28.7996 49.1 28.2996 49.4 27.7996L53.4 22.1996C53.7 21.8996 54 21.5996 54.4 21.5996C54.8 21.5996 55.2 21.6996 55.4 22.1996L59.5 27.6996C59.8 28.0996 59.8 28.7996 59.5 29.1996Z" fill="#FF3D3B"/>
<path d="M59.5 29.2002L55.5 34.8002C55.2 35.1002 54.9 35.4002 54.5 35.4002L54.4 21.7002C54.8 21.7002 55.2 21.8002 55.4 22.3002L59.5 27.8002C59.8 28.1002 59.8 28.8002 59.5 29.2002Z" fill="#E82E2E"/>
<path d="M28.3 4.50017L52.9 34.6002C53.5 35.4002 53.5 36.6002 52.6 37.3002L33.6 52.9002C32.8 53.5002 31.6 53.5002 30.9 52.6002L6.3 22.5002C5.7 21.7002 5.7 20.5002 6.6 19.8002L25.7 4.20017C26.5 3.60017 27.7 3.70017 28.3 4.50017Z" fill="#DFEBFF"/>
<path d="M28.3 4.50017L52.9 34.6002C53.5 35.4002 53.5 36.6002 52.6 37.3002L43.1 45.0002L16.1 12.0002L25.7 4.20017C26.5 3.60017 27.7 3.70017 28.3 4.50017Z" fill="#C4DCF7"/>
<path d="M13.7 22.3006L12.4 23.4006L12.5 23.6006C12.6 23.9006 12.5 24.2006 12.3 24.4006C11.9 24.7006 11.3 24.5006 11.2 24.1006L10.2 20.7006C10.1 20.4006 10.2 20.1006 10.4 19.9006L10.9 19.5006C11.1 19.3006 11.5 19.3006 11.7 19.4006L14.8 21.1006C15.2 21.4006 15.3 21.9006 14.9 22.3006H14.8C14.6 22.5006 14.2 22.5006 14 22.4006L13.7 22.3006ZM12.7 21.7006L11.4 20.9006L11.9 22.3006L12.7 21.7006Z" fill="#464D7F"/>
<path d="M49 36.3006L47.7 37.4006L47.8 37.6006C47.9 37.9006 47.8 38.2006 47.6 38.4006C47.2 38.7006 46.6 38.5006 46.5 38.1006L45.5 34.7006C45.4 34.4006 45.5 34.1006 45.7 33.9006L46.2 33.5006C46.4 33.3006 46.8 33.3006 47 33.4006L50.1 35.1006C50.5 35.3006 50.6 35.9006 50.2 36.3006H50C49.8 36.5006 49.4 36.5006 49.2 36.4006L49 36.3006ZM48 35.6006L46.7 34.8006L47.2 36.2006L48 35.6006Z" fill="#3B407A"/>
<path d="M35.3 30.2004C34.5 30.8004 33.6 31.1004 32.6 31.0004L33 31.6004C33.7 32.4004 34.9 32.6004 35.9 32.2004C36.2 32.1004 36.5 32.2004 36.6 32.5004C36.7 32.7004 36.6 32.9004 36.5 33.1004L34.5 34.7004L32.6 36.3004C32.4 36.5004 32 36.4004 31.9 36.2004C31.8 36.0004 31.8 35.8004 32 35.6004C32.7 34.8004 32.7 33.6004 32 32.7004L31.6 32.0004C31.5 32.9004 31.1 33.8004 30.3 34.4004C28.7 35.7004 26.2 35.4004 25.1 33.6004C24.4 32.5004 24.4 31.0004 25.2 29.9004C25.5 29.4004 25.9 29.1004 26.3 28.8004C25.6 28.7004 24.9 28.2004 24.3 27.6004C23 26.1004 23.3 23.9004 24.8 22.7004C24.9 22.6004 25 22.6004 25.1 22.5004C26.4 21.6004 28.2 21.8004 29.4 22.9004C30.1 23.6004 30.4 24.4004 30.4 25.3004C30.7 25.0004 31.2 24.6004 31.7 24.4004C33 23.9004 34.4 24.1004 35.3 25.1004C37 26.5004 36.9 28.8004 35.3 30.2004Z" fill="#464D7F"/>
<path d="M35.3 30.2C34.5 30.8 33.6 31.1 32.6 31L33 31.6C33.7 32.4 34.9001 32.6 35.9001 32.2C36.2001 32.1 36.5 32.2 36.6 32.5C36.7 32.7 36.6 32.9 36.5 33.1L34.5 34.7L24.8 22.8C24.9 22.7 25 22.7 25.1 22.6C26.4 21.7 28.2 21.9 29.4 23C30.1 23.7 30.4 24.5 30.4 25.4C30.7 25.1 31.2001 24.7 31.7001 24.5C33.0001 24 34.4 24.2 35.3 25.2C37 26.5 36.9 28.8 35.3 30.2Z" fill="#3B407A"/>
<path d="M65.9 51.4998C65.9 51.5998 65.8 51.5998 65.8 51.5998C63.4 56.0998 59.9 60.0998 55.8 63.0998C52.1 65.7998 47.8 67.8998 43.1 68.9998L29.1 37.9998C28.7 37.0998 29.1 35.9998 30 35.5998L52.2 25.4998C53.1 25.0998 54.2 25.4998 54.6 26.3998L65.9 51.4998Z" fill="white"/>
<path d="M65.9 51.4994C65.9 51.5994 65.8 51.5994 65.8 51.5994C63.4 56.0994 59.9 60.0994 55.8 63.0994L41 30.5994L52.1 25.5994C53 25.1994 54.1 25.5994 54.5 26.4994L65.9 51.4994Z" fill="#DFEBFF"/>
<path d="M36.1 39.7995L34.5 40.4995V40.6995C34.5 40.9995 34.4 41.2995 34.1 41.3995C33.6 41.5995 33.1 41.2995 33.1 40.7995L33 37.1995C33 36.8995 33.1 36.5995 33.4 36.4995L34 36.1995C34.3 36.0995 34.6 36.0995 34.8 36.2995L37.3 38.6995C37.6 38.9995 37.6 39.6995 37.1 39.8995H37C36.7 40.0995 36.4 39.9995 36.1 39.7995ZM35.3 38.8995L34.3 37.8995L34.4 39.3995L35.3 38.8995Z" fill="#464D7F"/>
<path d="M52.1 53.3L52.2 53.4C52.6 54.4 53.7 54.9 54.8 54.7C55 54.6 55.3 54.8 55.4 55C55.5 55.3 55.4 55.6 55.2 55.6L50.7 57.6C50.4 57.7 50.1 57.6 50.1 57.4C50 57.2 50.1 56.9 50.2 56.8C51 56.2 51.4 55.1 51 54L50.9 53.9C49.9 55.4 48 56 46.2 55.4C45.2 55 44.5 54.3 44 53.4C43.6 52.5 43.5 51.4 43.9 50.3L46.7 43L54.1 45.8C55.1 46.2 55.8 46.9 56.3 47.8C56.7 48.7 56.8 49.8 56.4 50.9C56 51.9 55.3 52.6 54.4 53.1C53.6 53.3 52.8 53.4 52.1 53.3Z" fill="#464D7F"/>
<path d="M52.0999 53.2998L52.2 53.3998C52.6 54.3998 53.6999 54.8998 54.7999 54.6998C54.9999 54.5998 55.3 54.7998 55.4 54.9998C55.5 55.2998 55.4 55.5998 55.2 55.5998L52.9 56.5998L46.7 42.7998L54.0999 45.5998C55.0999 45.9998 55.7999 46.6998 56.2999 47.5998C56.6999 48.4998 56.8 49.5998 56.4 50.6998C56 51.6998 55.3 52.3998 54.4 52.8998C53.6 53.2998 52.7999 53.3998 52.0999 53.2998Z" fill="#3B407A"/>
</svg>
