<svg width="70" height="62" viewBox="0 0 70 62" fill="none" xmlns="http://www.w3.org/2000/svg">
<path d="M26.7 51.5996V57.7996L30.8 59.7996L34.9 57.7996L36.9 54.6996L34.9 51.5996L30.8 49.5996L26.7 51.5996Z" fill="#283366"/>
<path d="M43.3 51.5996L39.2 49.5996L35.1 51.5996V57.7996L39.2 59.7996L43.3 57.7996C43.3 55.6996 43.3 53.5996 43.3 51.5996Z" fill="#101040"/>
<path d="M0 0.0996094V51.5996H35L37 24.8996L35 0.0996094C34.6 0.0996094 0.9 0.0996094 0 0.0996094Z" fill="#404A80"/>
<path d="M70 0.0996094C69.1 0.0996094 35.4 0.0996094 35 0.0996094V51.5996H70C70 50.0996 70 1.59961 70 0.0996094Z" fill="#283366"/>
<path d="M4.09998 4.2998V39.2998H35L37 24.4998L35 4.2998C32 4.2998 7.39998 4.2998 4.09998 4.2998Z" fill="#E8F1FD"/>
<path d="M65.9 4.2998C62.6 4.2998 38 4.2998 35 4.2998V39.2998H65.9C65.9 37.2998 65.9 6.0998 65.9 4.2998Z" fill="#CFDBFD"/>
<path d="M4.09998 39.2992V43.3992H35L37 41.5992L35 39.1992C32 39.2992 7.39998 39.2992 4.09998 39.2992Z" fill="#2EE6A8"/>
<path d="M65.9 39.2998C62.6 39.2998 38 39.2998 35 39.2998V43.3998H65.9C65.9 43.0998 65.9 39.4998 65.9 39.2998Z" fill="#24B3B3"/>
<path d="M22.7 57.6992V61.7992H35L37 59.7992L35 57.6992C33.5 57.6992 24.1 57.6992 22.7 57.6992Z" fill="#404A80"/>
<path d="M47.3 57.6992C45.8 57.6992 36.4 57.6992 35 57.6992V61.7992H47.3C47.3 60.4992 47.3 59.1992 47.3 57.6992Z" fill="#283366"/>
<path d="M14.4 29H18.5L20.5 22.8L18.5 14.5H14.4L12.4 22.8L14.4 29Z" fill="#283366"/>
<path d="M51.5 29H55.6L57.6 22.8L55.6 14.5H51.5L49.5 22.8L51.5 29Z" fill="#101040"/>
<path d="M31.2 10.3994H26.7L18.5 24.7994V29.2994C18.5 31.3994 20.2 33.0994 22.3 33.0994H31.3C33.4 33.0994 35.1 31.3994 35.1 29.2994L37.1 20.6994L35 14.0994C35 12.0994 33.3 10.3994 31.2 10.3994Z" fill="#E26058"/>
<path d="M14.4 29H8.29999V14.5H14.5V29H14.4Z" fill="#F5DBCA"/>
<path d="M26.7 21.0994V10.3994H22.2C20.1 10.3994 18.4 12.0994 18.4 14.1994V24.7994H23C25.1 24.7994 26.7 23.1994 26.7 21.0994Z" fill="#CF3F59"/>
<path d="M43.3 10.3994H38.8C36.7 10.3994 35 12.0994 35 14.1994V29.2994C35 31.3994 36.7 33.0994 38.8 33.0994H47.8C49.9 33.0994 51.6 31.3994 51.6 29.2994V24.7994L43.3 10.3994Z" fill="#CF3F59"/>
<path d="M47 24.7998H51.5V14.0998C51.5 11.9998 49.8 10.2998 47.7 10.2998H43.2V20.9998C43.3 23.1998 44.9 24.7998 47 24.7998Z" fill="#B4295F"/>
<path d="M55.6 14.5H61.8V29H55.6V14.5Z" fill="#EEBDB1"/>
</svg>
