<svg width="116" height="40" viewBox="0 0 116 40" fill="none" xmlns="http://www.w3.org/2000/svg">
<path d="M91.6935 12.7268H82.0668L71.9506 5.87393C66.2398 1.95797 59.5501 0 52.6972 0H28.712L0.810791 8.48456V11.5847H3.25826V21.3746H0.810791V29.2065L4.88991 34.4278H112.415V29.0433L115.189 22.8431L109.968 18.9271C104.584 14.848 98.2201 12.7268 91.6935 12.7268Z" fill="#DB3328"/>
<path d="M22.1854 3.26367H18.2694L0.810791 8.48494L5.54257 8.64811L22.1854 3.26367Z" fill="#485143"/>
<path d="M67.2192 3.26367H64.7717L78.6407 12.8904H82.0672L71.951 6.03747C70.4825 4.89532 68.8508 3.91633 67.2192 3.26367Z" fill="#747E6C"/>
<path d="M112.252 34.2651H4.88991L0.810791 29.207H112.252V34.2651Z" fill="#B5100B"/>
<path d="M8.31572 21.3739H3.42078V11.584H8.31572L10.6 17.1316L8.31572 21.3739Z" fill="#B5100B"/>
<path d="M74.887 12.2378H57.9179L19.7373 6.36388L30.8325 3.10059H51.2281C58.2442 3.10059 65.2603 5.38489 71.1342 9.46401L74.887 12.2378Z" fill="#485143"/>
<path d="M80.9247 28.8799L43.7231 26.7588L36.707 17.9479L44.2126 14.6846L80.272 20.069C80.272 21.3743 79.293 22.1901 77.9877 22.1901L46.9864 18.6005L44.2126 19.9058L48.1286 23.4955L79.1299 27.0851C80.272 27.0851 80.9247 27.9009 80.9247 28.8799Z" fill="#B5100B"/>
<path d="M108.01 21.7012H115.026V23.9855H108.01V21.7012Z" fill="#EBEADF"/>
<path d="M20.7175 39.9756C26.8452 39.9756 31.8127 35.0081 31.8127 28.8804C31.8127 22.7527 26.8452 17.7852 20.7175 17.7852C14.5898 17.7852 9.62231 22.7527 9.62231 28.8804C9.62231 35.0081 14.5898 39.9756 20.7175 39.9756Z" fill="#323D2C"/>
<path d="M21.3699 17.9482C20.3909 17.9482 19.5751 17.9482 18.5961 18.1114C17.6171 18.2746 17.7803 19.7431 18.7593 19.7431H18.9224C24.9595 19.7431 30.0176 24.8012 30.0176 30.8383V31.0014C30.0176 31.9804 31.3229 32.1436 31.6493 31.1646C31.8124 30.1856 31.8124 29.3698 31.8124 28.3908C31.6493 22.8432 27.0807 18.1114 21.3699 17.9482Z" fill="#485143"/>
<path d="M25.7758 34.264C20.3913 33.9376 15.8227 29.5322 15.4964 23.9846V23.8214C15.3332 21.7003 12.7226 21.0476 11.5804 22.8424C10.2751 24.8004 9.62246 27.0847 9.78563 29.5322C9.94879 35.243 14.6806 39.8116 20.2282 39.9747C22.6756 40.1379 24.9599 39.4852 26.9179 38.1799C28.5496 36.8746 27.8969 34.264 25.7758 34.264Z" fill="#1C2617"/>
<path d="M20.7165 34.4272C23.7804 34.4272 26.2641 31.9435 26.2641 28.8796C26.2641 25.8158 23.7804 23.332 20.7165 23.332C17.6527 23.332 15.1689 25.8158 15.1689 28.8796C15.1689 31.9435 17.6527 34.4272 20.7165 34.4272Z" fill="#747E6C"/>
<path d="M21.2058 23.6592C20.8795 23.6592 20.5531 23.6592 20.2268 23.6592C19.5741 23.6592 19.5741 24.6382 20.2268 24.6382H20.39C22.8374 24.8013 24.9586 26.9225 25.2849 29.5331V29.6963C25.2849 30.1858 26.2639 30.1858 26.2639 29.6963C26.2639 29.3699 26.2639 29.0436 26.2639 28.7173C26.1007 25.9435 23.8164 23.6592 21.2058 23.6592Z" fill="#C4C1AB"/>
<path d="M22.6743 31.9813C20.2268 31.8182 18.2688 29.697 17.9425 27.2496C17.9425 27.2496 17.9425 27.2495 17.9425 27.0864C17.7793 26.1074 16.3108 25.7811 15.8213 26.7601C15.495 27.5759 15.1687 28.3917 15.3319 29.5339C15.495 32.1445 17.7793 34.2656 20.39 34.592C21.3689 34.7551 22.3479 34.4288 23.1638 34.1025C24.1427 33.4498 23.8164 31.9813 22.6743 31.9813Z" fill="#485143"/>
<path d="M4.72742 11.584H6.35906V21.3739H4.72742V11.584Z" fill="#E67368"/>
<path d="M94.6308 39.9756C100.759 39.9756 105.726 35.0081 105.726 28.8804C105.726 22.7527 100.759 17.7852 94.6308 17.7852C88.5031 17.7852 83.5356 22.7527 83.5356 28.8804C83.5356 35.0081 88.5031 39.9756 94.6308 39.9756Z" fill="#323D2C"/>
<path d="M99.5256 34.2644C93.978 33.938 89.5726 29.5326 89.0831 23.8218V23.6586C88.9199 21.7007 86.3093 21.048 85.1671 22.6797C83.8618 24.6376 83.2091 26.9219 83.3723 29.3694C83.5355 35.0802 88.2672 39.6488 93.8148 39.8119C96.2623 39.9751 98.5466 39.3225 100.505 38.0171C102.299 36.875 101.647 34.2644 99.5256 34.2644Z" fill="#1C2617"/>
<path d="M94.6299 34.4272C97.6937 34.4272 100.177 31.9435 100.177 28.8796C100.177 25.8158 97.6937 23.332 94.6299 23.332C91.566 23.332 89.0823 25.8158 89.0823 28.8796C89.0823 31.9435 91.566 34.4272 94.6299 34.4272Z" fill="#747E6C"/>
<path d="M95.1206 17.9482C94.1416 17.9482 93.3258 17.9482 92.3468 18.1114C91.3678 18.2746 91.531 19.7431 92.51 19.7431H92.6732C98.7102 19.7431 103.768 24.8012 103.768 30.8383V31.0014C103.768 31.9804 105.074 32.1436 105.4 31.1646C105.563 30.1856 105.563 29.3698 105.563 28.3908C105.4 22.8432 100.668 18.1114 95.1206 17.9482Z" fill="#485143"/>
<path d="M95.1206 23.6592C94.7943 23.6592 94.6311 23.6592 94.1416 23.6592C93.4889 23.6592 93.4889 24.6382 94.1416 24.6382H94.3048C96.7522 24.8013 98.8734 26.9225 99.1997 29.5331V29.6963C99.1997 30.1858 100.179 30.1858 100.179 29.6963C100.179 29.3699 100.179 29.0436 100.179 28.7173C99.8524 25.9435 97.7312 23.6592 95.1206 23.6592Z" fill="#C4C1AB"/>
<path d="M96.4251 31.9813C93.9776 31.8182 92.0197 29.697 91.6933 27.2496C91.6933 27.2496 91.6933 27.2495 91.6933 27.0864C91.5302 26.1074 90.0617 25.7811 89.5722 26.7601C89.2459 27.5759 88.9195 28.3917 89.0827 29.5339C89.2459 32.1445 91.5302 34.2656 94.1408 34.592C95.1198 34.7551 96.0988 34.4288 96.9146 34.1025C97.8936 33.4498 97.5673 31.9813 96.4251 31.9813Z" fill="#485143"/>
<path d="M57.9184 14.033H74.8876L81.9037 14.5225H101.973C98.7096 13.3803 95.2832 12.7277 91.6936 12.7277H82.0668L75.0507 12.2382H57.9184L19.7379 6.36426L0.810791 8.4854V10.4434L19.7379 8.81173L57.9184 14.033Z" fill="#E67368"/>
<mask id="mask0_1125_755" style="mask-type:luminance" maskUnits="userSpaceOnUse" x="19" y="3" width="56" height="10">
<path d="M74.887 12.2378H57.9179L19.7373 6.36388L30.8325 3.10059H51.2281C58.2442 3.10059 65.2603 5.38489 71.1342 9.46401L74.887 12.2378Z" fill="white"/>
</mask>
<g mask="url(#mask0_1125_755)">
<path d="M47.1495 14.5219H43.0703L29.854 1.46875H33.9331L47.1495 14.5219Z" fill="#747E6C"/>
</g>
<mask id="mask1_1125_755" style="mask-type:luminance" maskUnits="userSpaceOnUse" x="19" y="3" width="56" height="10">
<path d="M74.887 12.2378H57.9179L19.7373 6.36388L30.8325 3.10059H51.2281C58.2442 3.10059 65.2603 5.38489 71.1342 9.46401L74.887 12.2378Z" fill="white"/>
</mask>
<g mask="url(#mask1_1125_755)">
<path d="M59.3865 14.5219H50.9019L37.6855 1.46875H46.1701L59.3865 14.5219Z" fill="#747E6C"/>
</g>
<path d="M44.0488 10.2798L39.317 9.6271V3.26367H44.0488V10.2798Z" fill="#323D2C"/>
</svg>
