<svg width="70" height="70" viewBox="0 0 70 70" fill="none" xmlns="http://www.w3.org/2000/svg">
<path d="M43.7999 67.9998H26.2C25.1 67.9998 24.2 67.0998 24.2 65.9998V59.2998C24.2 58.1998 25.1 57.2998 26.2 57.2998H43.7999C44.9 57.2998 45.7999 58.1998 45.7999 59.2998V65.9998C45.7999 66.9998 44.9 67.9998 43.7999 67.9998Z" fill="#C7C2C8"/>
<path d="M45.8 65.9002V59.2002C45.8 58.1002 44.9 57.2002 43.8 57.2002H35V68.0002H43.8C44.9 68.0002 45.8 67.0002 45.8 65.9002Z" fill="#B0A9B1"/>
<path d="M63.5 61.2H6.5C3 61.2 0 58.3 0 54.7V46C0 44.9 0.9 44 2 44C3.1 44 4 44.9 4 46C4 47.3 5 48.3 6.3 48.3H63.4C64.7 48.3 65.7 47.3 65.7 46C65.7 44.9 66.6 44 67.7 44C68.8 44 69.7 44.9 69.7 46V54.8C70 58.3 67.1 61.2 63.5 61.2Z" fill="#F5F5F5"/>
<path d="M70 54.7V46C70 44.9 69.1 44 68 44C66.9 44 66 44.9 66 46C66 47.3 65 48.3 63.7 48.3H35V61.2H63.5C67.1 61.2 70 58.3 70 54.7Z" fill="#DEDCDE"/>
<path d="M63.5 2.09961H6.49998C3.99998 2.09961 2.09998 3.99961 2.09998 6.49961V30.4996H67.9V6.49961C67.9 3.99961 66 2.09961 63.5 2.09961Z" fill="#5ABEFF"/>
<path d="M67.9 6.49961C67.9 4.09961 65.9 2.09961 63.5 2.09961H35V30.4996H67.9V6.49961Z" fill="#0096F0"/>
<path d="M39.8 27.5004C39.5 28.2004 39.5 29.0004 39.9 29.6004L54.4 50.4004H63.5C65.9 50.4004 67.9 48.4004 67.9 46.0004V26.4004H41.6C40.8 26.4004 40.1 26.8004 39.8 27.5004Z" fill="#1E8267"/>
<path d="M6.49998 50.4004H15.6L30.1 29.6004C30.5 29.0004 30.6 28.1004 30.2 27.5004C29.9 26.9004 29.2 26.4004 28.4 26.4004H2.09998V46.0004C2.09998 48.4004 3.99998 50.4004 6.49998 50.4004Z" fill="#48B658"/>
<path d="M41.6 26.4004H28.4C27.7 26.4004 27.1 26.7004 26.7 27.2004L11.3 49.2004C11.1 49.6004 11 50.0004 11 50.4004H59C59 50.0004 58.9 49.6004 58.7 49.2004L43.3 27.2004C42.9 26.7004 42.3 26.4004 41.6 26.4004Z" fill="#352E2F"/>
<path d="M58.6 49.2004L43.2 27.2004C42.9 26.6004 42.2 26.4004 41.5 26.4004H35V50.4004H59C59 50.0004 58.8 49.6004 58.6 49.2004Z" fill="#0A0400"/>
<path d="M52.6 70H17.4C16.3 70 15.4 69.1 15.4 68C15.4 66.9 16.3 66 17.4 66H52.5C53.6 66 54.5 66.9 54.5 68C54.5 69.1 53.7 70 52.6 70Z" fill="#DEDCDE"/>
<path d="M35 32.7C33.9 32.7 33 31.8 33 30.7V28.5C33 27.4 33.9 26.5 35 26.5C36.1 26.5 37 27.4 37 28.5V30.7C37 31.7 36.1 32.7 35 32.7Z" fill="#F5F5F5"/>
<path d="M35 41.4002C33.9 41.4002 33 40.5002 33 39.4002V37.2002C33 36.1002 33.9 35.2002 35 35.2002C36.1 35.2002 37 36.1002 37 37.2002V39.4002C37 40.5002 36.1 41.4002 35 41.4002Z" fill="#F5F5F5"/>
<path d="M54.7 36C53.6 36 52.7 35.1 52.7 34V28.5C52.7 27.4 53.6 26.5 54.7 26.5C55.8 26.5 56.7 27.4 56.7 28.5V34C56.8 35 55.9 36 54.7 36Z" fill="#FF6D5A"/>
<path d="M35 45C33.9 45 33 45.9 33 47V50.4H37.1V47.1C37 45.9 36.1 45 35 45Z" fill="#F5F5F5"/>
<path d="M19.6 21.7004C23.2 21.7004 26 18.8004 26 15.3004C26 11.8004 23.1 8.90039 19.6 8.90039H2.09998V21.8004H19.6V21.7004Z" fill="#F5F5F5"/>
<path d="M54.6 68C54.6 66.9 53.7 66 52.6 66H35V70.1H52.6C53.7 70 54.6 69.1 54.6 68Z" fill="#C7C2C8"/>
<path d="M37 30.6004V28.4004C37 27.3004 36.1 26.4004 35 26.4004V32.7004C36.1 32.7004 37 31.7004 37 30.6004Z" fill="#DEDCDE"/>
<path d="M37 39.4002V37.2002C37 36.1002 36.1 35.2002 35 35.2002V41.5002C36.1 41.4002 37 40.5002 37 39.4002Z" fill="#DEDCDE"/>
<path d="M37 47.1006C37 46.0006 36.1 45.1006 35 45.1006V50.4006H37V47.1006Z" fill="#DEDCDE"/>
<path d="M63.5 0H6.5C2.9 0 0 2.9 0 6.5V46C0 49.6 2.9 52.4 6.4 52.4H63.5C67 52.4 69.9 49.5 69.9 46V6.5C70 2.9 67.1 0 63.5 0ZM65.8 46C65.8 47.3 64.8 48.3 63.5 48.3H6.5C5.2 48.3 4.2 47.3 4.2 46V6.5C4.2 5.2 5.2 4.2 6.5 4.2H63.6C64.9 4.2 65.9 5.2 65.9 6.5V46H65.8Z" fill="#61585D"/>
<path d="M70 46V6.5C70 2.9 67.1 0 63.5 0H35V4.1H63.5C64.8 4.1 65.8 5.1 65.8 6.4V46C65.8 47.3 64.8 48.3 63.5 48.3H35V52.4H63.5C67 52.4 70 49.6 70 46Z" fill="#352E2F"/>
<path d="M54.7001 30.5C51.1001 30.5 48.3 27.6 48.3 24.1V15.4C48.3 11.8 51.2001 9 54.7001 9C58.3001 9 61.1 11.9 61.1 15.4V24.2C61.2 27.6 58.3001 30.5 54.7001 30.5Z" fill="#23575C"/>
</svg>
