<svg width="70" height="70" viewBox="0 0 70 70" fill="none" xmlns="http://www.w3.org/2000/svg">
<g clip-path="url(#clip0_1125_446)">
<path d="M0.799988 38.0002L4.89999 52.7002C6.19999 55.1002 7.79999 57.2002 9.69999 59.3002L20.7 67.2002C22.8 68.1002 25 68.9002 27.2 69.4002L41.8 69.3002C44 68.8002 46.1 68.1002 48.1 67.2002L59.2 59.1002C60.9 57.2002 62.4 55.1002 63.7 52.9002L67.8 38.2002C67.8 37.7002 67.8 37.2002 67.8 36.7002C67.8 18.2002 52.8 3.20022 34.3 3.20022C15.8 3.00022 0.799988 18.0002 0.799988 36.5002C0.799988 37.0002 0.799988 37.5002 0.799988 38.0002Z" fill="#7255CE"/>
<path d="M14.4 35.8998C14.9 36.1998 15.7 36.1998 16.1 35.7998C16.9 34.8998 17.9 34.4998 18.7 34.2998L27.4 1.7998C27.5 1.3998 27.7 0.999805 28.1 0.799805H16.7C15.4 0.799805 14.4 1.7998 14.4 3.0998V35.8998C14.4 35.7998 14.4 35.7998 14.4 35.8998Z" fill="#FCF9F0"/>
<path d="M14.4 20.5C14.3 20.6 14.3 20.6 14.3 20.6V35.8C14.8 36.1 15.6 36.1 16 35.7C16.8 34.8 17.8 34.4 18.6 34.2L22.1 21.3C17.3 25 14.4 20.5 14.4 20.5Z" fill="#F9EFDC"/>
<path d="M61.4 13.4995L42.9 2.89951C41.8 2.29951 40.4 2.59951 39.7 3.69951L21.9 34.6995C22.5 34.9995 23 35.4995 23.4 35.9995C23.8 36.5995 24.7 36.5995 25.2 36.0995C27.6 33.8995 31.3 33.5995 34.5 35.0995C34.9 35.2995 35.4 35.1995 35.8 34.9995C37.1 33.9995 38.9 33.8995 40.3 34.5995C40.6 34.6995 41 34.6995 41.3 34.5995C42.8 33.8995 44.7 34.0995 46 35.1995C46.4 35.4995 47 35.4995 47.5 35.1995C48.5 34.3995 49.9 34.0995 51.2 34.2995V33.9995L49 30.1995C48.7 29.7995 48.7 29.2995 48.8 28.7995C48.9 28.2995 49.2 27.8995 49.7 27.6995L56.5 23.7995V17.3995C56.5 16.3995 57.3 15.4995 58.4 15.4995H62.5C62.5 14.5995 62.1 13.8995 61.4 13.4995Z" fill="#FCF9F0"/>
<path d="M42.2 33.8996C39.5 33.0996 40.2 29.9996 40.2 29.9996L39.3 29.4996C28.8 31.3996 28.7 23.0996 28.7 23.0996L28.4 23.2996L21.8 34.6996C22.4 34.9996 22.9 35.4996 23.3 35.9996C23.7 36.5996 24.6 36.5996 25.1 36.0996C27.5 33.8996 31.2 33.5996 34.4 35.0996C34.8 35.2996 35.3 35.1996 35.7 34.9996C37 33.9996 38.8 33.8996 40.2 34.5996C40.5 34.6996 40.9 34.6996 41.2 34.5996C41.5 34.4996 41.8 34.3996 42.1 34.2996L42.2 33.8996Z" fill="#F9EFDC"/>
<path d="M19.6 34.2002C20.6 34.2002 21.3 34.5002 22 34.8002L39.9 3.80016C40.1 3.50016 40.4 3.20016 40.7 3.00016L30 0.100165C28.7 -0.199835 27.5 0.500165 27.1 1.80016L18.4 34.3002C19.1 34.2002 19.6 34.2002 19.6 34.2002Z" fill="#F9EFDC"/>
<path d="M22.1 21.2998C22 21.3998 22 21.3998 22 21.3998L18.5 34.2998C19.1 34.1998 19.6 34.1998 19.6 34.1998C20.6 34.1998 21.3 34.4998 22 34.7998L28.9 23.0998C24 24.8998 22.1 21.2998 22.1 21.2998Z" fill="#EFE1CB"/>
<path d="M9.59999 34.2004C11.5 34.3004 13.2 35.0004 14.4 35.9004C14.5 35.9004 14.5 36.0004 14.5 36.0004V3.00039C14.5 2.60039 14.6 2.20039 14.8 1.90039L4.09999 4.80039C2.89999 5.00039 2.09999 6.40039 2.49999 7.60039L9.59999 34.2004Z" fill="#F9EFDC"/>
<path d="M9.59998 34.2C11.5 34.3 13.2 35 14.4 35.9C14.5 35.9 14.5 36 14.5 36V20.5C10.5 25.7 6.09998 21.3 6.09998 21.3L9.59998 34.2Z" fill="#EFE1CB"/>
<path d="M67.1 14.9004H58.7C57.5 14.9004 56.5 15.9004 56.5 17.1004V23.7004L57.1 23.4004C57.4 23.2004 57.7 23.1004 58.1 23.1004C58.8 23.1004 59.5 23.4004 59.8 24.1004L61.8 27.7004H67C68.2 27.7004 69.2 26.7004 69.2 25.5004V17.1004C69.2 15.9004 68.2 14.9004 67.1 14.9004Z" fill="#DAE2FE"/>
<path d="M65.9 24.4L59.8 18.4C57.2 17.8 58.6 15 58.6 15C57.4 15 56.4 16 56.4 17.2V23.8L57 23.5C57.3 23.3 57.6 23.2 58 23.2C58.7 23.2 59.4 23.5 59.7 24.2L61.7 27.8H66.9C68.1 27.8 69.1 26.8 69.1 25.6C66.4 27 65.9 24.4 65.9 24.4Z" fill="#BEC8F7"/>
<path d="M22.5 4.19999C21.9 3.59999 21 3.69999 20.5 4.29999C20.4 4.39999 20.3 4.39999 20.2 4.29999C19.6 3.69999 18.7 3.69999 18.2 4.19999C17.6 4.79999 17.6 5.69999 18.1 6.29999C18.6 6.79999 19.9 8.09999 20 8.29999C20.2 8.49999 20.5 8.49999 20.6 8.29999C20.8 8.09999 22 6.89999 22.5 6.29999C23.2 5.69999 23.2 4.79999 22.5 4.19999Z" fill="#FF4155"/>
<path d="M46.3 27.5996C45.7 26.7996 45.3 25.8996 45 24.8996C44.7 23.8996 44.7 22.8996 44.7 21.9996C44.8 21.4996 44.2 21.1996 43.8 21.4996C43 22.0996 42.1 22.4996 41.1 22.7996C40.1 23.0996 39.1 23.0996 38.2 23.0996C37.7 22.9996 37.4 23.5996 37.7 23.9996C38.3 24.7996 38.7 25.6996 39 26.6996C39.3 27.6996 39.3 28.6996 39.3 29.5996C39.2 30.0996 39.8 30.3996 40.2 30.0996C41 29.4996 41.9 29.0996 42.9 28.7996C43.9 28.4996 44.9 28.4996 45.8 28.4996C46.3 28.4996 46.6 27.9996 46.3 27.5996Z" fill="#FF4155"/>
<path d="M40.9 8.49958C41.2 8.79958 41.4 9.29958 41.5 9.79958C41.6 10.2996 41.6 10.6996 41.6 11.1996C41.6 11.3996 41.8 11.4996 42 11.3996C42.3 11.0996 42.8 10.8996 43.3 10.7996C43.8 10.6996 44.2 10.6996 44.7 10.6996C44.9 10.6996 45 10.4996 44.9 10.2996C44.6 9.99958 44.4 9.49958 44.3 8.99958C44.2 8.49958 44.2 8.09958 44.2 7.59958C44.2 7.39958 44 7.29958 43.8 7.39958C43.5 7.69958 43 7.89958 42.5 7.99958C42 8.09958 41.6 8.09958 41.1 8.09958C41 8.09958 40.9 8.29958 40.9 8.49958Z" fill="#FF4155"/>
<path d="M34.1 6.10023C33.8 5.50023 32.9 4.10023 32.8 3.70023C32.7 3.50023 32.4 3.40023 32.2 3.60023C32.1 3.70023 30.5 4.60023 29.9 5.00023C29.2 5.40023 29 6.30023 29.4 7.00023C29.7 7.60023 30.4 7.80023 31 7.60023V7.70023C30.8 8.00023 30.7 8.20023 30.4 8.30023C30.3 8.40023 30.3 8.60023 30.5 8.60023L31.6 8.90023C31.7 8.90023 31.8 8.80023 31.8 8.70023C31.7 8.50023 31.7 8.20023 31.7 7.90023C31.7 7.80023 31.8 7.80023 31.8 7.80023C32.2 8.20023 32.9 8.40023 33.5 8.10023C34.2 7.80023 34.4 6.90023 34.1 6.10023Z" fill="#2D3C6B"/>
<path d="M11.8 8.70021C11.7 8.20021 11.1 7.90022 10.6 7.90022C10.2 8.00022 9.80001 8.30022 9.70001 8.80022C9.60001 8.90022 9.50001 9.00022 9.30001 9.10022C9.20001 9.10022 9.20001 9.10021 9.20001 9.00022C9.10001 8.80022 9.20001 8.70021 9.30001 8.50021C9.60001 8.20021 9.70001 7.70022 9.60001 7.30022C9.40001 6.80022 8.90001 6.50021 8.30001 6.60021C8.10001 6.70021 7.80001 6.80021 7.60001 7.10021C7.50001 7.40021 7.40001 7.60021 7.50001 7.90022C7.60001 8.30022 7.90001 8.60021 8.30001 8.70021C8.40001 8.80021 8.50001 8.90022 8.60001 9.00022V9.10022C8.60001 9.20022 8.60001 9.20021 8.50001 9.20021C8.50001 9.20021 8.20001 9.30022 8.00001 9.10022C7.80001 8.80022 7.30001 8.70022 6.90001 8.80022C6.40001 9.00022 6.10001 9.50022 6.20001 10.1002C6.30001 10.4002 6.40001 10.7002 6.70001 10.8002C7.00001 10.9002 7.30001 11.0002 7.50001 10.9002C7.90001 10.8002 8.20001 10.5002 8.30001 10.1002C8.30001 10.0002 8.50001 9.90022 8.60001 9.80022C8.70001 9.80022 8.70001 9.80021 8.70001 9.90021C8.80001 10.7002 8.80001 11.2002 8.60001 11.4002C8.50001 11.5002 8.70001 11.7002 8.90001 11.7002L10 11.4002C10.1 11.3002 10.2 11.1002 10.1 11.1002C9.90001 10.9002 9.50001 10.5002 9.30001 9.80022C9.30001 9.70022 9.30001 9.70021 9.40001 9.70021C9.60001 9.60021 9.70001 9.70022 9.90001 9.80022C10.2 10.1002 10.6 10.2002 10.9 10.1002C11.2 10.0002 11.5 9.80022 11.6 9.50022C11.8 9.20022 11.9 9.00021 11.8 8.70021Z" fill="#2D3C6B"/>
<path d="M60.6 20.2007C60 20.2007 59.6 19.7007 59.6 19.2007C59.6 18.5007 60.2 18.0007 60.9 18.2007C61.5 18.3007 61.7 18.8007 61.7 19.2007C61.7 19.7007 61.2 20.2007 60.6 20.2007Z" fill="#2D3C6B"/>
<path d="M62.9 22.5006C62.3 22.5006 61.9 22.0006 61.9 21.5006C61.9 21.0006 62.2 20.5006 62.7 20.5006C63.3 20.4006 64 20.8006 64 21.5006C64 22.0006 63.5 22.5006 62.9 22.5006Z" fill="#2D3C6B"/>
<path d="M65.1 24.8003C64.5 24.8003 64.1 24.3003 64.1 23.8003C64.1 23.1003 64.7 22.6003 65.4 22.8003C65.9 22.9003 66.2 23.4003 66.2 23.8003C66.2 24.3003 65.7 24.8003 65.1 24.8003Z" fill="#2D3C6B"/>
<path d="M51.2 34.3999C52 34.4999 52.8 34.8999 53.5 35.3999C53.9 35.6999 54.5 35.7999 55 35.4999C57.4 34.0999 60.1 33.8999 62.6 34.5999L63.4 34.1999C64.4 33.5999 64.8 32.1999 64.2 31.2999L60 23.9999C59.4 22.9999 58 22.5999 57.1 23.1999L49.8 27.3999C48.8 27.9999 48.4 29.3999 49 30.2999L51.2 34.3999Z" fill="#E9EFFF"/>
<path d="M58.2 33.9C54.3 33.9 54.4 30.7 54.4 30.7L53.1 29.2C50.8 29 51.6 26.5 51.6 26.5L49.8 27.5C48.8 28.1 48.4 29.5 49 30.4L51.3 34.4C52.1 34.5 52.9 34.9 53.6 35.4C54 35.7 54.6 35.8 55.1 35.5C56.1 34.9 57.2 34.5 58.3 34.3C58.2 34.4 58.2 33.9 58.2 33.9Z" fill="#DAE2FE"/>
<path d="M53.5 31.1997C52.9 31.1997 52.5 30.6997 52.5 30.1997C52.5 29.4997 53.1 28.9997 53.8 29.1997C54.4 29.2997 54.6 29.7997 54.6 30.1997C54.5 30.6997 54 31.1997 53.5 31.1997Z" fill="#FF4155"/>
<path d="M59.6 32.8999C59 32.8999 58.6 32.3999 58.6 31.8999C58.6 31.1999 59.2 30.6999 59.9 30.8999C60.4 30.9999 60.7 31.4999 60.7 31.8999C60.8 32.2999 60.3 32.8999 59.6 32.8999Z" fill="#FF4155"/>
<path d="M54.9 35.0998C54.4 35.3998 53.9 35.2998 53.4 34.9998C51.7 33.5998 49.3 33.4998 47.6 34.8998C47.2 35.1998 46.6 35.1998 46.1 34.8998C44.8 33.8998 43 33.5998 41.4 34.2998C41.1 34.3998 40.7 34.3998 40.4 34.2998C38.9 33.5998 37.2 33.7998 35.9 34.6998C35.6 34.9998 35.1 34.9998 34.6 34.7998C31.5 33.2998 27.7 33.5998 25.3 35.7998C24.7 36.2998 23.9 36.1998 23.5 35.6998C22.8 34.8998 21.7 33.8998 19.7 33.8998C19.7 33.8998 17.6 33.7998 16.1 35.3998C15.7 35.8998 14.9 35.9998 14.4 35.4998C13.1 34.5998 11.1 33.7998 8.90002 33.7998C5.60002 33.7998 2.70002 35.3998 0.900024 37.8998C1.10002 43.2998 2.50002 48.2998 5.00002 52.6998C6.20002 53.1998 7.50002 53.4998 8.90002 53.4998C10.1 53.4998 11.2 53.2998 12.3 52.8998L12.8 53.4998C14.2 52.2998 16 51.4998 18 51.4998C21.7 51.4998 24.9 53.9998 25.8 57.4998L25.9 58.0998L26.2 57.5998C27.9 54.6998 31.1 52.8998 34.5 52.8998C37.9 52.8998 40.9 54.5998 42.8 57.5998L43 57.9998L43.1 57.3998C44 53.7998 47.2 51.3998 50.9 51.3998C52.5 51.3998 54 51.8998 55.2 52.6998L55.3 52.3998C56.6 52.9998 58.1 53.3998 59.6 53.3998C61 53.3998 62.3 53.0998 63.5 52.5998C65.9 48.1998 67.4 43.1998 67.6 37.8998C64.9 34.0998 59.4 32.4998 54.9 35.0998Z" fill="#FFB332"/>
<path d="M30.3 43.6998C26 41.9998 27.9 37.5998 27.9 37.5998C25.9 37.0998 26.6 34.7998 26.6 34.7998C26.1 35.0998 25.6 35.3998 25.1 35.7998C24.5 36.2998 23.7 36.1998 23.3 35.6998C22.6 34.8998 21.5 33.8998 19.5 33.8998C19.5 33.8998 17.4 33.7998 15.9 35.3998C15.5 35.8998 14.7 35.9998 14.2 35.4998C12.9 34.5998 10.9 33.7998 8.70001 33.7998C5.40001 33.7998 2.50001 35.3998 0.700012 37.8998C1.00001 43.1998 2.40001 48.2998 4.80001 52.5998C6.00001 53.0998 7.30001 53.3998 8.70001 53.3998C9.90001 53.3998 11 53.1998 12.1 52.7998L12.6 53.3998C14 52.1998 15.8 51.3998 17.8 51.3998C21.5 51.3998 24.7 53.8998 25.6 57.3998L25.7 57.9998L26 57.4998C27.1 55.5998 28.8 54.2998 30.7 53.4998V52.8998C29.3 51.4998 30.9 50.2998 30.9 50.2998C33.2 49.2998 34.6 45.3998 30.3 43.6998Z" fill="#FF9100"/>
<path d="M20.9 38.0003C20.3 36.6003 18.4 36.6003 17.8 37.9003L13.8 48.3003C13.5 49.1003 13.9 49.8003 14.6 50.1003C15.3 50.4003 16.1 50.0003 16.4 49.3003L17 47.6003H21.4L22 49.3003C22.3 50.1003 23.1 50.4003 23.8 50.1003C24.6 49.8003 24.9 49.0003 24.6 48.3003L20.9 38.0003ZM18.3 44.9003L19.4 42.0003L20.5 44.9003H18.3Z" fill="#FFC839"/>
<path d="M50.6 37C49.8 37 49.1 37.6 49.2 38.5L49.3 44.6L44.5 37.7C44.2 37.2 43.5 36.9 42.9 37.1C42.3 37.3 41.9 37.9 41.9 38.5V49C41.9 49.8 42.5 50.4 43.3 50.4C44.1 50.4 44.7 49.8 44.7 49V43L49.2 49.5C49.6 50.1 50.3 50.3 50.9 50.1C51.6 49.9 52 49.3 52 48.5V38.4C52.1 37.6 51.4 37 50.6 37Z" fill="#FFDD40"/>
<path d="M38.4 37C37.6 37 37 37.6 37 38.4V49C37 49.8 37.6 50.4 38.4 50.4C39.2 50.4 39.8 49.8 39.8 49V38.4C39.9 37.6 39.2 37 38.4 37Z" fill="#FFDD40"/>
<path d="M12.7 46.2998C12.1 45.7998 11.2 45.8998 10.7 46.4998C8.89999 48.6998 4.59999 47.0998 4.59999 43.5998C4.59999 40.4998 8.09999 38.6998 10.6 40.3998C11.2 40.7998 12.1 40.6998 12.6 39.9998C13 39.3998 12.9 38.4998 12.2 37.9998C7.79999 35.0998 1.79999 38.0998 1.79999 43.4998C1.79999 49.6998 9.39999 52.3998 12.9 48.1998C13.4 47.6998 13.3 46.7998 12.7 46.2998Z" fill="#FFC839"/>
<path d="M32 42.4001C30.7 41.9001 29.6 41.4001 29.1 41.3001C28.8 41.0001 28.8 40.3001 29.7 40.0001C31.1 39.6001 32.4 40.6001 32.5 40.6001C33.1 41.1001 34 41.0001 34.5 40.4001C35 39.8001 34.9 38.9001 34.4 38.4001C31.5 36.0001 26.7 36.8001 26.1 40.3001C25.9 41.9001 26.8 43.4001 27.8 43.9001C27.9 43.9001 29.3 44.6001 30.9 45.2001C31.2 45.3001 32.4 45.8001 32.2 46.5001C31.9 47.9001 29.3 48.0001 27.9 46.5001C27.3 45.9001 26.4 45.9001 25.9 46.4001C25.3 47.0001 25.3 47.9001 25.8 48.4001C28.7 51.6001 34.4 50.8001 35.1 47.0001C35.4 45.4001 34.7 43.4001 32 42.4001Z" fill="#FFDD40"/>
<path d="M60.1 37C56.4 37 53.4 40 53.4 43.7C53.4 47.4 56.4 50.4 60.1 50.4C63.8 50.4 66.8 47.4 66.8 43.7C66.8 40 63.8 37 60.1 37ZM60.1 47.5C58 47.5 56.3 45.8 56.3 43.7C56.3 41.6 58 39.9 60.1 39.9C62.2 39.9 63.9 41.6 63.9 43.7C63.9 45.8 62.2 47.5 60.1 47.5Z" fill="#FFDD40"/>
<path d="M23.7 53.5L17.9 51C15.6 51 13.6 51.9 12.1 53.4L9.70001 59.1C12.8 62.4 16.5 65.1 20.7 66.9C21.9 66.5 22.9 65.8 23.8 64.9L26.2 59.1C26.1 57 25.2 54.9 23.7 53.5Z" fill="#FF4155"/>
<path d="M20 64.4998C20 64.3998 20 64.1998 19.9 64.1998C19.1 63.7998 19.2 62.8998 19.3 62.5998C19.4 62.4998 19.3 62.2998 19.2 62.1998C16.1 60.6998 16.6 57.4998 16.8 56.4998C16.8 56.3998 16.7 56.1998 16.6 56.1998C15.8 55.8998 15.8 54.9998 15.9 54.5998C16 54.4998 15.9 54.2998 15.8 54.2998C14.5 53.6998 14.8 52.2998 15 51.8998C15 51.7998 15 51.7998 15 51.7998C13.9 52.1998 12.9 52.7998 12.1 53.6998L9.70001 59.3998C12.8 62.6998 16.5 65.3998 20.6 67.1998C20.8 67.0998 21 67.0998 21.3 66.8998C21.2 66.7998 21.2 66.7998 21.2 66.7998C19.7 66.1998 19.9 64.9998 20 64.4998Z" fill="#E80054"/>
<path d="M9.70001 59.2C9.70001 59.3 9.80001 59.3 9.80001 59.3H13.6C13.6 58.1 14.1 57 14.9 56.2L12 53.5C10.6 54.9 9.70001 57 9.70001 59.2Z" fill="#DAE2FE"/>
<path d="M26.1 59.2998H22.2C22.2 60.4998 21.7 61.5998 20.9 62.3998L23.6 65.0998C25.2 63.5998 26.1 61.5998 26.1 59.2998Z" fill="#E9EFFF"/>
<path d="M14.8 62.4004L14 63.2004C15.3 64.1004 16.5 64.9004 17.8 65.7004V63.7004C16.7 63.7004 15.6 63.2004 14.8 62.4004Z" fill="#DAE2FE"/>
<path d="M17.9 51V54.9C19.1 54.9 20.2 55.4 21 56.2L23.7 53.5C22.2 52 20.2 51 17.9 51Z" fill="#E9EFFF"/>
<path d="M17.9 64.7004C14.9 64.7004 12.5 62.3004 12.5 59.3004C12.5 56.3004 14.9 53.9004 17.9 53.9004C20.9 53.9004 23.3 56.3004 23.3 59.3004C23.3 62.3004 20.9 64.7004 17.9 64.7004Z" fill="#FF7186"/>
<path d="M19.9 64.0998C19.1 63.6998 19.2 62.7998 19.3 62.4998C19.4 62.3998 19.3 62.1998 19.2 62.0998C16.1 60.5998 16.6 57.3998 16.8 56.3998C16.8 56.2998 16.7 56.0998 16.6 56.0998C15.8 55.7998 15.8 54.8998 15.9 54.4998C15.9 54.3998 15.9 54.3998 15.9 54.2998C13.9 55.0998 12.5 56.9998 12.5 59.2998C12.5 62.2998 14.9 64.6998 17.9 64.6998C18.7 64.6998 19.4 64.5998 20 64.2998C20 64.2998 20 64.1998 19.9 64.0998Z" fill="#FF4155"/>
<path d="M17.9 56C16.1 56 14.6 57.5 14.6 59.3C14.6 61.1 16.1 62.6 17.9 62.6C19.7 62.6 21.2 61.1 21.2 59.3C21.1 57.5 19.7 56 17.9 56Z" fill="#E9EFFF"/>
<path d="M17.9 62.6002C18.4 62.6002 18.9 62.5002 19.3 62.3002C19.3 62.2002 19.2 62.2002 19.2 62.1002C16.1 60.6002 16.6 57.4002 16.8 56.4002C16.8 56.3002 16.8 56.3002 16.7 56.2002C15.4 56.7002 14.6 57.9002 14.6 59.3002C14.6 61.1002 16 62.6002 17.9 62.6002Z" fill="#DAE2FE"/>
<path d="M56.7 53.5L50.9 51C48.6 51 46.6 51.9 45.1 53.4L42.7 59.2C42.7 61.5 43.6 63.5 45.1 65L48.8 66.5L51 65.4C54.1 63.7 56.9 61.3 59.3 58.8C59 56.8 58.2 54.9 56.7 53.5Z" fill="#4FABF7"/>
<path d="M50.9 65.5998C51.6 65.1998 52.3 64.7998 53 64.2998C53 64.1998 52.9 64.1998 52.9 64.1998C52.1 63.7998 52.2 62.8998 52.3 62.5998C52.4 62.4998 52.3 62.2998 52.2 62.1998C49.1 60.6998 49.6 57.4998 49.8 56.4998C49.8 56.3998 49.7 56.1998 49.6 56.1998C48.8 55.8998 48.8 54.9998 48.9 54.5998C49 54.4998 48.9 54.2998 48.8 54.2998C47.5 53.6998 47.8 52.2998 48 51.8998C48 51.7998 48 51.7998 48 51.7998C46.9 52.1998 45.9 52.7998 45.1 53.6998L42.7 59.4998C42.7 61.7998 43.6 63.7998 45.1 65.2998L48.8 66.7998L50.9 65.5998Z" fill="#2E8BE6"/>
<path d="M47.8 56.2L45.1 53.5C43.6 55 42.7 57.1 42.7 59.3H46.6C46.5 58.1 47 57 47.8 56.2Z" fill="#DAE2FE"/>
<path d="M58.8 59.2998H55.3C55.3 60.4998 54.8 61.5998 54 62.3998L54.7 63.0998C56.1 61.8998 57.5 60.6998 58.8 59.2998Z" fill="#E9EFFF"/>
<path d="M47.8 62.4004L45.1 65.1004C45.9 65.9004 46.9 66.6004 48 67.0004C49 66.6004 50 66.1004 50.9 65.5004V63.7004C49.7 63.7004 48.6 63.2004 47.8 62.4004Z" fill="#DAE2FE"/>
<path d="M50.9 51V54.9C52.1 54.9 53.2 55.4 54 56.2L56.7 53.5C55.2 52 53.2 51 50.9 51Z" fill="#E9EFFF"/>
<path d="M50.9 53.9004C47.9 53.9004 45.5 56.3004 45.5 59.3004C45.5 62.3004 47.9 64.7004 50.9 64.7004C51.6 64.7004 52.2 64.6004 52.9 64.4004C53.7 63.9004 54.4 63.4004 55.1 62.7004C55.9 61.8004 56.3 60.6004 56.3 59.3004C56.3 56.3004 53.9 53.9004 50.9 53.9004Z" fill="#73C3F9"/>
<path d="M52.8 64.0998C52 63.6998 52.1 62.7998 52.2 62.4998C52.3 62.3998 52.2 62.1998 52.1 62.0998C49 60.5998 49.5 57.3998 49.7 56.3998C49.7 56.2998 49.6 56.0998 49.5 56.0998C48.7 55.7998 48.7 54.8998 48.8 54.4998C48.8 54.3998 48.8 54.3998 48.8 54.2998C46.8 55.0998 45.4 57.0998 45.4 59.2998C45.4 62.2998 47.8 64.6998 50.8 64.6998C51.5 64.6998 52.1 64.5998 52.8 64.3998C52.9 64.3998 52.9 64.2998 52.9 64.2998C53 64.1998 52.9 64.1998 52.8 64.0998Z" fill="#4FABF7"/>
<path d="M50.9 56C49.1 56 47.6 57.5 47.6 59.3C47.6 61.1 49.1 62.6 50.9 62.6C52.7 62.6 54.2 61.1 54.2 59.3C54.2 57.5 52.7 56 50.9 56Z" fill="#E9EFFF"/>
<path d="M50.9 62.6002C51.4 62.6002 51.9 62.5002 52.3 62.3002C52.3 62.2002 52.2 62.2002 52.2 62.1002C49.1 60.6002 49.6 57.4002 49.8 56.4002C49.8 56.3002 49.8 56.3002 49.7 56.2002C48.4 56.7002 47.6 57.9002 47.6 59.3002C47.6 61.1002 49.1 62.6002 50.9 62.6002Z" fill="#DAE2FE"/>
<path d="M41.5 55.1998L34.4 52.2998C31.6 52.2998 29.2 53.3998 27.3 55.1998L24.3 62.2998C24.3 64.9998 25.3 67.4998 27.1 69.1998C27.2 69.1998 27.3 69.2998 27.4 69.2998L34.4 69.9998C36.8 69.9998 39.3 69.6998 41.6 69.1998L44.5 62.2998C44.4 59.4998 43.3 56.9998 41.5 55.1998Z" fill="#2D3C6B"/>
<path d="M36.8 68.2C35.8 67.6 36 66.7 36.1 66.2C36.2 66 36.1 65.8 35.9 65.7C32.1 64 32.8 60 33 58.8C33.1 58.6 32.9 58.5 32.8 58.4C31.8 58 31.8 56.9 32 56.4C32.1 56.3 31.9 56.1 31.8 56C30.2 55.2 30.6 53.6 30.8 53.1C30.8 53 30.8 53 30.8 53C29.5 53.5 28.3 54.3 27.3 55.3L24.4 62.4C24.4 65.1 25.4 67.6 27.2 69.3C27.3 69.3 27.4 69.4 27.5 69.4L34.5 70.1C35.3 70.1 36.2 70 37.1 70C37 69.5 37 69 37.1 68.7C37 68.4 37 68.2 36.8 68.2Z" fill="#222D5B"/>
<path d="M30.7 58.4996L27.3 55.0996C25.5 56.8996 24.4 59.3996 24.4 62.1996H29.2C29.1 60.7996 29.7 59.4996 30.7 58.4996Z" fill="#DAE2FE"/>
<path d="M38.1 66.0002L41.3 69.2002C41.4 69.2002 41.5 69.1002 41.6 69.1002C43.3 67.3002 44.3 64.9002 44.3 62.2002H39.5C39.7 63.8002 39.1 65.1002 38.1 66.0002Z" fill="#E9EFFF"/>
<path d="M30.7 66L27.4 69.3C29.6 69.8 31.9 70 34.3 70C34.4 70 34.4 70 34.4 70V67.6C32.9 67.6 31.6 67 30.7 66Z" fill="#DAE2FE"/>
<path d="M34.4 52.2002V57.0002C35.9 57.0002 37.2 57.6002 38.2 58.5002L41.6 55.1002C39.7 53.3002 37.2 52.2002 34.4 52.2002Z" fill="#E9EFFF"/>
<path d="M34.4 68.9002C30.8 68.9002 27.8 66.0002 27.8 62.3002C27.8 58.6002 30.7 55.7002 34.4 55.7002C38.1 55.7002 41 58.6002 41 62.3002C40.9 65.9002 38 68.9002 34.4 68.9002Z" fill="#3C5082"/>
<path d="M36.8 68.2002C35.8 67.6002 36 66.7002 36.1 66.2002C36.2 66.0002 36.1 65.8002 35.9 65.7002C32.1 64.0002 32.8 60.0002 33 58.8002C33.1 58.6002 32.9 58.5002 32.8 58.4002C31.8 58.0002 31.8 56.9002 32 56.4002C32 56.3002 32 56.3002 32 56.2002C29.6 57.2002 27.9 59.6002 27.9 62.3002C27.9 65.9002 30.8 68.9002 34.5 68.9002C35.4 68.9002 36.3 68.7002 37.1 68.3002C37 68.2002 36.9 68.2002 36.8 68.2002Z" fill="#2D3C6B"/>
<path d="M34.4 58.2998C32.2 58.2998 30.4 60.0998 30.4 62.2998C30.4 64.4998 32.2 66.2998 34.4 66.2998C36.6 66.2998 38.4 64.4998 38.4 62.2998C38.4 60.0998 36.6 58.2998 34.4 58.2998Z" fill="#E9EFFF"/>
<path d="M34.4 66.3C35 66.3 35.6 66.2 36.1 65.9C36.1 65.8 36 65.8 35.9 65.7C32.1 64 32.8 60 33 58.8C33 58.7 33 58.6 32.9 58.5C31.4 59.1 30.3 60.5 30.3 62.3C30.4 64.5 32.2 66.3 34.4 66.3Z" fill="#DAE2FE"/>
<path d="M29.7 39.9005C31.1 39.5005 32.4 40.5005 32.5 40.5005C33.1 41.0005 34 40.9004 34.5 40.3004C35 39.7004 34.9 38.8004 34.4 38.3004C31.5 35.9004 26.7 36.7005 26.1 40.2005C25.9 41.8005 26.8 43.3004 27.8 43.8004C27.9 43.8004 29.3 44.5004 30.9 45.1004C29.7 42.8004 31.9 42.4005 31.9 42.4005C30.6 41.9005 29.5 41.4004 29 41.3004C28.8 40.9004 28.8 40.2005 29.7 39.9005Z" fill="#FFC839"/>
<path d="M38.3 22.9C37.8 22.8 37.5 23.4 37.8 23.8C38.4 24.6 38.8 25.5 39.1 26.5C39.4 27.5 39.4 28.5 39.4 29.4C39.3 29.9 39.9 30.2 40.3 29.9C41.1 29.3 42 28.9 43 28.6C39.9 26.2 41.4 22.5 41.4 22.5C40.2 22.9 39.3 23 38.3 22.9Z" fill="#E80054"/>
<path d="M43.8 10.6998C42.2 9.6998 43 7.7998 43 7.7998C42.9 7.8998 42.7 7.8998 42.6 7.8998C42.1 7.9998 41.7 7.9998 41.2 7.9998C41 7.9998 40.9 8.1998 41 8.3998C41.3 8.6998 41.5 9.1998 41.6 9.6998C41.7 10.1998 41.7 10.5998 41.7 11.0998C41.7 11.2998 41.9 11.3998 42.1 11.2998C42.4 10.9998 42.9 10.7998 43.4 10.6998C43.5 10.7998 43.7 10.7998 43.8 10.6998Z" fill="#E80054"/>
<path d="M31.6 3.90039C31 4.20039 30.1 4.70039 29.7 5.00039C29 5.40039 28.8 6.30039 29.2 7.00039C29.5 7.60039 30.2 7.80039 30.8 7.60039C30.9 7.60039 30.9 7.70039 30.9 7.70039C30.7 8.00039 30.6 8.20039 30.3 8.30039C30.2 8.40039 30.2 8.60039 30.4 8.60039L31.5 8.90039C31.6 8.90039 31.7 8.80039 31.7 8.70039C31.6 8.50039 31.6 8.20039 31.6 7.90039C31.6 7.80039 31.7 7.80039 31.7 7.80039C32.1 8.20039 32.8 8.40039 33.4 8.10039C30.7 7.10039 31.6 3.90039 31.6 3.90039Z" fill="#222D5B"/>
<path d="M18.8 3.90039C18.6 4.00039 18.4 4.10039 18.2 4.20039C17.6 4.80039 17.6 5.70039 18.1 6.30039C18.6 6.80039 19.9 8.10039 20 8.30039C20.2 8.50039 20.5 8.50039 20.6 8.30039C20.8 8.10039 21.6 7.30039 22.1 6.70039C18.8 7.10039 18.8 3.90039 18.8 3.90039Z" fill="#E80054"/>
<path d="M10.2 11.0003C10 10.8003 9.60001 10.4003 9.40001 9.70028C9.40001 9.60028 9.40001 9.60028 9.50001 9.60028C8.80001 9.70028 8.70001 9.20028 8.70001 9.20028C8.70001 9.30028 8.70001 9.30028 8.60001 9.30028C8.60001 9.30028 8.30001 9.40028 8.10001 9.20028C7.80001 8.80028 7.40001 8.80028 6.90001 8.90028C6.40001 9.10028 6.10001 9.60028 6.20001 10.2003C6.30001 10.5003 6.40001 10.8003 6.70001 10.9003C7.00001 11.0003 7.30001 11.1003 7.60001 11.0003C8.00001 10.9003 8.30001 10.6003 8.40001 10.2003C8.50001 10.1003 8.60001 9.90028 8.70001 9.90028C8.80001 9.90028 8.80001 9.90028 8.80001 10.0003C8.90001 10.8003 8.90001 11.3003 8.70001 11.5003C8.60001 11.6003 8.80001 11.8003 9.00001 11.8003L10.1 11.5003C10.3 11.3003 10.4 11.1003 10.2 11.0003Z" fill="#222D5B"/>
</g>
<defs>
<clipPath id="clip0_1125_446">
<rect width="70" height="70" fill="white"/>
</clipPath>
</defs>
</svg>
