<svg width="68" height="70" viewBox="0 0 68 70" fill="none" xmlns="http://www.w3.org/2000/svg">
<path d="M53.7 40.1998L59.7 29.7998L64 32.2998L58 42.6998L53.7 40.1998Z" fill="#C77E67"/>
<path d="M56.6999 45.6996L56.3999 46.2996C55.4999 47.8996 55.2999 49.6996 55.7999 51.1996V51.2996C55.7999 51.3996 55.7999 51.3996 55.7999 51.3996V51.4996C55.7999 51.5996 55.6999 51.6996 55.6999 51.7996L47.8999 65.1996L38.8999 60.9996L46.9999 46.7996C47.0999 46.6996 47.0999 46.6996 47.1999 46.5996C47.2999 46.4996 47.2999 46.4996 47.2999 46.4996C47.2999 46.4996 47.2999 46.4996 47.3999 46.4996H47.4999C47.5999 46.4996 47.7999 46.3996 47.8999 46.3996C47.9999 46.3996 48.0999 46.2996 48.1999 46.2996C48.2999 46.1996 48.4999 46.1996 48.5999 46.1996C48.6999 46.0996 48.8999 46.0996 48.9999 45.9996C49.2999 45.8996 49.5999 45.6996 49.8999 45.3996C49.9999 45.2996 49.9999 45.2996 50.0999 45.1996C50.5999 44.7996 50.9999 44.1996 51.3999 43.6996L51.6999 43.0996L56.6999 45.6996Z" fill="#DDEBFD"/>
<path d="M48.9999 53.2992L43.2999 63.1992L38.7999 61.0992L46.9999 46.8992C47.0999 46.7992 47.0999 46.7992 47.1999 46.6992L48.9999 53.2992Z" fill="#EDF6FF"/>
<path d="M55.6999 51.4998C55.6999 51.3998 55.6999 51.2998 55.6999 51.0998C55.1999 49.5998 55.2999 47.7998 56.2999 46.1998L56.5999 45.5998L51.7999 42.7998L51.4999 43.3998C50.5999 44.9998 49.0999 46.0998 47.5999 46.2998C47.4999 46.2998 47.3999 46.3998 47.2999 46.3998L49.0999 53.0998L55.6999 51.4998Z" fill="#CCE1FF"/>
<path d="M58.3999 26.5996C57.7999 27.6996 58.0999 29.0996 58.9999 29.6996L64.3999 32.7995C65.3999 33.3995 66.6999 32.8995 67.3999 31.7995C67.9999 30.6995 67.7999 29.2996 66.7999 28.6996L61.3999 25.5996C60.4999 25.0996 59.0999 25.4996 58.3999 26.5996Z" fill="#EEC06B"/>
<path d="M47.8 40.2999L49.3 37.7999C49.5 37.3999 50.1 37.1999 50.4 37.4999L62 44.1999C62.4 44.3999 62.6 44.9999 62.3 45.2999L60.8 47.7999C60.6 48.1999 60 48.3999 59.7 48.0999L48.1 41.3999C47.7 41.1999 47.6 40.6999 47.8 40.2999Z" fill="#8C818F"/>
<path d="M32.6 2.90039H36.7V56.7004H32.6V2.90039Z" fill="#8C818F"/>
<path d="M57.3 0H32.6V19.8H57.3C58.3 19.8 58.8 18.6 58.1 17.9L51.1 10.7C50.7 10.3 50.7 9.6 51.1 9.2L58.1 2C58.8 1.2 58.3 0 57.3 0Z" fill="#DF646E"/>
<path d="M51.0999 10.6996C50.6999 10.2996 50.6999 9.59961 51.0999 9.19961L58.0999 1.99961C58.7999 1.29961 58.2999 0.0996094 57.2999 0.0996094H52.3999C53.3999 0.0996094 53.8999 1.29961 53.1999 1.99961L46.1999 9.09961C45.7999 9.49961 45.7999 10.1996 46.1999 10.5996L53.1999 17.7996C53.8999 18.4996 53.3999 19.6996 52.3999 19.6996H57.2999C58.2999 19.6996 58.7999 18.4996 58.0999 17.7996L51.0999 10.6996Z" fill="#DC4955"/>
<path d="M59.8 68.8998H9.59998C14.3 60.5998 23.7 54.7998 34.7 54.7998C45.7 54.7998 55.1 60.5998 59.8 68.8998Z" fill="#F4DDB1"/>
<path d="M34.7 54.9004C33.6 54.9004 32.6 55.0004 31.5 55.0004C41 56.0004 49.1 61.4004 53.4 68.9004H59.7C55.1 60.6004 45.5 54.9004 34.7 54.9004Z" fill="#EFCB83"/>
<path d="M3.49995 39.2998C2.39995 39.2998 1.49995 39.9998 1.19995 40.9998C0.599951 43.1998 0.199951 45.3998 0.199951 47.7998C0.199951 56.9998 5.49995 64.8998 13.2 68.6998C13.9 68.9998 14.7 68.9998 15.3 68.6998C23.1 64.9998 28.4 56.9998 28.4 47.7998C28.4 45.3998 28 43.1998 27.4 40.9998C27.1 39.9998 26.1 39.2998 25.1 39.2998H3.49995Z" fill="#EEC06B"/>
<path d="M27.2999 40.9998C27 40.0998 26.2999 39.4998 25.2999 39.2998C25.5999 40.7998 25.7 42.1998 25.7 43.7998C25.7 52.9998 20.4 60.8998 12.7 64.6998C12 65.0998 11.2 65.0998 10.6 64.6998C7.49995 63.1998 4.79995 60.9998 2.69995 58.2998C4.99995 62.7998 8.69995 66.3998 13.2 68.6998C13.9 68.9998 14.7 68.9998 15.3 68.6998C23.1 64.9998 28.4 56.9998 28.4 47.7998C28.4 45.3998 28 43.1998 27.2999 40.9998Z" fill="#E9A52D"/>
<path d="M14.7 64.2996C14.4 64.3996 14.1 64.3996 13.9 64.2996C11.2 62.7996 9 60.5996 7.4 57.9996C5.4 54.8996 4.5 51.3996 4.5 47.7996C4.5 46.4996 4.6 45.2996 4.8 44.1996C4.9 43.7996 5.2 43.5996 5.6 43.5996H23.2C23.6 43.5996 23.9 43.8996 24 44.1996C24.2 45.3996 24.4 46.6996 24.4 47.7996C24.4 51.3996 23.4 54.9996 21.5 57.9996C19.6 60.5996 17.3 62.7996 14.7 64.2996Z" fill="#C77E67"/>
<path d="M13.7 64.2994C13.8 64.2994 13.8 64.3994 13.8 64.3994C14.1 64.4994 14.4 64.4994 14.6 64.3994C17.3 62.8994 19.5 60.6994 21.1 58.0994C21.5 57.3994 21.9 56.6994 22.3 55.8994C20.3 59.3994 17.3 62.2994 13.7 64.2994Z" fill="#BE694E"/>
<path d="M21.4 57.8L7.09995 43.5H5.49995C5.19995 43.5 4.89995 43.7 4.69995 44.1C4.79995 44.2 4.79995 44.2 4.79995 44.3L20 59.5C20.1 59.6 20.1 59.6 20.1 59.6C20.4 59.1 20.8 58.6 21.1 58.1C21.3 58 21.3 57.9 21.4 57.8Z" fill="#E9A52D"/>
<path d="M21.3 57.7002C20.9 58.3002 20.5 58.8002 20 59.3002L20.1 59.4002C20.2 59.5002 20.2 59.5002 20.2 59.5002C20.7 58.9002 21 58.3002 21.4 57.7002H21.3Z" fill="#E69824"/>
<path d="M14.3 48.3994C12.2 48.3994 10.5 50.0994 10.5 52.1994C10.5 54.2994 12.2 55.9994 14.3 55.9994C16.4 55.9994 18.1 54.2994 18.1 52.1994C18 50.0994 16.4 48.3994 14.3 48.3994Z" fill="#EEC06B"/>
<path d="M64.7 70.0004H4.6C4 70.0004 3.5 69.5004 3.5 68.9004C3.5 68.3004 4 67.9004 4.6 67.9004H64.7C65.3 67.9004 65.7 68.4004 65.7 68.9004C65.8 69.5004 65.4 70.0004 64.7 70.0004Z" fill="#EFCB83"/>
</svg>
