<svg width="70" height="70" viewBox="0 0 70 70" fill="none" xmlns="http://www.w3.org/2000/svg">
<g clip-path="url(#clip0_1125_538)">
<path d="M38.5 41.6002C37.9 40.7002 37.6 39.6002 37.7 38.5002C37.7 38.3002 37.8 38.1002 37.8 37.9002C37.8 37.0002 37.5 36.1002 37 35.4002L18.2 8.20023C16.7 6.10023 13.9 5.50023 11.8 7.00023C9.69996 8.50023 9.09996 11.3002 10.6 13.4002L22.9 31.3002L34.9 45.9002C35.3 44.2002 37.2 43.1002 39.5 43.1002L38.5 41.6002Z" fill="#C79A83"/>
<path d="M27.1001 31.0998L14.8001 13.3998C13.3001 11.2998 13.9001 8.39976 16.0001 6.99976C16.1001 6.89976 16.4001 6.79975 16.5001 6.69975C14.3001 5.49975 11.5001 6.29975 10.3001 8.69975C9.50006 10.1998 9.60006 12.0998 10.6001 13.4998L22.9001 31.3998L34.9001 45.9998C35.2001 44.8998 36.0001 44.0998 37.2001 43.5998L27.1001 31.0998Z" fill="#A07C6B"/>
<path d="M36.9 67.9004C39.9376 67.9004 42.4 65.438 42.4 62.4004C42.4 59.3628 39.9376 56.9004 36.9 56.9004C33.8625 56.9004 31.4 59.3628 31.4 62.4004C31.4 65.438 33.8625 67.9004 36.9 67.9004Z" fill="#F2CD6D"/>
<path d="M43.5 57.2998L51.2 61.4998L48 63.7998L43.5 57.2998Z" fill="#AF826E"/>
<path d="M51.2 61.5L54.7 63.4C54.5 64.1 54.1 64.7 53.4 65.2L51.2 66.7C49.8 67.7 47.8 67.3 46.9 65.9C46.8 65.7 46.7 65.5 46.7 65.3C46.7 64.9 46.9 64.6 47.2 64.4L48 63.8L51.2 61.5Z" fill="#C79A83"/>
<path d="M49.6 36.3996L46.2001 43.6996L44.3 43.7996L41.8 43.1996L45.8 34.5996C47 35.4996 48.3 35.9996 49.6 36.3996Z" fill="#799091"/>
<path d="M40.9 43.0004L38.2 55.5004H38.1C37.6 55.4004 35.1 55.5004 33.9 53.5004C34.8 51.0004 35.1 48.3004 34.7 45.7004C35.1 44.0004 37 42.9004 39.3 42.9004C39.8 42.9004 40.3 42.9004 40.9 43.0004Z" fill="#4689D3"/>
<path d="M44.4 43.8L43.4 48.6L42.7 51.8L41.7 56.4L38.2 55.6L40.9 43L41.9 43.2L44.4 43.8Z" fill="#5FA8ED"/>
<path d="M63.2 62.8002C63.4 63.1002 63.3 63.4002 63.1 63.6002C63 63.7002 63 63.7002 62.9 63.7002L59.2 64.7002C58.4 64.9002 57.4 64.8002 56.7 64.4002L54.9 63.4002L51.4 61.5002L43.7 57.3002L41.9 56.3002L42.9 51.7002L59 57.6002C59.6 57.8002 60 58.2002 60.3 58.6002L63.2 62.8002Z" fill="#C1D1E5"/>
<path d="M66.0999 54.2C66.2999 54.4 66.3999 54.8 66.1999 55C66.0999 55.1 66.1 55.1 66 55.1L59.5 58C59.2999 57.9 59.1 57.7 58.9 57.6L42.7 51.7L43.4 48.5L60.5999 49.8C60.9999 49.8 61.2 49.8 61.5 49.7L66.0999 54.2Z" fill="#D4E1F4"/>
<path d="M66.7 45.6002C67 45.8002 67 46.2002 66.8 46.4002C66.7 46.5002 66.7 46.5002 66.7 46.5002L62.3 49.3002C62.1 49.4002 61.8 49.6002 61.6 49.7002C61.3 49.8002 61 49.8002 60.7 49.8002L43.5 48.5002L44.6 43.7002L46.5 43.6002L61.4 42.6002C62.2 42.5002 63.1 42.8002 63.7 43.3002L66.7 45.6002Z" fill="#C1D1E5"/>
<path d="M12.1 53.0997L5.09998 60.0997C2.29998 57.2997 0.499976 53.6997 0.0999756 49.7997C4.39998 48.6997 8.99998 49.9997 12.1 53.0997Z" fill="#EA8E60"/>
<path d="M12.1 53.0996C15.3 56.2996 16.5 60.7996 15.4 65.0996C11.5 64.6996 7.79998 62.8996 5.09998 60.0996L12.1 53.0996Z" fill="#D8825B"/>
<path d="M17.5 47.7998L29.8 60.0998C26 63.8998 20.7 65.6998 15.4 65.0998C16.5 60.7998 15.2 56.2998 12.1 53.0998L17.5 47.7998Z" fill="#CE7B51"/>
<path d="M17.5 47.8004L12.1 53.2004C8.99999 50.0004 4.39999 48.8004 0.0999881 49.9004C-0.500012 44.5004 1.29999 39.2004 5.09999 35.4004L17.5 47.8004Z" fill="#DF8A59"/>
<path d="M34.8 45.7004C35.4 51.0004 33.6 56.3004 29.8 60.1004L17.5 47.8004L22.9 42.4004C26 45.5004 30.5 46.8004 34.8 45.7004Z" fill="#BA6847"/>
<path d="M22.9 42.4004L17.5 47.8004L5.09998 35.4004C8.89998 31.6004 14.2 29.8004 19.5 30.4004C18.5 34.7004 19.7 39.3004 22.9 42.4004Z" fill="#CC764C"/>
<path d="M29.8 35.3998L22.8 42.2998C19.6 39.0998 18.4 34.6998 19.5 30.2998C23.5 30.8998 27 32.6998 29.8 35.3998Z" fill="#BF6743"/>
<path d="M34.8 45.7C30.5 46.8 26 45.5 22.8 42.4L29.8 35.5C32.6 38.2 34.4 41.9 34.8 45.7Z" fill="#AD5A3D"/>
<path d="M4.39998 49.4999C2.99998 49.3999 1.49998 49.4999 0.0999756 49.8999C0.499976 53.7999 2.29998 57.3999 5.09998 60.1999L7.39998 57.8999C5.69998 55.4999 4.69998 52.7999 4.39998 49.8999C4.39998 49.6999 4.39998 49.5999 4.39998 49.4999Z" fill="#C17A5B"/>
<path d="M19.5 30.5C19.5 30.4 19.6 30.4 19.5 30.5C14.2 29.9 8.89998 31.7 5.09998 35.5L7.39998 37.8C7.99998 37 8.69998 36.2 9.39998 35.5C12.2 32.7 15.7 31 19.5 30.5Z" fill="#AA6549"/>
<path d="M7.39998 57.7998L5.09998 60.0998C7.89998 62.8998 11.5 64.6998 15.4 65.0998C15.5 64.6998 15.5 64.4998 15.6 64.0998C12.3 62.8998 9.39998 60.6998 7.39998 57.7998Z" fill="#B26B4F"/>
<path d="M7.39999 37.8L5.09999 35.5C1.29999 39.3 -0.500012 44.6 0.0999881 49.9C1.49999 49.5 2.89999 49.5 4.39999 49.5C3.99999 45.4 4.99999 41.2 7.39999 37.8Z" fill="#B27252"/>
<path d="M66.2 19.8002L66.9001 18.2002L63.7001 16.7002L65 13.8002L66 14.2002L66.7 12.6002L65.7 12.2002L66.1 11.2002L65 9.5002L64.1 11.5002L60.5 9.8002L62 6.9002L60.4001 6.2002L59 9.1002L55.4001 7.4002L56.2001 5.7002H54.3L53.9001 6.7002L52.9001 6.3002L52.2001 7.9002L53.2001 8.3002L51.7001 11.2002L48.4001 9.7002L47.7001 11.3002L51 12.8002L49.7001 15.7002L45.7001 13.9002L45 15.5002L49 17.3002L47.7001 20.2002L44.1 18.6002L43.4001 20.2002L46.8 21.8002L45.5 24.7002L44 24.1002L43.3 25.7002L44.8 26.4002L44 28.1002L45.6 28.8002L46.4001 27.0002L50 28.7002L48.3 32.3002L49.9001 33.0002L51.6 29.4002L55.2001 31.1002L54.4001 32.9002L56 33.6002L56.8 31.8002L58.3 32.5002L59 30.9002L57.5 30.2002L58.8 27.3002L62.3 28.9002L63 27.3002L59.5 25.7002L60.8 22.8002L64.8001 24.6002L65.5 23.0002L61.6 21.2002L62.9001 18.3002L66.2 19.8002ZM63.4001 13.0002L62.1 15.9002L58.5 14.2002L59.8 11.3002L63.4001 13.0002ZM54.7001 9.0002L58.3 10.7002L57 13.6002L53.4001 11.8002L54.7001 9.0002ZM52.6 13.5002L56.2001 15.2002L54.9001 18.1002L51.3 16.4002L52.6 13.5002ZM50.5 18.0002L54.1 19.7002L52.8 22.6002L49.1 21.0002L50.5 18.0002ZM47 25.5002L48.3 22.6002L51.9001 24.3002L50.6 27.2002L47 25.5002ZM55.8 29.5002L52.2001 27.8002L53.5 24.9002L57.1 26.6002L55.8 29.5002ZM57.9001 25.0002L54.3 23.3002L55.6 20.4002L59.2001 22.1002L57.9001 25.0002ZM60 20.5002L56.4001 18.8002L57.7001 15.9002L61.3 17.6002L60 20.5002Z" fill="#D4E1F4"/>
<path d="M13.2 11.9996C12.9 11.9996 12.6 11.8996 12.5 11.5996L12.4 11.2996C12.1 10.8996 12.3 10.3996 12.6 10.0996C13 9.79957 13.5 9.99957 13.8 10.2996L13.9 10.5996C14.2 10.9996 14 11.4996 13.7 11.7996C13.5 11.8996 13.4 11.9996 13.2 11.9996Z" fill="#F4F8FC"/>
<path d="M20.7001 23.3C20.4001 23.3 20.1001 23.2 20.0001 22.9L13.9001 13.7C13.6001 13.3 13.8001 12.8 14.2001 12.5C14.6001 12.2 15.1001 12.4 15.4001 12.7L21.5001 21.9C21.8001 22.3 21.6001 22.8 21.3001 23.1C21.1001 23.2 20.9001 23.3 20.7001 23.3Z" fill="#F4F8FC"/>
<path d="M66.5 18.7004C66.8 16.9004 66.7 15.0004 66.3 13.2004C66.1 12.4004 65.8 11.4004 65.4 10.7004C64.5 8.80044 63 7.30044 61.2 6.50044C59.3 5.70044 57.3 5.50044 55.2 6.00044C54.3 6.30044 53.4 6.60044 52.7 7.00044C51.1 7.80044 49.6 9.00044 48.4 10.4004C47.3 11.7004 46.4 13.0004 45.7 14.5004C45.6 14.6004 45.6 14.7004 45.6 14.9004C45 16.3004 44.5 17.7004 44.2 19.2004C43.8 21.0004 43.8 22.8004 44.1 24.5004C44.3 25.7004 44.7 26.9004 45.2 28.0004C46.1 29.9004 47.6 31.4004 49.4 32.2004C51.2 33.0004 53.3 33.2004 55.4 32.7004C56.6 32.4004 57.7 31.9004 58.8 31.2004C60.3 30.3004 61.7 29.0004 62.8 27.7004C63.8 26.5004 64.6 25.2004 65.2 23.8004C65.3 23.7004 65.3 23.5004 65.3 23.4004C65.8 22.0004 66.2 20.4004 66.5 18.7004ZM62.8 3.00044C69.8 6.20044 72.1 16.2004 67.9 25.2004C64.1 33.4004 56.3 38.0004 49.6 36.4004C48.2 36.0004 46.9 35.5004 45.8 34.6004C40.2 30.6004 38.7 21.6004 42.4 13.5004C46.7 4.50044 55.7 -0.199562 62.8 3.00044Z" fill="#A4BFC1"/>
</g>
<defs>
<clipPath id="clip0_1125_538">
<rect width="70" height="70" fill="white"/>
</clipPath>
</defs>
</svg>
