<svg width="70" height="70" viewBox="0 0 70 70" fill="none" xmlns="http://www.w3.org/2000/svg">
<path d="M9.44922 9.4502V60.5502H60.5492V9.4502H9.44922ZM56.4892 56.4902H13.5092V13.5102H56.4192V56.4902H56.4892Z" fill="#00358F"/>
<path d="M60.55 9.44988V60.5499H35V56.4199H56.49V13.5099H35V9.37988L60.55 9.44988Z" fill="#012453"/>
<path d="M24.4295 6.37012L23.5195 6.58012V19.8101L34.9995 26.5301L46.4795 19.8801V6.65012L45.5695 6.44012L24.4295 6.37012Z" fill="#00B3FE"/>
<path d="M35 6.37012V26.5301L46.48 19.8801V6.65012L45.57 6.44012L35 6.37012Z" fill="#0274F9"/>
<path d="M46.4795 6.65L34.9995 13.23L23.5195 6.65L34.9995 0L46.4795 6.65Z" fill="#01F5FF"/>
<path d="M46.48 6.65L35 13.23V0L46.48 6.65Z" fill="#00B3FE"/>
<path d="M24.4295 49.8398L23.5195 50.0498V63.2798L34.9995 69.9998L46.4795 63.3498V50.1198L45.5695 49.9098L24.4295 49.8398Z" fill="#00B3FE"/>
<path d="M35 49.8398V69.9998L46.48 63.3498V50.1198L45.57 49.9098L35 49.8398Z" fill="#0274F9"/>
<path d="M46.4795 50.1197L34.9995 56.7697L23.5195 50.1197L34.9995 43.4697L46.4795 50.1197Z" fill="#01F5FF"/>
<path d="M46.48 50.1197L35 56.7697V43.4697L46.48 50.1197Z" fill="#00B3FE"/>
<path d="M0.91 28.1406L0 28.3506V41.5806L11.48 48.2306L22.96 41.5806V28.3506L22.05 28.1406H0.91Z" fill="#00B3FE"/>
<path d="M11.4805 28.1406V48.3006L22.9605 41.6506V28.3506L22.0505 28.1406H11.4805Z" fill="#0274F9"/>
<path d="M22.96 28.3502L11.48 35.0002L0 28.3502L11.48 21.7002L22.96 28.3502Z" fill="#01F5FF"/>
<path d="M22.9605 28.3505L11.4805 35.0005V21.7705L22.9605 28.3505Z" fill="#00B3FE"/>
<path d="M47.9491 28.1406L47.0391 28.3506V41.5806L58.5191 48.2306L69.9991 41.5806V28.3506L69.0891 28.1406H47.9491Z" fill="#00B3FE"/>
<path d="M58.5195 28.1406V48.3006L69.9995 41.6506V28.3506L69.0895 28.1406H58.5195Z" fill="#0274F9"/>
<path d="M69.9991 28.3502L58.5191 35.0002L47.0391 28.3502L58.5191 21.7002L69.9991 28.3502Z" fill="#01F5FF"/>
<path d="M69.9995 28.3505L58.5195 35.0005V21.7705L69.9995 28.3505Z" fill="#00B3FE"/>
</svg>
