<svg width="70" height="70" viewBox="0 0 70 70" fill="none" xmlns="http://www.w3.org/2000/svg">
<path d="M63.4907 70H10.2207V0H63.4907C63.7707 0 64.0507 0.21 64.0507 0.56V69.44C63.9807 69.79 63.7707 70 63.4907 70Z" fill="#ADE7FF"/>
<path d="M63.4893 70H59.7793V0H63.4893C63.7693 0 64.0493 0.21 64.0493 0.56V69.44C63.9793 69.79 63.7693 70 63.4893 70Z" fill="#82D2F5"/>
<path d="M14.4192 70H6.50922C6.22922 70 5.94922 69.79 5.94922 69.44V0.56C6.01922 0.21 6.22922 0 6.50922 0H14.4192V70Z" fill="#FF2C5C"/>
<path d="M10.2207 0H14.4207V70H10.2207V0Z" fill="#E62753"/>
<path d="M26.74 28.6295V45.6395C26.74 45.9195 26.6 46.1295 26.39 46.2695C26.25 46.4095 26.11 46.4095 25.9 46.4095H8.68C8.54 46.4095 8.4 46.3395 8.26 46.3395L0.42 42.0695C0.28 41.9995 0.21 41.9295 0.14 41.8595C0.07 41.7195 0 41.5095 0 41.3695V24.3595C0 23.9395 0.35 23.5195 0.84 23.5195H18.13C18.2 23.5195 18.27 23.5195 18.34 23.5195C18.41 23.5195 18.48 23.5895 18.55 23.5895L22.61 25.8295L26.39 27.9295C26.6 28.0695 26.74 28.3495 26.74 28.6295Z" fill="#3D9ADB"/>
<path d="M18.34 23.5195V41.7895H0.14C0.07 41.7195 0 41.5095 0 41.3695V24.3595C0 23.9395 0.35 23.5195 0.84 23.5195H18.13C18.2 23.5195 18.27 23.5195 18.34 23.5195Z" fill="#4FB1F5"/>
<path d="M26.7395 28.6295V45.6395C26.7395 45.9195 26.5995 46.1295 26.3895 46.2695L22.4695 44.0995L18.2695 41.7895V23.5195C18.3395 23.5195 18.4095 23.5895 18.4795 23.5895L22.5395 25.8295L26.3195 27.9295C26.5995 28.0695 26.7395 28.3495 26.7395 28.6295Z" fill="#46A4E6"/>
<path d="M26.7407 28.6301V45.6401C26.7407 45.9201 26.6007 46.1301 26.3907 46.2701L22.4707 44.1001V25.8301L26.2507 27.9301C26.6007 28.0701 26.7407 28.3501 26.7407 28.6301Z" fill="#3D9ADB"/>
<path d="M69.9995 24.3595V41.3695C69.9995 41.5795 69.9295 41.7195 69.8595 41.8595C69.7895 41.9295 69.7195 41.9995 69.5795 42.0695L61.7395 46.4095C61.5995 46.4795 61.4595 46.4795 61.3195 46.4795H44.0295C43.8195 46.4795 43.6795 46.4095 43.5395 46.3395C43.3295 46.1995 43.1895 45.9895 43.1895 45.7095V28.6295C43.1895 28.3495 43.3295 28.0695 43.6095 27.9295L51.4495 23.5895C51.5195 23.5895 51.5894 23.5195 51.5894 23.5195C51.6595 23.5195 51.7295 23.5195 51.7995 23.5195H69.0895C69.6495 23.5195 69.9995 23.8695 69.9995 24.3595Z" fill="#FF943D"/>
<path d="M70.0002 24.3595V41.3695C70.0002 41.5795 69.9302 41.7195 69.8602 41.8595H51.6602V23.5195C51.7302 23.5195 51.8002 23.5195 51.8702 23.5195H69.1602C69.6502 23.5195 70.0002 23.8695 70.0002 24.3595Z" fill="#FFD659"/>
<path d="M70.0008 24.3595V41.3695C70.0008 41.5795 69.9308 41.7195 69.8608 41.8595H65.8008V23.5195H69.2308C69.6508 23.5195 70.0008 23.8695 70.0008 24.3595Z" fill="#FFBD54"/>
<path d="M51.6595 23.5195V41.7895L43.5395 46.2695C43.3295 46.1295 43.1895 45.9195 43.1895 45.6395V28.6295C43.1895 28.3495 43.3295 28.0695 43.6095 27.9295L51.4495 23.5895C51.5895 23.5895 51.6595 23.5895 51.6595 23.5195Z" fill="#FFBD54"/>
<path d="M31.0791 40.8102H23.1691C22.6091 40.8102 22.1191 40.3202 22.1191 39.7602C22.1191 39.2002 22.6091 38.7102 23.1691 38.7102H30.0291V32.3402H23.1691C22.6091 32.3402 22.1191 31.8502 22.1191 31.2902C22.1191 30.7302 22.6091 30.2402 23.1691 30.2402H31.0791C31.6391 30.2402 32.1291 30.7302 32.1291 31.2902V39.7602C32.0591 40.3202 31.6391 40.8102 31.0791 40.8102Z" fill="#685C79"/>
<path d="M46.8291 40.8096H38.9191C38.3591 40.8096 37.8691 40.3196 37.8691 39.7596V31.3596C37.8691 30.7996 38.3591 30.3096 38.9191 30.3096H46.8291C47.3891 30.3096 47.8791 30.7996 47.8791 31.3596C47.8791 31.9196 47.3891 32.4096 46.8291 32.4096H39.9691V38.7796H46.8291C47.3891 38.7796 47.8791 39.2696 47.8791 39.8296C47.8791 40.3196 47.3891 40.8096 46.8291 40.8096Z" fill="#685C79"/>
<path d="M40.2492 36.6098H29.7492C29.1892 36.6098 28.6992 36.1198 28.6992 35.5598C28.6992 34.9998 29.1892 34.5098 29.7492 34.5098H40.2492C40.8092 34.5098 41.2992 34.9998 41.2992 35.5598C41.2992 36.1198 40.8092 36.6098 40.2492 36.6098Z" fill="#594F69"/>
<path d="M23.0305 7.35H54.8805C55.4405 7.35 55.9305 6.86 55.9305 6.3C55.9305 5.74 55.4405 5.25 54.8805 5.25H23.0305C22.4705 5.25 21.9805 5.74 21.9805 6.3C21.9805 6.93 22.4705 7.35 23.0305 7.35Z" fill="#685C79"/>
<path d="M54.8805 10.9199H23.0305C22.4705 10.9199 21.9805 11.4099 21.9805 11.9699C21.9805 12.5299 22.4705 13.0199 23.0305 13.0199H54.8805C55.4405 13.0199 55.9305 12.5299 55.9305 11.9699C55.8605 11.4099 55.4405 10.9199 54.8805 10.9199Z" fill="#685C79"/>
<path d="M54.8805 16.5898H23.0305C22.4705 16.5898 21.9805 17.0798 21.9805 17.6398C21.9805 18.1998 22.4705 18.6898 23.0305 18.6898H54.8805C55.4405 18.6898 55.9305 18.1998 55.9305 17.6398C55.8605 17.0098 55.4405 16.5898 54.8805 16.5898Z" fill="#685C79"/>
<path d="M54.8805 51.3799H23.0305C22.4705 51.3799 21.9805 51.8699 21.9805 52.4299C21.9805 52.9899 22.4705 53.4799 23.0305 53.4799H54.8805C55.4405 53.4799 55.9305 52.9899 55.9305 52.4299C55.8605 51.7999 55.4405 51.3799 54.8805 51.3799Z" fill="#685C79"/>
<path d="M54.8805 56.9805H23.0305C22.4705 56.9805 21.9805 57.4705 21.9805 58.0305C21.9805 58.5905 22.4705 59.0805 23.0305 59.0805H54.8805C55.4405 59.0805 55.9305 58.5905 55.9305 58.0305C55.8605 57.4705 55.4405 56.9805 54.8805 56.9805Z" fill="#685C79"/>
<path d="M54.8805 62.6504H23.0305C22.4705 62.6504 21.9805 63.1404 21.9805 63.7004C21.9805 64.2604 22.4705 64.7504 23.0305 64.7504H54.8805C55.4405 64.7504 55.9305 64.2604 55.9305 63.7004C55.8605 63.0704 55.4405 62.6504 54.8805 62.6504Z" fill="#685C79"/>
</svg>
