<svg width="70" height="70" viewBox="0 0 70 70" fill="none" xmlns="http://www.w3.org/2000/svg">
<path d="M56.4907 13.5102L59.7107 10.2902C46.0607 -3.35977 23.8707 -3.35977 10.2207 10.2902L13.4407 13.5102H56.4907Z" fill="#B97A0A"/>
<path d="M59.7802 10.2207L56.5602 13.4407H13.5102L10.2902 10.2207C-3.35977 23.8707 -3.35977 46.0607 10.2902 59.7107L13.5102 56.4907H56.5602L59.7802 59.7107C73.4302 46.0607 73.4302 23.9407 59.7802 10.2207Z" fill="#D78E0C"/>
<path d="M13.511 56.4902L10.291 59.7102C23.941 73.3602 46.131 73.3602 59.781 59.7102L56.561 56.4902H13.511Z" fill="#B97A0A"/>
<path d="M35.0008 65.4498C51.8179 65.4498 65.4508 51.8169 65.4508 34.9998C65.4508 18.1827 51.8179 4.5498 35.0008 4.5498C18.1837 4.5498 4.55078 18.1827 4.55078 34.9998C4.55078 51.8169 18.1837 65.4498 35.0008 65.4498Z" fill="#ECAB2C"/>
<path d="M35.0009 62.3699C50.1169 62.3699 62.3709 50.1159 62.3709 34.9999C62.3709 19.8838 50.1169 7.62988 35.0009 7.62988C19.8848 7.62988 7.63086 19.8838 7.63086 34.9999C7.63086 50.1159 19.8848 62.3699 35.0009 62.3699Z" fill="#FFC864"/>
<path d="M19.4595 13.7202C19.3195 13.7202 19.1795 13.7202 19.1095 13.7202L13.0895 7.7002C12.4595 8.1902 11.8295 8.7502 11.2695 9.3102L17.2195 15.2602C16.7295 16.5202 17.3595 17.9202 18.6195 18.4102C19.8795 18.9002 21.2795 18.2702 21.7695 17.0102C22.2595 15.7502 21.6295 14.3502 20.3695 13.8602C20.0895 13.7202 19.7395 13.7202 19.4595 13.7202Z" fill="#B97A0A"/>
<path d="M50.5402 18.5502C51.8702 18.5502 52.9902 17.5002 52.9902 16.1002C52.9902 15.8202 52.9202 15.5402 52.8502 15.2602L58.8002 9.3102C58.1702 8.7502 57.6102 8.2602 56.9802 7.7002L50.9602 13.7202C50.8202 13.7202 50.6802 13.7202 50.6102 13.7202C49.2802 13.7202 48.1602 14.8402 48.1602 16.1702C48.1602 17.5002 49.2102 18.5502 50.5402 18.5502Z" fill="#B97A0A"/>
<path d="M52.7808 54.7401C53.2708 53.4801 52.6408 52.0801 51.3808 51.5901C50.1208 51.1001 48.7208 51.7301 48.2308 52.9901C47.7408 54.2501 48.3708 55.6501 49.6308 56.1401C49.9108 56.2101 50.1908 56.2801 50.4708 56.2801C50.6108 56.2801 50.7508 56.2801 50.8208 56.2801L56.8408 62.3001C57.4708 61.8101 58.1008 61.2501 58.6608 60.6901L52.7808 54.7401Z" fill="#B97A0A"/>
<path d="M19.4612 51.4502C18.1312 51.4502 17.0112 52.5002 17.0112 53.9002C17.0112 54.1802 17.0812 54.4602 17.1512 54.7402L11.2012 60.6902C11.8312 61.2502 12.3912 61.8102 13.0212 62.3002L19.0412 56.2802C19.1812 56.2802 19.3212 56.2802 19.3912 56.2802C20.7212 56.2802 21.8412 55.1602 21.8412 53.8302C21.8412 52.5002 20.7912 51.4502 19.4612 51.4502Z" fill="#B97A0A"/>
<path d="M19.4594 53.9004C18.1294 53.9004 17.0094 54.9504 17.0094 56.3504C17.0094 56.6304 17.0794 56.9104 17.1494 57.1904L8.95943 65.4504H5.45943C4.75943 64.2604 3.28943 63.9104 2.09943 64.5404C0.909426 65.2404 0.559427 66.7104 1.18943 67.9004C1.81943 69.0904 3.35943 69.4404 4.54943 68.8104C4.89943 68.6004 5.24943 68.3204 5.45943 67.9004H9.44943C9.79943 67.9004 10.0794 67.7604 10.2894 67.5504L19.1094 58.7304C20.4394 58.9404 21.6994 58.0304 21.9094 56.7004C22.1194 55.3704 21.2094 54.1104 19.8794 53.9004C19.7394 53.9004 19.5994 53.9004 19.4594 53.9004Z" fill="#ECAB2C"/>
<path d="M66.6388 64.1903C65.7988 64.1903 64.9588 64.6803 64.5388 65.3803H61.0388L52.7788 57.1903C53.2688 55.9303 52.6388 54.5303 51.3788 54.0403C50.1188 53.5503 48.7188 54.1803 48.2288 55.4403C47.7388 56.7003 48.3688 58.1003 49.6288 58.5903C50.0488 58.7303 50.4688 58.8003 50.8888 58.7303L59.7088 67.5503C59.9188 67.7603 60.2688 67.9003 60.5488 67.9003H64.5388C65.2388 69.0903 66.7088 69.4403 67.8988 68.8103C69.0888 68.1103 69.4388 66.6403 68.8088 65.4503C68.3188 64.6803 67.5488 64.1903 66.6388 64.1903Z" fill="#ECAB2C"/>
<path d="M19.4586 11.2702C19.3186 11.2702 19.1786 11.2702 19.1086 11.2702L10.2886 2.52019C10.0786 2.24019 9.72859 2.10019 9.44859 2.10019H5.45859C4.75859 0.980191 3.28859 0.560191 2.09859 1.26019C0.908585 1.96019 0.558585 3.43019 1.25859 4.55019C1.95859 5.67019 3.42859 6.09019 4.61859 5.46019C4.96859 5.25019 5.31859 4.97019 5.52859 4.55019H9.02859L17.2886 12.8102C16.7986 14.0702 17.4286 15.4702 18.6886 15.9602C19.9486 16.4502 21.3486 15.8202 21.8386 14.5602C22.3286 13.3002 21.6986 11.9002 20.4386 11.4102C20.0886 11.3402 19.7386 11.2702 19.4586 11.2702Z" fill="#ECAB2C"/>
<path d="M50.5387 16.1004C51.8687 16.1004 52.9887 15.0504 52.9887 13.6504C52.9887 13.3704 52.9187 13.0904 52.8487 12.8104L61.0387 4.5504H64.5387C65.2387 5.7404 66.7087 6.0904 67.8987 5.4604C69.0887 4.8304 69.4387 3.2904 68.8087 2.1004C68.1087 0.910403 66.6387 0.560403 65.4487 1.1904C65.0987 1.4004 64.7487 1.6804 64.5387 2.1004H60.5487C60.1987 2.1004 59.9187 2.2404 59.7087 2.4504L50.8887 11.2704C49.5587 11.0604 48.2987 11.9704 48.0887 13.3004C47.8787 14.6304 48.7887 15.8904 50.1187 16.1004C50.2587 16.1004 50.3987 16.1004 50.5387 16.1004Z" fill="#ECAB2C"/>
<path d="M55.7193 46.9709V23.0309L34.9993 11.1309L14.2793 23.0309V46.9009L34.9993 58.8709L55.7193 46.9709Z" fill="#ECAB2C"/>
<path d="M26.4602 20.7207C25.7602 20.7207 25.2702 21.2807 25.2702 21.9107L25.2002 40.8107L20.3702 25.2007C20.1602 24.5707 19.4602 24.2207 18.8302 24.4307C18.3402 24.5707 17.9902 25.0607 17.9902 25.6207V45.0807C17.9902 45.7807 18.5502 46.2707 19.1802 46.2707C19.8802 46.2707 20.3702 45.7107 20.3702 45.0807V33.6007L25.2002 49.0707C25.4102 49.7007 26.1102 50.0507 26.7402 49.8407C27.2302 49.7007 27.5802 49.2107 27.5802 48.6507L27.7202 21.8407C27.7202 21.2107 27.1602 20.7207 26.4602 20.7207Z" fill="#B97A0A"/>
<path d="M51.7296 24.5001L48.2296 22.6101C48.1596 22.5401 48.0896 22.5401 47.9496 22.4701L44.4496 20.5801C43.8896 20.2301 43.1196 20.5101 42.7696 21.0701C42.4196 21.6301 42.6996 22.4001 43.2596 22.7501L46.2696 24.3601V46.2701C46.2696 46.9701 46.8296 47.4602 47.4596 47.4602C48.1596 47.4602 48.6496 46.9001 48.6496 46.2701V25.6201L50.5396 26.6001C51.0996 26.9501 51.8696 26.7401 52.2196 26.1101C52.4996 25.5501 52.2896 24.8501 51.7296 24.5001Z" fill="#B97A0A"/>
<path d="M40.3896 18.4102L35.8396 15.9602C35.4896 15.7502 34.9996 15.7502 34.6496 15.9602L30.6596 18.4102C30.3096 18.6202 30.0996 19.0402 30.0996 19.4602V51.1002C30.0996 51.8002 30.6596 52.2902 31.2896 52.2902C31.9196 52.2902 32.4796 51.7302 32.4796 51.1002V36.1902H38.5696C39.2696 36.1902 39.7596 35.6302 39.7596 35.0002C39.7596 34.3002 39.1996 33.8102 38.5696 33.8102H32.4796V20.1602L35.2796 18.4802L39.1996 20.5802C39.7596 20.9302 40.5296 20.7202 40.8796 20.0902C41.2296 19.4602 41.0196 18.7602 40.3896 18.4102Z" fill="#B97A0A"/>
</svg>
