<svg width="70" height="70" viewBox="0 0 70 70" fill="none" xmlns="http://www.w3.org/2000/svg">
<path d="M2.52 62.51H67.55C68.95 62.51 70.07 61.39 70.07 59.99V14.98C70.07 13.58 68.95 12.46 67.55 12.46H2.52C1.12 12.46 0 13.58 0 14.98V59.99C0 61.39 1.12 62.51 2.52 62.51Z" fill="#0A5078"/>
<path d="M6.2307 57.47H63.7007C64.4007 57.47 64.9607 56.91 64.9607 56.21V18.76C64.9607 18.06 64.4007 17.5 63.7007 17.5H6.2307C5.5307 17.5 4.9707 18.06 4.9707 18.76V56.28C4.9707 56.91 5.5307 57.47 6.2307 57.47Z" fill="#00A0C8"/>
<path d="M61.2505 26.2498C61.9505 26.2498 62.5105 25.6898 62.5105 24.9898C62.5105 24.2898 61.9505 23.7298 61.2505 23.7298H55.0205V18.7598H61.2505C61.9505 18.7598 62.5105 18.1998 62.5105 17.4998C62.5105 16.7998 61.9505 16.2398 61.2505 16.2398H55.0205C55.0205 12.1098 51.6605 8.74977 47.5305 8.74977V2.51977C47.5305 1.81977 46.9705 1.25977 46.2705 1.25977C45.5705 1.25977 45.0105 1.81977 45.0105 2.51977V8.74977H40.0405V2.51977C40.0405 1.81977 39.4805 1.25977 38.7805 1.25977C38.0805 1.25977 37.5205 1.81977 37.5205 2.51977V8.74977H32.5505V2.51977C32.5505 1.81977 31.9905 1.25977 31.2905 1.25977C30.5905 1.25977 30.0305 1.81977 30.0305 2.51977V8.74977H25.0605V2.51977C25.0605 1.81977 24.5005 1.25977 23.8005 1.25977C23.1005 1.25977 22.5405 1.81977 22.5405 2.51977V8.74977C18.4105 8.74977 15.0505 12.1098 15.0505 16.2398H8.82055C8.12055 16.2398 7.56055 16.7998 7.56055 17.4998C7.56055 18.1998 8.12055 18.7598 8.82055 18.7598H15.0505V23.7298H8.82055C8.12055 23.7298 7.56055 24.2898 7.56055 24.9898C7.56055 25.6898 8.12055 26.2498 8.82055 26.2498H15.0505V31.2198H8.82055C8.12055 31.2198 7.56055 31.7798 7.56055 32.4798C7.56055 33.1798 8.12055 33.7398 8.82055 33.7398H15.0505V38.7098H8.82055C8.12055 38.7098 7.56055 39.2698 7.56055 39.9698C7.56055 40.6698 8.12055 41.2298 8.82055 41.2298H15.0505C15.0505 45.3598 18.4105 48.7198 22.5405 48.7198V54.9498C22.5405 55.6498 23.1005 56.2098 23.8005 56.2098C24.5005 56.2098 25.0605 55.6498 25.0605 54.9498V48.7198H30.0305V54.9498C30.0305 55.6498 30.5905 56.2098 31.2905 56.2098C31.9905 56.2098 32.5505 55.6498 32.5505 54.9498V48.7198H37.5205V54.9498C37.5205 55.6498 38.0805 56.2098 38.7805 56.2098C39.4805 56.2098 40.0405 55.6498 40.0405 54.9498V48.7198H45.0105V54.9498C45.0105 55.6498 45.5705 56.2098 46.2705 56.2098C46.9705 56.2098 47.5305 55.6498 47.5305 54.9498V48.7198C51.6605 48.7198 55.0205 45.3598 55.0205 41.2298H61.2505C61.9505 41.2298 62.5105 40.6698 62.5105 39.9698C62.5105 39.2698 61.9505 38.7098 61.2505 38.7098H55.0205V33.7398H61.2505C61.9505 33.7398 62.5105 33.1798 62.5105 32.4798C62.5105 31.7798 61.9505 31.2198 61.2505 31.2198H55.0205V26.2498H61.2505Z" fill="#0082AA"/>
<path d="M39.9693 67.4798H30.0293V62.5098H40.0393V67.4798H39.9693Z" fill="#0A5078"/>
<path d="M20.0195 70.0005H50.0495C50.0495 68.6005 48.9295 67.4805 47.5295 67.4805H22.4695C21.1395 67.4805 20.0195 68.6005 20.0195 70.0005Z" fill="#0A5078"/>
<path d="M39.9693 63.7698H30.0293V62.5098H40.0393V63.7698H39.9693Z" fill="#00325A"/>
<path d="M47.5305 47.5302H22.4705C18.3405 47.5302 14.9805 44.1702 14.9805 40.0402V14.9802C14.9805 10.8502 18.3405 7.49023 22.4705 7.49023H47.4605C51.5905 7.49023 54.9505 10.8502 54.9505 14.9802V39.9702C55.0205 44.1702 51.6605 47.5302 47.5305 47.5302Z" fill="#0A5078"/>
<path d="M47.5312 43.7497H22.4712C21.0712 43.7497 19.9512 42.6297 19.9512 41.2297V16.2397C19.9512 14.8397 21.0712 13.7197 22.4712 13.7197H47.4612C48.8612 13.7197 49.9812 14.8397 49.9812 16.2397V41.2297C49.9812 42.6297 48.8612 43.7497 47.5312 43.7497Z" fill="#00325A"/>
<path d="M47.5312 42.49H22.4712C21.0712 42.49 19.9512 41.37 19.9512 39.97V14.98C19.9512 13.58 21.0712 12.46 22.4712 12.46H47.4612C48.8612 12.46 49.9812 13.58 49.9812 14.98V39.97C49.9812 41.37 48.8612 42.49 47.5312 42.49Z" fill="#DC9600"/>
<path d="M24.9902 36.26V18.76C24.9902 18.06 25.5502 17.5 26.2502 17.5H43.7502C44.4502 17.5 45.0102 18.06 45.0102 18.76V36.26C45.0102 36.96 44.4502 37.52 43.7502 37.52H26.2502C25.5502 37.52 24.9902 36.96 24.9902 36.26Z" fill="#FAB400"/>
<path d="M23.7307 0C23.0307 0 22.4707 0.56 22.4707 1.26V7.49H24.9907V1.26C24.9907 0.56 24.4307 0 23.7307 0Z" fill="#FAB400"/>
<path d="M22.4707 6.23047H24.9907V7.49047H22.4707V6.23047Z" fill="#DC9600"/>
<path d="M31.2209 0C30.5209 0 29.9609 0.56 29.9609 1.26V7.49H32.4809V1.26C32.4809 0.56 31.9209 0 31.2209 0Z" fill="#FAB400"/>
<path d="M30.0293 6.23047H32.5493V7.49047H30.0293V6.23047Z" fill="#DC9600"/>
<path d="M38.7795 0C38.0795 0 37.5195 0.56 37.5195 1.26V7.49H40.0395V1.26C39.9695 0.56 39.4095 0 38.7795 0Z" fill="#FAB400"/>
<path d="M37.5195 6.23047H40.0395V7.49047H37.5195V6.23047Z" fill="#DC9600"/>
<path d="M46.2698 0C45.5698 0 45.0098 0.56 45.0098 1.26V7.49H47.5298V1.26C47.5298 0.56 46.9698 0 46.2698 0Z" fill="#FAB400"/>
<path d="M45.0098 6.23047H47.5298V7.49047H45.0098V6.23047Z" fill="#DC9600"/>
<path d="M23.7307 55.0203C23.0307 55.0203 22.4707 54.4603 22.4707 53.7603V47.5303H24.9907V53.7603C24.9907 54.4603 24.4307 55.0203 23.7307 55.0203Z" fill="#FAB400"/>
<path d="M22.4707 47.5303H24.9907V48.7903H22.4707V47.5303Z" fill="#DC9600"/>
<path d="M31.2209 55.0203C30.5209 55.0203 29.9609 54.4603 29.9609 53.7603V47.5303H32.4809V53.7603C32.4809 54.4603 31.9209 55.0203 31.2209 55.0203Z" fill="#FAB400"/>
<path d="M30.0293 47.5303H32.5493V48.7903H30.0293V47.5303Z" fill="#DC9600"/>
<path d="M38.7795 55.0203C38.0795 55.0203 37.5195 54.4603 37.5195 53.7603V47.5303H40.0395V53.7603C39.9695 54.4603 39.4095 55.0203 38.7795 55.0203Z" fill="#FAB400"/>
<path d="M37.5195 47.5303H40.0395V48.7903H37.5195V47.5303Z" fill="#DC9600"/>
<path d="M46.2698 55.0203C45.5698 55.0203 45.0098 54.4603 45.0098 53.7603V47.5303H47.5298V53.7603C47.5298 54.4603 46.9698 55.0203 46.2698 55.0203Z" fill="#FAB400"/>
<path d="M45.0098 47.5303H47.5298V48.7903H45.0098V47.5303Z" fill="#DC9600"/>
<path d="M7.49023 38.7795C7.49023 39.4795 8.05023 40.0395 8.75023 40.0395H14.9802V37.5195H8.75023C8.05023 37.5195 7.49023 38.0795 7.49023 38.7795Z" fill="#FAB400"/>
<path d="M13.7207 39.9702V37.4502H14.9807V39.9702H13.7207Z" fill="#DC9600"/>
<path d="M7.49023 31.22C7.49023 31.92 8.05023 32.48 8.75023 32.48H14.9802V29.96H8.75023C8.05023 30.03 7.49023 30.59 7.49023 31.22Z" fill="#FAB400"/>
<path d="M13.7207 32.48V29.96H14.9807V32.48H13.7207Z" fill="#DC9600"/>
<path d="M7.49023 23.7297C7.49023 24.4297 8.05023 24.9897 8.75023 24.9897H14.9802V22.4697H8.75023C8.05023 22.4697 7.49023 23.0297 7.49023 23.7297Z" fill="#FAB400"/>
<path d="M13.7207 24.9897V22.4697H14.9807V24.9897H13.7207Z" fill="#DC9600"/>
<path d="M7.49023 16.2405C7.49023 16.9405 8.05023 17.5005 8.75023 17.5005H14.9802V14.9805H8.75023C8.05023 14.9805 7.49023 15.5405 7.49023 16.2405Z" fill="#FAB400"/>
<path d="M13.7207 17.5005V14.9805H14.9807V17.5005H13.7207Z" fill="#DC9600"/>
<path d="M62.5095 38.7795C62.5095 39.4795 61.9495 40.0395 61.2495 40.0395H55.0195V37.5195H61.2495C61.9495 37.5195 62.5095 38.0795 62.5095 38.7795Z" fill="#FAB400"/>
<path d="M55.0195 39.9702V37.4502H56.2795V39.9702H55.0195Z" fill="#DC9600"/>
<path d="M62.5095 31.22C62.5095 31.92 61.9495 32.48 61.2495 32.48H55.0195V29.96H61.2495C61.9495 30.03 62.5095 30.59 62.5095 31.22Z" fill="#FAB400"/>
<path d="M55.0195 32.48V29.96H56.2795V32.48H55.0195Z" fill="#DC9600"/>
<path d="M62.5095 23.7297C62.5095 24.4297 61.9495 24.9897 61.2495 24.9897H55.0195V22.4697H61.2495C61.9495 22.4697 62.5095 23.0297 62.5095 23.7297Z" fill="#FAB400"/>
<path d="M55.0195 24.9897V22.4697H56.2795V24.9897H55.0195Z" fill="#DC9600"/>
<path d="M62.5095 16.2405C62.5095 16.9405 61.9495 17.5005 61.2495 17.5005H55.0195V14.9805H61.2495C61.9495 14.9805 62.5095 15.5405 62.5095 16.2405Z" fill="#FAB400"/>
<path d="M55.0195 17.5005V14.9805H56.2795V17.5005H55.0195Z" fill="#DC9600"/>
<path d="M33.6691 18.34C33.4591 17.85 33.0391 17.5 32.4791 17.5C31.9191 17.5 31.4991 17.85 31.2891 18.34L25.0591 35.84C24.8491 36.47 25.1991 37.17 25.8291 37.45C26.4591 37.66 27.2291 37.31 27.4391 36.68L28.9091 32.48H36.0491L37.5191 36.68C37.7291 37.17 38.1491 37.52 38.7091 37.52C38.8491 37.52 38.9891 37.52 39.1291 37.45C39.7591 37.24 40.1091 36.47 39.8991 35.84L33.6691 18.34ZM29.8191 30.03L32.4791 22.47L35.1391 30.03H29.8191Z" fill="#C80A50"/>
<path d="M43.7483 17.5C43.0483 17.5 42.4883 18.06 42.4883 18.76V36.26C42.4883 36.96 43.0483 37.52 43.7483 37.52C44.4483 37.52 45.0083 36.96 45.0083 36.26V18.76C45.0083 18.06 44.4483 17.5 43.7483 17.5Z" fill="#C80A50"/>
</svg>
