<svg width="70" height="70" viewBox="0 0 70 70" fill="none" xmlns="http://www.w3.org/2000/svg">
<path d="M61.25 29.6094H65.94C68.18 29.6094 70 31.4294 70 33.6694C70 35.9094 68.18 37.7294 65.94 37.7294H61.25V29.6094Z" fill="#5B3719"/>
<path d="M0 16.1699H6.58V21.5599H0V16.1699Z" fill="#5B3719"/>
<path d="M61.95 21.5593V34.9993L47.11 21.5593H5.39C2.45 21.5593 0 19.1793 0 16.1693C0 13.1593 2.38 10.7793 5.39 10.7793H51.17C57.12 10.7793 61.95 15.6093 61.95 21.5593Z" fill="#7A4922"/>
<path d="M29.6092 36.3298C40.7433 36.3298 49.7692 27.3038 49.7692 16.1698C49.7692 5.0357 40.7433 -3.99023 29.6092 -3.99023C18.4752 -3.99023 9.44922 5.0357 9.44922 16.1698C9.44922 27.3038 18.4752 36.3298 29.6092 36.3298Z" fill="#F9A40E"/>
<path d="M29.6095 31.0101C37.8054 31.0101 44.4495 24.366 44.4495 16.1701C44.4495 7.97417 37.8054 1.33008 29.6095 1.33008C21.4136 1.33008 14.7695 7.97417 14.7695 16.1701C14.7695 24.366 21.4136 31.0101 29.6095 31.0101Z" fill="#936108"/>
<path d="M34.9309 16.1702C36.8209 14.3502 36.8209 11.3402 35.0009 9.5202C34.4409 8.9602 33.8109 8.61019 33.1109 8.33019V7.28019C33.1109 6.5102 32.4809 5.9502 31.7809 5.9502C31.0809 5.9502 30.4509 6.5802 30.4509 7.28019V8.1202H28.8409V7.28019C28.8409 6.5102 28.2109 5.9502 27.5109 5.9502C26.7409 5.9502 26.1809 6.5802 26.1809 7.28019V8.1202H24.2909C23.5209 8.1202 22.9609 8.7502 22.9609 9.4502C22.9609 10.1502 23.5909 10.7802 24.2909 10.7802H25.6209V21.5602H24.2909C23.5209 21.5602 22.9609 22.1902 22.9609 22.8902C22.9609 23.6602 23.5909 24.2202 24.2909 24.2202H26.1809V25.0602C26.1809 25.8302 26.8109 26.3902 27.5109 26.3902C28.2809 26.3902 28.8409 25.7602 28.8409 25.0602V24.2202H30.4509V25.0602C30.4509 25.8302 31.0809 26.3902 31.7809 26.3902C32.4809 26.3902 33.1109 25.7602 33.1109 25.0602V24.0102C35.5609 23.1702 36.8909 20.5102 36.1209 18.0602C35.8409 17.3602 35.4909 16.6602 34.9309 16.1702ZM31.6409 14.8402H28.2809V10.7802H31.6409C32.7609 10.7802 33.6709 11.6902 33.6709 12.8102C33.6709 13.9302 32.7609 14.8402 31.6409 14.8402ZM31.6409 21.5602H28.2809V17.5002H31.6409C32.7609 17.5002 33.6709 18.4102 33.6709 19.5302C33.6709 20.6502 32.7609 21.5602 31.6409 21.5602Z" fill="#F9A40E"/>
<path d="M48.44 74.0598H13.44C6.02 74.0598 0 68.0398 0 60.6198V16.7998L0.21 17.6398C0.84 19.9498 2.94 21.4898 5.39 21.4898H48.44C55.86 21.4898 61.88 27.5098 61.88 34.9298V60.4798C61.95 68.0398 55.93 74.0598 48.44 74.0598Z" fill="#5B3719"/>
<path d="M35 59.2202C35 61.4602 33.18 63.2802 30.94 63.2802C29.26 63.2802 27.72 62.2302 27.16 60.6202H14.84C14.07 60.6202 13.51 59.9902 13.51 59.2902V53.9002H0V51.2402H14.84C15.61 51.2402 16.17 51.8702 16.17 52.5702V57.9602H27.16C27.93 55.8602 30.24 54.7402 32.34 55.5102C33.95 56.0002 35 57.5402 35 59.2202Z" fill="#A3612D"/>
<path d="M35 47.1099C35 49.3499 33.18 51.1698 30.94 51.1698C29.26 51.1698 27.72 50.1199 27.16 48.5099H0V45.8498H27.16C27.93 43.7498 30.24 42.6298 32.34 43.3998C33.95 43.8898 35 45.4299 35 47.1099Z" fill="#A3612D"/>
<path d="M35 33.6694C35 35.9094 33.18 37.7294 30.94 37.7294C29.26 37.7294 27.72 36.6794 27.16 35.0694H16.17V41.7894C16.17 42.5594 15.54 43.1194 14.84 43.1194H0V40.4594H13.44V33.7394C13.44 32.9694 14.07 32.4094 14.77 32.4094H27.09C27.86 30.3094 30.17 29.1894 32.27 29.9594C33.95 30.3794 35 31.9194 35 33.6694Z" fill="#A3612D"/>
<path d="M69.9991 33.6699V47.1099C69.9991 50.8199 66.9891 53.8299 63.2791 53.8299H51.1691C46.6891 53.8299 43.1191 50.1899 43.1191 45.7799C43.1191 41.3699 46.7591 37.7299 51.1691 37.7299H66.0091C68.1791 37.6599 69.9991 35.9099 69.9991 33.6699Z" fill="#7A4922"/>
<path d="M51.1705 49.1399C53.0262 49.1399 54.5305 47.6356 54.5305 45.7799C54.5305 43.9242 53.0262 42.4199 51.1705 42.4199C49.3149 42.4199 47.8105 43.9242 47.8105 45.7799C47.8105 47.6356 49.3149 49.1399 51.1705 49.1399Z" fill="#F9A40E"/>
<path d="M35 33.6694C35 35.9094 33.18 37.7294 30.94 37.7294C29.26 37.7294 27.72 36.6794 27.16 35.0694H16.17V41.7894C16.17 42.5594 15.54 43.1194 14.84 43.1194H0V40.4594H13.44V33.7394C13.44 32.9694 14.07 32.4094 14.77 32.4094H27.09C27.86 30.3094 30.17 29.1894 32.27 29.9594C33.95 30.3794 35 31.9194 35 33.6694Z" fill="#7A4922"/>
<path d="M35 47.1099C35 49.3499 33.18 51.1698 30.94 51.1698C29.26 51.1698 27.72 50.1199 27.16 48.5099H0V45.8498H27.16C27.93 43.7498 30.24 42.6298 32.34 43.3998C33.95 43.8898 35 45.4299 35 47.1099Z" fill="#7A4922"/>
<path d="M35 59.2193C35 61.4593 33.18 63.2793 30.94 63.2793C29.26 63.2793 27.72 62.2293 27.16 60.6193H14.84C14.07 60.6193 13.51 59.9893 13.51 59.2893V53.8993H0V51.2393H14.84C15.61 51.2393 16.17 51.8693 16.17 52.5693V57.9593H27.16C27.93 55.8593 30.24 54.7393 32.34 55.5093C33.95 55.9993 35 57.5393 35 59.2193Z" fill="#7A4922"/>
</svg>
