<svg width="70" height="70" viewBox="0 0 70 70" fill="none" xmlns="http://www.w3.org/2000/svg">
<path d="M68.88 49.6297L35.91 33.1797C35.35 32.8997 34.65 32.8997 34.09 33.1797L1.12 49.6297C0.42 49.9797 0 50.6797 0 51.4497C0 52.2197 0.42 52.9197 1.12 53.2697L34.09 69.7197C34.37 69.8597 34.72 69.9297 35 69.9297C35.28 69.9297 35.63 69.8597 35.91 69.7197L68.88 53.2697C69.58 52.9197 70 52.2197 70 51.4497C70 50.6797 69.58 49.9797 68.88 49.6297Z" fill="#385A81"/>
<path d="M68.8797 49.6297L35.9097 33.1797C35.6297 33.0397 35.2797 32.9697 34.9297 32.9697V69.9997C34.9297 69.9997 34.9297 69.9997 34.9997 69.9997C35.2797 69.9997 35.6297 69.9297 35.9097 69.7897L68.8797 53.3397C69.5797 52.9897 69.9997 52.2897 69.9997 51.5197C69.9997 50.6797 69.5797 49.9797 68.8797 49.6297Z" fill="#274265"/>
<path d="M68.88 33.1802L35.91 16.6602C35.35 16.3802 34.65 16.3802 34.09 16.6602L1.12 33.1802C0.42 33.5302 0 34.2302 0 35.0002C0 35.7702 0.42 36.4702 1.12 36.8202L34.09 53.2702C34.37 53.4102 34.72 53.4802 35 53.4802C35.28 53.4802 35.63 53.4102 35.91 53.2702L68.88 36.8202C69.58 36.4702 70 35.7702 70 35.0002C70 34.2302 69.58 33.5302 68.88 33.1802Z" fill="#EDF6FC"/>
<path d="M68.8797 33.1802L35.9097 16.6602C35.6297 16.5202 35.2797 16.4502 34.9297 16.4502V53.4802C34.9297 53.4802 34.9297 53.4802 34.9997 53.4802C35.2797 53.4802 35.6297 53.4102 35.9097 53.2702L68.8797 36.8202C69.5797 36.4702 69.9997 35.7702 69.9997 35.0002C69.9997 34.2302 69.5797 33.5302 68.8797 33.1802Z" fill="#D2E1FE"/>
<path d="M68.88 16.66L35.91 0.21C35.35 -0.07 34.65 -0.07 34.09 0.21L1.12 16.66C0.42 17.01 0 17.71 0 18.48C0 19.25 0.42 19.95 1.12 20.3L34.09 36.75C34.37 36.89 34.72 36.96 35 36.96C35.28 36.96 35.63 36.89 35.91 36.75L68.88 20.3C69.58 19.95 70 19.25 70 18.48C70 17.71 69.58 17.01 68.88 16.66Z" fill="#FF6378"/>
<path d="M68.8797 16.66L35.9097 0.21C35.6297 0.07 35.2797 0 34.9297 0V37.03C34.9297 37.03 34.9297 37.03 34.9997 37.03C35.2797 37.03 35.6297 36.96 35.9097 36.82L68.8797 20.37C69.5797 20.02 69.9997 19.32 69.9997 18.55C69.9997 17.78 69.5797 17.01 68.8797 16.66Z" fill="#FF1F3D"/>
</svg>
